<?xml version="1.0" encoding="UTF-8"?><svg xmlns="http://www.w3.org/2000/svg" width="24" height="24" viewBox="0 0 24 24"><defs><style>.c{fill:none;}</style></defs><g id="a"><rect class="c" width="24" height="24"/></g><g id="b"><path d="M3.5,12.8c-.15-.09-.27-.22-.36-.37-.09-.15-.14-.32-.14-.5,0-.28,.11-.54,.31-.74,.2-.2,.46-.31,.74-.31,.14,0,.27,.03,.4,.08,.13,.05,.24,.13,.33,.23,.1,.1,.17,.21,.22,.34,.05,.13,.08,.26,.07,.4,0,.18-.05,.35-.14,.5-.09,.15-.21,.28-.37,.37v1.84h2.19v1.03H3.5v-2.87Zm13.06,2.57h4.44v1.1h-4.65c-.21,.51-.57,.94-1.03,1.24-.46,.3-1,.47-1.55,.46-.55,0-1.09-.15-1.55-.45-.46-.3-.83-.73-1.05-1.23-1.71-.13-3.33-1.1-3.33-3.28v-1.91c0-.95,.39-1.45,2.41-3.49l1.1,.44c-2.1,2.19-2.42,2.42-2.42,3.24v1.78c-.01,.27,.03,.54,.13,.8,.1,.25,.24,.49,.43,.68,.19,.19,.42,.35,.67,.45,.25,.1,.52,.15,.79,.15-.01-.38,.05-.76,.18-1.11,.14-.35,.34-.68,.6-.95,.26-.27,.58-.49,.93-.64,.35-.15,.72-.22,1.1-.22,.38,0,.75,.08,1.1,.23,.35,.15,.66,.37,.92,.64,.26,.27,.46,.6,.59,.95,.13,.36,.19,.73,.17,1.11h.01Zm4.44-8.2c-1.12-.14-2.24-.21-3.37-.21-1.66,.02-3.32,.15-4.96,.39l-1.6-.55-.03-.42c2.32-.33,4.65-.51,6.99-.55,.99,0,1.98,.07,2.97,.19v1.14Zm-5.57,8.21c0-.44-.18-.87-.49-1.18-.31-.31-.74-.49-1.18-.49s-.87,.18-1.18,.49c-.31,.31-.49,.74-.49,1.18s.18,.87,.49,1.18c.31,.31,.74,.49,1.18,.49s.87-.18,1.18-.49c.31-.31,.49-.74,.49-1.18Z"/></g></svg>