<?xml version="1.0" encoding="UTF-8"?><svg xmlns="http://www.w3.org/2000/svg" width="24" height="24" viewBox="0 0 24 24"><defs><style>.c{fill:none;}</style></defs><g id="a"><rect class="c" width="24" height="24"/></g><g id="b"><path d="M3.18,16.35c.19-.38,.47-.7,.83-.93,.36-.23,.77-.35,1.19-.36,.44,0,.87,.13,1.23,.38,.36,.24,.65,.59,.82,.99h10.12c.17-.4,.45-.75,.82-.99,.36-.24,.79-.37,1.23-.38,.42,0,.84,.13,1.19,.36s.64,.55,.83,.93h1.28v-.26c0-.67-.2-1.33-.58-1.89-.36-.3-.79-.49-1.26-.55-.92-.19-1.86-.31-2.81-.35-1.35-.08-1.8-1.19-3.64-2.02-1.15-.4-2.36-.57-3.57-.5-2.04,0-4.78,0-7.58,.08l-1.37-.79v-.27c3.05-.08,6.22-.1,8.98-.1,1.45-.08,2.9,.16,4.25,.71,1.32,.58,2.08,1.52,2.73,1.71,.66,.18,1.84,.16,2.81,.37,1.15,.24,1.68,.37,2.23,.86,.55,.5,.94,1.94,.94,2.78s-.37,1.29-1.15,1.29h-1.02c0,.6-.24,1.17-.66,1.6-.42,.42-1,.66-1.6,.66-.29,0-.58-.05-.85-.15-.27-.11-.52-.27-.73-.47-.21-.2-.38-.45-.49-.71-.11-.27-.18-.56-.18-.85H7.45c-.01,.6-.26,1.17-.7,1.58-.43,.41-1.01,.64-1.61,.62-.6-.01-1.17-.26-1.58-.7-.41-.43-.64-1.01-.62-1.61l-1.15-.34c-1.24-.37-1.64-.97-1.64-2.19v-2.48c.45-.53,.93-1.03,1.44-1.49l.97,.58c-.47,.43-.92,.88-1.34,1.36v2.15c0,.68,.21,.84,.87,1.05l1.09,.31ZM14.01,7.42c0,.68-.55,1.15-1.42,1.15H4.09c-1.44,0-2.19-.63-2.19-1.84-.02-.31,.02-.62,.12-.91,.1-.29,.26-.56,.47-.79,.21-.23,.46-.41,.74-.54,.28-.13,.59-.2,.89-.2h6.67c.81,0,1.33,.34,2.19,1.29,.66,.73,1.02,1.33,1.02,1.84Zm-1.21-.16c0-.16-.26-.55-.73-1-.87-.84-1.05-.92-1.73-.92H4.24c-.18,0-.35,.05-.51,.12-.16,.07-.3,.18-.42,.31-.12,.13-.21,.28-.26,.45-.06,.16-.08,.34-.07,.51,0,.58,.34,.79,1.26,.79H12.34c.37,0,.47-.07,.47-.26h0Zm-6.43,10.1c0-.31-.12-.61-.35-.83-.22-.22-.52-.35-.84-.35s-.61,.12-.83,.35c-.22,.22-.35,.52-.35,.83s.12,.61,.35,.84c.22,.22,.52,.34,.83,.34s.61-.12,.84-.34c.22-.22,.35-.52,.35-.84Zm14.22,0c0-.31-.12-.61-.35-.83-.22-.22-.52-.35-.83-.35s-.61,.12-.83,.35c-.22,.22-.35,.52-.35,.83s.12,.61,.35,.84,.52,.34,.83,.34,.61-.12,.83-.34c.22-.22,.35-.52,.35-.84Z"/></g></svg>