<?xml version="1.0" encoding="UTF-8"?><svg xmlns="http://www.w3.org/2000/svg" width="24" height="24" viewBox="0 0 24 24"><defs><style>.c{fill:none;}</style></defs><g id="a"><rect class="c" width="24" height="24"/></g><g id="b"><path d="M14.65,19.14c-3.47,2.17-5.27,1.37-6.27-.19L3.83,11.67l-1.27,.8-.58-.97,1-1.22-1.73-2.75C-.09,5.4,1.19,3.04,3.6,1.51,6.02-.01,8.71-.09,10.04,2.04l1.73,2.75,1.52-.37,.58,.97-1.24,.76,4.55,7.25c.97,1.6,.94,3.57-2.53,5.73Zm-.58-.94c2.22-1.39,3.02-2.78,2.16-4.16L9.08,2.65c-1.16-1.86-3.61-1-4.89-.2-1.28,.8-3.14,2.64-1.97,4.47l7.11,11.41c.86,1.39,2.47,1.28,4.75-.14h0Zm-3.92-9.8c-.65,.11-1.26,.36-1.8,.72-.57,.33-1.07,.77-1.47,1.3-.76-.49-1.49-1.03-2.16-1.64,.29-1.04,.94-1.93,1.84-2.53,.93-.54,2.02-.75,3.08-.58,.25,.89,.42,1.8,.52,2.72h0Zm5,6.83c-.2,.94-.97,1.47-1.73,1.97-.76,.5-1.61,.95-2.56,.72l-.39-1.61,3.41-2.14,1.27,1.06ZM23.29,1.62V23.6H14.04v-1.13h8.13V2.73H14.02V1.62h9.28Z"/></g></svg>