<?xml version="1.0" encoding="UTF-8"?><svg xmlns="http://www.w3.org/2000/svg" width="24" height="24" viewBox="0 0 24 24"><defs><style>.c{fill:none;}</style></defs><g id="a"><rect class="c" width="24" height="24"/></g><g id="b"><path d="M4.47,17.72l18.25-6.2v1.23L3.99,19.22l.47-1.5Zm4.35-4.67l6.7-2.37c-.14-.61-.04-1.25,.26-1.8,.3-.55,.8-.96,1.39-1.16,.61-.18,1.26-.12,1.82,.16,.57,.29,1,.77,1.21,1.37l.94-.29-.06-.2c-.14-.47-.35-.91-.63-1.3l-.25-.34c-.4-.52-.85-.71-1.82-.63l-1.45,.11c-.45,.02-.9-.01-1.33-.11-1.06-.32-2.16-.5-3.27-.54-1.18-.03-2.43,.59-4.33,1.18-1.18,.37-2.5,.85-3.72,1.31l-1.56-.31-.11-.34c1.08-.4,3.75-1.39,5.33-1.88,1.78-.54,3.24-1.18,4.57-1.14,1.1,.07,2.18,.25,3.24,.54,.31,.06,.62,.09,.93,.11l1.45-.11c.96-.06,1.78,0,2.27,.37,.78,.58,1.38,1.38,1.74,2.29,.4,1.33,.14,1.88-.85,2.18l-.94,.26c-.05,.47-.24,.92-.54,1.28-.3,.36-.71,.63-1.17,.76-.45,.14-.94,.15-1.4,.02-.46-.13-.87-.38-1.19-.73l-7.1,2.49c-.06,.51-.28,.98-.62,1.36-.34,.38-.8,.64-1.29,.74-.5,.11-1.02,.05-1.49-.15-.47-.2-.86-.55-1.12-.99-1.25,.31-1.99,.08-2.44-1.39l-.71-2.33c.32-.9,.71-1.76,1.18-2.59l1.19,.25c-.44,.77-.84,1.56-1.19,2.37l.62,2.05c.2,.59,.46,.62,.94,.48-.04-.55,.11-1.11,.42-1.57s.76-.81,1.29-.99c.61-.19,1.28-.14,1.85,.16,.57,.29,1.01,.79,1.22,1.4Zm-1.08,.46c-.04-.17-.12-.33-.22-.47-.11-.14-.24-.26-.39-.34-.15-.09-.32-.14-.5-.16-.18-.02-.35,0-.52,.05-.17,.05-.32,.14-.46,.26-.13,.11-.24,.26-.32,.42-.08,.16-.12,.33-.12,.51,0,.18,.02,.35,.09,.52,.04,.17,.12,.32,.23,.45,.11,.13,.24,.24,.39,.32,.15,.08,.32,.13,.49,.14,.17,.01,.34-.01,.5-.07,.17-.05,.32-.13,.45-.23,.13-.11,.24-.24,.32-.4,.08-.15,.12-.32,.13-.49s-.01-.34-.07-.5Zm11.39-3.75c-.04-.17-.12-.33-.23-.46-.11-.14-.24-.25-.39-.34-.15-.08-.32-.14-.49-.16-.17-.02-.35,0-.51,.05-.32,.11-.59,.34-.74,.64-.15,.3-.18,.65-.08,.98,.04,.17,.12,.32,.23,.46,.11,.14,.24,.25,.39,.33,.15,.08,.32,.13,.49,.15,.17,.02,.35,0,.51-.06,.16-.05,.31-.13,.44-.23,.13-.11,.24-.24,.31-.39,.08-.15,.12-.31,.14-.48,.01-.17,0-.33-.06-.49Z"/></g></svg>