<?xml version="1.0" encoding="UTF-8"?><svg xmlns="http://www.w3.org/2000/svg" width="24" height="24" viewBox="0 0 24 24"><defs><style>.c{fill:none;}</style></defs><g id="a"><rect class="c" width="24" height="24"/></g><g id="b"><path d="M12,22.55c-4.14,0-5.28-1.66-5.28-3.52V10.32h-1.51v-1.17l1.52-.51v-3.28c0-2.57,2.35-3.91,5.28-3.91s5.28,1.35,5.28,3.91v3.29l1.49,.51v1.17h-1.51v8.66c0,1.89-1.1,3.55-5.27,3.55Zm0-1.13c2.68,0,4.11-.76,4.11-2.42V5.36c0-2.2-2.59-2.79-4.11-2.79s-4.11,.59-4.11,2.79v13.63c0,1.66,1.43,2.42,4.11,2.42Zm1.95-10.54c-.62-.24-1.28-.36-1.94-.34-.67-.02-1.34,.1-1.97,.34-.39-.84-.72-1.71-.99-2.59,.81-.72,1.85-1.14,2.93-1.17,1.09,.04,2.12,.45,2.93,1.17-.25,.89-.57,1.76-.97,2.59h0Zm.59,8.56c-.68,.7-1.64,.76-2.56,.76s-1.89-.06-2.59-.76l.54-1.58h4.11l.51,1.58Z"/></g></svg>