<?xml version="1.0" encoding="UTF-8"?><svg xmlns="http://www.w3.org/2000/svg" width="24" height="24" viewBox="0 0 24 24"><defs><style>.c{fill:none;}</style></defs><g id="a"><rect class="c" width="24" height="24"/></g><g id="b"><path d="M5.23,22.82c-3.98-.68-4.75-2.46-4.45-4.26l1.47-8.3-1.44-.24,.19-1.09,1.53-.24,.57-3.14c.44-2.46,2.95-3.33,5.69-2.84,2.74,.49,4.81,2.16,4.37,4.62l-.57,3.14,1.37,.73-.22,1.09-1.42-.24-1.47,8.3c-.31,1.8-1.66,3.18-5.61,2.49Zm.19-1.06c2.54,.44,4.04,0,4.31-1.64l2.27-13c.38-2.1-2-3.11-3.44-3.36-1.44-.24-4.04-.14-4.4,1.96L1.9,18.75c-.27,1.58,.98,2.54,3.53,3Zm2.76-1.44c-.77,.57-1.67,.43-2.57,.27-.9-.16-1.8-.36-2.34-1.14l.79-1.42,3.88,.68,.24,1.6Zm.87-8.3c-.56-.32-1.16-.53-1.8-.63-.64-.13-1.3-.14-1.94-.03-.24-.86-.41-1.74-.52-2.62,.91-.54,1.98-.74,3.03-.57,1.03,.2,1.97,.76,2.62,1.58-.41,.79-.87,1.55-1.39,2.26ZM17.23,2l-1.4,1.12-2.1,1.88-.5-1,3.5-3,.5,1Zm2.5,3.99l-5.26,1.01-.41-1.01,4.67-.99,1,.99Zm-3.26,16.87h-1.14v-7.34c0-1.67,.96-2.84,2.79-2.84h3.82c-.6-.36-1.29-.71-1.94-1.06l.49-.93c1,.57,1.93,1.23,2.79,2v1.06c-.86,.76-1.79,1.43-2.79,1.99l-.49-.93c.65-.35,1.34-.71,1.94-1.06h-3.81c-1.09,0-1.67,.71-1.67,1.77v7.35Z"/></g></svg>