<?xml version="1.0" encoding="UTF-8"?><svg xmlns="http://www.w3.org/2000/svg" width="24" height="24" viewBox="0 0 24 24"><defs><style>.c{fill:none;}</style></defs><g id="a"><rect class="c" width="24" height="24"/></g><g id="b"><path d="M4.35,16.66h15.3v1.13H4.35v-1.13ZM7.08,6.1h1.02l-2.56,9.39h-1.13L7.08,6.1Zm.76-2.28h8.26v1.13H7.84v-1.13Zm1.55,2.28h1.02l-1.38,9.39h-1.13l1.49-9.39Zm-.87,10.93h1.13v2.71h-1.13v-2.71Zm0,2.03h6.95v1.13h-6.95v-1.13Zm4.03-3.58V6.09h-1.07l-.03,9.39h1.1Zm2.42,0l-1.38-9.39h1.01l1.5,9.39h-1.13Zm-.62,1.55h1.13v2.71h-1.13v-2.71Zm4.11-1.55l-2.56-9.39h1.02l2.68,9.39h-1.13Z"/></g></svg>