<svg id="Icones" xmlns="http://www.w3.org/2000/svg" width="32" height="32" viewBox="0 0 32 32"><defs><style>.cls-1{fill:none;}</style></defs><rect class="cls-1" width="32" height="32"/><path d="M9.48,21.83c-.76,0-1.51,0-2.26,0V20.8a31.2,31.2,0,0,1,3.35,0L15,16.53H9.19A24.85,24.85,0,0,1,6.72,19L6,18.23c.59-.54,1.19-1.1,1.75-1.7H4.8V15.47H7.72c-.56-.6-1.16-1.16-1.75-1.7L6.72,13a24.85,24.85,0,0,1,2.47,2.45H15l-4.43-4.24a30.86,30.86,0,0,1-3.19,0V10.14c.69,0,1.41.06,2.1,0l-2.07-2,.78-.78,2.32,2.22c0-.84,0-1.72,0-2.57h1.07a35.61,35.61,0,0,1,0,3.58l3.92,3.73V4.8h1.09v6.81c2.45.19,3.89,1.82,3.89,4.39a4,4,0,0,1-3.89,4.39V27.2H15.47V17.63l-4.08,3.89a32.51,32.51,0,0,1,0,3.42H10.32c0-.79.07-1.63,0-2.42L8.19,24.59l-.78-.78Zm7.08-9.15v6.64A3,3,0,0,0,19.36,16,3,3,0,0,0,16.56,12.68Zm7-5,.78.78-3.17,3.17-.78-.78ZM20.36,21.14l.78-.78,3.17,3.17-.78.78Zm6.84-5.7v1.12H22.74V15.44Z"/></svg>