<?xml version="1.0" encoding="UTF-8"?><svg xmlns="http://www.w3.org/2000/svg" width="24" height="24" viewBox="0 0 24 24"><defs><style>.c{fill:none;}</style></defs><g id="a"><rect class="c" width="24" height="24"/></g><g id="b"><path d="M16.45,8.07c-.64-1.01-1.53-1.83-2.59-2.39-1.06-.56-2.24-.83-3.44-.79-4.14,0-7.04,2.94-7.04,7.1s2.93,7.1,7.07,7.1c1.07,.04,2.13-.18,3.1-.62,.97-.44,1.83-1.11,2.5-1.94,.35,.22,.76,.36,1.17,.39-.78,1.06-1.8,1.91-2.97,2.48-1.18,.58-2.48,.86-3.79,.81-4.79,0-8.22-3.44-8.22-8.22S5.69,3.78,10.47,3.78c1.56-.05,3.1,.37,4.43,1.19,1.33,.82,2.39,2.02,3.04,3.44-.52,.02-1.03-.1-1.49-.34h0Zm-1.17,2.11c-.75-.3-1.54-.47-2.35-.51-.98,.04-1.93,.34-2.76,.87l-.48-.93c.94-.69,2.07-1.07,3.24-1.1,.87,.01,1.73,.18,2.54,.5l.7,.22c.84,.3,1.73,.45,2.62,.45,.88-.03,1.73-.29,2.48-.76l.48,.93c-.85,.64-1.87,1-2.93,1.01-.95,0-1.89-.17-2.79-.48l-.75-.22Zm0,2.51c-.75-.3-1.54-.47-2.35-.5-.98,.04-1.93,.34-2.76,.87l-.48-.93c.94-.69,2.07-1.07,3.24-1.1,.87,.02,1.73,.19,2.54,.51l.7,.23c.84,.3,1.73,.45,2.62,.45,.88-.03,1.74-.29,2.48-.76l.48,.93c-.84,.65-1.87,1-2.93,1.02-.95,0-1.89-.17-2.79-.48l-.75-.23Zm0,2.51c-.75-.3-1.54-.47-2.35-.51-.98,.04-1.93,.35-2.76,.88l-.48-.93c.94-.69,2.07-1.07,3.24-1.1,.87,.01,1.73,.19,2.54,.51l.7,.22c.84,.3,1.73,.45,2.62,.45,.88-.02,1.74-.29,2.48-.76l.45,.91c-.85,.64-1.87,.99-2.93,1.01-.96,0-1.91-.13-2.82-.42l-.69-.26Z"/></g></svg>