<?xml version="1.0" encoding="UTF-8"?><svg xmlns="http://www.w3.org/2000/svg" width="24" height="24" viewBox="0 0 24 24"><defs><style>.c{fill:none;}</style></defs><g id="a"><rect class="c" width="24" height="24"/></g><g id="b"><path d="M5.58,17.59l.93-.92-1.03-.57,.77-.78,1.03,.57,3.34-3.34H5.95l-.32,1.17h-1.13l.32-1.18h-1.33v-1.13h1.33l-.32-1.13h1.13l.32,1.13h4.73l-3.32-3.31-1.09,.57-.79-.79,1.09-.57-.97-.93,.79-.79,.95,.95,.57-1.04,.76,.77-.57,1.03,3.32,3.32V5.94l-1.17-.32v-1.13l1.17,.33v-1.32h1.13v1.34l1.13-.33v1.13l-1.13,.32v2.15c2.09,.22,3.31,1.65,3.31,3.91s-1.22,3.68-3.3,3.88v2.14l1.13,.33v1.13l-1.13-.33v1.33h-1.13v-1.33l-1.17,.33v-1.13l1.17-.33v-4.75l-3.34,3.34,.57,1.06-.79,.79-.57-1.06-.93,.97-.79-.79Zm6.98-8.41v5.66c1.38-.21,2.2-1.19,2.2-2.83s-.81-2.61-2.2-2.83Zm3.45,6.08l2.42,2.39-.81,.82-2.39-2.42,.79-.79Zm-.76-7.23l2.39-2.42,.82,.81-2.39,2.39-.81-.79Zm1.87,3.42h3.39v1.13h-3.39v-1.13Z"/></g></svg>