<?xml version="1.0" encoding="UTF-8"?><svg xmlns="http://www.w3.org/2000/svg" width="24" height="24" viewBox="0 0 24 24"><defs><style>.c{fill:none;}</style></defs><g id="a"><rect class="c" width="24" height="24"/></g><g id="b"><path d="M5.2,16.54h13.6v1.13H5.2v-1.13Zm3.51-1.13c.25-.8,.38-1.64,.41-2.48,.02-1.1-.14-2.2-.46-3.25-.37-1.08-.54-2.21-.49-3.35h1.13c-.03,1.04,.13,2.09,.46,3.08,.32,1.12,.48,2.27,.49,3.43,0,.86-.12,1.72-.35,2.56h-1.19Zm2.53,.01c.24-.8,.38-1.64,.41-2.48,.01-1.1-.14-2.19-.46-3.24-.37-1.08-.53-2.21-.49-3.35h1.13c-.03,1.04,.12,2.09,.46,3.08,.32,1.11,.48,2.27,.49,3.43-.01,.86-.13,1.72-.36,2.56h-1.18Zm2.53,0c.25-.8,.38-1.64,.41-2.48,.02-1.1-.14-2.19-.46-3.24-.37-1.08-.54-2.21-.49-3.35h1.13c-.03,1.05,.13,2.09,.46,3.08,.32,1.11,.48,2.27,.49,3.43,0,.86-.12,1.72-.35,2.56h-1.19Z"/></g></svg>