<?xml version="1.0" encoding="UTF-8"?><svg xmlns="http://www.w3.org/2000/svg" width="24" height="24" viewBox="0 0 24 24"><defs><style>.c{fill:none;}</style></defs><g id="a"><rect class="c" width="24" height="24"/></g><g id="b"><path d="M17.03,8.74l.96,3.52c.33,1.45,1.04,2.78,2.06,3.86v1.17h-5.04c-.14,1.49-1.24,2.35-2.99,2.35s-2.85-.85-2.99-2.35H3.95v-1.17c1.01-1.08,1.72-2.42,2.06-3.86l.96-3.52c.85-3.07,2.31-4.39,5.04-4.39s4.17,1.24,5.02,4.39Zm-8.91,.23l-.96,3.46c-.32,1.33-.89,2.58-1.69,3.69h13.05c-.81-1.11-1.39-2.36-1.71-3.69l-.94-3.46c-.7-2.54-1.72-3.47-3.86-3.47s-3.21,.93-3.89,3.47Zm1.94,2l-1.17-.26,.53-2c.4-1.47,1.1-2,2.65-2v1.17c-.99,0-1.27,.16-1.53,1.13l-.49,1.96Zm3.75,6.31h-3.6c.08,.85,.73,1.24,1.8,1.24s1.72-.39,1.8-1.24Z"/></g></svg>