<?xml version="1.0" encoding="UTF-8"?><svg xmlns="http://www.w3.org/2000/svg" width="24" height="24" viewBox="0 0 24 24"><defs><style>.c{fill:none;}</style></defs><g id="a"><rect class="c" width="24" height="24"/></g><g id="b"><path d="M8.25,3.97c.22,.3,.41,.63,.56,.97-1.82,.74-3.32,2.08-4.27,3.79-.34-.17-.66-.37-.95-.62,1.07-1.85,2.7-3.3,4.66-4.14h0Zm-3.3,15.29l1.35-1.69c-1.09-1.35-1.67-3.05-1.62-4.79,0-4.39,3.08-7.33,7.33-7.33s7.33,2.92,7.33,7.33c.05,1.74-.53,3.44-1.62,4.79l1.35,1.69-.89,.75-1.27-1.65c-1.38,1.13-3.11,1.73-4.9,1.69-1.78,.04-3.52-.56-4.89-1.69l-1.27,1.65-.89-.75ZM12.01,6.54c-3.65,0-6.2,2.43-6.2,6.2s2.6,6.2,6.2,6.2,6.23-2.46,6.23-6.2-2.58-6.2-6.23-6.2Zm-.56,2.25h1.13v3.44h3.38v1.13h-4.51v-4.57Zm8.02-.06c-.94-1.73-2.45-3.07-4.27-3.82,.15-.34,.34-.67,.56-.97,1.96,.85,3.59,2.31,4.65,4.17-.29,.25-.6,.45-.94,.62Z"/></g></svg>