<svg id="Icones" xmlns="http://www.w3.org/2000/svg" width="32" height="32" viewBox="0 0 32 32"><defs><style>.cls-1{fill:none;}</style></defs><rect class="cls-1" width="32" height="32"/><path d="M21.42,11.93l1.06,4a9.64,9.64,0,0,0,2.29,4.49v1.09H19.16a3.1,3.1,0,0,1-3.33,3.36,3.09,3.09,0,0,1-3.32-3.36H6.87V20.46A9.62,9.62,0,0,0,9.15,16l1.07-4C11.13,8.51,12.79,7,15.83,7S20.48,8.45,21.42,11.93Zm-10.1.25-1.07,4a10.83,10.83,0,0,1-2,4.3H23.39a11.11,11.11,0,0,1-2-4.3l-1.06-4c-.79-3-2-4.08-4.49-4.08S12.1,9.2,11.32,12.18Zm1.6-.69a2.53,2.53,0,0,1,2.91-2.23v1.07c-1.19,0-1.5.22-1.81,1.47Zm2.91,12.35a2,2,0,0,0,2.23-2.29H13.61A2,2,0,0,0,15.83,23.84Z"/></svg>