<?xml version="1.0" encoding="UTF-8"?><svg xmlns="http://www.w3.org/2000/svg" width="24" height="24" viewBox="0 0 24 24"><defs><style>.c{fill:none;}</style></defs><g id="a"><rect class="c" width="24" height="24"/></g><g id="b"><path d="M21.59,21.4H2.41l-.51-.59C5.15,14.13,7.26,10.24,11.66,2.6h.68c4.43,7.64,6.52,11.54,9.76,18.21l-.51,.59Zm-1.01-1.13c-2.94-5.95-5.05-9.84-8.58-16.07-3.52,6.23-5.67,10.12-8.57,16.07H20.57Zm-7.64-2.43c0,.18-.05,.37-.15,.52-.1,.16-.25,.28-.42,.35-.17,.07-.36,.09-.54,.05-.18-.04-.35-.12-.48-.25-.13-.13-.22-.3-.26-.48s-.02-.37,.05-.54c.07-.17,.19-.32,.34-.42,.15-.1,.33-.16,.52-.16,.12-.01,.25,0,.37,.05,.12,.04,.22,.11,.31,.2,.09,.09,.16,.2,.2,.31,.04,.12,.06,.24,.05,.37h0Zm-1.52-9.64h1.24v4.31l-.09,3.24h-1.09l-.08-3.24,.02-4.31Z"/></g></svg>