<?xml version="1.0" encoding="UTF-8"?><svg xmlns="http://www.w3.org/2000/svg" width="24" height="24" viewBox="0 0 24 24"><defs><style>.c{fill:none;}</style></defs><g id="a"><rect class="c" width="24" height="24"/></g><g id="b"><path d="M5.07,17.47l-1.53,.68,.33-4.24,.79-.22c1.81,5.42,3.72,6.73,6.71,6.84V9.12H6.55v-1.14h4.82v-2.23c-.37-.11-.69-.33-.91-.64s-.34-.69-.32-1.07c0-.23,.04-.47,.12-.68,.09-.22,.22-.41,.38-.58,.17-.16,.37-.29,.58-.38,.22-.08,.45-.12,.69-.11,.24-.01,.48,.02,.7,.1,.22,.08,.43,.21,.6,.38,.17,.17,.31,.37,.4,.59,.09,.22,.13,.46,.12,.7,.01,.38-.1,.76-.32,1.07-.22,.31-.54,.54-.91,.64v2.23h4.79v1.14h-4.79v11.43c3.07-.14,5.01-1.4,6.84-6.9l.8,.22,.31,4.27-1.53-.68c-1.86,3.53-4.41,4.24-6.9,4.24s-5.09-.71-6.95-4.24ZM12.63,4.06c0-.1,0-.19-.04-.28-.03-.09-.09-.17-.15-.23-.07-.07-.15-.11-.24-.15-.09-.03-.18-.04-.28-.03-.09,0-.19,0-.27,.04-.09,.03-.17,.08-.24,.15s-.12,.14-.15,.23-.05,.18-.04,.27c0,.1,0,.19,.04,.28,.03,.09,.08,.17,.15,.24,.07,.07,.15,.12,.24,.15,.09,.03,.19,.05,.28,.04,.1,.01,.19,0,.28-.03,.09-.03,.17-.08,.24-.15,.07-.07,.12-.15,.15-.24,.03-.09,.04-.19,.03-.28Z"/></g></svg>