<svg id="Icones" xmlns="http://www.w3.org/2000/svg" width="32" height="32" viewBox="0 0 32 32"><defs><style>.cls-1{fill:none;}</style></defs><rect class="cls-1" width="32" height="32"/><path d="M16,7c5.52,0,9,3.48,9,9s-3.51,9-9,9-9-3.51-9-9S10.51,7,16,7ZM16,8.1c-4.89,0-7.9,3-7.9,7.9s3,7.9,7.9,7.9,7.9-3,7.9-7.9S20.89,8.1,16,8.1Zm-4,3.42,2.76,1.59v.66a.87.87,0,0,1-1,1,.88.88,0,0,1-1-1,1.09,1.09,0,0,1,.1-.5l-1.45-.84Zm7.33,8.56-1,.37c-.56-1.6-1.25-2.25-2.32-2.25s-1.76.65-2.32,2.25l-1-.37c.65-2,1.75-2.95,3.32-2.95S18.67,18.1,19.32,20.08Zm-.21-6.81a1.24,1.24,0,0,1,.09.5.87.87,0,0,1-1,1,.89.89,0,0,1-1-1v-.66L20,11.52l.54.91Z"/></svg>