<?xml version="1.0" encoding="UTF-8"?><svg xmlns="http://www.w3.org/2000/svg" width="24" height="24" viewBox="0 0 24 24"><defs><style>.c{fill:none;}</style></defs><g id="a"><rect class="c" width="24" height="24"/></g><g id="b"><path d="M.22,14.45l2.12-.76L15.41,4.85l4.25,11.66-6.97,.76,.13,.78c.02,.14,.03,.29,.03,.43,0,1.48-1.59,2.12-3.23,2.12-1.51,0-2.45-.62-2.58-2.07l-.06-.64-3.01,.33-2.1,.75L.22,14.45Zm3.41,2.8l-.97-2.64-1.12,.38,.96,2.64,1.13-.38Zm1.08-.27l13.45-1.43-3.28-8.99L3.67,14.09l1.04,2.89Zm4.87,2.5c1.08,0,2.15-.16,2.15-1.12,0-.14,0-.29-.03-.43l-.11-.56-3.5,.37,.06,.56c.08,.93,.59,1.2,1.42,1.2v-.02ZM17.88,7.13l-.83-.73,2.31-3.01,.86,.7-2.33,3.04Zm.72,3.47l-.38-1.05,3.49-1.46,.38,1.05-3.49,1.45Zm4.9,3.85l-3.78-.76,.24-1.12,3.82,.78-.27,1.09Z"/></g></svg>