<svg id="Icones" xmlns="http://www.w3.org/2000/svg" width="32" height="32" viewBox="0 0 32 32"><defs><style>.cls-1{fill:none;}</style></defs><rect class="cls-1" width="32" height="32"/><path d="M10.5,22.09H9.09v1.75H8V22.09H4.2v-.94a34.09,34.09,0,0,1,3.42-6.24H9.09V21H10.5Zm1.41,3.38a11.76,11.76,0,0,0,3.92.63C22,26.1,26,22.12,26,16S22,5.84,15.83,5.84c-3.88,0-7,1.57-8.68,4.36,1.06-.47,2-.88,3.2-1.47l.44.88c-1.64.75-2.67,1.19-4.4,1.88l-.81-.38a35.42,35.42,0,0,1-.31-4.67h1c0,1.41,0,2.19.09,3.1,1.88-3.07,5.27-4.76,9.5-4.76C22.7,4.78,27.09,9.17,27.09,16s-4.42,11.2-11.26,11.2a13.08,13.08,0,0,1-4.26-.66ZM8,21V16.16A38.79,38.79,0,0,0,5.36,21ZM15.3,8.16h1.1v7.28h7.27v1.07H15.3Z"/></svg>