<?xml version="1.0" encoding="UTF-8"?><svg xmlns="http://www.w3.org/2000/svg" width="24" height="24" viewBox="0 0 24 24"><defs><style>.c{fill:none;}</style></defs><g id="a"><rect class="c" width="24" height="24"/></g><g id="b"><path d="M7.82,16.61h-1.08v1.68h-1.16v-1.68H2.14v-.83c.85-1.89,1.9-3.69,3.11-5.37h1.48v5.09h1.08v1.11Zm14.03-4.64c0,5.27-3.9,9.28-9.97,9.28-1.71,.02-3.4-.4-4.9-1.22l.53-1.03c1.33,.77,2.84,1.17,4.37,1.16,5.38,0,8.83-3.54,8.83-8.16S17.29,3.88,11.97,3.88c-3.67,0-5.71,1.67-7.07,4.26,.86-.42,1.53-.78,2.56-1.25l.42,1.03c-1.45,.61-2.2,.97-3.73,1.58l-.89-.39c-.23-1.37-.36-2.76-.37-4.16l1.11-.06c0,1.16,0,1.84,.05,2.59,1.59-2.9,3.96-4.73,7.93-4.73,5.99,0,9.86,4.01,9.86,9.24v-.02ZM5.62,15.45v-3.68c-.82,1.19-1.55,2.44-2.19,3.73l2.19-.05ZM11.42,6.13h1.16v5.8h5.76v1.2h-6.95l.03-7Z"/></g></svg>