<svg id="Icones" xmlns="http://www.w3.org/2000/svg" width="32" height="32" viewBox="0 0 32 32"><defs><style>.cls-1{fill:none;}</style></defs><rect class="cls-1" width="32" height="32"/><path d="M8,14.84a2,2,0,0,1-2.22-2.22V8.13A2,2,0,0,1,8,5.91h4.46a2,2,0,0,1,2.22,2.22v4.49a2,2,0,0,1-2.22,2.22ZM8,26.07a2,2,0,0,1-2.22-2.23V19.36A2,2,0,0,1,8,17.13h4.46a2,2,0,0,1,2.22,2.23v4.48a2,2,0,0,1-2.22,2.23Zm5.59-13.45V8.13c0-.81-.32-1.16-1.13-1.16H8c-.81,0-1.13.35-1.13,1.16v4.49c0,.81.32,1.16,1.13,1.16h4.46C13.26,13.78,13.58,13.43,13.58,12.62Zm0,11.22V19.36c0-.82-.32-1.16-1.13-1.16H8c-.81,0-1.13.34-1.13,1.16v4.48C6.86,24.66,7.18,25,8,25h4.46C13.26,25,13.58,24.66,13.58,23.84Zm5.64,2.23A2,2,0,0,1,17,23.84V19.36a2,2,0,0,1,2.23-2.23h4.45a2,2,0,0,1,2.23,2.23v4.48a2,2,0,0,1-2.23,2.23Zm5.58-2.23V19.36c0-.82-.31-1.16-1.13-1.16H19.22c-.82,0-1.13.34-1.13,1.16v4.48c0,.82.31,1.16,1.13,1.16h4.45C24.49,25,24.8,24.66,24.8,23.84ZM21.45,12.62a2,2,0,0,1-2.23-2.23V8.13a2,2,0,0,1,2.23-2.22h2.22A2,2,0,0,1,25.9,8.13v2.26a2,2,0,0,1-2.23,2.23Zm3.38-2.2V8.1c0-.81-.31-1.16-1.13-1.16H21.42c-.82,0-1.13.35-1.13,1.16v2.32c0,.82.31,1.16,1.13,1.16H23.7C24.52,11.58,24.83,11.24,24.83,10.42Z"/></svg>