<?xml version="1.0" encoding="UTF-8"?><svg xmlns="http://www.w3.org/2000/svg" width="24" height="24" viewBox="0 0 24 24"><defs><style>.c{fill:none;}</style></defs><g id="a"><rect class="c" width="24" height="24"/></g><g id="b"><path d="M4.76,10.83c-1.33,0-1.96-.63-1.96-1.96V4.75c0-1.33,.63-1.96,1.96-1.96h4.12c1.32,0,1.96,.63,1.96,1.96v4.12c0,1.33-.64,1.96-1.96,1.96H4.76Zm0,10.36c-1.33,0-1.96-.63-1.96-1.96v-4.09c0-1.33,.63-1.96,1.96-1.96h4.12c1.32,0,1.96,.63,1.96,1.96v4.12c0,1.33-.64,1.96-1.96,1.96l-4.12-.03Zm4.94-12.52v-3.75c0-.72-.28-1.02-1-1.02h-3.79c-.71,0-1,.31-1,1.02v3.78c0,.72,.28,1.02,1,1.02h3.82c.69,0,.97-.31,.97-1.02v-.03Zm0,10.39v-3.75c0-.72-.28-1.02-1-1.02h-3.79c-.71,0-1,.31-1,1.02v3.78c0,.72,.28,1.02,1,1.02h3.82c.69,0,.97-.31,.97-1.02v-.03Zm5.41,2.13c-1.33,0-1.96-.63-1.96-1.96v-4.09c0-1.33,.63-1.96,1.96-1.96h4.12c1.32,0,1.96,.63,1.96,1.96v4.12c0,1.33-.64,1.96-1.96,1.96l-4.12-.03Zm4.94-2.13v-3.75c0-.72-.28-1.02-.99-1.02h-3.79c-.71,0-.99,.31-.99,1.02v3.78c0,.72,.28,1.02,.99,1.02h3.82c.69,0,.97-.31,.97-1.02v-.03Zm-2.65-10.5c-1.32,0-1.96-.63-1.96-1.96v-1.85c0-1.33,.64-1.96,1.96-1.96h1.82c1.32,0,1.96,.63,1.96,1.96v1.85c0,1.32-.64,1.96-1.96,1.96h-1.82Zm2.65-2.12v-1.52c0-.72-.28-1.02-.99-1.02h-1.49c-.72,0-1,.31-1,1.02v1.52c0,.72,.28,1.02,1,1.02h1.52c.69,0,.97-.3,.97-1.02Z"/></g></svg>