<?xml version="1.0" encoding="UTF-8"?><svg xmlns="http://www.w3.org/2000/svg" width="24" height="24" viewBox="0 0 24 24"><defs><style>.c{fill:none;}</style></defs><g id="a"><rect class="c" width="24" height="24"/></g><g id="b"><path d="M4.76,11.63c-1.33,0-1.96-.63-1.96-1.96V5.56c0-1.33,.63-1.96,1.96-1.96h4.11c1.32,0,1.96,.63,1.96,1.96v4.11c0,1.33-.64,1.96-1.96,1.96H4.76Zm0,10.34c-1.33,0-1.96-.63-1.96-1.96v-4.08c0-1.33,.63-1.96,1.96-1.96h4.11c1.32,0,1.96,.63,1.96,1.96v4.11c0,1.33-.64,1.96-1.96,1.96l-4.11-.03Zm4.94-12.5v-3.75c0-.72-.28-1.02-.99-1.02h-3.78c-.71,0-.99,.3-.99,1.02v3.78c0,.72,.28,1.02,.99,1.02h3.79c.71,0,.99-.3,.99-1.02v-.03Zm0,10.37v-3.75c0-.72-.28-1.02-.99-1.02h-3.78c-.71,0-.99,.3-.99,1.02v3.78c0,.72,.28,1.02,.99,1.02h3.79c.71,0,.99-.3,.99-1.02v-.03Zm4.94-11.22l-.94,.49c-.38-.64-.57-1.36-.58-2.1-.03-.45,.04-.9,.2-1.33,.16-.42,.4-.81,.72-1.13,.32-.32,.7-.57,1.12-.73,.42-.16,.87-.23,1.32-.21h1.01c-.41-.25-.77-.44-1.38-.78l.5-.86c.82,.48,1.58,1.05,2.26,1.72v.83c-.67,.67-1.43,1.25-2.26,1.72l-.5-.8c.61-.33,.97-.52,1.38-.77h-.99c-1.52,0-2.3,.91-2.3,2.34-.04,.57,.11,1.13,.42,1.6v-.03Zm.47,13.35c-1.33,0-1.96-.63-1.96-1.96v-4.08c0-1.33,.63-1.96,1.96-1.96h4.11c1.32,0,1.96,.63,1.96,1.96v4.11c0,1.33-.64,1.96-1.96,1.96l-4.11-.03Zm4.93-2.13v-3.75c0-.72-.27-1.02-.99-1.02h-3.78c-.72,0-.99,.3-.99,1.02v3.78c0,.72,.28,1.02,.99,1.02h3.78c.71,0,.99-.3,.99-1.02v-.03Zm-.36-14.42l.94-.5c.37,.64,.57,1.36,.57,2.1,.03,.45-.04,.9-.2,1.33-.16,.42-.4,.81-.72,1.13-.32,.32-.7,.57-1.12,.73-.42,.16-.87,.23-1.32,.21h-1.02c.41,.25,.78,.44,1.38,.77l-.49,.86c-.82-.48-1.59-1.06-2.26-1.72v-.82c.68-.67,1.44-1.25,2.26-1.72l.49,.86c-.57,.33-.96,.52-1.38,.77h.99c1.52,0,2.3-.91,2.3-2.34,.03-.57-.11-1.13-.42-1.61v-.03Z"/></g></svg>