<?xml version="1.0" encoding="UTF-8"?><svg xmlns="http://www.w3.org/2000/svg" width="24" height="24" viewBox="0 0 24 24"><defs><style>.c{fill:none;}</style></defs><g id="a"><rect class="c" width="24" height="24"/></g><g id="b"><path d="M4.8,10.83c-1.32,0-1.95-.63-1.95-1.95V4.79c0-1.32,.63-1.95,1.95-1.95h4.09c1.32,0,1.95,.63,1.95,1.95v4.09c0,1.32-.64,1.95-1.95,1.95H4.8Zm0,10.3c-1.32,0-1.95-.63-1.95-1.95v-4.06c0-1.32,.63-1.95,1.95-1.95h4.09c1.32,0,1.95,.63,1.95,1.95v4.09c0,1.32-.64,1.95-1.95,1.95l-4.09-.03Zm4.92-12.45v-3.73c0-.72-.27-1.02-.99-1.02h-3.77c-.71,0-.98,.3-.98,1.02v3.76c0,.72,.27,1.02,.98,1.02h3.75c.73,0,1.01-.3,1.01-1.02v-.03Zm0,10.33v-3.73c0-.72-.27-1.02-.99-1.02h-3.77c-.71,0-.98,.3-.98,1.02v3.76c0,.72,.27,1.02,.98,1.02h3.75c.73,0,1.01-.3,1.01-1.02v-.03Zm5.39-8.21c-1.32,0-1.95-.63-1.95-1.95V4.79c0-1.32,.63-1.95,1.95-1.95h4.09c1.32,0,1.95,.63,1.95,1.95v4.09c0,1.32-.63,1.95-1.95,1.95l-4.09-.03Zm0,10.3c-1.32,0-1.95-.63-1.95-1.95v-4.04c0-1.32,.63-1.95,1.95-1.95h4.09c1.32,0,1.95,.63,1.95,1.95v4.09c0,1.32-.63,1.95-1.95,1.95l-4.09-.06Zm4.92-12.45v-3.7c0-.72-.27-1.02-.99-1.02h-3.76c-.71,0-.99,.3-.99,1.02v3.76c0,.72,.27,1.02,.99,1.02h3.74c.73,0,1.01-.3,1.01-1.02v-.06Zm0,10.33v-3.7c0-.72-.27-1.02-.99-1.02h-3.76c-.71,0-.99,.3-.99,1.02v3.76c0,.72,.27,1.02,.99,1.02h3.74c.73,0,1.01-.3,1.01-1.02v-.06Z"/></g></svg>