<svg id="Icones" xmlns="http://www.w3.org/2000/svg" width="32" height="32" viewBox="0 0 32 32"><defs><style>.cls-1{fill:none;}</style></defs><rect class="cls-1" width="32" height="32"/><path d="M4.74,13.22H1.42V12.1H4.74ZM6.15,8.68,3.8,6.33l.82-.82L7,7.86ZM7,17.46,4.62,19.81,3.8,19l2.35-2.35Zm1-2.13A3.86,3.86,0,0,1,7,12.63,3.65,3.65,0,0,1,11,8.74a3.81,3.81,0,0,1,2.7.94,5.68,5.68,0,0,0-.85.69A2.82,2.82,0,0,0,11,9.81a2.6,2.6,0,0,0-2.82,2.82,2.67,2.67,0,0,0,.59,1.91A3.59,3.59,0,0,0,8,15.33Zm4.52,6.83c-2.51,0-4.3-1.63-4.3-3.92a3.91,3.91,0,0,1,4-3.89,4.74,4.74,0,0,1,5-4.48c2.79,0,4.55,1.44,4.7,3.86a4.07,4.07,0,0,1,4.24,4.2c0,2.57-1.82,4.23-4.58,4.23ZM25,17.93c0-2.07-1.6-3.26-4.23-3.17,0-2.6-1.16-3.82-3.64-3.82s-3.95,1.56-3.95,4.45c-2.48-.1-4,1-4,2.85,0,1.66,1.31,2.82,3.23,2.82h9C23.59,21.06,25,19.78,25,17.93ZM10.39,6.45V3.13h1.13V6.45ZM13,23.26l1.07.22-.76,3.35-1.06-.21Zm3.54,0,1.07.22-1.19,5.39-1.07-.22ZM16.63,8.8a4.75,4.75,0,0,1,5-4.51c2.8,0,4.55,1.44,4.71,3.85a4.08,4.08,0,0,1,4.23,4.21,4.05,4.05,0,0,1-3.48,4.14,3.64,3.64,0,0,0-.41-1,3.18,3.18,0,0,0,2.83-3.13c0-2.07-1.6-3.26-4.24-3.17,0-2.6-1.16-3.83-3.64-3.83A3.55,3.55,0,0,0,17.76,8.8,7.1,7.1,0,0,0,16.63,8.8Zm3.51,14.46,1.07.22-.76,3.35-1.06-.21Z"/></svg>