<?xml version="1.0" encoding="UTF-8"?><svg xmlns="http://www.w3.org/2000/svg" width="24" height="24" viewBox="0 0 24 24"><defs><style>.c{fill:none;}</style></defs><g id="a"><rect class="c" width="24" height="24"/></g><g id="b"><path d="M10.06,16.46c-.33,.02-.66-.07-.92-.26-.27-.19-.46-.47-.54-.79-2.05-.43-3.22-1.54-3.38-3.38-1.51-.27-2.26-1.52-2.26-3.03,0-1.84,.98-3.25,3.01-3.25h.38C6.34,3.01,7.75,.9,10.85,.9s4.51,2.11,4.51,4.84h.38c2.05,0,3,1.41,3,3.25s-.92,3.12-2.97,3.12h-1.49V6.53c0-3.09-1-4.51-3.38-4.51s-3.41,1.43-3.41,4.51v5.58h-1.1c.19,1.13,.92,1.82,2.26,2.14,.08-.31,.28-.57,.54-.74,.26-.17,.58-.25,.9-.2,1.22,0,1.95,.59,1.95,1.57-.01,.86-.72,1.59-1.96,1.59Zm-3.71-5.41V6.85h-.38c-1.41,0-1.9,.87-1.9,2.17,0,1.17,.49,2.03,1.9,2.03h.38Zm6.15,12.05l-.52-.92,1.54-.89-.11-1.17-1.22-.48-1.27,1.25-.76-.73,.59-.68c.63-.7,.98-.95,1.35-.95,.57,.06,1.12,.23,1.62,.51l2.96-2.49c-.06-.7-.11-1.05-.11-1.41,0-.73,.28-.86,1.3-1.38l.84-.43,.51,.92-1.54,.89,.11,1.17,1.22,.48,1.27-1.25,.76,.73-.6,.68c-.62,.7-.98,.95-1.35,.95-.57-.06-1.12-.23-1.62-.51l-2.95,2.49c.05,.7,.11,1.05,.11,1.41,0,.73-.27,.87-1.3,1.38l-.83,.43ZM15.39,6.85v4.2h.38c1.4,0,1.9-.86,1.9-2.03,0-1.3-.49-2.17-1.9-2.17h-.38Z"/></g></svg>