<?xml version="1.0" encoding="UTF-8"?><svg xmlns="http://www.w3.org/2000/svg" width="24" height="24" viewBox="0 0 24 24"><defs><style>.c{fill:none;}</style></defs><g id="a"><rect class="c" width="24" height="24"/></g><g id="b"><path d="M10.34,16.24c-.33,.02-.66-.07-.93-.26-.27-.19-.46-.48-.54-.8-2.06-.44-3.24-1.55-3.4-3.4-1.52-.27-2.27-1.52-2.27-3.05,0-1.85,.98-3.26,3.02-3.26h.38c0-2.75,1.42-4.87,4.54-4.87s4.54,2.12,4.54,4.87h.38c2.06,0,3.02,1.42,3.02,3.26s-.92,3.13-2.99,3.13h-1.5V6.26c0-3.11-1-4.53-3.4-4.53s-3.4,1.44-3.4,4.53v5.61h-1.14c.19,1.13,.92,1.83,2.27,2.15,.08-.31,.28-.57,.54-.75,.27-.18,.59-.25,.9-.2,1.22,0,1.96,.6,1.96,1.58-.01,.87-.72,1.6-1.97,1.6Zm-3.73-5.44V6.58h-.38c-1.42,0-1.9,.87-1.9,2.18,0,1.17,.49,2.04,1.9,2.04h.38Zm6.56,9.07c-1.2-1.26-.6-2.75,1.22-4.6,1.98-1.98,3.97-3.02,5.23-1.74l.65,.65c1.2,1.2,.24,3.24-1.74,5.23-1.85,1.85-3.4,2.39-4.57,1.22l-2.75,2.77-.79-.77,2.75-2.77Zm6.31-4.9l-.66-.65c-.65-.68-2.15,.22-3.67,1.74-1.36,1.39-1.9,2.34-1.13,3.07l.65,.67c.71,.71,1.7,.22,3.07-1.13,1.55-1.55,2.4-3.05,1.74-3.7Zm-3.79-8.38v4.22h.38c1.41,0,1.9-.87,1.9-2.04,0-1.3-.49-2.18-1.9-2.18h-.38Zm1.58,8.87c.07-.07,.15-.13,.24-.17,.09-.04,.19-.06,.29-.06,.1,0,.2,.02,.29,.05,.09,.04,.18,.09,.25,.16,.07,.07,.13,.15,.17,.24,.04,.09,.06,.19,.06,.29,0,.1-.02,.2-.05,.29-.04,.09-.09,.18-.16,.25-.14,.14-.33,.23-.53,.23-.2,0-.4-.07-.54-.22-.15-.14-.23-.33-.23-.53,0-.2,.07-.4,.21-.54h0Z"/></g></svg>