<?xml version="1.0" encoding="UTF-8"?><svg xmlns="http://www.w3.org/2000/svg" width="24" height="24" viewBox="0 0 24 24"><defs><style>.c{fill:none;}</style></defs><g id="a"><rect class="c" width="24" height="24"/></g><g id="b"><path d="M11.23,20.75c-.33,.03-.65-.07-.91-.28-.26-.2-.42-.5-.47-.83-2.53-.48-4.04-2.01-4.25-4.28-1.51-.24-2.41-1.45-2.41-3.3,0-2.09,1.1-3.3,2.98-3.3h.35v-.29c0-3.3,2.03-5.21,5.47-5.21s5.51,1.88,5.51,5.21v.29h.34c1.88,0,2.96,1.22,2.96,3.3s-1.19,3.36-3.1,3.36h-1.3v-6.91c0-2.67-1.54-4.12-4.41-4.12s-4.41,1.48-4.41,4.12v6.93h-.86c.19,1.69,1.22,2.69,3.17,3.06,.08-.28,.26-.52,.5-.68,.24-.16,.53-.23,.82-.19,1.24,0,1.88,.55,1.88,1.59s-.66,1.54-1.88,1.54Zm-4.7-6.43v-4.41h-.35c-1.29,0-1.91,.72-1.91,2.17s.66,2.25,1.91,2.25h.35Zm10.97-4.42v4.41h.21c1.32,0,2.01-.79,2.01-2.25s-.66-2.17-2.01-2.17h-.21Z"/></g></svg>