<?xml version="1.0" encoding="UTF-8"?><svg xmlns="http://www.w3.org/2000/svg" width="24" height="24" viewBox="0 0 24 24"><defs><style>.c{fill:none;}</style></defs><g id="a"><rect class="c" width="24" height="24"/></g><g id="b"><path d="M13.42,19.78l-1.02-.47,5-10.8c.26-.51,.41-1.08,.43-1.66,0-1.4-1.58-2.92-3.42-2.92-1.21,0-2.13,.74-2.76,2.1l-5.24,11.28c-.14,.28-.2,.6-.19,.91,0,1.33,1.29,1.85,2.24,1.85,.57,0,1.02-.28,1.43-1.15L15.06,7.69c.09-.18,.14-.38,.14-.57,0-.17-.08-.33-.2-.45-.12-.12-.29-.18-.46-.19-.33,0-.58,.28-.75,.66l-4.85,10.53-1.02-.5L12.81,6.63c.13-.36,.37-.67,.67-.9,.31-.23,.67-.36,1.06-.38,.47,0,.93,.19,1.27,.52,.34,.33,.54,.78,.56,1.25-.01,.36-.1,.71-.26,1.03l-5.22,11.25c-.58,1.27-1.38,1.8-2.52,1.8-1.43,0-3.29-.97-3.29-2.82,0-.54,.11-1.08,.33-1.57L10.58,5.59c.91-1.93,2.24-2.79,3.87-2.79,2.18,0,4.48,1.88,4.48,4.03-.03,.8-.22,1.58-.57,2.3l-4.94,10.65Z"/></g></svg>