<?xml version="1.0" encoding="UTF-8"?><svg xmlns="http://www.w3.org/2000/svg" width="24" height="24" viewBox="0 0 24 24"><defs><style>.c{fill:none;}</style></defs><g id="a"><rect class="c" width="24" height="24"/></g><g id="b"><path d="M2.79,14.28h1.18l.51,1.9h3.25l.51-1.9h1.18l-.79,3.03H3.59l-.79-3.03Zm3.73,6.59h4.89V9.96l-4.75,.76v4.24h-1.18v-5.2l5.89-.93v-3.25c-.38-.11-.71-.34-.94-.66-.23-.32-.35-.71-.33-1.1,0-.24,.04-.48,.13-.71,.09-.22,.23-.43,.4-.6,.17-.17,.38-.3,.6-.39,.23-.09,.47-.13,.71-.12,.25-.02,.5,.01,.73,.1s.45,.21,.63,.39,.32,.38,.42,.61c.09,.23,.14,.48,.13,.73,.02,.39-.1,.78-.33,1.1s-.56,.55-.94,.66v3.07l5.89-.94v4.89h-1.18v-3.59l-4.71,.77v11.08h5.06v1.13H6.53v-1.13ZM12.72,3.83c0-.1,0-.2-.04-.29-.03-.09-.09-.17-.16-.24-.07-.07-.15-.12-.25-.15-.09-.03-.19-.04-.29-.03-.1,0-.19,0-.28,.04-.09,.03-.17,.08-.24,.15-.07,.07-.12,.15-.16,.24-.04,.09-.05,.19-.05,.28,0,.1,0,.2,.04,.29,.03,.09,.09,.18,.16,.25,.07,.07,.15,.12,.25,.16,.09,.03,.19,.05,.29,.04,.1,.01,.2,0,.29-.04,.09-.03,.18-.09,.25-.16,.07-.07,.12-.16,.16-.25,.03-.09,.05-.19,.04-.29h0Zm1.87,8.11h1.18l.51,1.89h3.25l.51-1.89h1.18l-.83,3.02h-5l-.79-3.02Z"/></g></svg>