<svg id="Icones" xmlns="http://www.w3.org/2000/svg" width="32" height="32" viewBox="0 0 32 32"><defs><style>.cls-1{fill:none;}</style></defs><rect class="cls-1" width="32" height="32"/><path d="M13.07,18.23H23.3l1.25-6.74H11.88l-.09-1.07H25.71v1.07L24.27,19.3H13c-1.85,0-2.6-.66-2.82-2.45L9.28,9.17A1.07,1.07,0,0,0,8,8.1H5.77V7H8c1.66,0,2.25.54,2.44,2.14l.88,7.71C11.44,17.82,12,18.23,13.07,18.23Zm-1.72,6.65a2.2,2.2,0,1,1,0-4.39,2.2,2.2,0,1,1,0,4.39Zm0-3.36a1.1,1.1,0,0,0-1.19,1.16,1.11,1.11,0,0,0,1.19,1.16,1.1,1.1,0,0,0,1.19-1.16A1.08,1.08,0,0,0,11.35,21.52Zm10.1,3.36a2.2,2.2,0,1,1,0-4.39,2.08,2.08,0,0,1,2.22,2.19A2.09,2.09,0,0,1,21.45,24.88Zm0-3.36a1.1,1.1,0,0,0-1.19,1.16,1.11,1.11,0,0,0,1.19,1.16,1.1,1.1,0,0,0,1.19-1.16A1.08,1.08,0,0,0,21.45,21.52Z"/></svg>