<?xml version="1.0" encoding="UTF-8"?><svg xmlns="http://www.w3.org/2000/svg" width="24" height="24" viewBox="0 0 24 24"><defs><style>.c{fill:none;}</style></defs><g id="a"><rect class="c" width="24" height="24"/></g><g id="b"><path d="M4.32,9.16v5.82h1.99l-.88,1.15H3.18V8.05H11.63l-.86,1.15-6.46-.05ZM15.35,5.06l.86,.72L6.14,18.94l-.85-.72L15.35,5.06Zm1.73,9.93v-5.82h-2.01l.86-1.15h2.28v1.85h.73c1.25,0,1.89,.75,1.89,2.14s-.64,2.14-1.89,2.14h-.73v1.97H9.75l.89-1.15,6.44,.04Zm1.15-3.97v2h.44c.78,0,1.03-.25,1.03-1s-.25-1-1.03-1h-.44Z"/></g></svg>