<svg id="Icones" xmlns="http://www.w3.org/2000/svg" width="32" height="32" viewBox="0 0 32 32"><defs><style>.cls-1{fill:none;}</style></defs><rect class="cls-1" width="32" height="32"/><path d="M20.32,14.84V10.36H6.83v10.1h7.88v1.06h-9V9.29H8V8.48c0-1.26.79-1.92,2.23-1.92s2.23.66,2.23,1.92v.81h2.26V8.48c0-1.26.78-1.92,2.22-1.92s2.23.66,2.23,1.92v.81h2.26v5.55ZM9.09,9.29h2.26v-.5c0-.88-.28-1.16-1.13-1.16s-1.13.28-1.13,1.16Zm4.67,8.88h-.5l.32-2.23H12l1.07-3.32H14.3l-.79,2.29h1.82Zm2-8.88h2.26v-.5c0-.88-.28-1.16-1.13-1.16s-1.13.28-1.13,1.16Zm10.1,9.47c0,1.67-2,2.76-5,2.76s-5-1.09-5-2.76,2-2.76,5-2.76S25.9,17.1,25.9,18.76Zm0,2.36v1.19a8.56,8.56,0,0,1-5,1.47,8.55,8.55,0,0,1-5-1.47V21.12a7.46,7.46,0,0,0,5,1.63A7.5,7.5,0,0,0,25.9,21.12Zm-10,3.67v-1.2a7.92,7.92,0,0,0,5,1.41,8,8,0,0,0,5-1.41v1.2a9.81,9.81,0,0,1-5,1.25A9.77,9.77,0,0,1,15.87,24.79Zm1.12-6c0,1,1.64,1.73,3.89,1.73s3.89-.72,3.89-1.73S23.14,17,20.88,17,17,17.76,17,18.76Z"/></svg>