<?xml version="1.0" encoding="UTF-8"?><svg xmlns="http://www.w3.org/2000/svg" width="24" height="24" viewBox="0 0 24 24"><defs><style>.c{fill:none;}</style></defs><g id="a"><rect class="c" width="24" height="24"/></g><g id="b"><path d="M13.02,6.64c0-1.1,.71-1.66,2-1.66s2,.59,2,1.66v.73h2.03v11.66H4.95V7.35h2.03v-.72c0-1.1,.71-1.66,2-1.66s1.99,.55,1.99,1.66v.73h2.03v-.73Zm4.91,11.28V8.52H6.08v9.4h11.84ZM8.11,7.34h1.76v-.45c0-.62-.22-.82-.87-.82s-.88,.19-.88,.82l-.02,.45Zm4.04,8.3h-.66l.68-2.35h-1.63l1.07-3.55h1.76l-1.04,2.35h2.2l-2.37,3.55Zm1.97-8.29h1.76v-.45c0-.62-.23-.82-.88-.82s-.88,.19-.88,.82v.45Z"/></g></svg>