<?xml version="1.0" encoding="UTF-8"?><svg xmlns="http://www.w3.org/2000/svg" width="24" height="24" viewBox="0 0 24 24"><defs><style>.c{fill:none;}</style></defs><g id="a"><rect class="c" width="24" height="24"/></g><g id="b"><path d="M15.6,10.24v-3.55H3.68v9.46h7.15v1.14H2.55V5.56h2.05v-.72c0-1.11,.71-1.67,2.02-1.67s1.98,.55,1.98,1.67v.74h2.04v-.74c0-1.11,.71-1.67,2.02-1.67s2.02,.59,2.02,1.67v.74h2.05v4.68l-1.11-.02ZM5.72,5.56h1.77v-.46c0-.63-.23-.82-.88-.82s-.88,.2-.88,.82v.46Zm4.04,8.34h-.68l.69-2.37h-1.65l1.08-3.58h1.77l-1.05,2.36h2.21l-2.37,3.58Zm2.01-8.34h1.77v-.46c0-.63-.23-.82-.88-.82s-.88,.2-.88,.82v.46Zm9.65,10.39v1.22c-1.41,.89-3.06,1.35-4.73,1.31-1.67,.05-3.32-.4-4.73-1.31v-1.22c1.05,.9,2.79,1.42,4.73,1.42s3.7-.51,4.73-1.42Zm0,2.37v1.22c-1.42,.89-3.06,1.34-4.73,1.3-1.82,0-3.66-.48-4.73-1.3v-1.24c1.05,.91,2.79,1.42,4.73,1.42s3.7-.51,4.73-1.42h0Zm-.03-4.53c0,1.42-1.87,2.37-4.73,2.37s-4.73-.94-4.73-2.37,1.87-2.36,4.73-2.36,4.73,.93,4.73,2.35h0Zm-8.28,.01c0,.71,1.48,1.25,3.55,1.25s3.55-.54,3.55-1.25-1.48-1.25-3.55-1.25-3.53,.53-3.53,1.24h-.02Z"/></g></svg>