<svg id="Icones" xmlns="http://www.w3.org/2000/svg" width="32" height="32" viewBox="0 0 32 32"><defs><style>.cls-1{fill:none;}</style></defs><rect class="cls-1" width="32" height="32"/><path d="M17,9.61c0-1.26.79-1.92,2.23-1.92s2.23.66,2.23,1.92v.81h2.25V22.65H8V10.42h2.26V9.61c0-1.26.79-1.92,2.23-1.92s2.23.66,2.23,1.92v.81H17Zm5.62,12V11.49H9.09v10.1ZM11.35,10.42h2.26v-.5c0-.88-.29-1.16-1.13-1.16S11.35,9,11.35,9.92ZM16,19.3h-.5l.31-2.23H14.3l1.06-3.32h1.2L15.77,16h1.82Zm2-8.88h2.26v-.5c0-.88-.28-1.16-1.13-1.16S18.06,9,18.06,9.92Z"/></svg>