<svg id="Icones" xmlns="http://www.w3.org/2000/svg" width="32" height="32" viewBox="0 0 32 32"><defs><style>.cls-1{fill:none;}</style></defs><rect class="cls-1" width="32" height="32"/><path d="M12.3,20.47A3.8,3.8,0,0,1,8.72,22.7,3.78,3.78,0,0,1,4.8,18.78a3.76,3.76,0,0,1,4.08-3.89h.35l-.66,1A2.62,2.62,0,0,0,5.9,18.78a2.63,2.63,0,0,0,2.82,2.85,2.65,2.65,0,0,0,2.39-1.16ZM8.76,19.34l-.57-.91,4-6.33-1-1.73H9.29V9.3h4.48v1.07H12.46l.62,1.16h7.53l.56.91-4.35,6.9Zm6.89-1.07L12.77,13.1,9.48,18.27Zm.91-.43,3.33-5.24H13.68Zm2.8-8.54H22c1.35,0,2.13.7,2.13,1.89a2.3,2.3,0,0,1-1.38,1.94l-.56-.91a1.34,1.34,0,0,0,.81-1c0-.54-.37-.82-1.06-.82H19.36Zm7.84,9.48a3.78,3.78,0,0,1-3.92,3.92,3.78,3.78,0,0,1-3.92-3.92,3.77,3.77,0,0,1,3.92-3.92A3.78,3.78,0,0,1,27.2,18.78Zm-6.75,0a2.63,2.63,0,0,0,2.83,2.85,2.63,2.63,0,0,0,2.82-2.85,2.63,2.63,0,0,0-2.82-2.86A2.63,2.63,0,0,0,20.45,18.78Z"/></svg>