<?xml version="1.0" encoding="UTF-8"?><svg xmlns="http://www.w3.org/2000/svg" width="24" height="24" viewBox="0 0 24 24"><defs><style>.c{fill:none;}</style></defs><g id="a"><rect class="c" width="24" height="24"/></g><g id="b"><path d="M12,4.3c4.7,0,7.7,2.99,7.7,7.72s-3.01,7.68-7.7,7.68-7.7-3.02-7.7-7.68,3.03-7.72,7.7-7.72Zm0,1.1c-4.06,0-6.57,2.52-6.57,6.62s2.54,6.62,6.6,6.62,6.6-2.54,6.6-6.62-2.56-6.64-6.63-6.64v.02Zm4.36,3.97v5.27l-4.36,2.04-4.36-2.04v-5.28l4.36-2.04,4.36,2.06Zm-1.03,4.61v-3.96l-3.3-1.54-3.33,1.54v3.94l3.33,1.54,3.3-1.52Zm-5.45-.73v-2.49l2.14-1.1,2.09,1.1v2.49l-2.09,1.06-2.14-1.06Zm3.22-.64v-1.24l-1.1-.55-1.1,.55-.03,1.22,1.13,.55,1.09-.54Z"/></g></svg>