<?xml version="1.0" encoding="UTF-8"?><svg xmlns="http://www.w3.org/2000/svg" width="24" height="24" viewBox="0 0 24 24"><defs><style>.c{fill:none;}</style></defs><g id="a"><rect class="c" width="24" height="24"/></g><g id="b"><path d="M12,18.62l-5.89,3.68-.96-.38V3.65c0-1.32,.63-1.95,1.95-1.95h9.82c1.31,0,1.94,.63,1.94,1.95V21.92l-.96,.35-5.89-3.65Zm5.71,2.2V3.85c0-.71-.27-1.02-.99-1.02H7.26c-.71,0-.99,.3-.99,1.02V20.82l5.71-3.57,5.73,3.57Zm-3.21-6.99c-1.1-.49-1.71-.82-2.52-1.23-.77,.41-1.45,.74-2.55,1.23l-.49-.3c.13-.93,.32-1.84,.57-2.75-.68-.61-1.12-1.07-1.95-1.97l.11-.63c1.18-.22,1.86-.32,2.74-.41,.41-.85,.79-1.59,1.4-2.65h.46c.6,1.07,.99,1.81,1.4,2.65,.85,.09,1.51,.19,2.69,.41l.11,.63c-.82,.87-1.32,1.37-1.98,1.97,.22,.9,.39,1.82,.49,2.75l-.49,.3Zm-4.25-1.53c.85-.41,1.31-.68,1.75-.98,.55,.34,1.13,.65,1.71,.93-.17-.85-.25-1.34-.36-1.84,.71-.66,1.07-1.02,1.51-1.45-.93-.14-1.45-.22-1.97-.25-.26-.62-.55-1.22-.88-1.81-.25,.49-.46,.93-.85,1.81-.67,.05-1.34,.13-2,.25,.45,.51,.92,1,1.43,1.45-.13,.52-.18,1.01-.34,1.89h0Z"/></g></svg>