<svg id="Icones" xmlns="http://www.w3.org/2000/svg" width="32" height="32" viewBox="0 0 32 32"><defs><style>.cls-1{fill:none;}</style></defs><rect class="cls-1" width="32" height="32"/><path d="M19.47,11.21a40.64,40.64,0,0,1,6.18,1.5l.25,1.13a35.53,35.53,0,0,1-4.48,4,42.94,42.94,0,0,1,1.12,6.43l-.94.69a59.88,59.88,0,0,1-5.77-3,58.71,58.71,0,0,1-5.77,3l-.94-.69a42.94,42.94,0,0,1,1.13-6.43,35.53,35.53,0,0,1-4.48-4L6,12.71a45.46,45.46,0,0,1,6.18-1.5,45.15,45.15,0,0,1,3.1-5.34h1.07A45.15,45.15,0,0,1,19.47,11.21Zm1.88,12.38a43.5,43.5,0,0,0-1.19-6.21,30.26,30.26,0,0,0,4.55-3.85,30.81,30.81,0,0,0-6-1.35,50.67,50.67,0,0,0-2.89-5.11A52.84,52.84,0,0,0,13,12.18a37.73,37.73,0,0,0-6,1.38,31.15,31.15,0,0,0,4.55,3.82,45,45,0,0,0-1.2,6.21,58.82,58.82,0,0,0,5.52-3A60.11,60.11,0,0,0,21.35,23.59Z"/></svg>