<svg id="Icones" xmlns="http://www.w3.org/2000/svg" width="32" height="32" viewBox="0 0 32 32"><defs><style>.cls-1{fill:none;}</style></defs><rect class="cls-1" width="32" height="32"/><path d="M7.06,11.45H6.28c-1.73,0-2.6-.75-2.6-2.19S4.55,7,6.28,7h5.39a12.62,12.62,0,0,1,4,.69c2,.57,2.54,1,2.54,2,0,1.22-.85,1.72-2.89,1.72h-.5v1.13H13.77V11.45H8.13v1.13H7.06ZM4.8,18.79v1.76a.84.84,0,0,0,.73,1l.65.16v1.09l-.65-.15c-1.32-.32-1.82-.91-1.82-2.07V18.82c0-1.6.12-1.94,1-2.79l.53-.53,1.1.31-.82.85A2.46,2.46,0,0,0,4.8,18.79Zm0-9.53c0,.75.5,1.13,1.51,1.13h9.09c1.23,0,1.79-.22,1.79-.66s-.31-.66-1.44-1a12.35,12.35,0,0,0-4.05-.66H6.28C5.27,8.1,4.77,8.51,4.77,9.26ZM18.16,16A6.66,6.66,0,0,0,14,14.9H7l-2.2-.5v-.56H14a7.73,7.73,0,0,1,4.74,1.22L21.86,17l3.89.6c1.23.19,1.7.5,2.13,1.44a5.37,5.37,0,0,1,.44,2c0,1-.56,1.54-1.66,1.69V21.68c.44-.1.6-.25.6-.57A5.16,5.16,0,0,0,27,19.67a1.38,1.38,0,0,0-1.35-1L21.33,18ZM9.26,25a2.2,2.2,0,1,1,0-4.39,2.11,2.11,0,0,1,2,1.13H21.58a2.14,2.14,0,0,1,2-1.13,2.2,2.2,0,1,1,0,4.39,2.09,2.09,0,0,1-2.23-2.2H11.48A2.08,2.08,0,0,1,9.26,25Zm0-3.36a1.11,1.11,0,0,0-1.19,1.16,1.09,1.09,0,0,0,1.19,1.16,1.08,1.08,0,0,0,1.19-1.16A1.1,1.1,0,0,0,9.26,21.61Zm14.3,2.32a1.09,1.09,0,0,0,1.19-1.16,1.11,1.11,0,0,0-1.19-1.16,1.1,1.1,0,0,0-1.19,1.16A1.07,1.07,0,0,0,23.56,23.93Z"/></svg>