<?xml version="1.0" encoding="UTF-8"?><svg xmlns="http://www.w3.org/2000/svg" width="24" height="24" viewBox="0 0 24 24"><defs><style>.c{fill:none;}</style></defs><g id="a"><rect class="c" width="24" height="24"/></g><g id="b"><path d="M10.96,11.43c1.59-1.19,4.02-1.95,5.71-2.23l.21,.94c-2.36,.39-6.49,1.82-6.49,4.05,0,.93,.94,1.62,2.88,1.62,.77,0,1.53-.17,2.24-.48,.71-.31,1.34-.77,1.86-1.34-.6-.28-1.26-.44-1.93-.46-.57-.02-1.14,.13-1.62,.44l-.54-.86c.61-.41,1.32-.62,2.05-.62,1.84,0,3.04,1.14,4.83,1.14,1.3,0,2.13-1.3,2.13-3.66,0-3.46-2.21-6.07-5.82-6.1-2.71-.03-3.92,1.87-3.92,4.33h-1.08v-.29c0-3.07,1.82-5.12,5.19-5.12,3.65,.01,6.73,2.81,6.73,6.95,0,2.05-.5,3.42-1.25,4.18,.15,.47,.22,.96,.21,1.45-.08,1.84-1.51,2.55-2.86,2.55-.52,0-1.03-.05-1.54-.16v-1.04c.44,.1,.9,.16,1.35,.16,1.24,0,1.89-.62,1.95-1.69,.01-.23-.01-.46-.08-.68-.29,.1-.6,.16-.91,.16-.64,0-1.27-.1-1.87-.31-.73,.83-1.62,1.49-2.62,1.95v.16c-.02,.28,.04,.56,.18,.82,.13,.25,.33,.46,.57,.61l1.41,1.08c.36,.25,.64,.59,.84,.98s.29,.82,.27,1.26h-1.08c-.02-.3-.11-.6-.27-.87-.15-.26-.36-.49-.62-.66l-1.43-1.08c-.3-.22-.54-.5-.71-.83-.17-.33-.25-.69-.25-1.06-.47,.11-.95,.16-1.43,.16-1.95,0-3.19-.54-3.74-1.48-1.39,.25-2.8,.38-4.21,.41-2.93,0-4.72-1.43-4.72-3.87C.6,7.72,5.51,4.08,12.26,2.83l.29,.96C6.34,4.91,1.73,8.21,1.73,11.91c0,1.66,1.38,2.78,3.45,2.8,1.37-.05,2.73-.18,4.08-.39v-.14c.02-.75,.32-1.46,.83-2-.6-.29-1.1-.74-1.46-1.3-1.43,.75-2.96,1.29-4.54,1.62l-.27-.97c1.56-.32,3.06-.87,4.47-1.62-.06-.28-.08-.57-.08-.85,.03-.73,.14-1.46,.31-2.16l.99,.23c-.15,.6-.22,1.22-.23,1.84-.05,.5,.07,1.01,.34,1.43,.27,.43,.67,.75,1.14,.93l.21,.1Zm3.72-4.99c.62-.25,1.28-.38,1.95-.39,2.02,0,3.55,1.35,3.55,3.69,0,.64-.09,1.28-.28,1.89l-1.02-.26c.15-.53,.22-1.08,.21-1.62,0-1.62-1.04-2.71-2.55-2.71-.56,0-1.12,.11-1.66,.29l-.21-.89Z"/></g></svg>