<?xml version="1.0" encoding="UTF-8"?><svg xmlns="http://www.w3.org/2000/svg" width="24" height="24" viewBox="0 0 24 24"><defs><style>.c{fill:none;}</style></defs><g id="a"><rect class="c" width="24" height="24"/></g><g id="b"><path d="M11.97,7.89c-2.33,.4-3.86,1.85-4.22,3.92H2.71c.17-5.25,3.98-9.1,9.27-8.96V7.89Zm-5.12,2.83c.31-.9,.83-1.71,1.52-2.36s1.54-1.12,2.46-1.36V3.97c-3.87,.58-6.22,2.97-6.89,6.75h2.91Zm14.44,2.27c0,2.17-.86,4.24-2.39,5.77-1.53,1.53-3.61,2.39-5.77,2.39s-4.24-.86-5.77-2.39c-1.53-1.53-2.39-3.61-2.39-5.77h1.12c0,1.39,.41,2.75,1.19,3.91s1.87,2.06,3.16,2.59c1.29,.53,2.7,.67,4.07,.4,1.37-.27,2.62-.94,3.6-1.92,.99-.98,1.66-2.24,1.93-3.6,.27-1.37,.14-2.78-.39-4.07-.53-1.29-1.43-2.39-2.59-3.16s-2.52-1.19-3.91-1.2v-1.1c2.16,0,4.23,.86,5.75,2.39,1.53,1.53,2.39,3.6,2.39,5.75h0Zm-8.16-3.47c.47-.03,.93,.04,1.37,.21,.44,.16,.83,.42,1.16,.75,.33,.33,.58,.73,.75,1.17,.16,.44,.23,.91,.19,1.37,0,2.1-1.31,3.5-3.47,3.5s-3.44-1.4-3.44-3.5,1.3-3.5,3.46-3.5h-.02Zm0,1.17c-1.62,0-2.3,.78-2.3,2.33s.68,2.33,2.3,2.33,2.33-.75,2.33-2.33-.69-2.35-2.32-2.35l-.02,.02Z"/></g></svg>