<svg id="Icones" xmlns="http://www.w3.org/2000/svg" width="32" height="32" viewBox="0 0 32 32"><defs><style>.cls-1{fill:none;}</style></defs><rect class="cls-1" width="32" height="32"/><path d="M27,22.65H4.64V21.59H27ZM6.3,14.78c.28-1.54.41-1.72,2.23-3.26,1.56-1.29,2.35-1.66,3.32-1.66a28.82,28.82,0,0,1,4.92.78,6.53,6.53,0,0,1,3.89,2l2,2.16,1.44.66a2.75,2.75,0,0,1,2,2.66,3.47,3.47,0,0,1-1,2.55l-.79-.76A2.45,2.45,0,0,0,25,18.14c0-.85-.47-1.38-1.63-1.92L22,15.6l-2-2.14a5.58,5.58,0,0,0-3.41-1.78A27.81,27.81,0,0,0,12,10.92c-.79,0-1.42.32-2.83,1.48s-1.57,1.41-1.75,2.44C6.93,17.51,7.18,16,7.18,16a1.16,1.16,0,0,0,.25.78l-.85.56a2.1,2.1,0,0,1-.47-1.25A8.21,8.21,0,0,1,6.3,14.78Zm1.85,2.7a2.15,2.15,0,0,1,2.16-2.26,2.18,2.18,0,0,1,2.33,2.16,1.6,1.6,0,0,1,0,.44L19.22,19a2.14,2.14,0,0,1,2.13-1.85,2.22,2.22,0,1,1,.16,4.43,2.23,2.23,0,0,1-2.23-1.51l-7.12-1.25a2.05,2.05,0,0,1-1.69.81A2.17,2.17,0,0,1,8.15,17.48Zm3.45-.1a1.17,1.17,0,0,0-1.29-1.13,1.11,1.11,0,0,0-1.12,1.23,1.16,1.16,0,0,0,1.28,1.13A1.12,1.12,0,0,0,11.6,17.38Zm11,1.95a1.17,1.17,0,0,0-1.29-1.13,1.11,1.11,0,0,0-1.13,1.22,1.17,1.17,0,0,0,1.29,1.13A1.11,1.11,0,0,0,22.64,19.33Z"/></svg>