<svg id="Icones" xmlns="http://www.w3.org/2000/svg" width="32" height="32" viewBox="0 0 32 32"><defs><style>.cls-1{fill:none;}</style></defs><rect class="cls-1" width="32" height="32"/><path d="M15.42,11.74A5.12,5.12,0,0,0,11,16.13H5.38c.51-5.77,4.27-9.53,10-10Zm11.2,5.49a10.06,10.06,0,1,1-20.11,0H7.58a9,9,0,1,0,9-8.94V7.19A10.06,10.06,0,0,1,26.62,17.23ZM6.7,15.06h3.45a6,6,0,0,1,4.17-4.17V7.38A9.09,9.09,0,0,0,6.7,15.06Zm9.85-2.32a4.52,4.52,0,1,1-4.49,4.52A4.51,4.51,0,0,1,16.55,12.74Zm0,1.07a3.45,3.45,0,1,0,3.39,3.45A3.41,3.41,0,0,0,16.55,13.81Z"/></svg>