<?xml version="1.0" encoding="UTF-8"?><svg xmlns="http://www.w3.org/2000/svg" width="24" height="24" viewBox="0 0 24 24"><defs><style>.c{fill:none;}</style></defs><g id="a"><rect class="c" width="24" height="24"/></g><g id="b"><path d="M.55,5.13H23.45v13.74H.55V5.13Zm21.76,12.64V6.23H1.68v11.54H22.3ZM5.48,11.47v1.02h-1.52v-1.04l1.52,.02Zm.28,1.79l.74,.71-1.1,1.1-.72-.74,1.07-1.07Zm.77-3.24l-.72,.74-1.06-1.13,.74-.72,1.04,1.1Zm.08,2c0-.23,.07-.45,.19-.64,.13-.19,.3-.33,.51-.42,.21-.09,.44-.11,.66-.06,.22,.04,.43,.15,.59,.31,.16,.16,.27,.36,.31,.59,.04,.22,.02,.45-.07,.66-.09,.21-.23,.39-.42,.51-.19,.13-.41,.19-.64,.19-.15,0-.3-.03-.44-.09-.14-.06-.26-.15-.37-.25-.1-.11-.19-.24-.24-.38-.06-.14-.08-.29-.08-.44v.02Zm.6,2.29h1.04v1.54h-1.03v-1.54Zm1.09-4.58h-1.04v-1.55h1.05v1.55Zm.68,4.29l.71-.74,1.1,1.1-.75,.71-1.07-1.08Zm.78-3.25l-.74-.72,1.1-1.1,.71,.74-1.07,1.07Zm.27,1.79v-1.06h1.57v1.05h-1.57Zm6.57,2.87c-.46,.03-.92-.04-1.36-.2-.43-.16-.83-.41-1.16-.74-.33-.32-.59-.71-.76-1.15-.17-.43-.24-.89-.22-1.36-.02-.46,.05-.92,.22-1.36s.42-.82,.76-1.15c.33-.32,.73-.58,1.16-.74,.43-.16,.9-.23,1.36-.2,.46-.02,.91,.05,1.34,.22,.43,.17,.81,.42,1.14,.74,.32,.32,.58,.71,.74,1.14,.17,.43,.24,.88,.22,1.34,.02,.46-.05,.91-.22,1.34-.17,.43-.42,.82-.74,1.14-.32,.32-.71,.58-1.14,.74-.43,.17-.88,.24-1.34,.22h0Zm0-5.81c-.32-.03-.64,.02-.93,.13-.3,.11-.57,.28-.79,.51-.23,.22-.4,.5-.51,.79-.11,.3-.15,.62-.13,.93-.03,.32,.02,.64,.13,.93,.11,.3,.28,.57,.51,.8,.23,.22,.5,.4,.79,.51,.3,.11,.62,.15,.93,.13v-4.73Z"/></g></svg>