<?xml version="1.0" encoding="UTF-8"?><svg xmlns="http://www.w3.org/2000/svg" width="24" height="24" viewBox="0 0 24 24"><defs><style>.c{fill:none;}</style></defs><g id="a"><rect class="c" width="24" height="24"/></g><g id="b"><path d="M5.31,17.19l2.66-1.01v-1.76l-4-.57v-1.05l4,.57v-1.95l-2.39-.9L3.39,6.29h1.21l1.81,3.38,1.59,.61v-.88c0-1.1,.39-1.72,1.18-1.95,0-1.01,.35-1.99,.99-2.77l-1.37-1.87h1.26l.74,1.45c.38-.19,.81-.29,1.24-.27,.33,0,.65,.05,.96,.16l1.02-1.34h1.26l-1.41,1.89c.65,.77,1,1.74,.99,2.75,.77,.25,1.14,.88,1.14,1.95v.88l1.59-.61,1.79-3.38h1.21l-2.17,4.23-2.4,.9v1.92l4-.57v1.07l-4,.57v1.76l2.67,1.01,1.92,4.01h-1.24l-1.52-3.18-1.89-.71c-.3,2.61-1.49,3.84-3.3,3.84h-1.31c-2.25,0-3.13-1.24-3.32-3.84l-1.86,.71-1.54,3.16h-1.24l1.92-3.98Zm6.04,2.86h.08V8.43h-1.1c-.88,0-1.24,.38-1.24,1.29v6.18c0,2.91,.25,4.14,2.25,4.14Zm-1.05-12.72h3.43c-.11-1.54-.71-2.25-1.72-2.25s-1.61,.69-1.72,2.25Zm2.26,1.1v11.62h.08c1.49,0,2.25-1.24,2.25-4.15v-6.18c0-.91-.36-1.29-1.24-1.29h-1.1Z"/></g></svg>