<svg id="Icones" xmlns="http://www.w3.org/2000/svg" width="32" height="32" viewBox="0 0 32 32"><defs><style>.cls-1{fill:none;}</style></defs><rect class="cls-1" width="32" height="32"/><path d="M10.09,9.79a.87.87,0,0,1-1,1,.87.87,0,0,1-1-1,.86.86,0,0,1,1-1A.86.86,0,0,1,10.09,9.79Zm0,6.18a.86.86,0,0,1-1,1,.86.86,0,0,1-1-1,.86.86,0,0,1,1-1A.86.86,0,0,1,10.09,16Zm0,6.12a.86.86,0,0,1-1,1,.86.86,0,0,1-1-1,.86.86,0,0,1,1-1A.86.86,0,0,1,10.09,22.09ZM12.51,9.23H23.67v1.13H12.51Zm0,6.18H23.67v1.13H12.51Zm0,6.11H23.67v1.13H12.51Z"/></svg>