<?xml version="1.0" encoding="UTF-8"?><svg xmlns="http://www.w3.org/2000/svg" width="24" height="24" viewBox="0 0 24 24"><defs><style>.c{fill:none;}</style></defs><g id="a"><rect class="c" width="24" height="24"/></g><g id="b"><path d="M5.13,4.8c0-1.32,.64-1.95,1.95-1.95h9.84c1.32,0,1.95,.63,1.95,1.95v14.4c0,1.32-.63,1.95-1.95,1.95H7.08c-1.32,0-1.95-.64-1.95-1.95V4.8Zm2.09,15.22h9.57c.71,0,.98-.3,.98-1.02V4.99c0-.72-.27-1.01-.98-1.01H7.22c-.72,0-.99,.3-.99,1.01v14.01c0,.72,.27,1.02,.99,1.02h0Zm.22-14.88h9.1v4.58H7.44V5.14Zm.03,6.87h2.26v1.14h-2.26v-1.14Zm0,2.29h2.26v1.15h-2.26v-1.15Zm0,2.29h2.26v1.15h-2.26v-1.15Zm7.97-7.94v-2.44h-6.87v2.42l6.87,.02Zm-4.58,3.38h2.26v1.14h-2.24l-.02-1.14Zm0,2.29h2.26v1.14h-2.24l-.02-1.14Zm0,2.29h2.26v1.14h-2.24l-.02-1.14Zm3.43-4.58h2.29v1.14h-2.29v-1.14Zm0,2.29h2.29v1.14h-2.29v-1.14Zm0,2.29h2.29v1.14h-2.29v-1.14Z"/></g></svg>