<svg id="Icones" xmlns="http://www.w3.org/2000/svg" width="32" height="32" viewBox="0 0 32 32"><defs><style>.cls-1{fill:none;}</style></defs><rect class="cls-1" width="32" height="32"/><path d="M6.86,7A2,2,0,0,1,9.09,4.78H21.45A2,2,0,0,1,23.67,7V24.94a2,2,0,0,1-2.22,2.23H9.09a2,2,0,0,1-2.23-2.23ZM9.09,26.1H21.45c.81,0,1.13-.34,1.13-1.16V7c0-.81-.32-1.16-1.13-1.16H9.09C8.28,5.84,8,6.19,8,7V24.94C8,25.76,8.28,26.1,9.09,26.1Zm1.13-18H20.29v5.58H10.22Zm0,7.87h2.29v1.07H10.22Zm0,3.36h2.29v1.07H10.22Zm0,3.42h2.29v1.06H10.22Zm9-10.13V9.23H11.35v3.42ZM14,16h2.58v1.07H14Zm0,3.36h2.58v1.07H14Zm0,3.42h2.58v1.06H14ZM18.09,16h2.2v1.07h-2.2Zm0,3.36h2.2v1.07h-2.2Zm0,3.42h2.2v1.06h-2.2Z"/></svg>