<?xml version="1.0" encoding="UTF-8"?><svg xmlns="http://www.w3.org/2000/svg" width="24" height="24" viewBox="0 0 24 24"><defs><style>.c{fill:none;}</style></defs><g id="a"><rect class="c" width="24" height="24"/></g><g id="b"><path d="M11.42,7.9H3.27c-.72,0-.99,.3-.99,1.02v1.34H12.69c.32,.44,.7,.83,1.14,1.14H2.28v9.31c0,.72,.27,1.02,.99,1.02H15.02c.71,0,.98-.3,.98-1.02V12.57h1.14v8.32c0,1.32-.63,1.95-1.95,1.95H3.1c-1.32,0-1.95-.64-1.95-1.95V8.78c0-1.32,.64-1.95,1.95-1.95h1.46v-2.29h1.14v2.29h5.72c-.03,.36-.03,.72,0,1.08Zm-4.86,6.95c0,.6-.25,.88-.88,.88-.12,.02-.24,.01-.36-.03-.12-.04-.22-.1-.31-.19s-.15-.19-.19-.31c-.04-.12-.05-.24-.03-.36,0-.64,.27-.88,.88-.88s.88,.27,.88,.9v-.02Zm0,3.4c0,.61-.25,.88-.88,.88s-.88-.27-.88-.88,.27-.88,.88-.88,.88,.25,.88,.9v-.02Zm3.43-3.4c0,.6-.25,.88-.88,.88-.12,.02-.24,.01-.36-.03-.12-.04-.22-.1-.31-.19-.09-.09-.15-.19-.19-.31-.04-.12-.05-.24-.03-.36,0-.64,.27-.88,.88-.88s.91,.27,.91,.9l-.03-.02Zm0,3.4c0,.61-.25,.88-.88,.88s-.88-.27-.88-.88,.27-.88,.88-.88,.91,.25,.91,.9l-.03-.02Zm3.46-3.4c0,.6-.25,.88-.88,.88s-.88-.27-.88-.88,.28-.88,.88-.88,.91,.27,.91,.9l-.03-.02Zm0,3.4c0,.61-.25,.88-.88,.88-.12,.02-.24,.01-.36-.03-.12-.04-.22-.1-.31-.19-.09-.09-.15-.19-.19-.31-.04-.12-.05-.24-.03-.36,0-.63,.28-.88,.88-.88s.91,.25,.91,.9l-.03-.02Zm-.9-11.95c0-1.02,.3-2.01,.87-2.86,.57-.85,1.37-1.51,2.31-1.9,.94-.39,1.98-.49,2.98-.29,1,.2,1.92,.69,2.64,1.41,.72,.72,1.21,1.64,1.41,2.64,.2,1,.1,2.03-.29,2.97-.39,.94-1.05,1.75-1.9,2.31-.85,.57-1.84,.87-2.86,.87-1.36,0-2.67-.55-3.63-1.52-.96-.96-1.51-2.27-1.52-3.63h0Zm9.15,.06c0-.79-.23-1.57-.67-2.22-.44-.66-1.07-1.17-1.8-1.47-.73-.3-1.54-.38-2.31-.23-.78,.15-1.49,.54-2.05,1.1-.56,.56-.94,1.27-1.1,2.05-.15,.78-.08,1.58,.23,2.31,.3,.73,.82,1.36,1.48,1.8,.66,.44,1.43,.67,2.22,.67,.53,0,1.05-.1,1.54-.3,.49-.2,.93-.49,1.31-.87s.67-.81,.87-1.3c.2-.49,.31-1.01,.31-1.54h-.02Zm-4.58,.52V3.45h1.14v2.33h2.29v1.1h-3.43Z"/></g></svg>