<svg id="Icones" xmlns="http://www.w3.org/2000/svg" width="32" height="32" viewBox="0 0 32 32"><defs><style>.cls-1{fill:none;}</style></defs><rect class="cls-1" width="32" height="32"/><path d="M9.12,8.16h1.13V5.87h1.1V8.16h9V5.87h1.1V8.16h1.1a2,2,0,0,1,2.22,2.23V23.81A2,2,0,0,1,22.55,26H9.12A2,2,0,0,1,6.9,23.81V10.39A2,2,0,0,1,9.12,8.16ZM8,12.59H23.67v-2.2c0-.81-.31-1.16-1.12-1.16H9.12C8.31,9.23,8,9.58,8,10.39ZM22.55,25c.81,0,1.12-.34,1.12-1.16V13.65H8V23.81C8,24.63,8.31,25,9.12,25ZM12.16,17.1c0,.57-.21.82-.81.82s-.82-.25-.82-.82.26-.81.82-.81S12.16,16.51,12.16,17.1Zm0,4.49c0,.56-.21.81-.81.81s-.82-.25-.82-.81.26-.82.82-.82S12.16,21,12.16,21.59Zm4.49-4.49c0,.57-.22.82-.82.82S15,17.67,15,17.1s.25-.81.81-.81S16.65,16.51,16.65,17.1Zm0,4.49c0,.56-.22.81-.82.81s-.81-.25-.81-.81.25-.82.81-.82S16.65,21,16.65,21.59Zm4.48-4.49c0,.57-.22.82-.81.82s-.82-.25-.82-.82.25-.81.82-.81S21.13,16.51,21.13,17.1Zm0,4.49c0,.56-.22.81-.81.81s-.82-.25-.82-.81.25-.82.82-.82S21.13,21,21.13,21.59Z"/></svg>