<?xml version="1.0" encoding="UTF-8"?><svg xmlns="http://www.w3.org/2000/svg" width="24" height="24" viewBox="0 0 24 24"><defs><style>.c{fill:none;}</style></defs><g id="a"><rect class="c" width="24" height="24"/></g><g id="b"><path d="M20.44,6.92v12.51c0,1.37-.66,2.02-2.06,2.02H5.62c-1.39,0-2.06-.65-2.06-2.02V6.92c0-1.36,.67-2.01,2.06-2.01h1.53V2.55h1.21v2.36h7.25V2.55h1.21v2.36h1.53c1.42,0,2.08,.65,2.08,2.01Zm-14.64-.87c-.76,0-1.05,.31-1.05,1.05v1.39h14.5v-1.39c0-.74-.29-1.05-1.05-1.05H5.8Zm12.41,14.27c.76,0,1.05-.31,1.05-1.05V9.65H4.75v9.62c0,.73,.29,1.05,1.05,1.05h12.41Zm-8.93-7.09c0,.63-.26,.91-.93,.91s-.92-.28-.92-.91,.29-.91,.92-.91,.93,.26,.93,.91h0Zm0,3.52c0,.63-.26,.91-.93,.91s-.92-.28-.92-.91,.29-.9,.92-.9,.93,.23,.93,.9Zm3.65-3.52c0,.63-.26,.91-.93,.91-.13,.02-.26,.01-.38-.03-.12-.04-.23-.1-.32-.19-.09-.09-.16-.2-.2-.32-.04-.12-.05-.25-.03-.37,0-.65,.3-.91,.93-.91s.93,.26,.93,.91Zm0,3.52c0,.63-.26,.91-.93,.91-.13,.02-.26,.01-.38-.03-.12-.04-.23-.1-.32-.19-.09-.09-.16-.2-.2-.32-.04-.12-.05-.25-.03-.37,0-.65,.3-.9,.93-.9s.93,.23,.93,.9Zm3.65-3.52c0,.63-.27,.91-.93,.91s-.93-.28-.93-.91,.29-.91,.93-.91,.93,.26,.93,.91Zm0,3.52c0,.63-.27,.91-.93,.91s-.93-.28-.93-.91,.29-.9,.93-.9,.93,.23,.93,.9Z"/></g></svg>