<?xml version="1.0" encoding="UTF-8"?><svg xmlns="http://www.w3.org/2000/svg" width="24" height="24" viewBox="0 0 24 24"><defs><style>.c{fill:none;}</style></defs><g id="a"><rect class="c" width="24" height="24"/></g><g id="b"><path d="M1.4,11.39v-3.53h1.18v3.53H1.4Zm4.38,5.89c-1.35,0-2.01-.65-2.01-2.01v-6.54c0-1.35,.65-2,2.01-2H14.68c1.36,0,2.01,.65,2.01,2v.48h1.5c1.09-.64,2.24-1.18,3.43-1.61h.99v8.68h-.99c-1.19-.43-2.33-.97-3.42-1.61h-1.51v.59c0,1.36-.65,2.01-2.01,2.01l-8.9,.02Zm9.75-2.18v-6.2c0-.74-.28-1.04-1.02-1.04H5.95c-.74,0-1.02,.31-1.02,1.04v6.19c0,.74,.28,1.05,1.02,1.05H14.51c.74,0,1.02-.31,1.02-1.05h0Zm5.89-.1v-6.09c-1.02,.36-1.98,.85-2.88,1.44h-1.84v3.19h1.87c.9,.59,1.87,1.08,2.88,1.44h-.02Z"/></g></svg>