<svg id="Icones" xmlns="http://www.w3.org/2000/svg" width="32" height="32" viewBox="0 0 32 32"><defs><style>.cls-1{fill:none;}</style></defs><rect class="cls-1" width="32" height="32"/><path d="M4.89,23.81H3.7c-1.6,0-2.39-.81-2.39-2.51,0-4.07.13-9,.29-11.76C1.69,7.6,2.32,7,4.45,7H21.54c1.85,0,2.38.26,3.29,1.48a4.24,4.24,0,0,1,1.07,2.35c0,1.13-.72,1.73-2.1,1.73h-.69l3.17,3.57,1.88.66c1.5.53,1.91,1,2.1,2.48a17.12,17.12,0,0,1,.12,2.47c0,1-.56,1.54-1.69,1.7v-1.1c.44-.09.6-.25.6-.56a13.55,13.55,0,0,0-.13-2.26c-.12-1-.41-1.41-1.25-1.7l-2.23-.75-4-4.51H18.06v9H17v-10H23.8c.69,0,1-.22,1-.66A3.52,3.52,0,0,0,24,9.2c-.69-1-1-1.1-2.48-1.1H4.29c-1.19,0-1.53.31-1.6,1.44-.22,4.05-.28,6.12-.28,11.76,0,1,.41,1.45,1.44,1.45h1ZM8,26a2.2,2.2,0,1,1,0-4.39,2.16,2.16,0,0,1,2,1.09H23.61a2.16,2.16,0,0,1,2-1.09,2.2,2.2,0,1,1,0,4.39,2.09,2.09,0,0,1-2.23-2.2v0H10.22v0A2.09,2.09,0,0,1,8,26Zm0-3.36A1.11,1.11,0,0,0,6.8,23.81,1.1,1.1,0,0,0,8,25a1.08,1.08,0,0,0,1.2-1.16A1.1,1.1,0,0,0,8,22.65ZM25.59,25a1.1,1.1,0,0,0,1.19-1.16,1.2,1.2,0,0,0-2.39,0A1.08,1.08,0,0,0,25.59,25Z"/></svg>