<svg id="Icones" xmlns="http://www.w3.org/2000/svg" width="32" height="32" viewBox="0 0 32 32"><defs><style>.cls-1{fill:none;}</style></defs><rect class="cls-1" width="32" height="32"/><path d="M5.77,17.42c0-1.54.09-1.76,1.63-3.58s2.32-2.32,4-2.32h4a6.35,6.35,0,0,1,4.17,1.29l2.39,1.78,1.53.38a2.76,2.76,0,0,1,2.45,3,3.43,3.43,0,0,1-.63,2l-.88-.63a2.17,2.17,0,0,0,.41-1.41c0-1.1-.56-1.7-2-2l-1.54-.38L19,13.75a5.35,5.35,0,0,0-3.61-1.16h-4c-1.29,0-1.76.31-3.2,2-1.22,1.51-1.32,1.67-1.32,3v.66a1.32,1.32,0,0,0,.38,1L6.49,20a2.12,2.12,0,0,1-.72-1.73Zm13.45,1.91a2.1,2.1,0,0,1,2.23-2.2,2.08,2.08,0,0,1,2.22,2.2,2.09,2.09,0,0,1-2.22,2.19,2.14,2.14,0,0,1-2-1.13H12.23a2.14,2.14,0,0,1-2,1.13A2.11,2.11,0,0,1,8,19.33a2.09,2.09,0,0,1,2.22-2.2,2.09,2.09,0,0,1,2.23,2.2Zm-9-1.16a1.1,1.1,0,0,0-1.19,1.16,1.11,1.11,0,0,0,1.19,1.16,1.1,1.1,0,0,0,1.19-1.16A1.08,1.08,0,0,0,10.25,18.17Zm11.2,0a1.1,1.1,0,0,0-1.19,1.16,1.11,1.11,0,0,0,1.19,1.16,1.1,1.1,0,0,0,1.19-1.16A1.08,1.08,0,0,0,21.45,18.17Z"/></svg>