<?xml version="1.0" encoding="UTF-8"?><svg xmlns="http://www.w3.org/2000/svg" width="24" height="24" viewBox="0 0 24 24"><defs><style>.c{fill:none;}</style></defs><g id="a"><rect class="c" width="24" height="24"/></g><g id="b"><path d="M8,14.11h7.62c.03-.59,.29-1.15,.72-1.57,.43-.41,1-.65,1.59-.67,.6,0,1.17,.24,1.6,.66,.43,.42,.68,.98,.71,1.58h.94v-.19c0-.46-.07-.93-.21-1.37l-.13-.37c-.22-.56-.56-.86-1.48-1.07l-1.34-.3c-.4-.09-.79-.24-1.15-.45-.86-.6-1.8-1.07-2.79-1.4-1.07-.35-3.25-.43-5.15-.43-1.16,0-2.47,.08-3.71,.16l-1.34-.73v-.32c1.07-.08,3.78-.24,5.34-.24,1.74,0,4.16,.11,5.34,.51,.98,.37,1.91,.83,2.79,1.39,.25,.15,.52,.27,.8,.35l1.34,.32c.88,.22,1.58,.46,1.96,.94,.55,.76,.86,1.67,.92,2.6,0,1.31-.38,1.72-1.37,1.72h-.96c-.18,.41-.48,.75-.86,1s-.81,.37-1.26,.37-.88-.13-1.26-.37-.67-.59-.86-1H7.82c-.19,.41-.49,.76-.86,1-.38,.24-.82,.37-1.27,.37-.51,0-1.02-.17-1.42-.48-.41-.32-.69-.76-.81-1.26-1.24-.06-1.83-.45-1.83-1.93v-2.3c.53-.71,1.12-1.38,1.77-1.99l1.02,.56c-.6,.56-1.16,1.16-1.68,1.8v2.01c0,.56,.22,.7,.7,.7,.12-.51,.4-.96,.81-1.29,.4-.33,.91-.52,1.43-.54,.6,0,1.18,.23,1.61,.65,.43,.42,.69,.98,.71,1.58h0Zm-1.12,.13c0-.16-.03-.32-.09-.46-.06-.15-.15-.28-.26-.39-.11-.11-.25-.2-.39-.26-.15-.06-.3-.09-.46-.09s-.32,.03-.46,.09c-.15,.06-.28,.15-.39,.26-.11,.11-.2,.25-.26,.39-.06,.15-.09,.3-.09,.46s.03,.32,.09,.46c.06,.15,.15,.28,.26,.39,.11,.11,.25,.2,.39,.26,.15,.06,.3,.09,.46,.09s.32-.03,.46-.09c.15-.06,.28-.15,.39-.26,.11-.11,.2-.25,.26-.39,.06-.15,.09-.3,.09-.46h0Zm12.23,0c0-.32-.13-.63-.35-.85-.23-.23-.53-.35-.85-.35s-.63,.13-.85,.35c-.23,.23-.35,.53-.35,.85s.13,.63,.35,.85c.23,.23,.53,.35,.85,.35s.63-.13,.85-.35,.35-.53,.35-.85Z"/></g></svg>