<?xml version="1.0" encoding="UTF-8"?><svg xmlns="http://www.w3.org/2000/svg" width="24" height="24" viewBox="0 0 24 24"><defs><style>.c{fill:none;}</style></defs><g id="a"><rect class="c" width="24" height="24"/></g><g id="b"><path d="M3.53,21.6V2.4h1.13V21.6h-1.13Zm16.94-6.8c-1.3-.49-2.9-1.13-4.37-1.13-2.2,0-3.31,1.13-5.78,1.13-1.51,0-3.03-.71-4.52-1.25V2.41c1.46,.56,2.82,1.13,4.34,1.13,2.2,0,3.31-1.13,5.77-1.13,1.36,0,3.23,.68,4.56,1.22V14.8ZM6.91,3.98V12.79c1.36,.56,2.35,.92,3.44,.92,2.52,0,3.31-1.13,5.78-1.13,1.1,.04,2.18,.26,3.21,.64V4.33c-1.11-.44-2.28-.72-3.47-.81-2.38,0-3.3,1.13-5.77,1.13-1.11-.03-2.21-.26-3.25-.67h.07Zm4.34,5.31h2.82c.09-.11,.21-.2,.33-.27,.13-.07,.27-.1,.41-.11,.32,.01,.62,.15,.84,.38h1.03c.38,0,.52-.05,.49-.27v-.21c0-.15-.04-.29-.13-.41-.09-.12-.21-.2-.36-.24l-1.03-.36c-.38-.14-.76-.46-1.43-.73-.6-.23-1.23-.34-1.87-.33-.87,.01-1.73,.11-2.58,.3l-.88-.65v-.27c1.03-.3,2.1-.46,3.17-.46,.82-.02,1.64,.11,2.42,.38,.76,.3,1.24,.76,1.6,.9l1.13,.43c.27,.09,.51,.25,.69,.48,.17,.23,.27,.5,.29,.79l.06,.41c.11,.81-.46,1.28-1.36,1.28h-.94c-.05,.26-.19,.5-.4,.67-.21,.17-.47,.26-.73,.25-.26,0-.51-.1-.71-.27-.2-.17-.33-.4-.38-.65h-2.26c-.05,.26-.19,.5-.4,.67-.21,.17-.47,.26-.73,.25-.26,0-.51-.1-.71-.27-.2-.17-.33-.4-.38-.65-.18,.02-.35,0-.52-.07-.17-.06-.32-.16-.44-.29-.12-.13-.22-.28-.28-.45-.06-.17-.08-.35-.06-.52v-.41c-.02-.26,.02-.52,.11-.76,.09-.24,.23-.47,.41-.65l.24-.27c.24,.25,.49,.48,.76,.71l-.13,.14c-.14,.12-.25,.27-.31,.44-.06,.17-.08,.36-.04,.54,0,.35,.11,.56,.56,.56,.1-.12,.23-.21,.37-.28,.14-.07,.29-.1,.45-.1,.31,.02,.6,.16,.81,.38h.07Z"/></g></svg>