<svg id="Icones" xmlns="http://www.w3.org/2000/svg" width="32" height="32" viewBox="0 0 32 32"><defs><style>.cls-1{fill:none;}</style></defs><rect class="cls-1" width="32" height="32"/><path d="M5.93,20.83c0-1.54.1-1.76,1.63-3.58s2.32-2.32,4-2.32h4a6.31,6.31,0,0,1,4.17,1.29L22.08,18l1.54.37a2.77,2.77,0,0,1,2.45,2.95,3.41,3.41,0,0,1-.63,2l-.88-.63A2.21,2.21,0,0,0,25,21.33c0-1.1-.57-1.69-2-2l-1.53-.37-2.32-1.76A5.37,5.37,0,0,0,15.53,16h-4c-1.29,0-1.76.31-3.2,2C7.16,19.48,7,19.67,7,21v.65a1.29,1.29,0,0,0,.38,1l-.75.69a2.09,2.09,0,0,1-.73-1.73Zm13.46,1.91a2.09,2.09,0,0,1,2.22-2.19,2.08,2.08,0,0,1,2.23,2.19,2.1,2.1,0,0,1-2.23,2.2,2.11,2.11,0,0,1-2-1.13H12.39a2.08,2.08,0,0,1-2,1.13,2.12,2.12,0,0,1-2.23-2.2,2.09,2.09,0,0,1,2.23-2.19,2.07,2.07,0,0,1,2.22,2.19Zm-9-1.16a1.1,1.1,0,0,0-1.19,1.16,1.11,1.11,0,0,0,1.19,1.16,1.1,1.1,0,0,0,1.19-1.16A1.08,1.08,0,0,0,10.42,21.58ZM11.73,7.06l2,2,2-2,.78.79-2,2,2,2-.78.79-2-2-2,2L11,11.92l2-2-2-2Zm9.88,14.52a1.1,1.1,0,0,0-1.19,1.16,1.11,1.11,0,0,0,1.19,1.16,1.1,1.1,0,0,0,1.2-1.16A1.08,1.08,0,0,0,21.61,21.58Z"/></svg>