<svg id="Icones" xmlns="http://www.w3.org/2000/svg" width="32" height="32" viewBox="0 0 32 32"><defs><style>.cls-1{fill:none;}</style></defs><rect class="cls-1" width="32" height="32"/><path d="M5.93,21.16c0-1.54.1-1.76,1.63-3.58s2.32-2.32,4-2.32h4a6.31,6.31,0,0,1,4.17,1.29l2.38,1.79,1.54.37a2.77,2.77,0,0,1,2.45,2.95,3.43,3.43,0,0,1-.63,2l-.88-.63A2.21,2.21,0,0,0,25,21.66c0-1.1-.57-1.69-2-2l-1.53-.37-2.32-1.76a5.37,5.37,0,0,0-3.61-1.16h-4c-1.29,0-1.76.31-3.2,2C7.16,19.81,7,20,7,21.32V22a1.3,1.3,0,0,0,.38,1l-.75.69A2.09,2.09,0,0,1,5.93,22Zm13.46,1.91a2.09,2.09,0,0,1,2.22-2.19,2.08,2.08,0,0,1,2.23,2.19,2.1,2.1,0,0,1-2.23,2.2,2.11,2.11,0,0,1-2-1.13H12.39a2.08,2.08,0,0,1-2,1.13,2.12,2.12,0,0,1-2.23-2.2,2.09,2.09,0,0,1,2.23-2.19,2.07,2.07,0,0,1,2.22,2.19ZM8.94,11.34l.57-.91a6.78,6.78,0,0,0,8.53,0l.56.91a7.82,7.82,0,0,1-9.66,0Zm1.48,10.57a1.1,1.1,0,0,0-1.19,1.16,1.11,1.11,0,0,0,1.19,1.16,1.1,1.1,0,0,0,1.19-1.16A1.08,1.08,0,0,0,10.42,21.91ZM10.07,9.46l.54-.88a4.82,4.82,0,0,0,3.16,1.1,4.82,4.82,0,0,0,3.17-1.1l.53.88a6,6,0,0,1-7.4,0ZM11.2,7.61l.53-.88a3.71,3.71,0,0,0,2,.72,3.66,3.66,0,0,0,2-.72l.54.88a4.65,4.65,0,0,1-2.58.91A4.65,4.65,0,0,1,11.2,7.61Zm10.41,14.3a1.1,1.1,0,0,0-1.19,1.16,1.11,1.11,0,0,0,1.19,1.16,1.1,1.1,0,0,0,1.2-1.16A1.08,1.08,0,0,0,21.61,21.91Z"/></svg>