<?xml version="1.0" encoding="UTF-8"?><svg xmlns="http://www.w3.org/2000/svg" width="24" height="24" viewBox="0 0 24 24"><defs><style>.c{fill:none;}</style></defs><g id="a"><rect class="c" width="24" height="24"/></g><g id="b"><path d="M5.44,14.11C2.22,14.11,.19,12.08,.19,8.86S2.22,3.6,5.44,3.6s5.25,2,5.25,5.26-2,5.25-5.25,5.25Zm0-1.14c2.54,0,4.08-1.54,4.08-4.11s-1.52-4.13-4.08-4.13S1.37,6.28,1.37,8.84s1.54,4.11,4.08,4.11h0Zm-1.78,2.24v1.14c0,.33,.11,.64,.33,.88,.22,.24,.53,.38,.86,.4,.07-.61,.37-1.18,.84-1.58,.47-.4,1.07-.61,1.68-.59,.62,.02,1.2,.27,1.64,.71,.44,.43,.69,1.02,.72,1.63h6.84c.04-.63,.31-1.23,.76-1.67,.45-.44,1.06-.69,1.69-.71,.64,0,1.25,.25,1.7,.7,.46,.44,.73,1.05,.75,1.68h.19c.86,0,1-.17,1-.74-.01-.69-.2-1.37-.55-1.97-.2-.29-.4-.43-1.05-.6l-2.38-.51c-.77-.17-1.78-1.37-3.57-2.06-1.16-.35-2.36-.55-3.57-.59,.14-.38,.23-.78,.26-1.19,1.3,.06,2.59,.3,3.83,.72,1.59,.6,2.85,1.85,3.28,1.94l2.38,.54c.36,.04,.71,.15,1.01,.34,.31,.19,.57,.44,.77,.75,.44,.84,.69,1.76,.71,2.71,0,1.22-.83,1.78-2.11,1.78h-.46c-.19,.44-.5,.82-.9,1.08-.4,.26-.87,.41-1.35,.41s-.95-.14-1.35-.41c-.4-.26-.71-.64-.9-1.08h-7.21c-.19,.45-.51,.82-.92,1.09-.41,.26-.88,.4-1.37,.4-.49,0-.96-.16-1.36-.43-.4-.28-.71-.66-.89-1.11-1.25-.2-2.51-.97-2.51-2.57v-1.53c.37,.2,.76,.34,1.17,.43h.01Zm1.96-4.33h-.98c-.48-.65-.93-1.33-1.34-2.03l.94-.65,.89,1.48c.6-.91,1.09-1.78,1.68-2.94l.97,.54c-.89,1.57-1.37,2.4-2.16,3.6Zm2.91,7.08c0-.34-.14-.67-.38-.91s-.57-.38-.91-.38-.67,.14-.91,.38c-.24,.24-.38,.57-.38,.91s.13,.67,.38,.91c.24,.24,.57,.38,.91,.38s.67-.13,.91-.38c.24-.24,.38-.57,.38-.91h0Zm11.76,0c0-.34-.14-.67-.38-.91s-.57-.38-.91-.38-.67,.14-.91,.38-.38,.57-.38,.91,.13,.67,.38,.91c.24,.24,.57,.38,.91,.38s.67-.13,.91-.38c.24-.24,.38-.57,.38-.91h0Z"/></g></svg>