<?xml version="1.0" encoding="UTF-8"?><svg xmlns="http://www.w3.org/2000/svg" width="24" height="24" viewBox="0 0 24 24"><defs><style>.c{fill:none;}</style></defs><g id="a"><rect class="c" width="24" height="24"/></g><g id="b"><path d="M7.99,18.42h7.7c.03-.6,.29-1.17,.72-1.58,.43-.42,1.01-.66,1.61-.67,.61,0,1.18,.24,1.62,.66,.43,.42,.69,.99,.71,1.6h.95v-.19c0-.47-.07-.94-.21-1.38l-.14-.38c-.22-.56-.57-.87-1.49-1.08l-1.36-.3c-.41-.09-.81-.25-1.17-.46-.87-.6-1.82-1.07-2.82-1.41-1.08-.36-3.28-.43-5.2-.43-1.17,0-2.5,.08-3.74,.16l-1.36-.73v-.33c1.08-.08,3.82-.24,5.4-.24,1.76,0,4.2,.11,5.4,.51,.99,.38,1.93,.85,2.82,1.41,.24,.15,.5,.26,.76,.35l1.36,.33c.89,.21,1.6,.46,1.98,.95,.55,.77,.87,1.68,.93,2.63,0,1.33-.38,1.74-1.38,1.74h-.9c-.19,.41-.49,.76-.87,1.01-.38,.25-.82,.38-1.28,.38s-.9-.13-1.28-.38c-.38-.25-.68-.6-.87-1.01H7.8c-.19,.41-.49,.76-.87,1.01-.38,.24-.82,.38-1.28,.38-.52,0-1.03-.17-1.44-.49-.41-.32-.7-.77-.82-1.27-1.25-.06-1.85-.46-1.85-1.95v-2.33c.54-.72,1.13-1.39,1.79-2.01l1.03,.57c-.61,.56-1.17,1.17-1.7,1.81v2.03c0,.57,.22,.71,.71,.71,.12-.51,.41-.97,.82-1.3,.41-.33,.92-.52,1.44-.54,.61,0,1.19,.24,1.62,.66s.69,.99,.72,1.6h0Zm-1.13,.14c0-.32-.13-.63-.36-.86-.23-.23-.54-.36-.86-.36s-.63,.13-.86,.36c-.23,.23-.36,.54-.36,.86s.13,.63,.36,.86c.23,.23,.54,.36,.86,.36s.63-.13,.86-.36c.23-.23,.36-.54,.36-.86h0Zm-1.2-10.68l.57-.9c1.09,.92,2.49,1.4,3.91,1.33,1.42,.07,2.82-.41,3.9-1.33l.57,.9c-1.24,1.04-2.83,1.59-4.45,1.54-1.64,.06-3.24-.49-4.5-1.54h0Zm1.17-1.98l.59-.92c.73,.68,1.69,1.05,2.69,1.05s1.96-.38,2.69-1.05l.59,.92c-.9,.8-2.07,1.25-3.28,1.25s-2.38-.44-3.28-1.25h0Zm1.13-1.95l.57-.9c.2,.21,.45,.38,.72,.5,.27,.12,.56,.18,.86,.18s.59-.06,.86-.18c.27-.12,.51-.29,.72-.5l.57,.9c-.28,.29-.61,.52-.98,.68-.37,.16-.77,.24-1.17,.24s-.8-.08-1.17-.24c-.37-.16-.7-.39-.98-.68h.01Zm11.3,14.62c0-.32-.13-.63-.36-.86s-.54-.36-.86-.36-.63,.13-.86,.36c-.23,.23-.36,.54-.36,.86s.13,.63,.36,.86c.23,.23,.54,.36,.86,.36s.63-.13,.86-.36c.23-.23,.36-.54,.36-.86Z"/></g></svg>