<svg id="Icones" xmlns="http://www.w3.org/2000/svg" width="32" height="32" viewBox="0 0 32 32"><defs><style>.cls-1{fill:none;}</style></defs><rect class="cls-1" width="32" height="32"/><path d="M22.81,19.86a1.2,1.2,0,0,0-2.39,0v.59H11.61v-.59a1.11,1.11,0,0,0-1.19-1.16,1.11,1.11,0,0,0-1.19,1.16v.59H8a2.08,2.08,0,0,1-2.1-2.19v-.82c0-1.53.1-1.75,1.63-3.57s2.32-2.32,4-2.32h4a6.76,6.76,0,0,1,4.17,1.28l2.38,1.79,1.54.38a2.76,2.76,0,0,1,2.45,2.94c0,1.57-.76,2.51-2,2.51H22.81Zm-10.23-.47h6.87a2.22,2.22,0,0,1,4.33,0c.94,0,1.19-.32,1.19-1.45s-.57-1.69-2-2l-1.53-.38-2.32-1.76a5.42,5.42,0,0,0-3.61-1.16h-4c-1.29,0-1.76.32-3.2,2C7.09,16.19,7,16.35,7,17.6v.66c0,.69.38,1.13,1,1.13h.25a2.12,2.12,0,0,1,2.17-1.73A2.11,2.11,0,0,1,12.58,19.39Z"/></svg>