<svg id="Icones" xmlns="http://www.w3.org/2000/svg" width="32" height="32" viewBox="0 0 32 32"><defs><style>.cls-1{fill:none;}</style></defs><rect class="cls-1" width="32" height="32"/><path d="M10.25,11.55h.63a6.48,6.48,0,0,1,4.17,1.29l1.66,1.25L18.41,12a3.56,3.56,0,0,1,2.72-1.63,2.58,2.58,0,0,1,1.42.41l-.54,1a1.65,1.65,0,0,0-.88-.28c-.65,0-1.31.44-2.13,1.47l-1.41,1.7L19,15A2.77,2.77,0,0,1,21.42,18a3.43,3.43,0,0,1-.63,2l-.88-.63A2.23,2.23,0,0,0,20.32,18c0-1.1-.57-1.7-2-2l-1.53-.38-2.32-1.75a5.37,5.37,0,0,0-3.61-1.16h-.63Zm0,7.81h4.49A2.1,2.1,0,0,1,17,17.16a2.09,2.09,0,0,1,2.23,2.2A2.1,2.1,0,0,1,17,21.56a2.11,2.11,0,0,1-2-1.13H10.25ZM17,18.2a1.1,1.1,0,0,0-1.19,1.16A1.11,1.11,0,0,0,17,20.52a1.1,1.1,0,0,0,1.19-1.16A1.08,1.08,0,0,0,17,18.2Z"/></svg>