<?xml version="1.0" encoding="UTF-8"?><svg xmlns="http://www.w3.org/2000/svg" width="24" height="24" viewBox="0 0 24 24"><defs><style>.c{fill:none;}</style></defs><g id="a"><rect class="c" width="24" height="24"/></g><g id="b"><path d="M0,10.21l.33-1.13H9.18v1.13H1.13v2.2c0,.49,.14,.68,.59,.76l2.02,.51c.19-.39,.48-.71,.85-.94,.36-.23,.79-.35,1.22-.36,.46,.01,.9,.15,1.28,.41,.38,.25,.68,.61,.86,1.03h9.46c.18-.42,.47-.77,.85-1.02,.38-.25,.82-.39,1.27-.39,.43,0,.85,.13,1.21,.35,.36,.23,.66,.54,.86,.92h1.33v-.3c-.01-.59-.16-1.17-.44-1.7-.13-.23-.32-.43-.55-.56s-.49-.2-.76-.2l-3.12-.3c-1.06-.11-1.55-1.04-3.15-1.96-1.01-.57-.93-.68-2.39-.68h-1.08v4.67h-1.13V6.84h2.66c1.16-.08,1.32,.18,2.34,.73,1.93,1.04,2.09,1.82,2.99,1.9l2.79,.27c1.06,.11,1.9,.46,2.34,1.28,.38,.77,.57,1.62,.57,2.47,0,1-.33,1.24-1.17,1.24h-.99c0,.31-.04,.62-.16,.91-.11,.29-.28,.56-.5,.78-.22,.22-.48,.4-.77,.52-.29,.12-.6,.18-.91,.18-.3,0-.6-.05-.88-.16-.28-.11-.54-.28-.76-.49-.22-.21-.39-.46-.51-.74-.12-.28-.18-.58-.19-.88l-9.04,.03c-.02,.62-.28,1.21-.73,1.63-.45,.43-1.05,.65-1.67,.64s-1.21-.28-1.63-.73c-.42-.45-.65-1.05-.64-1.67l-1.93-.51C.52,14.06,0,13.52,0,12.55v-2.35Zm7.01,4.53c0-.32-.13-.64-.36-.86-.23-.23-.54-.36-.86-.36s-.64,.13-.86,.36c-.23,.23-.36,.54-.36,.86s.13,.63,.36,.86,.54,.36,.86,.36,.63-.13,.86-.36,.36-.54,.36-.86Zm13.71,0c0-.32-.13-.64-.36-.86-.23-.23-.54-.36-.86-.36s-.64,.13-.87,.36c-.23,.23-.36,.54-.36,.86s.13,.63,.36,.86c.23,.23,.54,.36,.87,.36s.63-.13,.86-.36,.36-.54,.36-.86Z"/></g></svg>