<?xml version="1.0" encoding="UTF-8"?><svg xmlns="http://www.w3.org/2000/svg" width="24" height="24" viewBox="0 0 24 24"><defs><style>.c{fill:none;}</style></defs><g id="a"><rect class="c" width="24" height="24"/></g><g id="b"><path d="M1.3,10.49l1.13,.35c-.49,.74-.6,.84-.6,1.36v.79c0,.73,.24,.81,1.09,.81,.07-.59,.37-1.13,.82-1.51,.46-.38,1.04-.57,1.64-.53,.59,.04,1.15,.3,1.56,.74,.41,.43,.63,1.01,.63,1.6h8.89c-.02-.32,.03-.63,.14-.93,.11-.3,.28-.57,.5-.8,.22-.23,.48-.41,.77-.54,.29-.12,.6-.19,.92-.19s.63,.06,.92,.19c.29,.12,.55,.31,.77,.54s.39,.5,.5,.8c.11,.3,.16,.61,.14,.93v.03h1.06v-.56c.02-.48-.08-.95-.27-1.39-.1-.23-.26-.43-.46-.6-.2-.16-.43-.27-.67-.33-1.76-.57-2.61-.38-3.69-.68-.76-.22-.92-.51-2.47-1.13-1.42-.51-2.92-.78-4.43-.79-3.39,0-5.02,.84-7.08,1.36l-1.74-.46v-.46c2.26,0,4.43-1.55,8.82-1.55,1.87-.03,3.72,.34,5.43,1.09,1.27,.57,1.57,.9,2.41,.98,.97,.08,1.93,.25,2.88,.49,.42,.09,.82,.26,1.17,.52,.35,.26,.63,.59,.84,.97,.3,.66,.43,1.39,.38,2.11,0,1.17-.41,1.49-1.25,1.49h-1.2c-.2,.38-.49,.69-.86,.91-.36,.22-.78,.34-1.21,.34s-.84-.12-1.21-.34c-.36-.22-.66-.54-.86-.91H7.27c-.21,.4-.53,.73-.93,.95-.4,.22-.85,.32-1.3,.29-.45-.03-.88-.19-1.25-.47-.36-.27-.63-.65-.79-1.07-1.63,0-2.31-.51-2.31-1.82v-1.24c.05-.5,.26-.98,.6-1.36h0Zm5.14,3.61c0-.16-.03-.32-.09-.47-.06-.15-.15-.28-.26-.4-.11-.11-.25-.2-.4-.26-.15-.06-.31-.09-.47-.09s-.32,.03-.47,.09c-.15,.06-.28,.15-.4,.26-.11,.11-.2,.25-.26,.4-.06,.15-.09,.31-.09,.47s.03,.32,.09,.47c.06,.15,.15,.28,.26,.4,.11,.11,.25,.2,.4,.26,.15,.06,.31,.09,.47,.09s.32-.03,.47-.09c.15-.06,.28-.15,.4-.26,.11-.11,.2-.25,.26-.4,.06-.15,.09-.31,.09-.47h0Zm13.57,0c0-.32-.13-.63-.36-.86-.23-.23-.54-.36-.86-.36s-.63,.13-.86,.36c-.23,.23-.36,.54-.36,.86s.13,.63,.36,.86c.23,.23,.54,.36,.86,.36s.63-.13,.86-.36c.23-.23,.36-.54,.36-.86Z"/></g></svg>