<svg id="Icones" xmlns="http://www.w3.org/2000/svg" width="32" height="32" viewBox="0 0 32 32"><defs><style>.cls-1{fill:none;}</style></defs><rect class="cls-1" width="32" height="32"/><path d="M1.28,24.13c0-1.54.1-1.76,1.63-3.58s2.32-2.32,4-2.32h4a6.48,6.48,0,0,1,4.17,1.29l2.38,1.78,1.54.38a2.77,2.77,0,0,1,2.45,2.95,3.43,3.43,0,0,1-.63,2L19.91,26a2.23,2.23,0,0,0,.41-1.41c0-1.1-.57-1.7-2-2l-1.53-.38-2.32-1.75a5.37,5.37,0,0,0-3.61-1.16h-4c-1.29,0-1.76.31-3.2,2C2.44,22.87,2.38,23,2.38,24.28v.66a1.28,1.28,0,0,0,.38,1L2,26.67a2.12,2.12,0,0,1-.72-1.73Zm13.46,1.94A2.09,2.09,0,0,1,17,23.88a2.08,2.08,0,0,1,2.23,2.19A2.1,2.1,0,0,1,17,28.27a2.11,2.11,0,0,1-2-1.13H7.74a2.11,2.11,0,0,1-2,1.13,2.12,2.12,0,0,1-2.23-2.2,2.09,2.09,0,0,1,2.23-2.19A2.07,2.07,0,0,1,8,26.07Zm-9-1.16a1.1,1.1,0,0,0-1.19,1.16,1.11,1.11,0,0,0,1.19,1.16A1.1,1.1,0,0,0,7,26.07,1.08,1.08,0,0,0,5.77,24.91Zm5.64-13.39h4a6.5,6.5,0,0,1,4.18,1.29L22,14.59l1.54.38a2.76,2.76,0,0,1,2.44,3,3.43,3.43,0,0,1-.63,2l-.87-.63a2.22,2.22,0,0,0,.4-1.41c0-1.1-.56-1.7-2-2l-1.54-.38L19,13.75a5.35,5.35,0,0,0-3.61-1.16h-4c-1.28,0-1.75.31-3.2,2C7.05,16,6.9,16.32,6.9,17.1H5.8c0-1.25.09-1.44,1.63-3.26S9.75,11.52,11.41,11.52Zm-1.13-1.16c0-1.26.1-1.44,1.63-3.26s2.32-2.32,4-2.32h4a6.53,6.53,0,0,1,4.17,1.28l2.38,1.79L28,8.23a2.76,2.76,0,0,1,2.45,2.94,3.39,3.39,0,0,1-.63,2l-.88-.62a2.24,2.24,0,0,0,.41-1.42c0-1.09-.57-1.69-2-2l-1.53-.38L23.49,7a5.42,5.42,0,0,0-3.61-1.16h-4c-1.29,0-1.76.32-3.2,2-1.16,1.35-1.32,1.7-1.32,2.48ZM17,24.91a1.1,1.1,0,0,0-1.19,1.16A1.11,1.11,0,0,0,17,27.23a1.1,1.1,0,0,0,1.19-1.16A1.08,1.08,0,0,0,17,24.91Zm4.52-3.39a2.2,2.2,0,1,1,0-4.39,2.08,2.08,0,0,1,2.22,2.2A2.09,2.09,0,0,1,21.48,21.52Zm0-3.35a1.1,1.1,0,0,0-1.19,1.16,1.11,1.11,0,0,0,1.19,1.16,1.1,1.1,0,0,0,1.19-1.16A1.08,1.08,0,0,0,21.48,18.17ZM26,14.78a2.11,2.11,0,0,1-2.22-2.19A2.1,2.1,0,0,1,26,10.39a2.09,2.09,0,0,1,2.23,2.2A2.1,2.1,0,0,1,26,14.78Zm0-3.35a1.09,1.09,0,0,0-1.19,1.16A1.11,1.11,0,0,0,26,13.75a1.1,1.1,0,0,0,1.19-1.16A1.07,1.07,0,0,0,26,11.43Z"/></svg>