<?xml version="1.0" encoding="UTF-8"?><svg xmlns="http://www.w3.org/2000/svg" width="24" height="24" viewBox="0 0 24 24"><defs><style>.c{fill:none;}</style></defs><g id="a"><rect class="c" width="24" height="24"/></g><g id="b"><path d="M6.84,18.07h7.7c.03-.6,.29-1.17,.72-1.59,.43-.42,1.01-.66,1.61-.67,.6,0,1.18,.24,1.62,.66,.43,.42,.69,.99,.71,1.6h.95v-.19c0-.47-.07-.94-.21-1.38l-.14-.38c-.22-.57-.57-.87-1.49-1.08l-1.33-.3c-.41-.09-.81-.25-1.17-.46-.87-.6-1.82-1.07-2.82-1.41-1.08-.36-3.28-.43-5.2-.43-1.17,0-2.5,.08-3.74,.16l-1.35-.73v-.33c1.08-.08,3.82-.24,5.39-.24,1.76,0,4.2,.11,5.4,.51,.99,.37,1.93,.85,2.82,1.41,.26,.15,.53,.27,.81,.36l1.35,.32c.89,.22,1.6,.46,1.98,.95,.55,.77,.87,1.68,.93,2.63,0,1.33-.38,1.73-1.38,1.73h-.97c-.19,.41-.49,.76-.87,1.01-.38,.25-.82,.38-1.28,.38s-.9-.13-1.28-.38c-.38-.25-.68-.6-.87-1.01H6.65c-.19,.41-.49,.76-.87,1.01-.38,.25-.82,.38-1.27,.38-.52,0-1.03-.17-1.44-.49-.41-.32-.7-.77-.82-1.27-1.25-.06-1.85-.46-1.85-1.95v-2.33c.54-.72,1.14-1.39,1.79-2.01l1.03,.57c-.61,.57-1.17,1.17-1.69,1.82v2.03c0,.56,.22,.7,.71,.7,.12-.51,.41-.97,.82-1.3,.41-.33,.91-.52,1.44-.54,.61,0,1.19,.24,1.62,.66,.44,.42,.69,.99,.72,1.6h0Zm-1.13,.14c0-.32-.13-.63-.36-.86-.23-.23-.54-.36-.86-.36s-.63,.13-.86,.36c-.23,.23-.36,.54-.36,.86s.13,.63,.36,.86c.23,.23,.54,.36,.86,.36s.63-.13,.86-.36c.23-.23,.36-.54,.36-.86Zm11.68-8.05c-.8-.46-1.57-.98-2.3-1.55h-2.69v-3.69h2.69c.72-.58,1.49-1.08,2.3-1.52h.56v6.77l-.56-.02Zm-2.06-2.6c.5,.4,1.02,.76,1.57,1.08v-3.77c-.55,.32-1.07,.69-1.57,1.08h-1.88v1.6h1.88Zm2.77,10.65c0-.32-.13-.63-.36-.86-.23-.23-.54-.36-.86-.36s-.63,.13-.86,.36-.36,.54-.36,.86,.13,.63,.36,.86,.54,.36,.86,.36,.63-.13,.86-.36c.23-.23,.36-.54,.36-.86Zm2.26-8.84l-.84-.62c.49-.52,.77-1.21,.79-1.93-.02-.72-.3-1.4-.79-1.92l.84-.62c.62,.71,.98,1.61,1.03,2.55-.02,.9-.37,1.58-1.03,2.55Zm2.03,.79l-.9-.6c.64-.77,1-1.73,1.03-2.74-.03-1-.4-1.97-1.03-2.74l.87-.59c.77,.94,1.21,2.11,1.25,3.33-.03,1.22-.46,2.39-1.23,3.34h.02Z"/></g></svg>