<?xml version="1.0" encoding="UTF-8"?><svg xmlns="http://www.w3.org/2000/svg" width="24" height="24" viewBox="0 0 24 24"><defs><style>.c{fill:none;}</style></defs><g id="a"><rect class="c" width="24" height="24"/></g><g id="b"><path d="M9.77,16.64h.19c.75,0,.95-.14,.95-.7-.01-.7-.19-1.38-.52-2-.11-.16-.27-.35-1-.56l-2.57-.68c-.87-.21-2.25-1.69-4.03-2.37-.65-.25-1.35-.4-2.05-.43v-1.16c1.05,.04,2.08,.3,3.02,.75,1.73,.84,3.06,2.13,3.57,2.25l2.3,.62c1,.27,1.46,.56,1.73,1.13,.4,.79,.62,1.66,.65,2.54,0,1.13-.7,1.69-2,1.69h-.4c-.18,.43-.48,.79-.86,1.04-.38,.26-.84,.39-1.3,.39-.46,0-.91-.14-1.29-.4-.38-.25-.68-.62-.87-1.04H.75v-1.07H5.12c.03-.6,.29-1.16,.72-1.58s1-.66,1.6-.67c.6,0,1.18,.24,1.61,.66,.43,.42,.69,.99,.71,1.59h0Zm-1.12,.14c0-.32-.13-.63-.36-.86-.23-.23-.54-.36-.86-.36s-.63,.13-.86,.36c-.23,.23-.36,.54-.36,.86s.13,.63,.36,.86c.23,.23,.54,.36,.86,.36s.63-.13,.86-.36c.23-.23,.36-.54,.36-.86h0Zm3.54-9.72l1.69-.81,.25,.33-1.27,1.43,1.95,1.23-.19,.38-2.4-.65-.43,2h-.38l-.43-1.97-2.43,.75-.18-.35,1.94-1.41-1.92-2.08,.27-.32,2.32,1.46,.4-2.19h.43l.39,2.2Zm8.92,9.57h2.15v1.08h-2.3c-.18,.43-.48,.79-.86,1.04-.38,.26-.84,.39-1.3,.39-.46,0-.91-.14-1.29-.4-.38-.25-.68-.62-.87-1.04h0c-1.27,0-2.32-.51-2.32-2.1v-2.25c0-1,.18-1.51,1.86-2.97l.95,.59c-1.57,1.35-1.69,1.59-1.69,2.57v1.92c0,.81,.27,1.13,1.08,1.13,.05-.59,.31-1.14,.74-1.54,.43-.4,.99-.63,1.58-.65,.6,.02,1.16,.26,1.59,.68,.42,.42,.67,.98,.69,1.58l-.02-.02Zm2.15-6.78c-1.51,0-3.8,.14-5.43,.27l-1.24-.81-.03-.33s3.75-.3,6.7-.3v1.16Zm-3.24,6.94c0-.32-.13-.63-.36-.86-.23-.23-.54-.36-.86-.36s-.63,.13-.86,.36c-.23,.23-.36,.54-.36,.86s.13,.63,.36,.86c.23,.23,.54,.36,.86,.36s.63-.13,.86-.36c.23-.23,.36-.54,.36-.86Z"/></g></svg>