<?xml version="1.0" encoding="UTF-8"?><svg xmlns="http://www.w3.org/2000/svg" width="24" height="24" viewBox="0 0 24 24"><defs><style>.c{fill:none;}</style></defs><g id="a"><rect class="c" width="24" height="24"/></g><g id="b"><path d="M2.42,14.51c.06-.59,.34-1.14,.79-1.52,.45-.39,1.03-.59,1.62-.56,.59,.03,1.15,.28,1.56,.71,.41,.43,.64,1,.64,1.59h9.9c0-.3,.06-.6,.18-.88,.12-.28,.29-.53,.5-.75,.21-.21,.47-.38,.75-.5,.28-.12,.58-.18,.88-.18s.6,.06,.88,.18c.28,.12,.53,.29,.75,.5,.21,.21,.38,.47,.5,.75,.12,.28,.18,.58,.18,.88h1.07v-.4c-.02-.63-.15-1.25-.4-1.83-.21-.43-.35-.56-1.15-.88l-1.99-.81c-.8-.32-2.09-1.29-3.81-1.96-1.96-.65-4.03-.94-6.09-.86-1.53,0-3.86,.13-5.59,.3l-1.29-.75v-.27c2.04-.18,4.43-.37,6.9-.37,3.86,0,5.15,.27,7.05,1.07,1.72,.73,2.24,1.37,3.28,1.8l2.01,.83c1.12,.46,1.4,.73,1.72,1.45,.31,.78,.48,1.61,.49,2.44,0,1.02-.46,1.36-1.29,1.36h-1.12c-.2,.38-.49,.7-.86,.92-.36,.22-.78,.34-1.21,.34s-.85-.12-1.21-.34c-.37-.22-.66-.54-.85-.92H6.8c-.2,.38-.49,.7-.86,.92-.36,.22-.78,.34-1.21,.35-.46,0-.92-.14-1.3-.41-.38-.26-.68-.64-.85-1.07h-.35c-1.26-.11-1.99-.56-1.99-1.93v-3.46c.45-.72,1-1.37,1.64-1.93l1.02,.56c-.58,.53-1.09,1.12-1.53,1.77v2.92c0,.73,.16,.86,.83,.92l.21,.03Zm3.52,.24c0-.32-.13-.63-.35-.85-.23-.23-.53-.35-.85-.35s-.63,.13-.85,.35c-.23,.23-.35,.53-.35,.85s.13,.63,.35,.85c.23,.23,.53,.35,.85,.35s.63-.13,.85-.35c.23-.23,.35-.53,.35-.85Zm14.53,0c0-.32-.13-.63-.35-.85-.23-.23-.53-.35-.85-.35s-.63,.13-.85,.35c-.23,.23-.35,.53-.35,.85s.13,.63,.35,.85c.23,.23,.53,.35,.85,.35s.63-.13,.85-.35c.23-.23,.35-.53,.35-.85Z"/></g></svg>