<?xml version="1.0" encoding="UTF-8"?><svg xmlns="http://www.w3.org/2000/svg" width="24" height="24" viewBox="0 0 24 24"><defs><style>.c{fill:none;}</style></defs><g id="a"><rect class="c" width="24" height="24"/></g><g id="b"><path d="M3.42,17.06c.19-.39,.49-.72,.85-.95s.79-.36,1.22-.37c.45,0,.89,.14,1.26,.39,.37,.25,.67,.6,.84,1.02h9.41c.18-.41,.47-.77,.85-1.02,.37-.25,.81-.39,1.26-.39,.44,0,.86,.13,1.23,.37s.66,.56,.85,.95h1.32v-.27c0-.69-.2-1.37-.6-1.94-.37-.31-.82-.5-1.29-.56-.95-.2-1.92-.32-2.89-.35-1.4-.08-1.86-1.21-3.75-2.05-1.18-.41-2.43-.58-3.67-.51-2.1,0-3.91,0-6.8,.08l-1.4-.81v-.3c3.13-.08,5.4-.11,8.23-.11,1.5-.09,3,.16,4.39,.72,1.35,.6,2.14,1.57,2.81,1.75,.68,.19,1.89,.16,2.89,.38,1.19,.24,1.73,.38,2.29,.89,.57,.51,.97,2,.97,2.86s-.38,1.32-1.19,1.32h-1.07c0,.62-.25,1.21-.68,1.64-.44,.43-1.03,.68-1.64,.68-.3,0-.6-.05-.88-.16-.28-.11-.53-.27-.75-.48-.22-.21-.39-.46-.51-.73s-.18-.57-.19-.87H7.82c-.01,.62-.27,1.2-.72,1.63-.44,.42-1.04,.66-1.66,.64-.61-.01-1.2-.27-1.63-.72-.43-.45-.66-1.04-.64-1.66l-1.19-.35c-1.27-.38-1.69-1-1.69-2.25v-2.55c.46-.54,.96-1.06,1.48-1.54l1.02,.57c-.49,.44-.95,.91-1.38,1.4v2.22c0,.7,.22,.86,.89,1.08l1.1,.35ZM2.15,5.76v-1.62h1.12v1.62h-1.12Zm4.56,12.37c0-.32-.13-.63-.35-.86-.23-.23-.54-.36-.86-.36s-.63,.13-.86,.36-.35,.54-.35,.86,.13,.63,.35,.86c.23,.23,.54,.36,.86,.36s.63-.13,.86-.36c.23-.23,.35-.54,.35-.86Zm-1.26-9c-.14,.02-.29,.01-.43-.03-.14-.04-.26-.12-.37-.22-.1-.1-.18-.23-.22-.37-.05-.14-.06-.29-.04-.43v-3.53c-.02-.14,0-.29,.04-.43,.04-.14,.12-.26,.22-.37,.1-.1,.23-.18,.37-.22,.14-.05,.28-.06,.43-.03h4.75c.75,0,1.08,.32,1.08,1.05v.14h.56c.6-.33,1.22-.62,1.86-.87h.89v4.91h-.92c-.6-.23-1.18-.5-1.74-.81h-.66v.14c0,.72-.33,1.05-1.08,1.05l-4.75,.02Zm4.72-1.59v-2.42c0-.38-.16-.56-.56-.56h-3.59c-.38,0-.51,.16-.51,.56v2.4c0,.38,.14,.51,.51,.51h3.59c.4,0,.57-.14,.57-.52v.03Zm3.37,.08v-2.62c-.51,.2-1,.44-1.46,.73h-.81v1.12h.78c.47,.28,.96,.52,1.46,.74l.03,.03Zm6.83,10.5c0-.32-.13-.63-.36-.86-.23-.23-.54-.36-.86-.36s-.63,.13-.86,.36c-.23,.23-.35,.54-.35,.86s.13,.63,.35,.86c.23,.23,.54,.36,.86,.36s.63-.13,.86-.36c.23-.23,.36-.54,.36-.86Z"/></g></svg>