<?xml version="1.0" encoding="UTF-8"?><svg xmlns="http://www.w3.org/2000/svg" width="24" height="24" viewBox="0 0 24 24"><defs><style>.c{fill:none;}</style></defs><g id="a"><rect class="c" width="24" height="24"/></g><g id="b"><path d="M5.51,14.08C2.33,14.08,.32,12.08,.32,8.89S2.33,3.7,5.51,3.7s5.19,1.97,5.19,5.19-1.97,5.19-5.19,5.19Zm0-1.13c2.51,0,4.04-1.52,4.04-4.06s-1.53-4.07-4.04-4.07S1.48,6.34,1.48,8.88s1.52,4.06,4.03,4.06h0Zm-1.76,2.21v1.13c0,.32,.11,.64,.33,.87,.22,.24,.52,.38,.85,.4,.07-.61,.36-1.16,.82-1.56,.46-.4,1.06-.61,1.67-.58,.61,.02,1.19,.27,1.62,.7,.43,.43,.69,1.01,.71,1.62h6.76c.03-.62,.3-1.21,.75-1.65,.45-.43,1.05-.69,1.67-.7,.63,0,1.23,.25,1.68,.69,.45,.44,.72,1.03,.74,1.66h.21c.85,0,.98-.17,.98-.73,0-.68-.19-1.35-.54-1.95-.19-.28-.39-.42-1.04-.59l-2.35-.51c-.76-.17-1.76-1.36-3.53-2.03-1.14-.35-2.33-.55-3.52-.59,.14-.38,.23-.77,.25-1.18,1.29,.06,2.56,.3,3.78,.71,1.58,.59,2.82,1.83,3.24,1.92l2.35,.53c.36,.04,.7,.15,1,.34,.3,.19,.56,.44,.76,.74,.44,.83,.68,1.74,.71,2.68,0,1.21-.82,1.76-2.09,1.76h-.43c-.19,.44-.5,.81-.89,1.07s-.86,.4-1.33,.4-.94-.14-1.34-.4-.71-.63-.89-1.07h-7.16c-.19,.44-.51,.81-.91,1.07-.4,.26-.87,.4-1.35,.39-.48,0-.95-.15-1.34-.43-.4-.27-.7-.65-.88-1.1-1.24-.19-2.48-.96-2.48-2.54v-1.52c.37,.19,.76,.34,1.16,.42h.01Zm-.31-5.01l1.24-1.27-1.25-1.24,.76-.76,1.25,1.24,1.32-1.32,.76,.76-1.33,1.32,1.33,1.35-.76,.76-1.32-1.33-1.25,1.25-.75-.75Zm5.16,7.73c0-.34-.13-.66-.37-.9-.24-.24-.56-.37-.9-.37s-.66,.13-.9,.37c-.24,.24-.37,.56-.37,.9s.13,.66,.37,.9,.56,.37,.9,.37,.66-.13,.9-.37,.37-.56,.37-.9Zm11.62,0c0-.34-.13-.66-.37-.9-.24-.24-.56-.37-.9-.37s-.66,.13-.9,.37c-.24,.24-.37,.56-.37,.9s.13,.66,.37,.9,.56,.37,.9,.37,.66-.13,.9-.37c.24-.24,.37-.56,.37-.9h0Z"/></g></svg>