<svg id="Icones" xmlns="http://www.w3.org/2000/svg" width="32" height="32" viewBox="0 0 32 32"><defs><style>.cls-1{fill:none;}</style></defs><rect class="cls-1" width="32" height="32"/><path d="M4.64,18.73V17.67a3.64,3.64,0,0,1,2.23-.57H24.8a3.68,3.68,0,0,1,2.23.57v1.06a4.18,4.18,0,0,0-2.23-.56H18.06v6.74H17V18.17H14.71v6.74h-1.1V18.17H6.87A4.18,4.18,0,0,0,4.64,18.73ZM5.77,13c0-1.53.09-1.75,1.63-3.57s2.32-2.32,4-2.32h4a6.4,6.4,0,0,1,4.17,1.28l2.39,1.79,1.53.38A2.75,2.75,0,0,1,25.9,13.5a3.38,3.38,0,0,1-.63,2l-.87-.62a2.22,2.22,0,0,0,.4-1.41c0-1.1-.56-1.7-2-2l-1.54-.38L19,9.32a5.4,5.4,0,0,0-3.61-1.16h-4c-1.29,0-1.76.32-3.2,2-1.22,1.51-1.31,1.66-1.31,3v.66a1.28,1.28,0,0,0,.37,1l-.75.69a2.1,2.1,0,0,1-.72-1.72Zm13.45,1.92a2.1,2.1,0,0,1,2.23-2.2,2.08,2.08,0,0,1,2.22,2.2,2.1,2.1,0,0,1-2.22,2.19,2.14,2.14,0,0,1-2-1.13H12.23a2.14,2.14,0,0,1-2,1.13A2.11,2.11,0,0,1,8,14.91a2.1,2.1,0,0,1,2.22-2.2,2.09,2.09,0,0,1,2.23,2.2Zm-9-1.16a1.1,1.1,0,0,0-1.19,1.16,1.11,1.11,0,0,0,1.19,1.16,1.1,1.1,0,0,0,1.19-1.16A1.08,1.08,0,0,0,10.25,13.75Zm11.2,0a1.1,1.1,0,0,0-1.19,1.16,1.11,1.11,0,0,0,1.19,1.16,1.1,1.1,0,0,0,1.19-1.16A1.08,1.08,0,0,0,21.45,13.75Z"/></svg>