<?xml version="1.0" encoding="UTF-8"?><svg xmlns="http://www.w3.org/2000/svg" width="24" height="24" viewBox="0 0 24 24"><defs><style>.c{fill:none;}</style></defs><g id="a"><rect class="c" width="24" height="24"/></g><g id="b"><path d="M3.29,13.73c.2-.4,.5-.73,.87-.97s.8-.37,1.25-.38c.46,0,.9,.14,1.28,.39,.38,.25,.68,.61,.86,1.04h9.6c.18-.42,.48-.78,.86-1.03,.38-.25,.83-.39,1.29-.39,.44,0,.87,.14,1.25,.37,.37,.24,.67,.57,.87,.97h1.36v-.27c0-.7-.21-1.39-.61-1.97-.38-.31-.83-.51-1.32-.57-.97-.2-1.95-.32-2.94-.36-1.43-.09-1.91-1.24-3.83-2.11-1.2-.42-2.47-.59-3.73-.52-2.14,0-4,0-6.93,.09l-1.43-.82v-.29c3.18-.08,5.51-.11,8.39-.11,1.52-.09,3.04,.16,4.44,.74,1.37,.61,2.17,1.6,2.83,1.78s1.92,.17,2.93,.39c1.21,.25,1.76,.38,2.34,.9,.58,.52,.99,2.03,.99,2.91s-.38,1.34-1.21,1.34h-1.05c0,.63-.25,1.23-.69,1.67-.44,.44-1.04,.69-1.67,.69-.31,0-.61-.05-.89-.16-.28-.11-.54-.28-.76-.49-.22-.21-.39-.47-.52-.75-.12-.28-.18-.58-.19-.89H7.74c-.01,.63-.28,1.22-.73,1.65s-1.06,.67-1.69,.65c-.63-.01-1.22-.28-1.65-.73-.43-.45-.67-1.06-.65-1.69l-1.21-.35c-1.29-.38-1.72-1.02-1.72-2.29v-2.6c.47-.55,.97-1.07,1.51-1.56l1.02,.61c-.5,.45-.96,.92-1.4,1.42v2.25c0,.71,.22,.87,.91,1.1l1.15,.33Zm3.35,1.07c0-.16-.03-.32-.09-.47-.06-.15-.15-.29-.27-.4-.11-.11-.25-.21-.4-.27-.15-.06-.31-.09-.47-.09s-.32,.03-.47,.09c-.15,.06-.29,.15-.4,.27-.12,.11-.21,.25-.27,.4-.06,.15-.09,.31-.09,.47s.03,.32,.09,.47c.06,.15,.15,.29,.27,.4,.11,.11,.25,.21,.4,.27,.15,.06,.31,.09,.47,.09s.32-.03,.47-.09c.15-.06,.29-.15,.4-.27,.12-.11,.21-.25,.27-.4,.06-.15,.09-.31,.09-.47Zm13.87,0c0-.33-.13-.64-.36-.87-.23-.23-.55-.36-.87-.36s-.64,.13-.87,.36c-.23,.23-.36,.55-.36,.87s.13,.64,.36,.87c.23,.23,.55,.36,.87,.36s.64-.13,.87-.36c.23-.23,.36-.55,.36-.87Z"/></g></svg>