<?xml version="1.0" encoding="UTF-8"?><svg xmlns="http://www.w3.org/2000/svg" width="24" height="24" viewBox="0 0 24 24"><defs><style>.c{fill:none;}</style></defs><g id="a"><rect class="c" width="24" height="24"/></g><g id="b"><path d="M12.61,9.88H6.65c-1.29,0-1.81,1.14-2.46,3.5h13.48c-.14-.46-.24-.87-.38-1.23h3.37v.96l-1.45,.63c.43,.32,.77,.74,1.02,1.22,.24,.48,.37,1,.38,1.54v6.1c0,.12-.02,.23-.06,.34-.04,.11-.11,.21-.19,.29-.08,.08-.18,.15-.29,.2-.11,.05-.22,.07-.34,.07h-2.74c-.24,0-.47-.1-.64-.26-.17-.17-.27-.4-.28-.64v-1.34H5.8v1.34c0,.24-.11,.47-.28,.64-.17,.17-.4,.26-.65,.26H2.13c-.12,0-.23-.03-.34-.07-.11-.05-.2-.11-.29-.2-.08-.08-.15-.18-.19-.29-.04-.11-.07-.22-.06-.34v-6.1c0-.54,.14-1.06,.38-1.54,.24-.48,.59-.89,1.02-1.22l-1.45-.63v-.96H3.37c.76-2.05,1.48-3.36,3.12-3.36h6.12v1.09Zm5.64,4.56H3.61c-.33,.24-.61,.55-.82,.9-.21,.35-.35,.74-.41,1.15v5.91h2.28v-2.24h12.52v2.24h2.28v-5.91c-.06-.4-.19-.8-.4-1.15-.21-.35-.48-.66-.81-.9h0Zm-14.77,2.27c0-.31,.12-.6,.34-.82,.22-.22,.51-.34,.82-.34s.6,.12,.82,.34,.34,.51,.34,.82-.12,.6-.34,.82c-.22,.22-.51,.34-.82,.34s-.6-.12-.82-.34c-.22-.22-.34-.51-.34-.82h0ZM22.43,7.51c-.91,.14-1.14,.41-1.14,.9,.01,.37,.08,.73,.22,1.07l.17,.41c-.75,.47-1.82,1.04-2.67,1.44l-.19-.32c-.1-.21-.25-.4-.44-.54-.19-.13-.42-.22-.65-.23-.24,.01-.46,.09-.66,.23-.19,.14-.35,.32-.44,.54l-.19,.32c-.91-.41-1.78-.89-2.63-1.42l.14-.41c.14-.34,.21-.7,.22-1.07,0-.49-.24-.76-1.14-.9l-.41-.06v-3.14l.41-.05c.88-.14,1.14-.39,1.14-.88,0-.37-.08-.73-.22-1.06l-.14-.44c.85-.51,1.72-.98,2.63-1.4l.19,.33c.1,.21,.26,.39,.45,.52,.19,.13,.41,.22,.65,.24,.23-.03,.45-.11,.64-.25,.19-.13,.35-.31,.45-.52l.19-.33c.85,.38,1.91,.99,2.65,1.4l-.17,.44c-.13,.34-.21,.7-.22,1.06,0,.49,.24,.74,1.14,.88l.38,.05v3.14l-.37,.04Zm-7.3,1.85c.33,.22,.65,.4,1.07,.63,.18-.25,.41-.46,.68-.6,.27-.14,.57-.22,.88-.22,.3,0,.6,.08,.87,.22,.27,.14,.5,.33,.69,.57,.39-.22,.71-.38,1.04-.57-.1-.32-.16-.65-.19-.98,0-.45,.15-.89,.44-1.23,.29-.34,.7-.57,1.14-.63v-1.32c-.44-.05-.84-.27-1.14-.6-.29-.33-.45-.76-.45-1.2,.03-.33,.09-.66,.19-.99-.33-.19-.66-.35-1.04-.57-.19,.24-.42,.43-.69,.57-.27,.14-.56,.21-.86,.22-.31,0-.62-.08-.9-.23-.28-.15-.51-.36-.69-.62-.36,.19-.71,.41-1.04,.65,.08,.31,.14,.63,.17,.96,.02,.44-.14,.88-.43,1.21-.29,.34-.7,.55-1.14,.6v1.31c.45,.06,.85,.29,1.14,.63,.29,.34,.44,.78,.42,1.23-.02,.32-.07,.64-.17,.96h0Zm.79-3.45c0-.36,.1-.71,.3-1.02,.2-.3,.48-.54,.81-.68,.33-.14,.7-.18,1.05-.11,.36,.07,.68,.24,.94,.49,.26,.25,.43,.58,.51,.93s.04,.72-.1,1.06c-.14,.33-.37,.62-.67,.82-.3,.2-.65,.31-1.01,.31-.24,0-.48-.04-.71-.13-.22-.09-.43-.22-.6-.39s-.31-.37-.41-.59c-.1-.22-.15-.46-.15-.7h.03Zm.17,10.82c0-.22,.07-.45,.19-.63,.13-.19,.3-.33,.51-.42,.21-.09,.44-.11,.66-.07s.42,.15,.58,.31,.27,.36,.31,.58c.04,.22,.02,.45-.07,.66-.09,.21-.23,.39-.42,.51-.19,.13-.41,.19-.63,.19-.15,0-.31-.02-.45-.08-.14-.06-.27-.14-.38-.25-.11-.11-.2-.24-.25-.38-.06-.14-.09-.3-.08-.45l.03,.02Zm2.46-10.82c0-.21-.08-.41-.23-.56-.15-.15-.35-.23-.56-.23-.11,0-.21,.01-.31,.05-.1,.04-.19,.1-.26,.17-.07,.07-.13,.16-.17,.26-.04,.1-.05,.2-.05,.31,0,.21,.08,.42,.23,.57,.15,.15,.35,.24,.56,.25,.21-.02,.41-.11,.56-.27,.15-.16,.23-.36,.23-.58v.03Z"/></g></svg>