<?xml version="1.0" encoding="UTF-8"?><svg xmlns="http://www.w3.org/2000/svg" width="24" height="24" viewBox="0 0 24 24"><defs><style>.c{fill:none;}</style></defs><g id="a"><rect class="c" width="24" height="24"/></g><g id="b"><path d="M7.38,17.57h7.69c.03-.6,.29-1.17,.72-1.59,.43-.42,1.01-.66,1.61-.67,.61,0,1.18,.24,1.62,.66,.43,.42,.69,.99,.71,1.6h.95v-.19c0-.47-.07-.94-.22-1.38l-.13-.38c-.22-.56-.57-.87-1.49-1.08l-1.36-.3c-.41-.09-.81-.25-1.17-.46-.87-.6-1.82-1.08-2.82-1.41-1.08-.35-3.28-.43-5.2-.43-1.17,0-2.5,.08-3.74,.16l-1.36-.73v-.32c1.08-.08,3.82-.24,5.39-.24,1.76,0,4.2,.11,5.4,.51,.99,.37,1.93,.84,2.82,1.41,.26,.15,.53,.27,.81,.36l1.35,.32c.89,.22,1.6,.46,1.98,.95,.55,.77,.87,1.68,.93,2.63,0,1.33-.38,1.73-1.38,1.73h-.95c-.19,.41-.49,.76-.87,1.01-.38,.25-.82,.38-1.28,.38s-.9-.13-1.28-.38c-.38-.25-.68-.6-.87-1.01H7.18c-.19,.41-.49,.76-.87,1.01-.38,.25-.82,.38-1.28,.38-.52,0-1.03-.17-1.44-.49-.41-.32-.7-.77-.82-1.27-1.25-.05-1.85-.46-1.85-1.95v-2.33c.54-.72,1.13-1.4,1.79-2.01l1.03,.56c-.61,.57-1.17,1.17-1.69,1.82v2.03c0,.56,.22,.71,.71,.71,.12-.51,.41-.97,.82-1.31,.41-.33,.92-.52,1.44-.54,.61,0,1.19,.23,1.63,.66,.44,.42,.7,1,.72,1.6h0Zm-1.13,.14c0-.32-.13-.63-.36-.86s-.54-.36-.86-.36-.63,.13-.86,.36c-.23,.23-.36,.54-.36,.86s.13,.63,.36,.86c.23,.23,.54,.36,.86,.36s.63-.13,.86-.36c.23-.23,.36-.54,.36-.86h0ZM14.07,6.27c.05-1.73,1.55-2.36,4.1-2.36,2.79,0,4.91,.66,4.91,2.44v.95c0,1.69-2.12,2.44-4.91,2.44-2.6,0-4.1-.73-4.1-2.36h-3.86v-1.13l3.86,.02Zm7.91,1.01v-.93c0-.95-1.69-1.36-3.82-1.36-1.93,0-2.98,.3-2.98,1.36v.93c0,1,1.06,1.38,2.95,1.38,2.21,0,3.86-.46,3.86-1.38h-.01Zm-3.39,10.44c0-.32-.13-.63-.36-.86-.23-.23-.54-.36-.86-.36s-.63,.13-.86,.36-.36,.54-.36,.86,.13,.63,.36,.86c.23,.23,.54,.36,.86,.36s.63-.13,.86-.36c.23-.23,.36-.54,.36-.86Zm1.47-11.66c.21,0,.4,.08,.55,.22,.15,.14,.24,.33,.26,.54-.02,.2-.11,.4-.26,.54-.15,.14-.35,.22-.55,.22-.1,0-.2,0-.29-.04-.09-.04-.18-.09-.25-.16-.07-.07-.12-.16-.16-.25-.03-.09-.04-.2-.03-.3-.01-.1,0-.21,.04-.3,.04-.1,.09-.19,.17-.26,.07-.07,.16-.13,.26-.16,.1-.03,.2-.04,.31-.03h-.03Z"/></g></svg>