<?xml version="1.0" encoding="UTF-8"?><svg xmlns="http://www.w3.org/2000/svg" width="24" height="24" viewBox="0 0 24 24"><defs><style>.c{fill:none;}</style></defs><g id="a"><rect class="c" width="24" height="24"/></g><g id="b"><path d="M19.66,11.95l-2.29-.49c-.74-.17-1.72-1.32-3.44-1.98-1.47-.44-3.01-.63-4.54-.57-1.31,.01-2.61,.1-3.9,.27l-1.24-.63-.03-.33c1.82-.24,3.64-.39,5.48-.44,1.61-.04,3.21,.19,4.74,.68,1.54,.57,2.75,1.79,3.16,1.88l2.29,.52c.35,.04,.68,.15,.98,.33,.3,.18,.55,.43,.74,.72,.43,.81,.66,1.7,.69,2.61,0,1.18-.8,1.72-2.04,1.72h-1.38v-.98c0-.33-.13-.64-.36-.88-.23-.23-.55-.36-.88-.36s-.64,.13-.88,.36c-.23,.23-.36,.55-.36,.88v.99H7.57v-.99c0-.33-.13-.64-.36-.88-.23-.23-.55-.36-.88-.36s-.64,.13-.88,.36-.36,.55-.36,.88v.96h-.74c-1.3-.14-2.64-.88-2.64-2.5v-1.56c0-.75,.3-1.15,1.9-2.75l.99,.57c-1.48,1.51-1.76,1.76-1.76,2.39v1.35c0,.32,.11,.62,.32,.85,.21,.23,.51,.37,.82,.39,.07-.59,.36-1.13,.81-1.52,.45-.39,1.03-.59,1.63-.57,.59,.02,1.16,.27,1.58,.68,.42,.42,.67,.98,.7,1.58h6.61c.03-.61,.3-1.18,.74-1.61,.44-.42,1.02-.67,1.63-.68,.61,0,1.2,.25,1.64,.67,.44,.43,.7,1.01,.72,1.62h.19c.82,0,.96-.17,.96-.72,0-.67-.19-1.32-.53-1.9-.19-.28-.39-.41-1.01-.55Z"/></g></svg>