<?xml version="1.0" encoding="UTF-8"?><svg xmlns="http://www.w3.org/2000/svg" width="24" height="24" viewBox="0 0 24 24"><defs><style>.c{fill:none;}</style></defs><g id="a"><rect class="c" width="24" height="24"/></g><g id="b"><path d="M7.53,14.02h8.9c0-.31,.06-.61,.18-.89,.12-.28,.29-.54,.51-.76,.22-.22,.47-.39,.76-.51,.28-.12,.59-.18,.89-.18s.61,.06,.89,.18c.28,.12,.54,.29,.76,.51,.22,.22,.39,.47,.51,.76,.12,.28,.18,.59,.18,.89v.05h1.13v-.43c0-.72-.24-1.42-.65-2.01-.3-.28-.68-.48-1.09-.57-.93-.24-1.87-.4-2.83-.46-.47-.05-.92-.2-1.33-.44-1.21-.69-2.52-1.16-3.88-1.41l.19-1.13c1.42,.26,2.8,.75,4.07,1.44,.38,.22,.79,.36,1.22,.41,.96,.09,1.9,.27,2.83,.51,.92,.27,1.49,.57,1.82,1.06,.47,.78,.71,1.67,.7,2.58,0,.98-.29,1.49-.97,1.49h-1.49c-.2,.38-.49,.69-.86,.91-.36,.22-.78,.34-1.21,.34s-.84-.12-1.21-.34c-.36-.22-.66-.54-.86-.91H7.26c-.21,.4-.54,.73-.93,.95-.4,.22-.85,.32-1.3,.28-.45-.03-.89-.2-1.25-.48-.36-.28-.63-.65-.78-1.08h-.08c-1.76,0-2.22-.93-2.19-2.2l.05-1.85c.32-.43,.67-.85,1.04-1.24,.98,0,2.9-.03,3.63-.03,1.74,0,2.17,.62,3.8,.68,.74,0,4.78,.16,5.7,.19l1.58,.81v.33c-1.5,0-6.73-.14-7.71-.21-1.63-.14-1.93-.68-3.47-.68-.71,0-2.09-.03-3.01,0-.21,.27-.35,.44-.51,.66v1.36c0,.84,.19,1.03,1.08,1.03,.07-.59,.37-1.14,.83-1.52,.46-.38,1.05-.57,1.65-.53s1.15,.31,1.56,.75,.62,1.02,.61,1.62v.06Zm-1.13,0c0-.16-.03-.32-.09-.47-.06-.15-.15-.28-.26-.4-.11-.11-.25-.2-.4-.26-.15-.06-.31-.09-.47-.09s-.32,.03-.47,.09c-.15,.06-.28,.15-.4,.26-.11,.11-.2,.25-.26,.4-.06,.15-.09,.31-.09,.47s.03,.32,.09,.47c.06,.15,.15,.28,.26,.4,.11,.11,.25,.2,.4,.26,.15,.06,.31,.09,.47,.09s.32-.03,.47-.09c.15-.06,.28-.15,.4-.26,.11-.11,.2-.25,.26-.4,.06-.15,.09-.31,.09-.47Zm13.57,0c0-.32-.13-.63-.36-.86-.23-.23-.54-.36-.86-.36s-.64,.13-.86,.36c-.23,.23-.36,.54-.36,.86s.13,.63,.36,.86c.23,.23,.54,.36,.86,.36s.63-.13,.86-.36c.23-.23,.36-.54,.36-.86h0Z"/></g></svg>