<?xml version="1.0" encoding="UTF-8"?><svg xmlns="http://www.w3.org/2000/svg" width="24" height="24" viewBox="0 0 24 24"><defs><style>.c{fill:none;}</style></defs><g id="a"><rect class="c" width="24" height="24"/></g><g id="b"><path d="M7.1,14.09h9.73c.03-.58,.28-1.13,.71-1.54,.42-.41,.98-.64,1.56-.66,.59,0,1.15,.24,1.57,.65,.42,.41,.67,.96,.7,1.55h1.05c0-.66-.11-1.31-.32-1.93-.12-.23-.29-.43-.5-.57-.21-.15-.46-.24-.71-.27-.95-.23-1.92-.4-2.9-.51-.87-.1-1.76-.87-3.48-1.55-1.35-.5-2.78-.72-4.22-.66-1.45,0-3.46,.05-4.77,.13l-1.32-.76v-.29s2.95-.21,5.75-.21c2.4,0,4.17,.29,5.49,.94,1.79,.87,2.16,1.27,2.82,1.35,.97,.11,1.92,.27,2.87,.48,.38,.05,.73,.19,1.05,.4,.32,.21,.58,.49,.77,.81,.37,.69,.56,1.46,.55,2.25,0,1.19-.4,1.47-1.32,1.47h-1.01c-.18,.4-.47,.74-.84,.98-.37,.24-.8,.36-1.24,.36s-.87-.13-1.24-.36c-.37-.24-.66-.58-.84-.98H6.88c-.19,.42-.5,.77-.89,1.01-.39,.24-.85,.35-1.3,.33-.46-.02-.9-.18-1.26-.46-.37-.28-.64-.66-.79-1.09-1.42-.08-2.2-.5-2.13-1.93l.1-3.11c.87-.56,1.79-1.05,2.75-1.45l1.21,.69c-1.03,.38-2.01,.86-2.96,1.42v2.4c-.04,.71,.14,.87,.96,.87,.09-.54,.36-1.02,.77-1.38,.41-.36,.93-.56,1.47-.57,.59,0,1.15,.23,1.58,.64,.42,.41,.68,.96,.7,1.55h0Zm-1.1,.13c0-.16-.03-.31-.09-.45-.06-.14-.15-.27-.26-.38-.11-.11-.24-.2-.38-.26s-.3-.09-.45-.09-.31,.03-.45,.09c-.14,.06-.27,.15-.38,.26-.11,.11-.2,.24-.26,.38-.06,.14-.09,.3-.09,.45s.03,.31,.09,.45c.06,.14,.15,.27,.26,.38,.11,.11,.24,.2,.38,.26,.14,.06,.3,.09,.45,.09s.31-.03,.45-.09c.14-.06,.27-.15,.38-.26,.11-.11,.2-.24,.26-.38,.06-.14,.09-.3,.09-.45h0Zm14.28,0c0-.31-.12-.62-.35-.84-.22-.22-.52-.35-.84-.35s-.62,.12-.84,.35c-.22,.22-.35,.52-.35,.84s.12,.62,.35,.84c.22,.22,.52,.35,.84,.35s.62-.12,.84-.35c.22-.22,.35-.52,.35-.84Z"/></g></svg>