<?xml version="1.0" encoding="UTF-8"?><svg xmlns="http://www.w3.org/2000/svg" width="24" height="24" viewBox="0 0 24 24"><defs><style>.c{fill:none;}</style></defs><g id="a"><rect class="c" width="24" height="24"/></g><g id="b"><path d="M23.55,11.56c-.3-.64-.89-1.1-1.94-1.34-.91-.22-1.66-.32-2.66-.46-.62-.08-.97-.18-1.45-.51-.72-.45-1.39-.78-2.39-1.15-.97-.38-2.85-.7-4.68-.7-1.96,0-3.76,.32-5.75,1.32-1.34,.67-1.45,.7-4.03,.86L-.03,11.08v1.8c0,1.78,.76,2.29,2.58,2.29h.25c.37,.95,1.3,1.45,2.14,1.45s1.72-.47,2.11-1.37h10.35c.39,.9,1.3,1.37,2.11,1.37s1.72-.47,2.11-1.37h.89c1.13,0,1.51-.35,1.51-1.42,0-.72-.13-1.56-.48-2.26ZM4.95,15.48c-.73,0-1.21-.54-1.21-1.24s.48-1.27,1.21-1.27,1.21,.59,1.21,1.27-.48,1.24-1.21,1.24Zm14.58,0c-.73,0-1.21-.54-1.21-1.24s.48-1.27,1.21-1.27,1.21,.59,1.21,1.27-.48,1.24-1.21,1.24Zm3.41-1.38h-1.11c-.07-1.25-1.11-2.22-2.3-2.22s-2.23,.98-2.3,2.23H7.24c-.07-1.25-1.11-2.23-2.3-2.23s-2.18,.94-2.29,2.15c-1.44-.02-1.58-.24-1.58-.92l.03-1.78s.35-.78,.35-.78c2.17,0,2.6-.32,4.11-1.05,1.37-.67,2.96-1,4.87-1,1.75,0,2.69,.18,3.5,.38,.92,.21,2.1,.78,2.74,1.18,.59,.38,1.08,.64,1.96,.75,1.03,.13,1.91,.27,2.48,.4,1.02,.21,1.29,.43,1.56,1.18,.16,.4,.27,.97,.27,1.37v.32Z"/></g></svg>