<?xml version="1.0" encoding="UTF-8"?><svg xmlns="http://www.w3.org/2000/svg" width="24" height="24" viewBox="0 0 24 24"><defs><style>.c{fill:none;}</style></defs><g id="a"><rect class="c" width="24" height="24"/></g><g id="b"><path d="M1.3,10.52l1.13,.36c-.49,.73-.6,.84-.6,1.36v.79c0,.74,.24,.81,1.08,.81,.07-.59,.37-1.13,.82-1.51,.46-.38,1.04-.57,1.64-.53,.59,.04,1.15,.3,1.56,.74,.4,.44,.63,1.01,.62,1.61h8.89c-.01-.32,.03-.63,.14-.93s.28-.57,.5-.8c.22-.23,.48-.41,.77-.54,.29-.12,.6-.19,.92-.19s.63,.06,.92,.19c.29,.12,.55,.31,.77,.54,.22,.23,.39,.5,.5,.8,.11,.3,.16,.61,.14,.93h1.06v-.57c.02-.47-.08-.95-.27-1.38-.1-.23-.26-.44-.46-.6-.2-.16-.43-.27-.67-.33-1.76-.57-2.61-.38-3.69-.68-.76-.21-.93-.51-2.47-1.13-1.42-.52-2.92-.79-4.43-.79-3.39,0-5.02,.84-7.08,1.36l-1.74-.46v-.46c2.26,0,4.43-1.54,8.82-1.54,1.87-.04,3.72,.33,5.43,1.09,1.28,.57,1.58,.89,2.42,.97,.97,.09,1.93,.25,2.88,.49,.42,.09,.82,.27,1.17,.52,.35,.26,.63,.59,.84,.97,.3,.66,.43,1.39,.38,2.11,0,1.17-.41,1.49-1.25,1.49h-1.2c-.2,.38-.49,.69-.86,.91-.36,.22-.78,.34-1.21,.34s-.84-.12-1.21-.34c-.36-.22-.66-.54-.86-.91H7.27c-.21,.4-.53,.73-.93,.95-.4,.22-.85,.32-1.3,.29-.45-.03-.88-.19-1.25-.47-.36-.27-.63-.64-.79-1.07-1.63,0-2.31-.52-2.31-1.82v-1.21c.05-.5,.26-.98,.6-1.36h0Zm5.13,3.61c0-.32-.13-.63-.36-.86s-.54-.36-.86-.36-.63,.13-.86,.36-.36,.54-.36,.86,.13,.63,.36,.86c.23,.23,.54,.36,.86,.36s.64-.13,.86-.36c.23-.23,.36-.54,.36-.86h0Zm13.57,0c0-.32-.13-.63-.36-.86-.23-.23-.54-.36-.86-.36s-.63,.13-.86,.36c-.23,.23-.36,.54-.36,.86s.13,.63,.36,.86c.23,.23,.54,.36,.86,.36s.63-.13,.86-.36c.23-.23,.36-.54,.36-.86h0Z"/></g></svg>