<?xml version="1.0" encoding="UTF-8"?><svg xmlns="http://www.w3.org/2000/svg" width="24" height="24" viewBox="0 0 24 24"><defs><style>.c{fill:none;}</style></defs><g id="a"><rect class="c" width="24" height="24"/></g><g id="b"><path d="M3.61,21.03l-1.19,.89-.72-.89,1.19-.89c1.09-.92,2.47-1.43,3.89-1.43,2.03,0,3.92,.95,6.9,1l7.1-4.86c.29-.2,.4-.37,.4-.6,0-.09-.01-.17-.05-.25-.03-.08-.08-.15-.14-.21-.06-.06-.14-.11-.22-.14-.08-.03-.17-.05-.25-.05-.2,0-.39,.07-.55,.2l-3.18,2.12c-.13,.34-.37,.64-.68,.84-.31,.2-.67,.31-1.04,.3h-4.17v-1.14h4.17c.49,0,.66-.2,.66-.63s-.17-.63-.66-.63H7.45c-1.95,0-2.75,.26-4.1,1.31l-.94,.74-.68-.91,.94-.74c1.57-1.23,2.72-1.54,4.81-1.54h7.6c.35,0,.7,.09,1,.28,.3,.19,.54,.46,.69,.78l2.72-1.79c.27-.21,.61-.33,.95-.33,.25-.01,.49,.03,.72,.12,.23,.09,.44,.23,.61,.4,.18,.17,.31,.38,.4,.61,.09,.23,.13,.48,.12,.72,0,.6-.32,1.06-1.14,1.63l-7.15,4.95c-3.09,0-5.07-1.03-7.15-1.03-1.19-.04-2.35,.38-3.24,1.17h0Zm.46-17.11l.52-.88c.88-1.52,3.2-1.09,5.75,.37,2.38,1.37,3.37,2.83,2.52,4.32l3.55,2.03-.6,1.03-3.52-2.06c-.97,1.57-2.66,1.34-5.01,0-2.55-1.46-4.12-3.18-3.21-4.81Zm1.49-.29l-.49,.84c-.51,.86,.83,2.12,2.78,3.27,1.75,1,2.89,1.29,3.43,.31l.49-.83c.54-.91-.23-1.83-1.98-2.83-2-1.11-3.74-1.59-4.25-.76h.02Zm1.08,2.12c-.18-.11-.32-.29-.39-.5-.06-.21-.05-.43,.05-.63,.12-.18,.31-.3,.52-.35,.21-.05,.44-.01,.62,.1,.1,.05,.18,.11,.25,.2,.07,.08,.11,.18,.14,.29,.02,.1,.03,.21,0,.32-.02,.1-.07,.2-.13,.29-.04,.1-.11,.18-.19,.25s-.17,.12-.28,.14c-.1,.03-.21,.03-.31,.01-.1-.02-.2-.06-.29-.12h0Z"/></g></svg>