<?xml version="1.0" encoding="UTF-8"?><svg xmlns="http://www.w3.org/2000/svg" width="24" height="24" viewBox="0 0 24 24"><defs><style>.c{fill:none;}</style></defs><g id="a"><rect class="c" width="24" height="24"/></g><g id="b"><path d="M5.08,14.05v.27c0,.33,.13,.64,.36,.87,.23,.23,.55,.36,.87,.36s.64-.13,.87-.36c.23-.23,.36-.55,.36-.87v-.14h8.85v.14c0,.33,.13,.64,.36,.87,.23,.23,.55,.36,.87,.36s.64-.13,.87-.36c.23-.23,.36-.55,.36-.87v-.14h1.35c.82,0,.96-.17,.96-.72,0-.66-.17-1.32-.49-1.89-.19-.28-.38-.41-1.02-.57l-2.29-.49c-.74-.17-1.72-1.32-3.44-1.98l.49-1.02c1.54,.57,2.75,1.79,3.17,1.87l2.29,.52c.35,.04,.68,.15,.98,.33,.3,.18,.55,.43,.74,.72,.43,.81,.66,1.7,.69,2.61,0,1.18-.8,1.72-2.03,1.72h-.47c-.18,.43-.48,.79-.87,1.04s-.84,.39-1.3,.39-.91-.14-1.3-.39c-.39-.26-.69-.62-.87-1.04h-6.97c-.18,.44-.5,.81-.89,1.07s-.87,.39-1.34,.38c-.48-.01-.94-.17-1.32-.44-.39-.28-.68-.66-.84-1.11-.63,0-1.24-.25-1.69-.7-.45-.45-.7-1.06-.7-1.69v-1.56c0-.74,.3-1.15,1.9-2.75l.88,.66c-1.37,1.4-1.65,1.65-1.65,2.29v1.35c0,.77,.57,1.27,1.51,1.27h.74Zm4.7-1h-2.26l-1.35-4.67c-.04-.17-.07-.35-.08-.52-.01-.07,0-.15,.02-.22,.02-.07,.06-.14,.11-.19,.05-.05,.11-.1,.18-.13,.07-.03,.14-.04,.22-.04,.33,0,.47,.14,.61,.57l1.15,4.04h1.62c.49,0,.72,.14,.72,.52s-.24,.63-.93,.63Zm4.58,0h-2.26l-1.33-4.67c-.05-.17-.07-.35-.08-.52-.01-.07,0-.15,.01-.22,.02-.07,.06-.14,.11-.19,.05-.05,.11-.1,.18-.13,.07-.03,.14-.04,.22-.03,.33,0,.46,.14,.57,.57l1.15,4.04h1.62c.5,0,.72,.14,.72,.52s-.21,.63-.87,.63h-.03Z"/></g></svg>