<?xml version="1.0" encoding="UTF-8"?><svg xmlns="http://www.w3.org/2000/svg" width="24" height="24" viewBox="0 0 24 24"><defs><style>.c{fill:none;}</style></defs><g id="a"><rect class="c" width="24" height="24"/></g><g id="b"><path d="M11.47,9.16h-3.78c-1.29,0-1.82,1.15-2.48,3.53h13.59c-.14-.47-.25-.88-.36-1.24h3.36v.96l-1.44,.64c.43,.33,.78,.75,1.02,1.23,.24,.48,.37,1.01,.38,1.55v6.15c0,.12-.02,.23-.06,.34-.04,.11-.11,.21-.19,.29-.08,.08-.18,.15-.29,.2-.11,.05-.22,.07-.34,.07h-2.76c-.24,0-.48-.09-.65-.26-.17-.17-.28-.4-.28-.64v-1.35H6.86v1.35c0,.24-.11,.47-.28,.64-.17,.17-.41,.26-.65,.26H3.14c-.12,0-.23-.03-.34-.07-.11-.05-.21-.11-.29-.2-.08-.08-.15-.18-.19-.29-.04-.11-.06-.23-.06-.34v-6.15c0-.54,.14-1.07,.38-1.55,.24-.48,.59-.9,1.02-1.23l-1.46-.64v-.96h2.18c.78-2.07,1.49-3.39,3.14-3.39h3.94v1.1Zm7.92,4.59H4.63c-.33,.25-.61,.55-.83,.91-.21,.35-.35,.75-.41,1.16v5.96h2.3v-2.26h12.61v2.26h2.3v-5.95c-.06-.41-.19-.8-.4-1.15-.21-.36-.49-.66-.82-.91h0Zm-14.89,2.29c0-.23,.07-.45,.19-.64,.13-.19,.31-.34,.52-.42,.21-.09,.44-.11,.66-.07,.22,.04,.43,.15,.59,.31,.16,.16,.27,.36,.31,.59,.04,.22,.02,.45-.07,.66-.09,.21-.23,.39-.42,.51-.19,.13-.41,.19-.64,.19-.3,0-.6-.12-.81-.34-.22-.21-.34-.51-.34-.81ZM13.81,1.13h6.75c.16-.02,.33,0,.49,.05,.16,.05,.3,.14,.42,.26,.12,.12,.21,.26,.26,.42s.07,.32,.05,.49v6.66c.01,.18-.02,.36-.08,.53-.07,.17-.17,.32-.3,.45-.13,.13-.29,.22-.46,.28-.17,.06-.36,.08-.54,.06h-2.53c-.17,.41-.39,.8-.67,1.15h-1.38c-.26-.36-.48-.74-.66-1.15h-1.15c-.18,.02-.36,0-.54-.06-.17-.06-.33-.15-.46-.28-.13-.13-.23-.28-.3-.45-.07-.17-.09-.35-.08-.53V2.3c-.01-.16,.01-.32,.07-.46,.06-.15,.14-.28,.25-.39,.11-.11,.24-.2,.39-.26,.15-.06,.31-.08,.46-.07h0Zm3.36,1.07h-2.98c-.06,0-.13,0-.19,.02-.06,.02-.12,.06-.16,.1-.05,.05-.08,.1-.11,.16-.02,.06-.04,.12-.03,.19v6.15c0,.3,.16,.47,.49,.47h1.68c.15,.47,.36,.91,.63,1.32,.26-.42,.48-.86,.67-1.32h3.03c.07,0,.13,0,.19-.01,.06-.02,.12-.05,.17-.1,.05-.04,.08-.1,.11-.16,.02-.06,.03-.13,.02-.19V2.66c0-.07,0-.13-.03-.19-.02-.06-.06-.12-.11-.16-.05-.05-.1-.08-.17-.1-.06-.02-.13-.03-.19-.02h-1.91v1.24h-1.15l.02-1.24Zm-1.15,2.4h2.2v2.37h1.24v1.04h-3.44v-1.07h1.15v-1.3h-1.15v-1.04Zm1.15,11.48c0-.3,.12-.6,.34-.81,.22-.22,.51-.34,.81-.34,.23,0,.45,.07,.64,.19,.19,.13,.34,.31,.42,.51,.09,.21,.11,.44,.07,.66-.04,.22-.15,.43-.31,.59-.16,.16-.37,.27-.59,.31-.22,.04-.45,.02-.66-.07-.21-.09-.39-.23-.52-.42-.13-.19-.19-.41-.19-.64Z"/></g></svg>