<svg id="Icones" xmlns="http://www.w3.org/2000/svg" width="32" height="32" viewBox="0 0 32 32"><defs><style>.cls-1{fill:none;}</style></defs><rect class="cls-1" width="32" height="32"/><path d="M6.68,25.07,5.36,26l-.72-.79,1.32-1a6.37,6.37,0,0,1,4.26-1.57c2.16,0,4.2,1,7.37,1.13l7.9-5.42c.32-.22.44-.38.44-.6a.73.73,0,0,0-.72-.75,1,1,0,0,0-.6.22l-3.54,2.38a1.84,1.84,0,0,1-1.82,1H14.7V19.64h4.55c.53,0,.85-.25.85-.72s-.32-.72-.85-.72H10.88a6,6,0,0,0-4.49,1.44l-1,.82-.72-.79,1-.81a7.23,7.23,0,0,1,5.24-1.73h8.34a1.81,1.81,0,0,1,1.85,1.23l3-2A1.76,1.76,0,0,1,25.21,16,1.83,1.83,0,0,1,27,17.82c0,.63-.25,1-1.16,1.6l-7.78,5.49c-3.39,0-5.55-1.13-7.87-1.13A4.94,4.94,0,0,0,6.68,25.07ZM5.74,11.83c0-1.53.09-1.75,1.63-3.57s2.32-2.32,4-2.32h4A6.4,6.4,0,0,1,19.5,7.22L21.89,9l1.53.38a2.76,2.76,0,0,1,2.45,2.94,3.39,3.39,0,0,1-.63,2l-.88-.62a2.18,2.18,0,0,0,.41-1.42c0-1.09-.56-1.69-2-2l-1.54-.38L18.94,8.16A5.4,5.4,0,0,0,15.33,7h-4c-1.29,0-1.76.32-3.2,2-1.22,1.51-1.32,1.66-1.32,3v.66a1.28,1.28,0,0,0,.38,1l-.75.69a2.1,2.1,0,0,1-.72-1.72Zm13.45,1.92a2.1,2.1,0,0,1,2.23-2.2,2.08,2.08,0,0,1,2.22,2.2,2.1,2.1,0,0,1-2.22,2.19,2.13,2.13,0,0,1-2-1.13H12.2a2.14,2.14,0,0,1-2,1.13A2.12,2.12,0,0,1,8,13.75a2.1,2.1,0,0,1,2.23-2.2,2.09,2.09,0,0,1,2.23,2.2Zm-9-1.16A1.09,1.09,0,0,0,9,13.75a1.11,1.11,0,0,0,1.19,1.16,1.1,1.1,0,0,0,1.19-1.16A1.08,1.08,0,0,0,10.22,12.59Zm11.2,0a1.09,1.09,0,0,0-1.2,1.16,1.11,1.11,0,0,0,1.2,1.16,1.1,1.1,0,0,0,1.19-1.16A1.08,1.08,0,0,0,21.42,12.59Z"/></svg>