<?xml version="1.0" encoding="UTF-8"?><svg xmlns="http://www.w3.org/2000/svg" width="24" height="24" viewBox="0 0 24 24"><defs><style>.c{fill:none;}</style></defs><g id="a"><rect class="c" width="24" height="24"/></g><g id="b"><path d="M3.77,20.16l-1.17,.87-.7-.87,1.17-.87c1.06-.91,2.42-1.4,3.81-1.4,1.99,0,3.84,.93,6.75,.98l6.95-4.76c.28-.19,.39-.36,.39-.58,0-.08-.01-.17-.05-.25-.03-.08-.08-.15-.14-.21-.06-.06-.13-.11-.21-.14-.08-.03-.16-.05-.25-.05-.2,0-.38,.07-.54,.19l-3.09,2.1c-.13,.33-.37,.61-.67,.81-.3,.2-.65,.29-1.01,.28h-4.09v-1.12h4.09c.48,0,.65-.2,.65-.62s-.17-.61-.65-.61H7.53c-1.91,0-2.69,.25-4.01,1.28l-.92,.73-.67-.89,.92-.73c1.54-1.21,2.66-1.51,4.71-1.51h7.45c.35,0,.69,.09,.98,.27,.29,.18,.53,.45,.68,.76l2.66-1.75c.27-.21,.61-.32,.95-.31,.24,0,.48,.03,.71,.12,.23,.09,.43,.22,.6,.39,.17,.17,.3,.38,.39,.6,.09,.23,.13,.47,.12,.71,0,.58-.31,1.04-1.12,1.6l-7.01,4.85c-3.03,0-4.96-1.01-7.01-1.01-1.17-.04-2.32,.36-3.2,1.14h0Zm1.17-10.85c.12-.37,.35-.7,.66-.93,.32-.23,.7-.36,1.09-.36s.77,.13,1.09,.36c.32,.23,.55,.56,.66,.93h5.84c.12-.37,.35-.7,.66-.93,.32-.23,.7-.36,1.09-.36s.77,.13,1.09,.36c.32,.23,.55,.56,.66,.93h.45c.61,0,.75-.11,.75-.58-.04-.5-.18-.99-.42-1.43-.1-.15-.22-.29-.37-.39-.15-.1-.32-.17-.5-.2l-1.96-.51c-.73-.19-1.68-1.09-2.88-1.57-.93-.36-1.75-.5-3.67-.5-1.12,.02-2.23,.1-3.33,.25l-1.07-.64v-.28c1.52-.26,3.05-.42,4.59-.48,1.35-.06,2.7,.13,3.98,.58,1.32,.5,2.1,1.37,2.66,1.54l1.87,.58c.66,.13,1.25,.5,1.65,1.04,.35,.69,.55,1.44,.58,2.21,0,1.01-.87,1.54-2.02,1.54h-.33c-.1,.39-.33,.73-.64,.98-.32,.24-.71,.38-1.11,.38s-.79-.13-1.11-.38c-.32-.24-.54-.59-.64-.98h-5.84c-.09,.39-.32,.74-.64,.99-.32,.25-.71,.37-1.12,.36-.4-.01-.79-.15-1.1-.4-.31-.25-.54-.59-.65-.98h-.05c-.29,.02-.58-.02-.85-.11-.27-.1-.52-.25-.73-.45-.21-.2-.38-.44-.49-.7-.11-.27-.17-.55-.17-.84v-1.4c0-.58,.17-1.12,1.31-2.27l.98,.54c-1,1.09-1.2,1.31-1.2,1.87v1.17c0,.7,.34,1.09,1.17,1.09l.06-.04Zm2.58,.58c0-.11-.02-.22-.06-.32-.04-.1-.1-.2-.18-.27-.08-.08-.17-.14-.27-.18-.1-.04-.21-.06-.32-.06-.22,0-.42,.1-.57,.26-.15,.16-.23,.37-.22,.58,0,.11,.01,.21,.05,.32,.04,.1,.09,.19,.17,.27,.07,.08,.16,.14,.26,.18,.1,.04,.2,.07,.31,.07,.11,0,.22-.01,.33-.05,.1-.04,.2-.1,.28-.18,.08-.08,.14-.17,.18-.28,.04-.1,.06-.22,.06-.33h-.01Zm9.34,0c0-.11-.02-.22-.06-.32-.04-.1-.1-.2-.18-.28-.08-.08-.17-.14-.28-.18-.1-.04-.21-.06-.32-.06-.11,0-.21,.03-.31,.07-.1,.04-.18,.11-.26,.19-.07,.08-.13,.17-.17,.27-.04,.1-.05,.21-.05,.31,0,.11,0,.21,.05,.32,.04,.1,.09,.19,.17,.27,.07,.08,.16,.14,.26,.18,.1,.04,.2,.07,.31,.07,.11,0,.22-.01,.33-.05,.1-.04,.2-.1,.28-.18,.08-.08,.14-.17,.18-.28,.04-.1,.06-.21,.06-.33h0Z"/></g></svg>