<svg id="Icones" xmlns="http://www.w3.org/2000/svg" width="32" height="32" viewBox="0 0 32 32"><defs><style>.cls-1{fill:none;}</style></defs><rect class="cls-1" width="32" height="32"/><path d="M8.53,5.75H6.33c-.59,0-.78.12-1.32.72a1.4,1.4,0,0,0-.47,1.07v.72a1.39,1.39,0,0,0,.25.84L4,9.51a1.94,1.94,0,0,1-.38-1.25V7.54a2.22,2.22,0,0,1,.72-1.73,2.22,2.22,0,0,1,2-1H8.53a4.19,4.19,0,0,1,2.69.88l.6.4,1.07.22a2,2,0,0,1,1.75,2.14,1.91,1.91,0,0,1-.28,1.06l-.82-.41a1.13,1.13,0,0,0,.13-.65A1.14,1.14,0,0,0,12.6,7.19L11.44,7l-1.28-.81A2.39,2.39,0,0,0,8.53,5.75Zm0,7.9H6.33c-.59,0-.78.13-1.32.72a1.4,1.4,0,0,0-.47,1.07v.72a1.4,1.4,0,0,0,.25.85L4,17.42a2,2,0,0,1-.38-1.26v-.72a2.22,2.22,0,0,1,.72-1.73,2.22,2.22,0,0,1,2-1H8.53a4.19,4.19,0,0,1,2.69.88l.6.41,1.07.22a2,2,0,0,1,1.75,2.13,1.94,1.94,0,0,1-.28,1.07L13.54,17a1.19,1.19,0,0,0,.13-.66,1.14,1.14,0,0,0-1.07-1.26l-1.16-.22-1.28-.81A2.39,2.39,0,0,0,8.53,13.65Zm0,7.84H6.33c-.59,0-.78.13-1.32.72a1.4,1.4,0,0,0-.47,1.07V24a1.4,1.4,0,0,0,.25.85L4,25.26A2,2,0,0,1,3.57,24v-.72a2.22,2.22,0,0,1,.72-1.73,2.22,2.22,0,0,1,2-1H8.53a4.19,4.19,0,0,1,2.69.88l.6.41,1.07.22a2,2,0,0,1,1.75,2.13,1.94,1.94,0,0,1-.28,1.07l-.82-.41a1.19,1.19,0,0,0,.13-.66,1.14,1.14,0,0,0-1.07-1.26l-1.16-.22-1.28-.81A2.39,2.39,0,0,0,8.53,21.49Zm3.35-10.38a1.23,1.23,0,0,1-1.28-.88H7.74a1.23,1.23,0,0,1-1.28.88A1.26,1.26,0,0,1,5.11,9.79,1.25,1.25,0,0,1,6.46,8.48a1.23,1.23,0,0,1,1.25.81h2.92a1.21,1.21,0,0,1,1.25-.81,1.25,1.25,0,0,1,1.35,1.31A1.26,1.26,0,0,1,11.88,11.11Zm0,7.9a1.23,1.23,0,0,1-1.28-.87H7.74A1.23,1.23,0,0,1,6.46,19a1.32,1.32,0,1,1,0-2.63,1.22,1.22,0,0,1,1.25.82h2.92a1.21,1.21,0,0,1,1.25-.82,1.32,1.32,0,1,1,0,2.63Zm0,7.84A1.23,1.23,0,0,1,10.6,26H7.74a1.23,1.23,0,0,1-1.28.87,1.32,1.32,0,1,1,0-2.63A1.22,1.22,0,0,1,7.71,25h2.92a1.21,1.21,0,0,1,1.25-.82,1.32,1.32,0,1,1,0,2.63ZM6.46,9.29a.51.51,0,0,0,0,1,.51.51,0,0,0,0-1Zm0,7.91a.5.5,0,0,0,0,1,.46.46,0,0,0,.5-.5A.46.46,0,0,0,6.46,17.2Zm0,7.84a.5.5,0,0,0,0,1,.46.46,0,0,0,.5-.5A.46.46,0,0,0,6.46,25ZM11.88,9.29a.51.51,0,1,0,.5.5A.46.46,0,0,0,11.88,9.29Zm0,7.91a.46.46,0,0,0-.5.5.46.46,0,0,0,.5.5.5.5,0,0,0,0-1Zm0,7.84a.46.46,0,0,0-.5.5.46.46,0,0,0,.5.5.5.5,0,1,0,0-1ZM22,5.75h-2.2c-.59,0-.78.12-1.31.72A1.36,1.36,0,0,0,18,7.54v.72a1.32,1.32,0,0,0,.25.84l-.85.41A1.93,1.93,0,0,1,17,8.26V7.54a2.19,2.19,0,0,1,.72-1.73,2.2,2.2,0,0,1,2-1H22a4.22,4.22,0,0,1,2.7.88l.59.4,1.07.22A2,2,0,0,1,28.1,8.45a1.91,1.91,0,0,1-.29,1.06L27,9.1a1.23,1.23,0,0,0,.12-.65,1.14,1.14,0,0,0-1.06-1.26L24.9,7l-1.29-.81A2.36,2.36,0,0,0,22,5.75Zm0,7.9h-2.2c-.59,0-.78.13-1.31.72A1.36,1.36,0,0,0,18,15.44v.72a1.33,1.33,0,0,0,.25.85l-.85.41A2,2,0,0,1,17,16.16v-.72a2.19,2.19,0,0,1,.72-1.73,2.2,2.2,0,0,1,2-1H22a4.22,4.22,0,0,1,2.7.88l.59.41,1.07.22a2,2,0,0,1,1.76,2.13,1.94,1.94,0,0,1-.29,1.07L27,17a1.29,1.29,0,0,0,.12-.66,1.14,1.14,0,0,0-1.06-1.26l-1.16-.22-1.29-.81A2.36,2.36,0,0,0,22,13.65Zm0,7.84h-2.2c-.59,0-.78.13-1.31.72A1.36,1.36,0,0,0,18,23.28V24a1.33,1.33,0,0,0,.25.85l-.85.41A2,2,0,0,1,17,24v-.72a2.19,2.19,0,0,1,.72-1.73,2.2,2.2,0,0,1,2-1H22a4.22,4.22,0,0,1,2.7.88l.59.41,1.07.22a2.16,2.16,0,0,1,1.47,3.2L27,24.85a1.29,1.29,0,0,0,.12-.66,1.14,1.14,0,0,0-1.06-1.26l-1.16-.22-1.29-.81A2.36,2.36,0,0,0,22,21.49Zm3.36-10.38a1.25,1.25,0,0,1-1.29-.88H21.2a1.36,1.36,0,0,1-2.64-.44,1.25,1.25,0,0,1,1.35-1.31,1.21,1.21,0,0,1,1.25.81h2.92a1.23,1.23,0,0,1,1.26-.81,1.25,1.25,0,0,1,1.34,1.31A1.25,1.25,0,0,1,25.34,11.11Zm0,7.9a1.25,1.25,0,0,1-1.29-.87H21.2a1.35,1.35,0,1,1-1.29-1.76,1.21,1.21,0,0,1,1.25.82h2.92a1.23,1.23,0,0,1,1.26-.82,1.32,1.32,0,1,1,0,2.63Zm0,7.84A1.25,1.25,0,0,1,24.05,26H21.2a1.35,1.35,0,1,1-1.29-1.76,1.21,1.21,0,0,1,1.25.82h2.92a1.23,1.23,0,0,1,1.26-.82,1.32,1.32,0,1,1,0,2.63ZM19.91,9.29a.51.51,0,1,0,.5.5A.46.46,0,0,0,19.91,9.29Zm0,7.91a.46.46,0,0,0-.5.5.5.5,0,0,0,1,0A.46.46,0,0,0,19.91,17.2Zm0,7.84a.46.46,0,0,0-.5.5.5.5,0,0,0,1,0A.46.46,0,0,0,19.91,25ZM25.34,9.29a.51.51,0,1,0,.5.5A.47.47,0,0,0,25.34,9.29Zm0,7.91a.46.46,0,0,0-.51.5.51.51,0,0,0,1,0A.46.46,0,0,0,25.34,17.2Zm0,7.84a.46.46,0,0,0-.51.5.51.51,0,0,0,1,0A.46.46,0,0,0,25.34,25Z"/></svg>