<svg id="Icones" xmlns="http://www.w3.org/2000/svg" width="32" height="32" viewBox="0 0 32 32"><defs><style>.cls-1{fill:none;}</style></defs><rect class="cls-1" width="32" height="32"/><path d="M5.93,21.52c0-1.54.1-1.76,1.63-3.58s2.32-2.32,4-2.32h4a6.31,6.31,0,0,1,4.17,1.29l2.38,1.79,1.54.37A2.77,2.77,0,0,1,26.07,22a3.41,3.41,0,0,1-.63,2l-.88-.63A2.21,2.21,0,0,0,25,22c0-1.1-.57-1.69-2-2l-1.53-.37-2.32-1.76a5.37,5.37,0,0,0-3.61-1.16h-4c-1.29,0-1.76.31-3.2,2C7.16,20.17,7,20.36,7,21.68v.65a1.29,1.29,0,0,0,.38,1l-.75.69a2.09,2.09,0,0,1-.73-1.73Zm3.89-7.9C8,13.62,7,12.39,7,10S8,6.37,9.82,6.37,12.64,7.63,12.64,10,11.67,13.62,9.82,13.62Zm0-6.28c-1.13,0-1.69.88-1.69,2.67s.56,2.63,1.69,2.63,1.73-.84,1.73-2.63S11,7.34,9.82,7.34Zm9.57,16.09a2.1,2.1,0,0,1,2.22-2.19,2.2,2.2,0,1,1,0,4.39,2.11,2.11,0,0,1-2-1.13H12.39a2.08,2.08,0,0,1-2,1.13,2.2,2.2,0,1,1,0-4.39,2.08,2.08,0,0,1,2.22,2.19Zm-9-1.16a1.1,1.1,0,0,0-1.19,1.16,1.11,1.11,0,0,0,1.19,1.16,1.1,1.1,0,0,0,1.19-1.16A1.08,1.08,0,0,0,10.42,22.27ZM14.87,6.59V10L17.6,6.59h1.22L16.69,9.35c1.1,1.54,1.94,2.82,2.67,4H18.13a34.45,34.45,0,0,0-2.19-3.23l-1.07,1.31v1.92h-1.1V6.59Zm6.74,15.68a1.1,1.1,0,0,0-1.19,1.16,1.11,1.11,0,0,0,1.19,1.16,1.1,1.1,0,0,0,1.2-1.16A1.08,1.08,0,0,0,21.61,22.27Z"/></svg>