<?xml version="1.0" encoding="UTF-8"?><svg xmlns="http://www.w3.org/2000/svg" width="24" height="24" viewBox="0 0 24 24"><defs><style>.c{fill:none;}</style></defs><g id="a"><rect class="c" width="24" height="24"/></g><g id="b"><path d="M7.97,18.13h7.7c.03-.6,.29-1.17,.72-1.59,.43-.42,1.01-.66,1.61-.67,.6,0,1.19,.24,1.62,.66,.43,.42,.69,.99,.71,1.6h.95v-.19c0-.47-.07-.94-.21-1.38l-.13-.38c-.22-.57-.57-.87-1.49-1.08l-1.36-.3c-.41-.09-.81-.25-1.17-.46-.87-.6-1.82-1.07-2.82-1.41-1.09-.36-3.28-.44-5.2-.44-1.17,0-2.5,.08-3.75,.16l-1.36-.73v-.33c1.09-.08,3.83-.24,5.4-.24,1.76,0,4.2,.11,5.4,.51,.99,.38,1.93,.85,2.82,1.41,.26,.15,.53,.27,.81,.35l1.36,.33c.89,.21,1.6,.46,1.98,.95,.55,.77,.88,1.68,.93,2.63,0,1.33-.38,1.74-1.38,1.74h-.95c-.18,.41-.49,.76-.87,1.01-.38,.25-.82,.38-1.28,.38s-.9-.13-1.28-.38c-.38-.25-.68-.6-.87-1.01H7.78c-.19,.41-.49,.76-.87,1.01-.38,.24-.82,.38-1.28,.38-.52,0-1.03-.17-1.44-.49-.41-.32-.7-.77-.82-1.27-1.25-.06-1.85-.46-1.85-1.96v-2.33c.54-.72,1.14-1.39,1.79-2.01l1.03,.57c-.61,.56-1.17,1.17-1.69,1.81v2.03c0,.57,.22,.71,.71,.71,.12-.51,.41-.97,.82-1.3,.41-.33,.92-.52,1.44-.54,.61,0,1.19,.23,1.63,.65,.44,.42,.7,1,.72,1.6h0Zm-1.13,.14c0-.32-.13-.63-.36-.86-.23-.23-.54-.36-.86-.36s-.63,.13-.86,.36c-.23,.23-.36,.54-.36,.86s.13,.63,.36,.86c.23,.23,.54,.36,.86,.36s.63-.13,.86-.36c.23-.23,.36-.54,.36-.86h0ZM14.53,4.9l-.57,.89c-1.08-.91-2.47-1.38-3.88-1.32-1.43-.07-2.82,.4-3.91,1.33l-.56-.89c1.25-1.06,2.84-1.62,4.48-1.57,1.62-.05,3.21,.51,4.45,1.55h0Zm-1.17,1.98l-.59,.92c-.73-.68-1.69-1.05-2.69-1.05s-1.96,.38-2.69,1.05l-.57-.92c.9-.8,2.07-1.25,3.28-1.25s2.38,.44,3.28,1.25h-.03Zm-1.13,1.96l-.56,.89c-.2-.21-.45-.39-.72-.5-.27-.12-.56-.18-.86-.18s-.59,.06-.86,.18c-.27,.12-.51,.29-.72,.5l-.57-.89c.28-.29,.61-.53,.98-.68,.37-.16,.77-.24,1.17-.24s.8,.08,1.17,.24c.37,.16,.7,.39,.98,.68h-.01Zm6.99,9.44c0-.32-.13-.63-.36-.86-.23-.23-.54-.36-.86-.36s-.63,.13-.86,.36c-.23,.23-.36,.54-.36,.86s.13,.63,.36,.86c.23,.23,.54,.36,.86,.36s.63-.13,.86-.36c.23-.23,.36-.54,.36-.86h0Z"/></g></svg>