<svg id="Icones" xmlns="http://www.w3.org/2000/svg" width="32" height="32" viewBox="0 0 32 32"><defs><style>.cls-1{fill:none;}</style></defs><rect class="cls-1" width="32" height="32"/><path d="M6.68,25.07,5.36,26l-.72-.79,1.32-1a6.37,6.37,0,0,1,4.26-1.57c2.16,0,4.2,1,7.37,1.13l7.9-5.42c.32-.22.44-.38.44-.6a.73.73,0,0,0-.72-.75,1,1,0,0,0-.6.22l-3.54,2.38a1.84,1.84,0,0,1-1.82,1H14.7V19.64h4.55c.53,0,.85-.25.85-.72s-.32-.72-.85-.72H10.88a5.92,5.92,0,0,0-4.49,1.44l-1,.82-.72-.79,1-.81a7.42,7.42,0,0,1,5.24-1.73h8.34a1.81,1.81,0,0,1,1.85,1.23l3-2A1.76,1.76,0,0,1,25.21,16,1.83,1.83,0,0,1,27,17.82c0,.63-.25,1-1.16,1.6l-7.78,5.49c-3.39,0-5.55-1.13-7.87-1.13A4.94,4.94,0,0,0,6.68,25.07ZM11.85,5.94a1.66,1.66,0,0,1,.57.06l.12-.13a1.93,1.93,0,0,1,1.32-.65c.84,0,1.88.69,3.64,2.44,1.44,1.44,2,2.32,2,3.08a2,2,0,0,1-.72,1.41L22,15.31l-.72.73-3.17-3.17a2,2,0,0,1-1.38.69c-.78,0-1.72-.6-3.1-2l-.44-.44a3.11,3.11,0,0,1-1.29.32,2.76,2.76,0,0,1,0-5.52Zm.53,4.39a5.11,5.11,0,0,1-1.09-1.82.66.66,0,0,1,.59-.38.68.68,0,0,1,.5.22,7.75,7.75,0,0,0,1.95,2.48c1.1,1.1,1.79,1.57,2.29,1.57a.93.93,0,0,0,.66-.32l.72-.72a1,1,0,0,0,.34-.69c0-.47-.44-1.1-1.6-2.26C15.21,6.88,14.48,6.34,14,6.34a.8.8,0,0,0-.5.19,2.3,2.3,0,0,1,.85,1,.8.8,0,0,1,.62.75.92.92,0,0,1-.81.75.87.87,0,0,1-.79-.78.22.22,0,0,1,0-.16A1.44,1.44,0,0,0,11.85,7,1.61,1.61,0,0,0,10.22,8.7a1.63,1.63,0,0,0,2.16,1.63Z"/></svg>