<svg id="Icones" xmlns="http://www.w3.org/2000/svg" width="32" height="32" viewBox="0 0 32 32"><defs><style>.cls-1{fill:none;}</style></defs><rect class="cls-1" width="32" height="32"/><path d="M12.45,10.42v1.07H6.55c-1.25,0-1.54.25-1.66,1.44-.16,1.35-.28,4.17-.28,6.21,0,.53.15.85.53,1v1.1a1.94,1.94,0,0,1-1.63-2.1c0-2.41.09-4.83.25-6.21.19-2,.78-2.51,3-2.51Zm-2,10.07H21.16v0a2.09,2.09,0,0,1,2.23-2.2,2.2,2.2,0,1,1,0,4.39,2.13,2.13,0,0,1-2-1.09H10.22a2.16,2.16,0,0,1-2,1.09,2.2,2.2,0,1,1,0-4.39,2.09,2.09,0,0,1,2.23,2.2ZM8.24,19.3a1.1,1.1,0,0,0-1.19,1.16,1.11,1.11,0,0,0,1.19,1.16,1.1,1.1,0,0,0,1.2-1.16A1.08,1.08,0,0,0,8.24,19.3Zm6.46-7.81v7.87H13.61V10.42h1.56c2.67,0,3.61.38,5.15,2.07L23,15.44l2.61.47a2.32,2.32,0,0,1,2.1,1.54,6.8,6.8,0,0,1,.44,2.1c0,1-.57,1.53-1.66,1.69v-1.1c.43-.09.59-.25.59-.56A4.22,4.22,0,0,0,26.78,18a1.37,1.37,0,0,0-1.29-1.1l-3-.53-3-3.13c-1.47-1.57-2-1.79-4.36-1.79Zm8.69,10.13a1.11,1.11,0,0,0,1.19-1.16,1.1,1.1,0,0,0-1.19-1.16,1.08,1.08,0,0,0-1.19,1.16A1.1,1.1,0,0,0,23.39,21.62Z"/></svg>