<svg id="Icones" xmlns="http://www.w3.org/2000/svg" width="32" height="32" viewBox="0 0 32 32"><defs><style>.cls-1{fill:none;}</style></defs><rect class="cls-1" width="32" height="32"/><path d="M17.56,23.75l.53,1a10.57,10.57,0,0,1-2.26.22c-5.48,0-9-3.51-9-9s3.52-9,9-9a11.25,11.25,0,0,1,2.26.22l-.53,1a9,9,0,0,0-1.73-.13c-4.89,0-7.9,3-7.9,7.9s3,7.91,7.9,7.91A9.84,9.84,0,0,0,17.56,23.75Zm1.66.69L14.71,16l4.51-8.46c3.61,1.22,5.61,4.26,5.61,8.46S22.83,23.22,19.22,24.44Zm.53-1.38c2.58-1.22,4-3.73,4-7.09s-1.41-5.86-4-7.08L15.93,16Z"/></svg>