<?xml version="1.0" encoding="UTF-8"?><svg xmlns="http://www.w3.org/2000/svg" width="24" height="24" viewBox="0 0 24 24"><defs><style>.c{fill:none;}</style></defs><g id="a"><rect class="c" width="24" height="24"/></g><g id="b"><path d="M19.05,21.51c-1.37,0-2.34-1-2.34-2.98v-5.54c0-.74-.29-1.03-1.03-1.03h-2.55v4.8H3.66v-3.57H1.28v-1.14H3.66v-2.51H1.28v-1.12H3.66v-2.74c0-1.37,.65-2.02,2.03-2.02h5.43c1.37,0,2.02,.65,2.02,2.02v5.14h2.72c1.37,0,2.02,.66,2.02,2.03v5.71c0,1.19,.4,1.79,1.23,1.79s1.28-.73,1.28-2.18c0-2.11-1.19-4.25-1.19-8.11v-.51c-1.65-.23-2.38-1.43-2.38-3.02v-2.29h1.19v-1.74h1.13v1.74h1.25v-1.74h1.14v1.74h1.19v2.28c0,1.51-.8,2.74-2.34,2.97v.54c0,3.71,1.19,5.8,1.19,8.11-.06,2.11-.95,3.37-2.52,3.37ZM10.94,4.79H5.85c-.74,0-1.02,.31-1.02,1.05V15.63h7.14V5.86c0-.74-.29-1.07-1.03-1.07Zm-2.66,8.44h-.68l.68-2.38h-1.65l1.08-3.6h1.78l-1.06,2.38h2.23l-2.39,3.6Zm9.68-7.85v1.14c0,1.23,.59,1.91,1.74,1.91s1.78-.65,1.78-1.91v-1.14h-3.53Z"/></g></svg>