<?xml version="1.0" encoding="UTF-8"?><svg xmlns="http://www.w3.org/2000/svg" width="24" height="24" viewBox="0 0 24 24"><defs><style>.c{fill:none;}</style></defs><g id="a"><rect class="c" width="24" height="24"/></g><g id="b"><path d="M14.95,21.6H1.95v-1.1h1.18V5.94c0-1.36,.65-2.01,2.01-2.01h6.57c1.36,0,2.01,.66,2.01,2.01v5.05h1.53c1.37,0,2.02,.66,2.02,2.01v3.86c0,1.18,.39,1.77,1.22,1.77s1.25-.59,1.25-1.77c0-1.73-1.18-3.49-1.18-6.63v-.51c-1.64-.22-2.36-1.42-2.36-3v-2.27h1.18V2.4h1.13v2.04h1.23V2.4h1.13v2.04h1.18v2.27c0,1.5-.8,2.72-2.33,2.95v.54c0,3.04,1.18,4.73,1.18,6.63s-.89,2.92-2.42,2.92c-1.39,0-2.36-1.08-2.36-2.92v-3.69c0-.73-.28-1.02-1.02-1.02h-1.39v8.37h1.22v1.1ZM11.54,5.06H5.33c-.74,0-1.02,.31-1.02,1.05v14.39H12.58V6.12c-.02-.74-.3-1.05-1.03-1.05h0Zm-3.24,9.45h-.68l.68-2.36h-1.64l1.08-3.57h1.77l-1.05,2.36h2.22l-2.37,3.57ZM17.37,5.58v1.13c0,1.23,.59,1.89,1.71,1.89s1.77-.65,1.77-1.9v-1.13h-3.48Z"/></g></svg>