<?xml version="1.0" encoding="UTF-8"?><svg xmlns="http://www.w3.org/2000/svg" width="24" height="24" viewBox="0 0 24 24"><defs><style>.c{fill:none;}</style></defs><g id="a"><rect class="c" width="24" height="24"/></g><g id="b"><path d="M13.89,21.63H2.99v-1.11h1.18V5.93c0-1.36,.66-2.02,2.02-2.02h4.44c1.36,0,2.02,.66,2.02,2.02v5.07h1.53c1.36,0,2.02,.65,2.02,2.02v3.87c0,1.19,.4,1.78,1.22,1.78s1.25-.59,1.25-1.78c0-1.74-1.18-3.5-1.18-6.66v-.51c-1.65-.23-2.37-1.42-2.37-3.02v-2.28h1.18V2.37h1.14v2.05h1.22V2.37h1.14v2.05h1.19v2.28c0,1.51-.8,2.73-2.33,2.96v.54c0,3.05,1.18,4.74,1.18,6.66s-.88,2.93-2.42,2.93c-1.39,0-2.37-1.08-2.37-2.93v-3.7c0-.74-.29-1.03-1.03-1.03h-1.36v8.39h1.2v1.11ZM10.47,5.04H6.36c-.74,0-1.02,.31-1.02,1.05v14.44h6.16V6.1c0-.74-.28-1.05-1.02-1.05h0Zm-2.16,9.53h-.68l.68-2.37h-1.65l1.08-3.56h1.78l-1.05,2.37h2.22l-2.38,3.56Zm7.99-9.01v1.14c0,1.22,.63,1.91,1.74,1.91s1.78-.66,1.78-1.91v-1.14h-3.51Z"/></g></svg>