<svg id="Icones" xmlns="http://www.w3.org/2000/svg" width="32" height="32" viewBox="0 0 32 32"><defs><style>.cls-1{fill:none;}</style></defs><rect class="cls-1" width="32" height="32"/><path d="M10.22,11.46H9.12A23.74,23.74,0,0,1,7.65,9.23l.88-.47V8.7c.34.59.72,1.16,1.13,1.75.69-1.09,1.25-2.1,2-3.45l.94.47C11.63,9.2,11.1,10.11,10.22,11.46Zm0,5.61H9.12a22.51,22.51,0,0,1-1.47-2.23l.88-.47v-.06c.34.6.72,1.16,1.13,1.76.69-1.1,1.25-2.1,2-3.45l.94.47C11.63,14.81,11.1,15.72,10.22,17.07Zm0,5.58H9.12a23.63,23.63,0,0,1-1.47-2.22L8.53,20v-.07c.34.6.72,1.16,1.13,1.76.69-1.1,1.25-2.1,2-3.45l.94.47C11.63,20.39,11.1,21.3,10.22,22.65Zm4.52-12.26h10v1.07h-10Zm0,5.61h10v1.07h-10Zm0,5.59h10v1.06h-10Z"/></svg>