<svg id="Icones" xmlns="http://www.w3.org/2000/svg" width="32" height="32" viewBox="0 0 32 32"><defs><style>.cls-1{fill:none;}</style></defs><rect class="cls-1" width="32" height="32"/><path d="M13.22,22.21A7.86,7.86,0,1,1,21,13.27a6.26,6.26,0,0,0-1.16.1,6.69,6.69,0,1,0-6.62,7.68,3.88,3.88,0,0,0,1.23-.13,3.75,3.75,0,0,0,.25,1.16A9.57,9.57,0,0,1,13.22,22.21Zm1.45-8.15c-.38-.79-.1-1.35,1.09-2.26l.73-.57a5.82,5.82,0,0,0-1.29-1l-.31.88c-.44,1.29-.85,1.69-1.7,1.69s-1.22-.4-1.66-1.69l-.31-.85a4.31,4.31,0,0,0-1.29.94l.72.57c1.16.91,1.41,1.35,1.13,2.07S10.9,15,9.62,15H8.68a4.66,4.66,0,0,0,.5,1.5l.75-.5c1.13-.75,1.66-.85,2.39-.38s.69.94.31,2.32l-.28.94a6,6,0,0,0,.84.07,4.75,4.75,0,0,0,.85-.07l-.28-.94c-.38-1.38-.32-1.91.31-2.32a1.47,1.47,0,0,1,1.69,0c-.12.19-.25.38-.5.72-.31-.06-.4-.06-.59.07s-.25.34-.07,1l.07.22a7.07,7.07,0,0,0-.32,2.23,4,4,0,0,1-1.16.12,5.6,5.6,0,0,1,0-11.19,5.5,5.5,0,0,1,5.55,4.83A6.46,6.46,0,0,0,16.33,15,1.81,1.81,0,0,1,14.67,14.06Zm-4.33-1.32-1-.75a4.39,4.39,0,0,0-.69,2H9.9c.6,0,.88-.12,1-.4S10.87,13.18,10.34,12.74Zm.34,3.86-1,.72a4.45,4.45,0,0,0,1.7,1.25l.37-1.19c.19-.66.19-.82-.06-1S11.12,16.25,10.68,16.6Zm3.2-5.49L14.26,10a3.31,3.31,0,0,0-1-.13,4,4,0,0,0-1.1.13l.37,1.16c.22.63.35.78.66.78S13.69,11.67,13.88,11.11ZM21,25.5a5.2,5.2,0,0,1-5.58-5.58A5.18,5.18,0,0,1,21,14.34a5.18,5.18,0,0,1,5.59,5.58A5.19,5.19,0,0,1,21,25.5ZM17.68,14a4.84,4.84,0,0,0-.63-2l-1,.72c-.53.44-.63.59-.53.88s.37.4,1,.4ZM21,24.44a4.15,4.15,0,0,0,4.49-4.52A4.15,4.15,0,0,0,21,15.4a4.15,4.15,0,0,0-4.48,4.52A4.15,4.15,0,0,0,21,24.44Zm.22-2.32H20.16a25.07,25.07,0,0,1-1.48-2.23l.94-.53c.35.56.69,1.09,1.07,1.66.69-1.07,1.25-2.1,2-3.42l.94.53C22.63,19.89,22.1,20.8,21.25,22.12Z"/></svg>