<?xml version="1.0" encoding="UTF-8"?><svg xmlns="http://www.w3.org/2000/svg" width="24" height="24" viewBox="0 0 24 24"><defs><style>.c{fill:none;}</style></defs><g id="a"><rect class="c" width="24" height="24"/></g><g id="b"><path d="M4.94,12.99l-.44-.44-.88,.88,.44,.44,.88-.88Zm4.13,5l-.44,.44c.12,.12,.29,.19,.46,.18,.17,0,.33-.08,.45-.21l-.46-.41ZM19.96,6.67l.41-.46-.93-.82-.41,.46,.93,.82ZM4.06,13.87l4.57,4.57,.88-.88-4.57-4.57-.88,.88Zm5.47,4.54L19.96,6.67l-.93-.82-10.43,11.74,.93,.82Z"/></g></svg>