<svg id="Icones" xmlns="http://www.w3.org/2000/svg" width="32" height="32" viewBox="0 0 32 32"><defs><style>.cls-1{fill:none;}</style></defs><rect class="cls-1" width="32" height="32"/><path d="M21.6,15.26v-7c0-1.72-.69-2.41-2.39-2.41H13.69a43.73,43.73,0,0,0-5.51,5.55v10c0,1.73.69,2.42,2.38,2.42H13a4.35,4.35,0,0,0,.4,1.06H10.56c-2.35,0-3.48-1.13-3.48-3.48V11c.47-.57.94-1.1,1.41-1.6L7.05,7.93a24.06,24.06,0,0,1,3.16-3.14L11.66,6.2a19.46,19.46,0,0,1,1.53-1.38h6C21.57,4.82,22.7,6,22.7,8.3v7.37A4.38,4.38,0,0,0,21.6,15.26ZM9.21,8.61C9.74,8,10.28,7.49,10.87,7l-.75-.75A13.7,13.7,0,0,0,8.46,7.86Zm5.71,2.89a2.2,2.2,0,1,1,0-4.39h3.35a2.2,2.2,0,1,1,0,4.39Zm4.55-2.2a1.11,1.11,0,0,0-1.2-1.16H14.92A1.11,1.11,0,0,0,13.73,9.3a1.12,1.12,0,0,0,1.19,1.17h3.35A1.12,1.12,0,0,0,19.47,9.3Zm-.1,17.91a5.2,5.2,0,0,1-5.58-5.58,5.18,5.18,0,0,1,5.58-5.58A5.17,5.17,0,0,1,25,21.63,5.17,5.17,0,0,1,19.37,27.21Zm0-1.06a4.15,4.15,0,0,0,4.49-4.52,4.15,4.15,0,0,0-4.49-4.52,4.15,4.15,0,0,0-4.48,4.52A4.15,4.15,0,0,0,19.37,26.15Zm.22-2.33h-1.1c-.66-.94-1-1.5-1.47-2.22l.94-.54c.35.57.69,1.1,1.07,1.67.69-1.07,1.25-2.1,2-3.42l.94.53C20.94,21.66,20.41,22.54,19.59,23.82Z"/></svg>