<svg id="Icones" xmlns="http://www.w3.org/2000/svg" width="32" height="32" viewBox="0 0 32 32"><defs><style>.cls-1{fill:none;}</style></defs><rect class="cls-1" width="32" height="32"/><path d="M22.58,16V5.71H9.09v18h5.77a6.13,6.13,0,0,0,.19,1.07H8V4.64H23.67V16.25A7.22,7.22,0,0,0,22.58,16ZM12.51,10.2h-1.1c-.28-.41-.59-.85-1-1.54l.84-.5c.25.44.51.81.73,1.13l1.44-2.42.84.47C13.7,8.25,13.29,8.94,12.51,10.2Zm0,5.61h-1.1c-.28-.41-.59-.85-1-1.54l.84-.5A13.25,13.25,0,0,0,12,14.9l1.44-2.42.84.47C13.7,13.86,13.29,14.55,12.51,15.81Zm0,5.58h-1.1c-.28-.41-.59-.85-1-1.54l.84-.5A13.25,13.25,0,0,0,12,20.48c.37-.63.78-1.32,1.44-2.41l.84.47C13.7,19.45,13.29,20.14,12.51,21.39ZM14.74,9.13h5.55V10.2H14.74Zm0,5.61h5.55v1.07H14.74Zm6.71,13.39a5.2,5.2,0,0,1-5.59-5.55A5.19,5.19,0,0,1,21.45,17,5.17,5.17,0,0,1,27,22.58,5.18,5.18,0,0,1,21.45,28.13Zm0-1.06a4.14,4.14,0,0,0,4.48-4.49,4.14,4.14,0,0,0-4.48-4.51A4.15,4.15,0,0,0,17,22.58,4.15,4.15,0,0,0,21.45,27.07Zm.22-2.29h-1.1a23.89,23.89,0,0,1-1.48-2.23L20,22c.34.56.69,1.1,1.06,1.66.69-1.07,1.26-2.1,2-3.42l.94.53C23.08,22.52,22.54,23.43,21.67,24.78Z"/></svg>