<?xml version="1.0" encoding="UTF-8"?><svg xmlns="http://www.w3.org/2000/svg" width="24" height="24" viewBox="0 0 24 24"><defs><style>.c{fill:none;}</style></defs><g id="a"><rect class="c" width="24" height="24"/></g><g id="b"><path d="M13.71,16.54h2.26c2.01,0,3.39-1.03,3.39-2.55,0-2.01-1.22-3.15-3.34-3.09-.21-2.26-1.57-3.42-4.12-3.42-2.33,0-3.8,1.65-3.95,4.4-2.03-.14-3.31,.79-3.31,2.38,0,1.36,1.19,2.26,2.9,2.26h2.76v1.13h-2.75c-2.33,0-4.02-1.41-4.02-3.39,0-1.87,1.41-3.25,3.45-3.39,.08-1.24,.64-2.4,1.55-3.24,.91-.84,2.12-1.3,3.36-1.28,2.9,0,4.75,1.3,5.12,3.64,2.14,.16,3.45,1.69,3.45,3.98s-1.79,3.66-4.52,3.66h-2.26l.02-1.09Zm-1.22-5.29v5.26h-1v-5.18c-.41,.57-.76,1.06-1.41,2.09l-.89-.52c.7-1.1,1.47-2.15,2.3-3.15h1.06c.84,1,1.61,2.05,2.3,3.15l-.89,.52c-.68-1.09-1.03-1.58-1.47-2.17Z"/></g></svg>