<svg id="Icones" xmlns="http://www.w3.org/2000/svg" width="32" height="32" viewBox="0 0 32 32"><defs><style>.cls-1{fill:none;}</style></defs><rect class="cls-1" width="32" height="32"/><path d="M9.1,25.65c-2.51,0-4.3-1.63-4.3-3.92a3.9,3.9,0,0,1,4-3.89,4.72,4.72,0,0,1,5-4.49c2.79,0,4.55,1.45,4.71,3.86a4.08,4.08,0,0,1,4.23,4.2c0,2.58-1.82,4.24-4.58,4.24Zm12.54-4.24c0-2.07-1.59-3.26-4.23-3.16,0-2.61-1.16-3.83-3.64-3.83S9.82,16,9.82,18.87c-2.48-.09-3.95,1-3.95,2.86,0,1.66,1.32,2.82,3.23,2.82h9A3.19,3.19,0,0,0,21.64,21.41Zm-8.4-9.12a4.76,4.76,0,0,1,5-4.52c2.79,0,4.55,1.44,4.7,3.86a4.08,4.08,0,0,1,4.24,4.2A4.05,4.05,0,0,1,23.71,20a3.43,3.43,0,0,0-.4-1,3.2,3.2,0,0,0,2.82-3.14c0-2.07-1.6-3.26-4.23-3.17,0-2.6-1.16-3.82-3.64-3.82a3.55,3.55,0,0,0-3.89,3.45A7.11,7.11,0,0,0,13.24,12.29Z"/></svg>