<svg id="Icones" xmlns="http://www.w3.org/2000/svg" width="32" height="32" viewBox="0 0 32 32"><defs><style>.cls-1{fill:none;}</style></defs><rect class="cls-1" width="32" height="32"/><path d="M10.2,22.71a4,4,0,0,1-4.27-3.92A3.9,3.9,0,0,1,9.85,14.9a5.76,5.76,0,0,1,6-5.61c3.55,0,5.77,1.85,6,5a4.08,4.08,0,0,1,4.24,4.2c0,2.57-1.82,4.23-4.58,4.23ZM25,18.48c0-2.07-1.6-3.26-4.23-3.17,0-3.36-1.57-5-4.93-5-3.2,0-4.92,2-4.92,5.58-2.45-.1-3.92,1-3.92,2.85a2.9,2.9,0,0,0,3.2,2.82H21.49C23.56,21.61,25,20.33,25,18.48Z"/></svg>