<?xml version="1.0" encoding="UTF-8"?><svg xmlns="http://www.w3.org/2000/svg" width="24" height="24" viewBox="0 0 24 24"><defs><style>.c{fill:none;}</style></defs><g id="a"><rect class="c" width="24" height="24"/></g><g id="b"><path d="M14.53,9.72c-.56-.29-1.18-.44-1.81-.47-.22-2.25-1.57-3.4-4.1-3.4-2.32,0-3.77,1.65-3.93,4.37-2.02-.14-3.29,.78-3.29,2.37,0,1.35,1.19,2.25,2.89,2.25H12.84c.01,.38,.07,.76,.19,1.12H4.29c-2.32,0-3.99-1.4-3.99-3.37,0-1.86,1.4-3.24,3.43-3.37,.08-1.23,.63-2.39,1.54-3.22,.91-.84,2.1-1.29,3.34-1.27,2.89,0,4.72,1.3,5.09,3.62,.67,.05,1.32,.28,1.86,.67-.39,.16-.74,.4-1.03,.7h0Zm4.21,9.55c-3.04,0-4.96-1.92-4.96-4.96s1.92-4.97,4.96-4.97,4.96,1.89,4.96,4.97-1.89,4.96-4.96,4.96Zm0-1.08c2.4,0,3.85-1.46,3.85-3.88s-1.45-3.9-3.85-3.9-3.86,1.46-3.86,3.89,1.46,3.88,3.86,3.88h0Zm.19-1.98h-.94c-.46-.61-.88-1.25-1.27-1.92l.89-.63c.27,.46,.56,.92,.84,1.4,.56-.86,1.03-1.68,1.59-2.77l.92,.51c-.84,1.48-1.3,2.26-2.02,3.4h0Z"/></g></svg>