<?xml version="1.0" encoding="UTF-8"?><svg xmlns="http://www.w3.org/2000/svg" width="24" height="24" viewBox="0 0 24 24"><defs><style>.c{fill:none;}</style></defs><g id="a"><rect class="c" width="24" height="24"/></g><g id="b"><path d="M15.37,10.29c-.52-.27-1.1-.41-1.68-.4-.22-2.24-1.56-3.39-4.09-3.39-2.31,0-3.77,1.64-3.92,4.36-2.02-.13-3.28,.78-3.28,2.37,0,1.34,1.18,2.24,2.88,2.24H13.96c.14,.4,.34,.78,.59,1.12H5.34c-2.31,0-3.98-1.39-3.98-3.36,0-1.85,1.4-3.23,3.42-3.36,.08-1.23,.63-2.38,1.54-3.21,.91-.84,2.1-1.29,3.33-1.27,2.88,0,4.71,1.29,5.08,3.61,.65,.07,1.27,.31,1.8,.7-.42,.13-.81,.34-1.16,.6h0Zm.86,5l-.91,.48c-.37-.62-.56-1.32-.56-2.04-.03-.44,.04-.88,.19-1.29,.15-.41,.39-.79,.7-1.1s.68-.56,1.09-.71c.41-.16,.85-.23,1.29-.2h.97c-.4-.24-.75-.43-1.34-.75l.49-.84c.8,.46,1.54,1.03,2.2,1.68v.81c-.66,.65-1.4,1.22-2.2,1.68l-.48-.81c.59-.32,.94-.51,1.34-.75h-.95c-1.48,0-2.24,.88-2.24,2.29-.03,.55,.11,1.1,.41,1.56Zm4.92-3.12l.92-.48c.36,.62,.56,1.33,.56,2.04,.03,.44-.04,.88-.19,1.29-.15,.41-.4,.79-.71,1.1-.31,.31-.68,.55-1.09,.71-.41,.16-.85,.23-1.29,.2h-.99c.4,.24,.75,.43,1.34,.75l-.48,.83c-.8-.46-1.55-1.03-2.21-1.68v-.82c.66-.65,1.4-1.22,2.21-1.68l.48,.83c-.59,.32-.94,.51-1.34,.76h.99c1.48,0,2.24-.89,2.24-2.29,.03-.56-.12-1.12-.44-1.58h0Z"/></g></svg>