<?xml version="1.0" encoding="UTF-8"?><svg xmlns="http://www.w3.org/2000/svg" width="24" height="24" viewBox="0 0 24 24"><defs><style>.c{fill:none;}</style></defs><g id="a"><rect class="c" width="24" height="24"/></g><g id="b"><path d="M14.52,9.73c-.57-.3-1.19-.46-1.83-.49-.22-2.25-1.57-3.4-4.1-3.4-2.32,0-3.78,1.65-3.94,4.37-2.02-.13-3.29,.78-3.29,2.37,0,1.35,1.19,2.25,2.89,2.25H12.83c.01,.38,.07,.76,.18,1.12H4.3c-2.32,0-4-1.4-4-3.37,0-1.86,1.41-3.24,3.43-3.37,.08-1.23,.63-2.39,1.54-3.23,.91-.84,2.11-1.29,3.34-1.27,2.89,0,4.72,1.3,5.1,3.62,.66,.07,1.29,.31,1.83,.71-.38,.16-.73,.39-1.02,.68Zm4.21,9.56c-3.05,0-4.96-1.92-4.96-4.97s1.91-4.97,4.96-4.97,4.96,1.89,4.96,4.97-1.89,4.97-4.96,4.97Zm0-1.08c2.4,0,3.86-1.46,3.86-3.89s-1.43-3.9-3.86-3.9-3.86,1.46-3.86,3.89,1.46,3.88,3.86,3.88h0Zm-1.27-5.83l1.19,1.19,1.26-1.26,.73,.72-1.27,1.27,1.27,1.29-.73,.73-1.26-1.27-1.19,1.19-.72-.73,1.19-1.21-1.19-1.18,.72-.74Z"/></g></svg>