<?xml version="1.0" encoding="UTF-8"?><svg xmlns="http://www.w3.org/2000/svg" width="24" height="24" viewBox="0 0 24 24"><defs><style>.c{fill:none;}</style></defs><g id="a"><rect class="c" width="24" height="24"/></g><g id="b"><path d="M3.15,15.95l1.06-.48c1.19,2.88,4.1,4.84,7.81,4.84,5.08,0,8.18-3.62,8.18-8.35S16.89,3.63,12.01,3.63c-1.51-.05-3,.34-4.3,1.12-1.29,.78-2.34,1.92-3,3.27,.83-.4,1.51-.69,2.51-1.23l.43,1.06c-1.43,.62-2.14,.94-3.73,1.57l-.91-.4c-.24-1.4-.36-2.82-.37-4.25l1.11-.05c0,1.14-.03,1.85,0,2.62,1.48-2.93,4.45-4.85,8.27-4.85,5.59,0,9.35,4.11,9.35,9.5s-3.56,9.5-9.35,9.5c-4.25-.02-7.49-2.24-8.86-5.55Zm8.75-2.57c-1.29,.06-2.56-.36-3.56-1.19v1.19c1.04,.74,2.29,1.12,3.56,1.09,1.27,.03,2.52-.35,3.56-1.09v-1.19c-.99,.83-2.27,1.26-3.56,1.19h0Zm0,2.28c-1.29,.05-2.56-.37-3.56-1.19v1.19c1.05,.72,2.29,1.09,3.56,1.06,1.27,.03,2.51-.34,3.56-1.06v-1.19c-1,.82-2.27,1.24-3.56,1.19h0Zm0-7.24c-2.17,0-3.53,.77-3.53,1.91s1.37,1.88,3.53,1.88,3.56-.74,3.56-1.88-1.43-1.91-3.56-1.91Zm0,1.11c1.37,0,2.38,.31,2.38,.8s-1,.77-2.38,.77-2.37-.31-2.37-.77,.98-.81,2.37-.81h0Z"/></g></svg>