<?xml version="1.0" encoding="UTF-8"?><svg xmlns="http://www.w3.org/2000/svg" width="24" height="24" viewBox="0 0 24 24"><defs><style>.c{fill:none;}</style></defs><g id="a"><rect class="c" width="24" height="24"/></g><g id="b"><path d="M16.97,10.56v1.28c-1.49,.93-3.22,1.41-4.97,1.37-1.76,.06-3.49-.42-4.97-1.37v-1.28c1.1,.95,2.92,1.49,4.97,1.49s3.87-.54,4.97-1.49Zm0,2.49v1.28c-1.49,.94-3.22,1.42-4.97,1.37-1.91,0-3.85-.5-4.97-1.37v-1.29c1.1,.96,2.92,1.49,4.97,1.49s3.87-.53,4.97-1.49h0Zm0,2.5v1.29c-1.49,.93-3.22,1.41-4.97,1.37-1.76,.06-3.49-.42-4.97-1.37v-1.31c1.1,.96,2.92,1.49,4.97,1.49s3.87-.53,4.97-1.49v.02Zm0-7.25c0,1.49-1.97,2.49-4.97,2.49s-4.97-.98-4.97-2.49,1.97-2.49,4.97-2.49,4.94,.97,4.94,2.46l.03,.02Zm-8.7,0c0,.75,1.55,1.31,3.73,1.31s3.73-.57,3.73-1.31-1.56-1.36-3.74-1.36-3.73,.58-3.73,1.33v.02Z"/></g></svg>