<svg id="Icones" xmlns="http://www.w3.org/2000/svg" width="32" height="32" viewBox="0 0 32 32"><defs><style>.cls-1{fill:none;}</style></defs><rect class="cls-1" width="32" height="32"/><path d="M20.88,13.15c0,1.66-2,2.76-5,2.76s-5-1.1-5-2.76,2-2.76,5-2.76S20.88,11.49,20.88,13.15Zm0,2.35v1.19a8.56,8.56,0,0,1-5,1.48,8.55,8.55,0,0,1-5-1.48V15.5a7.44,7.44,0,0,0,5,1.63A7.45,7.45,0,0,0,20.88,15.5Zm-10,3.67V18a8,8,0,0,0,5,1.41,8,8,0,0,0,5-1.41v1.19a9.56,9.56,0,0,1-5,1.26A9.55,9.55,0,0,1,10.85,19.17Zm0,2.2v-1.2a7.93,7.93,0,0,0,5,1.42,7.94,7.94,0,0,0,5-1.42v1.2a9.65,9.65,0,0,1-5,1.25A9.64,9.64,0,0,1,10.85,21.37ZM12,13.15c0,1,1.63,1.72,3.88,1.72s3.89-.72,3.89-1.72-1.63-1.72-3.89-1.72S12,12.15,12,13.15Z"/></svg>