<svg id="Icones" xmlns="http://www.w3.org/2000/svg" width="32" height="32" viewBox="0 0 32 32"><defs><style>.cls-1{fill:none;}</style></defs><rect class="cls-1" width="32" height="32"/><path d="M17.84,23.81A15.38,15.38,0,0,1,16.37,26h-1a15.38,15.38,0,0,1-1.47-2.23H8a2.09,2.09,0,0,1-2.22-2.22V8.1A2.09,2.09,0,0,1,8,5.91H23.67A2,2,0,0,1,25.9,8.13V21.59a2.05,2.05,0,0,1-2.26,2.22Zm-2,1.13a13.09,13.09,0,0,0,1.28-2.26h6.49a1,1,0,0,0,1.16-1.09V8.13A1,1,0,0,0,23.67,7H8A1,1,0,0,0,6.9,8.1V21.59A1,1,0,0,0,8,22.68h6.59A12.49,12.49,0,0,0,15.87,24.94Z"/></svg>