<svg id="Icones" xmlns="http://www.w3.org/2000/svg" width="32" height="32" viewBox="0 0 32 32"><defs><style>.cls-1{fill:none;}</style></defs><rect class="cls-1" width="32" height="32"/><path d="M15.83,7c5.52,0,9,3.48,9,9s-3.51,9-9,9-9-3.51-9-9S10.35,7,15.83,7Zm0,1.07c-4.89,0-7.9,3-7.9,7.9s3,7.91,7.9,7.91,7.91-3.05,7.91-7.91S20.73,8.07,15.83,8.07Zm.51,13.52h-1A40.64,40.64,0,0,1,13.48,16a41,41,0,0,1,1.85-5.61h1A42.36,42.36,0,0,1,18.19,16,42,42,0,0,1,16.34,21.59ZM17,16c-.35-1.31-.76-2.66-1.2-4-.44,1.29-.84,2.64-1.19,4Z"/></svg>