<svg id="Icones" xmlns="http://www.w3.org/2000/svg" width="32" height="32" viewBox="0 0 32 32"><defs><style>.cls-1{fill:none;}</style></defs><rect class="cls-1" width="32" height="32"/><path d="M3.7,11.8c-.1,1.19-.19,4.89-.19,7.28,0,1,.41,1.44,1.47,1.44H5.2v1.07H4.83c-1.63,0-2.42-.82-2.42-2.51,0-2.54.1-6.27.19-7.28.12-1.88.78-2.51,2.63-2.51h9.44v1.07H5.08C4.07,10.36,3.76,10.67,3.7,11.8Zm6.83,8.69h11.7v0a2.09,2.09,0,0,1,2.23-2.2,2.2,2.2,0,1,1,0,4.39,2.16,2.16,0,0,1-2-1.09H10.28a2.1,2.1,0,0,1-2,1.09,2.2,2.2,0,1,1,0-4.39,2.1,2.1,0,0,1,2.22,2.2ZM8.31,19.3a1.11,1.11,0,0,0-1.19,1.16,1.1,1.1,0,0,0,1.19,1.16A1.08,1.08,0,0,0,9.5,20.46,1.1,1.1,0,0,0,8.31,19.3Zm14.58-7.94,1.82,2,2.32.85c1.5.53,1.91,1,2.1,2.47a21.23,21.23,0,0,1,.13,2.86c0,1-.57,1.53-1.7,1.69v-1.1c.44-.09.6-.25.6-.56A18.72,18.72,0,0,0,28,16.94c-.12-1-.41-1.41-1.25-1.69l-2.67-.94-2-2.16c-1.48-1.6-1.95-1.79-4.68-1.79h-.53v9h-1.1v-10h1.63C20.41,9.29,21.32,9.64,22.89,11.36Zm1.57,10.26a1.11,1.11,0,0,0,1.19-1.16,1.1,1.1,0,0,0-1.19-1.16,1.08,1.08,0,0,0-1.19,1.16A1.1,1.1,0,0,0,24.46,21.62Z"/></svg>