<?xml version="1.0" encoding="UTF-8"?><svg xmlns="http://www.w3.org/2000/svg" width="24" height="24" viewBox="0 0 24 24"><defs><style>.c{fill:none;}</style></defs><g id="a"><rect class="c" width="24" height="24"/></g><g id="b"><path d="M12,22.67c-6.1,0-10.17-4.58-10.17-10.67S5.91,1.33,12,1.33s10.18,4.61,10.18,10.69-4.07,10.65-10.18,10.65Zm0-1.06c5.43,0,9.04-4.13,9.04-9.61S17.4,2.39,12,2.39,2.96,6.52,2.96,12s3.65,9.63,9.04,9.63v-.02Zm-2.7-9.59c.61-2.49,1.34-4.94,2.2-7.35h.98c.86,2.41,1.59,4.86,2.19,7.35-.6,2.49-1.33,4.94-2.19,7.35h-.96c-.87-2.41-1.6-4.86-2.22-7.35h0Zm4.21,0c-.41-1.66-.89-3.58-1.52-5.65-.62,2.06-1.13,3.99-1.52,5.65h3.04Z"/></g></svg>