<?xml version="1.0" encoding="UTF-8"?><svg xmlns="http://www.w3.org/2000/svg" width="24" height="24" viewBox="0 0 24 24"><defs><style>.c{fill:none;}</style></defs><g id="a"><rect class="c" width="24" height="24"/></g><g id="b"><path d="M7.94,17.01h7.74c.03-.61,.29-1.18,.73-1.6,.44-.42,1.01-.66,1.62-.68,.61,0,1.19,.24,1.63,.67,.44,.42,.69,1,.72,1.61h.95v-.19c0-.47-.07-.94-.22-1.39l-.14-.38c-.22-.57-.57-.88-1.5-1.09l-1.36-.3c-.41-.09-.81-.25-1.17-.47-.88-.6-1.83-1.08-2.84-1.42-1.09-.36-3.3-.44-5.24-.44-1.17,0-2.51,.08-3.77,.17l-1.36-.74v-.33c1.1-.08,3.85-.24,5.43-.24,1.77,0,4.23,.11,5.43,.52,.99,.38,1.95,.85,2.84,1.42,.26,.15,.53,.27,.82,.36l1.36,.32c.9,.22,1.61,.47,1.99,.96,.55,.78,.88,1.69,.93,2.65,0,1.33-.38,1.74-1.39,1.74h-.95c-.19,.42-.49,.77-.87,1.02-.38,.25-.83,.38-1.28,.38s-.9-.13-1.28-.38c-.38-.25-.69-.6-.87-1.02H7.75c-.19,.41-.49,.76-.87,1.01-.38,.25-.83,.38-1.28,.38-.52,0-1.03-.17-1.44-.49-.41-.32-.7-.77-.83-1.28-1.25-.06-1.85-.47-1.85-1.97v-2.35c.54-.73,1.14-1.4,1.8-2.02l1.03,.57c-.61,.57-1.18,1.18-1.7,1.83v2.04c0,.57,.22,.71,.7,.71,.12-.51,.41-.98,.82-1.31,.41-.34,.92-.53,1.45-.54,.61,0,1.2,.24,1.64,.66,.44,.42,.7,1,.73,1.61h0Zm-1.14,.14c0-.32-.13-.64-.36-.87-.23-.23-.54-.36-.87-.36s-.64,.13-.87,.36c-.23,.23-.36,.54-.36,.87s.13,.64,.36,.87c.23,.23,.54,.36,.87,.36s.64-.13,.87-.36c.23-.23,.36-.54,.36-.87h0Zm12.27-7.69l-.65-.71c-.14,.38-.27,.79-.47,1.34l-.38,.09c-.47-.6-.65-1.01-.98-1.48-.58,.03-1.16,.02-1.74-.03l-.24-.32c.32-.49,.66-.97,1.03-1.42-.17-.57-.35-1.09-.57-1.82l.19-.22c.76,.22,1.28,.38,1.82,.57,.46-.36,.94-.69,1.43-1l.35,.22v1.77c.51,.3,1.01,.64,1.48,1.01l-.11,.36c-.49,.19-.85,.32-1.23,.44l.69,.62,2.4,2.4-.6,.62-2.41-2.43Zm-1.42-.68c.14-.49,.22-.8,.3-1.07,.3-.08,.57-.16,1.04-.3-.27-.2-.55-.39-.85-.57v-1.2c-.31,.2-.59,.43-.85,.68-.52-.19-.85-.33-1.17-.44,.14,.32,.27,.62,.46,1.14-.27,.27-.51,.57-.73,.88,.35,.03,.65,.03,1.23,.03,.18,.29,.36,.58,.57,.85h0Zm1.61,8.37c0-.32-.13-.64-.36-.87-.23-.23-.54-.36-.87-.36s-.64,.13-.87,.36c-.23,.23-.36,.54-.36,.87s.13,.64,.36,.87c.23,.23,.54,.36,.87,.36s.64-.13,.87-.36c.23-.23,.36-.54,.36-.87Z"/></g></svg>