<?xml version="1.0" encoding="UTF-8"?><svg xmlns="http://www.w3.org/2000/svg" width="24" height="24" viewBox="0 0 24 24"><defs><style>.c{fill:none;}</style></defs><g id="a"><rect class="c" width="24" height="24"/></g><g id="b"><path d="M8.66,17.87h6.68c.03-.62,.3-1.2,.74-1.63,.44-.43,1.03-.68,1.65-.69,.62,0,1.22,.25,1.66,.68,.45,.43,.71,1.02,.73,1.64h.2c.83,0,.97-.17,.97-.72-.01-.67-.19-1.33-.53-1.92-.2-.28-.39-.42-1.03-.58l-2.32-.5c-.75-.17-1.74-1.36-3.48-2-.64-.24-1.3-.39-1.98-.47,.32-.29,.57-.64,.75-1.03,.59,.12,1.17,.28,1.74,.47,1.56,.58,2.78,1.81,3.2,1.9l2.32,.53c.35,.04,.69,.15,.99,.34,.3,.18,.56,.43,.75,.72,.43,.82,.67,1.72,.7,2.64,0,1.19-.81,1.74-2.06,1.74h-.44c-.18,.43-.49,.8-.88,1.05-.39,.26-.85,.4-1.32,.4s-.92-.14-1.32-.4c-.39-.26-.7-.62-.88-1.05h-7.03c-.19,.43-.5,.8-.89,1.06-.4,.26-.86,.39-1.33,.39-.47,0-.93-.15-1.32-.42-.39-.27-.69-.64-.87-1.08-1.23-.19-2.45-.94-2.45-2.5v-1.55c0-.75,.36-1.25,1.98-2.9l.89,.67c-1.39,1.41-1.74,1.78-1.74,2.42v1.36c0,.32,.11,.63,.32,.86,.22,.23,.52,.37,.83,.39,.06-.6,.34-1.16,.8-1.56,.46-.4,1.05-.61,1.65-.59,.61,.02,1.18,.27,1.61,.71s.67,1.01,.69,1.62l.02,.02Zm-3.28-7.63l-.94,.5c-.38-.64-.58-1.37-.58-2.12-.03-.46,.04-.91,.2-1.34,.16-.43,.41-.81,.73-1.14s.71-.57,1.13-.74c.43-.16,.88-.23,1.34-.21h1c-.42-.25-.78-.45-1.39-.78l.5-.86c.83,.48,1.6,1.06,2.28,1.74v.88c-.68,.68-1.45,1.26-2.28,1.74l-.5-.86c.61-.34,.97-.53,1.39-.78h-.97c-1.54,0-2.32,.92-2.32,2.36-.03,.57,.12,1.12,.42,1.6h0Zm2.14,7.76c0-.33-.13-.65-.37-.88-.24-.24-.55-.37-.88-.37s-.65,.13-.88,.37c-.24,.23-.37,.55-.37,.88s.13,.65,.37,.88c.24,.24,.55,.37,.88,.37s.65-.13,.88-.37c.23-.23,.37-.55,.37-.88Zm2.95-11.01l.95-.5c.38,.64,.58,1.37,.58,2.11,.03,.46-.04,.91-.2,1.34-.16,.43-.41,.81-.73,1.14s-.71,.57-1.13,.74c-.43,.16-.88,.24-1.34,.21h-1.03c.42,.25,.78,.45,1.39,.78l-.5,.92c-.83-.48-1.6-1.06-2.28-1.74v-.86c.68-.67,1.45-1.26,2.28-1.74l.5,.86c-.61,.34-.97,.53-1.39,.78h1c1.53,0,2.32-.92,2.32-2.37,.04-.57-.11-1.14-.42-1.63v-.04Zm8.51,11.01c0-.33-.13-.65-.37-.88-.23-.24-.55-.37-.88-.37s-.65,.13-.89,.37c-.23,.23-.37,.55-.37,.88s.13,.65,.37,.88c.23,.24,.55,.37,.89,.37s.65-.13,.88-.37c.24-.23,.37-.55,.37-.88Z"/></g></svg>