<?xml version="1.0" encoding="UTF-8"?><svg xmlns="http://www.w3.org/2000/svg" width="24" height="24" viewBox="0 0 24 24"><defs><style>.c{fill:none;}</style></defs><g id="a"><rect class="c" width="24" height="24"/></g><g id="b"><path d="M4.21,15.47c1.19,2.88,4.1,4.84,7.81,4.84,5.08,0,8.18-3.62,8.18-8.35S16.89,3.63,12.01,3.63c-1.51-.05-3,.34-4.29,1.12-1.29,.78-2.34,1.91-3,3.27,.83-.4,1.51-.68,2.51-1.22l.43,1.05c-1.43,.63-2.14,.94-3.73,1.57l-.9-.4c-.24-1.4-.37-2.81-.39-4.23l1.11-.06v2.62c1.49-2.94,4.45-4.85,8.27-4.85,5.59,0,9.35,4.1,9.35,9.5s-3.56,9.5-9.35,9.5c-4.24,0-7.49-2.23-8.86-5.53l1.06-.5Zm6.16-2.2h2.97c.1-.13,.24-.23,.38-.29,.15-.07,.31-.1,.47-.1,.33,.01,.65,.15,.88,.4h1.07c.4,0,.54-.05,.52-.29v-.23c0-.16-.05-.31-.14-.43-.09-.12-.23-.21-.38-.25l-1.08-.37c-.4-.14-.8-.49-1.51-.77-.63-.23-1.3-.35-1.97-.34-.91,.01-1.82,.12-2.71,.31l-.91-.66v-.29c1.08-.32,2.21-.48,3.34-.48,.86-.02,1.72,.12,2.54,.4,.58,.29,1.14,.6,1.69,.94l1.19,.45c.29,.09,.54,.27,.72,.51,.18,.24,.29,.53,.3,.83l.06,.43c.11,.85-.49,1.34-1.42,1.34h-.99c-.05,.28-.2,.52-.42,.7-.22,.18-.49,.27-.77,.27-.27,0-.53-.11-.74-.28-.21-.18-.35-.42-.4-.69h-2.38c-.05,.28-.2,.52-.42,.7-.22,.18-.49,.27-.77,.27-.27-.01-.53-.11-.73-.29-.2-.17-.34-.41-.39-.68-.19,.02-.38,0-.55-.07-.17-.07-.33-.17-.46-.3-.13-.13-.23-.29-.29-.47-.06-.18-.08-.37-.06-.55v-.43c-.02-.27,.02-.54,.12-.8,.09-.25,.24-.49,.43-.68l.26-.28c.25,.26,.52,.51,.79,.74l-.14,.14c-.15,.12-.26,.28-.32,.46-.07,.18-.08,.38-.04,.56,0,.37,.11,.59,.59,.59,.11-.12,.24-.22,.38-.29,.15-.07,.31-.11,.47-.11,.32,.03,.61,.17,.83,.4v-.02Z"/></g></svg>