<?xml version="1.0" encoding="UTF-8"?><svg xmlns="http://www.w3.org/2000/svg" width="24" height="24" viewBox="0 0 24 24"><defs><style>.c{fill:none;}</style></defs><g id="a"><rect class="c" width="24" height="24"/></g><g id="b"><path d="M9.74,7.89v-1.15h.46c1.84,0,2.97,1.05,2.97,2.86s-1.15,2.86-2.97,2.86H.58v-1.09H10.2c.24,.02,.48-.01,.71-.1,.23-.08,.43-.21,.61-.37,.17-.17,.31-.37,.4-.59s.14-.46,.13-.7c0-.24-.04-.48-.13-.7s-.23-.42-.4-.58c-.17-.16-.38-.29-.61-.36-.23-.08-.47-.1-.7-.08l-.46-.02Zm-4.82,2.29c-1.11-.71-2.18-1.49-3.18-2.34v-1.08c1.01-.86,2.07-1.64,3.18-2.36l.53,.91c-1.1,.69-1.6,1.04-2.2,1.48h5.33v1.04H3.33c.57,.41,1.07,.77,2.12,1.43l-.53,.91Zm-.9,3.44v2.04c0,.31,.11,.62,.32,.85,.21,.23,.51,.37,.82,.39,.06-.6,.34-1.15,.79-1.54,.45-.4,1.03-.6,1.63-.58,.6,.02,1.17,.27,1.59,.69,.42,.43,.67,1,.68,1.6h6.61c.03-.61,.29-1.18,.73-1.61,.44-.42,1.02-.67,1.63-.68,.61,0,1.2,.25,1.64,.67,.44,.43,.7,1.01,.72,1.62h.19c.82,0,.96-.16,.96-.71,0-.67-.19-1.32-.52-1.9-.19-.28-.39-.41-1.02-.57l-2.29-.49c-.74-.17-1.72-1.32-3.43-1.98-.32-.11-.64-.2-.96-.27,.19-.34,.29-.71,.3-1.1,.41,.11,.8,.22,1.15,.36,1.54,.57,2.75,1.79,3.16,1.87l2.29,.52c.35,.04,.68,.15,.98,.33,.3,.18,.55,.43,.74,.72,.43,.81,.66,1.7,.69,2.61,0,1.18-.8,1.72-2.04,1.72h-.44c-.18,.42-.49,.79-.87,1.04-.39,.25-.84,.39-1.3,.39s-.91-.14-1.3-.39c-.39-.25-.69-.62-.87-1.04h-6.92c-.18,.43-.48,.8-.87,1.06-.39,.26-.85,.4-1.31,.4s-.92-.14-1.31-.4c-.39-.26-.69-.63-.87-1.06-1.21-.2-2.42-.94-2.42-2.47v-2.04l1.13-.02Zm4.73,3.57c0-.33-.13-.64-.36-.87-.23-.23-.55-.36-.87-.36s-.64,.13-.88,.36c-.23,.23-.36,.55-.36,.87s.13,.64,.36,.87c.23,.23,.55,.36,.88,.36s.64-.13,.87-.36c.23-.23,.36-.55,.36-.87Zm11.32,0c0-.33-.13-.64-.36-.87s-.55-.36-.88-.36-.64,.13-.87,.36c-.23,.23-.36,.55-.36,.87s.13,.64,.36,.87c.23,.23,.55,.36,.87,.36s.64-.13,.88-.36c.23-.23,.36-.55,.36-.87Z"/></g></svg>