<?xml version="1.0" encoding="UTF-8"?><svg xmlns="http://www.w3.org/2000/svg" width="24" height="24" viewBox="0 0 24 24"><defs><style>.c{fill:none;}</style></defs><g id="a"><rect class="c" width="24" height="24"/></g><g id="b"><path d="M8.68,17.05h6.6c.03-.61,.29-1.18,.73-1.61,.44-.43,1.02-.67,1.63-.68,.61,0,1.2,.25,1.64,.67,.44,.43,.7,1.01,.73,1.62h.22c.83,0,.96-.17,.96-.72,0-.67-.19-1.32-.52-1.9-.2-.27-.39-.41-1.02-.57l-2.29-.5c-.74-.17-1.72-1.32-3.44-1.98-1.11-.36-2.27-.56-3.44-.57l.8-1.1c1.06,.07,2.11,.3,3.11,.66,1.54,.57,2.75,1.79,3.16,1.87l2.29,.53c.35,.03,.68,.15,.98,.33,.3,.18,.55,.42,.74,.72,.44,.8,.69,1.7,.73,2.62,0,1.18-.8,1.72-2.04,1.72h-.44c-.18,.42-.49,.79-.87,1.04-.39,.25-.84,.39-1.3,.39s-.92-.14-1.3-.39c-.39-.26-.69-.62-.87-1.04h-6.98c-.18,.43-.48,.8-.87,1.06-.39,.26-.85,.4-1.31,.4s-.93-.14-1.31-.4c-.39-.26-.69-.63-.87-1.06-1.21-.2-2.42-.93-2.42-2.48v-1.57c0-.66,.25-1.04,1.43-2.29l.88,.66c-.99,1.01-1.18,1.27-1.18,1.82v1.35c0,.32,.11,.62,.32,.85,.21,.23,.51,.37,.82,.39,.06-.6,.34-1.15,.79-1.55,.45-.4,1.04-.6,1.64-.58,.6,.02,1.17,.27,1.59,.7,.42,.43,.66,1,.68,1.6h.01Zm-2.77-4.62c-2.47-1.46-4.04-3.44-4.04-5.36,0-1.62,.93-2.64,2.45-2.64,.38,0,.75,.07,1.09,.23,.34,.15,.65,.38,.9,.66,.25-.28,.56-.5,.9-.65,.34-.15,.71-.24,1.08-.25,1.52,0,2.48,1.02,2.48,2.64,0,1.93-1.6,3.91-4.04,5.36l-.8,.02Zm-1.63-6.84c-.19,0-.37,.04-.54,.12-.17,.08-.32,.19-.44,.33-.12,.14-.21,.3-.27,.48-.05,.18-.07,.37-.04,.55,0,1.43,1.32,2.97,3.27,4.29,2.03-1.32,3.33-2.86,3.33-4.29,0-.9-.44-1.48-1.32-1.48s-1.4,.41-2,1.27c-.55-.85-1.1-1.27-1.98-1.27Zm3.28,11.61c0-.33-.13-.64-.36-.88s-.55-.36-.88-.36-.64,.13-.88,.36-.36,.55-.36,.88,.13,.64,.36,.88,.55,.36,.88,.36,.64-.13,.88-.36,.36-.55,.36-.88h0Zm11.33,0c0-.33-.13-.64-.36-.88-.23-.23-.55-.36-.88-.36s-.64,.13-.88,.36c-.23,.23-.36,.55-.36,.88s.13,.64,.36,.88c.23,.23,.55,.36,.88,.36s.64-.13,.88-.36c.23-.23,.36-.55,.36-.88h0Z"/></g></svg>