<?xml version="1.0" encoding="UTF-8"?><svg xmlns="http://www.w3.org/2000/svg" width="24" height="24" viewBox="0 0 24 24"><defs><style>.c{fill:none;}</style></defs><g id="a"><rect class="c" width="24" height="24"/></g><g id="b"><path d="M3.91,9.54l-.67-.92c2.94-2.25,5.74-3.37,8.76-3.37s5.82,1.12,8.76,3.37l-.7,.92c-2.72-2.08-5.31-3.16-8.06-3.16s-5.36,1.08-8.09,3.16Zm14.88,1.68l-.67,.91c-2.25-1.62-4.13-2.32-6.12-2.32s-3.87,.69-6.12,2.31l-.67-.92c2.4-1.75,4.49-2.54,6.8-2.54s4.4,.79,6.8,2.54h0Zm-1.94,2.57l-.67,.92c-1.21-.89-2.67-1.4-4.18-1.46-1.51,.06-2.96,.56-4.18,1.46l-.67-.92c1.4-1.06,3.1-1.65,4.85-1.68,1.75,.03,3.45,.62,4.85,1.67h0Zm-3.58,3.7c.02,.17,0,.35-.05,.51-.06,.16-.15,.32-.27,.44-.12,.12-.27,.22-.44,.27-.17,.05-.34,.07-.51,.05-.17,.02-.35,0-.51-.05-.16-.06-.31-.15-.44-.27-.12-.12-.21-.27-.27-.44-.05-.16-.07-.34-.05-.51-.02-.17,0-.35,.05-.51,.06-.16,.15-.31,.27-.44,.12-.12,.27-.21,.43-.27,.16-.06,.34-.07,.51-.05,.17-.02,.34,0,.51,.05,.16,.05,.31,.14,.44,.27,.12,.12,.22,.27,.27,.43,.06,.16,.07,.34,.05,.51h0Z"/></g></svg>