<?xml version="1.0" encoding="UTF-8"?><svg xmlns="http://www.w3.org/2000/svg" width="24" height="24" viewBox="0 0 24 24"><defs><style>.c{fill:none;}</style></defs><g id="a"><rect class="c" width="24" height="24"/></g><g id="b"><path d="M4.97,21.53l-3.56-3.59,5.69-5.76,1.46,1.46,1.05-1.07c-.2-.31-.31-.68-.32-1.05,0-.55,.23-1.09,.62-1.48,.39-.39,.92-.62,1.48-.62,.38,0,.75,.11,1.07,.32l1.17-1.17-1.46-1.44L17.91,1.4l3.59,3.58-5.73,5.73-1.44-1.46-1.19,1.23c.2,.3,.31,.65,.32,1.02,0,.55-.23,1.08-.62,1.48s-.92,.62-1.47,.62c-.37,0-.74-.11-1.05-.32l-1.05,1.05,1.46,1.44-5.74,5.76Zm2.15-7.93l-4.35,4.32,2.2,2.22,4.32-4.34-2.17-2.2Zm4.27-3.17c-.15-.01-.3,0-.44,.06-.14,.05-.27,.13-.38,.23-.11,.1-.2,.23-.26,.36-.06,.14-.09,.29-.09,.43s.03,.3,.09,.43c.06,.14,.15,.26,.26,.36,.11,.1,.24,.18,.38,.23,.14,.05,.29,.07,.44,.06,.14,0,.29-.03,.42-.08,.13-.06,.25-.14,.35-.24,.1-.1,.18-.23,.23-.36,.05-.13,.08-.28,.08-.42,0-.14-.03-.29-.08-.42-.05-.13-.14-.25-.24-.35-.1-.1-.23-.18-.36-.23-.13-.05-.28-.07-.42-.07h.02Zm5.49,2.46l.98,.29c-.32,1.11-.9,2.12-1.7,2.95-.83,.8-1.84,1.39-2.95,1.71l-.29-.98c.95-.27,1.82-.76,2.54-1.44,.67-.72,1.15-1.59,1.42-2.54h.02Zm2.32,.39l.98,.29c-.38,1.6-1.2,3.07-2.37,4.24-1.17,1.17-2.63,1.99-4.24,2.37l-.29-.98c1.45-.32,2.78-1.05,3.83-2.1,1.05-1.05,1.78-2.38,2.11-3.82h0Zm.92-8.29l-2.24-2.2-4.31,4.32,2.2,2.22,4.36-4.35Zm1.49,8.76l.98,.32c-.49,2.08-1.55,3.98-3.05,5.49-1.51,1.5-3.41,2.56-5.49,3.05l-.32-.98c1.92-.42,3.68-1.38,5.08-2.76,1.39-1.41,2.36-3.18,2.79-5.12h.01Z"/></g></svg>