<?xml version="1.0" encoding="UTF-8"?><svg xmlns="http://www.w3.org/2000/svg" width="24" height="24" viewBox="0 0 24 24"><defs><style>.c{fill:none;}</style></defs><g id="a"><rect class="c" width="24" height="24"/></g><g id="b"><path d="M4.24,1.18l.95,.43c-.72,1.29-1.08,2.74-1.06,4.21-.02,1.47,.34,2.93,1.06,4.21l-.95,.43c-.83-1.4-1.26-3.01-1.24-4.64-.02-1.63,.4-3.24,1.24-4.64h0ZM13.23,7.87l6.29,14.95h-1.18l-.75-1.81-5.6-6.26-5.62,6.45-.67,1.62h-1.2L10.77,7.84c-.33-.2-.6-.49-.79-.84-.18-.35-.26-.73-.24-1.12-.02-.3,.02-.6,.13-.89,.1-.28,.27-.54,.48-.75,.21-.21,.47-.38,.75-.48,.28-.11,.59-.15,.89-.13,.3-.02,.6,.02,.89,.12,.28,.11,.54,.27,.76,.48,.21,.21,.38,.47,.48,.76,.1,.28,.15,.59,.12,.89,.03,.39-.05,.79-.23,1.14-.18,.35-.45,.64-.79,.85h0ZM7.32,2.28l.97,.46c-.55,.93-.84,1.99-.84,3.08s.29,2.14,.84,3.07l-.97,.46c-.64-1.07-.98-2.29-.97-3.54,0-1.25,.33-2.47,.97-3.54h0Zm.24,16.06l3.81-4.38-1.3-1.59-2.51,5.97Zm4.29-10.21l-1.38,3.27,1.54,1.92,1.51-1.95-1.37-3.24h-.3Zm.16-3.37c-.15-.02-.31,0-.45,.05-.15,.05-.28,.13-.39,.24-.11,.11-.2,.24-.25,.38-.05,.14-.08,.3-.07,.45-.01,.16,0,.31,.06,.46,.05,.15,.14,.28,.25,.39,.11,.11,.24,.19,.39,.25,.15,.05,.3,.07,.46,.06,.16,.02,.31,0,.46-.05,.15-.05,.28-.14,.39-.25,.11-.11,.2-.25,.25-.39,.05-.15,.07-.31,.05-.46,.01-.15,0-.31-.06-.45-.05-.15-.14-.28-.25-.38-.11-.11-.24-.19-.39-.24-.15-.05-.3-.07-.46-.05h0Zm4.4,13.49l-2.48-5.9-1.32,1.65,3.8,4.26Zm.19-8.91l-.97-.46c.55-.93,.84-1.99,.84-3.08s-.29-2.14-.84-3.08l.97-.46c.64,1.07,.98,2.29,.97,3.54,0,1.25-.33,2.47-.97,3.54h0Zm3.16,1.12l-.94-.43c.71-1.29,1.08-2.74,1.05-4.21,.02-1.47-.34-2.92-1.05-4.21l.94-.43c.83,1.4,1.26,3.01,1.24,4.64,.02,1.63-.41,3.23-1.24,4.63h0Z"/></g></svg>