<?xml version="1.0" encoding="UTF-8"?><svg xmlns="http://www.w3.org/2000/svg" width="24" height="24" viewBox="0 0 24 24"><defs><style>.c{fill:none;}</style></defs><g id="a"><rect class="c" width="24" height="24"/></g><g id="b"><path d="M9.96,19.87c0-.47,.16-.93,.45-1.3,.29-.37,.7-.64,1.15-.76v-1.28l-2.89-1.53c-1.41-.75-1.76-1.13-1.81-2.46-.51-.11-.97-.4-1.28-.83-.31-.42-.45-.94-.41-1.46,.05-.52,.29-1.01,.67-1.36,.38-.36,.88-.56,1.41-.58,.52-.01,1.03,.16,1.43,.5,.4,.34,.66,.81,.74,1.33,.08,.52-.04,1.04-.33,1.48-.29,.44-.73,.75-1.23,.89,.05,.9,.3,1.08,1.36,1.63l2.33,1.21V3.65c-.51,.66-.97,1.35-1.41,2.06l-.83-.52c.69-1.1,1.45-2.15,2.29-3.14h.93c1.08,1.38,1.63,2.16,2.29,3.14l-.83,.52c-.63-.98-.98-1.51-1.43-2.09l.03,2.16V13.79l2.58-.93c.85-.3,1.05-.55,1.08-1.43h-1.53V7.36h4.09v4.05h-1.57c-.08,1.35-.43,1.86-1.53,2.28l-3.14,1.18v2.94c.45,.12,.85,.38,1.13,.75,.28,.37,.44,.82,.44,1.29,0,.56-.22,1.1-.62,1.49-.4,.39-.93,.62-1.49,.62s-1.1-.22-1.49-.62c-.4-.4-.62-.93-.62-1.49l.03,.02Zm-1.51-9.41c0-.14-.03-.29-.08-.42-.06-.13-.14-.26-.24-.36s-.22-.18-.36-.24c-.13-.06-.28-.08-.42-.08-.28,.02-.55,.15-.74,.35-.19,.21-.3,.48-.3,.76s.11,.56,.3,.76c.19,.21,.46,.33,.74,.35,.15,0,.29-.03,.42-.08s.26-.14,.36-.24c.1-.1,.18-.22,.24-.36,.06-.14,.08-.28,.08-.42v-.02Zm4.71,9.41c0-.15-.02-.29-.07-.43-.05-.14-.13-.26-.23-.37-.1-.11-.22-.19-.36-.25-.13-.06-.28-.09-.43-.09-.3,0-.58,.12-.79,.33-.21,.21-.33,.49-.33,.79s.12,.58,.33,.79c.21,.21,.49,.33,.79,.33,.15,0,.29-.03,.42-.08s.26-.14,.36-.24,.18-.22,.24-.36c.06-.14,.08-.28,.08-.42h-.01Zm4.62-9.41v-2.09h-2.02v2.09h2.02Z"/></g></svg>