<?xml version="1.0" encoding="UTF-8"?><svg xmlns="http://www.w3.org/2000/svg" width="24" height="24" viewBox="0 0 24 24"><defs><style>.c{fill:none;}</style></defs><g id="a"><rect class="c" width="24" height="24"/></g><g id="b"><path d="M12,23.15c-6.37,0-10.62-4.79-10.62-11.14S5.63,.85,12,.85s10.62,4.82,10.62,11.16-4.25,11.14-10.62,11.14Zm0-1.1c5.67,0,9.44-4.31,9.44-10.03S17.64,1.98,12,1.98,2.56,6.29,2.56,12.01s3.81,10.05,9.44,10.05v-.02Zm-1.1-2.36v-6.6c-.79,.76-1.64,1.53-2.58,2.41l-.62-.82c1.07-.99,1.98-1.84,2.83-2.64-.85-.82-1.77-1.67-2.83-2.66l.62-.82c.94,.88,1.77,1.64,2.58,2.41V4.35h1.25c1.48,1.25,2.24,1.84,3.43,2.95v1.09c-1.3,1.33-2.41,2.46-3.54,3.62,1.18,1.13,2.27,2.27,3.54,3.6v1.07c-1.18,1.13-1.95,1.73-3.43,2.95l-1.25,.04Zm1.07-9.1c.83-.82,1.65-1.7,2.58-2.69-.82-.8-1.68-1.56-2.58-2.27v4.96Zm0,7.82c.9-.7,1.77-1.46,2.58-2.27-.93-.99-1.77-1.87-2.58-2.69v4.96Z"/></g></svg>