<?xml version="1.0" encoding="UTF-8"?><svg xmlns="http://www.w3.org/2000/svg" width="24" height="24" viewBox="0 0 24 24"><defs><style>.c{fill:none;}</style></defs><g id="a"><rect class="c" width="24" height="24"/></g><g id="b"><path d="M4.56,13.68c-2.59-.91-3.82-1.82-3.82-3.81,0-2.17,1.6-3.79,4.47-3.79h2.67c1.82-.9,3.7-1.69,5.61-2.37h6.2v2.37h3.56v1.19h-3.56v2.37h-6.2c-1.93-.68-3.82-1.48-5.66-2.37h-2.62c-2.22,0-3.3,1.03-3.3,2.62,0,1.36,1.11,2.05,2.79,2.62l1.3,.45c2.76,.83,4.19,1.78,4.19,3.84s-1.34,3.51-4.61,3.51H3.08v-1.19h2.45c2.16,0,3.5-.74,3.5-2.34s-1.14-1.96-3.16-2.64l-1.3-.46Zm13.98-5.18v-3.66h-4.82c-1.55,.52-3.06,1.13-4.54,1.82,1.48,.68,2.53,1.09,4.59,1.82l4.77,.02Z"/></g></svg>