<?xml version="1.0" encoding="UTF-8"?><svg xmlns="http://www.w3.org/2000/svg" width="24" height="24" viewBox="0 0 24 24"><defs><style>.c{fill:none;}</style></defs><g id="a"><rect class="c" width="24" height="24"/></g><g id="b"><path d="M4.78,14.01c-2.5-.88-3.69-1.8-3.69-3.78s1.54-3.37,4.33-3.37h3.75v-1.32c0-1.54,1.15-2.15,2.67-2.15h6.48v1.15h4.59v5.74h-4.59v1.15h-6.48c-1.54,0-2.67-.61-2.67-2.15v-1.29h-3.75c-2.15,0-3.2,.88-3.2,2.23s1.07,2.04,2.7,2.62l1.27,.44c2.67,.83,4.05,1.72,4.05,3.8s-1.3,3.5-4.47,3.5H3.35v-1.15h2.37c2.09,0,3.39-.75,3.39-2.37,0-1.52-1.1-1.96-3.06-2.65l-1.27-.42Zm12.41-3.7V4.53h-5.4c-.88,0-1.49,.41-1.49,1.24v3.28c0,.83,.57,1.24,1.49,1.24l5.4,.02Zm4.59-1.15v-3.51h-3.44v3.52l3.44-.02Zm-2.3-2.34h1.19v1.15h-1.23l.04-1.15Z"/></g></svg>