<svg id="Icones" xmlns="http://www.w3.org/2000/svg" width="32" height="32" viewBox="0 0 32 32"><defs><style>.cls-1{fill:none;}</style></defs><rect class="cls-1" width="32" height="32"/><path d="M13.58,26.07c-1.07,0-1.67-.59-1.67-1.47a4.62,4.62,0,0,1-3.35-4.14c-1.73-.28-2.79-1.73-2.79-3.92,0-2.48,1.28-3.89,3.51-3.89h.41V12.3c0-4.07,2.29-6.36,6.14-6.36S22,8.23,22,12.3v.35h.41c2.22,0,3.54,1.44,3.54,3.89s-1.35,4-3.54,4H20.85V12.3c0-3.45-1.76-5.33-5-5.33s-5.05,1.92-5.05,5.33v8.22H9.59a3.34,3.34,0,0,0,2.48,3,1.51,1.51,0,0,1,1.51-.81,1.5,1.5,0,0,1,1.69,1.69A1.49,1.49,0,0,1,13.58,26.07ZM9.69,19.45V13.72H9.28c-1.63,0-2.42.94-2.42,2.82s.85,2.91,2.42,2.91ZM22,13.72v5.73h.44c1.6,0,2.44-1,2.44-2.91s-.81-2.82-2.44-2.82Z"/></svg>