<svg id="Icones" xmlns="http://www.w3.org/2000/svg" width="32" height="32" viewBox="0 0 32 32"><defs><style>.cls-1{fill:none;}</style></defs><rect class="cls-1" width="32" height="32"/><path d="M19.16,12.9A5.36,5.36,0,0,0,21,12.62l.72.72c0,1.75.63,2.35,2.42,2.35l.65.66c-.18,5.3-3.67,8.59-9,8.59-5.48,0-9-3.51-9-9,0-5.3,3.3-8.78,8.56-9l.69.69a6,6,0,0,0-.34,1.89C15.74,11.77,16.9,12.9,19.16,12.9Zm-3.33,11c4.61,0,7.56-2.7,7.87-7.09-1.94-.19-2.85-1.07-3-2.95a8.53,8.53,0,0,1-1.53.16c-2.82,0-4.52-1.66-4.52-4.42a5.36,5.36,0,0,1,.22-1.48c-4.3.38-6.93,3.29-6.93,7.87C7.93,20.83,11,23.88,15.83,23.88ZM13.45,12.62a.86.86,0,0,1-1,1,.88.88,0,0,1-1-1,.86.86,0,0,1,1-1A.85.85,0,0,1,13.45,12.62Zm1.13,6.71a.86.86,0,0,1-1,1,.88.88,0,0,1-1-1,.87.87,0,0,1,1-1A.85.85,0,0,1,14.58,19.33Zm5.58-1.1a.86.86,0,0,1-1,1,.87.87,0,0,1-1-1,.86.86,0,0,1,1-1A.85.85,0,0,1,20.16,18.23Z"/></svg>