<?xml version="1.0" encoding="UTF-8"?><svg xmlns="http://www.w3.org/2000/svg" width="24" height="24" viewBox="0 0 24 24"><defs><style>.c{fill:none;}</style></defs><g id="a"><rect class="c" width="24" height="24"/></g><g id="b"><path d="M15.99,20.9h-7.67c-2.09,0-3.1-1.01-3.1-3.1V8.9c.42-.5,.84-.98,1.26-1.42l-1.59-1.59c.85-1.01,1.8-1.95,2.82-2.79l1.59,1.56c.43-.43,.89-.84,1.37-1.23h5.36c2.09,0,3.1,1,3.1,3.09v11.27c0,2.09-1.01,3.1-3.13,3.1Zm1.98-14.37c0-1.42-.62-1.98-2.12-1.98h-4.8c-1.68,1.46-3.24,3.04-4.68,4.74v8.34c0,1.53,.61,2.15,2.12,2.15h7.36c1.51,0,2.12-.62,2.12-2.15V6.53Zm-10.74,.17c.44-.47,.81-.84,1.28-1.28l-.84-.84c-.45,.4-.88,.83-1.28,1.28l.84,.84Zm2.53,6.14l-1.31-1.28,.61-.63,1.93,1.89h.78v-.8l-1.89-1.92,.58-.62,1.28,1.31v-1.56h.98v1.56l1.31-1.31,.58,.62-1.89,1.92v.81h.81l1.96-1.91,.58,.62-1.31,1.28h1.6v1.01h-1.57l1.31,1.29-.58,.62-1.96-1.9h-.81v.79l1.89,1.92-.58,.62-1.28-1.31v1.56h-1.01v-1.59l-1.28,1.31-.58-.62,1.89-1.92v-.76h-.81l-1.93,1.9-.61-.64,1.31-1.26h-1.54v-1h1.54Z"/></g></svg>