<svg id="Icones" xmlns="http://www.w3.org/2000/svg" width="32" height="32" viewBox="0 0 32 32"><defs><style>.cls-1{fill:none;}</style></defs><rect class="cls-1" width="32" height="32"/><path d="M16,7c5.52,0,9,3.48,9,9s-3.51,9-9,9-9-3.51-9-9S10.51,7,16,7Zm7.65,6.71h-.94c-.12,2.26-1.13,3.36-3,3.36s-2.82-.82-3.54-3.36h-.26c-.72,2.54-1.63,3.36-3.54,3.36s-2.92-1.1-3-3.36H8.35A10,10,0,0,0,8.1,16c0,4.86,3,7.9,7.9,7.9s7.9-3,7.9-7.9A10,10,0,0,0,23.65,13.74Zm-15-1.13H23.31C22.24,9.76,19.64,8.1,16,8.1S9.76,9.76,8.69,12.61Zm4,6,1-.37c.6,1.66,1.22,2.26,2.32,2.26s1.73-.6,2.32-2.26l1,.37c-.72,2-1.78,2.95-3.32,2.95S13.4,20.64,12.68,18.63Z"/></svg>