<svg id="Icones" xmlns="http://www.w3.org/2000/svg" width="32" height="32" viewBox="0 0 32 32"><defs><style>.cls-1{fill:none;}</style></defs><rect class="cls-1" width="32" height="32"/><path d="M11.69,26.08c-2.35,0-3.48-1.13-3.48-3.48V12.1c.47-.57.94-1.1,1.41-1.6L8.18,9.05a24.62,24.62,0,0,1,3.16-3.13l1.45,1.41A17.78,17.78,0,0,1,14.32,6h6c2.36,0,3.45,1.13,3.48,3.48V22.6c0,2.38-1.09,3.48-3.48,3.48Zm11-3.48V9.43C22.73,7.71,22,7,20.34,7H14.82A43.82,43.82,0,0,0,9.3,12.57v10C9.3,24.33,10,25,11.69,25h8.65C22,25,22.73,24.33,22.73,22.6ZM10.34,9.74c.53-.59,1.07-1.12,1.66-1.66l-.75-.75A13.7,13.7,0,0,0,9.59,9Zm1.91,9.38c.47.09.94.22,1.7.44l1.25-.69L14,18.15a11.44,11.44,0,0,1-1.67.44l-.18-.79c.56-.12,1-.22,1.44-.34-.13-.47-.25-.94-.44-1.44l.78-.22a13.72,13.72,0,0,1,.44,1.66l1.32.72V16.71a10.63,10.63,0,0,1-1.19-1.23L15,15c.38.44.69.78,1,1.1.31-.32.62-.66,1-1.1l.6.53c-.32.35-.66.72-1.23,1.26v1.44l1.32-.72a11,11,0,0,1,.47-1.66L19,16c-.15.5-.28.94-.44,1.44.47.09.94.22,1.45.31l-.19.79a9.55,9.55,0,0,1-1.66-.41l-1.29.72,1.29.72c.94-.28,1.28-.34,1.69-.44l.19.79c-.5.09-1,.22-1.44.34.15.53.28,1,.43,1.41l-.78.22a7.7,7.7,0,0,1-.47-1.63l-1.32-.75V21c.57.53.91.91,1.23,1.26l-.6.53c-.38-.44-.69-.79-1-1.1-.32.31-.63.66-1,1.1l-.59-.53A10.63,10.63,0,0,1,15.64,21V19.53l-1.32.75a13,13,0,0,1-.44,1.63l-.78-.22a14.75,14.75,0,0,0,.44-1.44c-.44-.09-.91-.22-1.48-.35Zm3.8-6.49a2.2,2.2,0,1,1,0-4.39H19.4a2.2,2.2,0,1,1,0,4.39Zm4.54-2.2A1.11,1.11,0,0,0,19.4,9.27H16.05a1.11,1.11,0,0,0-1.19,1.16,1.11,1.11,0,0,0,1.19,1.16H19.4A1.11,1.11,0,0,0,20.59,10.43Z"/></svg>