<svg id="Icones" xmlns="http://www.w3.org/2000/svg" width="32" height="32" viewBox="0 0 32 32"><defs><style>.cls-1{fill:none;}</style></defs><rect class="cls-1" width="32" height="32"/><path d="M6.86,23.81H5.64l4-9h-5V13.78H8V11.33a2.5,2.5,0,0,1-.91.13A2.23,2.23,0,0,1,4.64,9,2,2,0,0,1,6.21,7,2.09,2.09,0,0,1,8.53,4.78,2.1,2.1,0,0,1,10.85,7a2,2,0,0,1,1.57,2A2.24,2.24,0,0,1,10,11.46a2.47,2.47,0,0,1-.88-.13v2.45h2.26ZM7.15,7a2.13,2.13,0,0,0,.12.72A1.39,1.39,0,0,0,5.7,9c0,.91.54,1.38,1.54,1.38a2.06,2.06,0,0,0,1.29-.37,2,2,0,0,0,1.28.37c1,0,1.54-.47,1.54-1.38A1.39,1.39,0,0,0,9.78,7.69,1.93,1.93,0,0,0,9.91,7c0-.72-.54-1.16-1.38-1.16S7.15,6.25,7.15,7ZM15.3,18.23V14.84h1.1v3.39Zm0,2.23h1.1v3.35H15.3ZM27,13.78v1.06H22l4,9H24.8l-4.48-10Z"/></svg>