<svg id="Icones" xmlns="http://www.w3.org/2000/svg" width="32" height="32" viewBox="0 0 32 32"><defs><style>.cls-1{fill:none;}</style></defs><rect class="cls-1" width="32" height="32"/><path d="M5.14,20.11A1.94,1.94,0,0,1,3.51,18v-.56c0-1,.06-1.23.5-1.7l.5-.56,1,.41-.47.53c-.38.44-.44.63-.44,1.47V18c0,.53.15.85.53,1Zm14.24-6.24c-2.7-1.19-3.14-1.32-4.86-1.32-4.14,0-5.43,2.23-8.38,2.23H6l-1.38-.5v-.5h1.1c3,0,4.2-2.29,8.78-2.29,1.82,0,2.76.25,5.36,1.41l3.17,1.41,2.66.38c1.29.18,1.73.5,2.1,1.56a7.14,7.14,0,0,1,.35,2.17c0,1-.57,1.54-1.66,1.69V19c.4-.09.56-.25.56-.56a5.27,5.27,0,0,0-.22-1.63,1.26,1.26,0,0,0-1.25-1.1l-3.05-.44Zm-8.91,5.49H21.16v0a2.09,2.09,0,0,1,2.23-2.2,2.2,2.2,0,1,1,0,4.39,2.11,2.11,0,0,1-2-1.09H10.22a2.14,2.14,0,0,1-2,1.09,2.2,2.2,0,1,1,0-4.39,2.09,2.09,0,0,1,2.23,2.2ZM8.24,18.17a1.1,1.1,0,0,0-1.19,1.16,1.11,1.11,0,0,0,1.19,1.16,1.1,1.1,0,0,0,1.2-1.16A1.08,1.08,0,0,0,8.24,18.17Zm15.15,2.32a1.11,1.11,0,0,0,1.19-1.16,1.1,1.1,0,0,0-1.19-1.16,1.08,1.08,0,0,0-1.19,1.16A1.1,1.1,0,0,0,23.39,20.49Z"/></svg>