<svg id="Icones" xmlns="http://www.w3.org/2000/svg" width="32" height="32" viewBox="0 0 32 32"><defs><style>.cls-1{fill:none;}</style></defs><rect class="cls-1" width="32" height="32"/><path d="M8.34,12.81l2.38,1.78,1.54.38a2.77,2.77,0,0,1,2.45,3,3.43,3.43,0,0,1-.63,2l-.88-.63a2.23,2.23,0,0,0,.41-1.41c0-1.1-.57-1.7-2-2l-1.54-.38L7.77,13.75a5,5,0,0,0-3.13-1.16V11.52A5.72,5.72,0,0,1,8.34,12.81Zm-3.7,6.52H8a2.1,2.1,0,0,1,2.22-2.2,2.09,2.09,0,0,1,2.23,2.2,2.09,2.09,0,0,1-2.23,2.19,2.11,2.11,0,0,1-2-1.13H4.64Zm5.61-1.16a1.1,1.1,0,0,0-1.19,1.16,1.11,1.11,0,0,0,1.19,1.16,1.1,1.1,0,0,0,1.19-1.16A1.08,1.08,0,0,0,10.25,18.17Zm5.18-10,2-.94.28.38L16.21,9.23l2.23,1.44-.22.44-2.79-.75-.51,2.32h-.43L14,10.39l-2.82.88-.22-.41L13.2,9.23,11,6.82l.32-.38L14,8.13l.47-2.54H15Zm7.12,4.46c-1.29,0-1.76.31-3.2,2-1.26,1.54-1.32,1.7-1.32,3v.66a1.28,1.28,0,0,0,.38,1l-.76.69a2.12,2.12,0,0,1-.72-1.73v-.81c0-1.54.1-1.76,1.63-3.58s2.32-2.32,4-2.32H27v1.07ZM27,19.33v1.06H23.39a2.11,2.11,0,0,1-2,1.13,2.2,2.2,0,1,1,0-4.39,2.08,2.08,0,0,1,2.22,2.2Zm-5.61-1.16a1.1,1.1,0,0,0-1.2,1.16,1.11,1.11,0,0,0,1.2,1.16,1.1,1.1,0,0,0,1.19-1.16A1.08,1.08,0,0,0,21.42,18.17Z"/></svg>