<svg id="Icones" xmlns="http://www.w3.org/2000/svg" width="32" height="32" viewBox="0 0 32 32"><defs><style>.cls-1{fill:none;}</style></defs><rect class="cls-1" width="32" height="32"/><path d="M4.64,10.39A2,2,0,0,1,6.86,8.16H24.8A2,2,0,0,1,27,10.39V21.55a2,2,0,0,1-2.23,2.23H6.86a2,2,0,0,1-2.22-2.23Zm1.1,1.13H25.93V10.39c0-.82-.31-1.16-1.13-1.16H6.86c-.81,0-1.12.34-1.12,1.16Zm20.19,3.35V12.59H5.74v2.28ZM6.86,22.71H24.8c.82,0,1.13-.34,1.13-1.16V15.94H5.74v5.61C5.74,22.37,6.05,22.71,6.86,22.71Zm1.2-4.45H15.8v1.07H8.06Zm0,2.2h5.55v1.06H8.06Z"/></svg>