<svg id="Icones" xmlns="http://www.w3.org/2000/svg" width="32" height="32" viewBox="0 0 32 32"><defs><style>.cls-1{fill:none;}</style></defs><rect class="cls-1" width="32" height="32"/><path d="M5.77,19.64c0-1.53.09-1.75,1.63-3.57s2.32-2.32,4-2.32h4A7.55,7.55,0,0,1,19.53,15l2.39,1.79,1.53.38a2.75,2.75,0,0,1,2.45,2.94,3.39,3.39,0,0,1-.63,2l-.87-.62a2.25,2.25,0,0,0,.4-1.42c0-1.09-.56-1.69-2-2l-1.54-.38L19,16a5.4,5.4,0,0,0-3.61-1.16h-4c-1.29,0-1.76.32-3.2,2-1.25,1.54-1.31,1.69-1.31,2.95v.66a1.28,1.28,0,0,0,.37,1l-.75.69a2.1,2.1,0,0,1-.72-1.72Zm13.45,1.92a2.1,2.1,0,0,1,2.23-2.2,2.08,2.08,0,0,1,2.22,2.2,2.1,2.1,0,0,1-2.22,2.19,2.14,2.14,0,0,1-2-1.13H12.23a2.14,2.14,0,0,1-2,1.13,2.2,2.2,0,1,1,0-4.39,2.09,2.09,0,0,1,2.23,2.2Zm-9-1.17a1.1,1.1,0,0,0-1.19,1.17,1.12,1.12,0,0,0,1.19,1.16,1.1,1.1,0,0,0,1.19-1.16A1.08,1.08,0,0,0,10.25,20.39ZM25.9,15.47,20.35,11c-.16.44-.28.78-.44,1.13l-.66.09a17.88,17.88,0,0,1-1.19-1.38c-.56.06-1,.1-1.82.13L16,10.42a14.25,14.25,0,0,1,1-1.66,8.79,8.79,0,0,1-.69-1.82l.38-.41A11.47,11.47,0,0,1,18.5,7,7.28,7.28,0,0,1,20,5.88l.56.25a12.71,12.71,0,0,1,.06,1.81A8.5,8.5,0,0,1,22.17,9l-.06.66c-.32.19-.69.34-1.1.53l5.52,4.46ZM21.13,9.26a6,6,0,0,0-1.25-.81,12.63,12.63,0,0,0,0-1.51,6.66,6.66,0,0,0-1.19,1,9.67,9.67,0,0,0-1.41-.4,7.12,7.12,0,0,0,.56,1.34A8.15,8.15,0,0,0,17,10.17a7.57,7.57,0,0,0,1.54-.12,7.45,7.45,0,0,0,.88,1.09,9.71,9.71,0,0,0,.47-1.31A9.43,9.43,0,0,0,21.13,9.26Zm.32,11.13a1.1,1.1,0,0,0-1.19,1.17,1.12,1.12,0,0,0,1.19,1.16,1.1,1.1,0,0,0,1.19-1.16A1.08,1.08,0,0,0,21.45,20.39Z"/></svg>