<svg id="Icones" xmlns="http://www.w3.org/2000/svg" width="32" height="32" viewBox="0 0 32 32"><defs><style>.cls-1{fill:none;}</style></defs><rect class="cls-1" width="32" height="32"/><path d="M9.29,19.37a3.65,3.65,0,0,1,.88.1L13,16.67l-1.23-1.19.82-.78,4.74,4.73-.79.82-1.19-1.19-2.79,2.79a3.91,3.91,0,0,1,.09.88,3.07,3.07,0,0,1-3.32,3.35A3.08,3.08,0,0,1,6,22.73,3.08,3.08,0,0,1,9.29,19.37Zm0,1.07A2.1,2.1,0,0,0,7,22.73,2.12,2.12,0,0,0,9.29,25a2.1,2.1,0,0,0,2.26-2.29A2.09,2.09,0,0,0,9.29,20.44Zm2.79.28,2.45-2.45-.82-.81L11.26,19.9A2,2,0,0,1,12.08,20.72Zm2-7.59,4.73,4.74-.78.78-4.74-4.74Zm1.6-1.6,1.19,1.19,2.57-2.57a3.91,3.91,0,0,1-.09-.88,3.07,3.07,0,0,1,3.32-3.35A3.08,3.08,0,0,1,26,9.27a3.08,3.08,0,0,1-3.33,3.36,3.65,3.65,0,0,1-.88-.1l-2.54,2.55,1.16,1.19-.78.78-4.74-4.74Zm2.79,2.79L20.7,12.1a3.5,3.5,0,0,1-.81-.82l-2.2,2.23ZM22.71,7a2.1,2.1,0,0,0-2.26,2.29,2.12,2.12,0,0,0,2.26,2.29A2.1,2.1,0,0,0,25,9.27,2.09,2.09,0,0,0,22.71,7Z"/></svg>