<?xml version="1.0" encoding="UTF-8"?><svg xmlns="http://www.w3.org/2000/svg" width="24" height="24" viewBox="0 0 24 24"><defs><style>.c{fill:none;}</style></defs><g id="a"><rect class="c" width="24" height="24"/></g><g id="b"><path d="M6.77,14.68l1.96-1.93-1.19-1.15,.78-.77,4.9,4.86-.77,.77-1.15-1.19-1.96,1.96c.17,.49,.19,1.01,.06,1.5-.13,.5-.4,.94-.78,1.29-1.27,1.27-2.88,1.15-4.34-.28-1.46-1.43-1.55-3.07-.28-4.34,.34-.38,.79-.65,1.28-.77,.49-.13,1.01-.11,1.5,.05h0Zm.74,1.8c-.91-.91-1.96-1.05-2.74-.28-.77,.78-.63,1.83,.28,2.73,.91,.91,1.96,1.03,2.74,.28,.77-.75,.64-1.83-.28-2.74Zm1.24-.28l1.73-1.73-.95-.96-1.73,1.73c.17,.14,.33,.28,.5,.44,.17,.17,.31,.32,.45,.51Zm.39-6.22l.8-.8,4.89,4.89-.8,.81-4.89-4.89Zm1.63-1.63l.77-.79,1.19,1.15,1.94-1.93c-.17-.48-.19-1.01-.06-1.5,.13-.5,.4-.95,.77-1.29,1.27-1.27,2.88-1.15,4.34,.28,1.46,1.43,1.55,3.07,.28,4.34-.35,.38-.79,.65-1.29,.77-.5,.13-1.02,.11-1.5-.05l-1.94,1.93,1.15,1.19-.78,.77-4.88-4.87Zm4.45-.5l-1.69,1.69,.94,.9,1.69-1.68c-.17-.14-.33-.28-.5-.44-.17-.17-.3-.33-.44-.5v.03Zm3.7-2.76c-.91-.91-1.96-1.02-2.74-.28-.77,.74-.64,1.82,.28,2.74,.92,.92,1.96,1.05,2.74,.28,.78-.77,.63-1.85-.28-2.77v.03Z"/></g></svg>