<?xml version="1.0" encoding="UTF-8"?><svg xmlns="http://www.w3.org/2000/svg" width="24" height="24" viewBox="0 0 24 24"><defs><style>.c{fill:none;}</style></defs><g id="a"><rect class="c" width="24" height="24"/></g><g id="b"><path d="M3.99,8.6c-.77,.26-1.47,.51-2.12,.68l-.28-1.02c.65-.2,1.3-.42,1.98-.68-.08-.32-.12-.64-.11-.97,0-2.01,1.64-3.37,4.3-3.37h2.58l.83,.92c-.34,3.82-1.93,5.8-4.33,5.8-.55,.03-1.1-.08-1.6-.32-.5-.24-.92-.61-1.24-1.06h0Zm3.76-1.67c-.82,.42-1.72,.82-2.6,1.18,.2,.25,.46,.44,.75,.58,.29,.13,.6,.2,.92,.2,1.77,0,2.83-1.47,3.17-4.48h-2.24c-1.95,0-3.14,.85-3.14,2.24,0,.18,.02,.36,.05,.54,.85-.37,1.73-.77,2.64-1.18l.45,.92Zm14.64,13.82H4.72V10.87c.37,.2,.77,.34,1.18,.42v8.32H22.42l-.03,1.13Zm-10.59-7.14h-2.36v4.76h-1.18v-5.9h3.54v-3.54h3.54v-3.54h4.72v12.98h-1.18V6.53h-2.36v11.84h-1.18V10.07h-2.36v8.3h-1.18v-4.77Z"/></g></svg>