<?xml version="1.0" encoding="UTF-8"?><svg xmlns="http://www.w3.org/2000/svg" width="24" height="24" viewBox="0 0 24 24"><defs><style>.c{fill:none;}</style></defs><g id="a"><rect class="c" width="24" height="24"/></g><g id="b"><path d="M13.2,18.71l.57,1c-.58,.11-1.17,.16-1.76,.16-4.83,0-7.92-3.09-7.92-7.87s3.09-7.87,7.92-7.87c.61,0,1.22,.05,1.82,.16l-.57,1c-.41-.06-.83-.08-1.25-.08-4.21,0-6.78,2.58-6.78,6.78s2.64,6.78,6.81,6.78c.39,0,.78-.03,1.17-.08h0Zm1.7,.73l-3.9-7.43,3.91-7.43c3.21,1.09,5,3.74,5,7.44s-1.79,6.34-5,7.43h-.01Zm.51-13.51l-3.23,6.08,3.27,6.14c2.33-1.33,3.34-3.48,3.34-6.13s-1.01-4.81-3.37-6.08h-.01Z"/></g></svg>