<svg id="Icones" xmlns="http://www.w3.org/2000/svg" width="32" height="32" viewBox="0 0 32 32"><defs><style>.cls-1{fill:none;}</style></defs><rect class="cls-1" width="32" height="32"/><path d="M14.67,26.07H13.42c-.25-1.16-.6-2.57-1-4H7c-.47,1.5-.82,2.91-1.07,4H4.64A84.55,84.55,0,0,1,9.12,12.62h1.13A79.44,79.44,0,0,1,14.67,26.07ZM12.07,21c-.72-2.45-1.57-5-2.38-7C8.87,16.1,8,18.64,7.27,21Zm10.57,5.11V24.82a4.26,4.26,0,0,1-3.11,1.41c-1.88,0-3-1-3-2.76,0-2,1.1-3,3.3-3h2.73V19.05c0-1.38-.69-2-2.23-2A13,13,0,0,0,17,17.6V16.54A12.49,12.49,0,0,1,20.35,16c2.32,0,3.32.91,3.32,2.95v7.12Zm-.06-2.45V21.56H19.94c-1.63,0-2.29.53-2.29,1.81s.6,1.79,1.88,1.79A4.26,4.26,0,0,0,22.58,23.62ZM19.19,10.36V9.23H27v1.13Z"/></svg>