<?xml version="1.0" encoding="UTF-8"?><svg xmlns="http://www.w3.org/2000/svg" width="24" height="24" viewBox="0 0 24 24"><defs><style>.c{fill:none;}</style></defs><g id="a"><rect class="c" y="0" width="24" height="24"/></g><g id="b"><path d="M9.13,5.74c.03-1.62,1.01-2.34,2.87-2.34s2.87,.72,2.87,2.34h3.44v1.1H5.69v-1.1h3.44Zm-2.29,12.91V8h1.15v10.49c0,.71,.28,1.01,.99,1.01h6.05c.72,0,.99-.3,.99-1.01V8h1.15v10.65c0,1.32-.64,1.96-1.96,1.96h-6.43c-1.32,0-1.94-.64-1.94-1.96Zm2.29-.33V8h1.15v10.32h-1.15Zm1.15-12.58h3.44c-.06-1.07-.67-1.21-1.72-1.21s-1.72,.17-1.72,1.21Zm1.15,12.58V8h1.15v10.32h-1.15Zm2.29,0V8h1.15v10.32h-1.15Z"/></g></svg>