<svg id="Icones" xmlns="http://www.w3.org/2000/svg" width="32" height="32" viewBox="0 0 32 32"><defs><style>.cls-1{fill:none;}</style></defs><rect class="cls-1" width="32" height="32"/><path d="M4.8,7.61A2,2,0,0,1,7,5.38H25A2,2,0,0,1,27.2,7.61V21A2,2,0,0,1,25,23.26h-6.4v2.29h3v1.07H10.42V25.55h3V23.26H7A2,2,0,0,1,4.8,21ZM5.9,17.74H26.1V7.61c0-.81-.32-1.16-1.13-1.16H7c-.81,0-1.13.35-1.13,1.16ZM7,22.19H25c.81,0,1.13-.34,1.13-1.16V18.84H5.9V21C5.9,21.85,6.22,22.19,7,22.19Zm10.44,3.36V23.26H14.56v2.29Zm-.65-5.08c0,.56-.22.81-.82.81s-.82-.25-.82-.81.26-.82.82-.82S16.82,19.87,16.82,20.47Z"/></svg>