<?xml version="1.0" encoding="UTF-8"?><svg xmlns="http://www.w3.org/2000/svg" width="24" height="24" viewBox="0 0 24 24"><defs><style>.c{fill:none;}</style></defs><g id="a"><rect class="c" width="24" height="24"/></g><g id="b"><path d="M1.42,4c0-1.35,.65-2,2-2H20.58c1.35,0,2,.65,2,2v12.47c0,1.36-.65,2-2,2h-6.26v2.4h2.43v1.13H7.26v-1.13h2.43v-2.4H3.43c-1.36,0-2-.65-2-2V4Zm1.18,9.82H21.42V4.17c0-.73-.28-1.05-1.02-1.05H3.6c-.73,0-1.02,.31-1.02,1.05l.02,9.65Zm1.02,3.53H20.41c.73,0,1.02-.31,1.02-1.05v-1.35H2.58v1.35c0,.73,.28,1.05,1.02,1.05h.02Zm9.59,3.53v-2.4h-2.35v2.4h2.35Z"/></g></svg>