<svg id="Icones" xmlns="http://www.w3.org/2000/svg" width="32" height="32" viewBox="0 0 32 32"><defs><style>.cls-1{fill:none;}</style></defs><rect class="cls-1" width="32" height="32"/><path d="M5.74,26H4.64v-.66c0-3.07,1.13-4.92,3.45-5.61A3,3,0,0,1,6.87,17.1a3.1,3.1,0,0,1,3.35-3.35,3.11,3.11,0,0,1,3.36,3.35,3.18,3.18,0,0,1-1.2,2.67c2.33.69,3.45,2.51,3.45,5.61V26H14.74v-.66c0-3.32-1.45-4.92-4.52-4.92s-4.48,1.63-4.48,4.92Zm6.74-8.94a2.08,2.08,0,0,0-2.26-2.29A2.08,2.08,0,0,0,8,17.1a2.08,2.08,0,0,0,2.26,2.29A2.08,2.08,0,0,0,12.48,17.1ZM17,16a5.14,5.14,0,0,1-2.22-4.51c0-3.45,2.35-5.58,6.14-5.58S27,8,27,11.49s-2.35,5.58-6.15,5.58a8.11,8.11,0,0,1-1.53-.13A26.09,26.09,0,0,1,17,19.08l-.72-.85A21.66,21.66,0,0,0,19,15.75a7.71,7.71,0,0,0,1.88.25c3.2,0,5.05-1.66,5.05-4.51S24.08,7,20.88,7s-5,1.66-5,4.52a4.17,4.17,0,0,0,1.85,3.73A2.23,2.23,0,0,1,17,16Z"/></svg>