<svg id="Icones" xmlns="http://www.w3.org/2000/svg" width="32" height="32" viewBox="0 0 32 32"><defs><style>.cls-1{fill:none;}</style></defs><rect class="cls-1" width="32" height="32"/><path d="M14.12,7.64a2.91,2.91,0,0,1,2.79,1.73,14.67,14.67,0,0,1,1.32,6.11,14.72,14.72,0,0,1-1.32,6.12,2.9,2.9,0,0,1-2.79,1.72c-5.3,0-9.32-3.38-9.32-7.84S8.82,7.64,14.12,7.64Zm-.19,14.55a2,2,0,0,0,1.94-1.09,13.9,13.9,0,0,0,1.23-5.62,13.85,13.85,0,0,0-1.23-5.61,2,2,0,0,0-1.94-1.1c-4.52,0-8,2.92-8,6.71S9.41,22.19,13.93,22.19ZM17.82,8.36l9.38,2.7v1.1L18.35,9.62ZM27.2,23.23v1.13l-9-2.57.41-1Zm0-3v1.13L19.07,19l.19-1.07Zm-8.06-8.38L27.2,14.1v1.13L19.36,13Zm8.06,6.46-7.81-2.22V14.92l7.81,2.23Z"/></svg>