<svg id="Icones" xmlns="http://www.w3.org/2000/svg" width="32" height="32" viewBox="0 0 32 32"><defs><style>.cls-1{fill:none;}</style></defs><rect class="cls-1" width="32" height="32"/><path d="M6.3,21.59H5.2v-.66c0-3.08,1.13-4.93,3.45-5.62a3,3,0,0,1-1.22-2.66,3.12,3.12,0,0,1,3.36-3.36,3.11,3.11,0,0,1,3.35,3.36A3.07,3.07,0,0,1,13,15.28a4.17,4.17,0,0,1,2.92,2.57,4,4,0,0,1,2.88-2.57,3.07,3.07,0,0,1-1.19-2.63,3.11,3.11,0,0,1,3.35-3.36,3.12,3.12,0,0,1,3.36,3.36,3,3,0,0,1-1.22,2.66c2.32.69,3.45,2.54,3.45,5.62v.66H25.4v-.66c0-3.3-1.48-4.93-4.49-4.93s-4.51,1.6-4.51,4.93v.66H15.3v-.66c0-3.33-1.44-4.93-4.51-4.93S6.3,17.63,6.3,20.93ZM13,12.65a2.07,2.07,0,0,0-2.25-2.29,2.07,2.07,0,0,0-2.26,2.29,2.07,2.07,0,0,0,2.26,2.29A2.07,2.07,0,0,0,13,12.65Zm10.13,0a2.07,2.07,0,0,0-2.26-2.29,2.07,2.07,0,0,0-2.25,2.29,2.07,2.07,0,0,0,2.25,2.29A2.07,2.07,0,0,0,23.17,12.65Z"/></svg>