<svg id="Icones" xmlns="http://www.w3.org/2000/svg" width="32" height="32" viewBox="0 0 32 32"><defs><style>.cls-1{fill:none;}</style></defs><rect class="cls-1" width="32" height="32"/><path d="M24.94,18.23A20.39,20.39,0,0,1,24,24.37H10.42a140.33,140.33,0,0,1-3.36-16l.63-.72h4.74c4.39,0,7.18,1.06,11.1,4.2A15.75,15.75,0,0,1,24.94,18.23ZM12.43,8.69H8.19c.28,1.82.6,3.7,1,5.62H23.31c-.16-.54-.35-1.1-.6-1.73C19,9.63,16.53,8.69,12.43,8.69ZM23.24,23.31a18.25,18.25,0,0,0,.66-5.08,12.23,12.23,0,0,0-.31-2.86H9.38c.54,2.57,1.16,5.21,1.85,7.94ZM13.71,17.6H11.58V16.53h2.13Z"/></svg>