<svg id="Icones" xmlns="http://www.w3.org/2000/svg" width="32" height="32" viewBox="0 0 32 32"><defs><style>.cls-1{fill:none;}</style></defs><rect class="cls-1" width="32" height="32"/><path d="M5.27,10.7A5.76,5.76,0,0,0,5.83,13l.69,1.47L6,14.78l-.75-1.6a5.27,5.27,0,0,1-.56-2.48A4.77,4.77,0,0,1,7.81,6.13a5,5,0,0,1,4.42-2.51,5.46,5.46,0,0,1,5.2,3.26L18.37,9l-.56.28-1-2.1a4.9,4.9,0,0,0-4.61-2.92,4.53,4.53,0,0,0-4,2.35A4.23,4.23,0,0,0,5.27,10.7Zm2.22,3.36-.75-1.6a4,4,0,0,1-.38-1.76A3.41,3.41,0,0,1,9,7.38a3.5,3.5,0,0,1,3.35-2A3.91,3.91,0,0,1,15.93,7.6l.94,2.07-.94.44L15,8a2.62,2.62,0,0,0-2.58-1.57A2.59,2.59,0,0,0,9.81,8.16c-1.5.38-2.35,1.29-2.35,2.54a3.33,3.33,0,0,0,.28,1.42l.69,1.47Zm9.44,15.3-1.22-2.57-7.06-5.3A2,2,0,0,1,7.77,20a1.78,1.78,0,0,1,1.76-1.79,2.08,2.08,0,0,1,1.32.5l1.63,1.22L8.75,11.83a1.88,1.88,0,0,1-.22-.91A1.75,1.75,0,0,1,10.31,9.2a1.5,1.5,0,0,1,.35,0,1.71,1.71,0,0,1,1.72-1.69,1.73,1.73,0,0,1,1.7,1.13l2.38,5.11a1.79,1.79,0,0,1,1.32-.6,1.68,1.68,0,0,1,1.35.66,1.78,1.78,0,0,1,1.44-.66,2.06,2.06,0,0,1,1.82,1.38l.88,1.79A10.62,10.62,0,0,1,24.65,21a8.57,8.57,0,0,1-.29,1.69l-.25.85.94,2-1,.5-1.13-2.41.31-1a6.14,6.14,0,0,0,.26-1.72,8.54,8.54,0,0,0-1-3.7l-1.13-2.32c-.22-.47-.47-.66-.84-.66a1,1,0,0,0-.85.56h-1a1,1,0,0,0-.91-.56,1,1,0,0,0-.91.56h-1.1l-2.66-5.7a.76.76,0,0,0-.69-.54.71.71,0,0,0-.76.66.91.91,0,0,0,.13.47l2.66,5.77-1,.44-2.41-5.14a.76.76,0,0,0-.69-.54.72.72,0,0,0-.76.66,1,1,0,0,0,.13.47l4.61,10-1,.44-3.3-2.36a1.08,1.08,0,0,0-.53-.22.64.64,0,0,0-.69.69c0,.32.13.51.53.82l7.22,5.39,1.28,2.79Z"/></svg>