<svg id="Icones" xmlns="http://www.w3.org/2000/svg" width="32" height="32" viewBox="0 0 32 32"><defs><style>.cls-1{fill:none;}</style></defs><rect class="cls-1" width="32" height="32"/><path d="M14.86,8.76a4.62,4.62,0,0,0-4.42-2.82A4.94,4.94,0,0,0,5.27,10.7,4.72,4.72,0,0,0,5.83,13l.69,1.47L6,14.78l-.75-1.6a4.86,4.86,0,0,1-.56-2.48,5.59,5.59,0,0,1,5.8-5.36,5.15,5.15,0,0,1,5,3.2L16.12,10l-.57.25Zm-1.94.88a2.58,2.58,0,0,0-2.48-1.57,2.8,2.8,0,0,0-3,2.63,3.43,3.43,0,0,0,.28,1.42l.69,1.47-.94.47-.75-1.6a4,4,0,0,1-.38-1.76A3.91,3.91,0,0,1,10.44,7a3.82,3.82,0,0,1,3.45,2.23l.72,1.51-1,.43Zm10.35,6.71A10.62,10.62,0,0,1,24.65,21a7.38,7.38,0,0,1-.29,1.69l-.25.85.94,2-1,.5-1.13-2.41.31-1a6.82,6.82,0,0,0,.26-1.72,8.54,8.54,0,0,0-1-3.7l-1.13-2.32c-.22-.47-.47-.66-.84-.66a1,1,0,0,0-.85.56h-1a1,1,0,0,0-.91-.56,1,1,0,0,0-.91.56h-1a1.07,1.07,0,0,0-1-.56,1.05,1.05,0,0,0-1,.56H13l-1.91-4a.76.76,0,0,0-.69-.54.72.72,0,0,0-.76.66,1,1,0,0,0,.13.47l4.61,10-1,.44-3.3-2.36a.74.74,0,0,0-.53-.22.64.64,0,0,0-.69.69c0,.32.13.51.53.82l7.22,5.39,1.28,2.79-1,.44-1.22-2.57-7.06-5.3A2,2,0,0,1,7.77,20a1.78,1.78,0,0,1,1.76-1.79,2.08,2.08,0,0,1,1.32.5l1.63,1.22L8.75,11.83a1.88,1.88,0,0,1-.22-.91A1.77,1.77,0,0,1,10.31,9.2a2,2,0,0,1,1.76,1.1l1.57,3.41a1.77,1.77,0,0,1,1.28-.53,1.7,1.7,0,0,1,1.45.72,1.7,1.7,0,0,1,1.41-.72,1.68,1.68,0,0,1,1.35.66,1.78,1.78,0,0,1,1.44-.66,2.06,2.06,0,0,1,1.82,1.38Z"/></svg>