<svg id="Icones" xmlns="http://www.w3.org/2000/svg" width="32" height="32" viewBox="0 0 32 32"><defs><style>.cls-1{fill:none;}</style></defs><rect class="cls-1" width="32" height="32"/><path d="M14.37,4.8V5.87H5.46V4.8ZM8.57,27.2l-2-2v-2.7l1.69-1.72v-7H5.46V7.06h8.91v6.68H11.61v6l4.26-4.26L15.4,15V12l3.23-3.23,6.31,6.3L20.2,19.83l-1.94-2-5,5v2.32l-2,2Zm-2-19.07v4.55h6.71V8.13ZM9,21.52,7.66,22.9v1.82L9,26.1h1.79l1.38-1.38V22.9l-1.38-1.38Zm.34-1.1h1.1V13.74H9.38Zm2.54.63.76.78,4.79-4.76-.78-.79Zm6.75-10.73-2.2,2.17v2.1l3.7,3.7,3.23-3.23Zm7.87,3.17-.76.75-6.3-6.3.75-.75Z"/></svg>