<svg id="Icones" xmlns="http://www.w3.org/2000/svg" width="32" height="32" viewBox="0 0 32 32"><defs><style>.cls-1{fill:none;}</style></defs><rect class="cls-1" width="32" height="32"/><path d="M12.23,4.21a4.53,4.53,0,0,0-4,2.35,4.23,4.23,0,0,0-3,4.14A6.32,6.32,0,0,0,5.83,13l.69,1.47L6,14.78l-.75-1.6a6.73,6.73,0,0,1-.56-2.48A4.77,4.77,0,0,1,7.81,6.13a5,5,0,0,1,4.42-2.51A4.53,4.53,0,0,1,14,4a5.34,5.34,0,0,1,1.7-.34c1.94,0,3.45,1.07,4.48,3.14l.53,1.06-.56.25L19.6,7a4.25,4.25,0,0,0-3.92-2.76,4,4,0,0,0-1.7.34A4.69,4.69,0,0,0,12.23,4.21ZM7.49,14.06l-.75-1.6a4,4,0,0,1-.38-1.76A3.41,3.41,0,0,1,9,7.38a3.5,3.5,0,0,1,3.35-2,3,3,0,0,1,1.48.35,3.62,3.62,0,0,1,1.5-.35,3.33,3.33,0,0,1,3.26,2.17l.54,1.06-1,.44-.53-1.1a2.36,2.36,0,0,0-2.29-1.5,2.7,2.7,0,0,0-1.53.47,2.31,2.31,0,0,0-1.45-.47A2.59,2.59,0,0,0,9.81,8.16c-1.5.38-2.35,1.29-2.35,2.54a3.33,3.33,0,0,0,.28,1.42l.69,1.47Zm9.44,15.3-1.22-2.57-7.06-5.3A2,2,0,0,1,7.77,20a1.78,1.78,0,0,1,1.76-1.79,2.08,2.08,0,0,1,1.32.5l1.63,1.22L8.75,11.83a1.88,1.88,0,0,1-.22-.91A1.75,1.75,0,0,1,10.31,9.2a1.5,1.5,0,0,1,.35,0,1.71,1.71,0,0,1,1.72-1.69,1.62,1.62,0,0,1,1.45.78,1.46,1.46,0,0,1,1.38-.78,1.69,1.69,0,0,1,1.66,1.13l2.35,5a1.9,1.9,0,0,1,1.35-.53,2.06,2.06,0,0,1,1.82,1.38l.88,1.79A10.62,10.62,0,0,1,24.65,21a8.24,8.24,0,0,1-.29,1.69l-.25.85.94,2-1,.5-1.13-2.41.31-1a6.84,6.84,0,0,0,.26-1.72,8.54,8.54,0,0,0-1-3.7l-1.13-2.32c-.22-.47-.47-.66-.84-.66a1,1,0,0,0-.85.56h-1.1L15.9,9.11a.76.76,0,0,0-.69-.54.71.71,0,0,0-.76.66.91.91,0,0,0,.13.47L17.06,15l-1,.44-3-6.36a.76.76,0,0,0-.69-.54.71.71,0,0,0-.76.66.91.91,0,0,0,.13.47l2.66,5.77-1,.44-2.41-5.14a.76.76,0,0,0-.69-.54.72.72,0,0,0-.76.66,1,1,0,0,0,.13.47l4.61,10-1,.44-3.3-2.36a1.08,1.08,0,0,0-.53-.22.64.64,0,0,0-.69.69c0,.32.13.51.53.82l7.22,5.39,1.28,2.79Z"/></svg>