<svg id="Icones" xmlns="http://www.w3.org/2000/svg" width="32" height="32" viewBox="0 0 32 32"><defs><style>.cls-1{fill:none;}</style></defs><rect class="cls-1" width="32" height="32"/><path d="M6.58,17.51a48.57,48.57,0,0,1-4.8-.88l-.37-.78a43.81,43.81,0,0,1,2.41-4.27l.82.57c-.88,1.28-1.35,2-1.92,3l5.74-2.7.44,1L3.1,16.07c1.13.22,2,.31,3.58.47ZM9.87,13l-.75-1.6a4,4,0,0,1-.37-1.75,3.42,3.42,0,0,1,2.66-3.33,3.51,3.51,0,0,1,3.36-2,3.91,3.91,0,0,1,3.54,2.22l.94,2.07L18.31,9l-1-2.1a2.64,2.64,0,0,0-2.57-1.57A2.57,2.57,0,0,0,12.2,7.1c-1.51.37-2.36,1.25-2.36,2.54a3.32,3.32,0,0,0,.29,1.41l.69,1.47ZM19.31,28.3l-1.22-2.57-7-5.3a2,2,0,0,1-.88-1.54,1.78,1.78,0,0,1,1.75-1.79,2.14,2.14,0,0,1,1.32.5l1.63,1.23-3.73-8.06a1.93,1.93,0,0,1-.22-.91A1.76,1.76,0,0,1,12.7,8.13a1.42,1.42,0,0,1,.34,0,1.72,1.72,0,0,1,1.73-1.69A1.74,1.74,0,0,1,16.46,7.6l2.38,5.11a1.78,1.78,0,0,1,1.32-.59,1.67,1.67,0,0,1,1.35.65A1.78,1.78,0,0,1,23,12.12a2.06,2.06,0,0,1,1.82,1.38l.88,1.78A10.62,10.62,0,0,1,27,19.92a7.32,7.32,0,0,1-.28,1.7l-.25.84.94,2-1,.5L25.3,22.59l.32-1a6.85,6.85,0,0,0,.25-1.73,8.65,8.65,0,0,0-1-3.7l-1.13-2.32c-.22-.47-.47-.66-.85-.66a1,1,0,0,0-.85.57h-1a1,1,0,0,0-1.82,0h-1.1L15.49,8a.75.75,0,0,0-.69-.53.7.7,0,0,0-.75.65,1,1,0,0,0,.12.47l2.67,5.77-1,.44L13.45,9.7a.76.76,0,0,0-.69-.53.7.7,0,0,0-.75.66,1,1,0,0,0,.12.47l4.61,10-1,.44-3.29-2.35a1.05,1.05,0,0,0-.53-.22.65.65,0,0,0-.7.69c0,.31.13.5.54.81L19,25.07l1.29,2.79ZM24.83,9,24,8.48c.88-1.29,1.35-2,1.91-3L20.19,8.16l-.44-1,5.8-2.63A33.47,33.47,0,0,0,22,4.09l.09-1a47.92,47.92,0,0,1,4.8.87l.38.79A43,43,0,0,1,24.83,9Z"/></svg>