<svg id="Icones" xmlns="http://www.w3.org/2000/svg" width="32" height="32" viewBox="0 0 32 32"><defs><style>.cls-1{fill:none;}</style></defs><rect class="cls-1" width="32" height="32"/><path d="M6.58,17.51a48.57,48.57,0,0,1-4.8-.88l-.37-.78a43.81,43.81,0,0,1,2.41-4.27l.82.57c-.88,1.28-1.35,2-1.92,3l5.74-2.7.44,1L3.1,16.07c1.13.22,2,.31,3.58.47ZM9.87,13l-.75-1.6a4,4,0,0,1-.37-1.75,3.42,3.42,0,0,1,2.66-3.33,3.51,3.51,0,0,1,3.36-2,3.19,3.19,0,0,1,1.47.34,3.51,3.51,0,0,1,1.51-.34A3.34,3.34,0,0,1,21,6.47l.53,1.07-1,.44L20,6.88a2.37,2.37,0,0,0-2.29-1.51,2.73,2.73,0,0,0-1.54.47,2.3,2.3,0,0,0-1.44-.47A2.57,2.57,0,0,0,12.2,7.1c-1.51.37-2.36,1.25-2.36,2.54a3.32,3.32,0,0,0,.29,1.41l.69,1.47ZM19.31,28.3l-1.22-2.57-7-5.3a2,2,0,0,1-.88-1.54,1.78,1.78,0,0,1,1.75-1.79,2.14,2.14,0,0,1,1.32.5l1.63,1.23-3.73-8.06a1.93,1.93,0,0,1-.22-.91A1.76,1.76,0,0,1,12.7,8.13a1.42,1.42,0,0,1,.34,0,1.72,1.72,0,0,1,1.73-1.69,1.61,1.61,0,0,1,1.44.78,1.46,1.46,0,0,1,1.38-.78A1.7,1.7,0,0,1,19.25,7.6l2.35,5.05A1.86,1.86,0,0,1,23,12.12a2.06,2.06,0,0,1,1.82,1.38l.88,1.78A10.62,10.62,0,0,1,27,19.92a7.91,7.91,0,0,1-.28,1.7l-.25.84.94,2-1,.5L25.3,22.59l.32-1a6.85,6.85,0,0,0,.25-1.73,8.65,8.65,0,0,0-1-3.7l-1.13-2.32c-.22-.47-.47-.66-.85-.66a1,1,0,0,0-.85.57H21L18.28,8a.75.75,0,0,0-.69-.53.7.7,0,0,0-.75.65,1,1,0,0,0,.12.47L19.44,14l-1,.43L15.49,8a.75.75,0,0,0-.69-.53.7.7,0,0,0-.75.65,1,1,0,0,0,.12.47l2.67,5.77-1,.44L13.45,9.7a.76.76,0,0,0-.69-.53.7.7,0,0,0-.75.66,1,1,0,0,0,.12.47l4.61,10-1,.44-3.29-2.35a1.05,1.05,0,0,0-.53-.22.65.65,0,0,0-.7.69c0,.31.13.5.54.81L19,25.07l1.29,2.79ZM27.15,8l-.81-.57c.88-1.28,1.35-2,1.91-3L22.51,7.1l-.44-1,5.81-2.64c-1.13-.22-2-.31-3.58-.47l.09-1a47.53,47.53,0,0,1,4.8.88l.38.78A44.14,44.14,0,0,1,27.15,8Z"/></svg>