<svg id="Icones" xmlns="http://www.w3.org/2000/svg" width="32" height="32" viewBox="0 0 32 32"><defs><style>.cls-1{fill:none;}</style></defs><rect class="cls-1" width="32" height="32"/><path d="M6.58,17.51a48.57,48.57,0,0,1-4.8-.88l-.37-.78a43.81,43.81,0,0,1,2.41-4.27l.82.57c-.88,1.28-1.35,2-1.92,3l5.74-2.7.44,1L3.1,16.07c1.13.22,2,.31,3.58.47ZM15.3,8.57A2.58,2.58,0,0,0,12.82,7a2.8,2.8,0,0,0-3,2.64,3.42,3.42,0,0,0,.29,1.41l.69,1.47L9.88,13l-.76-1.6a4,4,0,0,1-.37-1.75,3.89,3.89,0,0,1,4.07-3.7,3.8,3.8,0,0,1,3.45,2.22L17,9.67l-1,.44Zm10.35,6.71A10.83,10.83,0,0,1,27,19.92a8.62,8.62,0,0,1-.28,1.7l-.25.84.94,2-1,.5L25.3,22.59l.32-1a6.31,6.31,0,0,0,.25-1.73,8.33,8.33,0,0,0-1-3.7l-1.13-2.32c-.22-.47-.47-.66-.85-.66a1,1,0,0,0-.85.57h-1a1,1,0,0,0-1.82,0h-1a1.11,1.11,0,0,0-1.94,0h-1L13.45,9.7a.76.76,0,0,0-.69-.53.7.7,0,0,0-.75.66,1,1,0,0,0,.12.47l4.61,10-1,.44-3.29-2.35a.69.69,0,0,0-.53-.22.65.65,0,0,0-.7.69c0,.31.13.5.54.81L19,25.07l1.29,2.79-1,.44-1.22-2.57-7-5.3a2,2,0,0,1-.88-1.54,1.78,1.78,0,0,1,1.75-1.79,2.14,2.14,0,0,1,1.32.5l1.63,1.23-3.73-8.06a1.93,1.93,0,0,1-.22-.91A1.78,1.78,0,0,1,12.7,8.13a1.94,1.94,0,0,1,1.75,1.1L16,12.65a1.77,1.77,0,0,1,1.29-.53,1.69,1.69,0,0,1,1.44.72,1.71,1.71,0,0,1,1.41-.72,1.67,1.67,0,0,1,1.35.65A1.78,1.78,0,0,1,23,12.12a2.06,2.06,0,0,1,1.82,1.38Zm-3-5.14-.82-.56c.88-1.29,1.35-2,1.91-3L18,9.26l-.44-1,5.8-2.63a34.06,34.06,0,0,0-3.58-.47l.1-1a48.57,48.57,0,0,1,4.8.88l.37.78A46,46,0,0,1,22.61,10.14Z"/></svg>