<svg id="Icones" xmlns="http://www.w3.org/2000/svg" width="32" height="32" viewBox="0 0 32 32"><defs><style>.cls-1{fill:none;}</style></defs><rect class="cls-1" width="32" height="32"/><path d="M6.9,11.55h.62a6.46,6.46,0,0,1,4.17,1.29l1.67,1.25L15.05,12a3.59,3.59,0,0,1,2.73-1.63,2.57,2.57,0,0,1,1.41.41l-.53,1a1.7,1.7,0,0,0-.88-.28c-.66,0-1.32.44-2.13,1.47l-1.42,1.7,1.38.34A2.76,2.76,0,0,1,18.06,18a3.43,3.43,0,0,1-.63,2l-.87-.63A2.22,2.22,0,0,0,17,18c0-1.1-.56-1.7-2-2l-1.54-.38-2.32-1.75a5.35,5.35,0,0,0-3.61-1.16H6.9Zm0,7.81h4.48a2.1,2.1,0,0,1,2.23-2.2,2.08,2.08,0,0,1,2.22,2.2,2.1,2.1,0,0,1-2.22,2.2,2.14,2.14,0,0,1-2-1.13H6.9Zm6.71-1.16a1.1,1.1,0,0,0-1.19,1.16,1.11,1.11,0,0,0,1.19,1.16,1.1,1.1,0,0,0,1.19-1.16A1.08,1.08,0,0,0,13.61,18.2Zm5.67-3.32c0-1.13.47-2.39,1.63-4.46H22c1.16,2.17,1.6,3.39,1.6,4.46A2,2,0,0,1,21.48,17,2,2,0,0,1,19.28,14.88Zm3.33,0c0-.85-.19-1.42-1.13-3.42a7.28,7.28,0,0,0-1.16,3.42A1.11,1.11,0,0,0,21.48,16,1.06,1.06,0,0,0,22.61,14.88Z"/></svg>