<?xml version="1.0" encoding="UTF-8"?><svg xmlns="http://www.w3.org/2000/svg" width="24" height="24" viewBox="0 0 24 24"><defs><style>.c{fill:none;}</style></defs><g id="a"><rect class="c" width="24" height="24"/></g><g id="b"><path d="M2.9,12.08l.6-3.34,1.08,.19-.56,3.36-1.12-.21Zm2.23,5.88l-1.7-2.95,.98-.56,1.69,2.93-.98,.59Zm-.16-11.79l2.6-2.15,.71,.84-2.58,2.2-.73-.89Zm5.65,14.86l-3.21-1.19,.38-1.06,3.2,1.17-.37,1.08Zm-1.01-5.61l-.98-.56c.85-2.16,1.89-4.24,3.12-6.21h.68c1.22,1.98,2.26,4.06,3.12,6.21l-.98,.56h-4.97Zm4.56-1.08c-.61-1.41-1.31-2.78-2.1-4.1-.76,1.32-1.44,2.69-2.03,4.1h4.13ZM10.36,2.97h3.39v1.13h-3.39v-1.13Zm5.42,17.22l-2.23,.81-.38-1.03,2.2-.79,.41,1Zm.76-16.22l2.6,2.2-.71,.84-2.6-2.17,.71-.87Zm2.12,14.83h-.65l.65-2.26h-1.58l1.03-3.39h1.69l-1.01,2.26h2.12l-2.27,3.39Zm1.98-10.09l.46,2.65h-1.13l-.41-2.44,1.07-.21Z"/></g></svg>