<svg id="Icones" xmlns="http://www.w3.org/2000/svg" width="32" height="32" viewBox="0 0 32 32"><defs><style>.cls-1{fill:none;}</style></defs><rect class="cls-1" width="32" height="32"/><path d="M10.28,20.83c-1.88.72-3.7,1.32-5.36,1.79l-.28-1c1.69-.54,3.39-1.1,5.08-1.73a6.53,6.53,0,0,1-.6-2.76c0-4.8,4-7.81,10.35-7.81h6.71l.82.88Q25.4,23.76,16.49,23.78A7.42,7.42,0,0,1,10.28,20.83Zm8.88-3.92a84.54,84.54,0,0,1-7.81,3.52,6.4,6.4,0,0,0,5.14,2.29c5.24,0,8.41-4.18,9.38-12.36h-6.4c-5.77,0-9.25,2.54-9.25,6.74a5.47,5.47,0,0,0,.53,2.38c2.67-1,5.33-2.19,8-3.51Z"/></svg>