<svg id="Icones" xmlns="http://www.w3.org/2000/svg" width="32" height="32" viewBox="0 0 32 32"><defs><style>.cls-1{fill:none;}</style></defs><rect class="cls-1" width="32" height="32"/><path d="M6.49,13.4c-1.13.44-2.23.79-3.2,1.07L3,13.53c1-.29,2-.63,3-1a4.59,4.59,0,0,1-.22-1.38C5.77,8.57,7.81,7,11.1,7h3.45l.66.78c-.47,4.67-2.29,7.06-5.43,7.06A3.93,3.93,0,0,1,6.49,13.4Zm4.61-2.07C10,11.93,8.78,12.46,7.59,13a3,3,0,0,0,2.19.85c2.45,0,3.86-1.85,4.33-5.71h-3c-2.64,0-4.23,1.13-4.23,3a2.5,2.5,0,0,0,.18,1c1.16-.47,2.39-1,3.64-1.63Zm2.51,11.35h-1.1V17.13H17V12.65h4.49V8.16H27V22.68h-1.1V9.23H22.58V22.68h-1.1v-9H18.09v9H17V18.2H13.61Zm-1.1,1.16H27v1.07H12.51Z"/></svg>