<?xml version="1.0" encoding="UTF-8"?><svg xmlns="http://www.w3.org/2000/svg" width="24" height="24" viewBox="0 0 24 24"><defs><style>.c{fill:none;}</style></defs><g id="a"><rect class="c" width="24" height="24"/></g><g id="b"><path d="M2.95,18.8c.18-1.72,.51-3.42,1-5.08L15.53,2.04l5.02,5.08-11.6,11.62c-1.66,.49-3.36,.8-5.08,.95l-.91-.9Zm2.79-.41c.85-.15,1.69-.33,2.52-.57-1.08-1.22-2.14-2.26-3.39-3.47-.25,.84-.45,1.69-.6,2.55,.52,.51,.95,.94,1.47,1.49Zm-.11-4.82c1.16,1.08,2.31,2.22,3.44,3.47L18.98,7.14l-3.45-3.47L5.63,13.56Zm.73,7.26h14.69v1.13H6.36v-1.13Z"/></g></svg>