<svg id="Icones" xmlns="http://www.w3.org/2000/svg" width="32" height="32" viewBox="0 0 32 32"><defs><style>.cls-1{fill:none;}</style></defs><rect class="cls-1" width="32" height="32"/><path d="M8,21.37c-2.76-.54-4.48-2.79-4.48-6,0-3.8,2.38-6.15,6.18-6.15h3.92c.22-1.41,1.28-2.16,3.07-2.16h2.48v1h2.32v1H19.16v1.44h2.32v1H19.16v.94H16.68c-1.72,0-2.85-.81-3.07-2.19H9.69a4.72,4.72,0,0,0-5.08,5.08C4.61,18,5.83,19.67,8,20.27c.07-1.1.29-1.44,1.63-3,1.57-1.88,2.33-2.32,4-2.32h4a6.76,6.76,0,0,1,4.17,1.28L24.14,18l1.54.38a2.75,2.75,0,0,1,2.45,2.94,3.39,3.39,0,0,1-.63,2l-.88-.62A2.2,2.2,0,0,0,27,21.3c0-1.09-.56-1.69-2-2l-1.53-.38L21.2,17.13A5.4,5.4,0,0,0,17.59,16h-4c-1.29,0-1.76.32-3.2,2C9.15,19.55,9.09,19.7,9.09,21v.66a1.28,1.28,0,0,0,.38,1l-.75.69A2.08,2.08,0,0,1,8,21.62Zm13.46,1.35a2.1,2.1,0,0,1,2.22-2.2,2.2,2.2,0,1,1,0,4.39,2.11,2.11,0,0,1-2-1.13H14.45a2.11,2.11,0,0,1-2,1.13,2.2,2.2,0,1,1,0-4.39,2.09,2.09,0,0,1,2.23,2.2Zm-9-1.17a1.1,1.1,0,0,0-1.19,1.17,1.12,1.12,0,0,0,1.19,1.16,1.1,1.1,0,0,0,1.19-1.16A1.08,1.08,0,0,0,12.48,21.55ZM18.12,8.07H16.68c-1.32,0-2.07.63-2.07,1.72s.72,1.79,2.07,1.79h1.44Zm5.55,13.48a1.1,1.1,0,0,0-1.19,1.17,1.12,1.12,0,0,0,1.19,1.16,1.1,1.1,0,0,0,1.2-1.16A1.09,1.09,0,0,0,23.67,21.55Z"/></svg>