<svg id="Icones" xmlns="http://www.w3.org/2000/svg" width="32" height="32" viewBox="0 0 32 32"><defs><style>.cls-1{fill:none;}</style></defs><rect class="cls-1" width="32" height="32"/><path d="M22.55,8.16V9.83H25.9v1.06H22.55v2.39H25.9v1.06H22.55V16H19.19c-2.6,0-4.3-1.28-4.48-3.38H10.22c-2,0-3.35,1.09-3.35,2.76,0,1.47,1,2.41,3.26,3l1.78.47c2.8.72,4,1.85,4,3.82S14.39,26.07,12,26.07H10.25V24.94H12.2a2.23,2.23,0,0,0,2.54-2.26c0-1.34-.91-2.19-2.86-2.66l-1.79-.44c-2.91-.72-4.32-2.07-4.32-4.2s1.85-3.86,4.45-3.86h4.49c.18-2.07,1.91-3.36,4.48-3.36ZM15.8,12.08c0,1.82,1.23,2.86,3.39,2.86h2.26V9.23H19.19C17,9.23,15.8,10.26,15.8,12.08Z"/></svg>