<?xml version="1.0" encoding="UTF-8"?><svg xmlns="http://www.w3.org/2000/svg" width="24" height="24" viewBox="0 0 24 24"><defs><style>.c{fill:none;}</style></defs><g id="a"><rect class="c" width="24" height="24"/></g><g id="b"><path d="M4.85,14.31c-2.61-.92-3.85-1.84-3.85-3.85,0-2.18,1.61-3.82,4.51-3.82h3.91c.2-2.3,1.92-3.59,4.88-3.59h4.62v1.84h4.07v1.2h-4.07v2.24h4.05v1.2h-4.05v1.79h-4.6c-2.87,0-4.6-1.27-4.88-3.54h-3.93c-2.24,0-3.33,1.03-3.33,2.64,0,1.38,1.12,2.07,2.82,2.65l1.32,.45c2.79,.84,4.22,1.79,4.22,3.88s-1.35,3.54-4.65,3.54H3.36v-1.2h2.47c2.18,0,3.53-.75,3.53-2.36s-1.15-1.98-3.19-2.67l-1.32-.41Zm12.89-4.08V4.19h-3.42c-2.55,0-3.73,.92-3.73,2.93s1.2,3.1,3.73,3.1l3.42,.02Z"/></g></svg>