<?xml version="1.0" encoding="UTF-8"?><svg xmlns="http://www.w3.org/2000/svg" width="24" height="24" viewBox="0 0 24 24"><defs><style>.c{fill:none;}</style></defs><g id="a"><rect class="c" width="24" height="24"/></g><g id="b"><path d="M4.85,14.18c-2.61-.92-3.85-1.84-3.85-3.85,0-2.18,1.61-3.82,4.51-3.82h3.91c.2-2.3,1.92-3.59,4.88-3.59h4.62v1.84h4.07v1.2h-4.07v2.24h4.05v1.2h-4.05v1.79h-4.62c-2.87,0-4.6-1.27-4.88-3.54h-3.91c-2.24,0-3.33,1.03-3.33,2.64,0,1.38,1.12,2.07,2.82,2.65l1.32,.45c2.79,.84,4.22,1.79,4.22,3.88s-1.35,3.54-4.65,3.54H3.36v-1.2h2.47c2.18,0,3.53-.75,3.53-2.36s-1.15-1.98-3.19-2.67l-1.32-.41Zm12.89-4.08V4.05h-3.45c-2.55,0-3.73,.92-3.73,2.93s1.2,3.1,3.73,3.1l3.45,.02Zm0,10.97h-.46c-1.19-1.53-2.3-3.13-3.3-4.79l1.01-.63c.77,1.28,1.6,2.51,2.5,3.7,1.31-2.06,2.47-4.21,3.48-6.43l1.03,.51c-1.2,2.65-2.62,5.2-4.25,7.62v.02Z"/></g></svg>