<svg id="Icones" xmlns="http://www.w3.org/2000/svg" width="32" height="32" viewBox="0 0 32 32"><defs><style>.cls-1{fill:none;}</style></defs><rect class="cls-1" width="32" height="32"/><path d="M23.64,10.36V26H8V5.91h11.2A31.15,31.15,0,0,1,23.64,10.36Zm-1.1,14.58V11.43H18.09V7h-9v18Zm-6.71-3.42c-2.76,0-4.42-1.6-4.42-4.23A4.44,4.44,0,0,1,16,12.68a4,4,0,0,1,4.27,3.92,2.47,2.47,0,0,1-2.2,2.7,1.41,1.41,0,0,1-1.25-.72,2.2,2.2,0,0,1-1.51.72,1.62,1.62,0,0,1-1.63-1.76A2.41,2.41,0,0,1,15.83,15a1.5,1.5,0,0,1,1.1.41l.06-.35h1a25.72,25.72,0,0,0-.38,2.7c0,.44.16.6.53.6.66,0,1.13-.72,1.13-1.76a3,3,0,0,0-3.26-3,3.47,3.47,0,0,0-3.57,3.64c0,2.07,1.22,3.26,3.41,3.26Zm-.4-3.16a1.37,1.37,0,0,0,1.19-.63,9.73,9.73,0,0,1,.15-1.29,1.07,1.07,0,0,0-.87-.5,1.4,1.4,0,0,0-1.23,1.54C14.67,18,14.92,18.36,15.43,18.36Zm6.83-8a28.46,28.46,0,0,0-3.1-3v3Z"/></svg>