<?xml version="1.0" encoding="UTF-8"?><svg xmlns="http://www.w3.org/2000/svg" width="24" height="24" viewBox="0 0 24 24"><defs><style>.c{fill:none;}</style></defs><g id="a"><rect class="c" width="24" height="24"/></g><g id="b"><path d="M2.42,13.09H1.29v2.82H.16v-6.77H1.29v2.79h1.13V6.93H6.93v-1.13H3.53v-1.13h7.89v1.13h-3.38v1.13h7.05l4.25,5.33v1.44h1.13v-2.26h3.38v7.89h-3.38v-2.26h-1.13v2.26H5.34l-2.93-2.86v-3.37Zm15.79-.51l-3.74-4.54H3.55v8.01l2.22,2.17h12.4v-2.26h3.38v2.26h1.13v-5.64h-1.13v2.26h-3.38l.03-2.25Zm-11.05,3.35h-.65l.65-2.26h-1.57l1.03-3.38h1.69l-1,2.26h2.11l-2.26,3.38Zm3.17-1.87c0-.98,.65-1.97,1.76-3.76h.98c1.13,1.87,1.76,2.82,1.76,3.76,0,1.22-.98,2.03-2.26,2.03s-2.24-.81-2.24-2.03Zm3.43-.06c0-.56-.29-.97-1.19-2.65-.86,1.57-1.19,2.03-1.19,2.65,.03,.29,.17,.56,.39,.76,.22,.2,.51,.3,.8,.3,.3,0,.58-.1,.81-.29,.22-.2,.36-.47,.38-.77h0Z"/></g></svg>