<?xml version="1.0" encoding="UTF-8"?><svg xmlns="http://www.w3.org/2000/svg" width="24" height="24" viewBox="0 0 24 24"><defs><style>.c{fill:none;}</style></defs><g id="a"><rect class="c" width="24" height="24"/></g><g id="b"><path d="M2.42,13.1H1.29v2.82H.16v-6.77H1.29v2.79h1.13V6.92H6.93v-1.13H3.54v-1.13h7.89v1.13h-3.38v1.13h7.03l4.25,5.33v1.44h1.13v-2.26h3.38v7.89h-3.38v-2.26h-1.13v2.26H5.34l-2.93-2.87v-3.37Zm15.79-.51l-3.74-4.55H3.55v8.01l2.22,2.17h12.4v-2.26h3.38v2.26h1.13v-5.64h-1.13v2.26h-3.38l.03-2.24Zm-10.15,1.49c0-.98,.65-1.98,1.76-3.77h.98c1.13,1.87,1.76,2.85,1.76,3.77,0,.28-.07,.57-.19,.83-.12,.26-.29,.49-.5,.68s-.46,.34-.73,.43c-.27,.09-.56,.12-.84,.1-1.27,0-2.22-.81-2.22-2.03h-.02Zm3.44-.06c0-.56-.3-.98-1.19-2.65-.87,1.57-1.19,2.03-1.19,2.65,.03,.29,.17,.56,.39,.76,.22,.2,.51,.3,.8,.3,.3,.01,.59-.09,.82-.28,.23-.2,.37-.47,.39-.77h-.02Z"/></g></svg>