<svg id="Icones" xmlns="http://www.w3.org/2000/svg" width="32" height="32" viewBox="0 0 32 32"><defs><style>.cls-1{fill:none;}</style></defs><rect class="cls-1" width="32" height="32"/><path d="M6.87,17.07H5.74v3.39H4.64V12.62h1.1V16H6.87V11.55h4.48V10.33H8V9.26H15.8v1.07H12.45v1.22h4.92L22.55,16V17.1h1.12V14.88H27v8.9H23.67V21.52H22.55v2.26H10.28L6.87,20.46ZM8,20l2.79,2.73h10.7V20.46h3.32v2.26h1.16V15.94H24.77v2.23H21.45v-1.7L17,12.62H8Zm5.9.22c-.94.22-1.6.37-2.51.5l-.56-.54a23.3,23.3,0,0,1,.56-2.5l.72.22c-.22.72-.38,1.19-.5,1.56l1.75-1.82.6.57-1.76,1.69a14.33,14.33,0,0,0,1.51-.41Zm2-5.08c-.53.12-1,.25-1.5.4l-.19-.72a19.54,19.54,0,0,1,2.51-.5l.56.53c-.22,1.16-.37,1.85-.56,2.51l-.72-.22c.22-.72.37-1.19.5-1.57l-1.76,1.82-.59-.56Z"/></svg>