<?xml version="1.0" encoding="UTF-8"?><svg xmlns="http://www.w3.org/2000/svg" width="24" height="24" viewBox="0 0 24 24"><defs><style>.c{fill:none;}</style></defs><g id="a"><rect class="c" width="24" height="24"/></g><g id="b"><path d="M2.41,13.09H1.29v2.82H.16v-6.77H1.29v2.79h1.13V6.93H6.93v-1.13H3.54v-1.13h7.89v1.13h-3.38v1.13h7.03l4.25,5.33v1.44h1.13v-2.26h3.38v7.89h-3.38v-2.26h-1.13v2.26H5.34l-2.92-2.88v-3.36Zm15.79-.51l-3.74-4.54H3.55v8.01l2.22,2.17h12.4v-2.26h3.38v2.26h1.13v-5.64h-1.13v2.26h-3.38l.03-2.25Zm-10.08,2.22v-3.38h1.03v1.22h1.22v-1.22h1.03v3.38h-1.03v-1.17h-1.22v1.17h-1.03Zm6.79,1.13h-2.33v-.64c.73-.63,1.13-1.03,1.13-1.38,0-.24-.19-.35-.46-.35-.19,0-.39,.06-.56,.14v-1.04c.29-.12,.59-.18,.9-.19,.16-.01,.31,0,.46,.06,.15,.05,.28,.13,.4,.24,.11,.11,.21,.23,.27,.38,.06,.14,.09,.3,.09,.45-.03,.54-.26,1.05-.65,1.43h.76v.9Z"/></g></svg>