<?xml version="1.0" encoding="UTF-8"?><svg xmlns="http://www.w3.org/2000/svg" width="24" height="24" viewBox="0 0 24 24"><defs><style>.c{fill:none;}</style></defs><g id="a"><rect class="c" width="24" height="24"/></g><g id="b"><path d="M10.15,19.34H5.3c-.89-.64-2.15-1.65-2.15-3.02,0-.98,.45-1.75,1.43-2.77L15.16,2.3l5.69,5.68-10.7,11.35Zm-4.4-1.09h3.84l1.48-1.57-4.03-4.03-1.54,1.62c-.78,.84-1.2,1.38-1.2,1.94,0,.71,.56,1.38,1.45,2.03h0Zm-.28,2.35h2.33v1.12h-2.33v-1.12Zm6.42-4.73l7.36-7.86L15.17,3.9l-7.37,7.89,4.09,4.05Zm-2.92,4.73h2.33v1.12h-2.33v-1.12Zm3.5,0h2.33v1.12h-2.33v-1.12Zm3.5,0h2.33v1.12h-2.33v-1.12Z"/></g></svg>