<svg id="Icones" xmlns="http://www.w3.org/2000/svg" width="32" height="32" viewBox="0 0 32 32"><defs><style>.cls-1{fill:none;}</style></defs><rect class="cls-1" width="32" height="32"/><path d="M4.29,18.67,6,19v1.1l-1.7-.34c-1.31-.29-1.88-.91-1.88-2.14V16.41a3.83,3.83,0,0,1,.35-1.85l.44-1,1,.41-.41.94a3.22,3.22,0,0,0-.28,1.47v1.22A.89.89,0,0,0,4.29,18.67ZM25.74,15c1.29.19,1.73.5,2.1,1.57a5.94,5.94,0,0,1,.32,1.85c0,1-.57,1.54-1.66,1.69V19c.4-.09.56-.25.56-.56a4.63,4.63,0,0,0-.19-1.32A1.27,1.27,0,0,0,25.62,16l-3.55-.54-2.82-1.6c-2-1.16-2.69-1.31-5.52-1.31a64.49,64.49,0,0,0-9.09.47l-1.13-.44v-.47a78.74,78.74,0,0,1,10.22-.63c2.89,0,3.95.25,6,1.41l2.83,1.6ZM11.32,19.36h9.84v0a2.09,2.09,0,0,1,2.23-2.2,2.2,2.2,0,1,1,0,4.39,2.11,2.11,0,0,1-2-1.09H11.07a2.14,2.14,0,0,1-2,1.09,2.2,2.2,0,1,1,0-4.39,2.09,2.09,0,0,1,2.23,2.2ZM9.09,18.17A1.1,1.1,0,0,0,7.9,19.33a1.11,1.11,0,0,0,1.19,1.16,1.1,1.1,0,0,0,1.19-1.16A1.08,1.08,0,0,0,9.09,18.17Zm14.3,2.32a1.11,1.11,0,0,0,1.19-1.16,1.1,1.1,0,0,0-1.19-1.16,1.08,1.08,0,0,0-1.19,1.16A1.1,1.1,0,0,0,23.39,20.49Z"/></svg>