<svg id="Icones" xmlns="http://www.w3.org/2000/svg" width="32" height="32" viewBox="0 0 32 32"><defs><style>.cls-1{fill:none;}</style></defs><rect class="cls-1" width="32" height="32"/><path d="M4.64,11.49H24.77V23.78H4.64Zm19,11.22V12.55H5.74V22.71ZM27,9.26V21.59h-1.1V10.33H6.83V9.26ZM9.09,14.81H6.9V13.75H9.09Zm0,6.71H6.9V20.46H9.09Zm3.61-2.29H11.38v-1h1.19a4.22,4.22,0,0,1,0-.63,4.09,4.09,0,0,1,0-.62H11.38V16H12.7a2.62,2.62,0,0,1,2.82-2.29,5,5,0,0,1,1.41.25v1a3.69,3.69,0,0,0-1.41-.25A1.68,1.68,0,0,0,13.73,16H16l0,1H13.58a3.08,3.08,0,0,0,0,.62,3.18,3.18,0,0,0,0,.63h2.25l0,1H13.73a1.73,1.73,0,0,0,1.82,1.35,5.93,5.93,0,0,0,1.38-.19v1a4.76,4.76,0,0,1-1.38.18A2.63,2.63,0,0,1,12.7,19.23Zm9.84-4.42H20.35V13.75h2.19Zm0,6.71H20.35V20.46h2.19Z"/></svg>