<svg id="Icones" xmlns="http://www.w3.org/2000/svg" width="32" height="32" viewBox="0 0 32 32"><defs><style>.cls-1{fill:none;}</style></defs><rect class="cls-1" width="32" height="32"/><path d="M6.76,24.87l.73-.75c.72-.75.81-1,.59-1.75l-.22-.69c-.44-1.38-.09-2.42,1.26-3.86l.59-.66-1.6-1.6L17.77,6l1.57,1.56L22.07,4.8A25.15,25.15,0,0,1,25,5.46l.25.85L21.69,9.85l1.6,1.63-9.66,9.6L12,19.42l-.63.69c-.34.34-.34.72-.09,1.5l.12.38c.57,1.63,0,3-2.22,5.21Zm2.36.79c1.28-1.29,1.6-2.29,1.16-3.54l-.22-.63a1.74,1.74,0,0,1,.53-2.13l.63-.69-.72-.73-.72.73c-1,1.09-1.29,1.81-.95,2.69l.22.6c.44,1.16.26,1.85-.75,2.88ZM21.75,11.45l-4-4L9.71,15.56l3.95,4ZM20.91,9.1l2.88-2.85a7.56,7.56,0,0,0-1.35-.35L20.09,8.25Z"/></svg>