<?xml version="1.0" encoding="UTF-8"?><svg xmlns="http://www.w3.org/2000/svg" width="24" height="24" viewBox="0 0 24 24"><defs><style>.c{fill:none;}</style></defs><g id="a"><rect class="c" width="24" height="24"/></g><g id="b"><path d="M3.74,19.66l.6-.63c.67-.63,.67-.85,.47-1.46l-.19-.64c-.36-1.18-.33-1.96,.91-3.2l.91-.91-1.35-1.35L13.46,3.12l1.36,1.33,2.5-2.51c.93,.17,1.85,.41,2.75,.72l.19,1.02-3.11,3.12,1.46,1.46-8.42,8.33-1.35-1.35-.64,.63c-.33,.3-.33,.63-.05,1.32l.17,.39c.57,1.32-.25,2.5-2.18,4.49l-2.39-2.4Zm1.57,0l.8,.77c1.21-1.3,1.4-1.91,1.02-2.95l-.19-.58c-.14-.31-.16-.67-.08-1,.08-.33,.28-.63,.54-.84l.66-.67-.83-.83-.77,.8c-.99,.96-1.05,1.35-.8,2.34l.17,.52c.25,.96,.41,1.38-.53,2.45v-.03Zm11.66-11.48l-3.5-3.5-6.78,6.82,3.47,3.47,6.81-6.8Zm-.61-2.2l2.57-2.51c-.36-.11-.75-.2-1.18-.3l-2.12,2.1,.74,.72Z"/></g></svg>