<svg id="Icones" xmlns="http://www.w3.org/2000/svg" width="32" height="32" viewBox="0 0 32 32"><defs><style>.cls-1{fill:none;}</style></defs><rect class="cls-1" width="32" height="32"/><path d="M4.64,7H27V24.91H4.64Zm21.29,16.8V8.1H5.74V23.84Zm-13.64-8.4L7.84,10.92c.19,1.16.37,2,.75,3.52l-.94.22c-.41-2-.63-3.36-.82-4.83l.63-.6a43.55,43.55,0,0,1,4.83.82L12,11c-1.51-.38-2.38-.57-3.51-.79L13,14.66ZM7.46,22.68l-.63-.59c.19-1.48.41-2.86.82-4.83l.94.22C8.21,19,8,19.83,7.84,21l4.45-4.52.75.79L8.53,21.71c1.13-.22,2-.41,3.51-.78l.25.94A41,41,0,0,1,7.46,22.68ZM23.83,10.92l-4.45,4.52-.75-.78,4.51-4.46c-1.13.22-2,.41-3.51.79l-.25-.94a43.55,43.55,0,0,1,4.83-.82l.62.6c-.18,1.47-.4,2.85-.81,4.83l-.94-.22C23.45,12.93,23.64,12.08,23.83,10.92Zm.38,11.76a41,41,0,0,1-4.83-.81l.25-.94c1.5.37,2.38.56,3.51.78l-4.51-4.45.75-.79L23.83,21c-.19-1.16-.38-2-.75-3.51l.94-.22c.41,2,.63,3.35.81,4.83Z"/></svg>