<?xml version="1.0" encoding="UTF-8"?><svg xmlns="http://www.w3.org/2000/svg" width="24" height="24" viewBox="0 0 24 24"><defs><style>.c{fill:none;}</style></defs><g id="a"><rect class="c" width="24" height="24"/></g><g id="b"><path d="M3.47,15.26c-1.07-.94-1.99-2.04-2.73-3.26,.73-1.22,1.65-2.32,2.73-3.26h.06c-1.07-.94-1.99-2.04-2.72-3.26C2.1,3.66,3.69,2.07,5.51,.78c1.22,.73,2.32,1.65,3.26,2.72,.94-1.07,2.04-1.99,3.26-2.72,1.22,.73,2.32,1.65,3.26,2.72,.94-1.07,2.04-1.99,3.26-2.72,1.82,1.29,3.41,2.88,4.7,4.7-.73,1.22-1.65,2.32-2.73,3.26,1.07,.94,1.99,2.04,2.73,3.26-.74,1.22-1.66,2.32-2.73,3.26h-.06c1.07,.94,1.99,2.04,2.72,3.26-1.29,1.82-2.88,3.41-4.7,4.7-1.22-.73-2.32-1.65-3.26-2.73-.94,1.07-2.04,1.99-3.26,2.73-1.22-.73-2.32-1.65-3.26-2.73-.94,1.07-2.04,1.99-3.26,2.73-1.82-1.29-3.41-2.88-4.7-4.7,.73-1.22,1.65-2.32,2.73-3.26h0Zm1.96,6.52c1.23-.8,2.33-1.79,3.26-2.92,.93,1.13,2.03,2.12,3.26,2.92,1.23-.8,2.33-1.79,3.26-2.92,.94,1.13,2.04,2.11,3.26,2.92,1.23-.93,2.33-2.03,3.26-3.26-.8-1.23-1.78-2.33-2.91-3.26h.06c1.13-.94,2.11-2.04,2.92-3.26-.8-1.23-1.79-2.33-2.92-3.26,1.13-.93,2.11-2.03,2.92-3.26-.93-1.24-2.03-2.33-3.26-3.26-1.23,.8-2.33,1.78-3.26,2.91-.93-1.13-2.03-2.11-3.26-2.91-1.23,.8-2.33,1.78-3.26,2.91-.94-1.13-2.04-2.11-3.26-2.91-1.24,.93-2.33,2.03-3.26,3.26,.8,1.23,1.78,2.33,2.91,3.26h-.06c-1.13,.94-2.11,2.04-2.92,3.26,.8,1.23,1.79,2.32,2.92,3.26-1.13,.93-2.11,2.03-2.92,3.26,.93,1.24,2.03,2.35,3.27,3.28v-.02Z"/></g></svg>