<?xml version="1.0" encoding="UTF-8"?><svg xmlns="http://www.w3.org/2000/svg" width="24" height="24" viewBox="0 0 24 24"><defs><style>.c{fill:none;}</style></defs><g id="a"><rect class="c" width="24" height="24"/></g><g id="b"><path d="M.55,2.12H6.28v7.59c2.5-.95,6.18-2.38,8.41-3.25l.72,.5v2.67c2.29-1,5.27-2.29,7.31-3.17l.74,.5v14.91H.55V2.12Zm4.62,1.06H1.68V20.82H22.35V7.8c-2.69,1.19-5.5,2.4-8.01,3.51v-3.56c-2.86,1.13-6.62,2.59-9.16,3.56V3.18Zm-1.18,10.93h2.29v1.21H3.99v-1.21Zm0,3.3h2.29v1.21H3.99v-1.21Zm3.43-3.3h2.29v1.21h-2.29v-1.21Zm0,3.3h2.29v1.21h-2.29v-1.21Zm3.44-3.3h2.29v1.21h-2.29v-1.21Zm0,3.3h2.29v1.21h-2.29v-1.21Zm3.43-3.3h2.29v1.19h-2.29v-1.19Zm0,3.3h2.29v1.19h-2.29v-1.19Zm3.43-3.3h2.29v1.19h-2.29v-1.19Zm0,3.3h2.29v1.19h-2.29v-1.19Z"/></g></svg>