<svg id="Icones" xmlns="http://www.w3.org/2000/svg" width="32" height="32" viewBox="0 0 32 32"><defs><style>.cls-1{fill:none;}</style></defs><rect class="cls-1" width="32" height="32"/><path d="M5.77,26V5.94h4.48v8.81c3.33-1.29,5.11-1.94,7-2.54l.81.6v2c2.29-.91,4.49-1.69,7.06-2.54l.81.6V26ZM24.8,25V13.5c-2.82,1-5.36,1.91-7.81,2.88V13.46c-2.63.85-5.17,1.79-7.84,2.89V7H6.87V25ZM9.15,18.2h2.23v1.13H9.15Zm0,3.39h2.23v1.13H9.15Zm3.36-3.39h2.23v1.13H12.51Zm0,3.39h2.23v1.13H12.51ZM17,18.2h2.23v1.13H17Zm0,3.39h2.23v1.13H17Zm3.36-3.39h2.23v1.13H20.35Zm0,3.39h2.23v1.13H20.35Z"/></svg>