<svg id="Icones" xmlns="http://www.w3.org/2000/svg" width="32" height="32" viewBox="0 0 32 32"><defs><style>.cls-1{fill:none;}</style></defs><rect class="cls-1" width="32" height="32"/><path d="M23.64,10.36V26H8V5.91h11.2A31.08,31.08,0,0,1,23.64,10.36Zm-1.1,14.58V11.43H18.09V7h-9v18Zm-6.36-4.48h-.63c-1.88-1.13-3-2.79-3-4.33a2.15,2.15,0,0,1,2-2.38,1.65,1.65,0,0,1,1.34.56,1.82,1.82,0,0,1,1.35-.56,2.15,2.15,0,0,1,2,2.38C19.22,17.67,18.06,19.33,16.18,20.46Zm2-4.33c0-.88-.41-1.38-1.16-1.38-.47,0-.85.28-1.17.88-.31-.6-.68-.88-1.16-.88-.75,0-1.16.5-1.16,1.38a4.38,4.38,0,0,0,2.32,3.32A4.26,4.26,0,0,0,18.19,16.13Zm4.07-5.74a25.51,25.51,0,0,0-3.1-3.07v3.07Z"/></svg>