<svg id="Icones" xmlns="http://www.w3.org/2000/svg" width="32" height="32" viewBox="0 0 32 32"><defs><style>.cls-1{fill:none;}</style></defs><rect class="cls-1" width="32" height="32"/><path d="M15.33,24.91C10.22,21.81,6.9,17.29,6.9,13.4c0-3.23,1.75-5.24,4.57-5.24a5,5,0,0,1,4.36,2.61,5,5,0,0,1,4.36-2.61c2.82,0,4.58,2,4.58,5.24,0,3.89-3.32,8.41-8.43,11.51ZM11.47,9.23C9.31,9.23,8,10.8,8,13.4c0,3.54,3.33,8,7.84,10.51,4.52-2.51,7.84-7,7.84-10.51,0-2.6-1.31-4.17-3.48-4.17-1.69,0-3,1-4.36,3.39C14.55,10.27,13.2,9.23,11.47,9.23Z"/></svg>