<svg id="Icones" xmlns="http://www.w3.org/2000/svg" width="32" height="32" viewBox="0 0 32 32"><defs><style>.cls-1{fill:none;}</style></defs><rect class="cls-1" width="32" height="32"/><path d="M5.77,19.64c0-1.53.09-1.75,1.63-3.57s2.32-2.32,4-2.32h4A6.4,6.4,0,0,1,19.53,15l2.39,1.79,1.53.38a2.75,2.75,0,0,1,2.45,2.94,3.39,3.39,0,0,1-.63,2l-.87-.62a2.25,2.25,0,0,0,.4-1.42c0-1.09-.56-1.69-2-2l-1.54-.38L19,16a5.4,5.4,0,0,0-3.61-1.16h-4c-1.29,0-1.76.32-3.2,2C7,18.36,6.87,18.51,6.87,19.8v.66a1.28,1.28,0,0,0,.37,1l-.75.69a2.1,2.1,0,0,1-.72-1.72Zm13.45,1.92a2.1,2.1,0,0,1,2.23-2.2,2.08,2.08,0,0,1,2.22,2.2,2.1,2.1,0,0,1-2.22,2.19,2.14,2.14,0,0,1-2-1.13H12.23a2.14,2.14,0,0,1-2,1.13,2.2,2.2,0,1,1,0-4.39,2.09,2.09,0,0,1,2.23,2.2Zm-9-1.17a1.1,1.1,0,0,0-1.19,1.17,1.12,1.12,0,0,0,1.19,1.16,1.1,1.1,0,0,0,1.19-1.16A1.08,1.08,0,0,0,10.25,20.39ZM23.49,4.78A2.39,2.39,0,0,1,25.9,7.29c0,1.5-1.54,3.57-4,5.33H21c-2.48-1.76-4-3.83-4-5.33a2.4,2.4,0,0,1,2.42-2.51,3,3,0,0,1,2,.81A3,3,0,0,1,23.49,4.78ZM24.8,7.32a1.38,1.38,0,0,0-1.38-1.48,2.65,2.65,0,0,0-2,1,2.69,2.69,0,0,0-2-1,1.38,1.38,0,0,0-1.38,1.48c0,1.22,1.35,3,3.36,4.36C23.45,10.3,24.8,8.54,24.8,7.32ZM21.45,20.39a1.1,1.1,0,0,0-1.19,1.17,1.12,1.12,0,0,0,1.19,1.16,1.1,1.1,0,0,0,1.19-1.16A1.08,1.08,0,0,0,21.45,20.39Z"/></svg>