<?xml version="1.0" encoding="UTF-8"?><svg xmlns="http://www.w3.org/2000/svg" width="24" height="24" viewBox="0 0 24 24"><defs><style>.c{fill:none;}</style></defs><g id="a"><rect class="c" width="24" height="24"/></g><g id="b"><path d="M8.68,12.83h-1.93l-1.18-1.25c-.06,.3-.1,.61-.09,.92,.01,.3,.09,.6,.22,.87,.13,.27,.31,.52,.53,.72s.49,.36,.77,.46c.29,.1,.59,.14,.89,.13,.64-.02,1.27-.17,1.84-.45l2.58,2.55-.82,.82-2.1-2.1c-.53,.21-1.1,.33-1.68,.34-.89,0-1.75-.36-2.38-.99-.63-.63-.99-1.49-.99-2.38-.04-.66,.08-1.32,.34-1.93l1.13-.37,1.42,1.53h1.1v-1.11l-1.51-1.42,.37-1.13c.55-.22,1.14-.32,1.73-.31,1.67,0,3.57,1.05,3.57,3.35-.01,.57-.13,1.14-.35,1.67l2.1,2.11-.83,.82-2.55-2.59c.28-.57,.44-1.2,.46-1.84,.01-.31-.04-.62-.15-.91-.11-.29-.28-.56-.5-.78-.22-.22-.48-.4-.77-.51-.29-.12-.6-.17-.91-.16-.26,0-.53,.02-.79,.06l1.25,1.18,.03,1.93-.79,.77Zm-1.96,4.13v3.38h11.81V8.4h-4.73V3.68H6.72v3.6h-1.18V2.55H15.28c1.61,1.31,3.08,2.78,4.39,4.39v14.51H5.56v-4.91c.36,.19,.75,.33,1.16,.4v.02ZM18.53,7.29c-1.09-1.27-2.27-2.45-3.54-3.54v3.54h3.54Z"/></g></svg>