<svg id="Icones" xmlns="http://www.w3.org/2000/svg" width="32" height="32" viewBox="0 0 32 32"><defs><style>.cls-1{fill:none;}</style></defs><rect class="cls-1" width="32" height="32"/><path d="M5.77,22.68V10.39h6.11a3.43,3.43,0,0,1,2.82,1.1L17,13.75h4.49A2,2,0,0,1,23.67,16v6.71a2,2,0,0,1-2.22,2.23H8A2,2,0,0,1,5.77,22.68ZM8,23.84H21.45c.81,0,1.13-.34,1.13-1.16V16c0-.81-.32-1.16-1.13-1.16H16.52l-2.44-2.44a2.77,2.77,0,0,0-2.2-.91h-5V22.68C6.86,23.5,7.18,23.84,8,23.84ZM24.8,21.55V12.62c0-.82-.31-1.16-1.13-1.16H18.06L15.61,9a2.74,2.74,0,0,0-2.19-.91H9.09V9.23H8V7h5.43a3.46,3.46,0,0,1,2.82,1.09l2.26,2.26h5.17a2,2,0,0,1,2.23,2.23v8.93Z"/></svg>