<?xml version="1.0" encoding="UTF-8"?><svg xmlns="http://www.w3.org/2000/svg" width="24" height="24" viewBox="0 0 24 24"><defs><style>.c{fill:none;}</style></defs><g id="a"><rect class="c" width="24" height="24"/></g><g id="b"><path d="M2.61,15.54v-5.87h1.83c.23,0,.46,.04,.67,.13,.21,.09,.4,.22,.57,.38,.16,.16,.29,.36,.37,.58,.08,.21,.12,.44,.11,.67,0,.23-.03,.46-.12,.67-.08,.21-.21,.41-.37,.57-.16,.16-.35,.29-.56,.38-.21,.09-.44,.13-.67,.13h-.76v2.35h-1.07Zm1.07-4.84v1.44h.65c.1,.01,.2,0,.29-.02,.09-.03,.18-.08,.25-.15,.07-.07,.12-.15,.16-.24,.03-.09,.05-.19,.04-.29,.01-.1,0-.2-.03-.29-.03-.09-.09-.18-.16-.25-.07-.07-.16-.12-.25-.16-.09-.03-.19-.04-.29-.03h-.65Zm5.21,4.84h-1.58v-5.87h1.61c1.3,0,1.92,.76,1.92,2.93s-.63,2.93-1.93,2.93h-.01Zm-.41,1.24v3.49h11.73V8.43h-4.69V3.74h-7.04v4.73h-1.17V2.6h9.71c1.6,1.31,3.07,2.78,4.37,4.38v14.42H7.31v-4.62h1.17Zm-.11-6.06v3.78h.45c.65,0,.84-.45,.84-1.89s-.2-1.89-.84-1.89h-.45Zm3.63,4.82v-5.87h2.82v1.1h-1.76v1.27h1.29v1.08h-1.27v2.42h-1.07ZM20.21,7.33c-1.09-1.26-2.28-2.44-3.55-3.52v3.52h3.55Z"/></g></svg>