<?xml version="1.0" encoding="UTF-8"?><svg xmlns="http://www.w3.org/2000/svg" width="24" height="24" viewBox="0 0 24 24"><defs><style>.c{fill:none;}</style></defs><g id="a"><rect class="c" width="24" height="24"/></g><g id="b"><path d="M8.02,16.72c-2.54-1.49-4.15-3.52-4.15-5.5,0-1.66,.96-2.71,2.51-2.71,.38,0,.76,.08,1.1,.24,.35,.16,.66,.38,.91,.67,.26-.28,.58-.51,.94-.67,.35-.16,.74-.24,1.12-.24,1.55,0,2.54,1.05,2.54,2.71,0,1.97-1.64,4-4.15,5.5h-.82Zm-1.64-7.02c-.19,0-.38,.04-.55,.12-.17,.08-.33,.2-.45,.34-.12,.14-.22,.31-.27,.49-.05,.18-.07,.37-.05,.56,0,1.47,1.35,3.04,3.35,4.4,2.08-1.36,3.41-2.94,3.41-4.4,0-.93-.45-1.52-1.35-1.52s-1.44,.42-2.06,1.29c-.56-.87-1.13-1.29-2.03-1.29Zm.83,7.83v2.74h11.74V8.42h-4.7V3.72H7.21v3.72c-.39-.09-.79-.09-1.17,0V2.6H15.74c1.61,1.3,3.08,2.77,4.39,4.37v14.43H6.07v-4.7c.35,.32,.73,.6,1.14,.83ZM18.95,7.31c-1.08-1.26-2.26-2.44-3.52-3.52v3.52h3.52Z"/></g></svg>