<?xml version="1.0" encoding="UTF-8"?><svg xmlns="http://www.w3.org/2000/svg" width="24" height="24" viewBox="0 0 24 24"><defs><style>.c{fill:none;}</style></defs><g id="a"><rect class="c" width="24" height="24"/></g><g id="b"><path d="M3.75,14.39c.12-.38,.35-.71,.67-.94,.32-.23,.7-.36,1.09-.36s.78,.13,1.09,.36c.32,.23,.55,.56,.67,.94h5.87c.12-.38,.35-.71,.67-.94,.32-.23,.7-.36,1.09-.36s.78,.13,1.09,.36c.32,.23,.55,.56,.67,.94h.45c.62,0,.76-.12,.76-.59-.04-.5-.18-.99-.42-1.44-.1-.15-.22-.29-.38-.39-.15-.1-.32-.17-.5-.2l-1.97-.5c-.73-.2-1.69-1.1-2.9-1.58-.93-.37-1.76-.51-3.69-.51-1.12,.02-2.24,.1-3.36,.25l-1.07-.65-.03-.28c1.53-.26,3.07-.42,4.62-.48,1.36-.07,2.72,.13,4,.59,1.33,.51,2.11,1.38,2.68,1.55l1.92,.53c.66,.13,1.25,.51,1.66,1.04,.35,.69,.55,1.45,.59,2.22,0,1.02-.88,1.55-2.03,1.55h-.34c-.09,.39-.32,.74-.64,.99-.32,.25-.72,.38-1.12,.36-.4,0-.79-.13-1.11-.38-.32-.25-.55-.59-.65-.98H7.26c-.1,.39-.32,.74-.64,.98-.32,.25-.71,.38-1.12,.37-.4-.01-.79-.15-1.11-.4-.32-.25-.55-.59-.65-.98h-.06c-.29,.02-.58-.02-.85-.12-.27-.1-.52-.25-.74-.45-.21-.2-.38-.44-.5-.7-.11-.27-.17-.55-.17-.84v-1.41c0-.59,.17-1.13,1.33-2.28l.99,.53c-1.04,1.14-1.23,1.35-1.23,1.91v1.17c0,.7,.33,1.1,1.17,1.1l.06-.02Zm2.59,.59c0-.22-.09-.42-.24-.58s-.36-.24-.58-.24-.42,.09-.58,.24-.24,.36-.24,.58c0,.11,0,.22,.05,.32,.04,.1,.09,.19,.17,.27,.07,.08,.16,.14,.26,.19,.1,.04,.21,.07,.31,.07,.11,0,.22-.01,.33-.05,.11-.04,.2-.1,.28-.18,.08-.08,.14-.17,.18-.28,.04-.1,.06-.22,.05-.33Zm3.32,1.72v3.58h11.74V8.42h-4.7V3.73h-7.04v3.24c-.37-.03-.7-.06-1.17-.08V2.6h9.69c1.61,1.3,3.08,2.77,4.4,4.37v14.43H8.48v-4.7h1.17Zm6.09-1.73c0-.11-.02-.22-.06-.33-.04-.1-.11-.2-.18-.28-.08-.08-.17-.14-.28-.18-.1-.04-.21-.06-.33-.06-.22,0-.42,.1-.57,.26-.15,.16-.23,.37-.22,.58,0,.11,0,.22,.05,.32,.04,.1,.09,.19,.17,.27,.07,.08,.16,.14,.26,.19,.1,.04,.21,.07,.31,.07,.11,0,.22-.02,.32-.06,.1-.04,.19-.11,.27-.18,.08-.08,.14-.17,.18-.28,.04-.1,.06-.21,.05-.32h.02Zm5.66-7.63c-1.08-1.26-2.26-2.44-3.52-3.52v3.52h3.52Z"/></g></svg>