<?xml version="1.0" encoding="UTF-8"?><svg xmlns="http://www.w3.org/2000/svg" width="24" height="24" viewBox="0 0 24 24"><defs><style>.c{fill:none;}</style></defs><g id="a"><rect class="c" width="24" height="24"/></g><g id="b"><path d="M10.23,17.71c-.64,.14-1.3,.21-1.95,.2-3.23,0-5.13-1.9-5.13-5.16s2.21-5.47,5.47-5.47,5.13,1.87,5.13,4.9c0,2.12-.96,3.4-2.47,3.4-.29,.02-.58-.04-.85-.16-.27-.12-.5-.3-.68-.53-.47,.33-1.04,.51-1.62,.51-1.1,0-1.84-.65-1.84-1.64,0-1.13,.71-1.77,1.95-1.77h1.14v-.51c0-.45-.31-.65-1.08-.65-.52,0-1.03,.07-1.53,.22v-1.02c.57-.18,1.17-.28,1.77-.31,1.27,0,1.92,.59,1.92,1.73v2.12c0,.59,.28,.88,.91,.88,.82,0,1.25-.79,1.25-2.3,0-2.36-1.51-3.77-4-3.77-2.66,0-4.34,1.7-4.34,4.36s1.42,4.06,4.08,4.06c.62,0,1.24-.04,1.85-.14v1.04Zm-2.36,1.33v1.27h11.8V8.4h-4.66V3.68H7.92v2.44c-.4-.01-.8,.05-1.18,.17V2.55h9.72c1.61,1.31,3.08,2.78,4.39,4.39v14.51H6.74v-2.52c.37,.07,.75,.1,1.13,.09v.02Zm1.49-4.91v-1.22h-1.18c-.11,0-.21,.01-.31,.05-.1,.04-.19,.1-.27,.17-.08,.07-.14,.16-.18,.26-.04,.1-.06,.2-.06,.31,0,.51,.43,.71,.9,.71,.39,0,.77-.09,1.11-.28h-.01Zm10.32-6.85c-1.08-1.28-2.26-2.46-3.54-3.54v3.54h3.54Z"/></g></svg>