<?xml version="1.0" encoding="UTF-8"?><svg xmlns="http://www.w3.org/2000/svg" width="24" height="24" viewBox="0 0 24 24"><defs><style>.c{fill:none;}</style></defs><g id="a"><rect class="c" width="24" height="24"/></g><g id="b"><path d="M3.79,13.08v-.99c1.33-.79,2.52-1.5,4.04-2.35v1.38c-.93,.48-1.92,.99-2.74,1.47,.79,.48,1.76,.93,2.68,1.41v1.43c-1.49-.86-2.68-1.56-3.98-2.35Zm3.53,3.53v3.64h11.76V8.41h-4.7V3.71H7.31v4.77l-1.18,.59V2.6H15.84c1.6,1.31,3.07,2.77,4.37,4.37v14.43H6.16v-5.38l1.15,.59Zm3.19-7.53h1.18l-1.63,6.99h-1.18l1.63-6.99Zm2.18,4.93c.93-.48,1.92-.93,2.73-1.41-.79-.48-1.76-.99-2.68-1.47v-1.38c1.5,.85,2.68,1.55,3.98,2.35v.98c-1.33,.79-2.51,1.49-4.03,2.35v-1.42Zm6.37-6.72c-1.08-1.26-2.26-2.44-3.53-3.53v3.53h3.53Z"/></g></svg>