<?xml version="1.0" encoding="UTF-8"?><svg xmlns="http://www.w3.org/2000/svg" width="24" height="24" viewBox="0 0 24 24"><defs><style>.c{fill:none;}</style></defs><g id="a"><rect class="c" width="24" height="24"/></g><g id="b"><path d="M3.95,19.8V9.13h5.7c.46-.04,.92,.03,1.35,.2,.43,.17,.82,.43,1.13,.77l2.01,1.99h3.92c1.32,0,1.96,.63,1.96,1.96v5.74c0,1.32-.64,1.96-1.96,1.96H5.91c-1.33,.02-1.96-.62-1.96-1.94Zm2.13,.83h11.83c.72,0,.99-.3,.99-1.02v-5.38c0-.71-.28-1.02-.99-1.02h-4.23l-2.15-2.15c-.24-.27-.54-.48-.87-.62-.33-.14-.69-.2-1.06-.18H5.08v9.35c0,.72,.28,1.02,.99,1.02h0Zm11.61-11.5h-1.06c-.85-1.01-1.64-2.08-2.34-3.2l.91-.52c.66,1.05,1.02,1.55,1.43,2.13V2.26h1.02V7.61c.44-.6,.8-1.1,1.49-2.21l.91,.52c-.71,1.12-1.5,2.19-2.36,3.2h0Z"/></g></svg>