<svg id="Icones" xmlns="http://www.w3.org/2000/svg" width="32" height="32" viewBox="0 0 32 32"><defs><style>.cls-1{fill:none;}</style></defs><rect class="cls-1" width="32" height="32"/><path d="M6.86,22.26V10H13a3.43,3.43,0,0,1,2.82,1.1l2.26,2.26h4.48a2,2,0,0,1,2.23,2.22v6.71a2,2,0,0,1-2.23,2.23H9.09A2,2,0,0,1,6.86,22.26Zm2.23,1.16H22.54c.82,0,1.13-.34,1.13-1.16V15.55c0-.81-.31-1.16-1.13-1.16H17.62L15.17,12A2.74,2.74,0,0,0,13,11H8V22.26C8,23.08,8.28,23.42,9.09,23.42ZM21.29,12.2h-.85a45,45,0,0,1-2.85-4l.85-.5a32.66,32.66,0,0,0,1.94,3l-.06-7.43h1.1l-.07,7.43a34.76,34.76,0,0,0,1.95-3l.84.5C23,9.91,22.2,11,21.29,12.2Z"/></svg>