<?xml version="1.0" encoding="UTF-8"?><svg xmlns="http://www.w3.org/2000/svg" width="24" height="24" viewBox="0 0 24 24"><defs><style>.c{fill:none;}</style></defs><g id="a"><rect class="c" width="24" height="24"/></g><g id="b"><path d="M16.85,11.66V7.57h-4.8V2.78H4.86V19.69h6.84l.6,1.15H3.7V1.65H13.57c1.64,1.33,3.13,2.83,4.46,4.46v6.42l-1.18-.87Zm-3.45,7.17l-.89,.49c-.39-.65-.6-1.4-.6-2.16-.04-.47,.03-.95,.2-1.4,.16-.45,.42-.85,.75-1.19,.33-.34,.74-.6,1.18-.78,.44-.17,.92-.25,1.39-.22h1.01c-.43-.26-.8-.46-1.44-.81l.52-.89c.86,.52,1.66,1.12,2.4,1.8v.83c-.72,.7-1.51,1.32-2.36,1.84l-.55-.86c.64-.34,1.04-.6,1.47-.83h-1.05c-1.61,0-2.4,.95-2.4,2.45-.03,.6,.09,1.19,.36,1.73h0Zm3.45-12.38c-1.11-1.29-2.31-2.49-3.6-3.6v3.6h3.6Zm1.87,8.99l1.01-.52c.37,.67,.56,1.42,.55,2.18,.04,.47-.03,.95-.19,1.39-.16,.44-.42,.85-.75,1.18-.33,.34-.73,.6-1.18,.76-.44,.17-.92,.24-1.39,.21h-1.1c.46,.29,.86,.49,1.52,.83l-.55,.86c-.87-.47-1.65-1.08-2.33-1.8v-.89c.71-.68,1.49-1.29,2.33-1.8l.52,.86c-.63,.35-1.01,.6-1.44,.83h1.04c1.58,.03,2.4-.95,2.4-2.48,.03-.58-.13-1.16-.44-1.66h0Z"/></g></svg>