<?xml version="1.0" encoding="UTF-8"?><svg xmlns="http://www.w3.org/2000/svg" width="24" height="24" viewBox="0 0 24 24"><defs><style>.c{fill:none;}</style></defs><g id="a"><rect class="c" width="24" height="24"/></g><g id="b"><path d="M4.81,21.16c-1.32,0-1.96-.64-1.96-1.96V9.38c0-1.32,.64-1.96,1.96-1.96h14.4c1.32,0,1.95,.64,1.95,1.96v9.83c0,1.32-.63,1.96-1.95,1.96H4.81Zm14.26-1.15c.69,0,.96-.33,.96-1.05V9.61c0-.72-.27-1.05-.96-1.05H4.94c-.69,0-.96,.33-.96,1.05v9.38c0,.72,.28,1.05,.96,1.05l14.12-.02ZM5.13,2.84h3.27c1.4,0,1.98,.14,2.7,.96l1.15,1.29h6.64v1.15h-7.25l-1.15-1.43c-.57-.69-.88-.83-2.09-.83h-2.16v2.26h-1.11V2.84Zm1.15,8.03H15.45v1.15H6.27v-1.15Zm0,2.29h4.59v1.15H6.27v-1.15Z"/></g></svg>