<svg id="Icones" xmlns="http://www.w3.org/2000/svg" width="32" height="32" viewBox="0 0 32 32"><defs><style>.cls-1{fill:none;}</style></defs><rect class="cls-1" width="32" height="32"/><path d="M10.25,19.27v5.67H9.15V19.27A2.05,2.05,0,0,1,7.46,17.1a2,2,0,0,1,1.69-2.16V7h1.1v7.91a2,2,0,0,1,1.66,2.16A2,2,0,0,1,10.25,19.27Zm-.56-3.36A1.07,1.07,0,0,0,8.5,17.1a1.08,1.08,0,0,0,1.19,1.19,1.08,1.08,0,0,0,1.19-1.19A1.06,1.06,0,0,0,9.69,15.91Zm6.71-1.16V24.94H15.3V14.75a2,2,0,0,1-1.69-2.16,2,2,0,0,1,1.69-2.17V7h1.1v3.39a2,2,0,0,1,1.66,2.17A2,2,0,0,1,16.4,14.75Zm-.57-3.36a1.08,1.08,0,0,0-1.19,1.2,1.09,1.09,0,0,0,1.19,1.19A1.08,1.08,0,0,0,17,12.59,1.07,1.07,0,0,0,15.83,11.39Zm6.71,11.23v2.32H21.45V22.62a2,2,0,0,1-1.66-2.16,2,2,0,0,1,1.66-2.17V7h1.09V18.29a2,2,0,0,1,1.7,2.17A2,2,0,0,1,22.54,22.62ZM22,19.27a1.07,1.07,0,0,0-1.19,1.19A1.09,1.09,0,0,0,22,21.65a1.07,1.07,0,0,0,1.19-1.19A1.05,1.05,0,0,0,22,19.27Z"/></svg>