<?xml version="1.0" encoding="UTF-8"?><svg xmlns="http://www.w3.org/2000/svg" width="24" height="24" viewBox="0 0 24 24"><defs><style>.c{fill:none;}</style></defs><g id="a"><rect class="c" width="24" height="24"/></g><g id="b"><path d="M6.93,15.31v4.6h-1.13v-4.6c-.51-.09-.97-.36-1.29-.76-.32-.41-.48-.92-.45-1.43-.04-.52,.12-1.03,.44-1.44s.79-.68,1.3-.76V4.05h1.13v6.89c.51,.09,.96,.36,1.28,.77,.31,.41,.47,.92,.42,1.43,.03,.51-.13,1.01-.44,1.41-.31,.4-.76,.67-1.26,.77h0Zm-.57-3.37c-.16-.02-.32,0-.47,.06-.15,.05-.29,.14-.4,.25-.11,.11-.2,.25-.25,.4s-.07,.31-.05,.47c-.01,.16,0,.32,.06,.46,.05,.15,.14,.28,.25,.4,.11,.11,.25,.2,.39,.25,.15,.05,.31,.07,.46,.06,.16,.02,.32,0,.47-.06,.15-.05,.29-.14,.4-.25s.2-.25,.25-.4c.05-.15,.07-.31,.05-.47,.02-.16,0-.32-.06-.46-.05-.15-.14-.28-.25-.39-.11-.11-.25-.19-.4-.25-.15-.05-.31-.07-.47-.05v-.02Zm6.24-1.19v9.19h-1.13V10.78c-.51-.09-.97-.36-1.29-.77-.32-.41-.48-.92-.45-1.44-.04-.52,.12-1.03,.44-1.44,.32-.41,.79-.68,1.3-.76v-2.32h1.13v2.31c.51,.09,.96,.37,1.27,.78,.31,.41,.47,.92,.43,1.43,.04,.52-.12,1.03-.43,1.44-.32,.41-.77,.69-1.28,.78v-.03Zm-.56-3.37c-.16-.02-.32,0-.47,.05-.15,.05-.28,.14-.4,.25s-.2,.25-.25,.4c-.05,.15-.07,.31-.05,.47-.01,.16,0,.32,.06,.46,.05,.15,.14,.28,.25,.39,.11,.11,.25,.2,.39,.25,.15,.05,.31,.07,.46,.06,.16,.02,.32,0,.47-.05,.15-.05,.29-.14,.4-.25,.11-.11,.2-.25,.25-.4,.05-.15,.07-.31,.05-.47,.02-.16,0-.32-.05-.47-.05-.15-.14-.29-.26-.4-.12-.11-.25-.2-.41-.25-.15-.05-.31-.06-.47-.04h.02Zm6.22,10.2v2.37h-1.13v-2.37c-.51-.09-.97-.36-1.29-.77-.32-.41-.48-.92-.45-1.44-.04-.52,.12-1.03,.44-1.44,.32-.41,.78-.68,1.3-.76V4.05h1.13V13.16c.51,.09,.96,.37,1.27,.78s.47,.92,.43,1.43c.04,.51-.11,1.02-.43,1.43-.31,.41-.77,.69-1.27,.78h0Zm-.57-3.37c-.16-.02-.32,0-.47,.05-.15,.05-.29,.14-.4,.25-.11,.11-.2,.25-.25,.4-.05,.15-.07,.31-.05,.47,0,.15,.03,.31,.09,.45,.06,.14,.14,.27,.25,.38,.11,.11,.24,.19,.38,.25,.14,.06,.29,.09,.45,.09s.31-.03,.45-.09c.14-.06,.27-.14,.38-.25,.11-.11,.19-.24,.25-.38,.06-.14,.09-.29,.09-.45,.02-.16,.01-.32-.04-.48-.05-.15-.14-.29-.25-.41-.11-.12-.25-.2-.41-.26-.15-.05-.32-.07-.48-.05v.03Z"/></g></svg>