<?xml version="1.0" encoding="UTF-8"?><svg xmlns="http://www.w3.org/2000/svg" width="24" height="24" viewBox="0 0 24 24"><defs><style>.c{fill:none;}</style></defs><g id="a"><rect class="c" width="24" height="24"/></g><g id="b"><path d="M3.46,20.2c-1.35,0-2-.65-2-2V8.15c0-1.35,.65-2,2-2h5.04c.06-1.63,.84-2.35,2.35-2.35h2.31c1.55,0,2.35,.76,2.35,2.35h5.04c1.35,0,1.99,.65,1.99,2v10.05c0,1.35-.65,2-1.99,2H3.46Zm17.97-2.17V8.32c0-.73-.28-1.04-1.01-1.04H3.63c-.73,0-1.01,.31-1.01,1.04v9.71c0,.73,.28,1.04,1.01,1.04H20.41c.73,0,1.01-.31,1.01-1.04Zm-10.56-5.97v-2.42h2.31v2.42h2.35v2.21h-2.35v2.42h-2.32v-2.42h-2.35v-2.21h2.35Zm-1.21-5.92h4.73c-.05-1.07-.47-1.21-1.21-1.21h-2.31c-.76,0-1.21,.17-1.21,1.21Z"/></g></svg>