<?xml version="1.0" encoding="UTF-8"?><svg xmlns="http://www.w3.org/2000/svg" width="24" height="24" viewBox="0 0 24 24"><defs><style>.c{fill:none;}</style></defs><g id="a"><rect class="c" width="24" height="24"/></g><g id="b"><path d="M4.1,21.61V2.39h1.13V21.61h-1.13Zm15.8-7.11c-1.21-.55-2.53-.84-3.86-.84-2.26,0-3.39,1.19-5.66,1.19-1.43-.09-2.81-.54-4.02-1.3V3.45c1.31,.57,2.39,1.19,3.86,1.19,2.26,0,3.39-1.17,5.65-1.17,1.38,.03,2.75,.32,4.02,.87V14.51ZM9.8,5.76c-.81-.04-1.61-.25-2.34-.62v2.39c.7,.38,1.47,.59,2.26,.62v-2.39h.07Zm-2.34,4.67v2.41c.72,.37,1.48,.64,2.26,.81v-2.55c-.79-.08-1.56-.31-2.26-.68h0Zm4.52-2.69c-.73,.26-1.49,.4-2.26,.41v2.96c.77,.01,1.53-.11,2.26-.36v-3.01Zm2.26-2.96c-.81,.19-1.49,.51-2.26,.74v2.22c.73-.3,1.49-.54,2.26-.7v-2.26Zm-2.26,8.71c.81-.19,1.52-.51,2.31-.74v-2.71c-.77,.19-1.52,.42-2.26,.7l-.05,2.74Zm4.52-.95c.77,.05,1.53,.18,2.26,.41v-2.42c-.74-.25-1.49-.42-2.26-.51v-3.04c-.75-.08-1.51-.06-2.26,.06v3.01c.75-.12,1.51-.13,2.26-.03v2.52Zm2.26-5.05v-2.39c-.74-.23-1.49-.4-2.26-.49v2.36c.77,.11,1.53,.28,2.27,.51h-.01Z"/></g></svg>