<?xml version="1.0" encoding="UTF-8"?><svg xmlns="http://www.w3.org/2000/svg" width="24" height="24" viewBox="0 0 24 24"><defs><style>.c{fill:none;}</style></defs><g id="a"><rect class="c" width="24" height="24"/></g><g id="b"><path d="M1.85,21.62V2.38h1.13V21.62H1.85Zm9.07-7.37c-.89,.35-1.84,.54-2.8,.57-1.43-.09-2.82-.54-4.03-1.3V3.41c1.31,.57,2.4,1.2,3.87,1.2,2.27,0,3.4-1.17,5.67-1.17,1.39,.03,2.76,.32,4.03,.87v3.72h-1.13v-2.96c-.92-.32-1.89-.5-2.86-.53-2.34,0-3.4,1.17-5.67,1.17-.96,.03-1.91-.18-2.77-.6v7.75c.9,.48,1.89,.77,2.91,.84,.96-.01,1.91-.2,2.8-.57l-.02,1.11Zm6.23,4.98c-3.08,0-5.01-1.93-5.01-5.01s1.93-5.01,5.01-5.01,5.01,1.9,5.01,5.01-1.89,5.06-4.99,5.06l-.02-.05Zm0-1.09c2.42,0,3.89-1.47,3.89-3.92s-1.47-3.92-3.89-3.92-3.89,1.47-3.89,3.92,1.49,3.92,3.91,3.92h-.02Zm-2.02-2.73l1.2-1.22-1.18-1.15,.74-.74,1.19,1.2,1.28-1.28,.72,.71-1.27,1.28,1.27,1.3-.73,.74-1.28-1.28-1.2,1.2-.74-.75Z"/></g></svg>