<?xml version="1.0" encoding="UTF-8"?><svg xmlns="http://www.w3.org/2000/svg" width="24" height="24" viewBox="0 0 24 24"><defs><style>.c{fill:none;}</style></defs><g id="a"><rect class="c" width="24" height="24"/></g><g id="b"><path d="M2.46,21.62V2.38h1.13V21.62h-1.13Zm9.07-7.37c-.89,.35-1.84,.54-2.8,.57-1.43-.09-2.82-.54-4.03-1.3V3.41c1.31,.57,2.4,1.2,3.87,1.2,2.27,0,3.4-1.17,5.67-1.17,1.39,.03,2.76,.32,4.03,.87v3.72h-1.13v-2.96c-.92-.32-1.89-.5-2.86-.53-2.34,0-3.4,1.17-5.67,1.17-.96,.03-1.91-.18-2.77-.6v7.75c.9,.48,1.89,.77,2.91,.84,.96-.01,1.91-.2,2.8-.57l-.02,1.11Zm8.05,3.4c-1.09-.49-1.7-.82-2.5-1.23-.77,.41-1.45,.73-2.53,1.23l-.49-.3c.13-.92,.32-1.83,.57-2.72-.66-.6-1.09-1.06-1.93-1.96l.11-.62c.9-.18,1.81-.32,2.72-.41,.41-.84,.79-1.58,1.39-2.64h.46c.6,1.06,.97,1.79,1.38,2.64,.9,.09,1.79,.23,2.67,.41l.11,.62c-.82,.87-1.3,1.36-1.96,1.96,.23,.9,.41,1.8,.52,2.72l-.51,.3Zm-4.22-1.53c.6-.29,1.18-.6,1.74-.95,.55,.34,1.12,.65,1.7,.92-.16-.85-.24-1.33-.35-1.82,.7-.65,1.06-1,1.5-1.44-.93-.14-1.45-.22-1.96-.24-.26-.62-.55-1.22-.87-1.81-.24,.49-.46,.92-.84,1.8-.67,.05-1.33,.13-1.98,.24,.44,.51,.91,1,1.41,1.45-.11,.48-.19,.98-.32,1.85h-.02Z"/></g></svg>