<?xml version="1.0" encoding="UTF-8"?><svg xmlns="http://www.w3.org/2000/svg" width="24" height="24" viewBox="0 0 24 24"><defs><style>.c{fill:none;}</style></defs><g id="a"><rect class="c" width="24" height="24"/></g><g id="b"><path d="M1.8,21.62V2.38h1.13V21.62H1.8Zm9.07-7.37c-.89,.35-1.84,.54-2.8,.57-1.43-.09-2.82-.54-4.03-1.3V3.41c1.31,.57,2.4,1.2,3.87,1.2,2.27,0,3.4-1.17,5.67-1.17,1.39,.03,2.76,.32,4.03,.87v3.72h-1.13v-2.96c-.92-.32-1.89-.5-2.86-.53-2.34,0-3.4,1.17-5.67,1.17-.96,.03-1.91-.18-2.77-.6v7.75c.9,.48,1.89,.77,2.91,.84,.96-.01,1.91-.2,2.8-.57l-.02,1.11Zm1.13,0c0-1.01,.3-2,.86-2.83,.56-.84,1.36-1.49,2.29-1.88s1.96-.49,2.95-.29c.99,.2,1.9,.68,2.61,1.4,.71,.71,1.2,1.62,1.4,2.61,.2,.99,.1,2.01-.29,2.95-.39,.93-1.04,1.73-1.88,2.29-.84,.56-1.83,.86-2.83,.86-1.35,0-2.63-.55-3.59-1.5-.95-.95-1.5-2.24-1.51-3.58v-.02Zm9.07,.06c0-.78-.23-1.55-.67-2.2-.44-.65-1.06-1.16-1.78-1.46-.72-.3-1.52-.38-2.29-.23s-1.48,.53-2.03,1.09c-.55,.55-.93,1.26-1.09,2.03-.15,.77-.07,1.57,.23,2.29,.3,.72,.81,1.35,1.46,1.78,.65,.44,1.42,.67,2.2,.67,1.05,0,2.06-.41,2.81-1.15,.75-.74,1.17-1.74,1.18-2.8l-.02-.02Zm-4.53,.52v-3.4h1.13v2.31h2.27v1.09h-3.4Z"/></g></svg>