<?xml version="1.0" encoding="UTF-8"?><svg xmlns="http://www.w3.org/2000/svg" width="24" height="24" viewBox="0 0 24 24"><defs><style>.c{fill:none;}</style></defs><g id="a"><rect class="c" width="24" height="24"/></g><g id="b"><path d="M4.1,21.59V2.41h1.13V21.59h-1.13Zm15.8-7.11c-1.21-.55-2.53-.84-3.86-.84-2.26,0-3.39,1.19-5.65,1.19-1.43-.09-2.81-.54-4.02-1.3V3.43c1.31,.57,2.39,1.19,3.86,1.19,2.26,0,3.39-1.16,5.65-1.16,1.38,.03,2.75,.32,4.02,.87V14.49ZM7.46,5.13v7.73c.9,.48,1.89,.77,2.91,.84,2.34,0,3.39-1.2,5.65-1.2,.93,.01,1.85,.16,2.74,.44V5.09c-.93-.33-1.9-.51-2.89-.53-2.33,0-3.39,1.16-5.65,1.16-.95,.03-1.9-.18-2.76-.6h0Z"/></g></svg>