<svg id="Icones" xmlns="http://www.w3.org/2000/svg" width="32" height="32" viewBox="0 0 32 32"><defs><style>.cls-1{fill:none;}</style></defs><rect class="cls-1" width="32" height="32"/><path d="M8,26a2,2,0,0,1-2.22-2.23V12.62A2,2,0,0,1,8,10.39H23.67a2,2,0,0,1,2.23,2.23V23.81A2,2,0,0,1,23.67,26ZM23.7,25c.79,0,1.1-.37,1.1-1.19V12.65c0-.82-.31-1.19-1.1-1.19H8c-.78,0-1.1.37-1.1,1.19V23.78C6.86,24.6,7.18,25,8,25ZM8,4.78h3.74a3.43,3.43,0,0,1,3,1.09L15.86,7h7.81V9.23H22.58V8.1H15.43L14.11,6.78a2.71,2.71,0,0,0-2.38-.94H9.09V9.23H8Zm1.13,9h10v1.06h-10Zm0,3.38h4.46V18.2H9.12Z"/></svg>