<svg id="Icones" xmlns="http://www.w3.org/2000/svg" width="32" height="32" viewBox="0 0 32 32"><defs><style>.cls-1{fill:none;}</style></defs><rect class="cls-1" width="32" height="32"/><path d="M17,8.07,19.72,7l4.46,11.8-1,.5H18.81l-3.63,1.38c-3.45,1.28-5.43.37-6.78-3.11l-.16-.41c-1.31-3.45-.4-5.58,2.95-6.89l2.42-.95v1.17l-2,.75c-2.82,1.06-3.45,2.54-2.38,5.52l.16.44c1,2.85,2.6,3.6,5.39,2.5l3.79-1.47h4.24l-3.7-9.81L17,9.26ZM15.3,16a2.09,2.09,0,0,1-2.23-2.22,2,2,0,0,1,1.67-2.17V4.78h1.09v6.83a2,2,0,0,1,1.7,2.17A2.07,2.07,0,0,1,15.3,16Zm0-3.45a1.1,1.1,0,0,0-1.22,1.23A1.11,1.11,0,0,0,15.3,15a1.09,1.09,0,0,0,1.22-1.22A1.08,1.08,0,0,0,15.3,12.55Zm6.18,12.39c0-1.13.47-2.38,1.63-4.45h1.13c1.16,2.16,1.6,3.39,1.6,4.45a2,2,0,0,1-2.17,2.17A2,2,0,0,1,21.48,24.94Zm3.32,0c0-.84-.18-1.41-1.13-3.42-.91,1.79-1.16,2.54-1.16,3.42a1.1,1.1,0,0,0,1.16,1.16A1.06,1.06,0,0,0,24.8,24.94Z"/></svg>