<?xml version="1.0" encoding="UTF-8"?><svg xmlns="http://www.w3.org/2000/svg" width="24" height="24" viewBox="0 0 24 24"><defs><style>.c{fill:none;}</style></defs><g id="a"><rect class="c" width="24" height="24"/></g><g id="b"><path d="M12.12,4.03l2.26-.89,3.84,10.15-.84,.56h-3.63l-3.31,1.28c-2.98,1.19-4.68,.35-5.84-2.87l-.14-.35c-1.13-2.98-.33-4.77,2.54-5.96l1.76-.73v1.19l-1.38,.56c-2.26,.92-2.74,2.11-1.9,4.57l.14,.38c.84,2.46,2.17,3.11,4.51,2.17l3.26-1.26h3.52l-3.14-8.3-1.65,.65v-1.15Zm-1.55,7.34c-.56,0-1.1-.22-1.51-.61s-.63-.93-.64-1.49c0-.45,.15-.89,.41-1.25,.27-.36,.65-.62,1.07-.76V1.22h1.13V7.2c.48,.09,.91,.34,1.22,.72,.31,.38,.48,.85,.47,1.34,0,.28-.06,.56-.17,.82-.11,.26-.27,.49-.47,.69-.2,.2-.44,.35-.7,.45-.26,.1-.54,.15-.82,.15h0Zm0-3.19c-.15-.02-.29,0-.43,.05-.14,.05-.26,.13-.36,.23-.1,.1-.18,.23-.23,.37-.05,.14-.06,.29-.04,.43-.01,.14,0,.28,.05,.42,.05,.13,.13,.25,.23,.35,.1,.1,.22,.17,.36,.22,.13,.04,.28,.06,.42,.04,.14,.02,.28,0,.42-.03,.14-.04,.26-.12,.36-.22,.1-.1,.18-.22,.23-.35,.05-.13,.06-.28,.05-.42,.02-.15,0-.29-.04-.43-.04-.14-.12-.27-.22-.37-.1-.1-.23-.18-.37-.23-.14-.05-.29-.07-.43-.05Zm4.96,12.35c0-.87,.65-2.6,1.76-4.63h.98c1.08,2.11,1.76,3.79,1.76,4.63,0,.6-.24,1.17-.66,1.6-.42,.42-1,.66-1.6,.66s-1.17-.24-1.6-.66c-.42-.42-.66-1-.66-1.6h.02Zm3.39-.09c0-.59-.35-1.54-1.13-3.25-.78,1.62-1.13,2.63-1.13,3.25-.01,.15,0,.31,.06,.45,.05,.15,.13,.28,.24,.39,.11,.11,.24,.2,.38,.25,.14,.06,.3,.08,.45,.07,.15,0,.31-.01,.45-.07,.15-.06,.27-.14,.38-.25,.11-.11,.19-.24,.24-.39,.05-.15,.07-.3,.05-.46h0Z"/></g></svg>