<?xml version="1.0" encoding="UTF-8"?><svg xmlns="http://www.w3.org/2000/svg" width="24" height="24" viewBox="0 0 24 24"><defs><style>.c{fill:none;}</style></defs><g id="a"><rect class="c" width="24" height="24"/></g><g id="b"><path d="M8.96,18.15h2.49V5.8h-2.49v2.49h-3.65V2.24h3.65v2.44h6.09V2.24h3.65v6.05h-3.65v-2.49h-2.44v12.35h2.44v-2.44h3.65v6.05h-3.65v-2.44h-6.09v2.44h-3.65v-6.07h3.65v2.45ZM6.47,7.15h1.32V3.37h-1.32v3.79Zm0,13.45h1.32v-3.77h-1.32v3.77ZM16.21,7.15h1.34V3.37h-1.32l-.02,3.79Zm0,13.45h1.34v-3.77h-1.32l-.02,3.77Z"/></g></svg>