<?xml version="1.0" encoding="UTF-8"?><svg xmlns="http://www.w3.org/2000/svg" width="24" height="24" viewBox="0 0 24 24"><defs><style>.c{fill:none;}</style></defs><g id="a"><rect class="c" width="24" height="24"/></g><g id="b"><path d="M17.21,17.21H6.76v1.37c0,.25-.11,.48-.29,.65-.18,.17-.41,.27-.66,.27H3.02c-.24,0-.46-.11-.62-.28-.16-.17-.25-.4-.25-.64v-6.22c0-.55,.14-1.08,.39-1.57,.25-.49,.6-.91,1.03-1.25l-1.47-.64v-.98h2.2c.78-2.09,1.5-3.43,3.18-3.43h9.06c1.67,0,2.4,1.34,3.18,3.43h2.18v.98l-1.48,.64c.43,.33,.79,.76,1.03,1.25,.24,.49,.38,1.02,.38,1.57v6.22c0,.12-.02,.24-.06,.35-.04,.11-.11,.21-.19,.3-.08,.09-.18,.15-.29,.2s-.23,.07-.35,.07h-2.79c-.25,0-.48-.1-.66-.27-.18-.17-.28-.4-.29-.65v-1.37Zm2.23-6.94H4.53c-.34,.25-.62,.56-.84,.92-.22,.36-.36,.76-.41,1.17v6.02h2.32v-2.29h12.76v2.29h2.32v-6.02c-.06-.41-.19-.81-.41-1.17-.21-.36-.49-.67-.83-.92h0Zm-15.05,2.32c0-.23,.07-.45,.2-.65,.13-.19,.31-.34,.52-.43,.21-.09,.45-.11,.67-.07,.23,.05,.43,.16,.59,.32s.27,.37,.32,.6c.04,.22,.02,.46-.07,.67-.09,.21-.24,.39-.43,.52-.19,.13-.42,.2-.65,.2-.15,0-.3-.03-.45-.09-.14-.06-.27-.15-.38-.25-.11-.11-.19-.24-.25-.38-.06-.14-.09-.29-.09-.45h0Zm11.96-6.96H7.64c-1.31,0-1.84,1.16-2.51,3.57h13.73c-.67-2.44-1.2-3.58-2.51-3.58h0Zm.86,6.98c0-.23,.07-.45,.2-.65,.13-.19,.31-.34,.52-.43,.21-.09,.45-.11,.67-.07,.23,.05,.43,.16,.59,.32s.27,.37,.32,.6c.04,.22,.02,.46-.07,.67-.09,.21-.24,.39-.43,.52-.19,.13-.42,.2-.65,.2-.15,0-.3-.03-.45-.09-.14-.06-.27-.15-.38-.25-.11-.11-.19-.24-.25-.38-.06-.14-.09-.29-.09-.45h0Z"/></g></svg>