<?xml version="1.0" encoding="UTF-8"?><svg xmlns="http://www.w3.org/2000/svg" width="24" height="24" viewBox="0 0 24 24"><defs><style>.c{fill:none;}</style></defs><g id="a"><rect class="c" width="24" height="24"/></g><g id="b"><path d="M17.31,17.28H6.72v1.39c0,.25-.12,.49-.3,.66-.18,.17-.43,.27-.68,.27H2.92c-.12,0-.24-.03-.35-.07-.11-.05-.21-.12-.3-.2-.08-.09-.15-.19-.19-.3-.04-.11-.07-.23-.07-.35v-6.3c0-.55,.14-1.1,.39-1.59,.25-.49,.61-.93,1.05-1.26l-1.49-.65v-.99h2.23c.79-2.12,1.52-3.48,3.22-3.48h9.18c1.69,0,2.43,1.36,3.22,3.48h2.24v.99l-1.5,.65c.44,.33,.8,.77,1.05,1.26,.25,.49,.38,1.04,.39,1.59v6.3c0,.12-.02,.24-.07,.35s-.11,.21-.19,.3c-.08,.09-.19,.15-.3,.2-.11,.05-.23,.07-.35,.07h-2.82c-.25,0-.49-.1-.67-.27s-.28-.41-.29-.66l.02-1.39Zm2.26-7.03H4.46c-.34,.25-.63,.57-.85,.93-.22,.36-.36,.77-.42,1.19v6.1h2.35v-2.32h12.93v2.32h2.35v-6.1c-.06-.42-.2-.82-.41-1.19-.21-.36-.5-.68-.84-.93h0ZM6.75,14.54c-1.52-.42-2.35-.74-2.35-1.9v-1.24h3.47v1.02h-2.5v.11c0,.36,0,.54,1.38,.96v1.05ZM16.43,5.53H7.61c-1.33,0-1.86,1.18-2.54,3.62h13.91c-.68-2.46-1.21-3.62-2.54-3.62Zm-4.49,8.39c-.76,0-1.35-.34-1.35-.76s.59-.74,1.35-.74,1.38,.31,1.38,.74-.59,.76-1.38,.76Zm6.74-1.38v-.11h-2.51v-1.02h3.48v1.24c0,1.18-.85,1.47-2.35,1.9v-1.05c1.38-.41,1.38-.6,1.38-.96Z"/></g></svg>