<?xml version="1.0" encoding="UTF-8"?><svg xmlns="http://www.w3.org/2000/svg" width="24" height="24" viewBox="0 0 24 24"><defs><style>.c{fill:none;}</style></defs><g id="a"><rect class="c" width="24" height="24"/></g><g id="b"><path d="M17.27,17.28H6.68v1.39c0,.25-.11,.48-.29,.66-.18,.17-.42,.27-.67,.27H2.92c-.12,0-.24-.03-.35-.07-.11-.05-.21-.12-.29-.2-.08-.09-.15-.19-.19-.3s-.07-.23-.06-.35v-6.3c0-.55,.14-1.1,.39-1.59,.25-.49,.61-.93,1.05-1.26l-1.5-.65v-.99h2.23c.79-2.12,1.53-3.48,3.22-3.48h9.18c1.69,0,2.43,1.36,3.22,3.48h2.23v.99l-1.49,.65c.44,.34,.8,.77,1.05,1.26,.25,.49,.38,1.04,.39,1.59v6.3c0,.12-.02,.24-.07,.35-.04,.11-.11,.21-.2,.3-.08,.09-.18,.15-.3,.2-.11,.05-.23,.07-.35,.07h-2.86c-.25,0-.49-.1-.67-.27-.18-.17-.28-.41-.29-.66v-1.39Zm2.27-7.03H4.42c-.34,.25-.63,.57-.85,.93-.22,.36-.36,.77-.42,1.19v6.1h2.35v-2.32h12.93v2.32h2.35v-6.1c-.06-.42-.2-.82-.41-1.19-.21-.36-.5-.68-.84-.93h0Zm-13.5,3.5c.59,0,.65-.05,.74-.28l.17-.42-2.6-.59v-1.02l3.95,.88-.62,1.7c-.12,.25-.31,.45-.55,.58-.24,.13-.51,.18-.78,.15h-2.01v-.99h1.69ZM16.39,5.51H7.57c-1.33,0-1.87,1.18-2.55,3.62h13.91c-.68-2.44-1.21-3.6-2.54-3.6v-.02Zm-4.46,8.41c-.76,0-1.36-.34-1.36-.76s.59-.74,1.36-.74,1.38,.31,1.38,.74-.59,.76-1.38,.76Zm7.74,.82h-2.01c-.27,.04-.54-.02-.78-.15-.24-.13-.43-.34-.55-.58l-.59-1.7,3.95-.88v1.01l-2.6,.59,.17,.42c.08,.23,.17,.28,.73,.28h1.69l-.03,.99Z"/></g></svg>