<?xml version="1.0" encoding="UTF-8"?><svg xmlns="http://www.w3.org/2000/svg" width="24" height="24" viewBox="0 0 24 24"><defs><style>.c{fill:none;}</style></defs><g id="a"><rect class="c" width="24" height="24"/></g><g id="b"><path d="M17.14,17.14H6.86v.8c0,.24-.11,.47-.28,.64-.17,.17-.4,.26-.65,.26H3.19c-.12,0-.23-.03-.34-.07-.11-.05-.21-.11-.29-.2-.08-.08-.15-.18-.19-.29-.04-.11-.07-.22-.06-.34v-5.57c.01-.54,.14-1.07,.38-1.54,.24-.48,.59-.9,1.02-1.22l-1.45-.63v-.96h2.16c.76-1.89,1.51-2.85,3.12-2.85h8.91c1.62,0,2.36,.94,3.12,2.85h2.17v.96l-1.46,.63c.43,.32,.78,.74,1.02,1.22,.24,.48,.37,1.01,.38,1.55v5.57c0,.12-.02,.23-.06,.34-.04,.11-.11,.21-.19,.29-.08,.08-.18,.15-.29,.2-.11,.05-.22,.07-.34,.07h-2.74c-.24,0-.47-.1-.65-.26s-.27-.4-.28-.64v-.8Zm2.19-6.82H4.64c-.33,.24-.61,.55-.83,.9s-.35,.74-.41,1.15v5.37h2.28v-1.71h12.56v1.71h2.28v-5.37c-.05-.4-.19-.8-.39-1.15s-.48-.66-.81-.91Zm-12.3,3.4c-.51,.05-1.02,0-1.51-.16-.82-.5-1.26-1.98-.5-1.98,.36,0,.72,.07,1.06,.21,.33,.14,.64,.35,.89,.61,.55,.55,.58,1.31,.06,1.31Zm9.26-7.42H7.68c-1.29,0-1.81,.57-2.47,2.96h13.54c-.66-2.39-1.19-2.97-2.47-2.97h0Zm-6.63,8.8c-.11,0-.22-.02-.32-.07-.1-.04-.19-.11-.26-.19-.07-.08-.13-.17-.17-.27-.04-.1-.05-.21-.05-.32,0-.1,.02-.21,.06-.31,.04-.1,.1-.19,.17-.26,.07-.07,.16-.13,.26-.17,.1-.04,.2-.06,.31-.05,.11,0,.21,.01,.31,.05,.1,.04,.19,.1,.27,.17,.08,.07,.14,.16,.18,.26,.04,.1,.06,.2,.06,.31,0,.11-.01,.22-.05,.32-.04,.1-.1,.2-.18,.28-.08,.08-.17,.14-.27,.18-.1,.04-.21,.06-.32,.06Zm4.66-1.67c.11,0,.21,.02,.31,.06s.19,.1,.26,.18c.07,.08,.13,.17,.17,.27,.04,.1,.05,.21,.05,.32,.01,.11,0,.22-.04,.33-.04,.11-.09,.2-.17,.29-.08,.08-.17,.15-.27,.19-.1,.05-.21,.07-.33,.07s-.22-.02-.33-.07c-.1-.04-.19-.11-.27-.19-.08-.08-.13-.18-.17-.29-.04-.11-.05-.22-.04-.33,0-.11,.01-.22,.05-.32,.04-.1,.1-.2,.18-.27,.08-.08,.17-.14,.27-.18,.1-.04,.21-.06,.32-.05h0Zm4.6-1.84c.77,0,.33,1.48-.49,1.98-.49,.16-1,.21-1.51,.16-.52,0-.5-.76,.05-1.31,.25-.26,.56-.47,.89-.61,.33-.14,.69-.21,1.06-.21h0Z"/></g></svg>