<?xml version="1.0" encoding="UTF-8"?><svg xmlns="http://www.w3.org/2000/svg" width="24" height="24" viewBox="0 0 24 24"><defs><style>.c{fill:none;}</style></defs><g id="a"><rect class="c" width="24" height="24"/></g><g id="b"><path d="M17.3,17.87H6.71v1.39c0,.25-.11,.49-.29,.66-.18,.17-.42,.27-.67,.27H2.93c-.12,0-.24-.03-.35-.07-.11-.05-.21-.12-.3-.2-.08-.09-.15-.19-.2-.3s-.07-.23-.07-.35v-6.3c0-.55,.14-1.1,.39-1.59,.25-.49,.61-.93,1.04-1.26l-1.49-.65v-.99h2.23c.62-1.67,1.22-2.85,2.23-3.28l.31-1.38h1.13v1.18h8.28v-1.18h1.13l.31,1.38c1.01,.42,1.61,1.61,2.23,3.28h2.23v.99l-1.49,.65c.44,.34,.8,.77,1.05,1.26,.25,.5,.38,1.04,.39,1.59v6.3c0,.24-.08,.47-.25,.64-.16,.17-.39,.28-.62,.29h-2.82c-.25,0-.49-.1-.67-.27-.18-.17-.28-.41-.29-.66l-.02-1.39Zm2.26-7.03H4.44c-.34,.25-.63,.57-.85,.93-.22,.36-.36,.77-.42,1.19v6.1h2.35v-2.32h12.93v2.32h2.35v-6.1c-.06-.42-.2-.82-.41-1.18-.21-.36-.5-.68-.84-.93h0Zm.11,2.09v1.7c-.01,.22-.11,.43-.27,.59-.16,.15-.38,.24-.6,.24H5.18c-.22,0-.44-.09-.6-.25s-.25-.37-.25-.6v-1.67c0-.11,.02-.22,.06-.33,.04-.1,.1-.2,.18-.28,.08-.08,.17-.14,.28-.18,.1-.04,.21-.06,.33-.06h13.62c.11,0,.23,.02,.33,.06,.1,.04,.2,.1,.28,.18,.08,.08,.15,.17,.19,.28,.04,.1,.07,.22,.07,.33Zm-3.27-6.81H7.57c-1.32,0-1.87,1.18-2.54,3.62h13.94c-.68-2.46-1.22-3.62-2.57-3.62ZM5.5,14.36h1.18v-1.18h-1.18v1.18Zm2.35-1.18v1.18h8.24v-1.18H7.85Zm10.59,0h-1.18v1.18h1.18v-1.18Z"/></g></svg>