<?xml version="1.0" encoding="UTF-8"?><svg xmlns="http://www.w3.org/2000/svg" width="24" height="24" viewBox="0 0 24 24"><defs><style>.c{fill:none;}</style></defs><g id="a"><rect class="c" width="24" height="24"/></g><g id="b"><path d="M17.29,17.99H6.7v1.39c0,.25-.11,.49-.29,.66-.18,.17-.42,.27-.67,.27H2.92c-.12,0-.24-.03-.35-.07-.11-.05-.21-.12-.3-.2-.08-.09-.15-.19-.2-.3-.04-.11-.07-.23-.07-.35v-6.3c0-.55,.14-1.1,.39-1.59,.25-.49,.61-.93,1.05-1.26l-1.49-.65v-.99h2.23c.79-2.12,1.52-3.48,3.22-3.48h1.58c.39-1.24,.59-1.41,1.44-1.41h3.14c.85,0,1.04,.17,1.44,1.41h1.58c1.69,0,2.43,1.36,3.22,3.48h2.23v.99l-1.49,.65c.44,.34,.8,.77,1.05,1.26,.25,.49,.38,1.04,.39,1.59v6.3c0,.12-.02,.24-.06,.35-.04,.11-.11,.21-.19,.3-.08,.09-.18,.16-.29,.2-.11,.05-.23,.07-.35,.07h-2.82c-.25,0-.49-.1-.67-.27-.18-.17-.29-.41-.29-.66v-1.39Zm2.29-7.03H4.44c-.34,.25-.63,.57-.85,.93-.22,.36-.36,.77-.42,1.19v6.1h2.35v-2.32h12.93v2.32h2.35v-6.1c-.05-.42-.19-.82-.4-1.18-.21-.36-.49-.68-.83-.94h0Zm-15.19,2.35c0-.23,.07-.46,.2-.65,.13-.19,.31-.35,.53-.43,.22-.09,.45-.11,.68-.07,.23,.05,.44,.16,.6,.32,.16,.16,.28,.38,.32,.6,.05,.23,.02,.46-.07,.68-.09,.21-.24,.4-.43,.53-.19,.13-.42,.2-.65,.2-.16,0-.31-.02-.46-.08-.15-.06-.28-.14-.39-.25-.11-.11-.2-.24-.26-.39-.06-.15-.09-.3-.09-.46h.03Zm12.06-7.05H7.63c-1.32,0-1.87,1.18-2.54,3.62h13.91c-.71-2.47-1.25-3.63-2.57-3.63h.03Zm-7.34,5.9h1.18v1.18h-1.18v-1.18Zm1.18,1.18h1.18v1.18h-1.18v-1.18Zm1.18-1.18h1.18v1.18h-1.18v-1.18Zm1.18,1.18h1.18v1.18h-1.18v-1.18Zm1.18-1.18h1.18v1.18h-1.29l.12-1.18Zm3.58,1.13c0-.23,.07-.46,.2-.65,.13-.19,.31-.35,.53-.43,.22-.09,.45-.11,.68-.07,.23,.05,.44,.16,.6,.32,.16,.16,.28,.38,.32,.6,.05,.23,.02,.46-.07,.68-.09,.21-.24,.4-.43,.53-.19,.13-.42,.2-.65,.2-.16,.01-.33,0-.48-.06-.15-.05-.3-.14-.42-.25-.12-.11-.22-.24-.28-.39-.07-.15-.1-.31-.1-.47h.11Z"/></g></svg>