<svg id="Icones" xmlns="http://www.w3.org/2000/svg" width="32" height="32" viewBox="0 0 32 32"><defs><style>.cls-1{fill:none;}</style></defs><rect class="cls-1" width="32" height="32"/><path d="M14.12,7a2.9,2.9,0,0,1,2.79,1.72,14.85,14.85,0,0,1,0,12.24,2.9,2.9,0,0,1-2.79,1.72c-5.3,0-9.32-3.39-9.32-7.84S8.82,7,14.12,7Zm-.19,14.55a1.94,1.94,0,0,0,1.94-1.1,13.81,13.81,0,0,0,1.23-5.61,13.81,13.81,0,0,0-1.23-5.61,1.94,1.94,0,0,0-1.94-1.1c-4.52,0-8,2.92-8,6.71S9.41,21.55,13.93,21.55ZM18.35,9l-.53-1.26,3,.88c.38.53.69,1,.94,1.38Zm-.19,12.16.41-1,2.07.6A5.27,5.27,0,0,0,21,22Zm.91-2.79.19-1.06,1.44.4a5.68,5.68,0,0,0-.18,1.07Zm.29-6-.22-1.19,3.57,1a4.63,4.63,0,0,1-.09,1.13Zm0,3V14.28L21.9,15a9,9,0,0,0-.54,1Zm2.16-7.74L22.43,7c1.75,2.41,2.48,4,2.48,5.49,0,3.13-2.23,4-2.23,7,0,1.29.56,2.48,2.26,4.83l-.88.66c-1.76-2.41-2.48-4-2.48-5.49,0-3.32,2.23-4.33,2.23-7C23.81,11.2,23.24,10,21.55,7.66ZM27.2,19.54v1.13l-3.42-1a6.53,6.53,0,0,1,.09-1.1Zm0-3v1.13l-2.64-.75c.19-.32.35-.63.53-1Zm-2.64,5.33,2.64.76v1.12l-1.7-.47C25.13,22.71,24.81,22.24,24.56,21.83ZM27.2,10.42v1.1l-1.38-.41a6.73,6.73,0,0,0-.41-1.19Zm0,3v1.13l-1.42-.41A4.87,4.87,0,0,0,26,13.12Z"/></svg>