<?xml version="1.0" encoding="UTF-8"?><svg xmlns="http://www.w3.org/2000/svg" width="24" height="24" viewBox="0 0 24 24"><defs><style>.c{fill:none;}</style></defs><g id="a"><rect class="c" width="24" height="24"/></g><g id="b"><path d="M17.3,17.28H6.71v1.39c0,.25-.11,.48-.29,.66s-.42,.27-.67,.27H2.92c-.12,0-.24-.03-.35-.07-.11-.05-.21-.12-.29-.2-.08-.09-.15-.19-.19-.3s-.07-.23-.06-.35v-6.3c0-.55,.14-1.1,.39-1.59,.25-.5,.61-.93,1.05-1.26l-1.5-.65v-.99h2.24c.79-2.12,1.52-3.48,3.22-3.48h9.18c1.69,0,2.43,1.36,3.22,3.48h2.23v.99l-1.49,.65c.44,.34,.8,.77,1.05,1.26,.25,.49,.38,1.04,.39,1.59v6.3c0,.12-.02,.24-.07,.35s-.11,.21-.19,.3c-.08,.09-.18,.15-.3,.2-.11,.05-.23,.07-.35,.07h-2.83c-.25,0-.49-.1-.67-.27s-.28-.41-.29-.66v-1.39Zm2.26-7.03H4.47c-.34,.25-.63,.57-.85,.93-.22,.36-.36,.77-.42,1.19v6.1h2.35v-2.32h12.91v2.32h2.35v-6.1c-.06-.42-.2-.82-.41-1.19-.21-.36-.5-.68-.84-.93h0ZM6.74,14.55c-1.53-.42-2.35-.74-2.35-1.9v-1.24h3.48v1.02h-2.51v.11c0,.36,0,.54,1.39,.96v1.05ZM16.42,5.53H7.59c-1.33,0-1.86,1.18-2.54,3.62h13.91c-.68-2.46-1.21-3.62-2.54-3.62Zm-4.01,5.88l.65,1.24-.65,1.13h-.88l-.65-1.13,.65-1.25h.88Zm6.24,1.13v-.11h-2.48v-1.02h3.47v1.24c0,1.18-.85,1.47-2.35,1.9v-1.05c1.37-.41,1.37-.6,1.37-.96Z"/></g></svg>