<?xml version="1.0" encoding="UTF-8"?><svg xmlns="http://www.w3.org/2000/svg" width="24" height="24" viewBox="0 0 24 24"><defs><style>.c{fill:none;}</style></defs><g id="a"><rect class="c" width="24" height="24"/></g><g id="b"><path d="M12,19.74c-3.17,0-5.35-2.24-5.35-5.52,0-2.21,1.35-5.08,4.69-9.96h1.32c3.34,4.89,4.7,7.75,4.7,9.96,0,3.28-2.18,5.52-5.36,5.52Zm0-14.49c-3.22,4.91-4.22,7.07-4.22,8.97,0,2.73,1.6,4.39,4.22,4.39s4.22-1.66,4.22-4.39c0-1.9-.99-4.06-4.22-8.97Zm2.93,9.9c-.28,1.46-1.3,2.26-2.93,2.26s-2.65-.8-2.93-2.26h5.85Z"/></g></svg>