<?xml version="1.0" encoding="UTF-8"?><svg xmlns="http://www.w3.org/2000/svg" width="24" height="24" viewBox="0 0 24 24"><defs><style>.c{fill:none;}</style></defs><g id="a"><rect class="c" width="24" height="24"/></g><g id="b"><path d="M16.98,7.76l.72,.74L7.02,19.17l-.72-.74L16.98,7.76ZM7.06,16.33c-.27-.7-.41-1.45-.4-2.21,0-2.12,1.3-4.87,4.5-9.56h1.27c1.02,1.44,1.8,2.67,2.45,3.77l-.77,.82c-.59-1-1.32-2.21-2.28-3.65-3.09,4.71-4.05,6.78-4.05,8.6,0,.47,.06,.94,.18,1.4l-.91,.82Zm9.22-5.14c.42,.93,.66,1.92,.71,2.94,0,3.15-2.1,5.29-5.14,5.29-1.04,.03-2.07-.27-2.94-.85l.69-.79c.69,.38,1.46,.57,2.25,.55,2.51,0,4.05-1.59,4.05-4.21-.02-.71-.15-1.41-.4-2.07l.77-.87Z"/></g></svg>