<svg id="Icones" xmlns="http://www.w3.org/2000/svg" width="32" height="32" viewBox="0 0 32 32"><defs><style>.cls-1{fill:none;}</style></defs><rect class="cls-1" width="32" height="32"/><path d="M24.9,20.77c0-2.32-2.29-3.51-2.29-6.93V12.77c0-2.94-.57-4.14-2.26-4.67V7c2.45.47,4,2.38,4.45,5.55H23.64v1.25c0,3.11,2.32,4.3,2.32,6.93,0,1.91-1,3-2.79,3s-2.82-1.13-2.82-3V15.94c0-.81-.31-1.13-1.13-1.13H18.06V24.94h1.13V26H5.74V24.94H6.9V9.26A2,2,0,0,1,9.12,7h6.71a2,2,0,0,1,2.23,2.22v4.49h1.16A2,2,0,0,1,21.45,16v4.8c0,1.32.56,2,1.72,2S24.9,22.09,24.9,20.77ZM15.83,8.1H9.12C8.31,8.1,8,8.45,8,9.26V24.94h9V9.26C17,8.45,16.65,8.1,15.83,8.1ZM9.15,9.29h6.68v5.52H9.15Zm5.62,4.49V10.33H10.22v3.45Z"/></svg>