<svg id="Icones" xmlns="http://www.w3.org/2000/svg" width="32" height="32" viewBox="0 0 32 32"><defs><style>.cls-1{fill:none;}</style></defs><rect class="cls-1" width="32" height="32"/><path d="M15.83,24.91a5.2,5.2,0,0,1-5.58-5.58c0-2.48,1.44-5.71,5-11.2H16.4c3.57,5.49,5,8.72,5,11.2A5.21,5.21,0,0,1,15.83,24.91Zm0-15.62c-3.32,5.24-4.48,7.81-4.48,10a4.14,4.14,0,0,0,4.48,4.51,4.14,4.14,0,0,0,4.49-4.51C20.32,17.1,19.16,14.53,15.83,9.29Zm3.39,10a3.09,3.09,0,0,1-3.39,3.45,3.09,3.09,0,0,1-3.38-3.45c0-1.91.84-4,3.38-8.22C18.37,15.31,19.22,17.42,19.22,19.33Z"/></svg>