<?xml version="1.0" encoding="UTF-8"?><svg xmlns="http://www.w3.org/2000/svg" width="24" height="24" viewBox="0 0 24 24"><defs><style>.c{fill:none;}</style></defs><g id="a"><rect class="c" width="24" height="24"/></g><g id="b"><path d="M11.99,19.74c-3.17,0-5.35-2.24-5.35-5.52,0-2.21,1.35-5.08,4.69-9.96h1.34c3.34,4.89,4.7,7.75,4.7,9.96-.02,3.28-2.2,5.52-5.37,5.52Zm0-14.49c-3.22,4.91-4.22,7.07-4.22,8.97,0,2.73,1.6,4.39,4.22,4.39s4.22-1.66,4.22-4.39c0-1.9-.99-4.06-4.22-8.97Zm1.57,4.8c1.02,1.93,1.4,3.17,1.4,4.33,0,1.95-1.08,3.03-2.98,3.03s-2.98-1.08-2.98-3.03c0-1.15,.39-2.4,1.41-4.33h3.15Z"/></g></svg>