<?xml version="1.0" encoding="UTF-8"?><svg xmlns="http://www.w3.org/2000/svg" width="24" height="24" viewBox="0 0 24 24"><defs><style>.c{fill:none;}</style></defs><g id="a"><rect class="c" width="24" height="24"/></g><g id="b"><path d="M15.71,10.24c.31-.02,.62,.04,.91,.15,.29,.11,.55,.29,.77,.51,.22,.22,.38,.49,.49,.78,.11,.29,.15,.6,.13,.91v3.96c0,.54,.08,.89,.6,.89s.6-.35,.6-.89v-7.51h-1.14l-.23-.75,.43-.23c.23-.11,.32-.46,.06-.78l-1.86-2.34,.77-.69,2.39,2.89c.63,.75,.69,1.19,.69,2.39v7.3c0,1.19-.49,1.75-1.75,1.75s-1.79-.54-1.79-1.75v-4.07c0-.91-.34-1.37-1.29-1.37h-1.19v8.45h8.47v1.12H1.25v-1.12H3.63V5.08c0-1.38,.66-2.03,2.03-2.03h6.63c1.37,0,2.03,.66,2.03,2.03v5.16h1.38Zm-3.58-6.06H5.86c-.75,0-1.03,.32-1.03,1.06v1.43H13.18v-1.43c-.02-.73-.3-1.06-1.05-1.06Zm1.03,15.64V7.84H4.81v12l8.35-.02Z"/></g></svg>