<svg id="Icones" xmlns="http://www.w3.org/2000/svg" width="32" height="32" viewBox="0 0 32 32"><defs><style>.cls-1{fill:none;}</style></defs><rect class="cls-1" width="32" height="32"/><path d="M10.22,18.2A4.1,4.1,0,0,1,5.8,13.78c0-2,1-4.36,3.92-9h1c2.89,4.64,3.92,7,3.92,9A4.1,4.1,0,0,1,10.22,18.2Zm0-12.14c-2.57,4.27-3.32,6-3.32,7.72a3.07,3.07,0,0,0,3.32,3.35,3.07,3.07,0,0,0,3.32-3.35C13.54,12.08,12.79,10.33,10.22,6.06Zm2.23,7.72a2,2,0,0,1-2.23,2.29A2,2,0,0,1,8,13.78Zm9,13.39A4.1,4.1,0,0,1,17,22.75c0-2,1-4.36,3.92-9h1c2.88,4.64,3.92,7,3.92,9A4.1,4.1,0,0,1,21.45,27.17Zm0-12.14c-2.57,4.27-3.33,6-3.33,7.72a3.08,3.08,0,0,0,3.33,3.35,3.07,3.07,0,0,0,3.32-3.35C24.77,21.05,24,19.3,21.45,15Zm-.69,3.29h1.38a9,9,0,0,1,1.53,4.43A2,2,0,0,1,21.45,25a2,2,0,0,1-2.23-2.29A9.57,9.57,0,0,1,20.76,18.32Z"/></svg>