<svg id="Icones" xmlns="http://www.w3.org/2000/svg" width="32" height="32" viewBox="0 0 32 32"><defs><style>.cls-1{fill:none;}</style></defs><rect class="cls-1" width="32" height="32"/><path d="M4.64,7H27V24.91H4.64Zm21.29,16.8V8.1H5.74V23.84Zm-13.51-8.4a43.55,43.55,0,0,1-4.83-.82l.25-.94c1.5.38,2.38.57,3.51.79L6.83,10l.76-.78L12,13.75c-.19-1.16-.38-2-.75-3.52l.94-.22c.41,2,.63,3.36.81,4.83ZM12,18.17,7.59,22.68l-.76-.78,4.52-4.45c-1.13.22-2,.4-3.51.78l-.25-.94a43.55,43.55,0,0,1,4.83-.82l.62.6c-.18,1.47-.4,2.85-.81,4.83l-.94-.22C11.66,20.18,11.85,19.33,12,18.17Zm7.21-2.73-.62-.6c.18-1.47.4-2.85.81-4.83l.94.22c-.38,1.51-.56,2.36-.75,3.52l4.45-4.52.75.78-4.51,4.46c1.13-.22,2-.41,3.51-.79l.25.94A43.55,43.55,0,0,1,19.25,15.44Zm4.83,7.24-4.45-4.51c.19,1.16.37,2,.75,3.51l-.94.22c-.41-2-.63-3.36-.81-4.83l.62-.6a43.55,43.55,0,0,1,4.83.82l-.25.94c-1.5-.38-2.38-.56-3.51-.78l4.51,4.45Z"/></svg>