<?xml version="1.0" encoding="UTF-8"?><svg xmlns="http://www.w3.org/2000/svg" width="24" height="24" viewBox="0 0 24 24"><defs><style>.c{fill:none;}</style></defs><g id="a"><rect class="c" width="24" height="24"/></g><g id="b"><path d="M15.91,14.87h.2c.79,0,.99-.15,.99-.74-.01-.73-.2-1.45-.54-2.1-.11-.17-.28-.37-1.05-.59l-2.69-.71c-.91-.22-2.36-1.77-4.22-2.49-1.06-.37-2.19-.55-3.32-.54v-1.2c1.93,.06,3.06,.23,4.34,.85,1.21,.68,2.37,1.44,3.48,2.27l1.73-1.5c.96-.82,1.77-1.56,2.6-1.56,.44,0,.88,.1,1.28,.28l-.31,1.07c-.31-.13-.64-.2-.97-.19-.48,0-1.1,.59-1.95,1.3l-1.15,.97,1.42,.4c1.05,.28,1.53,.63,1.82,1.18,.42,.83,.65,1.73,.68,2.66,0,1.18-.74,1.77-2.1,1.77h-.42c-.19,.44-.51,.82-.91,1.09-.4,.27-.88,.41-1.36,.41s-.96-.14-1.36-.41c-.4-.27-.72-.65-.91-1.09H5.29v-1.13h5.75c.03-.63,.3-1.22,.75-1.66,.45-.44,1.05-.69,1.68-.7,.63,0,1.23,.26,1.69,.7,.45,.44,.72,1.04,.74,1.67h0Zm-1.18,.14c0-.34-.13-.66-.37-.9-.24-.24-.56-.37-.9-.37s-.66,.13-.9,.37c-.24,.24-.37,.56-.37,.9s.13,.66,.37,.9c.24,.24,.56,.37,.9,.37s.66-.13,.9-.37c.24-.24,.37-.56,.37-.9Z"/></g></svg>