<?xml version="1.0" encoding="UTF-8"?><svg xmlns="http://www.w3.org/2000/svg" width="24" height="24" viewBox="0 0 24 24"><defs><style>.c{fill:none;}</style></defs><g id="a"><rect class="c" width="24" height="24"/></g><g id="b"><path d="M13.17,16.01h.2c.77,0,.96-.14,.96-.71-.01-.71-.19-1.41-.52-2.04-.11-.17-.27-.36-1.02-.57l-2.62-.69c-.88-.22-2.3-1.72-4.1-2.42-1.04-.36-2.13-.54-3.23-.52v-1.17c1.88,.06,2.98,.22,4.22,.83,1.17,.66,2.3,1.4,3.39,2.2l1.68-1.46c.94-.8,1.72-1.52,2.54-1.52,.43,0,.85,.09,1.24,.28l-.31,1.04c-.3-.13-.61-.19-.93-.19-.47,0-1.07,.57-1.91,1.26l-1.11,.96,1.38,.38c1.02,.28,1.49,.57,1.77,1.15,.41,.8,.64,1.69,.66,2.59,0,1.15-.72,1.72-2.04,1.72h-.41c-.18,.43-.49,.8-.88,1.06-.39,.26-.85,.4-1.32,.4s-.93-.14-1.32-.4c-.39-.26-.7-.63-.88-1.06H2.85v-1.13h5.58c.03-.61,.29-1.19,.73-1.61,.44-.43,1.02-.67,1.64-.68,.61,0,1.2,.25,1.64,.67,.44,.43,.7,1.01,.72,1.62h0Zm-1.15,.14c0-.33-.13-.64-.36-.88-.23-.23-.55-.36-.88-.36s-.64,.13-.88,.36c-.23,.23-.36,.55-.36,.88s.13,.64,.36,.88c.23,.23,.55,.36,.88,.36s.64-.13,.88-.36c.23-.23,.36-.55,.36-.88h0Zm4.59-6.89c0-.94,.52-1.98,1.54-3.86h1.43c1.02,1.79,1.57,2.87,1.57,3.86,.01,.3-.04,.6-.15,.88-.11,.28-.28,.53-.5,.74-.22,.21-.48,.36-.76,.46-.28,.1-.58,.13-.88,.11-.3,.02-.6-.02-.88-.12s-.54-.26-.75-.47c-.21-.21-.38-.46-.49-.74-.11-.28-.15-.58-.13-.87v.03Zm3.44,.06c0-.66-.28-1.24-1.15-2.87-.88,1.79-1.15,2.26-1.15,2.87,0,.14,.04,.29,.1,.42,.06,.13,.15,.25,.26,.34,.11,.1,.23,.17,.37,.21s.28,.06,.42,.05c.14,0,.29-.02,.42-.07,.13-.05,.26-.13,.36-.22s.19-.21,.25-.35c.06-.13,.09-.27,.1-.41l.02,.03Z"/></g></svg>