<svg id="Icones" xmlns="http://www.w3.org/2000/svg" width="32" height="32" viewBox="0 0 32 32"><defs><style>.cls-1{fill:none;}</style></defs><rect class="cls-1" width="32" height="32"/><path d="M16,18.79c-4.11,0-6.71-2.6-6.71-6.71S11.86,5.37,16,5.37s6.71,2.57,6.71,6.71S20.14,18.79,16,18.79Zm0-1.07c3.48,0,5.61-2.13,5.61-5.64S19.51,6.43,16,6.43s-5.61,2.11-5.61,5.65S12.52,17.72,16,17.72Zm-.44,5.56h.88c.44.5,1,1.06,1.79,1.85V19.61a4.47,4.47,0,0,0,1.09-.38V26l-1.09.63c-.79-.72-1.51-1.44-2.23-2.23-.72.79-1.44,1.51-2.23,2.23L12.68,26V19.23a4.47,4.47,0,0,0,1.09.38v5.52C14.59,24.34,15.12,23.78,15.56,23.28Zm.75-8.41H15.22a31.56,31.56,0,0,1-1.82-2.79l.94-.53c.53.91,1,1.6,1.41,2.25a48.34,48.34,0,0,0,2.54-4.45l.94.53A50.26,50.26,0,0,1,16.31,14.87Z"/></svg>