<?xml version="1.0" encoding="UTF-8"?><svg xmlns="http://www.w3.org/2000/svg" width="24" height="24" viewBox="0 0 24 24"><defs><style>.c{fill:none;}</style></defs><g id="a"><rect class="c" width="24" height="24"/></g><g id="b"><path d="M4.7,17.84V6.16c0-2.52,1.58-4.19,4.43-4.19h5.74c2.84,0,4.43,1.68,4.43,4.19v11.68c0,2.52-1.59,4.19-4.43,4.19h-5.74c-2.85,0-4.43-1.67-4.43-4.19ZM14.66,3.04h-5.31c-2.53,0-3.52,1.37-3.52,3.36v11.23c0,1.96,.99,3.36,3.52,3.36h5.31c2.52,0,3.52-1.37,3.52-3.36V6.37c0-1.96-1-3.33-3.52-3.33Zm-6.61,2.28h1.12v1.07h-1.12v-1.07Zm0,5.56h1.12v1.07h-1.12v-1.07Zm0,3.38h1.12v1.07h-1.12v-1.07Zm0,3.36h1.12v1.07h-1.12v-1.07ZM14.77,6.44h-4.48v-1.09h5.59v13.32h-5.59v-1.07h4.48v-2.32h-4.48v-1.07h4.48v-2.24h-4.48v-1.06h4.48V6.44Z"/></g></svg>