<?xml version="1.0" encoding="UTF-8"?><svg xmlns="http://www.w3.org/2000/svg" width="24" height="24" viewBox="0 0 24 24"><defs><style>.c{fill:none;}</style></defs><g id="a"><rect class="c" width="24" height="24"/></g><g id="b"><path d="M12,22.65c-6.09,0-10.15-4.57-10.15-10.64S5.91,1.35,12,1.35s10.15,4.6,10.15,10.66-4.06,10.64-10.15,10.64Zm0-1.06c5.41,0,9.02-4.12,9.02-9.59S17.39,2.42,12,2.42,2.98,6.54,2.98,12.01s3.64,9.6,9.02,9.6v-.02ZM6.36,5.81h1.13v1.06h-1.13v-1.06Zm10.15,2.26v7.89h-1.07v-3.41h-3.38v3.43h-1.13v-3.43H6.42v-4.47h1.13v3.38h3.38v-3.38h1.13v3.38h3.38v-3.38h1.07Zm-5.6-2.27h1.13v1.06h-1.11l-.02-1.06Zm0,11.32h1.13v1.08h-1.11l-.02-1.08ZM15.42,5.81h1.13v1.06h-1.11l-.02-1.06Zm0,11.32h1.13v1.08h-1.11l-.02-1.08Z"/></g></svg>