<svg id="Icones" xmlns="http://www.w3.org/2000/svg" width="32" height="32" viewBox="0 0 32 32"><defs><style>.cls-1{fill:none;}</style></defs><rect class="cls-1" width="32" height="32"/><path d="M9.29,23.86H22.71v1.06H9.29Zm2.23-2.23h9V22.7h-9Zm5.77-5.71h-.16a8.69,8.69,0,0,1-.91-.06l-1.13,4.61H13.93l1.19-4.92a4.06,4.06,0,0,1-2.41-4.05,4.07,4.07,0,0,1,4.42-4.42,4.07,4.07,0,0,1,4.42,4.42,4,4,0,0,1-3.14,4.3l-.94,4.67H16.31Zm-.16-1.06a3.08,3.08,0,0,0,3.32-3.36,3.08,3.08,0,0,0-3.32-3.36A3.08,3.08,0,0,0,13.8,11.5,3.08,3.08,0,0,0,17.13,14.86Z"/></svg>