<?xml version="1.0" encoding="UTF-8"?><svg xmlns="http://www.w3.org/2000/svg" width="24" height="24" viewBox="0 0 24 24"><defs><style>.c{fill:none;}</style></defs><g id="a"><rect class="c" width="24" height="24"/></g><g id="b"><path d="M5.57,7.3c0-1.46,.92-2.3,2.89-2.3h7.02c1.96,0,2.92,.84,2.92,2.3s-.93,2.34-2.92,2.34h-2.72l2.05,7.02h-1.17l-2.05-7.02h-1.55l2.05,7.02h-1.2l-2.05-7.02h-.4c-1.95-.01-2.87-.88-2.87-2.34Zm1.17,0v.03c0,.78,.61,1.17,1.75,1.17h7.07c1.09,0,1.71-.39,1.71-1.21s-.53-1.17-1.75-1.17h-7.02c-1.25,0-1.78,.33-1.78,1.18h.02Zm0,10.53h11.7v1.17H6.74v-1.17Z"/></g></svg>