<svg id="Icones" xmlns="http://www.w3.org/2000/svg" width="32" height="32" viewBox="0 0 32 32"><defs><style>.cls-1{fill:none;}</style></defs><rect class="cls-1" width="32" height="32"/><path d="M14.87,13.71H13.15l2.22,7.87H14.21L12,13.68A2.65,2.65,0,0,1,9.29,11c0-1.72,1.22-2.76,3.32-2.76h6.78c2.1,0,3.32,1,3.32,2.76s-1.22,2.76-3.32,2.76H16l2.23,7.87H17.1Zm-5.58,9H22.71v1.07H9.29ZM10.35,11c0,1.1.82,1.69,2.26,1.69h6.78c1.47,0,2.25-.59,2.25-1.69s-.75-1.69-2.25-1.69H12.61C11.11,9.26,10.35,9.82,10.35,11Z"/></svg>