<?xml version="1.0" encoding="UTF-8"?><svg xmlns="http://www.w3.org/2000/svg" width="24" height="24" viewBox="0 0 24 24"><defs><style>.c{fill:none;}</style></defs><g id="a"><rect class="c" width="24" height="24"/></g><g id="b"><path d="M20.3,21.5H3.7V7.33h4.65c-1.19-.4-2.28-1.22-2.28-2.65,0-.3,.04-.59,.16-.87,.11-.27,.28-.52,.5-.73,.22-.2,.47-.36,.75-.46,.28-.1,.58-.14,.88-.11,1.14,0,2.38,.59,3.65,3.25,1.28-2.68,2.51-3.25,3.65-3.25,.3-.02,.59,.01,.87,.11,.28,.1,.54,.26,.75,.46,.22,.2,.38,.45,.5,.73,.11,.27,.17,.57,.16,.87,0,1.43-1.11,2.25-2.28,2.65h4.65v14.17ZM4.85,11.99h4.75v-3.53H4.85v3.53Zm4.75,3.62v-2.5H4.85v2.48l4.75,.02Zm0,4.75v-3.56H4.85v3.56h4.75Zm1.91-13.07c-1.14-2.72-2.42-3.69-3.14-3.69-.14-.02-.29,0-.43,.04-.14,.04-.26,.12-.37,.22-.11,.1-.19,.22-.25,.35-.05,.13-.08,.28-.07,.42,0,1.63,2.4,2.63,4.27,2.63l-.02,.04Zm-.74,13.07h2.42V8.49h-2.42v11.88Zm1.71-13.07c1.91,0,4.25-1.02,4.25-2.62,.01-.15,0-.3-.05-.44-.05-.14-.13-.27-.24-.37-.11-.1-.24-.18-.38-.23-.14-.05-.29-.06-.44-.04-.71,0-2,.97-3.14,3.65v.04Zm1.88,1.19v3.53h4.75v-3.56l-4.75,.02Zm0,4.68v2.48h4.75v-2.53l-4.75,.05Zm4.75,3.62h-4.75v3.56h4.75v-3.56Z"/></g></svg>