<?xml version="1.0" encoding="UTF-8"?><svg xmlns="http://www.w3.org/2000/svg" width="24" height="24" viewBox="0 0 24 24"><defs><style>.c{fill:none;}</style></defs><g id="a"><rect class="c" width="24" height="24"/></g><g id="b"><path d="M.5,11.44H2.85c.09-.98,.56-1.88,1.3-2.52,.74-.64,1.7-.98,2.68-.93,.49-.03,.99,.04,1.46,.21,.47,.16,.9,.42,1.27,.75,.37,.33,.67,.73,.88,1.18,.21,.45,.34,.93,.36,1.43,.39-.14,.8-.21,1.21-.21,.39,0,.78,.06,1.15,.19,.07-.99,.52-1.92,1.26-2.59,.74-.66,1.72-1.01,2.71-.97,.98-.06,1.95,.27,2.69,.91,.74,.65,1.2,1.56,1.28,2.54h2.39v1.15h-2.4c-.22,2.13-1.77,3.45-3.97,3.45-.95,.04-1.89-.27-2.62-.89-.73-.61-1.21-1.48-1.33-2.43-.37-.14-.76-.21-1.15-.22-.43,0-.85,.09-1.24,.25-.11,.95-.58,1.82-1.32,2.43-.73,.61-1.67,.92-2.63,.86-.98,.04-1.93-.3-2.67-.94-.74-.64-1.21-1.54-1.31-2.51H.5v-1.13Zm6.33-2.3c-.38-.03-.75,.03-1.1,.16-.35,.13-.67,.34-.93,.61-.26,.27-.46,.59-.59,.94-.13,.35-.18,.73-.14,1.11,0,1.73,1.02,2.88,2.79,2.88s2.81-1.1,2.81-2.88c.03-.38-.03-.76-.16-1.11-.13-.36-.34-.68-.61-.95-.27-.27-.59-.47-.95-.6-.36-.13-.74-.18-1.12-.15h0Zm10.29-.01c-.38-.03-.75,.03-1.1,.16-.35,.13-.67,.34-.94,.61s-.47,.59-.6,.94c-.13,.35-.18,.73-.15,1.11,0,1.73,1.02,2.88,2.79,2.88s2.82-1.1,2.82-2.88c.03-.38-.03-.75-.16-1.11-.13-.35-.34-.67-.61-.94-.27-.27-.59-.47-.94-.6-.35-.13-.73-.18-1.11-.15h0Z"/></g></svg>