<svg id="Icones" xmlns="http://www.w3.org/2000/svg" width="32" height="32" viewBox="0 0 32 32"><defs><style>.cls-1{fill:none;}</style></defs><rect class="cls-1" width="32" height="32"/><path d="M5.11,19.33H4V18.8c0-2.51.88-4.08,2.67-4.71a2.5,2.5,0,0,1-.91-2A2.63,2.63,0,0,1,8.56,9.26a2.65,2.65,0,0,1,2.79,2.79,2.68,2.68,0,0,1-1.1,2.2,3.68,3.68,0,0,1,1.95,1.69,6.52,6.52,0,0,0-.91.63,3.19,3.19,0,0,0-3-1.73c-2.13,0-3.2,1.32-3.2,4Zm5.14-7.28a1.59,1.59,0,0,0-1.69-1.72,1.57,1.57,0,0,0-1.69,1.72,1.57,1.57,0,0,0,1.69,1.73A1.59,1.59,0,0,0,10.25,12.05Zm1.1,10.6h-1.1V22c0-3.07,1.13-4.92,3.45-5.61a3,3,0,0,1-1.22-2.67,3.1,3.1,0,0,1,3.35-3.35,3.11,3.11,0,0,1,3.36,3.35A3,3,0,0,1,18,16.38c2.35.69,3.48,2.51,3.48,5.61v.66h-1.1V22c0-3.32-1.44-4.92-4.52-4.92S11.35,18.7,11.35,22Zm6.74-8.94a2.06,2.06,0,0,0-2.26-2.28,2.06,2.06,0,0,0-2.25,2.28A2.06,2.06,0,0,0,15.83,16,2.07,2.07,0,0,0,18.09,13.71Zm9.57,5.62h-1.1v-.5c0-2.67-1.07-4-3.2-4a3.19,3.19,0,0,0-3,1.73,7.17,7.17,0,0,0-.91-.63,3.68,3.68,0,0,1,2-1.69,2.68,2.68,0,0,1-1.1-2.2,2.65,2.65,0,0,1,2.79-2.79,2.62,2.62,0,0,1,2.79,2.79,2.5,2.5,0,0,1-.91,2c1.79.63,2.67,2.2,2.67,4.71ZM24.8,12.05a1.57,1.57,0,0,0-1.69-1.72,1.58,1.58,0,0,0-1.69,1.72,1.59,1.59,0,0,0,1.69,1.73A1.57,1.57,0,0,0,24.8,12.05Z"/></svg>