<?xml version="1.0" encoding="UTF-8"?><svg xmlns="http://www.w3.org/2000/svg" width="24" height="24" viewBox="0 0 24 24"><defs><style>.c{fill:none;}</style></defs><g id="a"><rect class="c" width="24" height="24"/></g><g id="b"><path d="M7.96,10.31h7.71c.03-.6,.29-1.17,.72-1.59,.43-.42,1.01-.66,1.61-.67,.61,0,1.19,.24,1.62,.66,.44,.42,.69,.99,.71,1.6h.95v-.19c0-.47-.07-.94-.21-1.39l-.14-.38c-.22-.57-.57-.87-1.49-1.09l-1.36-.29c-.41-.09-.8-.25-1.16-.46-.87-.6-1.82-1.08-2.83-1.41-1.09-.35-3.29-.43-5.22-.43-1.17,0-2.49,.08-3.75,.16l-1.36-.73v-.33c1.09-.08,3.83-.24,5.4-.24,1.77,0,4.21,.11,5.41,.51,.99,.37,1.94,.85,2.83,1.41,.26,.15,.53,.27,.81,.35l1.36,.33c.89,.22,1.6,.46,1.98,.95,.55,.77,.88,1.69,.93,2.64,0,1.33-.38,1.74-1.39,1.74h-.97c-.19,.41-.49,.76-.87,1.01-.38,.25-.82,.38-1.28,.38s-.9-.13-1.28-.38c-.38-.25-.68-.6-.87-1.01H7.76c-.19,.41-.49,.76-.87,1.01-.38,.25-.82,.38-1.28,.38-.52,0-1.03-.17-1.44-.49-.41-.32-.7-.77-.82-1.28-1.25-.06-1.85-.46-1.85-1.96v-2.34c.54-.72,1.14-1.39,1.79-2.01l1.04,.57c-.61,.56-1.18,1.17-1.7,1.82v2.04c0,.57,.22,.71,.71,.71,.12-.51,.41-.97,.82-1.31,.41-.33,.92-.52,1.44-.54,.61,0,1.19,.23,1.63,.66,.44,.42,.7,.99,.72,1.6h0ZM1.52,15.31v-1.13c.57-.37,1.25-.54,1.93-.49h15.53c.67-.04,1.34,.13,1.91,.49v1.13c-.59-.34-1.25-.51-1.93-.49h-5.52v5.66h-1.13v-5.66h-2.21v5.66h-1.09v-5.66H3.45c-.68-.02-1.34,.15-1.93,.49h0Zm5.32-4.86c0-.32-.13-.63-.36-.86-.23-.23-.54-.36-.86-.36s-.63,.13-.86,.36c-.23,.23-.36,.54-.36,.86s.13,.63,.36,.86c.23,.23,.54,.36,.86,.36s.63-.13,.86-.36c.23-.23,.36-.54,.36-.86h0Zm12.38,0c0-.32-.13-.63-.36-.86-.23-.23-.54-.36-.86-.36s-.63,.13-.86,.36c-.23,.23-.36,.54-.36,.86s.13,.63,.36,.86c.23,.23,.54,.36,.86,.36s.63-.13,.86-.36c.23-.23,.36-.54,.36-.86h0Z"/></g></svg>