<svg id="Icones" xmlns="http://www.w3.org/2000/svg" width="32" height="32" viewBox="0 0 32 32"><defs><style>.cls-1{fill:none;}</style></defs><rect class="cls-1" width="32" height="32"/><path d="M6.27,20.11A2,2,0,0,1,4.64,18v-1.5a2.76,2.76,0,0,1,.88-2.36l.78-.91,1,.41-1,1.19a2.09,2.09,0,0,0-.62,1.82V18c0,.53.15.85.53,1Zm13-6.21c-2-1.16-2.69-1.31-5.52-1.31a51.89,51.89,0,0,0-5.7.22L6.9,12.37v-.54c2.82-.22,4.86-.31,6.83-.31,2.89,0,3.95.25,6,1.41l2.83,1.6,3.16.47c1.29.19,1.73.5,2.1,1.57a5.94,5.94,0,0,1,.32,1.85c0,1-.57,1.54-1.66,1.69V19c.4-.09.56-.25.56-.56a4.63,4.63,0,0,0-.19-1.32A1.27,1.27,0,0,0,25.62,16l-3.55-.54ZM11.6,19.36h9.56v0a2.09,2.09,0,0,1,2.23-2.2,2.2,2.2,0,1,1,0,4.39,2.11,2.11,0,0,1-2-1.09H11.35a2.14,2.14,0,0,1-2,1.09,2.2,2.2,0,1,1,0-4.39,2.09,2.09,0,0,1,2.23,2.2ZM9.37,18.17a1.1,1.1,0,0,0-1.19,1.16,1.11,1.11,0,0,0,1.19,1.16,1.1,1.1,0,0,0,1.2-1.16A1.08,1.08,0,0,0,9.37,18.17Zm14,2.32a1.11,1.11,0,0,0,1.19-1.16,1.1,1.1,0,0,0-1.19-1.16,1.08,1.08,0,0,0-1.19,1.16A1.1,1.1,0,0,0,23.39,20.49Z"/></svg>