<?xml version="1.0" encoding="UTF-8"?><svg xmlns="http://www.w3.org/2000/svg" width="24" height="24" viewBox="0 0 24 24"><defs><style>.c{fill:none;}</style></defs><g id="a"><rect class="c" width="24" height="24"/></g><g id="b"><path d="M10.3,5.04c.57-.05,1.13,.07,1.63,.34,.5,.27,.9,.69,1.16,1.19,.79,1.49,1.19,3.17,1.16,4.86,.03,1.71-.37,3.4-1.16,4.92-.26,.5-.67,.92-1.16,1.19-.5,.27-1.06,.39-1.63,.35-5,0-8.77-3.01-8.77-6.45s3.76-6.39,8.77-6.39Zm-.17,11.7c.4,.05,.81-.02,1.17-.2,.36-.18,.65-.47,.85-.83,.66-1.33,.99-2.79,.98-4.28,.02-1.46-.32-2.91-.98-4.22-.19-.36-.49-.65-.85-.84-.36-.19-.77-.26-1.18-.21-4.21,0-7.45,2.54-7.45,5.24s3.24,5.34,7.45,5.34h.01ZM14.37,6.13l8.1,2.15v1.16l-7.63-2.11-.47-1.2Zm8.09,11.68v1.16l-8.04-2.33,.42-1.04,7.62,2.2Zm-7.23-9.19l7.23,2.07v1.16l-7.06-2.05-.17-1.18Zm7.23,6.82v1.16l-7.23-2.1,.17-1.12,7.06,2.05Zm0-1.2l-6.98-2.07v-1.16l6.98,2.07v1.16Z"/></g></svg>