<?xml version="1.0" encoding="UTF-8"?><svg xmlns="http://www.w3.org/2000/svg" width="24" height="24" viewBox="0 0 24 24"><defs><style>.c{fill:none;}</style></defs><g id="a"><rect class="c" width="24" height="24"/></g><g id="b"><path d="M9.65,5.54c.57-.05,1.14,.07,1.64,.35,.5,.28,.91,.69,1.17,1.2,.8,1.5,1.2,3.18,1.17,4.89,.03,1.72-.37,3.42-1.17,4.94-.26,.51-.67,.92-1.17,1.2-.5,.27-1.07,.39-1.64,.35C4.62,18.46,.83,15.43,.83,11.97s3.79-6.43,8.82-6.43Zm-.17,11.77c.4,.05,.81-.02,1.17-.2,.36-.18,.66-.47,.85-.83,.66-1.33,1-2.81,.98-4.3,.02-1.47-.32-2.93-.98-4.24-.19-.36-.49-.65-.85-.84-.36-.19-.77-.26-1.18-.21-4.24,0-7.49,2.55-7.49,5.26s3.26,5.37,7.49,5.37Zm6.44-3l2.86-2.87-2.86-2.87,.81-.78,2.87,2.86,2.78-2.8,.79,.81-2.78,2.78,2.78,2.78-.78,.76-2.78-2.78-2.87,2.86-.81-.76Z"/></g></svg>