<?xml version="1.0" encoding="UTF-8"?><svg xmlns="http://www.w3.org/2000/svg" width="24" height="24" viewBox="0 0 24 24"><defs><style>.c{fill:none;}</style></defs><g id="a"><rect class="c" width="24" height="24"/></g><g id="b"><path d="M10.32,4.59c.56-.05,1.11,.07,1.6,.34,.49,.27,.89,.68,1.14,1.17,.78,1.47,1.17,3.11,1.14,4.78,.03,1.68-.36,3.34-1.14,4.83-.26,.49-.65,.9-1.14,1.17-.49,.27-1.05,.39-1.6,.34-4.91,0-8.62-2.96-8.62-6.34s3.71-6.29,8.62-6.29Zm-.17,11.5c.39,.05,.79-.02,1.15-.2s.64-.47,.83-.81c.65-1.3,.98-2.75,.96-4.2,.02-1.44-.31-2.86-.96-4.15-.19-.35-.48-.64-.83-.82-.35-.18-.75-.26-1.15-.21-4.14,0-7.33,2.49-7.33,5.15s3.19,5.24,7.33,5.24h0Zm7.47-.3c-.05-.34-.08-.67-.08-1.01v-.22l-2.36-.69,.17-1.1,2.29,.69c.07-.39,.16-.77,.27-1.14l-2.53-.74v-1.14l2.98,.92c.17-.38,.3-.71,.44-1.07l-3.43-1.01-.17-1.14,3.84,1.1c.02-.16,.03-.33,.03-.49,0-.25-.04-.49-.11-.73l-4.17-1.14-.47-1.14,4.23,1.14c-.39-.77-.84-1.52-1.34-2.22l.82-.61c.71,.95,1.28,1.99,1.72,3.1l2.5,.66v1.14l-2.18-.62c.02,.14,.03,.27,.03,.41,0,.27-.03,.57-.05,.79l2.25,.63v1.14l-2.47-.71c-.14,.39-.27,.71-.44,1.07l2.91,.85v1.14l-3.32-.99c-.13,.35-.23,.71-.31,1.07l3.62,1.07v1.14l-3.71-1.07c0,.42,.06,.83,.17,1.24l3.54,1.05v1.14l-3.1-.88c.31,.73,.67,1.45,1.07,2.14l-.85,.46c-.56-.95-1.04-1.95-1.42-2.99l-3.6-1.01,.41-1.02,2.83,.81Z"/></g></svg>