<svg id="Icones" xmlns="http://www.w3.org/2000/svg" width="32" height="32" viewBox="0 0 32 32"><defs><style>.cls-1{fill:none;}</style></defs><rect class="cls-1" width="32" height="32"/><path d="M14.56,6.5c6.27,0,11.51,5,11.51,11,0,2.79-.88,5.14-2.95,8L5.93,17.69V15.12C5.93,9.82,9.26,6.5,14.56,6.5ZM7,17l15.68,7.12a10.21,10.21,0,0,0,1-1.53L13.21,17.85V16.31a3,3,0,0,0,.53.07,2.94,2.94,0,0,0,.54-.07v.85l9.84,4.45A11,11,0,0,0,25,17.54a9.13,9.13,0,0,0-.6-3.23,20.41,20.41,0,0,0-5-.57H17a2,2,0,0,0,0-1.06h2.39a24,24,0,0,1,4.48.43,10.73,10.73,0,0,0-9.28-5.55C9.82,7.56,7,10.39,7,15.12Zm6.71-1.6a2.11,2.11,0,0,1-2.22-2.19A2.1,2.1,0,0,1,13.74,11,2.09,2.09,0,0,1,16,13.21,2.09,2.09,0,0,1,13.74,15.4Zm0-3.35a1.1,1.1,0,0,0-1.19,1.16,1.11,1.11,0,0,0,1.19,1.16,1.1,1.1,0,0,0,1.19-1.16A1.08,1.08,0,0,0,13.74,12.05Z"/></svg>