<?xml version="1.0" encoding="UTF-8"?><svg xmlns="http://www.w3.org/2000/svg" width="24" height="24" viewBox="0 0 24 24"><defs><style>.c{fill:none;}</style></defs><g id="a"><rect class="c" width="24" height="24"/></g><g id="b"><path d="M12,22.67c-6.11,0-10.18-4.59-10.18-10.67S5.91,1.33,12,1.33s10.18,4.61,10.18,10.69-4.06,10.65-10.18,10.65Zm0-1.06c5.43,0,9.04-4.13,9.04-9.61S17.41,2.39,12,2.39,2.96,6.52,2.96,12s3.66,9.63,9.04,9.63v-.02Zm-3.34-15.42v-1.05c1.04-.3,2.12-.46,3.2-.46,2.23,0,3.66,1.17,3.66,3.39,0,1.28-.57,2.04-1.66,3.18l-.49,.49c-.27,.24-.48,.53-.62,.85-.14,.33-.21,.68-.2,1.04v1.2h-1.18v-1.2c0-.98,.16-1.61,1.19-2.69l.49-.49c.93-1.01,1.19-1.41,1.19-2.33,0-1.63-.95-2.31-2.63-2.31-1,.01-1.99,.15-2.95,.41v-.02Zm2.35,11.87c0-.63,.33-.9,.95-.9s.95,.27,.95,.9-.27,.92-.95,.92c-.12,.02-.25,0-.37-.03s-.23-.1-.32-.19c-.09-.08-.16-.19-.2-.3-.04-.11-.06-.24-.05-.36v-.03Z"/></g></svg>