<?xml version="1.0" encoding="UTF-8"?><svg xmlns="http://www.w3.org/2000/svg" width="24" height="24" viewBox="0 0 24 24"><defs><style>.c{fill:none;}</style></defs><g id="a"><rect class="c" width="24" height="24"/></g><g id="b"><path d="M2.5,12.65v-1.03c2.64-3.1,6.09-4.88,9.5-4.88,.6,0,1.2,.05,1.79,.17l-.81,1.03c-.33-.05-.66-.08-.99-.07-2.44,0-3.93,1.63-3.93,4.27-.02,.62,.08,1.25,.29,1.84l-.78,1c-.49-.86-.73-1.85-.69-2.84-.06-1.24,.34-2.47,1.12-3.44-1.73,.83-3.27,2-4.53,3.44,1.18,1.21,2.51,2.26,3.96,3.13l-.71,.85c-1.6-.9-3.03-2.07-4.23-3.47h0Zm14.39-7.84l.89,.75L7.35,19.19l-.89-.75L16.89,4.81Zm-4.89,11.59c2.44,0,3.93-1.63,3.93-4.27,0-.64-.1-1.27-.32-1.87l.78-1.01c.5,.88,.74,1.89,.72,2.9,.05,1.19-.3,2.37-1,3.33,1.65-.85,3.14-1.98,4.42-3.33-1.15-1.25-2.47-2.33-3.93-3.21l.63-.83c1.63,.89,3.08,2.08,4.27,3.5v1.03c-2.64,3.1-6.09,4.88-9.5,4.88-.62,0-1.23-.06-1.84-.17l.8-1.06c.34,.08,.69,.12,1.03,.11h0Z"/></g></svg>