<svg id="Icones" xmlns="http://www.w3.org/2000/svg" width="32" height="32" viewBox="0 0 32 32"><defs><style>.cls-1{fill:none;}</style></defs><rect class="cls-1" width="32" height="32"/><path d="M10.06,9.7A2.57,2.57,0,0,0,7.59,8.13a2.8,2.8,0,0,0-3,2.64,3.41,3.41,0,0,0,.28,1.41l.69,1.47-.94.47-.75-1.6a3.84,3.84,0,0,1-.38-1.75,3.9,3.9,0,0,1,4.08-3.7A3.81,3.81,0,0,1,11,9.29l.72,1.51-1,.44Zm10.35,6.71a10.83,10.83,0,0,1,1.38,4.64,7.92,7.92,0,0,1-.28,1.7l-.25.84.94,2-1,.5-1.13-2.41.31-1A6.36,6.36,0,0,0,20.63,21a8.33,8.33,0,0,0-1-3.7L18.5,15c-.22-.47-.47-.66-.85-.66a1,1,0,0,0-.84.57h-1a1,1,0,0,0-.91-.57,1,1,0,0,0-.91.57H13a1.11,1.11,0,0,0-1.94,0h-1L8.21,10.83a.73.73,0,0,0-.69-.53.71.71,0,0,0-.75.66.93.93,0,0,0,.13.47l4.61,10-1,.44L7.24,19.52a.67.67,0,0,0-.53-.22A.64.64,0,0,0,6,20c0,.31.12.5.53.81l7.21,5.4L15.05,29l-1,.44-1.23-2.58-7-5.3A2,2,0,0,1,4.92,20a1.78,1.78,0,0,1,1.76-1.79,2.11,2.11,0,0,1,1.31.5L9.62,20,5.89,11.9A2.06,2.06,0,0,1,5.67,11,1.78,1.78,0,0,1,7.46,9.26a2,2,0,0,1,1.76,1.1l1.56,3.42a1.78,1.78,0,0,1,1.29-.54,1.68,1.68,0,0,1,1.44.73,1.73,1.73,0,0,1,1.41-.73,1.65,1.65,0,0,1,1.35.66,1.81,1.81,0,0,1,1.45-.66,2,2,0,0,1,1.81,1.38ZM22.58,2.58A4.11,4.11,0,0,1,27,7a4.12,4.12,0,0,1-4.42,4.43A4.14,4.14,0,0,1,18.15,7,4.11,4.11,0,0,1,22.58,2.58Zm0,7.84A3.1,3.1,0,0,0,26,7a3.1,3.1,0,0,0-3.38-3.41A3.1,3.1,0,0,0,19.19,7,3.11,3.11,0,0,0,22.58,10.42Zm-.47-2.91v-3h1v2H25v1Z"/></svg>