<svg id="Icones" xmlns="http://www.w3.org/2000/svg" width="32" height="32" viewBox="0 0 32 32"><defs><style>.cls-1{fill:none;}</style></defs><rect class="cls-1" width="32" height="32"/><path d="M4.64,14.12l-.75-1.6a3.84,3.84,0,0,1-.38-1.75A3.42,3.42,0,0,1,6.17,7.44a3.51,3.51,0,0,1,3.36-2A3.16,3.16,0,0,1,11,5.78a3.55,3.55,0,0,1,1.51-.34A3.32,3.32,0,0,1,15.77,7.6l.53,1.07-1,.44L14.8,8A2.36,2.36,0,0,0,12.51,6.5,2.75,2.75,0,0,0,11,7,2.3,2.3,0,0,0,9.53,6.5,2.58,2.58,0,0,0,7,8.23c-1.51.37-2.35,1.25-2.35,2.54a3.32,3.32,0,0,0,.28,1.41l.69,1.47Zm9.44,15.31-1.23-2.58-7-5.3A2,2,0,0,1,4.92,20a1.78,1.78,0,0,1,1.76-1.79,2.11,2.11,0,0,1,1.31.5L9.62,20,5.89,11.9A2.06,2.06,0,0,1,5.67,11,1.76,1.76,0,0,1,7.46,9.26a1.55,1.55,0,0,1,.35,0A1.71,1.71,0,0,1,9.53,7.6,1.59,1.59,0,0,1,11,8.38a1.47,1.47,0,0,1,1.38-.78A1.68,1.68,0,0,1,14,8.73l2.36,5a1.83,1.83,0,0,1,1.34-.54,2.05,2.05,0,0,1,1.82,1.38l.88,1.79a10.49,10.49,0,0,1,1.38,4.64,7.4,7.4,0,0,1-.28,1.7l-.25.84.94,2-1,.5-1.13-2.41.31-1A6.85,6.85,0,0,0,20.63,21a8.51,8.51,0,0,0-1-3.7L18.5,15c-.22-.47-.47-.66-.85-.66a1,1,0,0,0-.84.57h-1.1L13,9.17a.74.74,0,0,0-.69-.54.71.71,0,0,0-.75.66.88.88,0,0,0,.13.47l2.47,5.33-1,.44-3-6.36a.76.76,0,0,0-.69-.54.71.71,0,0,0-.75.66,1,1,0,0,0,.12.47l2.67,5.77-1,.44L8.21,10.83a.73.73,0,0,0-.69-.53.71.71,0,0,0-.75.66.93.93,0,0,0,.13.47l4.61,10-1,.44L7.24,19.52a1.05,1.05,0,0,0-.53-.22A.64.64,0,0,0,6,20c0,.31.12.5.53.81l7.21,5.4L15.05,29Zm8.5-26.85A4.11,4.11,0,0,1,27,7a4.12,4.12,0,0,1-4.42,4.43A4.14,4.14,0,0,1,18.15,7,4.11,4.11,0,0,1,22.58,2.58Zm0,7.84A3.1,3.1,0,0,0,26,7a3.1,3.1,0,0,0-3.38-3.41A3.1,3.1,0,0,0,19.19,7,3.11,3.11,0,0,0,22.58,10.42ZM22.1,7.51v-3h1v2H25v1Z"/></svg>