<svg id="Icones" xmlns="http://www.w3.org/2000/svg" width="32" height="32" viewBox="0 0 32 32"><defs><style>.cls-1{fill:none;}</style></defs><rect class="cls-1" width="32" height="32"/><path d="M13.67,23.78H12.23l.94-7.84H6.9L10.25,4.78h5.33l-2,6.74h6.53Zm-.09-2,4.64-9.18H12.07l2-6.75h-3l-2.7,9h6.12Zm8.4,5.4a3.57,3.57,0,0,1-3.83-3.86c0-1.69,1-3.92,3.27-7.34h1.13c2.35,3.67,3.32,5.77,3.32,7.34A3.61,3.61,0,0,1,22,27.17Zm0-10c-2,3.23-2.73,4.8-2.73,6.18A2.54,2.54,0,0,0,22,26.1a2.55,2.55,0,0,0,2.79-2.79C24.77,22,24,20.36,22,17.13Zm1.69,6.18A1.53,1.53,0,0,1,22,25c-1.07,0-1.63-.6-1.63-1.73s.41-2.13,1.63-4.2C23.2,21.18,23.67,22.31,23.67,23.31Z"/></svg>