<?xml version="1.0" encoding="UTF-8"?><svg xmlns="http://www.w3.org/2000/svg" width="24" height="24" viewBox="0 0 24 24"><defs><style>.c{fill:none;}</style></defs><g id="a"><rect class="c" width="24" height="24"/></g><g id="b"><path d="M14.06,16.1h-4.1c-.37-3.84-3.89-4.33-3.89-8.08,0-3.24,2.44-5.01,5.9-5.01s5.97,1.79,5.97,5.01c.02,3.76-3.5,4.24-3.87,8.08Zm-3.1-1.19h2.1c.91-3.32,3.73-4.18,3.73-6.91s-1.83-3.87-4.82-3.87-4.73,1.19-4.73,3.87,2.81,3.61,3.74,6.92l-.02-.02Zm3.07,3.58h-4.07v-1.19h4.07v1.19Zm-4.07,2.1v-.84h4.1v.86c-.65,.28-1.36,.41-2.07,.4-.7,.01-1.39-.12-2.04-.4v-.02Zm2.04-14.09v-1.11c2.18,0,3.55,.86,3.55,2.92h-1.12c-.08-1.43-1-1.81-2.44-1.81Z"/></g></svg>