<svg id="Icones" xmlns="http://www.w3.org/2000/svg" width="32" height="32" viewBox="0 0 32 32"><defs><style>.cls-1{fill:none;}</style></defs><rect class="cls-1" width="32" height="32"/><path d="M18.09,20.43H13.61c-.91-3.45-3.33-4.17-3.33-7.81A5.31,5.31,0,0,1,15.8,7.07a5.36,5.36,0,0,1,5.62,5.55C21.42,16.26,19,17,18.09,20.43Zm2.23-7.81A4.18,4.18,0,0,0,15.8,8.13a4.14,4.14,0,0,0-4.42,4.49c0,3.07,2.1,4,3,6.74h2.92C18.22,16.57,20.32,15.69,20.32,12.62ZM18.06,22.68H13.61V21.62h4.45Zm-4.45,1.79v-.66h4.48v.66a5.48,5.48,0,0,1-2.26.44A5.32,5.32,0,0,1,13.61,24.47Zm2.22-14.11v-1a3.12,3.12,0,0,1,3.36,3.3H18.12A2.18,2.18,0,0,0,15.83,10.36Z"/></svg>