<svg id="Icones" xmlns="http://www.w3.org/2000/svg" width="32" height="32" viewBox="0 0 32 32"><defs><style>.cls-1{fill:none;}</style></defs><rect class="cls-1" width="32" height="32"/><path d="M14.67,26.07H13.42c-.25-1.19-.63-2.57-1-4H7c-.47,1.5-.82,2.91-1.07,4H4.64A84.55,84.55,0,0,1,9.12,12.62h1.13A77.67,77.67,0,0,1,14.67,26.07ZM12.07,21c-.72-2.48-1.6-5-2.38-7C8.84,16.1,8,18.61,7.27,21Zm10.57,5.11V24.82a4.26,4.26,0,0,1-3.11,1.41c-1.88,0-3-1-3-2.76,0-2,1.09-3,3.29-3h2.73V19.05c0-1.38-.69-2-2.23-2A12.56,12.56,0,0,0,17,17.6V16.54A12.93,12.93,0,0,1,20.35,16c2.32,0,3.32.91,3.32,2.95v7.12Zm-.06-2.45V21.56H19.94c-1.63,0-2.29.53-2.29,1.81s.6,1.79,1.88,1.79A4.26,4.26,0,0,0,22.58,23.62Zm0-13.26H19.19V9.23h3.35V5.91h1.13V9.23H27v1.13H23.67v3.39H22.54Z"/></svg>