<svg id="Icones" xmlns="http://www.w3.org/2000/svg" width="32" height="32" viewBox="0 0 32 32"><defs><style>.cls-1{fill:none;}</style></defs><rect class="cls-1" width="32" height="32"/><path d="M15.8,18.2H1.28V17.13H14.49L9.12,9.67l-.12.5c-.47,1.76-1.1,2.42-2.32,2.42a2,2,0,0,1-2-2.2h1.1c0,.66.37,1.13.94,1.13s.91-.31,1.19-1.35l.47-1.76,1-.25,6.49,9ZM1.28,20.52H4.89v1.07H1.28ZM8,23.78a2.2,2.2,0,1,1,0-4.39,2.15,2.15,0,0,1,2,1.1H23.61a2.15,2.15,0,0,1,2-1.1,2.2,2.2,0,1,1,0,4.39,2.08,2.08,0,0,1-2.23-2.19v0H10.22v0A2.08,2.08,0,0,1,8,23.78Zm0-3.35A1.11,1.11,0,0,0,6.8,21.59,1.1,1.1,0,0,0,8,22.75a1.16,1.16,0,1,0,0-2.32Zm15.37-9.79,2.92,3.29,1.88.66c1.5.54,1.91,1,2.1,2.48a17.63,17.63,0,0,1,.13,2.48c0,1-.57,1.53-1.7,1.69v-1.1c.44-.09.6-.25.6-.56a14.16,14.16,0,0,0-.13-2.26c-.12-1-.41-1.41-1.25-1.69l-2.23-.76-3.07-3.44c-1.66-1.89-2.2-2.17-4.55-2.2v10.1H17V8.16h.69C20.63,8.16,21.51,8.54,23.36,10.64Zm2.23,12.11a1.1,1.1,0,0,0,1.19-1.16,1.11,1.11,0,0,0-1.19-1.16,1.09,1.09,0,0,0-1.19,1.16A1.08,1.08,0,0,0,25.59,22.75Z"/></svg>