<svg id="Icones" xmlns="http://www.w3.org/2000/svg" width="32" height="32" viewBox="0 0 32 32"><defs><style>.cls-1{fill:none;}</style></defs><rect class="cls-1" width="32" height="32"/><path d="M9,13.75l-.79.91C7,16.07,6.87,16.35,6.87,17.6v.66a1.31,1.31,0,0,0,.37,1L6.49,20a2.12,2.12,0,0,1-.72-1.73v-.81c0-1.54.12-1.79,1.63-3.58L8.12,13Zm10.25,5.61a2.1,2.1,0,0,1,2.23-2.2,2.08,2.08,0,0,1,2.22,2.2,2.09,2.09,0,0,1-2.22,2.19,2.13,2.13,0,0,1-2-1.12H12.23a2.13,2.13,0,0,1-2,1.12,2.2,2.2,0,1,1,0-4.39,2.09,2.09,0,0,1,2.23,2.2Zm-9-1.16a1.1,1.1,0,0,0-1.19,1.16,1.11,1.11,0,0,0,1.19,1.16,1.1,1.1,0,0,0,1.19-1.16A1.08,1.08,0,0,0,10.25,18.2Zm4.2-1.1h-2l-1-3.32a2.69,2.69,0,0,1-.16-.69c0-.32.19-.47.56-.47s.44.12.54.47L13.29,16h1.32c.41,0,.57.16.57.5S15,17.1,14.45,17.1Zm4,0h-2l-1-3.32a2.69,2.69,0,0,1-.16-.69c0-.32.19-.47.57-.47s.44.12.53.47L17.31,16h1.32c.4,0,.56.16.56.5S19,17.1,18.47,17.1Zm1.19-4.17,2.26,1.69,1.53.38A2.76,2.76,0,0,1,25.9,18a3.43,3.43,0,0,1-.63,2l-.87-.63A2.22,2.22,0,0,0,24.8,18c0-1.1-.56-1.7-2-2l-1.54-.38L19,13.78Zm1.79,5.27a1.1,1.1,0,0,0-1.19,1.16,1.11,1.11,0,0,0,1.19,1.16,1.1,1.1,0,0,0,1.19-1.16A1.08,1.08,0,0,0,21.45,18.2Z"/></svg>