<svg id="Icones" xmlns="http://www.w3.org/2000/svg" width="32" height="32" viewBox="0 0 32 32"><defs><style>.cls-1{fill:none;}</style></defs><rect class="cls-1" width="32" height="32"/><path d="M24.84,23.82a2.79,2.79,0,0,1-2.41-1.28L20,19.34H12.08l-2.51,3.2a2.79,2.79,0,0,1-2.41,1.28,2.19,2.19,0,0,1-2.35-2.38A6.33,6.33,0,0,1,4.93,20l1.6-7.78c.56-2.79,1.79-4,4.2-4A3.74,3.74,0,0,1,14.5,10.4h3a3.71,3.71,0,0,1,3.76-2.22c2.41,0,3.64,1.25,4.2,4L27.07,20a5.86,5.86,0,0,1,.13,1.47A2.2,2.2,0,0,1,24.84,23.82ZM11.48,18.27h9l2.57,3.33c.66.88,1.1,1.16,1.75,1.16s1.29-.57,1.29-1.48A6.64,6.64,0,0,0,26,20l-1.63-7.53c-.5-2.32-1.28-3.2-3.1-3.2-1.54,0-2.38.57-3,2.23H13.74c-.62-1.66-1.47-2.23-3-2.23-1.82,0-2.6.88-3.1,3.2L6,20a6.64,6.64,0,0,0-.13,1.31c0,.91.5,1.48,1.29,1.48s1.09-.32,1.75-1.16Zm-1-1.78V14.86H8.88v-1h1.57v-1.6h1.07v1.6h1.56v1H11.52v1.63ZM21,16.55a2.12,2.12,0,0,1-2.23-2.2A2.1,2.1,0,0,1,21,12.16a2.08,2.08,0,0,1,2.22,2.19A2.09,2.09,0,0,1,21,16.55Zm0-3.36a1.1,1.1,0,0,0-1.19,1.16A1.11,1.11,0,0,0,21,15.51a1.1,1.1,0,0,0,1.19-1.16A1.08,1.08,0,0,0,21,13.19Z"/></svg>