<?xml version="1.0" encoding="UTF-8"?><svg xmlns="http://www.w3.org/2000/svg" width="24" height="24" viewBox="0 0 24 24"><defs><style>.c{fill:none;}</style></defs><g id="a"><rect class="c" width="24" height="24"/></g><g id="b"><path d="M4.09,12.6c.24,1.87,1.63,2.55,5.01,2.55,4.44,0,6.88-.81,6.88-3.2v-1.55c0-2.52-2.44-3.2-6.88-3.2-3.01,0-4.44,.52-4.91,2.03-.4,.02-.79,.1-1.17,.25,.33-2.44,2.17-3.39,6.07-3.39,4.55,0,7.34,.89,7.9,3.36h6.84v3.39h-6.85c-.51,2.38-3.34,3.39-7.9,3.39-.67,0-1.34-.03-2-.11-.48,1.03-1.8,1.77-3.26,1.77-.48,.03-.97-.04-1.42-.22-.45-.17-.87-.43-1.21-.78-.35-.34-.61-.75-.79-1.2-.18-.45-.26-.94-.23-1.42-.04-.52,.04-1.05,.22-1.54,.18-.49,.46-.94,.83-1.31,.37-.37,.81-.66,1.29-.86,.49-.19,1.01-.27,1.53-.25,.42,0,.85,.06,1.25,.19,.1-.14,.23-.26,.39-.34,.15-.08,.33-.12,.5-.12,.15,0,.3,.01,.44,.07,.14,.05,.26,.14,.37,.25,.1,.11,.18,.24,.23,.38,.05,.14,.07,.29,.05,.44,.01,.15,0,.3-.06,.44-.05,.14-.13,.27-.23,.38-.1,.11-.23,.19-.37,.25-.14,.05-.29,.08-.43,.07-.23,0-.44-.08-.63-.21s-.32-.31-.4-.52c-.36-.13-.75-.18-1.13-.16-.37-.03-.74,.02-1.09,.15s-.66,.33-.93,.59c-.26,.26-.47,.57-.6,.92-.13,.35-.18,.72-.16,1.08-.03,.35,.02,.7,.14,1.02,.12,.33,.31,.62,.55,.87,.24,.25,.54,.44,.86,.56,.33,.12,.67,.18,1.02,.15,.4,.04,.81-.02,1.18-.17,.38-.15,.71-.38,.99-.68-1.79-.46-2.71-1.4-2.93-2.87,.13-.15,.28-.27,.46-.35,.18-.08,.37-.11,.57-.1Zm18.67-.84v-1.21h-5.65v1.22h5.65Z"/></g></svg>