<?xml version="1.0" encoding="UTF-8"?><svg xmlns="http://www.w3.org/2000/svg" width="24" height="24" viewBox="0 0 24 24"><defs><style>.c{fill:none;}</style></defs><g id="a"><rect class="c" width="24" height="24"/></g><g id="b"><path d="M.53,5.71H23.47v12.58H.53V5.71Zm21.87,11.46V6.84H1.66v10.33H22.39ZM7.44,10.28v-1.15H4v1.15h3.44Zm-1.15,4.59v-1.15H4v1.15h2.29Zm0-2.29v-1.15h-1.15v1.15h1.15Zm3.44,0v-1.15h-2.29v1.15h2.29Zm6.88,2.29v-1.15H7.44v1.15h9.18Zm-5.74-4.59v-1.15h-2.25v1.15h2.25Zm2.29,2.3v-1.15h-2.25v1.15h2.25Zm1.15-2.3v-1.15h-2.29v1.15h2.29Zm2.29,2.3v-1.15h-2.25v1.15h2.25Zm3.44-2.3v-1.15h-4.64v1.15h4.64Zm-1.15,2.3v-1.15h-1.15v1.15h1.15Zm1.15,2.29v-1.15h-2.29v1.15h2.29Z"/></g></svg>