<svg id="Icones" xmlns="http://www.w3.org/2000/svg" width="32" height="32" viewBox="0 0 32 32"><defs><style>.cls-1{fill:none;}</style></defs><rect class="cls-1" width="32" height="32"/><path d="M13.44,17.69c4,0,4.9-.47,4.9-2.66v-.32c0-2.19-.85-2.66-4.9-2.66-2.82,0-4,.25-4.51,1a4.18,4.18,0,0,0-1.38.28C8,11.55,9.43,11,13.44,11c4.55,0,5.9.72,6,3.36h6.75V15.4H19.46c-.12,2.64-1.47,3.36-6,3.36h-.91A3.28,3.28,0,0,1,9.24,21a3.25,3.25,0,0,1-3.45-3.36,3.41,3.41,0,0,1,3.58-3.6,5.39,5.39,0,0,1,1,.09,1,1,0,0,1,.63-.22.8.8,0,0,1,.88.88.8.8,0,0,1-.88.88.86.86,0,0,1-.79-.47,2.46,2.46,0,0,0-.84-.13,2.37,2.37,0,0,0-2.51,2.57A2.22,2.22,0,0,0,9.24,20a2.16,2.16,0,0,0,2.13-1.28c-2-.16-3-.6-3.48-1.48a1.23,1.23,0,0,1,.79-1C9.08,17.35,10.21,17.69,13.44,17.69Z"/></svg>