<svg id="Icones" xmlns="http://www.w3.org/2000/svg" width="32" height="32" viewBox="0 0 32 32"><defs><style>.cls-1{fill:none;}</style></defs><rect class="cls-1" width="32" height="32"/><path d="M6.87,17.07H5.74v3.39H4.64V12.62h1.1V16H6.87V11.55h4.48V10.33H8V9.26H15.8v1.07H12.45v1.22h4.92L22.55,16V17.1h1.12V14.88H27v8.9H23.67V21.52H22.55v2.26H10.28L6.87,20.46ZM8,20l2.79,2.73h10.7V20.46h3.32v2.26h1.16V15.94H24.77v2.23H21.45v-1.7L17,12.62H8Zm2.35-.07V14.84h1V17.2l1.85-2.32H14.2l-1.75,2.25a24.74,24.74,0,0,1,1.82,2.79h-1.1a15.47,15.47,0,0,0-1.38-2.07l-.5.6v1.47Zm6.43-2.13-.62,2.13H15l-.94-3.35H15l.63,2.35.65-2.35h.94l.63,2.35.6-2.35h.91l-.94,3.35h-1.1Z"/></svg>