<?xml version="1.0" encoding="UTF-8"?><svg xmlns="http://www.w3.org/2000/svg" width="24" height="24" viewBox="0 0 24 24"><defs><style>.c{fill:none;}</style></defs><g id="a"><rect class="c" width="24" height="24"/></g><g id="b"><path d="M2.96,12.43H21.04v10.17H2.96V12.43Zm5.65-5.97l.06,4.8h-1.21l.06-4.69c-.83,1.31-1.88,2.46-3.12,3.39l-.65-.93c1.87-1.3,3.44-3.25,3.82-4.58h-3.39v-1.09h3.3V1.4h1.13v1.98h3.33v1.06h-3.39c.38,1.33,1.95,3.28,3.82,4.58l-.65,.93c-1.25-.96-2.31-2.14-3.14-3.48h.01Zm11.3,15.05V13.52H4.09v8h15.82ZM5.22,14.74h1.13v1.13h-1.13v-1.13Zm0,4.52h2.26v1.13h-2.26v-1.13Zm1.13-2.26h2.22v1.13h-2.22v-1.13Zm1.13-2.26h2.26v1.13h-2.26v-1.13Zm1.13,4.52h6.78v1.13h-6.78v-1.13Zm1.13-2.26h2.22v1.13h-2.22v-1.13Zm1.13-2.26h2.26v1.13h-2.26v-1.13Zm2.3,2.26h2.2v1.13h-2.2v-1.13Zm6.72-5.65h-1.24c-.16-.73-.35-1.49-.56-2.26h-2.82c-.19,.76-.38,1.52-.56,2.26h-1.23c.73-2.9,1.73-6.37,2.66-9.04h1.16c.89,2.61,1.9,6.13,2.58,8.98l.02,.06Zm-5.61,3.42h2.23v1.13h-2.24l.02-1.13Zm3.55-6.78c-.35-1.38-.76-2.77-1.13-4.02-.36,1.25-.76,2.63-1.13,4.02h2.26Zm-1.3,9.04h1.13v1.13h-1.13v-1.13Zm0,2.26h2.26v1.13h-2.26v-1.13Zm1.13-4.52h1.13v1.13h-1.13v-1.13Z"/></g></svg>