<svg id="Icones" xmlns="http://www.w3.org/2000/svg" width="32" height="32" viewBox="0 0 32 32"><defs><style>.cls-1{fill:none;}</style></defs><rect class="cls-1" width="32" height="32"/><path d="M4.27,21.93,4,21.14l.78-.66H5.93V10.42A2,2,0,0,1,8.16,8.19H23.84a2,2,0,0,1,2.23,2.23V20.48h1.16l.78.66-.28.79c-.53,1.44-1.07,1.88-2.26,1.88H6.53C5.34,23.81,4.8,23.37,4.27,21.93Zm21.2.81a1.06,1.06,0,0,0,1.16-.81l.16-.41H5.21l.16.41a1.06,1.06,0,0,0,1.16.81Zm-1.66-2.26H25V10.42c0-.82-.31-1.16-1.13-1.16H8.16C7.34,9.26,7,9.6,7,10.42V20.48H8.19V10.42H23.81Zm-14.52,0H22.74v-9H9.29Z"/></svg>