<?xml version="1.0" encoding="UTF-8"?><svg xmlns="http://www.w3.org/2000/svg" width="24" height="24" viewBox="0 0 24 24"><defs><style>.c{fill:none;}</style></defs><g id="a"><rect class="c" width="24" height="24"/></g><g id="b"><path d="M1.37,19.2c0-.18,.03-.36,.06-.53l1.18-4.8V5.2c0-1.35,.65-2,2-2h14.76c1.36,0,2,.65,2,2V13.98l1.21,4.7c.03,.18,.05,.36,.06,.53,0,1.27-1.35,1.58-2.99,1.58H4.36c-1.63-.02-2.99-.33-2.99-1.6Zm18.52,.42c1.01,0,1.66-.08,1.66-.67-.02-.16-.04-.32-.08-.48l-.96-3.63H3.45l-.88,3.64c-.05,.16-.08,.32-.09,.48,0,.59,.62,.65,1.64,.65l15.75,.02ZM3.77,13.75H20.23V5.38c0-.73-.14-1.05-.88-1.05H4.66c-.73,0-.87,.31-.87,1.05l-.02,8.37Zm10.58,4.4c0,.23-.14,.28-.51,.28h-3.76c-.37,0-.53-.05-.51-.28l.31-1.76c.06-.25,.17-.28,.51-.28h3.16c.34,0,.45,0,.51,.28l.28,1.76Z"/></g></svg>