<?xml version="1.0" encoding="UTF-8"?><svg xmlns="http://www.w3.org/2000/svg" width="24" height="24" viewBox="0 0 24 24"><defs><style>.c{fill:none;}</style></defs><g id="a"><rect class="c" width="24" height="24"/></g><g id="b"><path d="M12.01,23c-1.33-1.81-2.14-2.46-3.3-2.46s-1.68,.46-2.89,1.59l-.43,.4-3.7-3.62c3.02-2.96,4.34-4,4.34-6.75,0-1.68-1.07-3.15-3.18-3.68l-.55-.14L3.39,3.66l3.88,.64c.9-2.46,2.46-3.3,4.72-3.3s3.82,.84,4.72,3.3l3.91-.66,1.07,4.69-.55,.15c-2.08,.52-3.15,2.09-3.15,3.68,0,2.84,1.33,3.71,4.34,6.75l-3.7,3.62-.43-.4c-1.21-1.13-1.81-1.59-2.9-1.59s-1.94,.66-3.27,2.49ZM20.38,7.51l-.6-2.54-3.85,.66c-.69-2.64-2.03-3.5-3.91-3.5s-3.21,.87-3.91,3.5l-3.85-.66-.64,2.54c1.01,.29,1.91,.9,2.56,1.73,.65,.83,1.02,1.85,1.06,2.9,0,2.89-1.24,4.05-3.91,6.77l2.09,2.03c1.3-1.27,2.23-1.56,3.33-1.56,1.42,0,2.2,.6,3.3,1.77,1.07-1.16,1.88-1.77,3.3-1.77,1.1,0,2.03,.29,3.33,1.56l2.05-2c-2.66-2.72-3.91-3.88-3.91-6.77,.03-1.05,.39-2.07,1.03-2.91,.64-.84,1.53-1.45,2.54-1.75h0Zm-9.58-1.74c0-.32,.13-.63,.35-.85,.23-.23,.53-.35,.85-.35s.63,.13,.85,.35c.23,.23,.35,.53,.35,.85s-.13,.63-.35,.85c-.23,.23-.53,.35-.85,.35s-.63-.13-.85-.35c-.23-.23-.35-.53-.35-.85Z"/></g></svg>