<svg id="Icones" xmlns="http://www.w3.org/2000/svg" width="32" height="32" viewBox="0 0 32 32"><defs><style>.cls-1{fill:none;}</style></defs><rect class="cls-1" width="32" height="32"/><path d="M21.64,19.7A3.05,3.05,0,0,0,25,16.63c0-2-1.47-3.14-4.2-3.14,0-3.35-1.63-5.05-4.9-5.05s-4.95,1.76-4.95,5.49C8.54,13.93,7,15.06,7,16.88A2.87,2.87,0,0,0,10.2,19.7h2.73l-.35,1.1H10.2a4,4,0,0,1-4.27-3.92c0-2.13,1.51-3.67,3.92-3.95.22-3.55,2.42-5.55,6-5.55s5.74,1.91,6,5.08c2.64.15,4.24,1.72,4.24,4.17s-1.76,4.17-4.46,4.17H19l.44-1.1Zm-5.83,4.92.53-3.82H13.71l1.6-5h1.32L15.34,19.7h2.92l-2,4.92Z"/></svg>