<svg id="Icones" xmlns="http://www.w3.org/2000/svg" width="32" height="32" viewBox="0 0 32 32"><defs><style>.cls-1{fill:none;}</style></defs><rect class="cls-1" width="32" height="32"/><path d="M12.45,15.69a3,3,0,0,0,.25,1l-3.11,3.1A1.64,1.64,0,0,0,9.12,21a1.68,1.68,0,0,0,1.66,1.66A1.62,1.62,0,0,0,12,22.21l4.67-4.67a1.67,1.67,0,0,0,.44-1.16,1.55,1.55,0,0,0-.47-1.13l-.41-.41.78-.78.41.41a2.77,2.77,0,0,1,.88,1.88,2.69,2.69,0,0,1-.69,1.85L12.76,23a2.75,2.75,0,0,1-2,.81A2.8,2.8,0,0,1,8,21a2.73,2.73,0,0,1,.79-1.94l3.67-3.7Zm6.77.57a1.6,1.6,0,0,0-.28-1l3.13-3.13a1.64,1.64,0,0,0,.47-1.2,1.69,1.69,0,0,0-1.66-1.69,1.66,1.66,0,0,0-1.16.5l-4.51,4.52a2,2,0,0,0-.69,1.28,1.71,1.71,0,0,0,.62,1.2l.32.31-.79.78-.31-.31a2.83,2.83,0,0,1-1-2,2.73,2.73,0,0,1,1-2L18.88,9a2.77,2.77,0,0,1,2-.82A2.88,2.88,0,0,1,23.7,11a2.67,2.67,0,0,1-.84,1.91l-3.64,3.64Z"/></svg>