<?xml version="1.0" encoding="UTF-8"?><svg xmlns="http://www.w3.org/2000/svg" width="24" height="24" viewBox="0 0 24 24"><defs><style>.c{fill:none;}</style></defs><g id="a"><rect class="c" width="24" height="24"/></g><g id="b"><path d="M7.58,20.47c-.2,.2-.44,.36-.7,.47-.26,.11-.55,.16-.83,.16-.82-.01-1.61-.34-2.19-.92-.59-.58-.93-1.35-.95-2.18,0-.29,.05-.59,.17-.86,.11-.27,.28-.52,.49-.72l6.07-6.12c.17-.18,.37-.33,.6-.42,.23-.1,.47-.15,.72-.15,.98,.08,1.88,.54,2.51,1.29l.33,.33-.79,.79-.33-.33c-.4-.5-.98-.84-1.61-.96-.15,0-.29,.04-.42,.1-.13,.06-.25,.15-.34,.26l-6,6.04c-.1,.1-.18,.21-.23,.34-.05,.13-.08,.26-.07,.4,.05,.52,.28,1,.65,1.36,.37,.36,.86,.58,1.38,.61,.14,0,.28-.02,.41-.07,.13-.05,.25-.13,.35-.23l4.65-4.65c.31,.17,.66,.26,1.01,.27l.24,.06-5.12,5.12ZM16.39,3.53c.2-.2,.43-.36,.69-.47,.26-.11,.54-.16,.82-.16,.84,.03,1.63,.37,2.22,.96,.6,.59,.94,1.38,.98,2.21,0,.29-.05,.57-.16,.83-.11,.26-.27,.5-.47,.7l-6.13,6.1c-.17,.18-.37,.32-.6,.42-.23,.1-.47,.15-.72,.15-.98-.08-1.88-.54-2.52-1.29l-.33-.33,.8-.79,.33,.33c.41,.49,.98,.82,1.61,.93,.15,0,.29-.02,.42-.08,.13-.06,.25-.14,.35-.25l6-5.99c.1-.1,.18-.22,.23-.35,.05-.13,.08-.27,.07-.42-.03-.52-.26-1.01-.63-1.38-.37-.37-.87-.58-1.39-.61-.15,0-.3,.03-.43,.08-.14,.06-.26,.14-.36,.25l-4.62,4.62c-.29-.17-.62-.28-.96-.3h-.32l5.14-5.15Z"/></g></svg>