<?xml version="1.0" encoding="UTF-8"?><svg xmlns="http://www.w3.org/2000/svg" width="24" height="24" viewBox="0 0 24 24"><defs><style>.c{fill:none;}</style></defs><g id="a"><rect class="c" width="24" height="24"/></g><g id="b"><path d="M7.08,6.38c.02,.13,0,.26-.04,.38-.04,.12-.11,.23-.2,.33-.09,.09-.2,.16-.33,.2-.12,.04-.25,.05-.38,.04-.13,.02-.26,0-.38-.04-.12-.04-.23-.11-.33-.2-.09-.09-.16-.2-.2-.33s-.05-.25-.04-.38c-.02-.13,0-.26,.04-.38,.04-.12,.11-.23,.2-.33,.09-.09,.2-.16,.33-.2,.12-.04,.25-.05,.38-.04,.13-.02,.26,0,.38,.04,.12,.04,.23,.11,.33,.2,.09,.09,.16,.2,.2,.33,.04,.12,.05,.25,.04,.38h0Zm0,5.65c.02,.13,0,.26-.04,.38-.04,.12-.11,.23-.2,.33-.09,.09-.2,.16-.33,.2-.12,.04-.25,.06-.38,.04-.13,.02-.26,0-.38-.04-.12-.04-.23-.11-.33-.2-.09-.09-.16-.2-.2-.33-.04-.12-.05-.25-.04-.38-.02-.13,0-.26,.04-.38s.11-.23,.2-.33c.09-.09,.2-.16,.33-.2,.12-.04,.25-.06,.38-.04,.13-.02,.26,0,.39,.04s.24,.12,.33,.21c.09,.09,.16,.21,.2,.33,.04,.13,.05,.26,.03,.39v-.02Zm0,5.6c.02,.13,0,.26-.04,.38-.04,.12-.11,.23-.2,.33-.09,.09-.2,.16-.33,.2-.12,.04-.25,.05-.38,.04-.25,0-.49-.1-.67-.28-.18-.18-.28-.42-.28-.67s.1-.49,.28-.67c.18-.18,.42-.28,.67-.28,.13-.02,.26,0,.39,.04s.24,.12,.33,.21c.09,.09,.16,.21,.2,.33,.04,.13,.05,.26,.03,.39v-.02Zm2.71-11.85h9.03v1.13H9.79v-1.13Zm0,5.65h9.03v1.13H9.79v-1.13Zm0,5.6h9.03v1.13H9.79v-1.13Z"/></g></svg>