<?xml version="1.0" encoding="UTF-8"?><svg xmlns="http://www.w3.org/2000/svg" width="24" height="24" viewBox="0 0 24 24"><defs><style>.c{fill:none;}</style></defs><g id="a"><rect class="c" width="24" height="24"/></g><g id="b"><path d="M7.08,8.32h-1.13c-.47-.62-.9-1.26-1.29-1.93l.92-.57c.3,.49,.59,.95,.92,1.44,.61-.94,1.16-1.91,1.66-2.9l.95,.52c-.8,1.49-1.27,2.28-2.02,3.44Zm0,5.65h-1.13c-.47-.62-.9-1.26-1.29-1.93l.92-.57c.3,.49,.59,.95,.92,1.44,.6-.94,1.16-1.91,1.66-2.9l.95,.51c-.8,1.49-1.27,2.25-2.02,3.44h0Zm0,5.66h-1.13c-.47-.62-.9-1.27-1.29-1.94l.92-.57c.3,.49,.59,.95,.92,1.43,.61-.94,1.16-1.91,1.66-2.9l.95,.52c-.8,1.49-1.27,2.26-2.02,3.44v.02Zm3.23-12.41h9.04v1.13H10.3v-1.13Zm0,5.65h9.04v1.13H10.3v-1.13Zm0,5.65h9.04v1.13H10.3v-1.13Z"/></g></svg>