<?xml version="1.0" encoding="UTF-8"?><svg xmlns="http://www.w3.org/2000/svg" width="24" height="24" viewBox="0 0 24 24"><defs><style>.c{fill:none;}</style></defs><g id="a"><rect class="c" width="24" height="24"/></g><g id="b"><path d="M18.67,10.9v10H5.33V11.06c0-1.42,.48-2.4,2.37-2.4h.93v-2.22c0-2.13,1.2-3.33,3.26-3.33s3.41,1.17,3.41,3.33v2.22h.93c1.66,0,2.43,.82,2.43,2.24Zm-10.96-1.11c-.83,0-1.26,.29-1.26,1.31v8.69h11.12V11.08c0-1.01-.42-1.31-1.25-1.31H7.7Zm4.3,7.15v-1.11c-.29,.03-.59,0-.87-.1-.28-.1-.53-.25-.75-.46-.21-.21-.38-.46-.48-.73-.11-.28-.15-.57-.13-.87-.02-.29,.03-.59,.13-.86,.11-.27,.27-.52,.48-.72,.21-.2,.46-.36,.74-.45,.28-.1,.57-.13,.86-.1,.29-.03,.58,0,.86,.11,.28,.1,.53,.25,.74,.45,.21,.2,.38,.45,.48,.72,.11,.27,.15,.56,.14,.85,.02,.39-.07,.79-.27,1.13-.2,.34-.49,.62-.84,.79v2.46h-2.42v-1.11h1.31Zm-2.22-10.35v2.08h4.45v-2.08c0-1.6-.96-2.35-2.29-2.35s-2.15,.77-2.15,2.35h0Zm2.22,6.02c-.77,0-1.11,.4-1.11,1.04s.32,1.07,1.11,1.07c.15,.02,.3,.01,.44-.03,.14-.04,.27-.12,.38-.23,.11-.1,.19-.23,.24-.37,.05-.14,.07-.29,.05-.44,0-.14-.01-.29-.07-.42-.05-.13-.14-.26-.24-.35-.11-.1-.23-.17-.37-.22-.14-.04-.28-.06-.43-.04h0Z"/></g></svg>