<?xml version="1.0" encoding="UTF-8"?><svg xmlns="http://www.w3.org/2000/svg" width="24" height="24" viewBox="0 0 24 24"><defs><style>.c{fill:none;}</style></defs><g id="a"><rect class="c" width="24" height="24"/></g><g id="b"><path d="M11.56,19.35c-4.48-2.74-7.46-6.49-7.46-10.18,0-2.87,1.55-4.52,4.07-4.52,1.44,0,2.66,.59,3.83,2.12,1.17-1.52,2.39-2.12,3.83-2.12,2.52,0,4.07,1.66,4.07,4.52,0,3.69-2.99,7.44-7.46,10.18h-.87Zm-3.39-13.57c-1.84,0-2.96,1.19-2.96,3.39,0,3.1,2.63,6.54,6.78,9.12,4.16-2.58,6.78-6.02,6.78-9.12,0-2.22-1.13-3.39-2.96-3.39-1.49,0-2.66,.89-3.83,2.93-1.14-2.06-2.31-2.96-3.83-2.96v.03Z"/></g></svg>