<svg id="Icones" xmlns="http://www.w3.org/2000/svg" width="32" height="32" viewBox="0 0 32 32"><defs><style>.cls-1{fill:none;}</style></defs><rect class="cls-1" width="32" height="32"/><path d="M7,26.07A2,2,0,0,1,4.8,23.84V11.52A2,2,0,0,1,7,9.29h5.65V5.93h6.64V9.29H25a2,2,0,0,1,2.23,2.23V23.84A2,2,0,0,1,25,26.07ZM9.29,25V10.36H7c-.81,0-1.13.34-1.13,1.16V23.84C5.9,24.66,6.22,25,7,25Zm12.32,0V10.36H10.39V25ZM13.77,9.29h4.46V7H13.77ZM26.1,23.84V11.52c0-.82-.32-1.16-1.13-1.16H22.71V25H25C25.78,25,26.1,24.66,26.1,23.84Z"/></svg>