<?xml version="1.0" encoding="UTF-8"?><svg xmlns="http://www.w3.org/2000/svg" width="24" height="24" viewBox="0 0 24 24"><defs><style>.c{fill:none;}</style></defs><g id="a"><rect class="c" width="24" height="24"/></g><g id="b"><path d="M3.44,20.2c-1.36,0-2-.65-2-2V8.15c0-1.35,.65-2,2-2h5.05c.06-1.64,.85-2.35,2.35-2.35h2.32c1.55,0,2.35,.76,2.35,2.35h5.06c1.35,0,2,.65,2,2v10.05c0,1.36-.65,2-2,2H3.44Zm2.71-1.13V7.28H3.61c-.74,0-1.02,.31-1.02,1.04v9.71c0,.73,.28,1.04,1.02,1.04h2.54Zm10.58,0V7.28H7.33v11.79h9.4ZM9.68,6.14h4.74c-.05-1.08-.48-1.22-1.21-1.22h-2.35c-.76,.01-1.21,.18-1.21,1.23h.03Zm11.77,11.88V8.32c0-.73-.28-1.04-1.02-1.04h-2.54v11.79h2.53c.74,0,1.02-.31,1.02-1.04Z"/></g></svg>