<?xml version="1.0" encoding="UTF-8"?><svg xmlns="http://www.w3.org/2000/svg" width="24" height="24" viewBox="0 0 24 24"><defs><style>.c{fill:none;}</style></defs><g id="a"><rect class="c" width="24" height="24"/></g><g id="b"><path d="M8.55,17.46c.58,0,1.09-.39,1.88-1.31l5.45-6.52,2.71,2.26,.87,.73-5.82,6.88c-1.51,1.79-3.19,2.65-4.89,2.65-2.88,0-6.41-3.1-6.41-6.15,.07-1.62,.71-3.17,1.82-4.36l5.82-6.91,3.55,3.02-5.47,6.49c-.68,.81-.98,1.37-.98,1.85,0,.62,.92,1.37,1.48,1.37Zm.14,3.55c1.43,0,2.8-.76,4.08-2.24l3.91-4.61-1.79-1.54-3.58,4.28c-.92,1.12-1.79,1.71-2.68,1.71-1.16,0-2.71-1.32-2.71-2.52,0-.76,.42-1.62,1.26-2.6l3.53-4.24-1.79-1.51-3.91,4.66c-.93,1-1.47,2.3-1.54,3.66,0,2.35,2.96,4.95,5.23,4.95h0ZM11.51,4.55l.78-.92,1.9,1.6-.79,.92-1.9-1.6Zm1.54-1.82l.75-.89,1.9,1.6-.79,.93-1.87-1.63Zm5.2,5.79l1.9,1.6-.78,.92-1.9-1.6,.79-.92Zm1.51-1.79l1.91,1.59-.79,.94-1.9-1.62,.78-.9Z"/></g></svg>