<?xml version="1.0" encoding="UTF-8"?><svg xmlns="http://www.w3.org/2000/svg" width="24" height="24" viewBox="0 0 24 24"><defs><style>.c{fill:none;}</style></defs><g id="a"><rect class="c" width="24" height="24"/></g><g id="b"><path d="M1.3,19.82V5.24l6.96,2.22c.12,.88,.43,1.72,.92,2.46v10.94l5.64-1.95v-4.63l1.13-1.25v5.88l5.64,1.78V8.33l-2.52-.81c.1-.35,.17-.7,.19-1.06l3.43,1.13v14.58l-7.35-2.35-6.66,2.35-7.39-2.35ZM2.43,6.69v12.39l5.64,1.79V8.54l-5.64-1.85Zm15.74-.41c0,2.08-1.47,4.57-3.98,7.2h-1.03c-2.44-2.63-3.95-5.12-3.95-7.2,0-2.71,1.73-4.44,4.51-4.44s4.45,1.73,4.45,4.44Zm-4.47,6.2c2.35-2.68,3.38-4.57,3.38-6.2,0-2.06-1.3-3.38-3.38-3.38s-3.41,1.3-3.41,3.38c0,1.64,1.05,3.54,3.41,6.2Zm0-7.99c.23-.02,.47,.02,.69,.1,.22,.08,.42,.21,.58,.38,.16,.17,.29,.37,.37,.59s.11,.46,.09,.69c.02,.23-.02,.47-.1,.69-.08,.22-.21,.42-.38,.58-.17,.16-.37,.29-.59,.37-.22,.08-.46,.11-.69,.08-.23,.02-.46-.01-.68-.09-.22-.08-.42-.21-.58-.37-.16-.16-.29-.36-.37-.58-.08-.22-.11-.45-.09-.68-.02-.23,.01-.47,.09-.69s.21-.42,.37-.59c.16-.17,.36-.3,.58-.38,.22-.08,.45-.12,.69-.1l.03,.02Zm0,.95c-.2,.02-.39,.11-.52,.26-.14,.15-.21,.34-.21,.54s.07,.39,.21,.54c.14,.15,.32,.24,.52,.26,.1,0,.21-.01,.3-.05,.1-.04,.18-.1,.25-.17,.07-.07,.13-.16,.16-.26,.03-.1,.05-.2,.04-.3,.01-.11,0-.22-.03-.32-.03-.1-.09-.2-.16-.28-.07-.08-.17-.14-.27-.18-.1-.04-.21-.06-.32-.05l.03,.02Z"/></g></svg>