<?xml version="1.0" encoding="UTF-8"?><svg xmlns="http://www.w3.org/2000/svg" width="24" height="24" viewBox="0 0 24 24"><defs><style>.c{fill:none;}</style></defs><g id="a"><rect class="c" width="24" height="24"/></g><g id="b"><path d="M16.19,12.63h1.89c1.63,2.24,3.64,4.77,5.79,7.45v1.02H.13v-1.02c2.15-2.68,4.19-5.21,5.79-7.45h1.89l.81,1.11h-2.06c-1.46,2.01-3.09,4.08-4.77,6.17H22.19c-1.69-2.1-3.32-4.17-4.78-6.17h-2.01l.79-1.11Zm.78-4.95c0,2.24-1.57,4.92-4.24,7.74h-1.14c-2.62-2.83-4.24-5.5-4.24-7.74,0-2.91,1.87-4.77,4.85-4.77s4.78,1.87,4.78,4.77Zm-4.8,6.67c2.54-2.88,3.64-4.92,3.64-6.67,0-2.21-1.39-3.64-3.64-3.64s-3.67,1.39-3.67,3.64c0,1.78,1.14,3.82,3.67,6.67Zm-.03-8.59c.25-.02,.51,.02,.75,.11,.24,.09,.45,.23,.63,.41,.18,.18,.31,.4,.4,.64,.08,.24,.12,.5,.09,.75,.01,.25-.03,.49-.12,.72-.09,.23-.23,.44-.4,.61-.18,.17-.39,.3-.62,.39-.23,.08-.48,.12-.73,.1-.25,.02-.49-.01-.73-.1-.23-.08-.44-.22-.62-.39-.18-.17-.31-.38-.4-.61-.09-.23-.13-.48-.11-.72-.02-.25,0-.51,.09-.75,.08-.24,.22-.46,.4-.64,.18-.18,.39-.32,.63-.42,.24-.09,.49-.13,.74-.11h0Zm0,1.02c-.12,0-.23,.02-.34,.07-.11,.05-.2,.11-.28,.2-.08,.08-.14,.18-.18,.29s-.05,.22-.05,.34c0,.11,.02,.22,.06,.33,.04,.1,.1,.2,.18,.28,.08,.08,.17,.14,.28,.18,.1,.04,.21,.06,.33,.06,.11,0,.22-.01,.32-.06,.1-.04,.2-.1,.27-.18,.08-.08,.14-.17,.18-.28,.04-.1,.05-.22,.05-.33,.01-.11,0-.23-.03-.34-.04-.11-.09-.21-.17-.3-.08-.09-.17-.15-.28-.2s-.22-.07-.34-.06h0Z"/></g></svg>