<?xml version="1.0" encoding="UTF-8"?><svg xmlns="http://www.w3.org/2000/svg" width="24" height="24" viewBox="0 0 24 24"><defs><style>.c{fill:none;}</style></defs><g id="a"><rect class="c" width="24" height="24"/></g><g id="b"><path d="M.68,2.73l7.41,2.33,6.7-2.33,7.38,2.33-.03,7.31-1.13-.93V5.83l-5.65-1.79V13.37c-.55,.48-.95,1.11-1.13,1.82V4.03l-5.65,1.98v12.41l5.76-2.01c-.01,.36,.02,.71,.11,1.06l-6.35,2.23L.68,17.37V2.73Zm6.79,15.66V5.99L1.81,4.2v12.41l5.65,1.79Zm9.39-.49l-.92,.49c-.37-.62-.57-1.33-.57-2.06-.03-.44,.04-.89,.19-1.31,.16-.42,.4-.8,.71-1.11,.31-.32,.69-.56,1.1-.72,.42-.16,.86-.23,1.3-.2h.98c-.41-.24-.76-.44-1.36-.76l.49-.84c.81,.47,1.56,1.04,2.23,1.7v.81c-.67,.66-1.42,1.23-2.23,1.7l-.49-.84c.57-.33,.95-.51,1.36-.76h-.96c-1.49,0-2.26,.89-2.26,2.31-.04,.56,.11,1.12,.41,1.6h0Zm4.97-3.15l.92-.49c.37,.63,.56,1.34,.57,2.06,.03,.44-.04,.89-.19,1.3-.16,.42-.4,.79-.71,1.11-.31,.31-.69,.56-1.1,.72-.41,.16-.86,.23-1.3,.2h-1c.41,.24,.76,.44,1.36,.76l-.49,.84c-.81-.47-1.56-1.04-2.22-1.7v-.82c.66-.66,1.41-1.23,2.22-1.7l.49,.84c-.6,.33-.95,.51-1.36,.76h.97c.31,.03,.62-.02,.91-.12,.29-.11,.55-.28,.77-.5,.22-.22,.38-.49,.48-.78,.1-.29,.14-.6,.11-.91,.04-.56-.11-1.12-.41-1.59h0Z"/></g></svg>