<?xml version="1.0" encoding="UTF-8"?><svg xmlns="http://www.w3.org/2000/svg" width="24" height="24" viewBox="0 0 24 24"><defs><style>.c{fill:none;}</style></defs><g id="a"><rect class="c" width="24" height="24"/></g><g id="b"><path d="M7.19,23.31h-1.11c-.88-1.05-1.69-2.16-2.43-3.31l.94-.54c.71,1.14,1.08,1.65,1.54,2.28v-5.54h1.06v5.45c.43-.59,.8-1.11,1.49-2.19l.94,.54c-.73,1.16-1.54,2.26-2.43,3.31h0ZM7.19,2.26V7.8h-1.06V2.35c-.43,.6-.8,1.12-1.48,2.2l-.95-.54c.73-1.16,1.54-2.26,2.43-3.31h1.12c.88,1.05,1.69,2.15,2.43,3.31l-.95,.54c-.71-1.14-1.08-1.66-1.54-2.28Zm-1.11,7.91h1.19v3.62h-1.19v-3.62ZM13.21,.72h7.14V23.23h-7.14V.72Zm5.95,21.35V1.85h-4.76v2.43h2.38v1.14h-2.38v2.43h1.23v1.14h-1.24v2.46h2.38v1.14h-2.38v2.38h1.23v1.14h-1.23v2.43h2.38v1.14h-2.38v2.38l4.78,.02Z"/></g></svg>