<svg id="Icones" xmlns="http://www.w3.org/2000/svg" width="32" height="32" viewBox="0 0 32 32"><defs><style>.cls-1{fill:none;}</style></defs><rect class="cls-1" width="32" height="32"/><path d="M14.77,9.29V6.69l.78-.6c2.29.82,3.64,2.51,3.64,4.52a4.28,4.28,0,0,1-3.39,4.26v8.94A2,2,0,0,1,13.61,26a2.06,2.06,0,0,1-2.2-2.23V14.87A4.28,4.28,0,0,1,8,10.61c0-2,1.34-3.7,3.63-4.52l.79.6v2.6L13,10.42H14.2Zm-2.51,2.2-.91-1.82V7.32a3.35,3.35,0,0,0-2.23,3.26c0,1.88,1.26,3.14,3.36,3.42v9.81A1.07,1.07,0,0,0,13.61,25a1,1,0,0,0,1.13-1.19V14c2.1-.28,3.35-1.54,3.35-3.42a3.35,3.35,0,0,0-2.22-3.26V9.67L15,11.49Zm8.4,10-1.19-2.19,1.19-2.2H23.3l1.22,2.2L23.3,21.52Zm2.7-2.19-.66-1.16H21.26l-.63,1.16.63,1.16H22.7Z"/></svg>