<svg id="Icones" xmlns="http://www.w3.org/2000/svg" width="32" height="32" viewBox="0 0 32 32"><defs><style>.cls-1{fill:none;}</style></defs><rect class="cls-1" width="32" height="32"/><path d="M15.83,7c5.52,0,9,3.48,9,9s-3.51,9-9,9-9-3.51-9-9S10.35,7,15.83,7Zm0,1.07c-4.89,0-7.9,3-7.9,7.9s3,7.91,7.9,7.91,7.91-3.05,7.91-7.91S20.73,8.07,15.83,8.07Zm4.46,5.08v5.68l-4.46,2.29-4.45-2.29V13.15l4.45-2.29Zm-1.1,5.08V13.75L15.83,12l-3.35,1.73v4.48L15.83,20Zm-5.52-.75v-3l2.16-1.16L18,14.53v3l-2.17,1.13ZM17,16.85V15.16l-1.16-.63-1.16.63v1.69l1.16.6Z"/></svg>