<?xml version="1.0" encoding="UTF-8"?><svg xmlns="http://www.w3.org/2000/svg" width="24" height="24" viewBox="0 0 24 24"><defs><style>.c{fill:none;}</style></defs><g id="a"><rect class="c" width="24" height="24"/></g><g id="b"><path d="M9.6,20.85c-1.25,0-2.05-.72-2.05-1.91v-7.22c-2.31-.55-3.29-2.12-3.29-3.95,0-2.04,1.38-3.79,3.69-4.62l.69,.64v2.87l.45,.95h1.35l.45-.95V3.79l.69-.64c2.31,.82,3.69,2.58,3.69,4.62,0,1.83-.98,3.4-3.32,3.95v7.22c0,1.19-.8,1.91-2.05,1.91h-.32Zm.34-1.11c.13,0,.27-.01,.39-.06,.12-.05,.23-.12,.33-.22,.09-.1,.16-.21,.2-.34,.04-.13,.06-.26,.04-.39v-7.83c2.07-.27,3.32-1.41,3.32-3.16,0-1.48-.69-2.52-2.21-3.23v2.45l-.85,1.72h-2.73l-.85-1.72v-2.45c-1.54,.71-2.21,1.75-2.21,3.23,0,1.75,1.22,2.9,3.32,3.16v7.85c-.01,.13,0,.26,.04,.39,.04,.13,.11,.24,.2,.34,.09,.1,.2,.17,.32,.22,.12,.05,.26,.07,.39,.06l.3-.02Zm5.89-2.21l-1.19-2.21,1.19-2.21h2.65l1.25,2.21-1.25,2.21h-2.65Zm.63-1.04h1.38l.69-1.19-.66-1.16h-1.42l-.64,1.17,.64,1.18Z"/></g></svg>