<?xml version="1.0" encoding="UTF-8"?><svg xmlns="http://www.w3.org/2000/svg" width="24" height="24" viewBox="0 0 24 24"><defs><style>.c{fill:none;}</style></defs><g id="a"><rect class="c" width="24" height="24"/></g><g id="b"><path d="M7.06,12.65l3.85-5.48c1.6-2.3,3.47-2.78,5.44-1.38,1.97,1.4,2.2,3.29,.58,5.59l-3.86,5.48c-1.6,2.27-3.45,2.76-5.44,1.35-1.99-1.4-2.17-3.29-.58-5.57Zm7.04,.79l-4.15-2.94-1.77,2.52c-1.25,1.79-1.53,3.29,.03,4.39,1.56,1.1,2.91,.3,4.16-1.46l1.73-2.52Zm1.36-7.08c-1.28-.71-2.38-.46-3.37,.89l.72,.48c.69-.89,1.33-1.18,2.32-.64l.33-.74Z"/></g></svg>