<?xml version="1.0" encoding="UTF-8"?><svg xmlns="http://www.w3.org/2000/svg" width="24" height="24" viewBox="0 0 24 24"><defs><style>.c{fill:none;}</style></defs><g id="a"><rect class="c" width="24" height="24"/></g><g id="b"><path d="M11.69,18.35v-5.47c-2.9,2.3-5.31,4.02-8.01,5.81l-.94-.35V5.65l.94-.35c2.7,1.8,5.11,3.51,8.01,5.82V5.65l.94-.35c2.89,1.93,5.47,3.75,8.63,6.24v.92c-3.17,2.49-5.74,4.32-8.63,6.24l-.94-.35Zm-.49-6.35c-2.6-2.01-4.77-3.56-7.35-5.28v10.56c2.56-1.71,4.73-3.27,7.35-5.28Zm8.93,0c-2.6-2.01-4.77-3.56-7.34-5.28v10.56c2.57-1.71,4.74-3.27,7.34-5.28Z"/></g></svg>