<?xml version="1.0" encoding="UTF-8"?><svg xmlns="http://www.w3.org/2000/svg" width="24" height="24" viewBox="0 0 24 24"><defs><style>.c{fill:none;}</style></defs><g id="a"><rect class="c" width="24" height="24"/></g><g id="b"><path d="M11.37,18.7c-2.9-1.93-5.47-3.75-8.63-6.24v-.92c3.16-2.49,5.72-4.31,8.63-6.24l.94,.35v5.47c2.89-2.31,5.3-4.02,8.01-5.82l.94,.35v12.71l-.94,.35c-2.71-1.79-5.12-3.51-8.01-5.81v5.47l-.94,.35Zm-.16-1.42V6.72c-2.57,1.72-4.75,3.27-7.35,5.28,2.6,2.01,4.77,3.57,7.35,5.28h0Zm8.93,0V6.72c-2.57,1.72-4.75,3.27-7.34,5.28,2.61,2.01,4.78,3.57,7.39,5.28h-.04Z"/></g></svg>