<svg id="Icones" xmlns="http://www.w3.org/2000/svg" width="32" height="32" viewBox="0 0 32 32"><defs><style>.cls-1{fill:none;}</style></defs><rect class="cls-1" width="32" height="32"/><path d="M27.56,23.47v-1.1c.44-.09.6-.25.6-.56A20,20,0,0,0,28,19.17c-.12-1-.4-1.41-1.25-1.69l-2.67-.94-2-2.17c-1.48-1.6-1.95-1.78-4.68-1.78H5.08c-1,0-1.32.31-1.38,1.44S3.51,19,3.51,21.3c0,1,.41,1.45,1.47,1.45H5.2v1.06H4.83c-1.63,0-2.42-.81-2.42-2.51,0-2.51.1-6.24.19-7.27.13-1.88.78-2.51,2.63-2.51H17.46c2.95,0,3.86.34,5.43,2.07l1.82,2,2.32.84c1.5.54,1.91,1,2.1,2.48a21.05,21.05,0,0,1,.13,2.85C29.26,22.75,28.69,23.31,27.56,23.47Zm-17-.76h11.7v0a2.08,2.08,0,0,1,2.23-2.19,2.2,2.2,0,1,1,0,4.39,2.15,2.15,0,0,1-2-1.1H10.28a2.09,2.09,0,0,1-2,1.1,2.2,2.2,0,1,1,0-4.39,2.1,2.1,0,0,1,2.22,2.19ZM8.31,21.52a1.11,1.11,0,0,0-1.19,1.16,1.1,1.1,0,0,0,1.19,1.16A1.08,1.08,0,0,0,9.5,22.68,1.1,1.1,0,0,0,8.31,21.52Zm2.29-14,.81-.82L13.67,9l-.82.81ZM15.3,9.1c.69,0,1,.44,1,1.26H14.27C14.27,9.51,14.61,9.1,15.3,9.1Zm-.53-4.32h1.1V8.13h-1.1ZM17,9l2.25-2.26.82.82L17.84,9.76Zm7.43,14.89a1.11,1.11,0,0,0,1.19-1.16,1.1,1.1,0,0,0-1.19-1.16,1.08,1.08,0,0,0-1.19,1.16A1.1,1.1,0,0,0,24.46,23.84Z"/></svg>