<?xml version="1.0" encoding="UTF-8"?><svg xmlns="http://www.w3.org/2000/svg" width="24" height="24" viewBox="0 0 24 24"><defs><style>.c{fill:none;}</style></defs><g id="a"><rect class="c" width="24" height="24"/></g><g id="b"><path d="M8.63,20.43h2.81v-2.05c-4.56-.19-7.31-2.7-7.31-8.1h1.12c0,4.91,2.54,7.07,6.75,7.07s6.8-2.14,6.75-7.07h1.12c0,5.48-2.73,7.91-7.31,8.1v2.05h2.81v1.12h-6.75v-1.12Zm-1.19-11.61c0-4.35,1.56-6.37,4.56-6.37s4.62,2.02,4.62,6.45c0,4.89-1.56,6.99-4.62,6.99s-4.56-2.22-4.56-7.07Zm7.9,2.52h-2.21v-1.09h2.32c.04-.37,.06-.75,.05-1.12h-2.37v-1.06h2.34c-.02-.38-.05-.75-.11-1.12h-2.25v-1.09h1.97c-.16-.69-.56-1.3-1.13-1.72-.57-.42-1.27-.64-1.97-.6-1.51,0-2.56,.75-3.08,2.35l1.94-.03v1.12h-2.18c-.07,.37-.1,.75-.11,1.12h2.29v1.08h-2.32c0,.4,.03,.79,.05,1.12h2.25v1.03l-2.14,.03c.43,2.37,1.54,3.43,3.27,3.43,1.83-.01,2.96-1.09,3.37-3.46Z"/></g></svg>