<svg id="Icones" xmlns="http://www.w3.org/2000/svg" width="32" height="32" viewBox="0 0 32 32"><defs><style>.cls-1{fill:none;}</style></defs><rect class="cls-1" width="32" height="32"/><path d="M28.69,21.24v-1.1c.44-.09.6-.25.6-.56a14.16,14.16,0,0,0-.13-2.26c-.12-1-.41-1.41-1.25-1.69l-2.23-.75-3.07-3.45c-1.76-2-2.26-2.2-5-2.2H4c-1,0-1.32.31-1.38,1.44-.09,1.32-.19,5.43-.19,8.41,0,1,.41,1.44,1.48,1.44h1v1.07H3.73c-1.63,0-2.42-.82-2.42-2.51,0-3.17.1-7.28.19-8.41.13-1.88.79-2.51,2.64-2.51H17.65c3,0,3.86.38,5.71,2.48l2.92,3.29,1.88.66c1.5.54,1.91,1,2.1,2.48a17.91,17.91,0,0,1,.12,2.48C30.38,20.52,29.82,21.08,28.69,21.24ZM8,23.78a2.2,2.2,0,1,1,0-4.39,2.11,2.11,0,0,1,2,1.1H23.61a2.15,2.15,0,0,1,2-1.1,2.2,2.2,0,1,1,0,4.39,2.08,2.08,0,0,1-2.23-2.19v0H10.22v0A2.1,2.1,0,0,1,8,23.78Zm0-3.35A1.09,1.09,0,0,0,6.8,21.59,1.11,1.11,0,0,0,8,22.75a1.1,1.1,0,0,0,1.2-1.16A1.08,1.08,0,0,0,8,20.43Zm17.6,2.32a1.1,1.1,0,0,0,1.19-1.16,1.11,1.11,0,0,0-1.19-1.16,1.1,1.1,0,0,0-1.2,1.16A1.08,1.08,0,0,0,25.59,22.75Z"/></svg>