<?xml version="1.0" encoding="UTF-8"?><svg xmlns="http://www.w3.org/2000/svg" width="24" height="24" viewBox="0 0 24 24"><defs><style>.c{fill:none;}</style></defs><g id="a"><rect class="c" width="24" height="24"/></g><g id="b"><path d="M6.12,4.01c0-1.36,.65-2.01,2.01-2.01h7.74c1.35,0,2.01,.65,2.01,2.01v15.99c0,1.35-.65,2.01-2.01,2.01h-7.74c-1.36,0-2.01-.65-2.01-2.01V4.01Zm1.95,16.83h7.86c.59,0,.79-.31,.79-1.05V4.18c0-.74-.23-1.05-.79-1.05h-7.86c-.59,0-.79,.31-.79,1.05v15.62c0,.74,.22,1.05,.79,1.05h0ZM13.47,5.54h-2.91v-1.18h2.91v1.18Zm-.54,12.88c.02,.13,0,.25-.04,.37-.04,.12-.11,.23-.2,.32-.09,.09-.2,.16-.32,.2-.12,.04-.25,.05-.37,.04-.23-.02-.45-.12-.61-.3-.16-.17-.25-.4-.25-.63s.09-.46,.25-.63c.16-.17,.38-.28,.61-.3,.13-.02,.26,0,.38,.03,.12,.04,.24,.11,.33,.2,.09,.09,.16,.21,.2,.33,.04,.12,.05,.26,.03,.38v-.02Z"/></g></svg>