<svg id="Icones" xmlns="http://www.w3.org/2000/svg" width="32" height="32" viewBox="0 0 32 32"><defs><style>.cls-1{fill:none;}</style></defs><rect class="cls-1" width="32" height="32"/><path d="M21.82,23.34c-1,2.42-3.42,3.83-6.55,3.83C10.78,27.17,8,24.38,8,19.89c0-3.57,1.76-6.11,4.86-7l.26,1c-2.58.75-4,2.88-4,5.92,0,3.83,2.35,6.21,6.18,6.21,3.17,0,5.17-1.41,6.11-4.33ZM13.61,5.65a1.66,1.66,0,0,1,1.78,1.79,1.66,1.66,0,0,1-1.78,1.79,1.66,1.66,0,0,1-1.79-1.79A1.66,1.66,0,0,1,13.61,5.65Zm0,1a.71.71,0,0,0-.79.81c0,.54.25.82.79.82s.78-.28.78-.82S14.14,6.63,13.61,6.63Zm1.28,10.06-1.47-6.14,1.06-.25L16,16.38c.16.63.44.82,1.16.66L20,16.41c1.53-.34,2.16,0,2.54,1.41l1.85,6.78-1,.31-1.85-6.77c-.16-.6-.53-.82-1.19-.66l-2.92.66C15.93,18.48,15.24,18.07,14.89,16.69Z"/></svg>