<?xml version="1.0" encoding="UTF-8"?><svg xmlns="http://www.w3.org/2000/svg" width="24" height="24" viewBox="0 0 24 24"><defs><style>.c{fill:none;}</style></defs><g id="a"><rect class="c" width="24" height="24"/></g><g id="b"><path d="M15.85,19.54c-.52,.84-1.25,1.52-2.11,1.99-.86,.47-1.83,.71-2.81,.69-2.75,0-5.5-1.73-5.5-5.41,0-2.4,1.35-4.69,3.71-5.33l.11,1.15c-1.72,.52-2.69,2.21-2.69,4.11,0,2.88,2.03,4.34,4.34,4.34s3.71-1.21,4.65-3.31l.3,1.78ZM8.28,4.01c-.02-.3,.02-.59,.13-.87,.1-.28,.26-.53,.47-.74,.21-.21,.46-.37,.74-.48,.28-.1,.57-.15,.87-.13,.3-.03,.6,.01,.88,.11,.28,.1,.54,.26,.75,.47,.21,.21,.38,.46,.48,.74,.1,.28,.15,.58,.12,.88,0,1.35-.85,2.12-2.2,2.12-.29,.04-.59,0-.86-.09-.28-.09-.53-.25-.74-.45-.21-.2-.38-.45-.49-.72-.11-.27-.15-.57-.13-.86h0Zm1.02,.01c0,.71,.41,1.07,1.18,1.07s1.18-.36,1.18-1.07c.02-.16,0-.32-.06-.47-.05-.15-.14-.29-.25-.4-.11-.11-.25-.19-.4-.24-.15-.05-.31-.06-.47-.04-.15-.02-.31,0-.46,.05-.15,.05-.29,.13-.4,.24-.11,.11-.2,.24-.26,.39-.05,.15-.08,.31-.06,.46h0Zm1.12,8.89l-.39-5.46,1.15-.09,.38,5.27c.03,.47,.17,.72,.75,.72h2.97c1.38,0,1.72,.28,1.98,1.52l1.32,6.38h-1.15l-1.33-6.24c-.11-.5-.44-.58-1.04-.58h-2.91c-1.1,.02-1.66-.22-1.72-1.52Zm.38-2.73h4.54v1.06h-4.55l.02-1.06Z"/></g></svg>