<?xml version="1.0" encoding="UTF-8"?><svg xmlns="http://www.w3.org/2000/svg" width="24" height="24" viewBox="0 0 24 24"><defs><style>.c{fill:none;}</style></defs><g id="a"><rect class="c" width="24" height="24"/></g><g id="b"><path d="M1.65,7.41H20.02v11.48H1.65V7.41Zm17.26,10.34V8.51H2.78v9.26l16.12-.03Zm3.44-12.63v11.45h-1.15V6.22H3.94v-1.08l18.41-.03Zm-6.59,11.45H5.92c0-1.44-.49-1.93-1.98-1.93v-2.95c1.46,0,1.98-.49,1.98-1.96H15.76c0,1.46,.52,1.96,1.99,1.96v2.95c-1.49,0-1.99,.49-1.99,1.93Zm.83-3.89c-.46-.07-.88-.29-1.19-.63-.32-.33-.52-.76-.57-1.22H6.89c-.05,.45-.25,.88-.57,1.2-.32,.33-.74,.53-1.19,.59v1.08c.45,.05,.87,.25,1.19,.57,.32,.32,.52,.74,.57,1.19h7.94c.04-.46,.24-.89,.56-1.22,.32-.33,.74-.55,1.2-.61v-.95Zm-5.74-.69c-.15-.02-.31,0-.46,.06-.15,.05-.28,.14-.39,.25-.11,.11-.19,.24-.25,.39-.05,.15-.07,.3-.06,.46-.01,.15,0,.31,.06,.45,.05,.15,.14,.28,.25,.39,.11,.11,.24,.19,.39,.25s.3,.07,.46,.06c.15,.01,.31,0,.45-.06,.14-.05,.28-.14,.39-.25,.11-.11,.19-.24,.25-.39,.05-.14,.08-.3,.06-.45,.02-.15,0-.31-.05-.46-.05-.15-.13-.28-.24-.39-.11-.11-.24-.19-.39-.25-.15-.05-.3-.07-.46-.05h0Z"/></g></svg>