<svg id="Icones" xmlns="http://www.w3.org/2000/svg" width="32" height="32" viewBox="0 0 32 32"><defs><style>.cls-1{fill:none;}</style></defs><rect class="cls-1" width="32" height="32"/><path d="M4.64,11.49H24.77V23.78H4.64Zm19,11.22V12.55H5.74V22.71ZM27,9.26V21.59h-1.1V10.33H6.83V9.26ZM20.35,21.52H9.15c0-1.63-.56-2.19-2.25-2.19V16c1.66,0,2.25-.56,2.25-2.22h11.2c0,1.66.6,2.22,2.26,2.22v3.36C20.91,19.33,20.35,19.89,20.35,21.52Zm1.13-4.42a2.6,2.6,0,0,1-2.23-2.29h-9A2.54,2.54,0,0,1,8,17v1.22a2.51,2.51,0,0,1,2.23,2.2h9a2.58,2.58,0,0,1,2.23-2.26ZM14.7,19.61a1.88,1.88,0,1,1,0-3.76,1.88,1.88,0,1,1,0,3.76Zm0-2.76a.81.81,0,0,0-.9.88.83.83,0,0,0,.9.88.83.83,0,0,0,.91-.88A.8.8,0,0,0,14.7,16.85Z"/></svg>