<?xml version="1.0" encoding="UTF-8"?><svg xmlns="http://www.w3.org/2000/svg" width="24" height="24" viewBox="0 0 24 24"><defs><style>.c{fill:none;}</style></defs><g id="a"><rect class="c" width="24" height="24"/></g><g id="b"><path d="M1.65,7.41H20.02v11.48H1.65V7.41Zm17.26,10.34V8.51H2.78v9.26l16.12-.03Zm3.44-12.63v11.45h-1.15V6.22H3.97v-1.08l18.38-.03ZM6.27,10.82H3.97v-1.15h2.3v1.15Zm0,5.74H3.97v-1.15h2.3v1.15Zm2.42-1.99h-1.15v-1.07h1.02v-.72h-1.02v-1.07h1.15c.33-1.35,1.21-2.01,2.7-2.01,.42,.01,.84,.09,1.24,.22v1.02c-.41-.09-.82-.13-1.24-.14-.32-.03-.64,.04-.91,.2-.27,.16-.49,.41-.61,.7h1.97l-.03,1.07h-2.15v.72h2.01v1.07h-1.79c.12,.3,.34,.55,.62,.72,.28,.16,.6,.23,.92,.2,.41-.01,.81-.05,1.21-.11v1.05c-.39,.12-.8,.17-1.21,.17-1.49,0-2.39-.67-2.74-2.02Zm9.01-3.72h-2.3v-1.15h2.3v1.15Zm0,5.74h-2.3v-1.15h2.3v1.15Z"/></g></svg>