<svg id="Icones" xmlns="http://www.w3.org/2000/svg" width="32" height="32" viewBox="0 0 32 32"><defs><style>.cls-1{fill:none;}</style></defs><rect class="cls-1" width="32" height="32"/><path d="M15.83,7c5.62,0,9,3.64,9,9s-3.35,9-9,9-9-3.67-9-9S10.22,7,15.83,7Zm0,1.1C10.85,8.1,8,11.27,8,16s2.86,7.87,7.84,7.87,7.84-3.19,7.84-7.87S20.82,8.1,15.83,8.1ZM12.32,16a.86.86,0,0,1-1,1,.86.86,0,0,1-1-1,.86.86,0,0,1,1-1A.86.86,0,0,1,12.32,16Zm4.49,0a.87.87,0,0,1-1,1,.86.86,0,0,1-1-1,.86.86,0,0,1,1-1A.87.87,0,0,1,16.81,16Zm4.48,0a.86.86,0,0,1-1,1,.86.86,0,0,1-1-1,.86.86,0,0,1,1-1A.86.86,0,0,1,21.29,16Z"/></svg>