<?xml version="1.0" encoding="UTF-8"?><svg xmlns="http://www.w3.org/2000/svg" width="24" height="24" viewBox="0 0 24 24"><defs><style>.c{fill:none;}</style></defs><g id="a"><rect class="c" width="24" height="24"/></g><g id="b"><path d="M12,4.1c4.93,0,7.9,3.2,7.9,7.9s-2.95,7.9-7.9,7.9-7.9-3.22-7.9-7.9,2.97-7.9,7.9-7.9Zm0,1.13c-4.3,0-6.77,2.74-6.77,6.77s2.47,6.77,6.77,6.77,6.77-2.76,6.77-6.77-2.47-6.79-6.77-6.79v.02Zm-4.71,6.77c-.02-.13-.01-.27,.03-.4,.04-.13,.11-.25,.2-.35,.09-.1,.21-.17,.33-.22,.13-.05,.26-.07,.4-.05,.14-.02,.27,0,.4,.04,.13,.04,.25,.12,.35,.21,.1,.1,.17,.21,.21,.35,.04,.13,.06,.27,.04,.4,.02,.13,0,.27-.04,.4-.04,.13-.12,.24-.21,.34-.1,.1-.21,.17-.34,.21-.13,.04-.26,.05-.4,.03-.13,.01-.26,0-.39-.05-.12-.04-.23-.12-.33-.21-.09-.09-.16-.21-.2-.33-.04-.12-.06-.26-.04-.39v.02Zm3.74,0c-.02-.13,0-.27,.04-.4,.04-.13,.11-.25,.21-.34,.09-.1,.21-.17,.34-.21,.13-.04,.26-.06,.4-.04,.14-.02,.27,0,.4,.04,.13,.04,.25,.12,.35,.21,.1,.1,.17,.21,.21,.34,.04,.13,.06,.27,.04,.4,.01,.13,0,.27-.05,.4-.05,.13-.12,.24-.22,.34-.1,.1-.21,.17-.34,.21-.13,.04-.26,.05-.4,.04-.13,.02-.27,0-.4-.04-.13-.04-.24-.12-.34-.21-.1-.1-.17-.21-.21-.34-.04-.13-.05-.26-.03-.4v.02Zm3.74,0c-.02-.13,0-.27,.03-.4,.04-.13,.11-.25,.21-.34,.09-.1,.21-.17,.34-.21,.13-.04,.26-.06,.4-.04,.14-.02,.27,0,.4,.04,.13,.04,.25,.12,.34,.21,.1,.1,.17,.21,.21,.35,.04,.13,.06,.27,.04,.4,.02,.13,0,.27-.04,.4-.05,.13-.12,.24-.22,.34-.1,.1-.21,.17-.34,.21-.13,.04-.27,.05-.4,.03-.13,.02-.27,0-.4-.04-.13-.04-.24-.12-.34-.21-.1-.1-.17-.21-.21-.34-.04-.13-.05-.26-.03-.4v.02Z"/></g></svg>