<svg id="Icones" xmlns="http://www.w3.org/2000/svg" width="32" height="32" viewBox="0 0 32 32"><defs><style>.cls-1{fill:none;}</style></defs><rect class="cls-1" width="32" height="32"/><path d="M5.42,20c-1.35-.29-1.91-.88-1.91-2.07v-1.7c0-1.6.19-2.13,1.44-3.95l1,.44c-1.25,2-1.31,2.2-1.31,3.51v1.7a.87.87,0,0,0,.81,1L6,19v1.1Zm18.35-5-2.89-1.82c-2.32-1.47-3.23-1.69-7-1.69a71.31,71.31,0,0,0-7.53.37l-1.13-.44v-.47a76.18,76.18,0,0,1,8.66-.53c3.92,0,5.11.28,7.49,1.79L24.27,14l2,.94c.94.44,1.22.69,1.5,1.44a6.48,6.48,0,0,1,.35,2c0,1-.57,1.54-1.66,1.69V19c.4-.09.56-.25.56-.56A5,5,0,0,0,26.87,17a1.55,1.55,0,0,0-1.06-1.13ZM11.32,19.36h9.84v0a2.09,2.09,0,0,1,2.23-2.2,2.2,2.2,0,1,1,0,4.39,2.11,2.11,0,0,1-2-1.09H11.07a2.14,2.14,0,0,1-2,1.09,2.2,2.2,0,1,1,0-4.39,2.09,2.09,0,0,1,2.23,2.2ZM9.09,18.17A1.1,1.1,0,0,0,7.9,19.33a1.11,1.11,0,0,0,1.19,1.16,1.1,1.1,0,0,0,1.19-1.16A1.08,1.08,0,0,0,9.09,18.17Zm14.3,2.32a1.11,1.11,0,0,0,1.19-1.16,1.1,1.1,0,0,0-1.19-1.16,1.08,1.08,0,0,0-1.19,1.16A1.1,1.1,0,0,0,23.39,20.49Z"/></svg>