<svg id="Icones" xmlns="http://www.w3.org/2000/svg" width="32" height="32" viewBox="0 0 32 32"><defs><style>.cls-1{fill:none;}</style></defs><rect class="cls-1" width="32" height="32"/><path d="M12.48,12.43V23.66c0,2.13-1.54,3.51-3.92,3.51s-3.92-1.35-3.92-3.36,1.6-3.35,3.92-3.35a4.23,4.23,0,0,1,2.79,1V7.51l13.42-1.6V21.43c0,2.13-1.54,3.51-3.92,3.51s-3.92-1.35-3.92-3.35,1.6-3.36,3.92-3.36a4.28,4.28,0,0,1,2.79,1V11.08ZM11.35,23.84c0-1.41-1.07-2.28-2.79-2.28s-2.79.87-2.79,2.28,1.06,2.23,2.79,2.23S11.35,25.22,11.35,23.84ZM23.64,7.16,12.48,8.51V11.3L23.64,10Zm0,14.46c0-1.41-1.06-2.29-2.79-2.29s-2.79.88-2.79,2.29,1.07,2.22,2.79,2.22S23.64,23,23.64,21.62Z"/></svg>