<?xml version="1.0" encoding="UTF-8"?><svg xmlns="http://www.w3.org/2000/svg" width="24" height="24" viewBox="0 0 24 24"><defs><style>.c{fill:none;}</style></defs><g id="a"><rect class="c" width="24" height="24"/></g><g id="b"><path d="M.05,4.2H15.65v15.6H.05V4.2Zm14.4,14.4V5.35H1.25v13.28l13.2-.03Zm-8.84-1.38c-1.44,0-2.45-.75-2.45-2.11s1.01-2.13,2.45-2.13c.56,0,1.11,.16,1.58,.46V6.62h1.1c1.58,1.76,3.71,2.13,3.71,3.8,0,.86-.55,1.73-1.44,2.56l-.78-.78c.89-.83,1.07-1.06,1.07-1.67,0-.75-1.09-1.24-2.51-2.22v6.14c0,1.66-.98,2.77-2.74,2.77Zm1.41-2.14c0-.55-.6-.98-1.41-.98s-1.33,.4-1.33,1.01,.43,1,1.33,1,1.41-.43,1.41-1.03Zm16.94-3.08c0,3.77-2.8,6.56-6.83,6.56v-1.15c3,0,5.65-2.02,5.65-5.44,0-3.86-2.93-5.44-5.65-5.44v-1.15c4.06,0,6.83,2.62,6.83,6.62h0Zm-6.83,2.96v-1.12c.27,.01,.53-.03,.78-.12,.25-.09,.48-.23,.67-.42,.19-.18,.35-.4,.45-.65,.11-.25,.16-.51,.16-.78s-.05-.53-.16-.78c-.11-.25-.26-.47-.45-.65-.19-.18-.42-.33-.67-.42-.25-.09-.52-.13-.78-.12v-1.12c1.9,0,3.26,1.24,3.26,3.08s-1.36,3.08-3.26,3.08Z"/></g></svg>