<?xml version="1.0" encoding="UTF-8"?><svg xmlns="http://www.w3.org/2000/svg" width="24" height="24" viewBox="0 0 24 24"><defs><style>.c{fill:none;}</style></defs><g id="a"><rect class="c" width="24" height="24"/></g><g id="b"><path d="M17.1,19.38c-2,0-3.38-1.21-3.38-3.01,0-1.71,1.41-2.87,3.43-2.87,.87-.02,1.72,.23,2.45,.7V7.12l-9.37,1.46v9.96c0,1.91-1.43,3.15-3.66,3.15-1.99,0-3.38-1.21-3.38-3.01s1.41-2.87,3.43-2.87c.87-.02,1.72,.23,2.45,.7V4.07l11.72-1.76v13.92c-.04,1.9-1.48,3.15-3.7,3.15Zm-8.04-.67c0-1.1-.93-1.76-2.45-1.76-1.41,0-2.28,.67-2.28,1.76s.84,1.85,2.22,1.85c1.55,.02,2.51-.68,2.51-1.85Zm1.17-11.31l9.37-1.46V3.6l-9.37,1.46v2.35Zm9.37,8.97c0-1.1-.93-1.76-2.45-1.76-1.41,0-2.28,.67-2.28,1.76s.84,1.86,2.23,1.86c1.55,.02,2.5-.69,2.5-1.83v-.02Z"/></g></svg>