<?xml version="1.0" encoding="UTF-8"?><svg xmlns="http://www.w3.org/2000/svg" width="24" height="24" viewBox="0 0 24 24"><defs><style>.c{fill:none;}</style></defs><g id="a"><rect class="c" width="24" height="24"/></g><g id="b"><path d="M10.98,7.07c-.37-.74-.75-1.6-1.15-2.41-2.4,5.18-4.21,9.36-6.24,14.44,2-1.41,4.08-2.69,6.24-3.84,2.17,1.14,4.26,2.43,6.27,3.84-.56-1.31-1.01-2.56-1.52-3.79l.98-.45c.69,1.67,1.36,3.38,2.08,5.23l-.9,.84c-2.19-1.65-4.5-3.14-6.91-4.44-2.4,1.31-4.7,2.8-6.88,4.44l-.9-.85C4.39,14.08,6.26,9.53,9.41,3.07h.88c.61,1.23,1.14,2.4,1.67,3.52l-.97,.48Zm10.6,3.65c-.88,.13-1.11,.4-1.11,.88,.01,.36,.08,.71,.21,1.04l.16,.4c-.84,.51-1.71,.97-2.59,1.39l-.17-.33c-.1-.21-.24-.39-.43-.52-.19-.13-.41-.21-.64-.23-.23,.01-.45,.09-.64,.22-.19,.13-.34,.31-.43,.53l-.19,.32c-.89-.4-1.74-.87-2.56-1.39l.13-.4c.13-.33,.2-.68,.22-1.04,0-.48-.24-.74-1.11-.88l-.4-.06v-3.06l.4-.05c.85-.13,1.11-.38,1.11-.86,0-.36-.08-.71-.22-1.04l-.13-.44c.83-.5,1.68-.96,2.56-1.36l.19,.32c.1,.21,.25,.38,.44,.51,.19,.13,.4,.21,.63,.23,.23-.03,.44-.11,.62-.24,.19-.13,.34-.3,.44-.5l.18-.32c.83,.37,1.87,.96,2.59,1.36l-.16,.43c-.13,.34-.21,.69-.22,1.06,0,.48,.24,.72,1.11,.86l.38,.05v3.07l-.38,.06Zm-7.13,1.78c.33,.22,.67,.43,1.02,.62,.17-.24,.4-.44,.66-.58,.27-.14,.56-.21,.86-.22,.29,0,.58,.08,.85,.21,.26,.13,.49,.33,.67,.56,.37-.21,.69-.37,1.02-.56-.09-.31-.15-.64-.17-.97,0-.44,.15-.86,.43-1.2,.29-.33,.68-.55,1.12-.61v-1.28c-.43-.05-.82-.26-1.11-.59-.29-.32-.44-.74-.44-1.17,.02-.32,.09-.64,.18-.96-.32-.19-.64-.35-1.02-.56-.18,.23-.41,.42-.67,.55-.26,.13-.55,.21-.84,.22-.3,0-.6-.08-.87-.22-.27-.14-.5-.34-.67-.59-.35,.17-.68,.37-.99,.59,.08,.31,.13,.62,.16,.93,.02,.43-.13,.85-.41,1.18-.28,.33-.68,.53-1.1,.58v1.28c.43,.06,.83,.28,1.11,.61,.28,.33,.43,.76,.41,1.2-.02,.32-.08,.65-.18,.96h0Zm.77-3.33c0-.35,.1-.69,.29-.99,.19-.29,.47-.52,.79-.66,.32-.14,.68-.18,1.02-.11,.34,.07,.66,.23,.91,.48s.42,.56,.49,.9c.07,.34,.04,.7-.09,1.02-.13,.32-.36,.6-.64,.8-.29,.2-.63,.3-.98,.31-.47,0-.93-.19-1.26-.52-.34-.33-.52-.79-.53-1.26v.02Zm2.56-.07c0-.21-.08-.4-.22-.55-.15-.15-.34-.23-.55-.23-.1,0-.21,.01-.3,.05-.1,.04-.18,.09-.26,.17-.07,.07-.13,.16-.17,.26-.04,.1-.05,.2-.05,.3,0,.21,.08,.41,.23,.56,.15,.15,.34,.24,.55,.24,.2-.01,.4-.1,.54-.25,.14-.15,.23-.34,.23-.55h0Z"/></g></svg>