<?xml version="1.0" encoding="UTF-8"?><svg xmlns="http://www.w3.org/2000/svg" width="24" height="24" viewBox="0 0 24 24"><defs><style>.c{fill:none;}</style></defs><g id="a"><rect class="c" width="24" height="24"/></g><g id="b"><path d="M18.89,20.93c-2.19-1.65-4.5-3.14-6.91-4.44-2.4,1.31-4.69,2.8-6.88,4.44l-.91-.85c2.35-6,4.21-10.55,7.36-17.01h.88c3.14,6.48,5,11.01,7.36,17.01l-.9,.85Zm-.64-1.83c-2.03-5.1-3.86-9.28-6.24-14.44-2.43,5.18-4.24,9.36-6.27,14.44,2-1.41,4.08-2.69,6.24-3.84,2.17,1.15,4.26,2.43,6.27,3.84h0Z"/></g></svg>