<?xml version="1.0" encoding="UTF-8"?><svg xmlns="http://www.w3.org/2000/svg" width="24" height="24" viewBox="0 0 24 24"><defs><style>.c{fill:none;}</style></defs><g id="a"><rect class="c" width="24" height="24"/></g><g id="b"><path d="M2.51,18.3c-.26,.02-.52-.02-.77-.11-.24-.09-.47-.24-.65-.42-.18-.18-.33-.41-.42-.65-.09-.24-.13-.51-.11-.77V7.62c-.01-.26,.03-.52,.12-.76,.09-.24,.24-.46,.42-.64,.18-.18,.4-.32,.65-.41,.24-.09,.5-.13,.76-.11H21.49c1.29,0,1.95,.66,1.95,1.95v8.69c.02,.26-.01,.53-.1,.78-.09,.25-.24,.48-.43,.66-.19,.19-.42,.33-.67,.42-.25,.09-.52,.12-.78,.09H2.51Zm18.79-1.1c.13,.02,.27,0,.4-.04,.13-.04,.24-.11,.34-.2,.1-.09,.17-.21,.22-.33,.05-.13,.07-.26,.06-.39V7.76c.01-.13,0-.27-.05-.39-.05-.12-.12-.24-.21-.33-.09-.09-.21-.16-.33-.2-.13-.04-.26-.05-.39-.04H2.65c-.13-.01-.26,0-.37,.05-.12,.04-.23,.11-.32,.2-.09,.09-.16,.2-.21,.31-.05,.12-.07,.25-.06,.37v8.5c0,.13,.01,.26,.06,.38,.05,.12,.12,.23,.21,.32,.09,.09,.2,.16,.32,.21,.12,.05,.25,.07,.38,.06H21.3Zm-12.74-2.37h-1.46l-2.01-4.01v4.01h-1.15v-5.73h1.51l1.98,4.01v-4.01h1.15l-.02,5.73Zm1.15-5.73h3.41v1.1h-2.29v1.19h2.14v1.1h-2.11v1.26h2.29v1.08h-3.42v-5.73Zm7.48,2.15l-.83,3.58h-1.35l-1.01-5.73h1.18l.61,3.5,.8-3.5h1.21l.74,3.36,.66-3.36h1.15l-1.11,5.73h-1.3l-.74-3.58Z"/></g></svg>