<?xml version="1.0" encoding="UTF-8"?><svg xmlns="http://www.w3.org/2000/svg" width="24" height="24" viewBox="0 0 24 24"><defs><style>.c{fill:none;}.d{fill-rule:evenodd;}</style></defs><g id="a"><rect class="c" width="24" height="24"/></g><g id="b"><path class="d" d="M6.53,18.27h1.46v1.13h-3.39v-3.39h1.13v1.46l3.28-3.28,.8,.8-3.28,3.28Zm0-12.55h1.46v-1.13h-3.39v3.39h1.13v-1.46l3.28,3.28,.8-.8-3.28-3.28Zm10.95,12.55h-1.46v1.13h3.39v-3.39h-1.13v1.46l-3.28-3.28-.8,.8,3.28,3.28Zm0-12.55h-1.46v-1.13h3.39v3.39h-1.13v-1.46l-3.28,3.28-.8-.8,3.28-3.28Z"/></g></svg>