<svg id="Icones" xmlns="http://www.w3.org/2000/svg" width="32" height="32" viewBox="0 0 32 32"><defs><style>.cls-1{fill:none;}</style></defs><rect class="cls-1" width="32" height="32"/><path d="M21.42,27.17H4.64V10.39h6l.62,1.07H5.74V26.1H20.32V18.61l1.1.4Zm1.75-8.56a25.87,25.87,0,0,1-4-1.7,25.87,25.87,0,0,1-4,1.7l-.6-.41a31.84,31.84,0,0,1,.44-4.2,26.8,26.8,0,0,1-2.85-3.14l.22-.78A37.22,37.22,0,0,1,16.52,9a33.43,33.43,0,0,1,2.26-3.39h.82A34.56,34.56,0,0,1,21.85,9,32.15,32.15,0,0,1,26,10.08l.22.78A27.53,27.53,0,0,1,23.33,14a35.06,35.06,0,0,1,.44,4.2Zm-7.46-1.29a21.74,21.74,0,0,0,3.48-1.57,21.35,21.35,0,0,0,3.48,1.57,22,22,0,0,0-.5-3.67,20.35,20.35,0,0,0,2.66-2.82,25.51,25.51,0,0,0-3.63-.94,28.69,28.69,0,0,0-2-3.14,27.27,27.27,0,0,0-2,3.14,26,26,0,0,0-3.64.94,20.41,20.41,0,0,0,2.67,2.82A21,21,0,0,0,15.71,17.32Z"/></svg>