<svg id="Icones" xmlns="http://www.w3.org/2000/svg" width="32" height="32" viewBox="0 0 32 32"><defs><style>.cls-1{fill:none;}</style></defs><rect class="cls-1" width="32" height="32"/><path d="M22.55,24.6,9.44,11.49l.78-.79L23.33,23.81ZM12.2,15.82a8.41,8.41,0,0,0-.85,3.51,4.14,4.14,0,0,0,4.48,4.51,4.43,4.43,0,0,0,3.23-1.16l.79.79a5.61,5.61,0,0,1-4,1.44,5.2,5.2,0,0,1-5.58-5.58A11.28,11.28,0,0,1,11.35,15Zm8.12,3.41c0-2.19-1.19-4.76-4.49-9.94q-1.22,1.94-2.07,3.39L13,11.86c1-1.72,1.66-2.72,2.32-3.73H16.4c3.57,5.49,5,8.72,5,11.2,0,.25,0,.56-.07.94Z"/></svg>