<svg id="Icones" xmlns="http://www.w3.org/2000/svg" width="32" height="32" viewBox="0 0 32 32"><defs><style>.cls-1{fill:none;}</style></defs><rect class="cls-1" width="32" height="32"/><path d="M14.12,8.16a2.89,2.89,0,0,1,2.79,1.73A14.67,14.67,0,0,1,18.23,16a13.34,13.34,0,0,1-1.32,6.08,2.92,2.92,0,0,1-2.79,1.76c-5.3,0-9.32-3.39-9.32-7.84S8.82,8.16,14.12,8.16Zm-.19,14.55a1.94,1.94,0,0,0,1.94-1.1A13.33,13.33,0,0,0,17.1,16a13.81,13.81,0,0,0-1.23-5.61,1.94,1.94,0,0,0-1.94-1.1c-4.52,0-8,2.92-8,6.71S9.41,22.71,13.93,22.71Zm6.9-10.28,2.79,2.79,2.79-2.79.79.78L24.4,16l2.8,2.82-.79.79-2.79-2.79-2.79,2.79L20,18.82,22.84,16,20,13.21Z"/></svg>