<svg id="Icones" xmlns="http://www.w3.org/2000/svg" width="32" height="32" viewBox="0 0 32 32"><defs><style>.cls-1{fill:none;}</style></defs><rect class="cls-1" width="32" height="32"/><path d="M22.55,5.91V7.57H25.9V8.63H22.55V11H25.9v1.06H22.55v1.67H19.19c-2.6,0-4.3-1.29-4.48-3.39H10.22c-2,0-3.35,1.1-3.35,2.76,0,1.47,1,2.41,3.26,3l1.78.47c2.8.72,4,1.85,4,3.83S14.39,23.81,12,23.81H10.25V22.68H12.2c1.56,0,2.54-.84,2.54-2.25s-.91-2.2-2.86-2.67l-1.78-.44c-2.92-.72-4.33-2.07-4.33-4.2s1.85-3.86,4.45-3.86h4.49c.18-2.07,1.91-3.35,4.48-3.35ZM15.8,9.83c0,1.82,1.23,2.85,3.39,2.85h2.26V7H19.19C17,7,15.8,8,15.8,9.83Zm4.52,7.93,2.79,2.79,2.79-2.79.78.78-2.79,2.8,2.79,2.82-.78.78-2.79-2.79-2.79,2.79-.79-.78,2.8-2.82-2.8-2.8Z"/></svg>