<svg id="Icones" xmlns="http://www.w3.org/2000/svg" width="32" height="32" viewBox="0 0 32 32"><defs><style>.cls-1{fill:none;}</style></defs><rect class="cls-1" width="32" height="32"/><path d="M16,7c5.52,0,9,3.48,9,9s-3.51,9-9,9-9-3.51-9-9S10.51,7,16,7ZM16,8.1c-4.89,0-7.9,3-7.9,7.9s3,7.9,7.9,7.9,7.9-3,7.9-7.9S20.89,8.1,16,8.1ZM13.37,19.54l-.76-.72a4.25,4.25,0,0,1,6.78,0l-.76.72a3.25,3.25,0,0,0-5.26,0Zm1.38-5.77a.87.87,0,0,1-1,1,.88.88,0,0,1-1-1,.86.86,0,0,1,1-1A.85.85,0,0,1,14.75,13.77Zm4.45,0a.87.87,0,0,1-1,1,.89.89,0,0,1-1-1,.87.87,0,0,1,1-1A.85.85,0,0,1,19.2,13.77Z"/></svg>