<?xml version="1.0" encoding="UTF-8"?><svg xmlns="http://www.w3.org/2000/svg" width="24" height="24" viewBox="0 0 24 24"><defs><style>.c{fill:none;}</style></defs><g id="a"><rect class="c" width="24" height="24"/></g><g id="b"><path d="M.8,6.4H10.88V3.04h12.32V20.96H.8V6.4Zm21.35,13.47V4.19H12.01v3.36H1.93v12.32H22.15ZM4.16,9.73h2.24v1.21h-2.24v-1.21Zm0,3.33h2.24v1.21h-2.24v-1.21Zm0,3.36h2.24v1.21h-2.24v-1.21Zm3.36-6.69h2.24v1.21h-2.24v-1.21Zm0,3.33h2.24v1.21h-2.24v-1.21Zm0,3.36h2.24v1.21h-2.24v-1.21Zm3.43-6.69h2.24v1.21h-2.24v-1.21Zm0,3.31h2.24v1.23h-2.24v-1.23Zm0,3.36h2.24v1.23h-2.24v-1.23Zm3.33-10.08h2.24v1.21h-2.24v-1.21Zm0,3.39h2.24v1.2h-2.24v-1.2Zm0,3.36h2.24v1.21h-2.24v-1.21Zm0,3.36h2.24v1.21h-2.24v-1.21Zm3.36-10.08h2.24v1.21h-2.24v-1.21Zm0,3.39h2.24v1.18h-2.24v-1.18Zm0,3.36h2.24v1.21h-2.24v-1.21Zm0,3.36h2.24v1.21h-2.24v-1.21Z"/></g></svg>