<?xml version="1.0" encoding="UTF-8"?><svg xmlns="http://www.w3.org/2000/svg" width="24" height="24" viewBox="0 0 24 24"><defs><style>.c{fill:none;}</style></defs><g id="a"><rect class="c" width="24" height="24"/></g><g id="b"><path d="M16.27,11.11V4.84c0-1.42-.62-1.98-2.13-1.98h-4.81c-1.68,1.46-3.25,3.05-4.7,4.75V15.97c0,1.54,.61,2.15,2.13,2.15h2.57c.04,.38,.11,.75,.2,1.12h-2.91c-2.1,0-3.1-1.01-3.1-3.1V7.21c.42-.5,.84-.98,1.26-1.42l-1.6-1.6c.86-1.01,1.8-1.95,2.83-2.8l1.6,1.57c.43-.43,.89-.85,1.37-1.23h5.37c2.1,0,3.1,1,3.1,3.1v6.44c-.38-.09-.78-.15-1.17-.17h0ZM5.51,5.01c.44-.47,.81-.84,1.28-1.29l-.84-.84c-.45,.4-.88,.83-1.28,1.29l.84,.84Zm5.78,2.99c-.52,0-1.02-.21-1.38-.57-.37-.37-.57-.86-.57-1.38s.21-1.02,.57-1.38c.37-.37,.86-.57,1.38-.57h1.85c.52,0,1.02,.21,1.38,.57,.37,.37,.57,.86,.57,1.38s-.21,1.02-.57,1.38c-.37,.37-.86,.57-1.38,.57h-1.85Zm2.76-1.96c0-.12-.02-.24-.06-.35-.04-.11-.11-.21-.2-.29-.09-.08-.19-.15-.3-.19-.11-.04-.23-.05-.35-.04h-1.85c-.23,0-.45,.09-.62,.26s-.26,.39-.26,.62,.09,.45,.26,.62c.16,.16,.39,.26,.62,.26h1.85c.12,0,.24,0,.35-.05,.11-.04,.21-.1,.3-.19,.09-.08,.15-.18,.2-.29,.05-.11,.07-.23,.06-.35h0Zm1.63,16.55c-3.16,0-5.14-1.99-5.14-5.15s1.98-5.14,5.14-5.14,5.14,1.96,5.14,5.14-1.96,5.15-5.14,5.15Zm0-1.12c2.49,0,4-1.51,4-4.03s-1.51-4.03-4-4.03-4,1.51-4,4.03,1.51,4.03,4,4.03Zm.2-2.07h-.98c-.48-.64-.92-1.31-1.32-2l.92-.68c.28,.48,.58,.96,.87,1.46,.58-.9,1.07-1.75,1.65-2.88l.96,.53c-.87,1.57-1.35,2.4-2.1,3.57Z"/></g></svg>