<?xml version="1.0" encoding="UTF-8"?><svg xmlns="http://www.w3.org/2000/svg" width="24" height="24" viewBox="0 0 24 24"><defs><style>.c{fill:none;}</style></defs><g id="a"><rect class="c" width="24" height="24"/></g><g id="b"><path d="M18.03,4.11l-3.99,8.51h-4.1L5.96,4.11H3.55v-1.13h3.18l.6,1.24h9.34l.6-1.24h3.18v1.13h-2.42Zm-4.75,7.33l2.83-6.06H7.87l2.83,6.06h2.59Zm-3.68,7.3c0-.92,.69-2.77,1.88-4.94h1.04c1.15,2.25,1.88,4.04,1.88,4.94-.02,.62-.29,1.2-.74,1.63-.45,.42-1.05,.66-1.67,.65-.62,.01-1.22-.22-1.66-.65-.45-.43-.71-1.01-.73-1.63Zm3.61-.09c0-.64-.38-1.65-1.2-3.46-.84,1.73-1.2,2.8-1.2,3.46-.01,.16,0,.33,.06,.48,.06,.15,.14,.3,.26,.41,.11,.12,.25,.21,.41,.27,.15,.06,.32,.08,.48,.07,.16,.01,.33-.01,.48-.07,.15-.06,.29-.15,.41-.27,.11-.12,.2-.26,.26-.42,.05-.15,.07-.32,.05-.49h0Z"/></g></svg>