<svg id="Icones" xmlns="http://www.w3.org/2000/svg" width="32" height="32" viewBox="0 0 32 32"><defs><style>.cls-1{fill:none;}</style></defs><rect class="cls-1" width="32" height="32"/><path d="M18.23,17.07H13.77L9.38,8.13H7V7.06h3.11l.56,1.13H21.3l.56-1.13H25V8.13H22.62ZM17.47,16,20.8,9.26H11.2L14.53,16Zm-3.73,6.71c0-1,.41-2.13,1.7-4.48h1.12c1.26,2.44,1.67,3.51,1.67,4.48A2.06,2.06,0,0,1,16,24.94,2.07,2.07,0,0,1,13.74,22.71Zm3.39,0c0-.81-.22-1.44-1.13-3.39-.91,1.79-1.16,2.51-1.16,3.39A1.1,1.1,0,0,0,16,23.87,1.06,1.06,0,0,0,17.13,22.71Z"/></svg>