<svg id="Icones" xmlns="http://www.w3.org/2000/svg" width="32" height="32" viewBox="0 0 32 32"><defs><style>.cls-1{fill:none;}</style></defs><rect class="cls-1" width="32" height="32"/><path d="M6.87,17.07H5.74v3.39H4.64V12.62h1.1V16H6.87V11.55h4.48V10.33H8V9.26H15.8v1.07H12.45v1.22h4.92L22.55,16V17.1h1.12V14.88H27v8.9H23.67V21.52H22.55v2.26H10.28L6.87,20.46ZM8,20l2.79,2.73h10.7V20.46h3.32v2.26h1.16V15.94H24.77v2.23H21.45v-1.7L17,12.62H8Zm4.55-1.13c0-1.13.47-2.39,1.63-4.46h1.13c1.16,2.17,1.6,3.39,1.6,4.46A2,2,0,0,1,14.71,21,2,2,0,0,1,12.51,18.86Zm3.32,0c0-.85-.18-1.41-1.12-3.42-.91,1.79-1.17,2.54-1.17,3.42A1.1,1.1,0,0,0,14.71,20,1.06,1.06,0,0,0,15.83,18.86Z"/></svg>