<?xml version="1.0" encoding="UTF-8"?><svg xmlns="http://www.w3.org/2000/svg" width="24" height="24" viewBox="0 0 24 24"><defs><style>.c{fill:none;}</style></defs><g id="a"><rect class="c" width="24" height="24"/></g><g id="b"><path d="M5.42,22.78H.62v-4.79H1.82v-5.99H11.41V7.19h-2.4V1.2h5.99V7.16h-2.4v4.79h9.52v5.99h1.24v4.79h-4.8v-4.79h2.4v-4.83H12.59v4.89h1.8v4.79h-4.8v-4.79h1.8v-4.89H3v4.86h2.4l.02,4.8Zm-3.65-1.12h2.5v-2.55H1.77v2.55ZM10.17,2.33v3.66h3.66V2.33h-3.66Zm.6,19.33h2.51v-2.55h-2.53l.02,2.55Zm8.99,0h2.51v-2.55h-2.54l.04,2.55Z"/></g></svg>