<?xml version="1.0" encoding="UTF-8"?><svg xmlns="http://www.w3.org/2000/svg" width="24" height="24" viewBox="0 0 24 24"><defs><style>.c{fill:none;}</style></defs><g id="a"><rect class="c" width="24" height="24"/></g><g id="b"><path d="M20.84,1.99V20.07h-1.18V3.12H5.25c-.62,0-.91,.28-.91,.59,0,.48,.54,.65,1.33,.65h12.8V22.01H5.16c-.26,.02-.53-.02-.78-.12-.25-.09-.48-.24-.66-.43-.19-.19-.34-.41-.43-.66-.1-.25-.14-.51-.12-.78V3.71c0-1.27,1.04-1.72,2.68-1.72h14.99Zm-3.53,3.44H5.78c-.5,.03-1-.08-1.44-.31v14.63c-.01,.15,0,.29,.06,.43,.05,.14,.13,.26,.24,.36,.1,.1,.23,.18,.37,.23,.14,.05,.29,.07,.43,.05h11.86V5.43Zm-1.64,9.39c-.93,.14-1.18,.42-1.18,.94,.01,.38,.09,.75,.22,1.1l.17,.42c-.77,.45-1.87,1.07-2.74,1.47l-.19-.34c-.1-.22-.26-.41-.46-.55-.2-.14-.43-.22-.67-.24-.24,.01-.48,.09-.68,.23-.2,.14-.36,.33-.45,.56l-.2,.34c-.94-.43-1.84-.92-2.71-1.47l.14-.42c.14-.35,.22-.72,.23-1.1,0-.51-.26-.79-1.18-.94l-.42-.05v-3.26l.42-.06c.9-.14,1.18-.39,1.18-.91,0-.38-.08-.75-.22-1.1l-.14-.45c.88-.53,1.78-1.01,2.71-1.44l.2,.34c.1,.22,.26,.41,.46,.55,.2,.14,.43,.22,.67,.25,.24-.03,.47-.12,.66-.26,.2-.14,.36-.32,.46-.54l.19-.34c.88,.39,1.98,1.01,2.74,1.44l-.17,.45c-.14,.35-.21,.72-.22,1.1,0,.51,.25,.77,1.18,.91l.4,.06v3.25l-.41,.06Zm-7.56,1.88c.34,.22,.68,.42,1.1,.65,.18-.26,.42-.47,.7-.62,.28-.15,.59-.23,.91-.23,.31,0,.62,.08,.9,.22,.28,.14,.52,.35,.71,.59,.4-.22,.74-.39,1.08-.59-.1-.33-.17-.67-.2-1.02,0-.47,.16-.92,.46-1.27,.3-.35,.72-.59,1.18-.65v-1.32c-.46-.06-.87-.28-1.18-.62-.3-.34-.47-.79-.47-1.24,.03-.35,.1-.69,.2-1.02-.34-.19-.68-.36-1.08-.59-.19,.24-.44,.44-.71,.58-.28,.14-.58,.22-.89,.23-.32,0-.63-.09-.91-.24-.28-.15-.52-.37-.7-.63-.38,.19-.74,.41-1.09,.65,.08,.32,.14,.66,.17,.99,.02,.46-.13,.91-.42,1.26-.29,.35-.71,.58-1.17,.63v1.35c.46,.07,.88,.3,1.18,.65,.3,.35,.45,.81,.44,1.27-.03,.33-.09,.65-.19,.96h0Zm.82-3.56c0-.37,.1-.74,.31-1.05,.2-.31,.5-.56,.84-.7,.34-.15,.72-.19,1.09-.12,.37,.07,.7,.25,.97,.51,.27,.26,.45,.6,.52,.96,.08,.36,.04,.74-.1,1.09-.14,.35-.38,.64-.69,.85-.31,.21-.67,.32-1.04,.32-.5,0-.98-.19-1.33-.54-.36-.35-.56-.82-.57-1.32h0Zm2.71,0c0-.22-.09-.42-.24-.58s-.36-.24-.58-.24c-.11,0-.22,.01-.32,.05-.1,.04-.19,.1-.27,.18-.08,.08-.14,.17-.18,.27-.04,.1-.06,.21-.05,.32,0,.22,.08,.43,.24,.59s.36,.25,.58,.26c.22-.02,.43-.12,.58-.28,.15-.16,.24-.38,.24-.6v.03Z"/></g></svg>