<?xml version="1.0" encoding="UTF-8"?><svg xmlns="http://www.w3.org/2000/svg" width="24" height="24" viewBox="0 0 24 24"><defs><style>.c{fill:none;}</style></defs><g id="a"><rect class="c" width="24" height="24"/></g><g id="b"><path d="M11.85,7.39c-.12-.15-.21-.31-.27-.49h-2.37v2.27h-1.13v-3.4h3.48c.12-.33,.35-.62,.64-.82,.29-.2,.64-.31,.99-.31s.7,.11,1,.31c.29,.2,.51,.49,.64,.82h3.46v11.67c0,1.3-.62,1.93-1.93,1.93h-6.32c-1.3,0-1.93-.63-1.93-1.93v-2.6h1.13v2.42c0,.71,.27,1.01,.98,1.01h5.96c.71,0,.98-.3,.98-1.01V6.89h-1.13v3.43h-1.13v-3.43h-.09c-.12,.33-.33,.62-.62,.82-.29,.2-.63,.31-.98,.31-.13,0-.26-.02-.38-.06l-5.77,7.03c-.44,.57-.82,.35-1.33-.11l6.13-7.5Zm.68-1.07c0,.17,.07,.34,.19,.46,.12,.12,.29,.19,.46,.19s.34-.07,.46-.19c.12-.12,.19-.29,.19-.46s-.07-.34-.19-.46c-.12-.12-.29-.19-.46-.19s-.34,.07-.46,.19c-.12,.12-.19,.29-.19,.46h0Z"/></g></svg>