<?xml version="1.0" encoding="UTF-8"?><svg xmlns="http://www.w3.org/2000/svg" width="24" height="24" viewBox="0 0 24 24"><defs><style>.c{fill:none;}</style></defs><g id="a"><rect class="c" width="24" height="24"/></g><g id="b"><path d="M3.97,13.16l-.7-3.52V5.2c0-.93,.4-1.38,1.21-1.38h13.95c.81,0,1.21,.45,1.21,1.38v4.42l.84,2.14c.18,.42,.3,.86,.34,1.31-.08,.81-.22,1.62-.42,2.41l-.7,3.32c-.2,.93-.39,1.38-1.21,1.38H4.48c-.81,0-1.55-.48-1.21-1.38l.67-1.85c.22-.48,.37-.98,.45-1.49-.09-.78-.23-1.54-.42-2.3h0Zm.45-8.2v3.54h14.06v-3.56H4.42Zm14.06,14.13l1.24-5.91c-4.84,.79-8.07,1.76-14.46,3.66l-.84,2.25h14.06Zm-12.79-3.5c4.45-1.5,9.01-2.66,13.64-3.46l-.93-2.5H4.52l1.17,5.97Zm-.19-8.87c0-.19,.07-.37,.21-.5,.13-.13,.31-.21,.5-.21s.37,.07,.5,.21c.13,.13,.21,.31,.21,.5s-.07,.37-.21,.5c-.13,.13-.31,.21-.5,.21s-.37-.07-.5-.21c-.13-.13-.21-.31-.21-.5h0Zm10.46,0c0-.19,.07-.37,.21-.5s.31-.21,.5-.21,.37,.07,.5,.21c.13,.13,.21,.31,.21,.5s-.07,.37-.21,.5-.31,.21-.5,.21-.37-.07-.5-.21c-.13-.13-.21-.31-.21-.5h0Z"/></g></svg>