<?xml version="1.0" encoding="UTF-8"?><svg xmlns="http://www.w3.org/2000/svg" width="24" height="24" viewBox="0 0 24 24"><defs><style>.c{fill:none;}</style></defs><g id="a"><rect class="c" width="24" height="24"/></g><g id="b"><path d="M11.18,11.46l-1.18-.73c-1.07-.68-1.52-1.13-1.52-2.45v-3.07c0-1.36,.65-2,2-2h1.86c1.35,0,2,.65,2,2v3.07c0,1.32-.45,1.76-1.53,2.45l-1.18,.73h6.22v1.13h-5.88v2.2c0,1.6-.51,2.51-1.98,2.51v-1.18c.71,0,.82-.42,.82-1.32v-2.22h-1.76l-1.45,6.21c-.37,1.67-.82,2-2.51,2h-1.33c-1.46,0-2.09-.71-1.76-2l1.24-5.36c.34-1.41,.93-1.97,2.29-1.97h5.63Zm-4.77,7.33l1.41-6.21h-2.11c-.82,0-1.1,.23-1.27,1.02l-1.18,5.19c-.16,.71,.06,1.05,.71,1.05h.98c.96,0,1.27-.2,1.47-1.05Zm3.21-13.23h3.53v-.2c0-.73-.28-1.04-1.02-1.04h-1.49c-.73,0-1.02,.31-1.02,1.04v.2Zm1.76,4.7l.78-.53c.79-.51,.99-.62,.99-1.46v-1.58h-3.53v1.58c0,.85,.2,.96,.99,1.46l.77,.53Zm6.83-.76l2.11-2.14,.85,.82-2.15,2.12-.82-.79Zm2.94,6.41l-.85,.82-2.12-2.14,.82-.79,2.14,2.12Zm-2.11-4.45h3.02v1.13h-3.02v-1.13Z"/></g></svg>