<?xml version="1.0" encoding="UTF-8"?><svg xmlns="http://www.w3.org/2000/svg" width="24" height="24" viewBox="0 0 24 24"><defs><style>.c{fill:none;}</style></defs><g id="a"><rect class="c" width="24" height="24"/></g><g id="b"><path d="M15.64,13.14v9.31h-1.13V13.33c0-.71-.27-1.01-.98-1.01H7.55c-.7,0-.97,.3-.97,1.01v9.12h-1.13V13.14c0-1.3,.62-1.93,1.93-1.93l.66-2.26h1.95v-1.18h-1.12v-3.39h3.39v3.39h-1.17v1.19h1.96l.65,2.26h.03c1.31-.01,1.93,.62,1.93,1.92Zm-3.09-1.93l-.33-1.19h-3.33l-.33,1.19h3.99Zm-1.36-4.48v-1.32h-1.28v1.33h1.28Zm3.66-3.13l2.05-2.06,.81,.79-2.06,2.04-.8-.76Zm2.83,6.16l-.77,.79-2.04-2.06,.79-.76,2.02,2.04Zm-2.06-4.26h2.93v1.09h-2.91l-.02-1.09Z"/></g></svg>