<?xml version="1.0" encoding="UTF-8"?><svg xmlns="http://www.w3.org/2000/svg" width="24" height="24" viewBox="0 0 24 24"><defs><style>.c{fill:none;}</style></defs><g id="a"><rect class="c" width="24" height="24"/></g><g id="b"><path d="M13.97,2.05c-.03,.25-.15,.49-.33,.67-.63-.13-1.27-.18-1.92-.17C5.97,2.55,1.88,6.6,1.88,12.16c0,5.21,4.53,10.15,8.2,10.15,1.22,0,2.25-.61,2.25-1.53,0-1.74-2.32-3.78-2.32-5.59,0-1.48,.97-2.5,2.67-2.81l.26,1.09c-1.16,.25-1.78,.61-1.78,1.7,0,1.55,2.32,3.53,2.32,5.59,0,1.64-1.53,2.64-3.39,2.64C5.67,23.4,.75,18.19,.75,12.14S5.31,1.41,11.75,1.41c.65,0,1.29,.06,1.93,.19,.09,.04,.16,.1,.21,.18,.05,.08,.08,.17,.08,.27ZM4.13,13.08c.01-.32,.15-.63,.38-.86,.23-.23,.54-.36,.87-.36,.33,0,.64,.12,.88,.35,.23,.23,.37,.54,.37,.87,0,.33-.13,.65-.37,.88-.23,.23-.55,.37-.88,.37s-.65-.13-.88-.37c-.24-.23-.37-.55-.37-.88h0Zm.64-4.67c.01-.32,.15-.63,.38-.86,.23-.23,.54-.36,.87-.36,.33,0,.64,.12,.88,.35,.24,.23,.37,.54,.37,.87,0,.33-.13,.65-.37,.88-.23,.23-.55,.37-.88,.37s-.65-.13-.88-.37c-.24-.23-.37-.55-.37-.88h0Zm1.2,9.03c.01-.32,.15-.63,.38-.86,.23-.23,.54-.36,.87-.36,.33,0,.64,.12,.88,.35,.23,.23,.37,.54,.37,.87,0,.33-.13,.65-.37,.88-.24,.23-.55,.37-.89,.37s-.65-.13-.88-.37c-.23-.23-.37-.55-.37-.88Zm2.5-11.89c.01-.32,.15-.63,.38-.86,.23-.23,.54-.36,.87-.36,.33,0,.64,.12,.88,.35,.24,.23,.37,.54,.37,.87,0,.33-.13,.65-.37,.88-.23,.23-.55,.37-.88,.37s-.65-.13-.88-.37c-.23-.23-.37-.55-.37-.88Zm10.68,5.67c.13,.32,.19,.66,.2,1,0,.19,0,.39-.03,.58l-.75,6.56c0,.23-.05,.47-.14,.68-.09,.22-.23,.41-.39,.57-.17,.16-.37,.29-.59,.37s-.45,.12-.69,.11c-.24,.01-.47-.02-.7-.1-.22-.08-.43-.21-.6-.37-.17-.16-.31-.36-.4-.58-.09-.22-.14-.45-.14-.69l-.83-6.55c-.03-.2-.04-.41-.05-.61,.02-.33,.09-.66,.23-.97l1.31-3.67h2.32l1.26,3.67Zm-2.57-4.81c-1.22,0-2.32-.61-2.32-1.89,0-.97,1.08-1.7,1.08-2.44,0-.3-.1-.59-.28-.83l.72-.64c2.32,.92,3.34,2.32,3.34,3.59s-1.18,2.22-2.55,2.22Zm-1.32,5.33c.49,.08,.98,.11,1.47,.11,.48,0,.97-.03,1.45-.11-.03-.14-.07-.28-.11-.42l-.94-2.64h-.75l-1.03,2.69c-.06,.11-.08,.24-.08,.36h0Zm.03,1.16l.67,6.37c0,.1,.02,.2,.05,.29,.04,.09,.1,.17,.17,.24s.16,.12,.26,.14c.1,.03,.19,.04,.29,.02,.45,0,.69-.14,.75-.69l.67-6.42c-.47,.07-.94,.11-1.42,.12-.48,0-.96-.04-1.44-.1v.04Zm1.16-10.7c-.11,1.06-1.08,1.81-1.08,2.32s.58,.81,1.19,.81,1.45-.45,1.45-1.16-.44-1.29-1.55-2.01v.04Zm3.89,3.95c-.28-.34-.47-.58-.47-.8s.19-.42,.7-.67c1.68,1.62,2.65,3.84,2.69,6.17,0,2.11-1,3.61-3.03,4.5l.14-1.36c.56-.28,1.03-.73,1.34-1.28,.31-.55,.45-1.18,.4-1.81,.02-1.76-.61-3.46-1.76-4.79v.04Z"/></g></svg>