<svg id="Icones" xmlns="http://www.w3.org/2000/svg" width="32" height="32" viewBox="0 0 32 32"><defs><style>.cls-1{fill:none;}</style></defs><rect class="cls-1" width="32" height="32"/><path d="M7.68,12.33A1,1,0,0,0,7,13.81l2.76,7.31a1,1,0,0,0,1.47.65l10.26-3.92-3.55-9.4-2.1.81V8.07L18.59,7l4.33,11.48L11.6,22.78a1.93,1.93,0,0,1-2.85-1.29L6,14.19A2,2,0,0,1,7.27,11.3l5.21-2v1.2ZM14.17,16A2,2,0,0,1,12,13.75a2,2,0,0,1,1.63-2.17V4.78h1.1v6.8a2,2,0,0,1,1.66,2.17A2,2,0,0,1,14.17,16Zm0-3.42A1.06,1.06,0,0,0,13,13.75a1.07,1.07,0,0,0,1.13,1.19,1,1,0,0,0,1.13-1.19A1,1,0,0,0,14.17,12.55Zm5.49-5.92,1.07-.38L25,17.67l-1,.4Zm1.76,18.31c0-1,.4-2.13,1.69-4.48h1.13C25.49,22.9,25.9,24,25.9,24.94a2.06,2.06,0,0,1-2.23,2.23A2.07,2.07,0,0,1,21.42,24.94Zm3.38,0c0-.81-.22-1.44-1.13-3.38-.91,1.78-1.16,2.5-1.16,3.38a1.1,1.1,0,0,0,1.16,1.16A1.06,1.06,0,0,0,24.8,24.94Z"/></svg>