<?xml version="1.0" encoding="UTF-8"?><svg xmlns="http://www.w3.org/2000/svg" width="24" height="24" viewBox="0 0 24 24"><defs><style>.c{fill:none;}</style></defs><g id="a"><rect class="c" width="24" height="24"/></g><g id="b"><path d="M14.39,3.79l.31-.39c1.23,.58,2.39,1.28,3.49,2.08l-.13,.49c-.17,.53-.27,1.07-.29,1.63,0,1.14,.68,1.79,2.34,2.24l.54,.16c.05,1.43,.05,2.6,0,4.01l-.54,.16c-1.66,.44-2.34,1.08-2.34,2.24,.02,.55,.12,1.1,.29,1.63l.13,.47c-1.08,.81-2.25,1.52-3.47,2.1l-.33-.37c-.75-.88-1.49-1.33-2.4-1.33s-1.63,.44-2.39,1.33l-.32,.36c-1.23-.58-2.39-1.28-3.48-2.08l.13-.47c.17-.53,.26-1.07,.28-1.63,0-1.15-.67-1.8-2.34-2.24l-.54-.16c-.05-1.4-.05-2.57,0-4.01l.54-.16c1.67-.44,2.34-1.08,2.34-2.24-.02-.55-.11-1.1-.28-1.63l-.13-.49c1.09-.8,2.26-1.5,3.48-2.08l.32,.39c.75,.86,1.48,1.3,2.39,1.3s1.66-.44,2.4-1.31Zm.54,15.49c.72-.36,1.4-.77,2.05-1.25-.14-.53-.22-1.08-.23-1.63,0-1.49,.75-2.66,2.89-3.15v-2.54c-2.14-.54-2.89-1.63-2.89-3.12,.01-.55,.09-1.1,.23-1.63-.65-.48-1.35-.89-2.08-1.23-1.04,1.08-1.85,1.4-2.86,1.4s-1.82-.34-2.86-1.43c-.74,.34-1.45,.75-2.11,1.24,.15,.53,.23,1.08,.23,1.63,0,1.49-.75,2.6-2.88,3.12v2.53c2.13,.49,2.88,1.66,2.88,3.15-.01,.55-.09,1.1-.23,1.63,.65,.47,1.34,.89,2.05,1.25,1.04-1.08,1.85-1.43,2.89-1.43s1.83,.37,2.92,1.46Zm-2.92-10.54c2.05,0,3.25,1.2,3.25,3.25s-1.2,3.25-3.25,3.25-3.28-1.22-3.28-3.25,1.22-3.25,3.28-3.25Zm0,5.49c1.38,0,2.17-.81,2.17-2.24s-.8-2.21-2.17-2.21c-.3-.03-.6,0-.88,.11-.28,.1-.54,.26-.75,.47-.21,.21-.37,.47-.48,.75-.1,.28-.14,.58-.11,.88-.03,.3,0,.6,.1,.89,.1,.28,.26,.54,.47,.76,.21,.21,.47,.38,.75,.48,.28,.1,.58,.14,.88,.11Z"/></g></svg>