<svg id="Icones" xmlns="http://www.w3.org/2000/svg" width="32" height="32" viewBox="0 0 32 32"><defs><style>.cls-1{fill:none;}</style></defs><rect class="cls-1" width="32" height="32"/><path d="M21.64,17.68A3.06,3.06,0,0,0,25,14.6c0-2-1.47-3.13-4.2-3.13,0-3.36-1.63-5.05-4.9-5.05s-4.95,1.76-4.95,5.49C8.54,11.91,7,13,7,14.86a2.87,2.87,0,0,0,3.17,2.82h2.73l-.35,1.1H10.2a4,4,0,0,1-4.27-3.92c0-2.14,1.51-3.67,3.92-4,.22-3.54,2.42-5.55,6-5.55s5.74,1.92,6,5.08c2.64.16,4.24,1.73,4.24,4.17s-1.76,4.18-4.46,4.18H19l.44-1.1ZM9.29,19.87l1.1.22-1,4.52-1.09-.22ZM12.74,21l1.1.22-1.2,5.43-1.09-.22Zm3.07,1.6.53-3.82H13.71l1.6-5h1.32l-1.29,3.86h2.92l-2,4.92Zm4.67-2.73,1.1.22-1,4.52-1.1-.22Z"/></svg>