<svg id="Icones" xmlns="http://www.w3.org/2000/svg" width="32" height="32" viewBox="0 0 32 32"><defs><style>.cls-1{fill:none;}</style></defs><rect class="cls-1" width="32" height="32"/><path d="M7,14.43H3.66V13.3H7ZM8.39,9.88,6,7.53l.82-.81L9.21,9.07Zm.82,8.79L6.86,21,6,20.2l2.35-2.35Zm1-2.14a3.9,3.9,0,0,1-.94-2.69A3.65,3.65,0,0,1,13.19,10a3.81,3.81,0,0,1,2.7.94,5.68,5.68,0,0,0-.85.69A2.8,2.8,0,0,0,13.19,11a2.61,2.61,0,0,0-2.82,2.83,2.65,2.65,0,0,0,.6,1.91A3.78,3.78,0,0,0,10.21,16.53Zm15.62,5.21a2.92,2.92,0,0,0,1.44-2.6c0-2.07-1.6-3.27-4.23-3.17,0-2.6-1.16-3.83-3.64-3.83s-3.95,1.57-3.95,4.46c-2.48-.1-3.95,1-3.95,2.85A2.64,2.64,0,0,0,13,21.86l-.31,1.07a3.68,3.68,0,0,1-2.23-3.48,3.91,3.91,0,0,1,4-3.89,4.74,4.74,0,0,1,5-4.48c2.79,0,4.55,1.44,4.71,3.85a4.08,4.08,0,0,1,4.23,4.21,3.93,3.93,0,0,1-2.29,3.76ZM12.63,7.66V4.33h1.13V7.66Zm3.76,12.76a.86.86,0,0,1-1,1,.87.87,0,0,1-1-1,.86.86,0,0,1,1-1A.85.85,0,0,1,16.39,20.42Zm0,4.58a.86.86,0,0,1-1,1,.87.87,0,0,1-1-1,.86.86,0,0,1,1-1A.85.85,0,0,1,16.39,25Zm.79-15.93,2.35-2.35.81.81L18,9.88Zm3.13,9.66a.86.86,0,0,1-1,1,.87.87,0,0,1-1-1,.86.86,0,0,1,1-1A.85.85,0,0,1,20.31,18.73Zm0,4a.86.86,0,0,1-1,1,.87.87,0,0,1-1-1,.86.86,0,0,1,1-1A.86.86,0,0,1,20.31,22.71Zm0,4a.87.87,0,0,1-1,1,.88.88,0,0,1-1-1,.86.86,0,0,1,1-1A.85.85,0,0,1,20.31,26.69Zm3.92-6.27a.86.86,0,0,1-1,1,.87.87,0,0,1-1-1,.86.86,0,0,1,1-1A.85.85,0,0,1,24.23,20.42Zm0,4.58a.86.86,0,0,1-1,1,.87.87,0,0,1-1-1,.86.86,0,0,1,1-1A.85.85,0,0,1,24.23,25Z"/></svg>