<svg id="Icones" xmlns="http://www.w3.org/2000/svg" width="32" height="32" viewBox="0 0 32 32"><defs><style>.cls-1{fill:none;}</style></defs><rect class="cls-1" width="32" height="32"/><path d="M7,16.58H3.66V15.45H7ZM8.39,12,6,9.68l.82-.81,2.35,2.35Zm.82,8.78L6.86,23.17,6,22.35,8.39,20Zm1-2.13A3.91,3.91,0,0,1,9.27,16a3.64,3.64,0,0,1,3.92-3.88,3.81,3.81,0,0,1,2.7.94,5.68,5.68,0,0,0-.85.69,2.8,2.8,0,0,0-1.85-.57A2.61,2.61,0,0,0,10.37,16,2.66,2.66,0,0,0,11,17.9,4,4,0,0,0,10.21,18.68Zm4.52,6.84c-2.51,0-4.3-1.63-4.3-3.92a3.9,3.9,0,0,1,4-3.89,4.72,4.72,0,0,1,5-4.49c2.79,0,4.55,1.45,4.71,3.86a4.08,4.08,0,0,1,4.23,4.2c0,2.58-1.82,4.24-4.58,4.24Zm12.54-4.24c0-2.07-1.6-3.26-4.23-3.16,0-2.61-1.16-3.83-3.64-3.83s-3.95,1.57-3.95,4.45c-2.48-.09-3.95,1-3.95,2.86,0,1.66,1.32,2.82,3.23,2.82h9A3.19,3.19,0,0,0,27.27,21.28ZM12.63,9.81V6.48h1.13V9.81Zm4.55,1.41,2.35-2.35.81.81L18,12Z"/></svg>