<svg id="Icones" xmlns="http://www.w3.org/2000/svg" width="32" height="32" viewBox="0 0 32 32"><defs><style>.cls-1{fill:none;}</style></defs><rect class="cls-1" width="32" height="32"/><path d="M4.74,16.58H1.42V15.45H4.74ZM6.15,12,3.8,9.68l.82-.81L7,11.22ZM7,20.81,4.62,23.17l-.82-.82L6.15,20Zm1-2.13A3.86,3.86,0,0,1,7,16,3.64,3.64,0,0,1,11,12.1a3.81,3.81,0,0,1,2.7.94,5.68,5.68,0,0,0-.85.69A2.82,2.82,0,0,0,11,13.16,2.61,2.61,0,0,0,8.13,16a2.7,2.7,0,0,0,.59,1.92A3.52,3.52,0,0,0,8,18.68Zm4.52,6.84c-2.51,0-4.3-1.63-4.3-3.92a3.89,3.89,0,0,1,4-3.89,4.74,4.74,0,0,1,5-4.49c2.79,0,4.55,1.45,4.7,3.86,2.58.13,4.24,1.76,4.24,4.2s-1.82,4.24-4.58,4.24ZM25,21.28c0-2.07-1.6-3.26-4.23-3.16,0-2.61-1.16-3.83-3.64-3.83s-3.95,1.57-3.95,4.45c-2.48-.09-4,1-4,2.86,0,1.66,1.31,2.82,3.23,2.82h9A3.19,3.19,0,0,0,25,21.28ZM10.39,9.81V6.48h1.13V9.81Zm6.24,2.35a4.75,4.75,0,0,1,5-4.52c2.8,0,4.55,1.45,4.71,3.86a4.08,4.08,0,0,1,4.23,4.2,4,4,0,0,1-3.48,4.14,4.15,4.15,0,0,0-.41-1,3.2,3.2,0,0,0,2.83-3.14c0-2.07-1.6-3.26-4.24-3.17,0-2.6-1.16-3.82-3.64-3.82a3.55,3.55,0,0,0-3.88,3.45A7.1,7.1,0,0,0,16.63,12.16Z"/></svg>