<svg id="Icones" xmlns="http://www.w3.org/2000/svg" width="32" height="32" viewBox="0 0 32 32"><defs><style>.cls-1{fill:none;}</style></defs><rect class="cls-1" width="32" height="32"/><path d="M7,13.22H3.66V12.1H7ZM8.39,8.68,6,6.33l.82-.82L9.21,7.86Zm.82,8.78L6.86,19.81,6,19l2.35-2.36Zm1-2.13a3.91,3.91,0,0,1-.94-2.7,3.65,3.65,0,0,1,3.92-3.89,3.81,3.81,0,0,1,2.7.94,5.68,5.68,0,0,0-.85.69,2.8,2.8,0,0,0-1.85-.56,2.6,2.6,0,0,0-2.82,2.82,2.63,2.63,0,0,0,.6,1.91A3.61,3.61,0,0,0,10.21,15.33Zm4.52,6.83c-2.51,0-4.3-1.63-4.3-3.92a3.91,3.91,0,0,1,4-3.89,4.74,4.74,0,0,1,5-4.48c2.79,0,4.55,1.44,4.71,3.86a4.07,4.07,0,0,1,4.23,4.2c0,2.57-1.82,4.23-4.58,4.23Zm12.54-4.23c0-2.07-1.6-3.26-4.23-3.17,0-2.6-1.16-3.82-3.64-3.82s-3.95,1.56-3.95,4.45c-2.48-.1-3.95,1-3.95,2.85,0,1.66,1.32,2.82,3.23,2.82h9C25.83,21.06,27.27,19.78,27.27,17.93ZM12.63,6.45V3.13h1.13V6.45Zm2.63,16.81,1.07.22-.75,3.36-1.07-.22Zm1.92-15.4,2.35-2.35.81.82L18,8.68Zm1.63,15.4,1.06.22-1.19,5.39-1.07-.22Zm3.57,0,1.07.22-.75,3.36-1.07-.22Z"/></svg>