<svg id="Icones" xmlns="http://www.w3.org/2000/svg" width="32" height="32" viewBox="0 0 32 32"><defs><style>.cls-1{fill:none;}</style></defs><rect class="cls-1" width="32" height="32"/><path d="M20.77,11.48c0-3.35-1.63-5.05-4.9-5.05s-4.95,1.76-4.95,5.49C8.54,11.92,7,13.05,7,14.87A2.73,2.73,0,0,0,9.29,17.6l-.38,1a3.79,3.79,0,0,1-3-3.76c0-2.13,1.51-3.67,3.92-3.95.22-3.54,2.42-5.55,6-5.55s5.74,1.91,6,5.08c2.64.16,4.24,1.72,4.24,4.17a3.85,3.85,0,0,1-3,4l-.35-1a3,3,0,0,0,2.26-3C25,12.58,23.5,11.48,20.77,11.48ZM8.19,19.92l1.1.22-1,4.52-1.1-.22Zm4.86-5.05a.86.86,0,0,1-1,1,.87.87,0,0,1-1-1,.86.86,0,0,1,1-1A.85.85,0,0,1,13.05,14.87Zm0,4.58a.86.86,0,0,1-1,1,.87.87,0,0,1-1-1,.86.86,0,0,1,1-1A.85.85,0,0,1,13.05,19.45Zm-.41,3.79,1.1.22-.69,3.17L12,26.41ZM17,13.18a.86.86,0,0,1-1,1,.88.88,0,0,1-1-1,.86.86,0,0,1,1-1A.85.85,0,0,1,17,13.18Zm0,4a.86.86,0,0,1-1,1,.87.87,0,0,1-1-1,.86.86,0,0,1,1-1A.85.85,0,0,1,17,17.16Zm0,4a.86.86,0,0,1-1,1,.87.87,0,0,1-1-1,.86.86,0,0,1,1-1A.85.85,0,0,1,17,21.14Zm1.29,2.1,1.1.22-.69,3.17-1.1-.22Zm2.63-8.37a.86.86,0,0,1-1,1,.87.87,0,0,1-1-1,.86.86,0,0,1,1-1A.85.85,0,0,1,20.89,14.87Zm0,4.58a.86.86,0,0,1-1,1,.87.87,0,0,1-1-1,.86.86,0,0,1,1-1A.85.85,0,0,1,20.89,19.45Zm1.85.47,1.1.22-1,4.52-1.1-.22Z"/></svg>