<?xml version="1.0" encoding="UTF-8"?><svg xmlns="http://www.w3.org/2000/svg" width="24" height="24" viewBox="0 0 24 24"><defs><style>.c{fill:none;}</style></defs><g id="a"><rect class="c" width="24" height="24"/></g><g id="b"><path d="M9.35,17.05l-2.88-.97-1.61,4.55,2.4,.86c-.08,.18-.12,.38-.12,.58s.04,.4,.12,.58l-2.61-.92c-.78-.27-1.12-.75-.86-1.42l1.64-4.63c.24-.67,.59-.91,1.29-.67l2.95,1,1.16-3.53,.99,.32-2.47,7.67c-.36-.13-.76-.13-1.12,0l1.12-3.42Zm2.8-9.04c-.18-.02-.36,.02-.51,.13-.15,.1-.25,.26-.3,.43l-2.07,5.14-1.12-.43,2.12-5.04c.12-.4,.36-.74,.7-.98,.34-.24,.75-.35,1.16-.32h4.31c.18,.02,.36-.03,.51-.13,.15-.1,.25-.26,.3-.43l1.93-5.04,1.12,.3-1.99,5.11c-.11,.4-.36,.74-.69,.98-.34,.24-.75,.35-1.16,.31l-4.31-.02Zm-3.96,14.01c0-.13,.04-.25,.11-.35,.07-.1,.17-.18,.29-.23,.12-.04,.24-.05,.37-.03,.12,.03,.23,.09,.32,.18,.09,.09,.14,.21,.17,.33,.02,.12,0,.25-.04,.37-.05,.12-.13,.21-.24,.28-.11,.07-.23,.1-.36,.1-.16-.01-.31-.09-.42-.21-.11-.12-.17-.27-.17-.43h-.02ZM12.55,4.08c0-.5,.2-.98,.55-1.33s.83-.55,1.33-.55c.5,0,.98,.2,1.33,.55,.35,.35,.55,.83,.55,1.33s-.2,.98-.55,1.33c-.35,.35-.83,.55-1.33,.55-.49,0-.96-.21-1.31-.55-.35-.35-.54-.82-.55-1.31l-.02-.02Zm.18,10.65h1.12v7.85h-1.12v-7.85Zm2.53-10.65c0-.23-.09-.44-.25-.61-.16-.16-.38-.25-.61-.26-.11,0-.23,.02-.33,.06-.1,.04-.2,.11-.28,.19-.08,.08-.14,.18-.19,.28-.04,.11-.06,.22-.06,.33,0,.23,.09,.45,.26,.61,.16,.16,.38,.25,.61,.26,.23,0,.44-.09,.61-.24,.16-.16,.26-.37,.27-.6l-.02-.02Zm-.27,10.65h1.12v7.85h-1.12v-7.85Z"/></g></svg>