<svg id="Icones" xmlns="http://www.w3.org/2000/svg" width="32" height="32" viewBox="0 0 32 32"><defs><style>.cls-1{fill:none;}</style></defs><rect class="cls-1" width="32" height="32"/><path d="M8.38,15.61a1.33,1.33,0,0,1-.91-1.35,1.28,1.28,0,0,1,1.41-1.41,1.27,1.27,0,0,1,1.41,1.41,1.26,1.26,0,0,1-.91,1.35v2.16H11.7v1H8.38Zm8.44,6-.51.94-2-1.1a2.79,2.79,0,0,1-1.54-2.88v-2c0-3,.16-3.36,2.57-6.18,2.57-3.1,4-3.86,6.93-3.86h1.63V7.58H22.3c-2.6,0-3.7.63-6,3.39s-2.41,3.1-2.41,5.58v2a1.9,1.9,0,0,0,1.07,2Zm4.39-2.82a3.1,3.1,0,0,1,3.32,3.35,3.11,3.11,0,0,1-3.32,3.36,3.11,3.11,0,0,1-3.33-3.36A3.1,3.1,0,0,1,21.21,18.78Zm0,1.06A2.13,2.13,0,0,0,19,22.13a2.15,2.15,0,0,0,2.26,2.29,2.13,2.13,0,0,0,2.25-2.29A2.11,2.11,0,0,0,21.21,19.84Z"/></svg>