<svg id="Icones" xmlns="http://www.w3.org/2000/svg" width="32" height="32" viewBox="0 0 32 32"><defs><style>.cls-1{fill:none;}</style></defs><rect class="cls-1" width="32" height="32"/><path d="M23.64,10.36V26H8V5.91h11.2A31.15,31.15,0,0,1,23.64,10.36Zm-1.1,14.58V11.43H18.09V7h-9v18ZM11.6,19.33V14.84h1.54a1.33,1.33,0,0,1,1.41,1.45,1.28,1.28,0,0,1-1.41,1.44h-.66v1.6Zm.88-3.7V17h.66c.34,0,.53-.26.53-.66s-.16-.66-.53-.66Zm5.17-.91v4.61H16.9v-.25a1.39,1.39,0,0,1-.85.31c-.78,0-1.16-.56-1.16-1.66S15.33,16,16.4,16a1.75,1.75,0,0,1,.44.07V14.72Zm-.81,3.64V16.79a2.32,2.32,0,0,0-.44-.06c-.5,0-.69.25-.69,1s.12.88.53.88A.93.93,0,0,0,16.84,18.36Zm1.88,1v-2.6h-.57V16h.57v-.22c0-.75.34-1.12,1-1.12a2.13,2.13,0,0,1,.63.09v.69a1.28,1.28,0,0,0-.44-.09c-.28,0-.38.09-.38.47V16h.82v.73h-.82v2.6Zm3.54-8.94a28.46,28.46,0,0,0-3.1-3v3Z"/></svg>