<svg id="Icones" xmlns="http://www.w3.org/2000/svg" width="32" height="32" viewBox="0 0 32 32"><defs><style>.cls-1{fill:none;}</style></defs><rect class="cls-1" width="32" height="32"/><path d="M6.5,11.37c0-2.19,1.28-3.92,3.67-4.89l4.64,4.64-2.57,2.51,6.11,6.15,2.51-2.57,4.64,4.64c-1,2.38-2.69,3.67-4.89,3.67-2.63,0-5.27-1.54-8.94-5.21S6.5,14,6.5,11.37ZM20.61,24.42a3.87,3.87,0,0,0,3.58-2.29l-3.33-3.32-2.51,2.54-7.68-7.72,2.54-2.51L9.88,7.8A3.87,3.87,0,0,0,7.6,11.37c0,2.26,1.5,4.8,4.89,8.19S18.35,24.42,20.61,24.42Z"/></svg>