<?xml version="1.0" encoding="UTF-8"?><svg xmlns="http://www.w3.org/2000/svg" width="24" height="24" viewBox="0 0 24 24"><defs><style>.c{fill:none;}</style></defs><g id="a"><rect class="c" width="24" height="24"/></g><g id="b"><path d="M3.35,7.86c0-2.2,1.3-3.62,3.45-4.49l4.25,4.27-2.3,2.2,5.37,5.37,2.23-2.32,4.3,4.3c-.88,2.17-2.46,3.48-4.52,3.45-2.36,0-4.81-1.41-8.09-4.71-3.28-3.3-4.69-5.71-4.69-8.06Zm12.86,11.62c1.27,0,2.36-.79,3.06-2.09l-2.89-2.89-2.29,2.32-6.96-6.99,2.32-2.2-2.89-2.89c-1.3,.68-2.09,1.73-2.09,3,0,2.04,1.33,4.3,4.38,7.35,3.05,3.05,5.35,4.38,7.35,4.38Z"/></g></svg>