<svg id="Icones" xmlns="http://www.w3.org/2000/svg" width="32" height="32" viewBox="0 0 32 32"><defs><style>.cls-1{fill:none;}</style></defs><rect class="cls-1" width="32" height="32"/><path d="M4.64,8.16H27V23.78H4.64ZM25.93,22.71V9.23H5.74V22.71ZM10.25,14.84A2.08,2.08,0,0,1,8,12.62a2.07,2.07,0,0,1,2.22-2.23,2.06,2.06,0,0,1,2.23,2.23A2.07,2.07,0,0,1,10.25,14.84Zm0-3.45A1.1,1.1,0,0,0,9,12.62a1.11,1.11,0,0,0,1.22,1.22,1.09,1.09,0,0,0,1.22-1.22A1.08,1.08,0,0,0,10.25,11.39Zm12.8,10.16c-.41-.87-.63-1.37-2.17-4.35-1,2-1.66,3.23-2.19,4.35h-1c-1-2.16-1.66-3.57-3.2-6.61-1.69,3.26-2.5,5-3.19,6.61H10.1c.87-2,1.94-4.17,3.82-7.84H15c1.47,2.89,2.19,4.33,3.2,6.5.59-1.16,1.28-2.54,2.13-4.24h1.1c1.88,3.7,2,3.92,2.79,5.58Z"/></svg>