<svg id="Icones" xmlns="http://www.w3.org/2000/svg" width="32" height="32" viewBox="0 0 32 32"><defs><style>.cls-1{fill:none;}</style></defs><rect class="cls-1" width="32" height="32"/><path d="M3.48,17.1c0,.66.28,1,.88,1L6,18.23v1.1l-1.63-.1a1.87,1.87,0,0,1-2-2.13V13.75H12.45V10.39H13.8a7.7,7.7,0,0,1,4.73,1.22l3.17,2,3.89.59a2.28,2.28,0,0,1,2.13,1.45,5.52,5.52,0,0,1,.44,2c0,1-.57,1.53-1.66,1.69v-1.1c.43-.09.59-.25.59-.56a4.83,4.83,0,0,0-.28-1.45,1.34,1.34,0,0,0-1.35-1l-4.3-.63-3.16-2a6.77,6.77,0,0,0-4.2-1.13h-.26v3.35H3.48Zm5.61,4.42a2.09,2.09,0,0,1-2.23-2.19,2.12,2.12,0,0,1,2.23-2.2,2.14,2.14,0,0,1,2,1.13H21.42a2.25,2.25,0,0,1,4.2,1.07,2.09,2.09,0,0,1-2.23,2.19,2.08,2.08,0,0,1-2.23-2.19H11.32A2.08,2.08,0,0,1,9.09,21.52Zm0-3.35A1.11,1.11,0,0,0,7.9,19.33a1.1,1.1,0,0,0,1.19,1.16,1.08,1.08,0,0,0,1.19-1.16A1.1,1.1,0,0,0,9.09,18.17Zm14.3,2.32a1.1,1.1,0,0,0,1.19-1.16,1.11,1.11,0,0,0-1.19-1.16,1.1,1.1,0,0,0-1.19,1.16A1.08,1.08,0,0,0,23.39,20.49Z"/></svg>