<?xml version="1.0" encoding="UTF-8"?><svg xmlns="http://www.w3.org/2000/svg" width="24" height="24" viewBox="0 0 24 24"><defs><style>.c{fill:none;}</style></defs><g id="a"><rect class="c" width="24" height="24"/></g><g id="b"><path d="M1.2,4.2H22.8v15.6H1.2V4.2Zm20.4,14.46V5.35H2.38v13.31H21.6ZM6.24,11.14c-.6,0-1.17-.24-1.6-.66-.42-.42-.66-1-.66-1.6s.24-1.18,.66-1.6c.43-.42,1-.66,1.6-.66s1.18,.24,1.6,.66c.43,.42,.66,1,.66,1.6s-.24,1.18-.66,1.6c-.42,.42-1,.66-1.6,.66h0Zm0-3.37c-.15-.02-.31,0-.45,.05-.15,.05-.28,.13-.39,.24-.11,.11-.19,.24-.24,.39-.05,.15-.07,.3-.05,.45-.02,.15,0,.31,.05,.45,.05,.14,.13,.28,.24,.38,.11,.11,.24,.19,.38,.24,.14,.05,.3,.07,.45,.05,.15,.02,.31,0,.45-.05,.15-.05,.28-.13,.39-.24,.11-.11,.19-.24,.24-.39,.05-.15,.06-.3,.04-.45,.03-.15,.02-.31-.03-.46-.05-.15-.13-.29-.24-.4-.11-.11-.24-.2-.39-.25-.15-.05-.31-.06-.46-.04v.02Zm12.4,8.44c-.37-.83-.6-1.27-2.12-4.27h.72c-1.04,1.99-1.64,3.19-2.16,4.29h-1.39c-.92-2.05-1.55-3.37-3.08-6.37h.74c-1.64,3.2-2.4,4.8-3.08,6.37h-1.33c.8-1.8,1.8-3.83,3.52-7.2h1.01c1.44,2.82,2.1,4.15,3.14,6.39h-.4c.6-1.2,1.27-2.56,2.16-4.32h1.01c1.73,3.4,1.8,3.6,2.56,5.13l-1.31-.02Z"/></g></svg>