<?xml version="1.0" encoding="UTF-8"?><svg xmlns="http://www.w3.org/2000/svg" width="24" height="24" viewBox="0 0 24 24"><defs><style>.c{fill:none;}</style></defs><g id="a"><rect class="c" width="24" height="24"/></g><g id="b"><path d="M.67,5.79H21.04v14.71H.67V5.79Zm19.24,13.58V6.92H1.79v12.45H19.91ZM5.42,12.33c-.57,0-1.11-.22-1.51-.62-.4-.4-.62-.94-.62-1.51s.22-1.11,.62-1.51c.4-.4,.94-.62,1.51-.62s1.11,.22,1.51,.62c.4,.4,.62,.94,.62,1.51s-.23,1.11-.62,1.51c-.4,.4-.94,.62-1.51,.62h0ZM23.33,3.5v14.71h-1.13V4.63H4.09v-1.13H23.33ZM5.42,9.16c-.14-.02-.29,0-.42,.04s-.26,.12-.36,.22c-.1,.1-.18,.22-.23,.36-.05,.14-.06,.28-.05,.42-.02,.14,0,.29,.05,.42,.05,.14,.12,.26,.23,.36,.1,.1,.22,.18,.36,.23,.14,.05,.28,.06,.42,.05,.14,.02,.29,0,.43-.04,.14-.05,.26-.12,.36-.23,.1-.1,.18-.23,.23-.36,.05-.14,.06-.28,.04-.43,.02-.14,0-.29-.04-.43-.05-.14-.12-.26-.23-.36-.1-.1-.23-.18-.36-.22-.14-.05-.28-.06-.43-.04h0Zm11.73,7.96c-.35-.79-.57-1.22-2.01-4.05h.68c-.98,1.87-1.55,3.02-2.04,4.05h-1.3c-.87-1.92-1.47-3.17-2.91-6h.71c-1.55,3.01-2.26,4.53-2.91,6h-1.27c.76-1.7,1.7-3.61,3.32-6.79h.94c1.36,2.67,1.98,3.92,2.96,6.03h-.38c.57-1.13,1.19-2.42,2.04-4.07h.95c1.63,3.2,1.7,3.4,2.42,4.83h-1.19Z"/></g></svg>