<?xml version="1.0" encoding="UTF-8"?><svg xmlns="http://www.w3.org/2000/svg" width="24" height="24" viewBox="0 0 24 24"><defs><style>.c{fill:none;}</style></defs><g id="a"><rect class="c" width="24" height="24"/></g><g id="b"><path d="M18.27,9.7c0,3.41-1.97,6.95-5.76,10.85h-1.06c-3.77-3.89-5.73-7.44-5.73-10.85,0-3.85,2.48-6.25,6.25-6.25s6.29,2.41,6.29,6.25Zm-6.25,9.92c3.53-4.08,5.02-7.06,5.02-9.92s-1.91-5.11-5.04-5.11-5.04,2.18-5.04,5.11,1.47,5.84,5.04,9.93h.02Zm-.05-12.71c.38-.02,.75,.05,1.1,.19,.35,.14,.67,.35,.94,.61,.27,.27,.47,.59,.61,.94,.14,.35,.2,.73,.18,1.1,.02,.38-.05,.75-.18,1.11-.14,.35-.35,.67-.61,.94-.27,.27-.59,.48-.94,.61-.35,.14-.73,.2-1.11,.18-.38,.01-.75-.05-1.1-.19-.35-.14-.66-.35-.93-.61-.26-.27-.47-.59-.6-.94-.14-.35-.19-.73-.18-1.1-.02-.37,.04-.75,.18-1.1,.14-.35,.34-.67,.6-.94,.26-.27,.58-.48,.93-.61,.35-.14,.72-.2,1.1-.19h0Zm0,1.09c-.23,0-.46,.04-.67,.13-.21,.09-.4,.22-.56,.39-.16,.17-.28,.36-.35,.58-.08,.22-.11,.44-.09,.67-.02,.23,.01,.45,.09,.67,.08,.21,.2,.41,.35,.57,.16,.16,.35,.29,.56,.38,.21,.09,.44,.13,.66,.12,.23,0,.46-.03,.67-.12,.21-.09,.4-.21,.57-.38,.16-.16,.28-.36,.36-.57,.08-.21,.12-.44,.1-.67,.01-.23-.02-.46-.1-.68-.08-.22-.2-.41-.36-.58-.16-.17-.35-.3-.56-.39-.21-.09-.44-.14-.67-.14v.02Z"/></g></svg>