<svg id="Icones" xmlns="http://www.w3.org/2000/svg" width="32" height="32" viewBox="0 0 32 32"><defs><style>.cls-1{fill:none;}</style></defs><rect class="cls-1" width="32" height="32"/><path d="M22.51,13.68c0,3.23-2.16,7.22-6.11,11.23H15.27c-3.95-4-6.12-8-6.12-11.23C9.15,9.57,11.73,7,15.83,7S22.51,9.57,22.51,13.68Zm-1.09,0A5.18,5.18,0,0,0,15.83,8.1a5.19,5.19,0,0,0-5.58,5.58c0,2.92,1.88,6.37,5.58,10.2C19.53,20.05,21.42,16.6,21.42,13.68ZM15.83,11a2.53,2.53,0,0,1,2.7,2.73,2.52,2.52,0,0,1-2.7,2.73,2.52,2.52,0,0,1-2.69-2.73A2.53,2.53,0,0,1,15.83,11Zm0,1.07a1.56,1.56,0,0,0-1.63,1.66,1.56,1.56,0,0,0,1.63,1.67,1.54,1.54,0,0,0,1.63-1.67A1.54,1.54,0,0,0,15.83,12Z"/></svg>