<?xml version="1.0" encoding="UTF-8"?><svg xmlns="http://www.w3.org/2000/svg" width="24" height="24" viewBox="0 0 24 24"><defs><style>.c{fill:none;}</style></defs><g id="a"><rect class="c" width="24" height="24"/></g><g id="b"><path d="M10.78,2.4v1.13H2.89v-1.13h7.89ZM5.71,21.57l-1.65-1.69v-2.27l1.65-1.69h.6v-6.73H2.93V4.68h7.89v4.51h-3.38v6.76h.6l.41,.43,4.68-4.68-1.2-1.19v-2.41l2-2.01,5.55,5.57-3.2,3.2-2.36-2.41-4.65,4.71,.43,.43v2.3l-1.69,1.69-2.3-.03Zm-1.69-15.83v2.36h5.64v-2.34l-5.64-.02Zm3.49,14.74l1.05-1.03v-1.38l-1.03-1.03h-1.35l-1.03,1.03v1.38l1.03,1.03h1.32Zm5.49-11.88v1.46l3.25,3.28,1.69-1.69-4.01-4-.93,.96Zm8.11,1.46l-.79,.79-5.57-5.55,.79-.78,5.58,5.55Z"/></g></svg>