<svg id="Icones" xmlns="http://www.w3.org/2000/svg" width="32" height="32" viewBox="0 0 32 32"><defs><style>.cls-1{fill:none;}</style></defs><rect class="cls-1" width="32" height="32"/><path d="M24.83,16c0,5.49-3.51,9-9,9s-9-3.48-9-9,3.52-9,9-9S24.83,10.49,24.83,16Zm-13.48-.53c0-3,1-6.12,2.35-7.21-3.51.75-5.55,3.26-5.8,7.21Zm2.35,8.28c-1.35-1.1-2.35-4.2-2.35-7.21H7.9C8.15,20.46,10.19,23,13.7,23.72Zm1.6-8.28V8.07c-1.57.69-2.76,3.79-2.85,7.37Zm0,8.44V16.51H12.45C12.54,20.08,13.73,23.19,15.3,23.88ZM16.37,8.07v7.37h2.85C19.13,11.86,17.94,8.76,16.37,8.07Zm0,8.44v7.37c1.57-.69,2.76-3.8,2.85-7.37ZM18,8.23c1.34,1.09,2.35,4.2,2.35,7.21h3.45C23.52,11.49,21.48,9,18,8.23Zm2.35,8.28c0,3-1,6.11-2.35,7.21,3.51-.75,5.55-3.26,5.8-7.21Z"/></svg>