<?xml version="1.0" encoding="UTF-8"?><svg xmlns="http://www.w3.org/2000/svg" width="24" height="24" viewBox="0 0 24 24"><defs><style>.c{fill:none;}</style></defs><g id="a"><rect class="c" width="24" height="24"/></g><g id="b"><path d="M12,22.67c-6.1,0-10.17-4.58-10.17-10.65S5.9,1.33,12,1.33s10.17,4.61,10.17,10.68-4.07,10.65-10.17,10.65ZM7.48,11.45c0-1.49,.15-2.98,.43-4.44-1.36,.11-2.68,.24-4.01,.46-.59,1.25-.92,2.61-.98,3.99H7.48Zm.45,5.57c-.28-1.46-.43-2.93-.43-4.42H2.95c.06,1.37,.39,2.71,.95,3.95,1.33,.19,2.68,.33,4.04,.46Zm1.79,4.37c-.75-.96-1.28-2.09-1.55-3.28-1.22-.08-2.41-.19-3.63-.35,1.2,1.83,3.05,3.12,5.18,3.6v.03ZM4.57,6.29c1.19-.16,2.38-.27,3.6-.36,.25-1.19,.77-2.3,1.52-3.25-2.11,.5-3.94,1.79-5.12,3.61h0Zm4.52,.68c-.29,1.49-.45,3-.46,4.52h6.78c-.02-1.52-.17-3.03-.46-4.52-.98-.06-1.95-.08-2.93-.08s-1.97,.02-2.94,.07h.02Zm5.84,10.09c.29-1.47,.44-2.97,.46-4.47h-6.78c.02,1.5,.18,3,.46,4.47,.98,.05,1.95,.08,2.93,.08s1.95-.03,2.93-.08ZM11.49,2.41c-.92,.36-1.65,1.65-2.14,3.44,.86,0,1.76-.05,2.65-.05s1.79,0,2.66,.05c-.49-1.79-1.22-3.09-2.15-3.44h-1.03Zm-2.15,15.74c.49,1.84,1.27,3.17,2.22,3.47h.84c.98-.3,1.76-1.63,2.26-3.47-.87,0-1.76,.05-2.66,.05s-1.8-.02-2.66-.05Zm4.93,3.2c2.14-.48,4-1.78,5.18-3.63-1.19,.16-2.41,.27-3.63,.35-.26,1.2-.79,2.33-1.55,3.29h0Zm5.18-15.07c-1.19-1.82-3.03-3.11-5.14-3.61,.74,.96,1.26,2.07,1.52,3.25,1.21,.08,2.4,.19,3.62,.36Zm1.6,5.18c-.07-1.38-.39-2.73-.95-3.99-1.36-.21-2.68-.35-4.04-.46,.28,1.46,.43,2.95,.43,4.44h4.56Zm-4.99,5.55c1.36-.11,2.71-.24,4.04-.46,.56-1.25,.89-2.59,.95-3.95h-4.56c0,1.48-.15,2.96-.43,4.42h0Z"/></g></svg>