<?xml version="1.0" encoding="UTF-8"?><svg xmlns="http://www.w3.org/2000/svg" width="24" height="24" viewBox="0 0 24 24"><defs><style>.c{fill:none;}</style></defs><g id="a"><rect class="c" width="24" height="24"/></g><g id="b"><path d="M12,22.67c-6.1,0-10.17-4.58-10.17-10.66S5.9,1.33,12,1.33s10.17,4.61,10.17,10.68-4.07,10.66-10.17,10.66Zm-.56-16.89h.56c.9,0,1.79,.03,2.66,.06-.49-1.79-1.22-3.09-2.15-3.45h-1c-.71,.38-1.26,1.01-1.55,1.76l-.97-.38c.19-.41,.43-.79,.73-1.13-2.13,.5-3.98,1.81-5.15,3.65,.38-.06,.79-.11,1.19-.14v1.08c-.62,.05-1.25,.14-1.84,.21-.59,1.26-.92,2.62-.98,4.01H7.5c0-.65,.03-1.24,.08-1.84h1.13c-.05,.62-.08,1.22-.11,1.84h6.78c-.01-1.52-.17-3.03-.46-4.52-.97-.06-1.95-.09-2.93-.09h-.56v-1.08Zm-3.5,11.25c-.28-1.46-.43-2.94-.44-4.42H2.95c.06,1.37,.39,2.71,.95,3.95,1.33,.2,2.68,.33,4.04,.47Zm1.79,4.37c-.75-.97-1.28-2.09-1.55-3.28-1.22-.08-2.41-.19-3.63-.36,1.2,1.83,3.05,3.12,5.18,3.61v.03ZM6.9,6.77c0-.23,.03-.45,.12-.66,.08-.21,.21-.4,.36-.56,.16-.16,.35-.29,.55-.38,.21-.09,.43-.13,.66-.13,.46,0,.9,.18,1.23,.51,.33,.33,.51,.77,.51,1.23s-.18,.9-.51,1.23c-.33,.33-.77,.51-1.23,.51-.23,0-.45-.05-.66-.14-.21-.09-.4-.22-.56-.39-.16-.16-.28-.36-.36-.57s-.12-.44-.11-.67v.03Zm8.03,10.25c.29-1.47,.44-2.97,.46-4.47h-6.78c.02,1.5,.17,3,.46,4.47,.98,.06,1.95,.08,2.93,.08s1.95,0,2.93-.08Zm-5.59,1.13c.49,1.85,1.27,3.17,2.22,3.47h.84c.98-.3,1.76-1.63,2.26-3.47-.87,.03-1.76,.06-2.66,.06s-1.8-.02-2.66-.06h0Zm4.93,3.2c2.14-.48,4-1.79,5.18-3.64-1.19,.16-2.41,.27-3.63,.36-.26,1.2-.79,2.32-1.55,3.29h0Zm5.18-15.07c-1.19-1.82-3.03-3.12-5.15-3.61,.74,.96,1.26,2.07,1.52,3.25,1.22,.08,2.41,.19,3.63,.36Zm1.6,5.17c-.07-1.37-.39-2.71-.95-3.95-1.36-.22-2.69-.36-4.04-.46,.28,1.47,.43,2.95,.43,4.45l4.56-.03Zm-4.99,5.56c1.36-.11,2.71-.24,4.04-.46,.56-1.25,.88-2.59,.95-3.95h-4.56c0,1.48-.15,2.96-.43,4.42h0Z"/></g></svg>