<svg id="Icones" xmlns="http://www.w3.org/2000/svg" width="32" height="32" viewBox="0 0 32 32"><defs><style>.cls-1{fill:none;}</style></defs><rect class="cls-1" width="32" height="32"/><path d="M22.55,4.78V6.44H25.9V7.51H22.55V9.89H25.9V11H22.55v1.66H19.19c-2.6,0-4.3-1.29-4.48-3.39H10.22c-2,0-3.35,1.1-3.35,2.76,0,1.47,1,2.41,3.26,3l1.78.47c2.8.72,4,1.85,4,3.83S14.39,22.68,12,22.68H10.25V21.55H12.2c1.56,0,2.54-.84,2.54-2.25s-.91-2.2-2.86-2.67l-1.78-.44c-2.92-.72-4.33-2.07-4.33-4.2s1.85-3.86,4.45-3.86h4.49c.18-2.07,1.91-3.35,4.48-3.35ZM15.8,8.7c0,1.82,1.23,2.85,3.39,2.85h2.26V5.84H19.19C17,5.84,15.8,6.88,15.8,8.7Zm5.05,18.47A3.57,3.57,0,0,1,17,23.31c0-1.69,1-3.92,3.26-7.34h1.13c2.38,3.73,3.32,5.8,3.32,7.34A3.61,3.61,0,0,1,20.85,27.17Zm0-10c-2,3.23-2.73,4.8-2.73,6.18a2.54,2.54,0,0,0,2.73,2.79,2.55,2.55,0,0,0,2.79-2.79C23.64,22,22.89,20.36,20.85,17.13Zm1.7,6.18A1.54,1.54,0,0,1,20.85,25a1.51,1.51,0,0,1-1.63-1.73c0-1,.41-2.13,1.63-4.2C22.07,21.18,22.55,22.31,22.55,23.31Z"/></svg>