<svg id="Icones" xmlns="http://www.w3.org/2000/svg" width="32" height="32" viewBox="0 0 32 32"><defs><style>.cls-1{fill:none;}</style></defs><rect class="cls-1" width="32" height="32"/><path d="M6.83,14.84c0,3.83,1.76,6.81,4.83,8.16l.16,1.22C8,22.84,5.74,19.42,5.74,14.84c0-6.11,3.92-10,10.09-10s10.1,3.92,10.1,10c0,4.58-2.22,8-6.08,9.38L20,23c3.08-1.35,4.83-4.33,4.83-8.16,0-5.48-3.51-9-9-9S6.83,9.36,6.83,14.84Zm15.68,0A6.59,6.59,0,0,1,20.38,20a4,4,0,0,0-.22-1.38,5.59,5.59,0,0,0,1.26-3.8,5.18,5.18,0,0,0-5.59-5.58,5.19,5.19,0,0,0-5.58,5.58,5.59,5.59,0,0,0,1.26,3.8A4,4,0,0,0,11.29,20a6.6,6.6,0,0,1-2.14-5.18c0-4.1,2.58-6.64,6.68-6.64S22.51,10.74,22.51,14.84ZM18.25,27.17H13.42l-.78-5.36a12.6,12.6,0,0,1-.19-1.67c0-1.88,1.25-3,3.38-3s3.39,1.13,3.39,3A9.92,9.92,0,0,1,19,21.81Zm-.31-5.71a10,10,0,0,0,.12-1.22,2,2,0,0,0-2.23-2,2,2,0,0,0-2.22,2,8.64,8.64,0,0,0,.12,1.22l.69,4.61h2.83Zm-2.11-5.52a2.05,2.05,0,0,1-2.19-2.22,2.05,2.05,0,0,1,2.19-2.23A2.06,2.06,0,0,1,18,13.72,2.05,2.05,0,0,1,15.83,15.94Zm0-3.42a1.05,1.05,0,0,0-1.12,1.2,1.07,1.07,0,0,0,1.12,1.19A1,1,0,0,0,17,13.72,1,1,0,0,0,15.83,12.52Z"/></svg>