<?xml version="1.0" encoding="UTF-8"?><svg xmlns="http://www.w3.org/2000/svg" width="24" height="24" viewBox="0 0 24 24"><defs><style>.c{fill:none;}</style></defs><g id="a"><rect class="c" width="24" height="24"/></g><g id="b"><path d="M4.27,10.97c0,3.3,1.48,5.89,4.07,7.04l.14,1.19c-3.38-1.21-5.33-4.21-5.33-8.22C3.14,5.66,6.58,2.25,12,2.25s8.86,3.41,8.86,8.72c0,4.01-1.95,7.01-5.34,8.22l.14-1.19c2.59-1.15,4.07-3.74,4.07-7.04,0-4.65-3.02-7.59-7.73-7.59s-7.73,2.94-7.73,7.59Zm13.7,0c.04,.86-.12,1.71-.46,2.5-.34,.79-.86,1.48-1.52,2.04,0-.44-.06-.88-.2-1.31,.74-.92,1.11-2.07,1.05-3.24,0-2.96-1.85-4.78-4.84-4.78s-4.84,1.85-4.84,4.82c-.05,1.16,.32,2.3,1.05,3.2-.13,.42-.2,.86-.2,1.29-.66-.55-1.18-1.25-1.52-2.04-.34-.79-.5-1.64-.46-2.5,0-3.63,2.31-5.93,5.97-5.93s5.97,2.29,5.97,5.94Zm-3.85,10.78h-4.24l-.69-4.68c-.09-.48-.14-.97-.17-1.46,0-1.65,1.1-2.64,2.97-2.64s3,1,3,2.65c-.02,.49-.09,.97-.19,1.45l-.69,4.68Zm-2.12-9.74c-.27,.02-.54-.02-.8-.11-.26-.1-.49-.24-.68-.44-.19-.19-.34-.43-.43-.68-.09-.26-.13-.53-.1-.8-.02-.27,0-.54,.1-.8,.09-.26,.24-.49,.43-.68,.19-.19,.42-.34,.68-.44,.25-.1,.53-.14,.8-.11,.27-.02,.54,.02,.8,.11,.26,.1,.49,.25,.68,.44,.19,.19,.34,.43,.43,.68,.09,.26,.13,.53,.1,.8,.03,.27,0,.55-.1,.8-.09,.26-.24,.49-.43,.69-.19,.19-.42,.34-.68,.44-.26,.1-.53,.13-.8,.11h0Zm-1.15,8.59h2.29l.57-3.68c.08-.35,.12-.7,.13-1.05,.02-.24-.01-.49-.1-.72-.09-.23-.22-.44-.4-.61-.18-.17-.39-.3-.62-.38s-.48-.11-.72-.08c-.24-.03-.49,0-.72,.08-.23,.08-.45,.21-.62,.38-.18,.17-.31,.38-.4,.61-.09,.23-.12,.48-.1,.72,.02,.36,.07,.72,.14,1.07l.56,3.67Zm1.15-11.63c-.13-.01-.26,0-.38,.05-.12,.05-.23,.12-.32,.22-.09,.1-.16,.21-.2,.33-.04,.12-.05,.26-.03,.39-.02,.13,0,.26,.04,.38,.04,.12,.11,.24,.2,.33,.09,.09,.2,.17,.32,.22,.12,.05,.25,.07,.38,.06,.61,0,.93-.33,.93-.99s-.33-.97-.93-.97v-.02Z"/></g></svg>