<?xml version="1.0" encoding="UTF-8"?><svg xmlns="http://www.w3.org/2000/svg" width="24" height="24" viewBox="0 0 24 24"><defs><style>.c{fill:none;}</style></defs><g id="a"><rect class="c" width="24" height="24"/></g><g id="b"><path d="M2.58,4.01c0-1.36,.65-2.01,2-2.01h14.86c1.36,0,2.01,.65,2.01,2.01v15.99c0,1.35-.65,2-2.01,2H4.55c-1.35,0-2-.65-2-2l.02-15.99Zm2.17,16.86h14.52c.73,0,1.02-.31,1.02-1.04V4.17c0-.73-.29-1.04-1.02-1.04H4.75c-.74,0-1.02,.31-1.02,1.04v15.66c0,.74,.28,1.04,1.02,1.04Zm7.52-8.24h-2.6v4.66h-1.18V6.7h3.77c2.12,0,3.31,1.05,3.31,3s-1.19,2.93-3.31,2.93h0Zm-.11-4.74h-2.48v3.59h2.48c1.44,0,2.23-.59,2.23-1.76,0-1.27-.76-1.83-2.23-1.83h0Z"/></g></svg>