<?xml version="1.0" encoding="UTF-8"?><svg xmlns="http://www.w3.org/2000/svg" width="24" height="24" viewBox="0 0 24 24"><defs><style>.c{fill:none;}</style></defs><g id="a"><rect class="c" width="24" height="24"/></g><g id="b"><path d="M1.98,4.01c0-1.36,.65-2.01,2.01-2.01H20.01c1.35,0,2.01,.65,2.01,2.01v15.99c0,1.35-.65,2-2.01,2H3.99c-1.35,0-2.01-.65-2.01-2V4.01Zm2.18,16.86h15.68c.74,0,1.02-.31,1.02-1.04V4.17c0-.73-.28-1.04-1.02-1.04H4.16c-.74,0-1.02,.31-1.02,1.04v15.66c0,.74,.28,1.04,1.02,1.04Zm7.6-6.16l-2.46-3.87c-1.18,.59-2.48,.59-2.94-.22l-2.05-3.4,.9-.59,2.04,3.36c.2,.31,.82,.25,1.47-.05l-2.52-3.9,.94-.59,2.51,3.93c.54-.45,.85-1.02,.65-1.33l-2.2-3.22,.93-.59,2.24,3.28c.51,.74-.06,1.98-1.02,2.77l2.2,3.41,2.15-3.36c-.9-.85-1.07-2.23-.17-3.67,1.24-1.95,3.28-2.68,4.41-1.95,1.13,.74,1.33,2.85,.06,4.83-.94,1.44-2.23,1.87-3.37,1.39l-2.42,3.78,2.94,4.6-.93,.59-2.66-4.18-2.65,4.12-.93-.59,2.9-4.54Zm6.16-5.79c1.07-1.64,.9-2.91,.31-3.28-.6-.37-1.81,0-2.85,1.64-.79,1.18-.45,2.04,.22,2.46,.68,.42,1.55,.36,2.32-.82Z"/></g></svg>