<?xml version="1.0" encoding="UTF-8"?><svg xmlns="http://www.w3.org/2000/svg" width="24" height="24" viewBox="0 0 24 24"><defs><style>.c{fill:none;}</style></defs><g id="a"><rect class="c" width="24" height="24"/></g><g id="b"><path d="M2.57,4.01c0-1.36,.65-2.01,2.01-2.01h14.86c1.35,0,2.01,.65,2.01,2.01v15.99c0,1.35-.65,2.01-2.01,2.01H4.57c-1.36,0-2.01-.65-2.01-2.01V4.01Zm2.17,16.86h14.52c.74,0,1.02-.31,1.02-1.05V4.18c0-.74-.28-1.05-1.02-1.05H4.74c-.73,0-1.01,.31-1.01,1.05v15.65c0,.74,.28,1.05,1.01,1.05ZM14.35,12.63h-4.71v4.71h-1.18V6.75h1.18v4.74h4.71V6.72h1.18v10.59h-1.18v-4.68Z"/></g></svg>