<?xml version="1.0" encoding="UTF-8"?><svg xmlns="http://www.w3.org/2000/svg" width="24" height="24" viewBox="0 0 24 24"><defs><style>.c{fill:none;}</style></defs><g id="a"><rect class="c" width="24" height="24"/></g><g id="b"><path d="M8.76,19.58h-1.28l.81-6.79H2.75L5.73,2.72h4.73l-1.74,5.8h5.73l-5.69,11.06Zm.17-2.59l3.7-7.34H7.14l1.74-5.8h-2.27l-2.36,7.83h5.37l-.7,5.31Zm8.4,4.29c-2.42,0-3.92-1.51-3.92-3.92,0-1.45,.83-3.17,3.18-6.57h1.5c2.32,3.4,3.17,5.12,3.17,6.57,0,2.42-1.55,3.92-3.92,3.92Zm0-9.55c-2.25,3.29-2.78,4.45-2.78,5.62,0,1.74,1.03,2.81,2.78,2.81s2.78-1.09,2.78-2.81c0-1.17-.5-2.34-2.78-5.62h0Zm1.62,5.67c.03,.22,0,.44-.07,.65-.07,.21-.19,.4-.35,.55-.16,.15-.34,.27-.55,.35-.21,.07-.43,.1-.65,.07-.22,.02-.44,0-.64-.08-.2-.07-.39-.19-.54-.35-.15-.15-.27-.34-.34-.55-.07-.21-.09-.43-.06-.64,0-.83,.83-2.23,1.58-3.7,.81,1.47,1.62,2.84,1.62,3.7Z"/></g></svg>