<?xml version="1.0" encoding="UTF-8"?><svg xmlns="http://www.w3.org/2000/svg" width="24" height="24" viewBox="0 0 24 24"><defs><style>.c{fill:none;}</style></defs><g id="a"><rect class="c" width="24" height="24"/></g><g id="b"><path d="M13.87,6.02l.32-1.07c3.49,.88,5.64,3.86,5.64,7.59,0,4.47-3.06,7.87-7.83,7.87s-7.83-3.41-7.83-7.87c0-3.73,2.15-6.71,5.64-7.59l.32,1.07c-3.01,.75-4.83,3.3-4.83,6.52,0,3.84,2.61,6.71,6.71,6.71s6.71-2.9,6.71-6.71c-.02-3.22-1.84-5.77-4.85-6.52Zm-2.42-2.42h1.07V12.55h-1.07V3.6Z"/></g></svg>