<?xml version="1.0" encoding="UTF-8"?><svg xmlns="http://www.w3.org/2000/svg" width="24" height="24" viewBox="0 0 24 24"><defs><style>.c{fill:none;}</style></defs><g id="a"><rect class="c" width="24" height="24"/></g><g id="b"><path d="M4.85,13.09c-2.61-.92-3.85-1.84-3.85-3.85,0-2.18,1.61-3.82,4.51-3.82h3.91c.2-2.3,1.92-3.59,4.88-3.59h4.62v1.84h4.07v1.2h-4.07v2.24h4.05v1.2h-4.05v1.79h-4.62c-2.87,0-4.6-1.27-4.88-3.54h-3.91c-2.24,0-3.33,1.03-3.33,2.64,0,1.38,1.12,2.07,2.82,2.65l1.32,.45c2.79,.84,4.22,1.79,4.22,3.88s-1.35,3.54-4.65,3.54H3.36v-1.2h2.47c2.18,0,3.53-.75,3.53-2.36s-1.15-1.98-3.19-2.67l-1.32-.41Zm12.89-4.08V2.96h-3.45c-2.55,0-3.73,.92-3.73,2.93s1.2,3.1,3.73,3.1l3.45,.02Zm-1.23,13.16c-2.5,0-4.05-1.55-4.05-4.05,0-1.5,.86-3.27,3.27-6.78h1.56c2.39,3.51,3.27,5.28,3.27,6.78,0,2.51-1.59,4.06-4.05,4.06h0Zm0-9.86c-2.33,3.39-2.88,4.59-2.88,5.8,0,1.79,1.07,2.9,2.88,2.9s2.87-1.12,2.87-2.9c0-1.2-.52-2.41-2.87-5.8h0Zm1.66,5.86c.03,.22,0,.45-.07,.67-.07,.21-.2,.41-.36,.57-.16,.16-.35,.28-.57,.36-.21,.07-.44,.1-.67,.07-.22,.02-.44,0-.65-.09-.21-.08-.4-.2-.55-.36-.15-.16-.27-.35-.34-.56-.07-.21-.09-.43-.07-.65,0-.86,.86-2.3,1.64-3.82,.81,1.52,1.64,2.91,1.64,3.82h0Z"/></g></svg>