<?xml version="1.0" encoding="UTF-8"?><svg xmlns="http://www.w3.org/2000/svg" width="24" height="24" viewBox="0 0 24 24"><defs><style>.c{fill:none;}</style></defs><g id="a"><rect class="c" width="24" height="24"/></g><g id="b"><path d="M19.62,1.69V17.84h-5.48l5.43,5.91h-1.55l-5.43-5.91v5.91h-1.17v-5.91l-5.43,5.91h-1.55l5.43-5.91H4.38V1.69c0-.19,.03-.38,.1-.56,.07-.18,.18-.34,.32-.47,.14-.13,.3-.24,.48-.31,.18-.07,.37-.1,.56-.09h12.31c.19,0,.38,.02,.56,.09,.18,.07,.34,.17,.48,.31,.14,.14,.25,.3,.32,.47,.07,.18,.11,.37,.1,.56h0Zm-1.17,.5c0-.11,0-.22-.04-.32-.04-.1-.1-.2-.18-.27-.08-.08-.17-.14-.27-.18-.1-.04-.21-.05-.32-.04H6.37c-.11-.01-.22,0-.32,.04-.1,.04-.2,.1-.28,.18-.08,.08-.14,.17-.18,.28-.04,.1-.05,.21-.04,.32v1.58h12.9v-1.58ZM5.55,4.89v11.82h12.9V4.89H5.55Zm3.52,5.41h1.17v4.05h-1.17v-4.05Zm2.35-3.01h1.17v7.04h-1.17V7.29Zm2.35,1.01h1.17v6.05h-1.17v-6.05Z"/></g></svg>