<svg id="Icones" xmlns="http://www.w3.org/2000/svg" width="32" height="32" viewBox="0 0 32 32"><defs><style>.cls-1{fill:none;}</style></defs><rect class="cls-1" width="32" height="32"/><path d="M2.41,17.42c0-1.54.1-1.76,1.63-3.58s2.32-2.32,4-2.32h4a6.48,6.48,0,0,1,4.17,1.29l2.38,1.78L20.1,15a2.77,2.77,0,0,1,2.45,3,3.43,3.43,0,0,1-.63,2L21,19.33a2.23,2.23,0,0,0,.41-1.41c0-1.1-.57-1.7-2-2l-1.54-.38-2.32-1.75A5.32,5.32,0,0,0,12,12.59H8c-1.29,0-1.76.31-3.2,2-1.26,1.54-1.32,1.7-1.32,3v.66a1.28,1.28,0,0,0,.38,1L3.13,20a2.12,2.12,0,0,1-.72-1.73Zm13.46,1.91a2.09,2.09,0,0,1,2.22-2.2,2.09,2.09,0,0,1,2.23,2.2,2.09,2.09,0,0,1-2.23,2.19,2.11,2.11,0,0,1-2-1.13H8.87a2.11,2.11,0,0,1-2,1.13,2.2,2.2,0,1,1,0-4.39,2.08,2.08,0,0,1,2.22,2.2Zm-9-1.16a1.1,1.1,0,0,0-1.2,1.16,1.11,1.11,0,0,0,1.2,1.16,1.1,1.1,0,0,0,1.19-1.16A1.08,1.08,0,0,0,6.9,18.17Zm11.19,0a1.1,1.1,0,0,0-1.19,1.16,1.11,1.11,0,0,0,1.19,1.16,1.1,1.1,0,0,0,1.19-1.16A1.08,1.08,0,0,0,18.09,18.17Zm4.46,2.32h1.09v1.06H22.55ZM27,15.91a2.52,2.52,0,0,1-2.26-2.76,2.6,2.6,0,0,1,2.82-2.79,2.59,2.59,0,0,1,2.8,2.79,2.5,2.5,0,0,1-2.26,2.76v5.64H27ZM24.8,20.49h1.1v1.06H24.8Zm2.79-9.06a1.6,1.6,0,0,0-1.75,1.72,1.6,1.6,0,0,0,1.75,1.72,1.59,1.59,0,0,0,1.73-1.72A1.59,1.59,0,0,0,27.59,11.43Z"/></svg>