<svg id="Icones" xmlns="http://www.w3.org/2000/svg" width="32" height="32" viewBox="0 0 32 32"><defs><style>.cls-1{fill:none;}</style></defs><rect class="cls-1" width="32" height="32"/><path d="M23.67,11a2,2,0,0,1,2.23,2.23v6.68H22.54V18.85H24.8V13.24c0-.81-.31-1.16-1.13-1.16H8c-.81,0-1.13.35-1.13,1.16v5.61H9.12v1.07H5.77V13.24A2,2,0,0,1,8,11ZM21.45,5.34H10.22V9.85H9.12V4.27H22.54V9.85H21.45ZM10.25,15.5H21.42V27.73H10.25ZM20.32,26.66V16.56h-9v10.1Zm-7.81-7.81h6.65v1.07H12.51Zm0,2.23h6.65v1.07H12.51Zm0,2.26h6.65V24.4H12.51Z"/></svg>