<?xml version="1.0" encoding="UTF-8"?><svg xmlns="http://www.w3.org/2000/svg" width="24" height="24" viewBox="0 0 24 24"><defs><style>.c{fill:none;}</style></defs><g id="a"><rect class="c" width="24" height="24"/></g><g id="b"><path d="M20.25,7.54c1.31,0,1.93,.62,1.93,1.93v7.09h-3.39v-1.13h2.26v-5.72c0-.73-.27-1.03-.98-1.03H3.91c-.7,0-.97,.3-.97,1.03v5.74h2.26v1.13H1.82v-7.1c0-1.31,.62-1.93,1.93-1.93H20.25Zm-2.56-4.56H6.33v3.39h-1.13V1.85h13.58V6.37h-1.07V2.98ZM6.35,12.03h11.31v10.12H6.35V12.03Zm10.21,9.06v-7.95H7.44v7.95h9.13Zm-7.99-6.79h6.86v1.13h-6.88l.03-1.13Zm0,2.26h6.86v1.13h-6.88l.03-1.13Zm0,2.26h6.86v1.13h-6.88l.03-1.13Z"/></g></svg>