<svg id="Icones" xmlns="http://www.w3.org/2000/svg" width="32" height="32" viewBox="0 0 32 32"><defs><style>.cls-1{fill:none;}</style></defs><rect class="cls-1" width="32" height="32"/><path d="M7.05,7.63H9.31V8.69H8.14v.57c0,2.29.95,3.6,2.8,3.92a13,13,0,0,1-.54-3.92V5.37H21.66V9.26a14.14,14.14,0,0,1-.5,3.89c1.79-.32,2.7-1.63,2.7-3.89V8.69h-1.1V7.63H25V9.26c0,3-1.6,4.8-4.26,5a4.8,4.8,0,0,1-4.11,2.86v3.92h3.89l1.16,5.58H10.4l1.16-5.58h3.89V17.13a4.8,4.8,0,0,1-4.08-2.86c-2.69-.18-4.32-2-4.32-5Zm9,8.46c2.94,0,4.54-2.38,4.54-6.8V6.43H11.5V9.26C11.5,13.65,13.1,16.09,16,16.09Zm-3.55,6.06-.72,3.41h8.53l-.72-3.41Zm1.32,1.16h4.45v1.06H13.79Z"/></svg>