<?xml version="1.0" encoding="UTF-8"?><svg xmlns="http://www.w3.org/2000/svg" width="24" height="24" viewBox="0 0 24 24"><defs><style>.c{fill:none;}</style></defs><g id="a"><rect class="c" width="24" height="24"/></g><g id="b"><path d="M7.83,19.68h-1.48c-1.36,0-2.01-.65-2.01-2.01v-1.44H1.93v-1.18h2.41v-1.18H1.93v-1.18h2.41v-1.18H1.93v-1.18h2.41v-1.18H1.93v-1.18h2.41v-1.59c0-1.35,.65-2.01,2.01-2.01h1.48V2.04h1.18v2.35h1.18V2.04h1.18v2.35h1.18V2.04h1.18v2.35h1.18V2.04h1.18v2.35h1.47c1.36,0,2.01,.65,2.01,2.01v1.52h2.48v1.18h-2.41v1.18h2.41v1.18h-2.41v1.18h2.41v1.18h-2.41v1.18h2.41v1.18h-2.41v1.44c0,1.36-.65,2.01-2.01,2.01h-1.47v2.35h-1.18v-2.35h-1.18v2.35h-1.18v-2.35h-1.18v2.35h-1.18v-2.35h-1.18v2.35h-1.18l-.06-2.28ZM17.48,5.55H6.53c-.74,0-1.02,.31-1.02,1.05v10.88c0,.74,.28,1.04,1.02,1.04h10.95c.73,0,1.02-.31,1.02-1.04V6.6c0-.74-.29-1.05-1.02-1.05h0Zm-1.33,9.42c.03,.16,.02,.33-.03,.48-.05,.16-.14,.3-.25,.42-.12,.12-.26,.2-.42,.25-.16,.05-.32,.06-.49,.03h-5.94c-.16,.03-.33,.02-.48-.03-.16-.05-.3-.13-.42-.25-.12-.12-.2-.26-.25-.41-.05-.16-.06-.32-.03-.48v-5.88c0-.79,.37-1.18,1.18-1.18h5.96c.8,0,1.18,.39,1.18,1.18l-.02,5.88Zm-1.76-5.94h-4.76c-.43,0-.59,.2-.59,.59v4.75c0,.42,.17,.62,.59,.62h4.76c.43,0,.59-.19,.59-.62v-4.72c0-.39-.16-.62-.59-.62Z"/></g></svg>