<?xml version="1.0" encoding="UTF-8"?><svg xmlns="http://www.w3.org/2000/svg" width="24" height="24" viewBox="0 0 24 24"><defs><style>.c{fill:none;}</style></defs><g id="a"><rect class="c" width="24" height="24"/></g><g id="b"><path d="M12,23.15c-6.37,0-10.62-4.79-10.62-11.14S5.63,.85,12,.85s10.62,4.82,10.62,11.16-4.25,11.14-10.62,11.14Zm0-1.1c5.67,0,9.44-4.31,9.44-10.03S17.64,1.98,12,1.98,2.56,6.29,2.56,12.01s3.81,10.05,9.44,10.05v-.02Zm-3.54-10.51c-1.53,0-2.36-1.18-2.36-3.06s.83-3.03,2.36-3.03,2.36,1.18,2.36,3.06-.83,3.05-2.36,3.05v-.02Zm-1.12-3.05c0,1.36,.34,1.98,1.13,1.98s1.13-.62,1.13-1.98-.34-1.98-1.13-1.98-1.13,.63-1.13,1.98Zm1.1,10.03L14.42,5.54h1.12l-5.95,12.99h-1.15Zm7.08,.11c-1.53,0-2.36-1.18-2.36-3.06s.85-3.05,2.38-3.05,2.36,1.18,2.36,3.06-.83,3.05-2.36,3.05h-.02Zm-1.1-3.06c0,1.36,.34,1.98,1.13,1.98s1.13-.62,1.13-1.98-.34-1.98-1.13-1.98-1.13,.63-1.13,1.98Z"/></g></svg>