<svg id="Icones" xmlns="http://www.w3.org/2000/svg" width="32" height="32" viewBox="0 0 32 32"><defs><style>.cls-1{fill:none;}</style></defs><rect class="cls-1" width="32" height="32"/><path d="M4.64,4.78H27V27.17H4.64ZM25.93,26.1V5.84H5.74V26.1ZM13.58,12.62c0,2.22-1,3.51-2.8,3.51S8,14.84,8,12.62,9,9.1,10.78,9.1,13.58,10.36,13.58,12.62Zm-4.49,0c0,1.6.57,2.44,1.69,2.44s1.7-.84,1.7-2.44-.57-2.45-1.7-2.45S9.09,11,9.09,12.62Zm3.23,10.06L18.15,9.26h1.23L13.54,22.68ZM23.7,19.33c0,2.22-1,3.51-2.79,3.51s-2.79-1.29-2.79-3.51,1-3.51,2.79-3.51S23.7,17.07,23.7,19.33Zm-4.48,0c0,1.6.56,2.44,1.69,2.44s1.7-.84,1.7-2.44-.57-2.45-1.7-2.45S19.22,17.7,19.22,19.33Z"/></svg>