<svg id="Icones" xmlns="http://www.w3.org/2000/svg" width="32" height="32" viewBox="0 0 32 32"><defs><style>.cls-1{fill:none;}</style></defs><rect class="cls-1" width="32" height="32"/><path d="M24.2,27.2H18.81c-1.6,0-2.42-2-2.7-6.72h1.16c.19,3.55.75,5.65,1.54,5.65,1,0,1.53-2.32,1.66-6.81H16c-.75,0-1.09.35-1.09,1.2v2.79c0,2.47-1.2,3.85-3.36,3.85s-3.32-1.38-3.32-3.85V21.58H6V14.21A4.68,4.68,0,0,1,3.66,9.85a4.7,4.7,0,0,1,5.05-5,4.7,4.7,0,0,1,5,5.05,4.73,4.73,0,0,1-2.26,4.36v7.37H9.3v1.73c0,1.91.69,2.79,2.23,2.79s2.26-.82,2.26-2.79V20.48A2,2,0,0,1,16,18.26H20.5V17.13c0-5.87-.6-9-1.69-9s-1.6,3.48-1.6,9H16c0-6.93.87-10.07,2.79-10.07H24.2c2.82,0,4.14,3.2,4.14,10.07S27,27.2,24.2,27.2ZM12.66,9.85a3.68,3.68,0,0,0-3.95-4,3.67,3.67,0,0,0-4,4,3.66,3.66,0,0,0,4,4A3.64,3.64,0,0,0,12.66,9.85Zm-3.95,1a1,1,0,0,1-1-1V9.6l-1-1.13.66-.65,1.1,1h.22a1,1,0,0,1,1,1A1,1,0,0,1,8.71,10.83Zm1.69,9.69V14.65a5.29,5.29,0,0,1-1.69.22,5.34,5.34,0,0,1-1.66-.22v5.87Zm10.1,5.55h3.86c1.79,0,2.79-3.2,2.79-8.94s-1-9-2.79-9H20.5c.82,1.44,1.19,4.33,1.19,9S21.35,24.62,20.5,26.07Zm1.85-14.55a16,16,0,0,0-.47-2.23H23.1a11.73,11.73,0,0,1,.5,2.23Zm1.29,11.19A13.65,13.65,0,0,1,23.1,25H21.88a18.69,18.69,0,0,0,.47-2.26Zm-1-7.84c-.06-1.1-.09-1.63-.15-2.23h1.28c.06.6.1,1.13.16,2.23Zm1.29,4.49c0,1-.1,1.53-.16,2.25H22.48c.06-.69.12-1.25.15-2.25ZM22.66,16H24v2.23H22.66Zm1.85-4.48A13.39,13.39,0,0,0,24,9.29h1.26a18.55,18.55,0,0,1,.56,2.23ZM25.8,22.71A14.58,14.58,0,0,1,25.24,25H24a13.14,13.14,0,0,0,.53-2.26Zm-.94-7.84c0-.81-.1-1.57-.19-2.23H26c.06.6.09,1.13.15,2.23Zm1.29,4.49c0,.81-.1,1.56-.19,2.25H24.67c.09-.69.16-1.44.19-2.25ZM24.89,16h1.29v2.23H24.89Z"/></svg>