<svg id="Icones" xmlns="http://www.w3.org/2000/svg" width="32" height="32" viewBox="0 0 32 32"><defs><style>.cls-1{fill:none;}</style></defs><rect class="cls-1" width="32" height="32"/><path d="M17.84,23.81A15.38,15.38,0,0,1,16.37,26h-1a15.38,15.38,0,0,1-1.47-2.23H8a2.08,2.08,0,0,1-2.22-2.22V8.1A2.09,2.09,0,0,1,8,5.91H23.67A2,2,0,0,1,25.9,8.13V21.59a2.05,2.05,0,0,1-2.26,2.22Zm-2,1.13a15.69,15.69,0,0,0,1.29-2.26h6.49a1,1,0,0,0,1.16-1.09V8.13A1,1,0,0,0,23.67,7H8A1,1,0,0,0,6.9,8.1V21.59A1,1,0,0,0,8,22.68h6.59A16.7,16.7,0,0,0,15.86,24.94Zm0-14.86a7.83,7.83,0,0,0-2.82.5V9.51A9.44,9.44,0,0,1,15.86,9c1.89,0,3,1,3,2.7a3.12,3.12,0,0,1-1,2.48l-.5.53c-.82.91-.94,1.16-.94,2v.87H15.3v-.87a2.67,2.67,0,0,1,.91-2.33l.63-.65a2.78,2.78,0,0,0,.94-2A1.71,1.71,0,0,0,15.86,10.08Zm.85,9.47c0,.59-.25.88-.88.88a.77.77,0,0,1-.87-.88c0-.63.28-.88.87-.88S16.71,18.92,16.71,19.55Z"/></svg>