<?xml version="1.0" encoding="UTF-8"?><svg xmlns="http://www.w3.org/2000/svg" width="24" height="24" viewBox="0 0 24 24"><defs><style>.c{fill:none;}</style></defs><g id="a"><rect class="c" width="24" height="24"/></g><g id="b"><path d="M.24,11.7v-2.38c0-.53,.54-.91,1.12-.91h2.78c.09-.01,.18,0,.27,.02,.09,.03,.17,.08,.23,.14,.07,.06,.11,.14,.14,.23,.03,.09,.03,.18,.02,.27v1.64c.22,0,.43,.03,.64,.08l2.38-1.05c.58-.29,1.21-.43,1.86-.42h1.5c.58,0,.72,.22,.72,.69v1.58h3.11c.22-.28,.49-.51,.81-.66,.32-.15,.67-.24,1.02-.24s.7,.08,1.02,.24c.32,.16,.6,.38,.81,.66h1.36c.28-.04,.57,0,.84,.08,.27,.09,.51,.24,.72,.44l1.78,1.69c.11,.07,.2,.17,.27,.29,.07,.12,.11,.24,.12,.38,0,.15-.06,.3-.17,.41-.11,.11-.26,.17-.41,.17h-3.47l.69-1.16h1.28l-.94-.94c-.08-.08-.17-.15-.28-.19-.11-.04-.22-.05-.33-.04h-.95c.01,.14,.01,.28,0,.42,0,.32-.05,.64-.16,.93s-.29,.57-.51,.8c-.22,.23-.49,.41-.78,.53-.29,.12-.61,.19-.93,.18-.54,0-1.07-.19-1.5-.53H7.72l.69-1.16h6.13c-.08-.24-.12-.5-.11-.75-.01-.14-.01-.28,0-.42h-3.08c-.09,0-.17,0-.25-.04-.08-.03-.15-.08-.21-.15-.06-.06-.1-.14-.13-.22-.03-.08-.03-.17-.02-.26v-1.65h-.73c-.68-.02-1.35,.13-1.94,.44l-1.47,.67c.38,.45,.59,1.02,.58,1.61,.02,.59-.19,1.17-.58,1.62-.39,.45-.93,.74-1.52,.81-.59,.07-1.18-.08-1.67-.42-.48-.34-.82-.85-.95-1.43H1.36L.24,11.7Zm2.23,.89c.08-.32,.22-.63,.42-.89,.2-.27,.45-.49,.74-.66v-1.53H1.36v1.88l.64,1.19h.47Zm3.58,.58c0-.33-.13-.65-.37-.88-.23-.24-.55-.37-.88-.37s-.65,.13-.88,.37-.36,.55-.36,.88,.13,.65,.36,.88c.24,.23,.55,.37,.88,.37s.65-.13,.88-.37c.24-.23,.37-.55,.37-.88Zm12.03,0c0-.33-.13-.65-.37-.88-.23-.24-.55-.37-.88-.37s-.65,.13-.88,.37c-.23,.23-.36,.55-.36,.88s.13,.65,.36,.88c.23,.23,.55,.37,.88,.37s.65-.13,.88-.37c.24-.23,.37-.55,.37-.88Z"/></g></svg>