<svg id="Icones" xmlns="http://www.w3.org/2000/svg" width="32" height="32" viewBox="0 0 32 32"><defs><style>.cls-1{fill:none;}</style></defs><rect class="cls-1" width="32" height="32"/><path d="M4.64,18.23a2.41,2.41,0,0,1,2.54-2.51,2.42,2.42,0,0,1,2.54,2.51H20.85a2.42,2.42,0,0,1,2.54-2.51,2.42,2.42,0,0,1,2.54,2.48h2.13c0-.31-.28-.47-1.09-.63a2.72,2.72,0,0,0-.57-1.16l.35.06c2,.38,2.51.79,2.51,2.07v.76H25.71a2.59,2.59,0,0,1-4.64,0H9.5a2.43,2.43,0,0,1-2.32,1.44A2.42,2.42,0,0,1,4.86,19.3H2.41V13.78H6.86v1H3.51v3.42Zm2.54-1.47a1.38,1.38,0,0,0-1.51,1.47A1.38,1.38,0,0,0,7.18,19.7a1.37,1.37,0,0,0,1.5-1.47A1.37,1.37,0,0,0,7.18,16.76ZM10,16.1a2.11,2.11,0,0,0-.78-.79c2.29-1.28,3-1.53,4.86-1.53H15.8V16h4.71a2.48,2.48,0,0,0-.66,1.06H14.77V14.81h-.66C12.54,14.81,12,15,10,16.1Zm13.36.66a1.37,1.37,0,0,0-1.5,1.47,1.37,1.37,0,0,0,1.5,1.47,1.47,1.47,0,1,0,0-2.94Z"/></svg>