<?xml version="1.0" encoding="UTF-8"?><svg xmlns="http://www.w3.org/2000/svg" width="24" height="24" viewBox="0 0 24 24"><defs><style>.c{fill:none;}</style></defs><g id="a"><rect class="c" width="24" height="24"/></g><g id="b"><path d="M11.66,4c6.05,0,8.9,5.92,8.9,11.21v4.79H11.38c-5.18,0-7.94-2.22-7.94-6.41v-2.28c0-4.46,3.23-7.3,8.22-7.3ZM4.56,13.43c0,3.53,2.24,5.48,6.85,5.48h7.99v-2.28c-2.42-.27-4.81-.8-7.12-1.56-1.54-.57-1.97-1.14-1.97-2.61v-1.39c-.42-.1-.79-.35-1.05-.69-.26-.35-.39-.77-.38-1.2-.01-.27,.03-.53,.12-.78,.1-.25,.24-.47,.43-.66,.19-.19,.41-.34,.66-.43,.25-.1,.51-.14,.78-.13,.43-.03,.86,.1,1.21,.35,.35,.26,.6,.62,.71,1.04h4.68c-1.31-2.05-3.29-3.45-5.83-3.45-4.35,0-7.09,2.33-7.09,6.19v2.11Zm6.33-5.21c-.25,0-.49,.1-.67,.28-.18,.18-.28,.42-.28,.67s.1,.49,.28,.67c.18,.18,.42,.28,.67,.28,.12,.01,.25,0,.37-.05,.12-.04,.23-.11,.31-.2,.09-.09,.16-.19,.2-.31,.04-.12,.06-.24,.05-.37,.02-.13,0-.26-.04-.38-.04-.12-.11-.23-.2-.33-.09-.09-.2-.16-.32-.21-.12-.04-.25-.06-.38-.05h0Zm8.52,7.26c0-2.02-.45-4.02-1.31-5.84h-5.26c-.07,.35-.24,.68-.49,.94-.25,.26-.58,.44-.93,.51v1.21c0,1.07,.3,1.4,1.51,1.81,2.11,.68,4.28,1.14,6.49,1.38h0Z"/></g></svg>