<?xml version="1.0" encoding="UTF-8"?><svg xmlns="http://www.w3.org/2000/svg" width="24" height="24" viewBox="0 0 24 24"><defs><style>.c{fill:none;}</style></defs><g id="a"><rect class="c" width="24" height="24"/></g><g id="b"><path d="M3.46,9.11c.65-2.88,1.67-4.18,3.91-4.18,1.47,0,2.46,.54,3.36,2.4h2.55c.91-1.87,1.9-2.4,3.36-2.4,2.24,0,3.26,1.3,3.91,4.18l1.36,5.97c.13,.58,.2,1.17,.2,1.77,0,1.44-.85,2.23-2.04,2.23-.87,0-1.47-.28-2.29-1.18l-2.23-2.36h-7.07l-2.23,2.36c-.82,.88-1.41,1.18-2.29,1.18-1.18,0-2.04-.79-2.04-2.23,0-.6,.07-1.19,.2-1.77l1.36-5.97Zm-.39,7.55c0,.82,.31,1.27,.91,1.27s.88-.25,1.47-.88l2.46-2.63h8.2l2.46,2.63c.59,.62,.93,.88,1.47,.88s.9-.45,.9-1.27c0-.36-.04-.72-.11-1.07l-1.44-6.25c-.59-2.4-1.18-3.28-2.75-3.28-1.24,0-1.92,.59-2.57,2.4h-4.12c-.71-1.81-1.36-2.4-2.6-2.4-1.59,0-2.18,.88-2.75,3.28l-1.42,6.25c-.07,.35-.11,.71-.11,1.07Zm4.24-3.54v-1.21h-1.18v-1.08h1.18v-1.21h1.13v1.21h1.22v1.08h-1.22v1.22h-1.13Zm6.99-1.77c0-.36,.11-.72,.31-1.02,.2-.3,.49-.54,.83-.68,.34-.14,.71-.17,1.06-.1,.36,.07,.68,.25,.94,.5,.26,.26,.43,.58,.5,.94,.07,.36,.03,.73-.1,1.06-.14,.34-.37,.62-.68,.82s-.66,.31-1.02,.31c-.24,0-.48-.04-.7-.13s-.43-.23-.6-.4c-.17-.17-.31-.37-.4-.59-.09-.22-.14-.46-.14-.7h0Zm2.6-.01c0-.1-.02-.2-.05-.3-.04-.1-.09-.18-.16-.25-.07-.07-.16-.13-.25-.17-.09-.04-.2-.06-.3-.06-.21,0-.4,.08-.55,.23-.15,.15-.23,.34-.23,.55s.08,.4,.23,.55c.15,.15,.34,.23,.55,.23s.39-.08,.54-.22c.14-.14,.23-.33,.23-.53h0Z"/></g></svg>