<?xml version="1.0" encoding="UTF-8"?><svg xmlns="http://www.w3.org/2000/svg" width="24" height="24" viewBox="0 0 24 24"><defs><style>.c{fill:none;}</style></defs><g id="a"><rect class="c" width="24" height="24"/></g><g id="b"><path d="M23.6,22.98H.4V6.72L4.11,1.02l.95,.53L1.74,6.73H23.6V22.98Zm-1.16-1.12V7.85H1.53v14.02H22.44ZM6.17,11.33c.02,.15,0,.3-.05,.44-.05,.14-.13,.27-.24,.37-.11,.1-.24,.18-.38,.23-.14,.05-.29,.06-.44,.04-.15,.02-.3,0-.44-.04-.14-.05-.27-.13-.37-.23-.1-.1-.18-.23-.23-.37-.05-.14-.06-.29-.04-.44-.02-.15,0-.3,.04-.44,.05-.14,.13-.27,.23-.38,.11-.11,.23-.19,.38-.24,.14-.05,.29-.07,.44-.05,.15-.02,.31-.01,.46,.04,.15,.05,.28,.13,.39,.24s.2,.24,.25,.39c.05,.15,.07,.3,.05,.46h-.03Zm8.71,8.13c-2.51,0-4.07-1.56-4.07-3.99s1.56-4.07,4.07-4.07,4.07,1.59,4.07,4.07-1.49,4-4.05,4h-.01Zm0-1.13c1.82,0,2.9-1.11,2.9-2.88,0-1.86-1.12-2.96-2.96-2.96s-2.9,1.09-2.9,2.96c.04,1.77,1.13,2.89,2.97,2.89h-.01Z"/></g></svg>