<?xml version="1.0" encoding="UTF-8"?><svg xmlns="http://www.w3.org/2000/svg" width="24" height="24" viewBox="0 0 24 24"><defs><style>.c{fill:none;}</style></defs><g id="a"><rect class="c" width="24" height="24"/></g><g id="b"><path d="M14.22,7.95H1.83v5.71H.7V6.91L4.3,1.34l.92,.51L2.05,6.88H13.4l.81,1.08ZM.7,14.77H3.05c1.97,0,3.24,1.13,3.24,4.16,0,2.7-1.27,3.73-3.24,3.73H.72l-.02-7.89Zm2.35,1.13H1.86v5.67h1.35c1.13,0,1.97-.68,1.97-2.62,0-2.3-.78-3.05-2.11-3.05h-.02Zm3.3-4.55c.01,.15,0,.29-.05,.43-.05,.14-.13,.26-.23,.36-.1,.1-.23,.18-.37,.22-.14,.05-.28,.06-.43,.04-.14,.02-.29,0-.42-.04-.14-.05-.26-.12-.36-.22-.1-.1-.18-.23-.23-.36-.05-.14-.06-.28-.05-.42-.02-.14,0-.29,.04-.43,.04-.14,.12-.27,.22-.37,.1-.1,.23-.18,.37-.23,.14-.05,.29-.06,.43-.05,.15-.02,.3,0,.43,.05,.14,.05,.27,.13,.37,.23,.11,.1,.18,.23,.23,.37,.05,.14,.06,.29,.05,.43h0Zm1.13,11.33v-7.89h2.05c1.62,0,2.57,.81,2.57,2.46,.02,.4-.06,.8-.24,1.16s-.46,.67-.79,.89c.48,1.06,1.05,2.16,1.57,3.38h-1.19c-.46-1.05-.89-1.92-1.32-2.89h-1.54v2.89h-1.09Zm1.13-6.76v2.82h1.08c.73,0,1.3-.46,1.3-1.46s-.56-1.35-1.46-1.35h-.92Zm4.57,6.75v-7.89h1.82l1.54,4.73,1.52-4.73h1.86v7.89h-1.13v-6.76l-1.88,5.66h-.84l-1.84-5.6v6.7h-1.07ZM22.71,7.11l-.59,.92c-.92-.74-2.07-1.15-3.26-1.15s-2.33,.41-3.26,1.15l-.61-.94c1.1-.87,2.46-1.33,3.86-1.33,1.4,0,2.76,.48,3.85,1.36h.01Zm-.97,2.02l-.56,.92c-.64-.55-1.45-.86-2.3-.89-.84,.03-1.65,.34-2.3,.89l-.6-.92c.82-.66,1.84-1.04,2.89-1.08,1.03,.06,2.02,.44,2.82,1.09h.04Zm-2,2.25c.01,.13,0,.26-.05,.38-.05,.12-.12,.23-.21,.32-.09,.09-.21,.16-.33,.2-.12,.04-.26,.06-.39,.04-.13,.01-.26,0-.38-.04-.12-.04-.23-.11-.32-.21-.09-.09-.16-.2-.2-.32-.04-.12-.06-.25-.04-.38-.02-.13,0-.26,.04-.38,.04-.12,.11-.24,.2-.33,.09-.09,.2-.16,.32-.21,.12-.04,.25-.06,.38-.04,.13-.01,.26,.01,.38,.06,.12,.05,.23,.12,.32,.22,.09,.09,.16,.21,.2,.33,.04,.12,.05,.25,.04,.38l.04-.02Zm1.27,10.14h1.16V10.53l1.13-1.69v13.83h-2.25l-.03-1.13Z"/></g></svg>