<?xml version="1.0" encoding="UTF-8"?><svg xmlns="http://www.w3.org/2000/svg" width="24" height="24" viewBox="0 0 24 24"><defs><style>.c{fill:none;}</style></defs><g id="a"><rect class="c" width="24" height="24"/></g><g id="b"><path d="M6.46,22.68h-1.19c-.16-.73-.35-1.49-.56-2.26H2.49c-.22,.76-.43,1.52-.6,2.26H.7c.65-2.54,1.6-5.57,2.41-7.89h1.03c.78,2.32,1.73,5.41,2.32,7.89Zm8.96-1.08h6.77V7.95H1.89v7.26c-.38,.95-.73,1.95-1.13,3.19V6.87L4.37,1.32l.92,.51L2.07,6.87H23.3v15.79h-7.89l.02-1.07Zm-10.99-2.19c-.29-.97-.56-1.92-.83-2.82-.27,.9-.56,1.87-.84,2.82h1.68Zm1.98-8.07c.01,.14,0,.29-.05,.43-.05,.14-.13,.26-.23,.36-.11,.1-.23,.18-.37,.22-.14,.05-.28,.06-.43,.04-.14,.02-.28,0-.42-.05-.13-.05-.26-.12-.36-.23-.1-.1-.18-.22-.22-.36-.05-.13-.06-.28-.04-.42-.02-.15,0-.29,.04-.43s.12-.27,.22-.37c.1-.11,.23-.18,.36-.23,.14-.05,.29-.06,.43-.05,.15-.01,.29,0,.43,.05,.14,.05,.26,.13,.37,.23,.1,.1,.18,.23,.23,.37,.05,.14,.06,.29,.04,.43h0Zm1.13,11.34v-7.89h1.83l1.54,4.74,1.51-4.74h1.87v7.89h-1.13v-6.77l-1.86,5.67h-.82l-1.84-5.61v6.71h-1.11Zm12.26-11.28c.01,.13,0,.26-.05,.38-.04,.12-.12,.23-.21,.32-.09,.09-.21,.16-.33,.2-.12,.04-.25,.06-.38,.04-.13,.01-.26,0-.38-.05-.12-.04-.23-.11-.32-.2-.09-.09-.16-.2-.2-.32-.04-.12-.06-.25-.04-.38-.02-.13,0-.26,.04-.39,.04-.12,.11-.24,.2-.33,.09-.09,.2-.17,.32-.21,.12-.04,.25-.06,.38-.05,.13-.01,.26,0,.39,.05,.12,.04,.24,.12,.33,.21,.09,.1,.16,.21,.2,.34,.04,.13,.05,.26,.04,.39l.02-.02Z"/></g></svg>