<?xml version="1.0" encoding="UTF-8"?><svg xmlns="http://www.w3.org/2000/svg" width="24" height="24" viewBox="0 0 24 24"><defs><style>.c{fill:none;}</style></defs><g id="a"><rect class="c" width="24" height="24"/></g><g id="b"><path d="M14.24,7.93H1.83v5.72H.7V6.88L4.3,1.33l.92,.51L2,6.85H13.43l.81,1.08ZM.7,14.76H3.06c1.98,0,3.25,1.13,3.25,4.17,0,2.71-1.27,3.74-3.25,3.74H.72l-.02-7.9Zm2.36,1.13H1.86v5.68h1.35c1.13,0,1.97-.68,1.97-2.63,0-2.3-.78-3.06-2.11-3.06h-.02Zm3.3-4.56c.01,.15,0,.29-.05,.43-.05,.14-.13,.26-.23,.36-.1,.1-.23,.18-.37,.22-.14,.05-.28,.06-.43,.04-.14,.02-.29,0-.42-.04-.14-.05-.26-.12-.36-.23s-.18-.22-.23-.36c-.05-.14-.06-.28-.04-.43-.02-.14,0-.29,.04-.43,.04-.14,.12-.27,.23-.37,.1-.1,.23-.18,.37-.23,.14-.05,.29-.07,.43-.05,.15-.02,.3,0,.44,.05,.14,.05,.27,.13,.37,.23,.1,.11,.18,.23,.23,.37,.05,.14,.06,.29,.04,.43h0Zm1.13,11.35v-7.9h2.05c1.62,0,2.58,.81,2.58,2.47,.03,.4-.05,.8-.23,1.16-.18,.36-.44,.67-.78,.89,.48,1.06,1.04,2.19,1.55,3.39h-1.22c-.46-1.06-.89-1.92-1.33-2.89h-1.54v2.89h-1.09Zm1.13-6.78v2.82h1.08c.73,0,1.3-.46,1.3-1.46s-.56-1.35-1.46-1.35h-.92Zm4.9,5.68h8.65V10.51l1.13-1.69v13.85H14.02l-.5-1.09ZM22.71,7.1l-.59,.92c-.93-.75-2.08-1.15-3.26-1.15s-2.34,.41-3.26,1.15l-.61-.95c1.1-.87,2.46-1.34,3.86-1.33,1.4,0,2.76,.48,3.85,1.36h.02Zm-.96,2.03l-.56,.92c-.65-.55-1.46-.86-2.3-.89-.85,.03-1.66,.34-2.3,.89l-.6-.92c.82-.66,1.84-1.04,2.9-1.08,1.04,.05,2.05,.43,2.87,1.08Zm-2,2.26c.01,.13,0,.26-.05,.38-.05,.12-.12,.23-.21,.32-.09,.09-.21,.16-.33,.2-.12,.04-.26,.06-.38,.04-.13,.02-.26,0-.38-.04s-.24-.11-.33-.2c-.09-.09-.17-.2-.21-.32-.04-.12-.06-.25-.05-.38-.02-.13,0-.26,.04-.39,.04-.12,.11-.24,.2-.33,.09-.09,.2-.17,.33-.21,.12-.04,.25-.06,.38-.05,.13-.02,.27,0,.39,.04,.13,.04,.24,.11,.34,.21,.1,.09,.17,.21,.21,.33,.04,.12,.06,.26,.04,.39v-.02Z"/></g></svg>