<?xml version="1.0" encoding="UTF-8"?><svg xmlns="http://www.w3.org/2000/svg" width="24" height="24" viewBox="0 0 24 24"><defs><style>.c{fill:none;}</style></defs><g id="a"><rect class="c" width="24" height="24"/></g><g id="b"><path d="M14.24,7.92H1.83v5.72H.7V6.87L4.31,1.32l.92,.51L2.03,6.84H13.43l.81,1.08ZM.7,14.74H3c1.98,0,3.25,1.13,3.25,4.17,0,2.71-1.27,3.73-3.25,3.73H.72l-.02-7.9Zm2.3,1.13H1.86v5.67h1.29c1.13,0,1.98-.68,1.98-2.63,0-2.3-.78-3.06-2.11-3.06h-.02Zm3.36-4.56c.01,.14,0,.29-.05,.43-.05,.14-.13,.26-.23,.36-.1,.1-.23,.18-.37,.22s-.28,.06-.43,.04c-.14,.02-.29,0-.42-.04-.14-.05-.26-.12-.36-.23-.1-.1-.18-.23-.23-.36-.05-.14-.06-.28-.04-.42-.02-.14,0-.29,.04-.43s.12-.26,.22-.37c.1-.1,.23-.18,.36-.23,.14-.05,.29-.07,.43-.05,.15-.02,.3,0,.43,.05,.14,.05,.27,.13,.37,.23,.1,.1,.18,.23,.23,.37,.05,.14,.07,.29,.05,.43Zm6.04,11.34h-1.19c-.16-.73-.38-1.49-.6-2.26h-2.38c-.22,.76-.43,1.52-.6,2.26h-1.17c.65-2.54,1.69-5.57,2.49-7.9h1.03c.78,2.33,1.82,5.41,2.41,7.9h0Zm-2.08-3.28c-.3-.98-.6-1.92-.87-2.82-.27,.9-.6,1.84-.87,2.82h1.74Zm2.79,3.27v-7.9h2.52c1.38,0,2.22,.65,2.22,2.11,.03,.34-.06,.68-.25,.97-.18,.29-.46,.51-.78,.63,.41,.1,.77,.34,1.02,.69,.25,.34,.37,.76,.33,1.19,0,1.69-1.17,2.35-2.55,2.35l-2.52-.03Zm1.13-6.77v2.11h1.27c.82,0,1.25-.38,1.25-1.08s-.43-1.03-1.25-1.03h-1.27Zm0,3.22v2.47h1.3c1.13,0,1.55-.38,1.55-1.22s-.56-1.25-1.55-1.25h-1.3ZM22.71,7.08l-.59,.92c-.92-.74-2.08-1.15-3.26-1.15s-2.34,.41-3.26,1.15l-.59-.95c1.1-.87,2.46-1.34,3.86-1.33,1.4,0,2.76,.48,3.85,1.36h0Zm-.98,2.03l-.56,.92c-.65-.55-1.46-.86-2.3-.89-.85,.03-1.66,.34-2.3,.89l-.6-.92c.82-.66,1.84-1.04,2.9-1.08,1.05,.05,2.05,.43,2.87,1.08h0Zm-2,2.26c.01,.13,0,.26-.05,.38-.05,.12-.12,.23-.21,.32-.09,.09-.21,.16-.33,.2-.12,.04-.26,.06-.38,.04-.13,.01-.25,0-.37-.05-.12-.04-.23-.11-.32-.2-.09-.09-.16-.2-.2-.32-.04-.12-.06-.25-.05-.37-.02-.13,0-.26,.04-.39,.04-.12,.11-.24,.2-.33,.09-.09,.2-.16,.33-.21,.12-.04,.25-.06,.38-.05,.13-.01,.26,0,.39,.05,.12,.04,.23,.11,.33,.21,.09,.09,.16,.21,.21,.33s.06,.26,.04,.39v-.02Zm-.73,10.15h3.17V10.5l1.13-1.69v13.85h-5.08c.38-.27,.65-.66,.78-1.11v-.02Z"/></g></svg>