<?xml version="1.0" encoding="UTF-8"?><svg xmlns="http://www.w3.org/2000/svg" width="24" height="24" viewBox="0 0 24 24"><defs><style>.c{fill:none;}</style></defs><g id="a"><rect class="c" width="24" height="24"/></g><g id="b"><path d="M14.27,21.61h7.91V7.93H1.83v5.7H.7V6.85L4.33,1.29l.92,.51L2.03,6.85H23.3v15.83H14.26v-1.07ZM.7,14.78H5.22v1.13H1.83v2.14h2.77v1.13H1.83v3.53H.7v-7.93Zm5.65-3.45c.01,.14,0,.29-.05,.43-.05,.14-.13,.26-.23,.36-.11,.1-.23,.18-.37,.22-.14,.05-.28,.06-.43,.04-.14,.02-.29,0-.42-.05-.14-.05-.26-.12-.36-.23-.1-.1-.18-.23-.22-.36-.05-.14-.06-.28-.04-.42-.02-.14,0-.29,.04-.43,.04-.14,.12-.27,.22-.37,.1-.1,.23-.18,.36-.23,.14-.05,.29-.07,.43-.05,.15-.02,.3,0,.44,.04,.14,.05,.27,.13,.37,.23,.1,.1,.18,.23,.23,.37,.05,.14,.06,.29,.05,.44h-.02Zm-.03,11.37v-7.91h1.85l1.55,4.75,1.52-4.75h1.87v7.91h-1.13v-6.78l-1.85,5.67h-.83l-1.84-5.62v6.73h-1.14Zm13.43-11.31c.01,.13,0,.26-.05,.38-.05,.12-.12,.23-.21,.33-.09,.09-.21,.16-.33,.2-.12,.04-.25,.06-.38,.04-.13,.01-.26,0-.38-.04-.12-.04-.23-.11-.32-.21-.09-.09-.16-.2-.2-.33-.04-.12-.06-.25-.04-.38-.02-.13,0-.26,.04-.39s.11-.24,.2-.33c.09-.09,.2-.16,.33-.21,.12-.04,.25-.06,.38-.05,.13-.02,.27,0,.4,.04,.13,.04,.25,.11,.34,.21,.1,.1,.17,.21,.21,.34,.04,.13,.06,.26,.04,.4l-.02-.02Z"/></g></svg>