<svg id="Icones" xmlns="http://www.w3.org/2000/svg" width="32" height="32" viewBox="0 0 32 32"><defs><style>.cls-1{fill:none;}</style></defs><rect class="cls-1" width="32" height="32"/><path d="M10.2,18.76a4,4,0,0,1-4.27-3.92c0-2.13,1.51-3.67,3.92-3.95.22-3.55,2.42-5.55,6-5.55s5.74,1.91,6,5.08c2.64.15,4.24,1.72,4.24,4.17s-1.76,4.17-4.46,4.17ZM25,14.59c0-2-1.47-3.14-4.2-3.14,0-3.35-1.63-5-4.9-5s-4.95,1.76-4.95,5.49C8.54,11.89,7,13,7,14.84a2.87,2.87,0,0,0,3.17,2.82H21.64A3.05,3.05,0,0,0,25,14.59Zm-13.11,5.3,1.1.22-1,4.51-1.09-.22Zm3.54,0,1.1.22-1.44,6.55L14,26.44Zm3.58,0,1.1.22-1,4.51L18,24.4Z"/></svg>