<svg id="Icones" xmlns="http://www.w3.org/2000/svg" width="32" height="32" viewBox="0 0 32 32"><defs><style>.cls-1{fill:none;}</style></defs><rect class="cls-1" width="32" height="32"/><path d="M9.1,21.58c-2.51,0-4.3-1.63-4.3-3.92a3.92,3.92,0,0,1,4-3.89,4.72,4.72,0,0,1,5-4.48c2.79,0,4.55,1.44,4.71,3.86a4.07,4.07,0,0,1,4.23,4.2c0,2.57-1.82,4.23-4.58,4.23Zm12.54-4.23c0-2.07-1.59-3.26-4.23-3.17,0-2.6-1.16-3.82-3.64-3.82s-3.95,1.56-3.95,4.45c-2.48-.1-3.95,1-3.95,2.85,0,1.66,1.32,2.82,3.23,2.82h9C20.2,20.48,21.64,19.2,21.64,17.35Zm-12,5.33,1.07.22L10,26.25,8.88,26Zm3.55,0,1.06.22-1.19,5.39L12,28.07Zm.06-14.46a4.76,4.76,0,0,1,5-4.51c2.79,0,4.55,1.44,4.7,3.85a4.09,4.09,0,0,1,4.24,4.21,4.05,4.05,0,0,1-3.49,4.14,3.59,3.59,0,0,0-.4-1,3.18,3.18,0,0,0,2.82-3.13c0-2.07-1.6-3.26-4.23-3.17,0-2.6-1.16-3.83-3.64-3.83a3.55,3.55,0,0,0-3.89,3.45A7.11,7.11,0,0,0,13.24,8.22Zm3.51,14.46,1.07.22-.75,3.35L16,26Z"/></svg>