<svg id="Icones" xmlns="http://www.w3.org/2000/svg" width="32" height="32" viewBox="0 0 32 32"><defs><style>.cls-1{fill:none;}</style></defs><rect class="cls-1" width="32" height="32"/><path d="M24.77,13.43c0,3.36,1.19,5.24,1.19,7.34,0,1.91-1,3-2.79,3s-2.82-1.13-2.82-3V15.94c0-.81-.31-1.13-1.13-1.13H18.06V24.94h1.13V26H5.74V24.94H6.9V9.26A2,2,0,0,1,9.12,7h6.71a2,2,0,0,1,2.23,2.22v4.49h1.16A2,2,0,0,1,21.45,16v4.8c0,1.32.56,2,1.72,2s1.73-.66,1.73-2c0-2.1-1.16-3.86-1.16-7.34v-.84c-1.41-.22-2.17-1.29-2.17-3.05V7h1V4.78h1V7H25V4.78h1V7h1v2.5c0,1.7-.82,2.83-2.2,3.05ZM15.83,8.1H9.12C8.31,8.1,8,8.45,8,9.26V24.94h9V9.26C17,8.45,16.65,8.1,15.83,8.1ZM12.64,19.3h-.51l.32-2.23H10.91L12,13.75h1.19L12.38,16H14.2ZM22.58,8v1.5c0,1.32.59,2.07,1.66,2.07S26,10.89,26,9.54V8Z"/></svg>