<?xml version="1.0" encoding="UTF-8"?><svg xmlns="http://www.w3.org/2000/svg" width="24" height="24" viewBox="0 0 24 24"><defs><style>.c{fill:none;}</style></defs><g id="a"><rect class="c" width="24" height="24"/></g><g id="b"><path d="M20.95,8.72l-1.1,.39c-1.01-3.17-3.79-5.33-7.6-5.33-3.4,0-5.81,1.54-7.18,4.32,.87-.42,1.54-.78,2.58-1.26l.42,1.04c-1.46,.61-2.22,.98-3.76,1.6l-.9-.39c-.23-1.38-.35-2.78-.36-4.18l1.09-.06c0,1.17,.03,1.82,.06,2.58,.73-1.5,1.88-2.74,3.31-3.59,1.43-.85,3.08-1.26,4.74-1.18,4.35,.03,7.52,2.47,8.7,6.06ZM3.05,15.28l1.09-.39c1.01,3.17,3.79,5.33,7.6,5.33,3.39,0,5.81-1.54,7.18-4.33-.87,.43-1.54,.79-2.58,1.26l-.42-1.04c1.46-.62,2.22-.98,3.76-1.6l.89,.39c.23,1.38,.36,2.78,.37,4.18l-1.1,.05c0-1.17,0-1.82-.05-2.58-.73,1.5-1.88,2.74-3.31,3.59-1.43,.85-3.08,1.26-4.74,1.18-4.34-.03-7.51-2.47-8.69-6.06Z"/></g></svg>