<svg id="Icones" xmlns="http://www.w3.org/2000/svg" width="32" height="32" viewBox="0 0 32 32"><defs><style>.cls-1{fill:none;}</style></defs><rect class="cls-1" width="32" height="32"/><path d="M23.3,19l1,.38c-1.19,3.54-4.29,5.61-8.5,5.61-5.48,0-9-3.51-9-9s3.52-9,9-9c4.71,0,7.94,2.51,8.75,6.72.57-1.57.76-2.23,1.1-3.36l.94.25a40.64,40.64,0,0,1-1.75,4.7l-.91.13c-1.6-1.22-2.51-1.94-3.7-3l.65-.72c1,.88,1.79,1.53,2.7,2.26-.91-3.8-3.64-5.9-7.78-5.9-4.89,0-7.9,3-7.9,7.9s3,7.91,7.9,7.91C19.6,23.88,22.29,22.09,23.3,19Z"/></svg>