<svg id="Icones" xmlns="http://www.w3.org/2000/svg" width="32" height="32" viewBox="0 0 32 32"><defs><style>.cls-1{fill:none;}</style></defs><rect class="cls-1" width="32" height="32"/><path d="M15.83,24.94c-4.7,0-7.93-2.51-8.75-6.71-.56,1.54-.75,2.2-1.09,3.36l-.94-.25A42.1,42.1,0,0,1,6.8,16.63l.91-.12c1.79,1.38,2.64,2,3.7,3l-.66.72C9.75,19.36,9,18.7,8.06,18c.91,3.79,3.63,5.9,7.77,5.9,3.77,0,6.46-1.79,7.47-4.93l1,.38C23.14,22.87,20,24.94,15.83,24.94ZM24,15.44c-1.6-1.22-2.51-1.94-3.7-3l.65-.72c1,.88,1.79,1.53,2.7,2.26-.91-3.8-3.64-5.9-7.78-5.9-3.76,0-6.46,1.79-7.46,4.92l-1-.37C8.53,9.07,11.63,7,15.83,7c4.71,0,7.94,2.51,8.75,6.72.57-1.57.76-2.23,1.1-3.36l.94.25a40.64,40.64,0,0,1-1.75,4.7Z"/></svg>