<svg id="Icones" xmlns="http://www.w3.org/2000/svg" width="32" height="32" viewBox="0 0 32 32"><defs><style>.cls-1{fill:none;}</style></defs><rect class="cls-1" width="32" height="32"/><path d="M11.16,5.72a4.19,4.19,0,0,1,.66.88A9.86,9.86,0,0,0,6.87,11,4.63,4.63,0,0,1,6,10.33,10.76,10.76,0,0,1,11.16,5.72ZM7,24.13l1.76-2.2a9.09,9.09,0,0,1-1.95-6c0-5.48,3.52-9,9-9s9,3.49,9,9a9.14,9.14,0,0,1-1.94,6l1.76,2.2-1,.78-1.6-2.1a9.21,9.21,0,0,1-6.24,2.13,9.23,9.23,0,0,1-6.24-2.13L8,24.91ZM15.83,8.07c-4.89,0-7.9,3-7.9,7.9s3,7.91,7.9,7.91,7.91-3.05,7.91-7.91S20.73,8.07,15.83,8.07ZM15.3,9.23h1.1v6.18h6.15v1.06H15.3ZM24.77,11A9.9,9.9,0,0,0,19.82,6.6a4.19,4.19,0,0,1,.66-.88,10.81,10.81,0,0,1,5.17,4.61A4.63,4.63,0,0,1,24.77,11Z"/></svg>