<svg id="Icones" xmlns="http://www.w3.org/2000/svg" width="32" height="32" viewBox="0 0 32 32"><defs><style>.cls-1{fill:none;}</style></defs><rect class="cls-1" width="32" height="32"/><path d="M5.77,19.64c0-1.54.09-1.75,1.63-3.57s2.32-2.32,4-2.32h4A6.4,6.4,0,0,1,19.53,15l2.39,1.79,1.53.38a2.75,2.75,0,0,1,2.45,2.94,3.39,3.39,0,0,1-.63,2l-.88-.63a2.16,2.16,0,0,0,.41-1.41c0-1.09-.56-1.69-2-2l-1.54-.37L19,16a5.4,5.4,0,0,0-3.61-1.16h-4c-1.29,0-1.76.32-3.2,2C7,18.36,6.87,18.51,6.87,19.8v.66a1.28,1.28,0,0,0,.37,1l-.75.69a2.1,2.1,0,0,1-.72-1.72Zm13.45,1.91a2.1,2.1,0,0,1,2.23-2.19,2.08,2.08,0,0,1,2.22,2.19,2.1,2.1,0,0,1-2.22,2.2,2.14,2.14,0,0,1-2-1.13H12.23a2.14,2.14,0,0,1-2,1.13,2.2,2.2,0,1,1,0-4.39,2.08,2.08,0,0,1,2.23,2.19Zm-9-1.16a1.1,1.1,0,0,0-1.19,1.16,1.11,1.11,0,0,0,1.19,1.16,1.16,1.16,0,1,0,0-2.32ZM17,5.5a1.66,1.66,0,0,1,.57.06l.12-.12A1.9,1.9,0,0,1,19,4.78c.85,0,1.88.69,3.64,2.44,1.44,1.45,2,2.32,2,3.08a2,2,0,0,1-.72,1.41l3.17,3.16-.72.73-3.17-3.17a2,2,0,0,1-1.38.69c-.78,0-1.72-.6-3.1-2-.22-.22-.35-.34-.44-.44A3.11,3.11,0,0,1,17,11,2.76,2.76,0,0,1,17,5.5Zm.54,4.39a5,5,0,0,1-1.1-1.82A.66.66,0,0,1,17,7.69a.71.71,0,0,1,.51.22,7.52,7.52,0,0,0,1.94,2.48c1.1,1.1,1.79,1.57,2.29,1.57a1,1,0,0,0,.66-.31l.72-.73a1,1,0,0,0,.34-.69c0-.47-.43-1.09-1.6-2.25-1.53-1.54-2.25-2.07-2.79-2.07a.81.81,0,0,0-.5.18,2.3,2.3,0,0,1,.85,1,.81.81,0,0,1,.63.75.93.93,0,0,1-.82.75.86.86,0,0,1-.78-.78.27.27,0,0,1,0-.16A1.43,1.43,0,0,0,17,6.53a1.61,1.61,0,0,0-1.63,1.73A1.61,1.61,0,0,0,17,10,1.7,1.7,0,0,0,17.5,9.89Zm3.95,10.5a1.1,1.1,0,0,0-1.19,1.16,1.11,1.11,0,0,0,1.19,1.16,1.16,1.16,0,1,0,0-2.32Z"/></svg>