<svg id="Icones" xmlns="http://www.w3.org/2000/svg" width="32" height="32" viewBox="0 0 32 32"><defs><style>.cls-1{fill:none;}</style></defs><rect class="cls-1" width="32" height="32"/><path d="M5.67,16c0,6.15,4,10.13,10.16,10.13S26,22.12,26,16,22,5.84,15.83,5.84c-3.88,0-7,1.57-8.68,4.36,1.06-.47,2-.88,3.2-1.47l.43.88c-1.63.75-2.66,1.19-4.39,1.88l-.81-.38a35.42,35.42,0,0,1-.31-4.67h1c0,1.41,0,2.19.09,3.1,1.88-3.07,5.27-4.76,9.5-4.76C22.7,4.78,27.09,9.17,27.09,16s-4.42,11.2-11.26,11.2S4.58,22.78,4.58,16Zm15.21-1.69c0,1.66-2,2.76-5,2.76s-5-1.1-5-2.76,2-2.76,5-2.76S20.88,12.62,20.88,14.28Zm0,2.35v1.26a8.77,8.77,0,0,1-5,1.47,8.76,8.76,0,0,1-5-1.47V16.63a7.44,7.44,0,0,0,5,1.63A7.45,7.45,0,0,0,20.88,16.63Zm-10,3.67V19.11a8.05,8.05,0,0,0,5,1.38,8.07,8.07,0,0,0,5-1.38V20.3a9.86,9.86,0,0,1-5,1.25A9.85,9.85,0,0,1,10.85,20.3Zm1.13-6c0,1,1.63,1.72,3.88,1.72s3.89-.72,3.89-1.72-1.63-1.73-3.89-1.73S12,13.28,12,14.28Z"/></svg>