<?xml version="1.0" encoding="UTF-8"?><svg xmlns="http://www.w3.org/2000/svg" width="24" height="24" viewBox="0 0 24 24"><defs><style>.c{fill:none;}</style></defs><g id="a"><rect class="c" width="24" height="24"/></g><g id="b"><path d="M3.77,18.52h2.36v-4.78H2.24c-1.36,0-2.01-.65-2.01-2.01V6.36c0-1.36,.65-2.01,2.01-2.01H21.76c1.36,0,2.01,.65,2.01,2.01v5.37c0,1.35-.65,2.01-2.01,2.01h-3.87v4.78h2.36v1.13h-5.87v-1.13h2.36v-4.78H7.3v4.78h2.36v1.13H3.77v-1.13Zm-1.36-5.89H21.57c.74,0,1.02-.31,1.02-1.05V6.52c0-.73-.28-1.04-1.02-1.04H2.41c-.74,0-1.02,.31-1.02,1.04v5.04c0,.74,.28,1.05,1.02,1.05v.02Zm6.48-5.94l-2.36,4.75H3.15v-.84l1.93-3.94,3.82,.02Zm6.14,0l-2.36,4.75h-3.79l2.36-4.75h3.79Zm5.77,0v.77l-1.98,3.99h-3.79l2.36-4.75h3.42Z"/></g></svg>