<?xml version="1.0" encoding="UTF-8"?><svg xmlns="http://www.w3.org/2000/svg" width="24" height="24" viewBox="0 0 24 24"><defs><style>.c{fill:none;}</style></defs><g id="a"><rect class="c" width="24" height="24"/></g><g id="b"><path d="M18.45,8.48H5.6l-1.33,3.04h-1.21l1.4-3.04H2v-1.13H22v1.13h-2.39l1.38,3.04h-1.21l-1.33-3.04ZM3.1,20.22l3.63-10.56h1.17l-3.55,10.56h-1.26ZM7.55,6.13l.85-2.35h1.07l-.73,2.35h-1.18Zm3.86,0V3.78h1.17v2.35h-1.17Zm0,7.04v-3.52h1.17v3.52h-1.17Zm0,2.35h1.17v4.7h-1.17v-4.7ZM14.59,3.78h1.07l.85,2.35h-1.17l-.74-2.35Zm1.55,5.87h1.17l3.63,10.56h-1.26l-3.54-10.56Z"/></g></svg>