<?xml version="1.0" encoding="UTF-8"?><svg xmlns="http://www.w3.org/2000/svg" width="24" height="24" viewBox="0 0 24 24"><defs><style>.c{fill:none;}</style></defs><g id="a"><rect class="c" width="24" height="24"/></g><g id="b"><path d="M3.97,22.75l3.44-11.28H2.99v-1.13h2.26v-2.6c-.4,.18-.84,.27-1.28,.27-.29,0-.57-.04-.84-.15-.27-.11-.51-.27-.71-.48s-.36-.45-.46-.72c-.1-.27-.14-.56-.13-.85-.01-.39,.1-.77,.32-1.09s.54-.56,.9-.69c-.06-.15-.09-.31-.08-.46,0-1.43,1.38-2.33,2.82-2.33s2.82,.9,2.82,2.33c0,.16-.03,.31-.08,.46,.37,.12,.69,.37,.91,.69,.22,.32,.34,.7,.33,1.09,.01,.29-.03,.57-.13,.84-.1,.27-.26,.51-.46,.71-.2,.2-.44,.36-.7,.47-.26,.11-.55,.16-.83,.15-.44,0-.87-.1-1.27-.27v2.6h2.54l-3.68,12.41-1.27,.02ZM5.81,6.3c.42,.4,.99,.62,1.57,.62,.16,.02,.32,0,.48-.04,.15-.05,.3-.13,.42-.23,.12-.11,.22-.24,.28-.39,.07-.15,.1-.31,.1-.47,0-.17-.03-.33-.1-.48-.07-.15-.16-.29-.29-.4s-.27-.2-.43-.25c-.16-.05-.33-.07-.49-.05v-.05c.1-.23,.15-.48,.16-.73,0-.21-.05-.42-.14-.61-.09-.19-.22-.36-.38-.5-.16-.14-.35-.25-.55-.31-.2-.07-.41-.09-.63-.07-.21-.02-.42,0-.62,.07-.2,.06-.39,.17-.55,.31-.16,.14-.29,.31-.38,.5-.09,.19-.14,.4-.15,.61,0,.25,.06,.5,.16,.73l-.03,.05c-.16-.02-.33,0-.49,.05-.16,.05-.3,.13-.42,.24-.12,.11-.22,.25-.29,.4-.07,.15-.1,.31-.1,.48,0,.16,.03,.32,.1,.47,.07,.15,.16,.28,.28,.39,.12,.11,.26,.19,.42,.23,.15,.05,.31,.06,.47,.04,.59,.01,1.15-.21,1.58-.6h0Zm6.21,8.5v-3.38h1.13v3.38h-1.13Zm0,2.26h1.13v5.64h-1.13v-5.64Zm4.28-6.74h5.87v1.13h-4.39l3.44,11.28h-1.24l-3.68-12.41Z"/></g></svg>