<svg id="Icones" xmlns="http://www.w3.org/2000/svg" width="32" height="32" viewBox="0 0 32 32"><defs><style>.cls-1{fill:none;}</style></defs><rect class="cls-1" width="32" height="32"/><path d="M4.42,14.75a2.66,2.66,0,0,1,2.54-1c5.05,0,8.21.72,13,.78l-1.54-.91a11.33,11.33,0,0,0-2.54-1.19l.44-.94a12.74,12.74,0,0,1,2.54,1.19l3.3,1.88,2.91.47c1,.16,1.51.5,1.7,1.16a8.36,8.36,0,0,1,.34,2.2c0,1-.56,1.54-1.66,1.69V19c.44-.09.59-.25.59-.56a7.6,7.6,0,0,0-.25-1.63c-.15-.5-.31-.63-.84-.72L22,15.63l-.5,0c-6.37,0-8.91-.79-14.46-.79-1.07,0-1.32.1-1.82.63A1.65,1.65,0,0,0,4.61,17v1c0,.53.15.85.53,1v1.1A1.94,1.94,0,0,1,3.51,18V17A2.36,2.36,0,0,1,4.42,14.75Zm6.05,4.61h9.6v0a2.08,2.08,0,0,1,2.22-2.2,2.2,2.2,0,1,1,0,4.39,2.11,2.11,0,0,1-2-1.09H10.22a2.14,2.14,0,0,1-2,1.09,2.2,2.2,0,1,1,0-4.39,2.09,2.09,0,0,1,2.23,2.2ZM8.24,18.17a1.1,1.1,0,0,0-1.19,1.16,1.11,1.11,0,0,0,1.19,1.16,1.1,1.1,0,0,0,1.2-1.16A1.08,1.08,0,0,0,8.24,18.17Zm14.05,2.32a1.12,1.12,0,0,0,1.2-1.16,1.1,1.1,0,0,0-1.2-1.16,1.08,1.08,0,0,0-1.19,1.16A1.1,1.1,0,0,0,22.29,20.49Z"/></svg>