<?xml version="1.0" encoding="UTF-8"?><svg xmlns="http://www.w3.org/2000/svg" width="24" height="24" viewBox="0 0 24 24"><defs><style>.c{fill:none;}</style></defs><g id="a"><rect class="c" width="24" height="24"/></g><g id="b"><path d="M21.6,8.01h-3.34v-3.44h-2.26v3.42h-7.99v-3.42h-2.26V2.36H3.48v5.65h-1.13V1.25H6.87V3.47h2.26v3.42h5.73V3.47h4.52v3.42h2.26l-.05,1.11ZM3.36,22.74l3.45-11.31H2.38v-1.13h5.95l-3.69,12.44h-1.28Zm8.06-7.95v-3.39h1.13v3.39h-1.13Zm0,2.26h1.13v5.65h-1.13v-5.65Zm4.29-6.74h5.88v1.13h-4.39l3.44,11.31h-1.26l-3.68-12.44Z"/></g></svg>