<?xml version="1.0" encoding="UTF-8"?><svg xmlns="http://www.w3.org/2000/svg" width="24" height="24" viewBox="0 0 24 24"><defs><style>.c{fill:none;}</style></defs><g id="a"><rect class="c" width="24" height="24"/></g><g id="b"><path d="M11.98,21.43c-5.74,0-9.28-4.08-9.28-9.43S6.43,2.57,11.98,2.57c3.8,0,6.74,1.89,8.21,4.81,.03-.77,0-1.47,0-2.61l1.11,.06c-.01,1.41-.14,2.82-.37,4.22l-.9,.4c-1.59-.62-2.29-.93-3.71-1.56l.42-1.04c.99,.54,1.67,.82,2.49,1.21-.66-1.35-1.69-2.48-2.98-3.25-1.29-.77-2.77-1.16-4.27-1.11C7.14,3.7,3.86,7.24,3.86,11.99s3.08,8.3,8.12,8.3c3.68,0,6.57-1.95,7.76-4.81l1.04,.45c-1.36,3.3-4.59,5.51-8.81,5.51Z"/></g></svg>