<?xml version="1.0" encoding="UTF-8"?><svg xmlns="http://www.w3.org/2000/svg" width="24" height="24" viewBox="0 0 24 24"><defs><style>.c{fill:none;}</style></defs><g id="a"><rect class="c" width="24" height="24"/></g><g id="b"><path d="M3.21,15.92l1.05-.48c1.18,2.86,4.07,4.81,7.75,4.81,5.04,0,8.13-3.59,8.13-8.29S16.85,3.69,12.01,3.69c-1.5-.05-2.98,.34-4.27,1.11s-2.32,1.9-2.98,3.25c.82-.4,1.5-.68,2.5-1.22l.45,1.05c-1.42,.62-2.12,.93-3.71,1.56l-.91-.4c-.24-1.39-.37-2.8-.39-4.22l1.1-.05c0,1.13-.03,1.84,0,2.6,1.47-2.91,4.42-4.81,8.21-4.81,5.55,0,9.29,4.08,9.29,9.44s-3.54,9.43-9.29,9.43c-4.22-.02-7.44-2.23-8.8-5.51Z"/></g></svg>