<?xml version="1.0" encoding="UTF-8"?><svg xmlns="http://www.w3.org/2000/svg" width="24" height="24" viewBox="0 0 24 24"><defs><style>.c{fill:none;}</style></defs><g id="a"><rect class="c" width="24" height="24"/></g><g id="b"><path d="M11.93,1.69h-3.55c-.75,0-.99,.22-.99,.93V10.86c0,.88,.36,1.22,1.04,1.35l4.49,.83c1.43,.28,1.87,.74,1.87,1.72v.69h-1.15v-.49c0-.61-.3-.69-1.18-.85l-4.77-.87c-.96-.16-1.43-.91-1.43-1.98V2.41c0-1.38,.77-1.85,1.98-1.85h3.69V1.69Zm-1.3,8.92l2.81-2.8-2.81-2.81,.77-.77,2.8,2.8,2.73-2.72,.77,.77-2.72,2.73,2.72,2.72-.77,.75-2.73-2.75-2.8,2.81-.77-.72Zm1.07,12.94l-.99-.57c.86-2.19,1.92-4.31,3.17-6.31h.69c1.23,2.01,2.29,4.12,3.17,6.31l-.99,.57h-5.04Zm4.63-1.1c-.61-1.44-1.32-2.83-2.12-4.18-.78,1.34-1.47,2.72-2.06,4.15l4.19,.02ZM14.08,2.21c-.66,0-.88-.25-.88-.88s.22-.88,.88-.88,.88,.25,.88,.88-.28,.88-.88,.88Zm.57,1.15v1.43l-.57,.57-.57-.57v-1.43h1.15Zm-1.15,7.51l.57-.57,.57,.57v1.66c-.33-.27-.72-.45-1.15-.5v-1.16Z"/></g></svg>