<?xml version="1.0" encoding="UTF-8"?><svg xmlns="http://www.w3.org/2000/svg" width="24" height="24" viewBox="0 0 24 24"><defs><style>.c{fill:none;}</style></defs><g id="a"><rect class="c" width="24" height="24"/></g><g id="b"><path d="M1.27,18.13V3.52l7.38,2.33,6.7-2.33,7.38,2.33v14.63l-7.38-2.35-6.7,2.35-7.38-2.35ZM2.4,4.97v12.41l6.27,1.98,6.7-2.33,6.26,1.98V6.62l-6.28-1.98-6.7,2.33-6.25-2Zm.57,3.91l.19-1.13c2.31,.03,4.62,.27,6.9,.71l.23,.63c-1.4,1.85-2.96,3.57-4.67,5.13l-.89-.71-1.75-4.63Zm2.63,3.88c1.11-1.06,2.14-2.19,3.1-3.39-1.51-.26-3.03-.42-4.56-.46l1.46,3.85Zm9.46-2.37c.28-.08,.53-.25,.7-.49,.17-.24,.26-.52,.25-.81,.01-.15,0-.31-.06-.45-.05-.14-.13-.27-.24-.38-.11-.11-.24-.19-.38-.24-.14-.05-.3-.07-.45-.06-.51,.04-1.02,.16-1.49,.36l-1.93,.62-.31-.98,2.36-.79c.47-.16,.97-.25,1.46-.27,.29-.01,.58,.03,.85,.14,.27,.11,.51,.27,.72,.47,.2,.21,.36,.45,.46,.73,.1,.27,.14,.56,.12,.85,0,1.13-.6,1.87-1.76,2.31l-3.07,1.16c-.27,.07-.5,.22-.67,.44-.17,.22-.26,.48-.25,.76-.01,.15,0,.31,.06,.45,.05,.14,.13,.27,.24,.38,.11,.11,.24,.19,.38,.24,.14,.05,.3,.07,.45,.06,.44-.03,.88-.12,1.3-.27l3.09-1.06,.33,1.03-3.31,1.13c-.48,.16-.99,.24-1.49,.24-.28,.01-.57-.03-.83-.14-.27-.1-.51-.26-.71-.46-.2-.2-.36-.44-.46-.71-.1-.27-.15-.55-.14-.83,0-1.13,.62-1.87,1.79-2.31l3-1.12Zm4.61,2.77c0,.13,0,.26-.05,.38-.04,.12-.11,.23-.2,.33-.09,.09-.19,.17-.31,.22-.12,.05-.24,.08-.37,.08s-.25-.03-.37-.08c-.12-.05-.22-.13-.31-.22-.09-.09-.15-.2-.2-.33-.04-.12-.06-.25-.05-.38,0-.12,.02-.25,.06-.36,.04-.11,.11-.22,.2-.3,.09-.09,.19-.15,.31-.2,.11-.04,.24-.06,.36-.06,.12,0,.25,.01,.36,.06,.11,.04,.22,.11,.31,.2,.09,.09,.15,.19,.2,.31,.04,.11,.06,.24,.06,.36h0Z"/></g></svg>