<?xml version="1.0" encoding="UTF-8"?><svg xmlns="http://www.w3.org/2000/svg" width="24" height="24" viewBox="0 0 24 24"><defs><style>.c{fill:none;}</style></defs><g id="a"><rect class="c" width="24" height="24"/></g><g id="b"><path d="M23.45,2.77V21.23H.55V2.77H23.45ZM1.68,3.92v1.27H6.27v-1.27H1.68Zm20.64,13.88V6.26H1.68v11.51l20.64,.02ZM1.68,18.89v1.26H6.27v-1.26H1.68Zm1.68-9.41l.19-1.15c2.35,.03,4.69,.27,7,.72l.25,.63c-1.42,1.88-3,3.62-4.74,5.21l-.91-.72-1.79-4.68Zm2.67,3.93c1.12-1.08,2.17-2.23,3.14-3.44-1.53-.27-3.08-.42-4.63-.46l1.49,3.9ZM7.38,3.92v1.27h9.17v-1.27H7.38Zm0,14.98v1.26h9.17v-1.26H7.38Zm8.26-7.92c.28-.08,.53-.25,.71-.49,.17-.24,.26-.53,.25-.83,.01-.15,0-.31-.06-.45-.05-.15-.14-.28-.25-.39-.11-.11-.24-.19-.39-.25-.15-.05-.3-.07-.46-.06-.52,.04-1.03,.17-1.51,.36l-1.96,.63-.32-.99,2.4-.8c.48-.16,.98-.26,1.49-.28,.29-.01,.58,.03,.85,.14,.27,.1,.52,.26,.72,.47,.21,.2,.37,.45,.47,.72,.1,.27,.15,.56,.14,.85,0,1.15-.61,1.9-1.79,2.34l-3.11,1.18c-.27,.07-.51,.22-.68,.44-.17,.22-.26,.49-.26,.77-.01,.15,0,.31,.06,.46,.05,.15,.14,.28,.25,.39,.11,.11,.24,.19,.39,.25,.15,.05,.3,.07,.45,.06,.45-.03,.89-.13,1.32-.28l3.14-1.07,.33,1.04-3.36,1.15c-.49,.16-1,.24-1.51,.25-.29,.01-.58-.03-.85-.14-.27-.1-.51-.26-.72-.47-.2-.2-.36-.45-.47-.72-.1-.27-.15-.56-.14-.85,0-1.15,.63-1.9,1.82-2.34l3.04-1.09Zm2.06-7.05v1.27h4.62v-1.27h-4.62Zm0,14.98v1.26h4.62v-1.26h-4.62Zm2.61-5.09c.01,.13,0,.26-.05,.38-.04,.12-.11,.23-.2,.33-.09,.1-.19,.17-.31,.22-.12,.05-.25,.08-.38,.08s-.26-.03-.38-.08c-.12-.05-.23-.13-.31-.22-.09-.1-.16-.21-.2-.33-.04-.12-.06-.25-.05-.38,0-.12,.02-.25,.06-.36,.05-.12,.11-.22,.2-.31,.09-.09,.19-.16,.31-.2,.12-.04,.24-.07,.37-.06,.12,0,.24,.01,.36,.06,.11,.04,.22,.11,.31,.2,.09,.09,.16,.19,.2,.3,.05,.11,.07,.24,.06,.36v.02Z"/></g></svg>