<svg id="Icones" xmlns="http://www.w3.org/2000/svg" width="32" height="32" viewBox="0 0 32 32"><defs><style>.cls-1{fill:none;}</style></defs><rect class="cls-1" width="32" height="32"/><path d="M15.55,27.15C10.14,25.33,6.91,21.7,6.91,16V8.15c4.1,0,6.07-.88,8.61-3.35h.63c2.53,2.47,4.51,3.35,8.61,3.35V16c0,5.73-3.23,9.36-8.64,11.18ZM23.72,16V9.18A11,11,0,0,1,15.83,6,10.67,10.67,0,0,1,7.94,9.18V16c0,5.29,3.2,8.67,7.89,10.18C20.53,24.64,23.72,21.26,23.72,16Zm-7.85,4.48H14.71a24.54,24.54,0,0,1-3.07-3.79l.88-.62a26.93,26.93,0,0,0,2.72,3.44c1.47-2.22,2.85-4.51,4.13-6.89l1,.53A60.33,60.33,0,0,1,15.87,20.45Z"/></svg>