<?xml version="1.0" encoding="UTF-8"?><svg xmlns="http://www.w3.org/2000/svg" width="24" height="24" viewBox="0 0 24 24"><defs><style>.c{fill:none;}</style></defs><g id="a"><rect class="c" width="24" height="24"/></g><g id="b"><path d="M11.74,21.85c-4.88-1.6-7.78-4.8-7.78-9.85V5.1c3.7,0,5.47-.77,7.75-2.95h.57c2.3,2.18,4.06,2.95,7.75,2.95v6.9c0,5.05-2.87,8.25-7.78,9.85h-.52Zm.25-1.07c4.41-1.6,6.9-4.44,6.9-8.77V6.18c-2.56,0-5.02-.97-6.9-2.7-1.88,1.72-4.34,2.69-6.9,2.7v5.82c0,4.33,2.48,7.17,6.9,8.77Zm.08-4.67h-.44c-1.15-1.47-2.21-3-3.17-4.6l.97-.61c.74,1.23,1.54,2.42,2.4,3.56,1.26-1.98,2.38-4.04,3.34-6.18l.99,.49c-1.15,2.55-2.52,5.01-4.08,7.33h0Z"/></g></svg>