<svg id="Icones" xmlns="http://www.w3.org/2000/svg" width="32" height="32" viewBox="0 0 32 32"><defs><style>.cls-1{fill:none;}</style></defs><rect class="cls-1" width="32" height="32"/><path d="M7.21,14.44a5.88,5.88,0,0,1,.53-1.26A5.37,5.37,0,0,1,7.18,11c0-.76.31-1.29,1.16-1.29a5.43,5.43,0,0,1,2.32.63A8.75,8.75,0,0,1,13,9.57,2.65,2.65,0,0,1,15.83,7a2.64,2.64,0,0,1,2.79,2.57,7.13,7.13,0,0,1,5.52,4.21h.13a1.15,1.15,0,0,0,1.25-1.19,1.17,1.17,0,0,0-1.31-1.2V10.33a2.22,2.22,0,0,1,2.41,2.26,2.18,2.18,0,0,1-2.13,2.25,8.76,8.76,0,0,1,.28,2.29,7.28,7.28,0,0,1-2.57,5.93,2.7,2.7,0,0,1,.31,1.19c0,1.16-2.16,1.79-3.32,1.79a1.72,1.72,0,0,1-1.51-1.22,12.56,12.56,0,0,1-1.88.12A17.74,17.74,0,0,1,14,24.85,1.75,1.75,0,0,1,12.48,26c-1.16,0-3.33-.63-3.33-1.79a3,3,0,0,1,.29-1.16,6.57,6.57,0,0,1-2.23-3.26c-2.13-.38-2.57-1.13-2.57-2.7S5.08,14.81,7.21,14.44Zm5.64-1.29-.28-1a8.24,8.24,0,0,1,1.19-.38,2.82,2.82,0,0,1-.62-1.19,8.39,8.39,0,0,0-2.51.94,4.91,4.91,0,0,0-2.07-.75c-.19,0-.32.15-.32.44a4.46,4.46,0,0,0,.69,2,5.17,5.17,0,0,0-.84,2.2c-2,.28-2.35.5-2.35,1.69s.34,1.41,2.35,1.7a5.54,5.54,0,0,0,2.63,3.85,3.19,3.19,0,0,0-.5,1.29c0,.56,1.51,1,2.2,1,.5,0,.75-.69,1-1.31a12.13,12.13,0,0,0,2.41.22,12.64,12.64,0,0,0,2.48-.22c.22.62.47,1.31,1,1.31.69,0,2.2-.44,2.2-1a3.19,3.19,0,0,0-.5-1.29,6.21,6.21,0,0,0,2.72-5.55c0-3.42-1.72-5.74-5.17-6.46a2.48,2.48,0,0,1-.63,1.13,8.36,8.36,0,0,1,1.23.38l-.29,1a8.21,8.21,0,0,0-6,0Zm3-1.63a1.59,1.59,0,0,0,1.7-1.73,1.59,1.59,0,0,0-1.7-1.72,1.57,1.57,0,0,0-1.69,1.72A1.58,1.58,0,0,0,15.83,11.52Z"/></svg>