<?xml version="1.0" encoding="UTF-8"?><svg xmlns="http://www.w3.org/2000/svg" width="24" height="24" viewBox="0 0 24 24"><defs><style>.c{fill:none;}</style></defs><g id="a"><rect class="c" width="24" height="24"/></g><g id="b"><path d="M2.06,9.99c-.06-1.55-.11-2.99-.11-4.32,0-.99,.03-1.89,.08-2.73l.85-.85c1.18-.09,2.43-.14,3.79-.14,1.04,0,2.14,0,3.27,.11l11.41,11.4c.2,.16,.37,.37,.49,.6,.12,.23,.2,.48,.22,.74-.02,.28-.1,.55-.24,.8-.13,.25-.31,.47-.53,.64l-5.05,5.05c-.18,.22-.39,.4-.64,.53-.25,.13-.52,.21-.8,.23-.26-.02-.52-.09-.75-.21-.23-.12-.44-.29-.6-.49L2.06,9.99Zm12.71,10.81c.26,0,.51-.16,.85-.51l4.67-4.66c.34-.34,.51-.59,.51-.85s-.2-.48-.51-.79L9.44,3.16c-1.13,0-2.15-.05-3.07-.05-1.18,0-2.18,0-3.22,.08v2.48c0,1.18,0,2.43,.11,3.87l10.72,10.75c.31,.31,.53,.51,.79,.51ZM7.61,9.76c-.62-.02-1.21-.27-1.64-.71-.44-.44-.69-1.02-.71-1.64,0-.3,.06-.6,.18-.88,.12-.28,.29-.53,.5-.74,.21-.21,.47-.38,.75-.49,.28-.11,.58-.17,.88-.17,.61,.02,1.2,.26,1.63,.69,.44,.43,.69,1.01,.72,1.62,0,.61-.25,1.2-.68,1.63-.43,.43-1.01,.68-1.63,.69Zm1.18-2.35c0-.24-.07-.48-.2-.68-.13-.2-.32-.36-.55-.45-.22-.09-.47-.12-.7-.07-.24,.05-.45,.16-.62,.33-.17,.17-.29,.39-.33,.62-.05,.24-.02,.48,.07,.7,.09,.22,.25,.41,.45,.55,.2,.13,.44,.21,.68,.21,.16,0,.32-.02,.47-.08,.15-.06,.29-.14,.4-.26,.12-.11,.21-.25,.27-.4,.06-.15,.09-.31,.09-.47h-.01Z"/></g></svg>