<svg id="Icones" xmlns="http://www.w3.org/2000/svg" width="32" height="32" viewBox="0 0 32 32"><defs><style>.cls-1{fill:none;}</style></defs><rect class="cls-1" width="32" height="32"/><path d="M4.64,5.72l.94-.94a63.81,63.81,0,0,1,7.84,0l12.86,12.7A2,2,0,0,1,27,18.92a2.17,2.17,0,0,1-.79,1.47l-5.51,6a2.15,2.15,0,0,1-1.54.82,2.16,2.16,0,0,1-1.54-.76l-13-12.82A64.3,64.3,0,0,1,4.64,5.72ZM18.28,25.47a1.33,1.33,0,0,0,.91.51c.28,0,.53-.16.91-.57l5.39-5.8c.28-.31.35-.44.35-.66a1,1,0,0,0-.41-.75L12.89,5.84a71,71,0,0,0-7.15,0,66.88,66.88,0,0,0,0,7.22ZM9.62,11.9A2.09,2.09,0,0,1,7.4,9.67,2.08,2.08,0,0,1,9.62,7.44a2.06,2.06,0,0,1,2.23,2.23A2.08,2.08,0,0,1,9.62,11.9Zm0-3.45A1.09,1.09,0,0,0,8.4,9.67a1.11,1.11,0,0,0,1.22,1.22,1.1,1.1,0,0,0,1.23-1.22A1.08,1.08,0,0,0,9.62,8.45Z"/></svg>