<?xml version="1.0" encoding="UTF-8"?><svg xmlns="http://www.w3.org/2000/svg" width="24" height="24" viewBox="0 0 24 24"><defs><style>.c{fill:none;}</style></defs><g id="a"><rect class="c" y="0" width="24" height="24"/></g><g id="b"><path d="M20.04,8.15v11.56c0,1.33-.64,1.97-1.97,1.97H5.93c-1.34,0-1.97-.64-1.97-1.97V7.46c0-1.33,.64-1.97,1.97-1.97h11.45c.97,.8,1.86,1.7,2.67,2.67Zm-1.12,11.35V8.6c-.6-.71-1.25-1.36-1.94-1.97h-.37v3.47H7.36v-3.47h-1.31c-.72,0-1,.31-1,1.03v11.85c0,.72,.28,1.03,1,1.03h11.88c.72,0,.99-.31,.99-1.03Zm-3.47-12.88h-6.94v2.36h6.94v-2.36Zm-3.47,5.78c1.83,0,2.94,1.11,2.94,2.97s-1.1,2.97-2.94,2.97-2.94-1.11-2.94-2.97,1.12-2.97,2.94-2.97h0Zm0,1.16c-.24-.02-.49,.01-.72,.1-.23,.09-.44,.22-.61,.4s-.3,.39-.39,.62c-.08,.23-.11,.48-.09,.72-.02,.24,.02,.48,.1,.71,.08,.23,.22,.43,.39,.6,.17,.17,.38,.3,.6,.39,.23,.08,.47,.12,.71,.1,.24,.02,.49-.01,.72-.1,.23-.09,.44-.22,.61-.39,.17-.18,.3-.39,.39-.62,.08-.23,.11-.48,.09-.72,.03-.25,0-.5-.07-.73-.08-.24-.21-.45-.38-.63-.17-.18-.38-.32-.62-.4-.23-.09-.48-.12-.73-.09v.05Z"/></g></svg>