<svg id="Icones" xmlns="http://www.w3.org/2000/svg" width="32" height="32" viewBox="0 0 32 32"><defs><style>.cls-1{fill:none;}</style></defs><rect class="cls-1" width="32" height="32"/><path d="M24.77,10.05V22.68a2,2,0,0,1-2.23,2.23H9.09a2,2,0,0,1-2.23-2.23V9.26A2,2,0,0,1,9.09,7H21.76A23.22,23.22,0,0,1,24.77,10.05Zm-1.1,12.63V10.36A25.18,25.18,0,0,0,21.42,8.1v4.49H10.22V8.1H9.09C8.28,8.1,8,8.45,8,9.26V22.68c0,.82.32,1.16,1.13,1.16H22.54C23.36,23.84,23.67,23.5,23.67,22.68ZM20.32,8.1h-9v3.42h9Zm-4.49,6.77a3.08,3.08,0,0,1,3.33,3.36,3.07,3.07,0,0,1-3.33,3.32,3.06,3.06,0,0,1-3.32-3.32A3.08,3.08,0,0,1,15.83,14.87Zm0,1.07a2.1,2.1,0,0,0-2.25,2.29,2.1,2.1,0,0,0,2.25,2.26,2.1,2.1,0,0,0,2.26-2.26A2.09,2.09,0,0,0,15.83,15.94Z"/></svg>