<?xml version="1.0" encoding="UTF-8"?><svg xmlns="http://www.w3.org/2000/svg" width="24" height="24" viewBox="0 0 24 24"><defs><style>.c{fill:none;}</style></defs><g id="a"><rect class="c" width="24" height="24"/></g><g id="b"><path d="M3.77,9.78c.22-.42,.47-.81,.76-1.18-.22-.55-.33-1.13-.34-1.73,0-.79,.34-1.36,1.24-1.36,.68,.04,1.35,.22,1.95,.54,.71-.37,1.46-.64,2.23-.82,.08-.6,.39-1.15,.86-1.54s1.07-.58,1.68-.54c.61-.03,1.21,.17,1.67,.57s.77,.95,.84,1.55c2.46,.54,4.12,1.87,4.95,3.79h.68c.68,0,1.13-.31,1.13-.97s-.45-.99-1.18-.99v-1.1c1.41,0,2.36,.8,2.36,2.12s-.93,2.13-2.29,2.13h-.31c.15,.68,.23,1.37,.23,2.06,0,2.29-.74,4.44-2.18,5.74,.16,.32,.24,.67,.25,1.02,0,1.18-2.06,1.77-3.16,1.77-.32-.02-.63-.13-.89-.32-.26-.19-.46-.45-.58-.76-.51,.06-1.02,.09-1.53,.09-.5,0-1-.03-1.5-.09-.11,.3-.31,.56-.56,.75-.25,.19-.56,.31-.88,.33-1.13,0-3.25-.62-3.25-1.77,0-.31,.07-.62,.19-.9-1.1-.87-1.93-2.03-2.4-3.34-1.95-.34-2.36-1.07-2.36-2.52s.37-2.24,2.38-2.55Zm5.83-.88l-.38-1.08c.34-.14,.69-.25,1.05-.34-.28-.3-.48-.66-.59-1.05-.79,.18-1.55,.5-2.23,.94-.54-.36-1.17-.6-1.81-.68-.17,0-.28,.14-.28,.4,.02,.61,.21,1.21,.54,1.72-.58,.53-1.01,1.21-1.24,1.96-1.82,.25-2.13,.45-2.13,1.53s.31,1.27,2.13,1.53c.17,.81,.52,1.57,1.02,2.23,.5,.66,1.13,1.2,1.87,1.59-.24,.35-.39,.76-.45,1.18,0,.51,1.36,.91,1.98,.91,.45,0,.68-.62,.88-1.18,.72,.14,1.45,.21,2.18,.2,.75,.01,1.5-.06,2.23-.2,.2,.59,.42,1.18,.88,1.18,.59,0,1.98-.4,1.98-.91-.06-.42-.22-.82-.45-1.18,1.53-1.04,2.29-3.14,2.29-5.34,0-3.06-1.47-5.15-4.44-5.83-.11,.38-.31,.74-.59,1.02,.37,.08,.73,.19,1.08,.34l-.39,1.08c-1.64-.64-3.46-.64-5.09,0h0Zm2.56-1.64c.19,0,.39-.03,.57-.1,.18-.07,.34-.19,.47-.33,.13-.14,.23-.31,.29-.5,.06-.18,.08-.38,.06-.57,.01-.19-.01-.38-.08-.56-.06-.18-.16-.34-.29-.48-.13-.14-.29-.25-.46-.33-.17-.08-.36-.11-.55-.11s-.38,.04-.55,.11c-.17,.08-.33,.19-.46,.33-.13,.14-.23,.3-.29,.48-.06,.18-.09,.37-.08,.56-.03,.19,0,.39,.05,.58,.06,.19,.16,.36,.29,.5,.13,.14,.3,.25,.48,.33,.18,.07,.38,.1,.57,.09h0Z"/></g></svg>