<svg id="Icones" xmlns="http://www.w3.org/2000/svg" width="32" height="32" viewBox="0 0 32 32"><defs><style>.cls-1{fill:none;}</style></defs><rect class="cls-1" width="32" height="32"/><path d="M3.82,9.14a34.08,34.08,0,0,0,3,1.94l-.5.85C4.64,10.8,3.51,10,2.35,9.07V8.23a46.1,46.1,0,0,1,4-2.86l.5.85a34.08,34.08,0,0,0-3,1.94l7.5-.06,7.49.06a32.66,32.66,0,0,0-3-1.94l.5-.85a44.91,44.91,0,0,1,4,2.86v.84c-1.16.91-2.29,1.73-4,2.86l-.5-.85a32.66,32.66,0,0,0,3-1.94l-7.49.06Zm5.62,7.24a2.63,2.63,0,0,0-2.86-.63,2.84,2.84,0,0,0-1.91,3.48,3.74,3.74,0,0,0,.78,1.23l1.1,1.09-.78.79L4.58,21.15a4.36,4.36,0,0,1-1-1.54,3.88,3.88,0,0,1,2.58-4.83,3.75,3.75,0,0,1,4,.88l1.16,1.16-.75.75ZM21.1,27.07c.41-.31.57-.56.5-.94a1,1,0,0,0-.69-.72l-.18-1a1,1,0,0,0,.4-1,.94.94,0,0,0-.72-.79l-.15-1a1.1,1.1,0,0,0,.37-1,1,1,0,0,0-.72-.85l-.16-1,3.64-2.61c.25-.18.41-.34.41-.62a.78.78,0,0,0-.66-.76,1,1,0,0,0-.63.25l-10,7.28L8.34,18.23a1.16,1.16,0,0,0-.91-.44.7.7,0,0,0-.69.72c0,.29.06.47.5.91l3.7,3.7.82,3.14-1,.38-.78-2.95L6.39,20.14a2.22,2.22,0,0,1-.75-1.6,1.85,1.85,0,0,1,1.88-1.81A1.94,1.94,0,0,1,9,17.35l3.57,3.58L22,14.12a1.84,1.84,0,0,1,1.1-.37,1.8,1.8,0,0,1,1.78,1.81A1.86,1.86,0,0,1,24,17.1L21,19.3a2.1,2.1,0,0,1,.72,1.16A1.69,1.69,0,0,1,21.23,22a2,2,0,0,1,.94,1.29,1.72,1.72,0,0,1-.38,1.41A1.85,1.85,0,0,1,22.67,26a2,2,0,0,1-1.07,2L20,29.21l-1-.57Zm3.7-9.18A2.6,2.6,0,0,0,26,15.69a2.92,2.92,0,0,0-2.79-3,3,3,0,0,0-1.69.56l-1.32.94-.63-.87,1.42-1a3.64,3.64,0,0,1,2.22-.69,4,4,0,0,1,3.89,4.08,3.93,3.93,0,0,1-1.63,3.13l-1.38,1-.63-.88Z"/></svg>