<svg id="Icones" xmlns="http://www.w3.org/2000/svg" width="32" height="32" viewBox="0 0 32 32"><defs><style>.cls-1{fill:none;}</style></defs><rect class="cls-1" width="32" height="32"/><path d="M6.8,16.76c.69-.94,1.16-1.7,2-3l.84.5c-1.13,1.69-1.94,2.82-2.85,4H5.89a46.24,46.24,0,0,1-2.85-4l.85-.5a34.08,34.08,0,0,0,1.94,3l-.06-6.37L5.83,4A34.39,34.39,0,0,0,3.89,7L3,6.53a46.24,46.24,0,0,1,2.85-4h.85c.91,1.16,1.72,2.29,2.85,4L8.75,7C8,5.72,7.49,5,6.8,4l.06,6.37Zm5.71,3.07a3.23,3.23,0,0,0-1.57-.5,3.05,3.05,0,0,0-2.95,3A2.79,2.79,0,0,0,9.31,24.6l1.29.87-.57.88-1.47-1A3.7,3.7,0,0,1,6.9,22.28a4.15,4.15,0,0,1,4-4.05,4.34,4.34,0,0,1,2.23.72l.62.38.29,1.41ZM24.8,30.24l-.47-2.6.57-.91a6.44,6.44,0,0,0,.81-1.79,9.17,9.17,0,0,0-.12-3.64l-.51-2.54c-.12-.59-.37-.87-.84-.87a1.16,1.16,0,0,0-.75.34L22.54,18a1,1,0,0,0-1-.82,1.12,1.12,0,0,0-.78.35l-.94-.25a1.13,1.13,0,0,0-1.07-.85,1.09,1.09,0,0,0-.81.35L17,16.51l-.85-4.39c-.1-.51-.38-.73-.79-.73a.67.67,0,0,0-.69.69,4.17,4.17,0,0,0,.07.44l1.94,11-.78.53-4.27-2.22a1.76,1.76,0,0,0-.81-.26.67.67,0,0,0-.66.69c0,.35.16.54.81.88l4.83,2.57,3.08,2.61-.82.66-2.88-2.45L10.41,24c-.91-.47-1.32-1-1.32-1.69a1.74,1.74,0,0,1,1.79-1.82,2.39,2.39,0,0,1,1.22.34l3.36,1.76-1.79-9.88a2.24,2.24,0,0,1-.06-.56,1.77,1.77,0,0,1,1.78-1.82,1.85,1.85,0,0,1,1.85,1.6l.69,3.7a1.89,1.89,0,0,1,.91-.25,1.77,1.77,0,0,1,1.73,1.13,1.57,1.57,0,0,1,1-.38,1.75,1.75,0,0,1,1.63,1,1.89,1.89,0,0,1,1-.28,2,2,0,0,1,1.94,1.85l.47,2.51a9.37,9.37,0,0,1,.13,4.14A6.3,6.3,0,0,1,26,27.07l-.47.76L25.9,30ZM18.25,11.39A2.79,2.79,0,0,0,15.3,9.23,2.67,2.67,0,0,0,12.45,12a4.92,4.92,0,0,0,.06.69l.25,1.5-1,.22-.29-1.63a4.6,4.6,0,0,1-.09-.91,3.72,3.72,0,0,1,4-3.67c2.1,0,3.64,1.1,3.95,2.89L19.63,13l-1,.19Z"/></svg>