<svg id="Icones" xmlns="http://www.w3.org/2000/svg" width="32" height="32" viewBox="0 0 32 32"><defs><style>.cls-1{fill:none;}</style></defs><rect class="cls-1" width="32" height="32"/><path d="M7.37,17.16,4.2,23.94c1-.57,1.75-1.07,3-1.92l.56.79c-1.72,1.07-2.94,1.76-4.26,2.45l-.75-.38a43,43,0,0,1-.94-4.8l1-.09c.19,1.53.28,2.41.5,3.57l3.1-6.87Zm7-3.6A2.6,2.6,0,0,0,12,12.21a2.83,2.83,0,0,0-2.95,2.73,3.56,3.56,0,0,0,.5,1.75l.69,1.23-.91.53-.75-1.38A4.19,4.19,0,0,1,8,15a3.94,3.94,0,0,1,4-3.86,3.58,3.58,0,0,1,3.3,1.79l.37.63-.5,1.28ZM9.75,9.48,13,2.68c-1,.59-1.76,1.06-3,1.94l-.57-.81a44.14,44.14,0,0,1,4.27-2.42l.75.35c.34,1.44.63,2.79.94,4.79l-1,.13c-.19-1.54-.28-2.45-.5-3.61L10.72,10Zm3.83,12.45-3-5.49a2.71,2.71,0,0,1-.41-1.35A1.73,1.73,0,0,1,12,13.28a1.85,1.85,0,0,1,1.75,1.12l1.57,2.8,3.48-9.54a1.79,1.79,0,0,1,1.73-1.28,1.86,1.86,0,0,1,1.88,1.75,2.1,2.1,0,0,1-.22.94L21,12.46h0a1.84,1.84,0,0,1,1.82,1.79.89.89,0,0,1,0,.28,1.05,1.05,0,0,1,.31,0,1.72,1.72,0,0,1,1.69,1.69.56.56,0,0,1,0,.22h.13a1.79,1.79,0,0,1,1.85,1.88,3.66,3.66,0,0,1-.19,1l-.63,1.82a10.44,10.44,0,0,1-2.29,4.23,4.83,4.83,0,0,1-1.44,1l-.75.44-.79,2.1-1-.31L20.51,26l.94-.47a6.6,6.6,0,0,0,1.44-1.1,8.2,8.2,0,0,0,1.85-3.29l.85-2.42a1.56,1.56,0,0,0,.09-.5.79.79,0,0,0-.88-.81,1.42,1.42,0,0,0-.34,0l-.69-.69a1.71,1.71,0,0,0,.06-.35,1,1,0,0,0-.94-1,2,2,0,0,0-.41,0l-.69-.66a1.63,1.63,0,0,0,.06-.34,1.17,1.17,0,0,0-1.09-1.1,1.38,1.38,0,0,0-.35,0l-.69-.66,1.48-4a1.6,1.6,0,0,0,.15-.57.76.76,0,0,0-.78-.72c-.28,0-.47.13-.63.54L15.83,19l-1-.4L12.89,15c-.26-.47-.51-.66-.88-.66a.7.7,0,0,0-.72.75,2,2,0,0,0,.31.95l3.1,5.61.16,3.26-1.1.16ZM23.33,9.26a3.42,3.42,0,0,0,.28-1.35,3.14,3.14,0,0,0-3.1-2.66,2.74,2.74,0,0,0-2.58,1.91L17.37,8.7l-1-.35L17,6.69a3.59,3.59,0,0,1,3.48-2.51,4.13,4.13,0,0,1,4.24,3.76,4.07,4.07,0,0,1-.35,1.6L23.8,11l-1-.38Z"/></svg>