<?xml version="1.0" encoding="UTF-8"?><svg xmlns="http://www.w3.org/2000/svg" width="24" height="24" viewBox="0 0 24 24"><defs><style>.c{fill:none;}</style></defs><g id="a"><rect class="c" width="24" height="24"/></g><g id="b"><path d="M2.52,2.54h2.99v1h-2v2h-1V2.54Zm1,15.97v2h2v1H2.52v-2.99h1Zm1-6.99h2.99v1h-2.99v-1Zm5.99-6.99v5.99H4.52V4.53h5.99Zm0,8.98v5.99H4.52v-5.99h5.99Zm-4.99-3.99h3.99v-3.99h-3.99v3.99Zm0,8.98h3.99v-3.99h-3.99v3.99Zm1-11.98h2v2h-2v-2Zm0,8.98h2v2h-2v-2Zm2.99-3.99h6.05v1h-6.04v-1Zm1.99-6.99h1v4.96h-1V4.53Zm1.03,8.98h1v4.99h-1v-4.99Zm0,4.99h4.96v1h-4.96v-1Zm6.95-13.99v5.99h-5.99V4.52h5.99Zm-4.99,4.99h3.99v-3.99h-3.99v3.99Zm1-3.02h2v2h-2v-2Zm.03,4.99h1v4.99h-1v-4.99Zm4.96-5.99v-2h-2v-1h2.99v2.99h-1Zm-2,6.99h1v4.99h-1v-4.99Zm2.99,9.01h-2.99v-1h2v-2h1v2.99Z"/></g></svg>