<?xml version="1.0" encoding="UTF-8"?><svg xmlns="http://www.w3.org/2000/svg" width="24" height="24" viewBox="0 0 24 24"><defs><style>.c{fill:none;}</style></defs><g id="a"><rect class="c" width="24" height="24"/></g><g id="b"><path d="M2.51,2.51h3v1h-2v2h-1V2.51Zm1,15.99v2h2v1H2.51v-3h1Zm6.38-5.68c-.49-.4-.87-.91-1.13-1.49-.25-.58-.37-1.21-.33-1.84,0-2.33,1.34-4,3.57-4s3.57,1.65,3.57,4c0,1.46-.5,2.64-1.44,3.33,1.13,.24,2.15,.81,2.95,1.64,.8,.83,1.32,1.88,1.51,3.02h-1.1c-.67-2.8-2.76-4-5.5-4s-4.82,1.2-5.5,4h-1.12c.19-1.14,.72-2.2,1.52-3.03,.81-.83,1.85-1.4,2.98-1.62h0Zm2.11-.29c1.73,0,2.5-1.27,2.5-3.04s-.79-3.05-2.5-3.05-2.5,1.27-2.5,3.05,.82,3.04,2.5,3.04Zm9.49,8.95h-3v-1h2v-2h1v3Zm-1-15.99v-2h-2v-1h3v3h-1Z"/></g></svg>