<?xml version="1.0" encoding="UTF-8"?><svg xmlns="http://www.w3.org/2000/svg" width="24" height="24" viewBox="0 0 24 24"><defs><style>.c{fill:none;}</style></defs><g id="a"><rect class="c" width="24" height="24"/></g><g id="b"><path d="M2.52,2.51h3v1h-2v2h-1V2.51Zm1,15.99v2h2v1H2.52v-3h1Zm3-3c.01-3.95,2.72-6.08,5.57-6.08,3,0,5.5,2.16,5.5,3.84,0,.91-.45,1.25-1.2,1.25-1.7,0-2.21-2.04-4.37-2.04-1.34,0-2.47,1.17-2.47,2.83,0,.74,.15,1.47,.45,2.15,.3,.68,.73,1.29,1.27,1.79l.67-.7c-.45-.39-.81-.87-1.06-1.4-.25-.54-.38-1.12-.38-1.71,0-1.25,.6-1.94,1.56-1.94,1.5,0,2.2,2.04,4.36,2.04,1.3,0,2.09-.82,2.09-2.21,0-2.3-3.14-4.8-6.49-4.8s-6.49,2.47-6.49,7h.99Zm12.17-6.25l-.61,.69c-1.56-1.54-3.64-2.43-5.83-2.5-1.14,.01-2.27,.27-3.31,.74-1.04,.48-1.97,1.16-2.73,2.02l-.62-.71c.85-.93,1.87-1.67,3.01-2.19,1.14-.52,2.38-.8,3.63-.83,2.09,0,4.27,.67,6.45,2.78Zm-1.03-3.33l-.38,.82c-1.54-.81-3.25-1.25-5-1.27-1.92-.02-3.81,.52-5.44,1.55l-.45-.81c1.76-1.12,3.79-1.71,5.88-1.7,1.89,.03,3.74,.52,5.4,1.42Zm-1.77,7.64c-1-1.27-2.11-2.11-3.86-2.11-2.04,0-3.5,1.5-3.5,3.94,.02,1,.23,1.99,.62,2.9l-.89,.31c-.46-1-.7-2.09-.7-3.19,0-3.36,2.4-4.9,4.46-4.9,2.35,0,3.67,1.34,4.61,2.54l-.74,.5Zm-4.39,1.15c.12,.71,.44,1.37,.92,1.9s1.12,.91,1.81,1.09l.43-.89c-1.1-.36-1.94-.96-2.23-2.33l-.94,.22Zm9.99,6.76h-3v-1h2v-2h1v3Zm-1-15.99v-2h-2v-1h3v3h-1Z"/></g></svg>