<svg id="Icones" xmlns="http://www.w3.org/2000/svg" width="32" height="32" viewBox="0 0 32 32"><defs><style>.cls-1{fill:none;}</style></defs><rect class="cls-1" width="32" height="32"/><path d="M6.8,20.11a34.76,34.76,0,0,0,2-3l.84.5c-1.13,1.7-1.94,2.83-2.85,4H5.89A45,45,0,0,1,3,17.6l.85-.5a32.66,32.66,0,0,0,1.94,3l-.06-7.49.06-7.5a34.08,34.08,0,0,0-1.94,3L3,7.63a46.24,46.24,0,0,1,2.85-4h.85c.91,1.16,1.72,2.29,2.85,4l-.84.5C8,6.82,7.49,6.06,6.8,5.12l.06,7.5Zm8.94-9.31a2.58,2.58,0,0,0-2.48-1.57,2.8,2.8,0,0,0-3,2.63,3.6,3.6,0,0,0,.28,1.42l.69,1.47-.94.47-.75-1.6a4,4,0,0,1-.37-1.76,3.9,3.9,0,0,1,4.07-3.7,3.81,3.81,0,0,1,3.45,2.23l.72,1.51-1,.43Zm10.35,6.71a10.62,10.62,0,0,1,1.38,4.64,7.84,7.84,0,0,1-.28,1.69l-.26.85.95,2-1,.5-1.13-2.41.32-1a7.21,7.21,0,0,0,.25-1.72,8.54,8.54,0,0,0-1-3.7l-1.12-2.32c-.22-.47-.48-.66-.85-.66a1,1,0,0,0-.85.56h-1a1,1,0,0,0-1.82,0h-1a1.13,1.13,0,0,0-1.95,0h-1l-1.91-4a.76.76,0,0,0-.69-.54.71.71,0,0,0-.75.66,1,1,0,0,0,.12.47l4.61,10-1,.44-3.29-2.36a.78.78,0,0,0-.54-.22.65.65,0,0,0-.69.69c0,.32.13.51.54.82l7.21,5.39,1.29,2.79-1,.44L18.53,28l-7.06-5.3a2,2,0,0,1-.87-1.53,1.77,1.77,0,0,1,1.75-1.79,2.08,2.08,0,0,1,1.32.5l1.63,1.22L11.57,13a1.88,1.88,0,0,1-.22-.91,1.77,1.77,0,0,1,1.79-1.72,1.94,1.94,0,0,1,1.75,1.1l1.57,3.42a1.77,1.77,0,0,1,1.29-.54,1.69,1.69,0,0,1,1.44.72,1.71,1.71,0,0,1,1.41-.72A1.68,1.68,0,0,1,22,15a1.79,1.79,0,0,1,1.44-.66,2.06,2.06,0,0,1,1.82,1.38Z"/></svg>