<svg id="Icones" xmlns="http://www.w3.org/2000/svg" width="32" height="32" viewBox="0 0 32 32"><defs><style>.cls-1{fill:none;}</style></defs><rect class="cls-1" width="32" height="32"/><path d="M6.8,20.11a34.76,34.76,0,0,0,2-3l.84.5c-1.13,1.7-1.94,2.83-2.85,4H5.89A45,45,0,0,1,3,17.6l.85-.5a32.66,32.66,0,0,0,1.94,3l-.06-7.49.06-7.5a34.08,34.08,0,0,0-1.94,3L3,7.63a46.24,46.24,0,0,1,2.85-4h.85c.91,1.16,1.72,2.29,2.85,4l-.84.5C8,6.82,7.49,6.06,6.8,5.12l.06,7.5Zm3.51-4.89-.75-1.6a4,4,0,0,1-.37-1.76,3.4,3.4,0,0,1,2.66-3.32,3.51,3.51,0,0,1,3.36-2,3.19,3.19,0,0,1,1.47.35,3.51,3.51,0,0,1,1.5-.35A3.35,3.35,0,0,1,21.45,8.7L22,9.76l-1,.44-.54-1.09A2.36,2.36,0,0,0,18.18,7.6a2.72,2.72,0,0,0-1.53.47,2.3,2.3,0,0,0-1.44-.47,2.59,2.59,0,0,0-2.58,1.72c-1.5.38-2.35,1.26-2.35,2.54a3.49,3.49,0,0,0,.28,1.42l.69,1.47Zm9.44,15.3L18.53,28l-7.06-5.3a2,2,0,0,1-.87-1.53,1.77,1.77,0,0,1,1.75-1.79,2.08,2.08,0,0,1,1.32.5l1.63,1.22L11.57,13a1.88,1.88,0,0,1-.22-.91,1.75,1.75,0,0,1,1.79-1.72,1.42,1.42,0,0,1,.34,0A1.71,1.71,0,0,1,15.21,8.7a1.61,1.61,0,0,1,1.44.78A1.46,1.46,0,0,1,18,8.7a1.69,1.69,0,0,1,1.66,1.13L22,14.88a1.87,1.87,0,0,1,1.35-.54,2.06,2.06,0,0,1,1.82,1.38l.88,1.79a10.62,10.62,0,0,1,1.38,4.64,7.84,7.84,0,0,1-.28,1.69l-.26.85.95,2-1,.5-1.13-2.41.32-1a7.21,7.21,0,0,0,.25-1.72,8.54,8.54,0,0,0-1-3.7l-1.12-2.32c-.22-.47-.48-.66-.85-.66a1,1,0,0,0-.85.56h-1.1l-2.66-5.71A.76.76,0,0,0,18,9.73a.7.7,0,0,0-.75.66,1,1,0,0,0,.12.47l2.48,5.33-1,.44-3-6.37a.76.76,0,0,0-.69-.53.71.71,0,0,0-.76.66,1,1,0,0,0,.13.47l2.67,5.77-1,.44-2.41-5.14a.76.76,0,0,0-.69-.54.71.71,0,0,0-.75.66,1,1,0,0,0,.12.47l4.61,10-1,.44-3.29-2.36a1.14,1.14,0,0,0-.54-.22.65.65,0,0,0-.69.69c0,.32.13.51.54.82l7.21,5.39,1.29,2.79Z"/></svg>