<?xml version="1.0" encoding="UTF-8"?><svg xmlns="http://www.w3.org/2000/svg" width="24" height="24" viewBox="0 0 24 24"><defs><style>.c{fill:none;}</style></defs><g id="a"><rect class="c" width="24" height="24"/></g><g id="b"><path d="M16.32,8.42l-.87,.62c-1.05-1.57-2.2-3.07-3.45-4.49-1.25,1.4-2.39,2.89-3.42,4.47l-.89-.59c1.16-1.74,2.44-3.38,3.84-4.92h.97c1.39,1.54,2.67,3.19,3.81,4.92h0Zm-4.79,12.08c-1.4-1.54-2.68-3.19-3.83-4.93l.89-.59c1.03,1.57,2.17,3.06,3.42,4.47,1.24-1.42,2.4-2.92,3.45-4.49l.86,.61c-1.15,1.74-2.43,3.38-3.83,4.93h-.96Z"/></g></svg>