<?xml version="1.0" encoding="UTF-8"?><svg xmlns="http://www.w3.org/2000/svg" width="24" height="24" viewBox="0 0 24 24"><defs><style>.c{fill:none;}</style></defs><g id="a"><rect class="c" width="24" height="24"/></g><g id="b"><path d="M17.45,10.39c.02,1.67-.55,3.29-1.61,4.58l5.22,5.22-.78,.8-5.25-5.25c-1.33,1.15-3.03,1.78-4.79,1.77-.97,0-1.92-.19-2.82-.57-.89-.37-1.7-.92-2.38-1.61-.68-.69-1.22-1.5-1.58-2.4-.36-.9-.54-1.85-.53-2.82,0-.95,.18-1.89,.55-2.76,.37-.87,.9-1.67,1.58-2.33,.68-.66,1.48-1.19,2.36-1.54,.88-.35,1.82-.52,2.77-.5,.97,0,1.92,.18,2.82,.55,.89,.37,1.7,.92,2.38,1.61,.68,.69,1.21,1.51,1.56,2.41,.36,.9,.53,1.86,.5,2.83h0Zm-7.31-6.27c-.8-.02-1.59,.12-2.33,.41-.74,.29-1.41,.73-1.98,1.29-.57,.56-1.02,1.22-1.32,1.96-.3,.73-.46,1.52-.45,2.32-.01,.82,.14,1.64,.44,2.4,.31,.76,.76,1.46,1.34,2.04,.58,.58,1.27,1.05,2.02,1.37,.76,.32,1.57,.48,2.4,.48,.8,.02,1.59-.12,2.33-.41,.74-.29,1.42-.73,1.98-1.29,.57-.56,1.02-1.22,1.32-1.96,.3-.74,.46-1.52,.45-2.32,.02-.82-.12-1.65-.43-2.41-.3-.77-.76-1.47-1.34-2.05-.58-.59-1.27-1.05-2.03-1.37-.76-.31-1.58-.47-2.41-.46h0Z"/></g></svg>