<?xml version="1.0" encoding="UTF-8"?><svg xmlns="http://www.w3.org/2000/svg" width="24" height="24" viewBox="0 0 24 24"><defs><style>.c{fill:none;}</style></defs><g id="a"><rect class="c" width="24" height="24"/></g><g id="b"><path d="M18.77,20.8H7.17c-.71,0-.99-.28-1.18-1.21L3.24,4.81c-.2-1.1,.39-1.6,1.1-1.6h1.26c.53-.02,1.05,.12,1.5,.41,.45,.29,.79,.71,.99,1.2l2.68,5.29c.47,.8,.74,1.71,.78,2.65,.04,.93-.15,1.86-.56,2.7l-.76,1.83h-1.21l.96-2.35c.28-.64,.42-1.33,.39-2.03s-.21-1.38-.53-2l-2.71-5.39c-.53-.96-.9-1.18-1.76-1.18h-1.03l2.88,15.34h10.86l1.49-3.02c.06-.09,.09-.2,.09-.31,0-.2-.17-.28-.51-.28h-7.3l.42-1.13h6.97c.82,0,1.58,.59,1.58,1.18,.01,.3-.04,.6-.14,.88l-1.89,3.81Z"/></g></svg>