<?xml version="1.0" encoding="UTF-8"?><svg xmlns="http://www.w3.org/2000/svg" width="24" height="24" viewBox="0 0 24 24"><defs><style>.c{fill:none;}</style></defs><g id="a"><rect class="c" width="24" height="24"/></g><g id="b"><path d="M18.83,22.07H7.13c-.71,0-1-.29-1.19-1.22L3.16,5.92c-.2-1.11,.4-1.62,1.11-1.62h1.28c.38,0,.76,.06,1.11,.2v-.97c0-1,.52-1.62,1.71-1.59h1.26l.85,1.51c.47-.27,1.01-.42,1.55-.43,.65,.02,1.27,.25,1.78,.66,.5,.41,.86,.97,1.02,1.6,.15,.63,.1,1.29-.16,1.89-.26,.6-.71,1.09-1.27,1.41l1.08,1.9c.37,.66,.74,.94,1.85,.94h1.83c1.03,0,1.65,.51,1.65,1.36,0,.37-.11,.73-.28,1.06l-1.14,2.31h.91c.83,0,1.6,.59,1.6,1.19,0,.3-.04,.6-.14,.88l-1.9,3.85ZM8.67,3.02c-.65,0-.82,.2-.82,.85v1.68c.07,.11,.14,.22,.2,.34l2.7,5.34c.48,.82,.76,1.74,.8,2.68,.04,.95-.15,1.89-.57,2.74l-.77,1.85h-1.23l.97-2.37c.28-.65,.42-1.35,.39-2.05-.03-.7-.21-1.39-.54-2.02l-2.73-5.44c-.54-.97-.91-1.19-1.78-1.19h-1.03l2.91,15.49h10.94l1.51-3.05c.06-.09,.09-.2,.09-.31,0-.2-.17-.28-.52-.28h-7.35l.43-1.14h4.81l1.42-2.88c.07-.11,.11-.24,.12-.37,0-.22-.17-.37-.54-.37h-2.25c-1.28,0-1.71-.28-2.31-1.34L8.87,3.02h-.2Zm2.37,1.4l1.78,3.13c.3-.15,.56-.38,.74-.67,.18-.29,.28-.62,.29-.96,0-.24-.05-.48-.14-.7-.09-.22-.22-.42-.39-.59-.17-.17-.37-.3-.59-.39-.22-.09-.46-.14-.7-.14-.36,0-.7,.12-.99,.34v-.02Z"/></g></svg>