<?xml version="1.0" encoding="UTF-8"?><svg xmlns="http://www.w3.org/2000/svg" width="24" height="24" viewBox="0 0 24 24"><defs><style>.c{fill:none;}</style></defs><g id="a"><rect class="c" width="24" height="24"/></g><g id="b"><path d="M18.77,20.8H7.17c-.7,0-.99-.28-1.17-1.21L3.24,4.81c-.2-1.1,.39-1.6,1.1-1.6h1.27c.53-.02,1.05,.12,1.5,.4,.45,.29,.79,.71,.99,1.2l2.68,5.29c.47,.81,.73,1.72,.77,2.65,.03,.93-.16,1.86-.57,2.7l-.76,1.83h-1.19l.96-2.35c.28-.64,.42-1.33,.39-2.03-.03-.7-.21-1.38-.53-2l-2.71-5.39c-.53-.96-.9-1.18-1.76-1.18h-1.03l2.88,15.34h10.86l1.49-3.02c.06-.09,.09-.2,.09-.31,0-.2-.17-.28-.51-.28h-7.3l.42-1.13h6.97c.82,0,1.58,.59,1.58,1.18,.01,.3-.04,.6-.14,.88l-1.89,3.81Zm-5.29-7.67c.19-.41,.3-.86,.31-1.32,0-.62-.13-1.23-.36-1.8-.28-.67-.4-1.39-.34-2.12h1.13c-.09,.65,0,1.32,.28,1.92,.26,.65,.4,1.35,.39,2.06-.01,.43-.1,.86-.25,1.27h-1.15Zm2.29,0c.19-.41,.3-.86,.31-1.32,0-.62-.13-1.23-.37-1.8-.28-.67-.39-1.39-.34-2.12h1.13c-.09,.65,.01,1.32,.28,1.92,.26,.65,.4,1.35,.39,2.06-.01,.43-.1,.86-.25,1.27h-1.16Zm2.29,0c.19-.41,.3-.86,.31-1.32,0-.62-.11-1.23-.35-1.8-.28-.67-.4-1.39-.33-2.12h1.13c-.09,.65,0,1.32,.28,1.92,.26,.65,.39,1.35,.39,2.06-.01,.43-.1,.86-.25,1.27h-1.18Z"/></g></svg>