<svg id="Icones" xmlns="http://www.w3.org/2000/svg" width="32" height="32" viewBox="0 0 32 32"><defs><style>.cls-1{fill:none;}</style></defs><rect class="cls-1" width="32" height="32"/><path d="M3.48,16c0,7.53,4.8,12.33,12.35,12.33A12.22,12.22,0,0,0,25.68,24c-1.13.35-2.13.66-3.39,1.1L22,24.22c1.44-.47,2.48-.78,4.58-1.35l.78.47a46.16,46.16,0,0,1-.25,4.71l-1-.13c.19-1.72.25-2.48.28-3.14a13.29,13.29,0,0,1-10.57,4.58C7.62,29.36,2.38,24.13,2.38,16Zm24.71,0c0-7.52-4.8-12.32-12.36-12.32C11.69,3.65,8.24,5.12,6,7.91c1.13-.34,2.13-.66,3.38-1.09l.32.91c-1.45.47-2.48.78-4.58,1.34L4.32,8.6c0-2.1.1-3.16.26-4.7l1,.12C5.36,5.75,5.3,6.5,5.27,7.16A13.27,13.27,0,0,1,15.83,2.58c8.22,0,13.46,5.24,13.46,13.39Zm-22.42.32c0-1.54.09-1.76,1.63-3.58s2.32-2.32,4-2.32h4a6.46,6.46,0,0,1,4.17,1.29l2.39,1.78,1.53.38a2.76,2.76,0,0,1,2.45,2.95,3.43,3.43,0,0,1-.63,2l-.87-.63a2.22,2.22,0,0,0,.4-1.41c0-1.1-.56-1.7-2-2l-1.54-.38L19,12.62a5.35,5.35,0,0,0-3.61-1.16h-4c-1.29,0-1.76.31-3.2,2C6.93,15,6.87,15.19,6.87,16.44v.66a1.31,1.31,0,0,0,.37,1l-.75.69a2.12,2.12,0,0,1-.72-1.73ZM19.22,18.2A2.1,2.1,0,0,1,21.45,16a2.08,2.08,0,0,1,2.22,2.2,2.09,2.09,0,0,1-2.22,2.19,2.13,2.13,0,0,1-2-1.12H12.23a2.13,2.13,0,0,1-2,1.12A2.11,2.11,0,0,1,8,18.2,2.09,2.09,0,0,1,10.25,16a2.09,2.09,0,0,1,2.23,2.2Zm-9-1.16A1.1,1.1,0,0,0,9.06,18.2a1.11,1.11,0,0,0,1.19,1.16,1.1,1.1,0,0,0,1.19-1.16A1.08,1.08,0,0,0,10.25,17Zm11.2,0a1.1,1.1,0,0,0-1.19,1.16,1.11,1.11,0,0,0,1.19,1.16,1.1,1.1,0,0,0,1.19-1.16A1.08,1.08,0,0,0,21.45,17Z"/></svg>