<svg id="Icones" xmlns="http://www.w3.org/2000/svg" width="32" height="32" viewBox="0 0 32 32"><defs><style>.cls-1{fill:none;}</style></defs><rect class="cls-1" width="32" height="32"/><path d="M25.74,15c1.29.19,1.73.5,2.1,1.57a5.94,5.94,0,0,1,.32,1.85c0,1-.57,1.54-1.66,1.69V19c.4-.09.56-.25.56-.56a4.63,4.63,0,0,0-.19-1.32A1.27,1.27,0,0,0,25.62,16l-3.55-.54-2.82-1.6c-2-1.13-2.82-1.31-5.83-1.31s-3.92.31-7.06,2.16l-2,.25c-.59.06-.81.35-.81,1v1.66a.89.89,0,0,0,.78,1L6,19v1.1l-1.7-.34c-1.31-.29-1.88-.91-1.88-2.14V16A1.68,1.68,0,0,1,4.11,14l1.66-.22c3.38-1.91,4.67-2.29,7.65-2.29s4.39.28,6.33,1.41l2.83,1.6ZM11.32,19.36h9.84v0a2.09,2.09,0,0,1,2.23-2.2,2.2,2.2,0,1,1,0,4.39,2.11,2.11,0,0,1-2-1.09H11.07a2.14,2.14,0,0,1-2,1.09,2.2,2.2,0,1,1,0-4.39,2.09,2.09,0,0,1,2.23,2.2ZM9.09,18.17A1.1,1.1,0,0,0,7.9,19.33a1.11,1.11,0,0,0,1.19,1.16,1.1,1.1,0,0,0,1.19-1.16A1.08,1.08,0,0,0,9.09,18.17Zm14.3,2.32a1.11,1.11,0,0,0,1.19-1.16,1.1,1.1,0,0,0-1.19-1.16,1.08,1.08,0,0,0-1.19,1.16A1.1,1.1,0,0,0,23.39,20.49Z"/></svg>