<?xml version="1.0" encoding="UTF-8"?><svg xmlns="http://www.w3.org/2000/svg" width="24" height="24" viewBox="0 0 24 24"><defs><style>.c{fill:none;}</style></defs><g id="a"><rect class="c" y="0" width="24" height="24"/></g><g id="b"><path d="M11.16,11.11V4.25c0-.46-.19-.73-.6-.73s-.62,.27-.62,.73V13.47l-1.13,.29-1.63-3.03c-.21-.41-.41-.46-.62-.46-.15,0-.29,.06-.4,.17-.11,.11-.17,.25-.17,.4,0,.21,.06,.42,.16,.6l3.74,6.86v3.31h-1.04v-2.93l-3.63-6.69c-.18-.35-.28-.74-.27-1.13,0-.23,.03-.46,.12-.67,.09-.21,.22-.41,.38-.57,.17-.16,.36-.28,.58-.36,.22-.08,.45-.11,.68-.1,.56,0,1,.3,1.38,1.01l.79,1.46V4.06c0-.22,.03-.45,.11-.65,.08-.21,.21-.39,.37-.55,.16-.16,.35-.28,.56-.35,.21-.08,.43-.11,.65-.1,.22-.02,.44,.02,.65,.1,.21,.08,.39,.2,.55,.36,.16,.16,.28,.35,.35,.55,.08,.21,.11,.43,.09,.65v2.41c.2-.13,.44-.2,.68-.19,.4-.02,.79,.12,1.09,.39,.3,.27,.47,.65,.49,1.05,.19-.13,.42-.2,.66-.19,.4-.02,.8,.12,1.1,.39,.3,.27,.49,.65,.52,1.05,.19-.13,.42-.2,.66-.19,.22-.01,.44,.02,.65,.1,.21,.08,.39,.2,.55,.36,.15,.16,.27,.35,.35,.55,.07,.21,.1,.43,.09,.65v2.47c0,2.82-.56,3.95-1.82,5.37l-.48,.6v2.74h-1.1v-3.09l.6-.68c.6-.58,1.07-1.29,1.38-2.07,.3-.78,.44-1.62,.38-2.45v-2.75c0-.46-.22-.73-.63-.73s-.6,.27-.6,.73v1.52h-1.06v-2.77c0-.46-.21-.73-.65-.73s-.56,.27-.56,.73v2.26h-1.06v-3.48c0-.46-.19-.73-.62-.73s-.6,.27-.6,.73v3.01h-1.06Z"/></g></svg>