<svg id="Icones" xmlns="http://www.w3.org/2000/svg" width="32" height="32" viewBox="0 0 32 32"><defs><style>.cls-1{fill:none;}</style></defs><rect class="cls-1" width="32" height="32"/><path d="M9.9,10.15A2.34,2.34,0,0,1,7.42,7.61,2.34,2.34,0,0,1,9.9,5.07a2.35,2.35,0,0,1,2.51,2.54A2.35,2.35,0,0,1,9.9,10.15Zm10,11.23c3.13,0,4.64.94,4.64,2.91a6,6,0,0,1-.76,2.64H13.07c-1.76,0-2.45-.53-2.76-2.2L8,11.81a8,8,0,0,1,2.73-.53c1.6,0,2.47.85,2.82,2.7l1.38,7.59a5.43,5.43,0,0,0-1,.72L12.5,14.23c-.25-1.41-.72-1.88-1.78-1.88a5.17,5.17,0,0,0-1.51.22l2.23,12.16c.15.88.53,1.13,1.63,1.13h10a3.15,3.15,0,0,0,.38-1.57c0-1.28-1.07-1.85-3.54-1.85a6.4,6.4,0,0,0-5,1.95l-.72-.82A7.47,7.47,0,0,1,19.94,21.38ZM9.9,6.11a1.31,1.31,0,0,0-1.41,1.5A1.36,1.36,0,0,0,9.9,9.12a1.34,1.34,0,0,0,1.44-1.51A1.31,1.31,0,0,0,9.9,6.11Z"/></svg>