<svg id="Icones" xmlns="http://www.w3.org/2000/svg" width="32" height="32" viewBox="0 0 32 32"><defs><style>.cls-1{fill:none;}</style></defs><rect class="cls-1" width="32" height="32"/><path d="M18.91,5.34l.4-.47a29.19,29.19,0,0,1,4.52,2.7l-.19.59a7.18,7.18,0,0,0-.37,2.14c0,1.44.87,2.29,3,2.88l.69.19c.06,1.85.06,3.36,0,5.17l-.69.19c-2.14.6-3,1.44-3,2.89a7.12,7.12,0,0,0,.37,2.13l.19.6A29.17,29.17,0,0,1,19.31,27l-.4-.47a3.91,3.91,0,0,0-3.08-1.69,3.88,3.88,0,0,0-3.07,1.69l-.41.47a29.06,29.06,0,0,1-4.51-2.69l.19-.6a7.12,7.12,0,0,0,.37-2.13c0-1.45-.88-2.29-3-2.89l-.69-.19c-.06-1.81-.06-3.32,0-5.17l.69-.19c2.13-.59,3-1.44,3-2.88A7.18,7.18,0,0,0,8,8.16l-.19-.59a29.08,29.08,0,0,1,4.51-2.7l.41.47A3.88,3.88,0,0,0,15.83,7,3.91,3.91,0,0,0,18.91,5.34Zm-6.81.94A16.73,16.73,0,0,0,9.19,8.07,8,8,0,0,1,9.5,10.3c0,1.94-1.16,3.16-3.7,3.92a33.66,33.66,0,0,0,0,3.48c2.54.75,3.7,2,3.7,3.92a7.94,7.94,0,0,1-.31,2.22,16.14,16.14,0,0,0,2.91,1.79,4.74,4.74,0,0,1,7.47,0,16.5,16.5,0,0,0,2.91-1.79,7.58,7.58,0,0,1-.31-2.22c0-1.95,1.16-3.17,3.7-3.92a33.66,33.66,0,0,0,0-3.48c-2.54-.76-3.7-2-3.7-3.92a7.6,7.6,0,0,1,.31-2.23,17.11,17.11,0,0,0-2.91-1.79,4.74,4.74,0,0,1-7.47,0Zm3.73,5.24a4.08,4.08,0,0,1,4.43,4.42,4.09,4.09,0,0,1-4.43,4.42,4.1,4.1,0,0,1-4.42-4.42A4.07,4.07,0,0,1,15.83,11.52Zm0,7.78a3.08,3.08,0,0,0,3.33-3.36,3.08,3.08,0,0,0-3.33-3.35,3.07,3.07,0,0,0-3.32,3.35A3.08,3.08,0,0,0,15.83,19.3Z"/></svg>