<?xml version="1.0" encoding="UTF-8"?><svg xmlns="http://www.w3.org/2000/svg" width="24" height="24" viewBox="0 0 24 24"><defs><style>.c{fill:none;}</style></defs><g id="a"><rect class="c" width="24" height="24"/></g><g id="b"><path d="M9.7,12.66l4.93,2.28c.28-.57,.72-1.05,1.27-1.37,.55-.32,1.18-.47,1.82-.44,.46-.02,.91,.05,1.34,.21s.81,.41,1.13,.74c.32,.32,.57,.71,.74,1.14,.16,.43,.24,.88,.21,1.34,.03,.46-.05,.91-.21,1.34-.16,.43-.41,.81-.74,1.14-.32,.32-.71,.57-1.14,.74-.43,.16-.88,.23-1.34,.21-.46,.02-.91-.05-1.34-.22-.43-.16-.81-.42-1.13-.74-.32-.32-.57-.71-.74-1.13-.16-.43-.24-.88-.22-1.34-.01-.19-.01-.38,0-.57l-4.93-2.28c-.29,.56-.73,1.02-1.27,1.33-.54,.31-1.16,.46-1.79,.42-.46,.02-.91-.05-1.34-.21-.43-.16-.82-.41-1.14-.74-.33-.32-.58-.71-.75-1.14-.17-.43-.24-.88-.22-1.34-.02-.46,.05-.92,.21-1.35,.16-.43,.42-.82,.74-1.15,.33-.33,.72-.58,1.15-.74,.43-.16,.89-.24,1.35-.21,.63-.04,1.25,.1,1.8,.41,.54,.31,.99,.78,1.27,1.34l4.93-2.28c-.01-.19-.01-.38,0-.57-.03-.46,.05-.91,.21-1.34,.16-.43,.41-.82,.74-1.14,.32-.33,.71-.58,1.14-.75,.43-.17,.88-.24,1.34-.22,.46-.02,.92,.05,1.35,.21,.43,.16,.82,.42,1.14,.74,.32,.33,.57,.72,.74,1.15,.16,.43,.23,.89,.2,1.35,.03,.46-.04,.92-.2,1.35-.16,.43-.41,.82-.74,1.15-.32,.33-.71,.58-1.14,.74-.43,.17-.89,.24-1.34,.22-.64,.03-1.28-.13-1.83-.46-.55-.33-.99-.82-1.26-1.4l-4.93,2.28c.03,.22,.05,.44,.06,.66,0,.22-.02,.43-.06,.65Zm-3.39,1.71c1.51,0,2.33-.85,2.33-2.36s-.82-2.37-2.33-2.37-2.33,.85-2.33,2.36,.82,2.36,2.33,2.36h0Zm11.41-4.55c1.51,0,2.33-.85,2.33-2.36s-.82-2.37-2.32-2.37-2.33,.85-2.33,2.35,.82,2.35,2.33,2.35v.02Zm0,9.13c1.51,0,2.33-.84,2.33-2.35s-.82-2.38-2.32-2.38-2.33,.85-2.33,2.36,.82,2.37,2.33,2.37h0Z"/></g></svg>