<svg id="Icones" xmlns="http://www.w3.org/2000/svg" width="32" height="32" viewBox="0 0 32 32"><defs><style>.cls-1{fill:none;}</style></defs><rect class="cls-1" width="32" height="32"/><path d="M13.39,17.42l5.11,2.82a3.74,3.74,0,0,1,3.51-2A3.72,3.72,0,0,1,26,22.15a3.74,3.74,0,0,1-3.95,4,3.75,3.75,0,0,1-4-4,8.29,8.29,0,0,1,.06-.85l-5.23-2.88a3.86,3.86,0,0,1-3.23,1.5,3.76,3.76,0,0,1-4-4,3.76,3.76,0,0,1,4-4,3.87,3.87,0,0,1,3.23,1.51l5.23-2.89a7.39,7.39,0,0,1-.06-.85,3.75,3.75,0,0,1,4-3.95A3.72,3.72,0,0,1,26,9.79a3.74,3.74,0,0,1-3.95,4,3.76,3.76,0,0,1-3.51-2l-5.11,2.82A4.4,4.4,0,0,1,13.61,16,5.38,5.38,0,0,1,13.39,17.42ZM9.66,18.83A2.66,2.66,0,0,0,12.48,16a2.66,2.66,0,0,0-2.82-2.85A2.66,2.66,0,0,0,6.83,16,2.66,2.66,0,0,0,9.66,18.83ZM22,12.65a2.66,2.66,0,0,0,2.82-2.86A2.65,2.65,0,0,0,22,6.94a2.66,2.66,0,0,0-2.82,2.85A2.66,2.66,0,0,0,22,12.65ZM22,25a2.65,2.65,0,0,0,2.82-2.85A2.65,2.65,0,0,0,22,19.3a2.66,2.66,0,0,0-2.82,2.85A2.65,2.65,0,0,0,22,25Z"/></svg>