<?xml version="1.0" encoding="UTF-8"?><svg xmlns="http://www.w3.org/2000/svg" width="24" height="24" viewBox="0 0 24 24"><defs><style>.c{fill:none;}</style></defs><g id="a"><rect class="c" width="24" height="24"/></g><g id="b"><path d="M19.02,6.96v14.44H4.98V2.6H14.65c1.6,1.3,3.07,2.76,4.37,4.36h0Zm-1.17,1.46h-4.7V3.72H6.1V20.27h11.75V8.42Zm-8.23,2.99c.01,.1,0,.19-.03,.29-.03,.09-.08,.18-.15,.24-.07,.07-.15,.12-.24,.15-.09,.03-.19,.04-.29,.03-.1,.01-.19,0-.29-.03-.09-.03-.18-.08-.24-.15s-.12-.15-.15-.24c-.03-.09-.04-.19-.03-.29-.01-.1,0-.19,.03-.28,.03-.09,.08-.18,.15-.24,.07-.07,.15-.12,.24-.15,.09-.03,.19-.04,.28-.03,.1-.02,.2-.01,.29,.01,.1,.03,.18,.08,.26,.15,.07,.07,.13,.15,.16,.25,.03,.1,.04,.2,.03,.29h-.04Zm0,2.35c.01,.1,0,.19-.03,.28-.03,.09-.08,.17-.15,.24-.07,.07-.15,.12-.24,.15-.09,.03-.19,.04-.28,.03-.19,0-.37-.07-.5-.21-.13-.13-.21-.31-.21-.5s.07-.37,.21-.5c.13-.13,.31-.21,.5-.21,.1-.02,.21-.02,.3,.01s.19,.08,.26,.15c.07,.07,.13,.16,.16,.26,.03,.1,.04,.2,.02,.3l-.04-.02Zm0,2.35c.01,.1,0,.19-.03,.28-.03,.09-.08,.18-.15,.24-.07,.07-.15,.12-.24,.15s-.19,.04-.28,.03c-.19,0-.37-.07-.5-.21-.13-.13-.21-.31-.21-.5s.07-.37,.21-.5c.13-.13,.31-.21,.5-.21,.1-.02,.2-.01,.3,.01,.1,.03,.18,.08,.26,.15,.07,.07,.13,.16,.16,.25,.03,.1,.04,.2,.02,.3h-.04Zm1.18-5.3h4.7v1.18h-4.7v-1.18Zm0,2.35h4.7v1.18h-4.7v-1.18Zm0,2.35h4.7v1.18h-4.7v-1.18Zm7.05-8.22c-1.09-1.26-2.28-2.44-3.55-3.53v3.53h3.55Z"/></g></svg>