<?xml version="1.0" encoding="UTF-8"?><svg xmlns="http://www.w3.org/2000/svg" width="24" height="24" viewBox="0 0 24 24"><defs><style>.c{fill:none;}</style></defs><g id="a"><rect class="c" width="24" height="24"/></g><g id="b"><path d="M15.51,11.47V6.74h-4.65V2.1H3.89V18.46h5.81c.05,.38,.14,.76,.28,1.12H2.77V1H12.33c1.58,1.29,3.03,2.74,4.32,4.32v6.15c-.38-.03-.76-.03-1.14,0h0Zm-8.13-1.74c.01,.09,0,.19-.03,.28-.03,.09-.08,.17-.15,.24-.07,.07-.15,.12-.24,.15-.09,.03-.19,.04-.28,.03-.09,.01-.19,0-.28-.03-.09-.03-.17-.08-.24-.15-.07-.07-.12-.15-.15-.24-.03-.09-.04-.19-.03-.28-.01-.1,0-.19,.02-.28s.08-.17,.15-.24c.07-.07,.15-.12,.24-.15,.09-.03,.19-.04,.28-.03,.1-.01,.19,0,.29,.02,.09,.03,.18,.08,.24,.15s.12,.15,.15,.24c.03,.09,.04,.19,.03,.28h-.02Zm0,2.33c.01,.1,0,.19-.03,.28-.03,.09-.08,.17-.15,.24-.07,.07-.15,.12-.24,.15-.09,.03-.19,.04-.28,.03-.18,0-.36-.07-.49-.2-.13-.13-.2-.31-.2-.49s.07-.36,.2-.49c.13-.13,.31-.2,.49-.2,.1-.02,.2-.01,.29,.02,.09,.03,.18,.08,.25,.15,.07,.07,.12,.15,.15,.25,.03,.09,.04,.19,.02,.29h-.02Zm0,2.32c.01,.1,0,.19-.02,.28-.03,.09-.08,.17-.15,.24-.07,.07-.15,.12-.24,.15-.09,.03-.19,.04-.28,.03-.18,0-.36-.07-.49-.2-.13-.13-.2-.31-.2-.49s.07-.36,.2-.49c.13-.13,.31-.2,.49-.2,.1-.01,.19,0,.29,.02,.09,.03,.18,.08,.24,.15s.12,.15,.15,.24c.03,.09,.04,.19,.03,.28h-.02Zm1.16-5.22h4.64v1.16h-4.64v-1.16Zm0,2.32h4.64v.58c-.41,.14-.8,.33-1.16,.58h-3.48v-1.16Zm0,2.32h2.4c-.34,.32-.6,.72-.75,1.16h-1.64v-1.16Zm7.58,9.21c-3.15,0-5.14-2-5.14-5.15s1.97-5.13,5.13-5.13,5.13,1.95,5.13,5.13-1.93,5.15-5.11,5.15Zm-.61-17.36c-1.07-1.25-2.23-2.42-3.48-3.48v3.48h3.48Zm.61,16.19c2.48,0,3.98-1.5,3.98-4.01s-1.5-4.01-3.98-4.01-3.98,1.53-3.98,4.04,1.5,3.99,3.98,3.99Zm.19-2.06h-.97c-.47-.64-.91-1.3-1.31-1.98l.92-.67c.28,.48,.58,.95,.86,1.45,.58-.89,1.06-1.74,1.64-2.9l.95,.53c-.86,1.61-1.33,2.42-2.09,3.59v-.02Z"/></g></svg>