<?xml version="1.0" encoding="UTF-8"?><svg xmlns="http://www.w3.org/2000/svg" width="24" height="24" viewBox="0 0 24 24"><defs><style>.c{fill:none;}</style></defs><g id="a"><rect class="c" width="24" height="24"/></g><g id="b"><path d="M14.85,7.68v-1.34h-4.51V1.83H3.57v15.87h7.94c.36,.4,.76,.76,1.2,1.08H2.48V.7H11.76c1.53,1.26,2.94,2.67,4.18,4.22v2.66c-.37-.03-.74,0-1.1,.11h0Zm-9.02,.97h6.77l-1.13,1.13H5.83v-1.13Zm0,2.26h5.01c-.15,.36-.27,.74-.35,1.13H5.83v-1.13Zm0,2.25h4.51v1.13H5.83v-1.13ZM14.85,5.27c-1.04-1.21-2.17-2.34-3.38-3.38v3.38h3.38Zm1.69,13.48c-3.06,0-4.98-1.92-4.98-4.98s1.92-4.98,4.98-4.98,4.98,1.89,4.98,4.98-1.88,4.97-4.97,4.97h-.01Zm0-1.08c2.41,0,3.87-1.46,3.87-3.9s-1.46-3.9-3.87-3.9-3.87,1.46-3.87,3.9,1.47,3.85,3.88,3.85v.05Zm3.91,5.2l-1.13,.43c-.65-.56-1.25-1.05-2.26-2.03-1,.98-1.6,1.49-2.26,2.03l-1.13-.43v-3.85c.35,.22,.73,.38,1.13,.46v2.35c1.05-.89,1.49-1.3,1.87-1.69h.76c.38,.38,.81,.78,1.87,1.69v-2.35c.4-.09,.78-.24,1.13-.46l.02,3.85Zm-3.72-7.23h-.95c-.46-.62-.88-1.26-1.27-1.92l.9-.65c.27,.46,.56,.92,.84,1.41,.56-.87,1.03-1.69,1.6-2.82l.91,.55c-.83,1.51-1.29,2.3-2.02,3.43Z"/></g></svg>