<?xml version="1.0" encoding="UTF-8"?><svg xmlns="http://www.w3.org/2000/svg" width="24" height="24" viewBox="0 0 24 24"><defs><style>.c{fill:none;}</style></defs><g id="a"><rect class="c" width="24" height="24"/></g><g id="b"><path d="M18.62,22.28H5.38l1.11-11.13h11.02l1.11,11.13Zm-12-1.13h10.75l-.89-8.87H7.51l-.89,8.87Zm-.12-12h-2.5v1.13h2.5v-1.13Zm13.5,0h-2.5v1.13h2.5v-1.13Zm-11.83-3.57l-1.77-1.77-.8,.8,1.77,1.77,.8-.8Zm10-.97l-.8-.8-1.77,1.77,.8,.8,1.77-1.77Zm-3.6,5.6c0-.86-.7-1.57-1.57-1.57h-2c-.86,0-1.57,.7-1.57,1.57v1h1.13v-1c0-.24,.19-.43,.43-.43h2c.24,0,.43,.19,.43,.43v1h1.13v-1ZM12.57,1.72h-1.13v2.5h1.13V1.72Z"/></g></svg>