<?xml version="1.0" encoding="UTF-8"?><svg xmlns="http://www.w3.org/2000/svg" width="24" height="24" viewBox="0 0 24 24"><defs><style>.c{fill:none;}</style></defs><g id="a"><rect class="c" width="24" height="24"/></g><g id="b"><path d="M19.87,20.6H4.13l1.08-13.76h3.88v-.69c0-1.93,1.08-2.75,2.92-2.75s2.92,.8,2.92,2.75v.66h3.88l1.07,13.79ZM6.25,7.92l-.93,11.55h13.38l-.93-11.55H6.25Zm8.28,9.98c-1.1-.49-1.72-.83-2.53-1.24-.77,.41-1.46,.75-2.56,1.24l-.5-.3c.13-.93,.32-1.85,.57-2.75-.66-.61-1.1-1.08-1.95-1.98l.11-.63c.89-.18,1.8-.32,2.71-.41,.41-.85,.8-1.6,1.4-2.67h.46c.63,1.07,1,1.82,1.43,2.67,.91,.09,1.81,.23,2.7,.41l.11,.63c-.83,.88-1.32,1.38-1.98,1.98,.23,.91,.41,1.82,.52,2.75l-.49,.3Zm-4.27-1.54c.85-.41,1.29-.69,1.76-.96,.56,.34,1.13,.65,1.72,.93-.17-.85-.25-1.35-.36-1.85,.72-.66,1.07-1.01,1.51-1.46-.93-.14-1.46-.22-1.98-.25-.26-.62-.56-1.23-.88-1.82-.25,.49-.47,.93-.85,1.82-.67,.05-1.34,.13-2.01,.25,.45,.51,.92,1,1.43,1.46-.12,.5-.22,.99-.34,1.87Zm-.09-10.21v.66h3.64v-.66c0-1.3-.57-1.63-1.82-1.63s-1.82,.36-1.82,1.63h0Z"/></g></svg>