<svg id="Icones" xmlns="http://www.w3.org/2000/svg" width="32" height="32" viewBox="0 0 32 32"><defs><style>.cls-1{fill:none;}</style></defs><rect class="cls-1" width="32" height="32"/><path d="M24.8,25H6.86L8.09,9.26h4.42v-1c0-2.2,1.22-3.48,3.32-3.48S19.16,6,19.16,8.26v1h4.42ZM9.12,10.33,8.06,23.91H23.61L22.54,10.33Zm3.7,12.07L12,21.87a22.17,22.17,0,0,1,.5-3.33c-.82-.78-1.35-1.31-2.29-2.35l.25-1a14.62,14.62,0,0,1,3.26-.47,19.8,19.8,0,0,1,1.6-2.92h1a19.53,19.53,0,0,1,1.59,2.92,14.63,14.63,0,0,1,3.27.47l.25,1c-.94,1-1.48,1.57-2.29,2.35a23.56,23.56,0,0,1,.5,3.33l-.82.53a25.74,25.74,0,0,1-3-1.57A25.74,25.74,0,0,1,12.82,22.4Zm1.73-6.71a14.41,14.41,0,0,0-3,.38,12.33,12.33,0,0,0,2.2,2.16A12,12,0,0,0,13.26,21a18.19,18.19,0,0,0,2.57-1.41A18.77,18.77,0,0,0,18.4,21a11.53,11.53,0,0,0-.53-2.76,12.72,12.72,0,0,0,2.2-2.16,14.5,14.5,0,0,0-2.95-.38,16.88,16.88,0,0,0-1.29-2.51A17.86,17.86,0,0,0,14.55,15.69Zm-.94-7.43v1h4.45v-1c0-1.63-.72-2.42-2.23-2.42S13.61,6.66,13.61,8.26Z"/></svg>