<svg id="Icones" xmlns="http://www.w3.org/2000/svg" width="32" height="32" viewBox="0 0 32 32"><defs><style>.cls-1{fill:none;}</style></defs><rect class="cls-1" width="32" height="32"/><path d="M27.56,21.24v-1.1c.44-.09.6-.25.6-.56A20.1,20.1,0,0,0,28,16.94c-.12-1-.4-1.41-1.25-1.69l-2.67-.94-2-2.16c-1.48-1.6-1.95-1.79-4.68-1.79H5.08c-1,0-1.32.31-1.38,1.44s-.19,4.93-.19,7.28c0,1,.41,1.44,1.47,1.44H5.2v1.07H4.83c-1.63,0-2.42-.82-2.42-2.51,0-2.51.1-6.24.19-7.28.13-1.88.78-2.51,2.63-2.51H17.46c2.95,0,3.86.35,5.43,2.07l1.82,2,2.32.85c1.5.53,1.91,1,2.1,2.47a21.23,21.23,0,0,1,.13,2.86C29.26,20.52,28.69,21.08,27.56,21.24Zm-17-.75h11.7v0a2.09,2.09,0,0,1,2.23-2.2,2.2,2.2,0,1,1,0,4.39,2.16,2.16,0,0,1-2-1.09H10.28a2.1,2.1,0,0,1-2,1.09,2.2,2.2,0,1,1,0-4.39,2.1,2.1,0,0,1,2.22,2.2ZM8.31,19.3a1.11,1.11,0,0,0-1.19,1.16,1.1,1.1,0,0,0,1.19,1.16A1.08,1.08,0,0,0,9.5,20.46,1.1,1.1,0,0,0,8.31,19.3Zm16.15,2.32a1.11,1.11,0,0,0,1.19-1.16,1.1,1.1,0,0,0-1.19-1.16,1.08,1.08,0,0,0-1.19,1.16A1.1,1.1,0,0,0,24.46,21.62Z"/></svg>