<?xml version="1.0" encoding="UTF-8"?><svg xmlns="http://www.w3.org/2000/svg" width="24" height="24" viewBox="0 0 24 24"><defs><style>.c{fill:none;}</style></defs><g id="a"><rect class="c" width="24" height="24"/></g><g id="b"><path d="M5.23,12.62v1.13H1.85v-1.13h3.38Zm14.65,8.38H4.1v-1.13h15.77v1.13ZM7.39,7.95l-.81,.81-2.38-2.37,.78-.81,2.41,2.37Zm-1.05,6.02c0-4.28,2.14-6.46,5.63-6.46s5.63,2.19,5.63,6.46v4.79H6.34v-4.79Zm1.13,3.68h9.07v-3.71c0-3.71-1.69-5.33-4.55-5.33s-4.54,1.62-4.54,5.33l.02,3.71ZM12.57,6.38h-1.13V3h1.13v3.38Zm-.56,4.9l.08-1.07c1.86-.03,2.78,.86,2.82,2.87l-1.13,.08c0-1.38-.52-1.89-1.79-1.89h.02Zm5.41-2.48l-.82-.83,2.38-2.38,.81,.78-2.37,2.43Zm1.35,4.92v-1.13h3.38v1.13h-3.38Z"/></g></svg>