<?xml version="1.0" encoding="UTF-8"?><svg xmlns="http://www.w3.org/2000/svg" width="24" height="24" viewBox="0 0 24 24"><defs><style>.c{fill:none;}</style></defs><g id="a"><rect class="c" width="24" height="24"/></g><g id="b"><path d="M8.4,7.68l.61,.87c-1.57,1.05-3.07,2.21-4.5,3.45,1.4,1.25,2.9,2.4,4.47,3.43l-.59,.9c-1.73-1.15-3.37-2.43-4.9-3.82v-.98c1.54-1.4,3.18-2.69,4.9-3.85h0Zm12.1,4.79c-1.55,1.4-3.2,2.68-4.94,3.84l-.59-.9c1.58-1.02,3.09-2.16,4.5-3.4-1.42-1.25-2.93-2.4-4.5-3.45l.59-.88c1.74,1.15,3.39,2.43,4.94,3.84v.96Z"/></g></svg>