<?xml version="1.0" encoding="UTF-8"?><svg xmlns="http://www.w3.org/2000/svg" width="24" height="24" viewBox="0 0 24 24"><defs><style>.c{fill:none;}</style></defs><g id="a"><rect class="c" width="24" height="24"/></g><g id="b"><path d="M1.88,7.17c0-1.3,.62-1.92,1.92-1.92H20.21c1.29,0,1.91,.62,1.91,1.92v9.66c0,1.3-.62,1.92-1.91,1.92H3.79c-1.3,0-1.92-.62-1.92-1.92V7.17Zm2.08,10.45H20.07c.7,0,.97-.29,.97-1V7.38c0-.7-.27-1-.97-1H3.96c-.7,0-.97,.3-.97,1v9.24c0,.7,.27,1,.97,1h0Zm2.4-5.62l1.29-1.69-1.29-1.69h-2.25v-1.12h3.02l1.73,2.25h3.13v1.12h-3.12l-1.73,2.25h-3.03v-1.12h2.24Zm-2.25-2.25h1.92l.46,.56-.46,.59h-1.91v-1.15Zm7.87-1.12h-2.66l-.81-1.12h3.48l-.02,1.12Zm-3.48,4.5l.81-1.12h2.67v1.12h-3.48Z"/></g></svg>