<?xml version="1.0" encoding="UTF-8"?><svg xmlns="http://www.w3.org/2000/svg" width="24" height="24" viewBox="0 0 24 24"><defs><style>.c{fill:none;}</style></defs><g id="a"><rect class="c" width="24" height="24"/></g><g id="b"><path d="M12,3.74c5.1,0,8.3,3.2,8.3,8.26s-3.23,8.26-8.3,8.26S3.7,17.03,3.7,12,6.93,3.74,12,3.74Zm0,1.13c-4.42,0-7.14,2.72-7.14,7.14s2.75,7.14,7.14,7.14,7.14-2.75,7.14-7.14-2.72-7.16-7.14-7.16v.02Zm-2.44,10.79l-.68-.85c.35-.5,.82-.91,1.36-1.19,.54-.28,1.14-.43,1.76-.43s1.21,.15,1.76,.43c.54,.28,1.01,.69,1.36,1.19l-.7,.85c-.79-.88-1.5-1.3-2.44-1.3s-1.62,.43-2.42,1.3Zm1.42-5.78c.02,.14,0,.28-.05,.42-.05,.13-.12,.25-.22,.35-.1,.1-.22,.17-.36,.22s-.28,.06-.42,.04c-.14,.01-.28,0-.41-.05-.13-.05-.25-.12-.35-.22s-.17-.22-.22-.35c-.05-.13-.06-.27-.05-.41-.02-.14-.01-.28,.03-.42,.04-.14,.12-.26,.22-.36s.22-.18,.35-.23c.13-.05,.28-.06,.42-.05,.14-.02,.29,0,.42,.04,.14,.04,.26,.12,.36,.22,.1,.1,.18,.23,.22,.36,.04,.14,.06,.28,.04,.43h0Zm4.13,0c.02,.14,0,.28-.05,.42-.05,.13-.12,.25-.23,.35s-.22,.17-.36,.22-.28,.06-.42,.04c-.14,.01-.28,0-.41-.05-.13-.05-.25-.12-.35-.22-.1-.1-.17-.22-.22-.35-.05-.13-.06-.27-.05-.41-.02-.14,0-.28,.03-.42,.04-.14,.12-.26,.22-.36s.22-.18,.35-.23c.13-.05,.28-.06,.42-.05,.14-.02,.28,0,.42,.05,.13,.05,.25,.12,.35,.23s.17,.22,.22,.36c.04,.14,.05,.28,.03,.42h.02Z"/></g></svg>