<?xml version="1.0" encoding="UTF-8"?><svg xmlns="http://www.w3.org/2000/svg" width="24" height="24" viewBox="0 0 24 24"><defs><style>.c{fill:none;}</style></defs><g id="a"><rect class="c" width="24" height="24"/></g><g id="b"><path d="M15.57,11.98c0-4.38-2.7-7.08-7.07-7.08S1.42,7.6,1.42,11.98s2.73,7.08,7.08,7.08c2.24,0,4.09-.73,5.26-2.02l.74,.92c-.8,.75-1.74,1.34-2.76,1.72-1.03,.38-2.12,.55-3.21,.51C3.5,20.18,.3,16.98,.3,12S3.5,3.81,8.53,3.81s8.22,3.18,8.22,8.19h-1.18Zm-8.19-2.04l.69,.87c-.31,.36-.7,.65-1.14,.85-.44,.2-.91,.3-1.39,.3s-.95-.1-1.39-.3c-.44-.2-.82-.49-1.14-.85l.7-.87c.23,.26,.51,.48,.82,.63,.31,.15,.65,.23,1,.24,.35-.01,.69-.1,1.01-.24,.31-.15,.6-.36,.82-.63h0Zm6.18,0l.7,.87c-.31,.36-.7,.65-1.14,.85-.43,.2-.91,.3-1.39,.3s-.95-.1-1.39-.3-.82-.49-1.14-.85l.7-.87c.23,.26,.51,.48,.82,.63,.31,.15,.66,.23,1,.24,.35-.01,.69-.1,1-.25,.31-.15,.59-.36,.82-.62h0Zm-1.29,5.53c.03,.2,.02,.4-.05,.59-.06,.19-.16,.36-.3,.5-.14,.14-.31,.25-.5,.31-.19,.06-.39,.08-.59,.06-.2,.03-.4,0-.59-.05-.19-.06-.37-.17-.51-.31-.14-.14-.25-.31-.32-.5-.07-.19-.09-.39-.06-.59,0-1.01,.5-1.46,1.48-1.46s1.43,.45,1.43,1.46h0Zm6.49,2.34h-3.35v-.96l1.88-2.63h-1.75v-1.08h3.07v.99l-1.82,2.61h1.96v1.08Zm4.95-2.34h-4.5v-1.17l3.15-4.68h-3.09v-1.17h4.41v1.17l-3.15,4.68h3.17v1.17Z"/></g></svg>