<?xml version="1.0" encoding="UTF-8"?><svg xmlns="http://www.w3.org/2000/svg" width="24" height="24" viewBox="0 0 24 24"><defs><style>.c{fill:none;}</style></defs><g id="a"><rect class="c" width="24" height="24"/></g><g id="b"><path d="M12,3.74c5.1,0,8.3,3.2,8.3,8.26s-3.23,8.26-8.3,8.26S3.7,17.03,3.7,12,6.93,3.74,12,3.74Zm0,1.13c-4.42,0-7.13,2.72-7.13,7.14s2.74,7.14,7.13,7.14,7.16-2.75,7.16-7.14-2.74-7.16-7.16-7.16v.02Zm-3.51,3.06l2.49,1.44v.78c.02,.14,0,.28-.05,.42-.05,.13-.12,.25-.22,.35-.1,.1-.22,.17-.36,.22-.13,.04-.28,.06-.42,.04-.14,.01-.28,0-.41-.05-.13-.05-.25-.12-.35-.22-.1-.1-.17-.22-.22-.35-.05-.13-.06-.27-.05-.41,0-.2,.05-.41,.14-.59l-1.1-.7,.54-.93Zm6.66,7.96l-1.05,.48c-.51-1.44-1.13-2.04-2.09-2.04s-1.59,.59-2.09,2.04l-1.05-.48c.63-1.82,1.68-2.7,3.15-2.7s2.52,.88,3.15,2.7Zm-.2-6.33c.09,.18,.14,.38,.14,.59,.01,.14,0,.28-.05,.41-.05,.13-.12,.25-.22,.35-.1,.1-.22,.17-.35,.22-.13,.05-.27,.06-.41,.05-.14,.02-.28,0-.42-.04-.13-.04-.26-.12-.36-.22-.1-.1-.18-.22-.23-.35-.05-.13-.06-.28-.05-.42v-.78l2.49-1.44,.59,.93-1.16,.7Z"/></g></svg>