<?xml version="1.0" encoding="UTF-8"?><svg xmlns="http://www.w3.org/2000/svg" width="24" height="24" viewBox="0 0 24 24"><defs><style>.c{fill:none;}</style></defs><g id="a"><rect class="c" width="24" height="24"/></g><g id="b"><path d="M12,3.74c5.1,0,8.3,3.2,8.3,8.26s-3.23,8.26-8.3,8.26S3.7,17.03,3.7,12,6.93,3.74,12,3.74Zm0,1.13c-4.42,0-7.13,2.72-7.13,7.14s2.74,7.14,7.13,7.14,7.14-2.75,7.14-7.14-2.72-7.16-7.14-7.16v.02Zm2.44,8.26l.68,.85c-.36,.49-.83,.89-1.37,1.17-.54,.28-1.14,.42-1.75,.42s-1.21-.14-1.75-.42c-.54-.28-1.01-.68-1.37-1.17l.68-.85c.27,.4,.63,.72,1.06,.94,.43,.22,.9,.34,1.38,.34s.95-.12,1.38-.34c.43-.22,.79-.55,1.06-.94Zm-3.46-3.26c.02,.14,0,.28-.05,.42-.05,.13-.12,.25-.22,.35-.1,.1-.22,.17-.36,.22-.13,.04-.28,.06-.42,.04-.14,.01-.28,0-.41-.05-.13-.05-.25-.12-.35-.22-.1-.1-.17-.22-.22-.35-.05-.13-.06-.27-.05-.41-.02-.14,0-.28,.03-.42,.04-.14,.12-.26,.22-.36s.22-.18,.35-.23c.13-.05,.28-.06,.42-.05,.14-.02,.29,0,.43,.04,.14,.05,.26,.12,.37,.23,.1,.1,.18,.23,.22,.37,.04,.14,.05,.29,.03,.43h0Zm4.13-.01c.02,.14,0,.28-.05,.42-.05,.13-.12,.25-.23,.35-.1,.1-.22,.17-.36,.22s-.28,.06-.42,.04c-.14,.01-.28,0-.41-.05-.13-.05-.25-.12-.35-.22-.1-.1-.17-.22-.22-.35-.05-.13-.06-.27-.05-.41-.02-.14-.01-.28,.03-.42,.04-.14,.12-.26,.22-.36,.1-.1,.22-.18,.35-.23,.13-.05,.28-.06,.42-.05,.14-.02,.29,0,.42,.05,.13,.05,.26,.13,.36,.23,.1,.1,.17,.23,.21,.36,.04,.14,.05,.28,.03,.42h.02Z"/></g></svg>