<?xml version="1.0" encoding="UTF-8"?><svg xmlns="http://www.w3.org/2000/svg" width="24" height="24" viewBox="0 0 24 24"><defs><style>.c{fill:none;}</style></defs><g id="a"><rect class="c" width="24" height="24"/></g><g id="b"><path d="M12,3.74c5.1,0,8.3,3.2,8.3,8.26s-3.23,8.26-8.3,8.26S3.7,17.03,3.7,12,6.93,3.74,12,3.74Zm0,1.13c-4.42,0-7.13,2.72-7.13,7.14s2.74,7.14,7.13,7.14,7.14-2.75,7.14-7.14-2.72-7.16-7.14-7.16v.02Zm-1.02,5.02c.02,.14,0,.28-.05,.42-.05,.13-.12,.25-.22,.35-.1,.1-.22,.17-.36,.22-.13,.04-.28,.06-.42,.04-.14,.01-.28,0-.41-.05-.13-.05-.25-.12-.35-.22-.1-.1-.17-.22-.22-.35-.05-.13-.06-.27-.05-.41-.02-.14,0-.28,.03-.42,.04-.13,.12-.26,.22-.36,.1-.1,.22-.18,.35-.23,.13-.05,.28-.06,.42-.05,.14-.02,.29,0,.42,.04,.14,.04,.26,.12,.36,.22,.1,.1,.18,.23,.22,.36,.04,.14,.06,.28,.03,.43h0Zm-1.95,4.53c0-1.5,1.08-2.36,2.95-2.36s2.95,.88,2.95,2.36-1.07,2.36-2.95,2.36-2.95-.86-2.95-2.36Zm4.84,0c0-.88-.65-1.3-1.87-1.3s-1.87,.43-1.87,1.3,.66,1.3,1.87,1.3,1.88-.45,1.88-1.3h0Zm1.22-4.53c.02,.14,0,.28-.05,.42-.05,.13-.12,.25-.22,.35-.1,.1-.22,.17-.36,.22-.13,.04-.28,.06-.42,.04-.14,.01-.28,0-.41-.05-.13-.05-.25-.12-.35-.22-.1-.1-.17-.22-.22-.35-.05-.13-.06-.27-.05-.41-.02-.14,0-.28,.03-.42,.04-.13,.12-.26,.22-.36,.1-.1,.22-.18,.35-.23,.13-.05,.28-.06,.42-.05,.14-.02,.29,0,.42,.04,.14,.04,.26,.12,.36,.22,.1,.1,.18,.23,.22,.36,.04,.14,.06,.28,.03,.43h0Z"/></g></svg>