<?xml version="1.0" encoding="UTF-8"?><svg xmlns="http://www.w3.org/2000/svg" width="24" height="24" viewBox="0 0 24 24"><defs><style>.c{fill:none;}</style></defs><g id="a"><rect class="c" width="24" height="24"/></g><g id="b"><path d="M12,3.74c5.1,0,8.3,3.2,8.3,8.26s-3.23,8.26-8.3,8.26S3.7,17.03,3.7,12,6.91,3.74,12,3.74Zm0,1.13c-4.42,0-7.13,2.72-7.13,7.14s2.74,7.14,7.13,7.14,7.14-2.75,7.14-7.14-2.72-7.16-7.14-7.16v.02Zm2.66,8.98l.59,.96c-.58,.48-1.31,.74-2.07,.74-1.22,0-1.65-1.22-2.47-1.22-.5,.03-.98,.22-1.36,.54l-.59-.94c.55-.5,1.27-.76,2.01-.74,1.18,0,1.53,1.18,2.49,1.18,.51-.02,.99-.21,1.39-.52h0Zm-3.68-3.97c.02,.14,0,.28-.05,.42-.05,.13-.12,.25-.22,.35-.1,.1-.22,.17-.36,.22-.13,.04-.28,.06-.42,.04-.14,.01-.28,0-.41-.05s-.25-.12-.35-.22c-.1-.1-.17-.22-.22-.35-.05-.13-.06-.27-.05-.41-.02-.14,0-.28,.03-.42,.04-.14,.12-.26,.22-.36s.22-.18,.35-.23c.13-.05,.28-.06,.42-.05,.14-.02,.29,0,.42,.04,.14,.04,.26,.12,.36,.22,.1,.1,.18,.23,.22,.36,.04,.14,.06,.28,.04,.43h0Zm4.13,0c.02,.14,0,.28-.05,.42-.05,.13-.12,.25-.23,.35s-.22,.17-.36,.22-.28,.06-.42,.04c-.14,.01-.28,0-.41-.05-.13-.05-.25-.12-.35-.22-.1-.1-.17-.22-.22-.35-.05-.13-.06-.27-.05-.41-.02-.14-.01-.28,.03-.42,.04-.14,.12-.26,.22-.36,.1-.1,.22-.18,.35-.23,.13-.05,.28-.06,.42-.05,.14-.02,.28,0,.42,.05,.13,.05,.25,.12,.35,.23,.1,.1,.17,.22,.22,.36,.04,.14,.06,.28,.03,.42h.02Z"/></g></svg>