<svg id="Icones" xmlns="http://www.w3.org/2000/svg" width="32" height="32" viewBox="0 0 32 32"><defs><style>.cls-1{fill:none;}</style></defs><rect class="cls-1" width="32" height="32"/><path d="M4.76,18.74V20.5c0,.57.19.85.72,1l.66.16v1.1l-.66-.16c-1.32-.31-1.82-.91-1.82-2.07V18.78c0-1.6.13-2,1-2.8l.54-.53,1.09.32-.81.84A2.44,2.44,0,0,0,4.76,18.74ZM7,11.47H4.76V10.4H14a2.93,2.93,0,0,0,3.13-2.22l1,.31a4,4,0,0,1-3.36,2.92V12.6H13.73V11.47H8.08V12.6H7ZM18.12,16a6.73,6.73,0,0,0-4.21-1.12H7l-2.19-.51v-.56h9.15A7.71,7.71,0,0,1,18.65,15l3.17,2,3.89.59A2.27,2.27,0,0,1,27.84,19a5.51,5.51,0,0,1,.44,2c0,1-.57,1.54-1.66,1.7v-1.1c.43-.09.59-.25.59-.56a4.83,4.83,0,0,0-.28-1.45,1.34,1.34,0,0,0-1.35-1L21.28,18ZM9.21,24.92a2.2,2.2,0,1,1,0-4.39,2.14,2.14,0,0,1,2,1.13H21.53a2.26,2.26,0,0,1,4.21,1.07,2.1,2.1,0,0,1-2.23,2.19,2.08,2.08,0,0,1-2.23-2.19H11.44A2.08,2.08,0,0,1,9.21,24.92Zm0-3.35A1.11,1.11,0,0,0,8,22.73a1.1,1.1,0,0,0,1.19,1.16,1.08,1.08,0,0,0,1.19-1.16A1.1,1.1,0,0,0,9.21,21.57Zm12.67-9.19L20.41,12l.18-.78c.47.09.94.22,1.7.44L23.54,11l-1.25-.72a11.66,11.66,0,0,1-1.66.44l-.19-.79c.56-.12,1-.22,1.44-.34-.13-.47-.25-.94-.44-1.45l.79-.21a12.59,12.59,0,0,1,.43,1.66l1.32.72V8.83a10.56,10.56,0,0,1-1.19-1.22l.6-.53c.43.47.75.81,1,1.06a12.52,12.52,0,0,0,1-1.06l.6.53c-.32.35-.66.72-1.22,1.26v1.44l1.31-.72c.57-2.14.35-1.35.47-1.66l.76.21c-.16.51-.29.95-.44,1.45.47.09.94.22,1.44.31l-.19.78c-.44-.09-1-.21-1.63-.4L25.17,11l1.29.72c.5-.16.91-.25,1.69-.44l.19.78c-.47.13-.94.22-1.44.35a9.44,9.44,0,0,0,.44,1.41l-.79.22c-.19-.59-.34-1.16-.47-1.63l-1.31-.75V13.1c.56.53.9.91,1.22,1.25l-.6.54a12.43,12.43,0,0,0-1-1.07c-.25.25-.57.6-1,1.07l-.6-.54A12.45,12.45,0,0,1,24,13.13V11.66l-1.32.75c-.09.47-.25,1-.43,1.63l-.79-.22C21.66,13.19,21.79,12.75,21.88,12.38Zm1.63,11.51a1.1,1.1,0,0,0,1.19-1.16,1.11,1.11,0,0,0-1.19-1.16,1.1,1.1,0,0,0-1.19,1.16A1.08,1.08,0,0,0,23.51,23.89Z"/></svg>