<svg id="Icones" xmlns="http://www.w3.org/2000/svg" width="32" height="32" viewBox="0 0 32 32"><defs><style>.cls-1{fill:none;}</style></defs><rect class="cls-1" width="32" height="32"/><path d="M20.77,13.19c0-3.35-1.63-5-4.9-5s-4.95,1.76-4.95,5.49C8.54,13.63,7,14.76,7,16.58a2.73,2.73,0,0,0,2.26,2.73l-.38,1a3.8,3.8,0,0,1-3-3.76c0-2.13,1.51-3.67,3.92-3.95.22-3.54,2.42-5.55,6-5.55s5.74,1.91,6,5.08c2.64.16,4.24,1.72,4.24,4.17a3.85,3.85,0,0,1-3,4l-.35-1a3,3,0,0,0,2.26-3C25,14.29,23.5,13.19,20.77,13.19Zm-7.72,4.49a.86.86,0,0,1-1,1,.88.88,0,0,1-1-1,.86.86,0,0,1,1-1A.85.85,0,0,1,13.05,17.68Zm0,4.58a.86.86,0,0,1-1,1,.88.88,0,0,1-1-1,.87.87,0,0,1,1-1A.85.85,0,0,1,13.05,22.26ZM17,16a.87.87,0,0,1-1,1,.88.88,0,0,1-1-1,.86.86,0,0,1,1-1A.85.85,0,0,1,17,16Zm0,4a.86.86,0,0,1-1,1,.88.88,0,0,1-1-1,.87.87,0,0,1,1-1A.85.85,0,0,1,17,20Zm0,4a.86.86,0,0,1-1,1,.87.87,0,0,1-1-1,.86.86,0,0,1,1-1A.85.85,0,0,1,17,24Zm3.92-6.27a.86.86,0,0,1-1,1,.88.88,0,0,1-1-1,.86.86,0,0,1,1-1A.85.85,0,0,1,20.89,17.68Zm0,4.58a.86.86,0,0,1-1,1,.88.88,0,0,1-1-1,.87.87,0,0,1,1-1A.85.85,0,0,1,20.89,22.26Z"/></svg>