<svg id="Icones" xmlns="http://www.w3.org/2000/svg" width="32" height="32" viewBox="0 0 32 32"><defs><style>.cls-1{fill:none;}</style></defs><rect class="cls-1" width="32" height="32"/><path d="M9.46,21.83c-.75,0-1.5,0-2.26,0V20.8a31.38,31.38,0,0,1,3.36,0L15,16.53H9.18A25,25,0,0,1,6.7,19L6,18.23c.6-.54,1.19-1.1,1.76-1.7H4.79V15.47H7.71c-.57-.6-1.16-1.16-1.76-1.7L6.7,13a25,25,0,0,1,2.48,2.45H15l-4.42-4.24c-1,0-2.16,0-3.2,0V10.14c.69,0,1.41.06,2.1,0l-2.07-2,.79-.78L10.5,9.63c0-.84,0-1.72,0-2.57h1.06a35.61,35.61,0,0,1,0,3.58l3.92,3.73V9.16A25.87,25.87,0,0,1,13,6.69l.75-.76c.53.6,1.1,1.2,1.69,1.76V4.8h1.1V7.69c.59-.56,1.16-1.16,1.69-1.76l.75.76a25.87,25.87,0,0,1-2.44,2.47v5.21l3.92-3.73a35.62,35.62,0,0,1,0-3.58h1.06c0,.85-.06,1.73,0,2.57l2.32-2.22.79.78-2.07,2c.69,0,1.41,0,2.1,0V11.2c-1,.06-2.16.06-3.2,0L17,15.47h5.8A25,25,0,0,1,25.3,13l.75.75c-.6.54-1.19,1.1-1.76,1.7h2.92v1.06H24.29c.57.6,1.16,1.16,1.76,1.7L25.3,19a25,25,0,0,1-2.48-2.45H17l4.42,4.27a31.38,31.38,0,0,1,3.36,0v1.06c-.76,0-1.51-.06-2.26,0l2.07,2-.79.78-2.16-2.07c0,.79,0,1.63,0,2.42H20.63a27.87,27.87,0,0,1,0-3.42l-4.08-3.89v5.21A25.87,25.87,0,0,1,19,25.31l-.75.76c-.53-.6-1.1-1.2-1.69-1.76V27.2h-1.1V24.31c-.59.56-1.16,1.16-1.69,1.76L13,25.31a25.87,25.87,0,0,1,2.44-2.47V17.63l-4.08,3.89a27.87,27.87,0,0,1,0,3.42H10.31c0-.79.06-1.63,0-2.42L8.18,24.59l-.79-.78Z"/></svg>