<svg id="Icones" xmlns="http://www.w3.org/2000/svg" width="32" height="32" viewBox="0 0 32 32"><defs><style>.cls-1{fill:none;}</style></defs><rect class="cls-1" width="32" height="32"/><path d="M15.87,24.91a52.26,52.26,0,0,1-6.06-4.45H4.64v-9H9.81A36.53,36.53,0,0,1,15.87,7h1.06V24.91Zm-5.65-5.55a47.94,47.94,0,0,0,5.65,4.23V8.35a32.6,32.6,0,0,0-5.65,4.24H5.71v6.77Zm9.88-9.5.88-.6c1.85,2.42,2.69,4.49,2.69,6.71s-.84,4.3-2.69,6.71l-.88-.59c1.72-2.35,2.48-4.17,2.48-6.12S21.82,12.21,20.1,9.86Zm2.7-1.73.87-.59C26,10.55,27,13.15,27,16S26,21.49,23.67,24.41l-.87-.6C25,20.9,25.93,18.48,25.93,16S25,11.05,22.8,8.13Z"/></svg>