<svg id="Icones" xmlns="http://www.w3.org/2000/svg" width="32" height="32" viewBox="0 0 32 32"><defs><style>.cls-1{fill:none;}</style></defs><rect class="cls-1" width="32" height="32"/><path d="M4.26,7.09c2.32,0,3.19.38,4.1,1.73l.57.85a6.25,6.25,0,0,0-.91.62L7.58,9.6C6.86,8.51,6.11,8.16,4.26,8.16Zm18,11.67a1.2,1.2,0,0,0-2.39,0v.6H11v-.6A1.11,1.11,0,0,0,9.84,17.6a1.11,1.11,0,0,0-1.19,1.16v.6H7.45a2.09,2.09,0,0,1-2.1-2.2v-.81c0-1.54.1-1.76,1.63-3.58s2.32-2.32,4-2.32h4a6.94,6.94,0,0,1,4.17,1.29l2.38,1.78L23,13.9a2.77,2.77,0,0,1,2.45,3c0,1.56-.76,2.51-2,2.51H22.23ZM12,18.29h6.87a2.22,2.22,0,0,1,4.33,0c.94,0,1.19-.31,1.19-1.44s-.57-1.7-2-2l-1.53-.38-2.32-1.75A5.37,5.37,0,0,0,15,11.52H11c-1.29,0-1.76.31-3.2,2-1.26,1.54-1.32,1.7-1.32,2.95v.66c0,.69.38,1.13,1,1.13h.25a2.13,2.13,0,0,1,2.17-1.73A2.12,2.12,0,0,1,12,18.29ZM9.84,24.94a2.2,2.2,0,1,1,0-4.39,2.08,2.08,0,0,1,2.22,2.19A2.1,2.1,0,0,1,9.84,24.94Zm0-3.36a1.1,1.1,0,0,0-1.19,1.16A1.11,1.11,0,0,0,9.84,23.9,1.1,1.1,0,0,0,11,22.74,1.08,1.08,0,0,0,9.84,21.58ZM21,24.94a2.2,2.2,0,1,1,0-4.39,2.2,2.2,0,1,1,0,4.39Zm0-3.36a1.1,1.1,0,0,0-1.19,1.16,1.2,1.2,0,0,0,2.39,0A1.08,1.08,0,0,0,21,21.58ZM23.6,8.69a3.72,3.72,0,0,1,2.73-1.63,2.45,2.45,0,0,1,1.41.41l-.53,1a1.65,1.65,0,0,0-.88-.28c-.62,0-1.31.47-2.13,1.47l-2.29,2.76-.78-.69Z"/></svg>