<?xml version="1.0" encoding="UTF-8"?><svg xmlns="http://www.w3.org/2000/svg" width="24" height="24" viewBox="0 0 24 24"><defs><style>.c{fill:none;}</style></defs><g id="a"><rect class="c" width="24" height="24"/></g><g id="b"><path d="M.66,2.79c2.01,0,2.74,.36,3.56,1.49l.52,.74-.93,.65-.57-.87c-.44-.68-.98-.93-2.59-.93v-1.09ZM19.54,10.99l-2.26-.49c-.74-.16-1.7-1.31-3.4-1.96-1.45-.44-2.97-.65-4.48-.6-1.29,.01-2.58,.1-3.85,.27l-1.22-.62-.03-.33c1.79-.24,3.6-.38,5.4-.43,1.59-.04,3.17,.2,4.67,.7,1.52,.57,2.72,1.76,3.12,1.85l2.26,.52c.87,.19,1.41,.49,1.7,1.03,.42,.8,.65,1.68,.68,2.59,0,1.17-.79,1.7-2.01,1.7h-1.36v-.97c0-.32-.13-.63-.36-.86-.23-.23-.54-.36-.86-.36s-.64,.13-.86,.36c-.23,.23-.36,.54-.36,.86v.98H7.61v-.98c0-.32-.13-.63-.36-.86-.23-.23-.54-.36-.86-.36s-.64,.13-.86,.36c-.23,.23-.36,.54-.36,.86v.95h-.73c-1.28-.14-2.61-.87-2.61-2.47v-1.52c0-.74,.3-1.13,1.87-2.72l.98,.56c-1.47,1.49-1.74,1.74-1.74,2.37v1.31c0,.31,.11,.61,.32,.84,.21,.23,.5,.37,.81,.38,.07-.58,.35-1.12,.79-1.5,.44-.38,1.02-.58,1.6-.56,.59,.02,1.14,.26,1.56,.68,.42,.41,.66,.97,.69,1.56h6.52c.03-.6,.29-1.17,.72-1.59,.43-.42,1.01-.66,1.61-.67,.61,0,1.19,.24,1.62,.66,.44,.42,.69,1,.71,1.6h.19c.82,0,.95-.16,.95-.71-.01-.66-.19-1.3-.52-1.87-.19-.27-.38-.39-1-.54Zm-10.81,7.77c.02,.32-.03,.63-.14,.93-.11,.3-.28,.57-.5,.8-.22,.23-.48,.41-.77,.54-.29,.12-.6,.19-.92,.19s-.63-.06-.92-.19c-.29-.12-.55-.31-.77-.54-.22-.23-.39-.5-.5-.8-.11-.3-.16-.61-.14-.93-.02-.32,.03-.63,.14-.93,.11-.3,.28-.57,.5-.8,.22-.23,.48-.41,.77-.54,.29-.12,.6-.19,.92-.19s.63,.06,.92,.19c.29,.12,.55,.31,.77,.54,.22,.23,.39,.5,.5,.8,.11,.3,.16,.61,.14,.93Zm-1.13,0c0-.32-.13-.64-.36-.86-.23-.23-.54-.36-.86-.36s-.64,.13-.86,.36c-.23,.23-.36,.54-.36,.86s.13,.63,.36,.86c.23,.23,.54,.36,.86,.36s.64-.13,.86-.36c.23-.23,.36-.54,.36-.86Zm12.31,0c0,.62-.25,1.21-.68,1.65-.44,.44-1.03,.68-1.65,.68s-1.21-.25-1.65-.68c-.44-.44-.68-1.03-.68-1.65s.25-1.21,.68-1.65c.44-.44,1.03-.68,1.65-.68s1.21,.25,1.65,.68c.44,.44,.68,1.03,.68,1.65h0Zm-1.13,0c0-.32-.13-.64-.36-.86-.23-.23-.54-.36-.86-.36s-.64,.13-.86,.36c-.23,.23-.36,.54-.36,.86s.13,.63,.36,.86c.23,.23,.54,.36,.86,.36s.63-.13,.86-.36c.23-.23,.36-.54,.36-.86Zm.9-14.59c.79-.95,1.6-1.39,2.39-1.39,.44-.01,.89,.09,1.28,.3l-.41,1.01c-.25-.11-.52-.17-.79-.19-.57,0-.95,.16-1.82,1.19l-1.95,2.39-.81-.74,2.12-2.58Z"/></g></svg>