<?xml version="1.0" encoding="UTF-8"?><svg xmlns="http://www.w3.org/2000/svg" width="24" height="24" viewBox="0 0 24 24"><defs><style>.c{fill:none;}</style></defs><g id="a"><rect class="c" width="24" height="24"/></g><g id="b"><path d="M10.24,21.14v-.34c0-3.16-1.32-4.7-4.12-4.7s-4.12,1.55-4.12,4.7v.59H.83v-.59c0-3.02,1.07-4.8,3.28-5.47-.41-.28-.73-.65-.95-1.1-.22-.44-.32-.93-.29-1.42,0-1.95,1.24-3.19,3.25-3.19s3.25,1.24,3.25,3.19c.02,.49-.08,.97-.29,1.41-.21,.44-.53,.82-.93,1.1,1.61,.51,2.79,1.63,3.16,3.95l2.16-3.86,.96,.54-3.02,5.44-1.16-.26Zm-2.03-8.33c.02-.28-.02-.56-.12-.83s-.26-.5-.46-.7c-.2-.2-.45-.35-.71-.44-.27-.09-.55-.12-.83-.09-.28-.03-.56,0-.83,.09-.27,.09-.51,.24-.71,.44-.2,.2-.36,.44-.46,.7-.1,.26-.14,.55-.11,.83,0,1.38,.76,2.18,2.12,2.18s2.12-.79,2.12-2.18Zm2.26,.34h10.53c.73,0,1.02-.31,1.02-1.05V4.77c0-.74-.28-1.04-1.02-1.04H10.07c-.74,0-1.02,.31-1.02,1.04v4.7c-.33-.33-.73-.59-1.18-.74V4.6c0-1.35,.65-2,2.01-2h11.28c1.35,0,2.01,.65,2.01,2v7.68c0,1.36-.65,2.01-2.01,2.01H10.24c.16-.36,.24-.74,.23-1.13h0Zm.93-7.06h8.23v1.18H11.4v-1.18Zm0,2.35h5.88v1.18h-5.88v-1.18Z"/></g></svg>