<?xml version="1.0" encoding="UTF-8"?><svg xmlns="http://www.w3.org/2000/svg" width="24" height="24" viewBox="0 0 24 24"><defs><style>.c{fill:none;}</style></defs><g id="a"><rect class="c" width="24" height="24"/></g><g id="b"><path d="M2.58,21.4H1.4v-.59c0-3.01,1.07-4.8,3.27-5.47-.41-.28-.73-.65-.95-1.09-.22-.44-.32-.93-.29-1.42,0-1.95,1.24-3.19,3.24-3.19s3.24,1.24,3.24,3.19c.02,.49-.08,.97-.29,1.41-.21,.44-.53,.82-.93,1.1,2.22,.68,3.29,2.44,3.29,5.47v.59h-1.18v-.59c0-3.16-1.32-4.7-4.11-4.7s-4.11,1.55-4.11,4.7l-.02,.59Zm6.24-8.57c.02-.28-.02-.56-.11-.83-.1-.26-.26-.5-.46-.7-.2-.2-.45-.35-.71-.44-.27-.09-.55-.12-.83-.09-.28-.03-.57,0-.83,.09-.27,.09-.51,.24-.71,.44s-.36,.44-.46,.7c-.1,.26-.14,.55-.11,.83,0,1.38,.76,2.17,2.12,2.17s2.12-.79,2.12-2.17Zm4.14-.82c-.69-.46-1.24-1.09-1.61-1.83-.37-.74-.54-1.56-.5-2.38,0-3.21,2.23-5.19,5.88-5.19s5.88,1.97,5.88,5.19-2.26,5.33-5.88,5.33c-.49,0-.98-.04-1.47-.11-.67,.67-1.38,1.3-2.12,1.89l-.76-.9c.89-.67,1.72-1.42,2.48-2.23,.61,.14,1.24,.22,1.86,.22,2.94,0,4.7-1.55,4.7-4.2s-1.76-4.06-4.7-4.06-4.7,1.49-4.7,4.06c-.03,.66,.12,1.32,.43,1.91,.31,.59,.77,1.08,1.34,1.43-.21,.35-.49,.65-.82,.88Z"/></g></svg>