<?xml version="1.0" encoding="UTF-8"?><svg xmlns="http://www.w3.org/2000/svg" width="24" height="24" viewBox="0 0 24 24"><defs><style>.c{fill:none;}</style></defs><g id="a"><rect class="c" width="24" height="24"/></g><g id="b"><path d="M11.51,20.74c-.37,.69-.8,1.34-1.29,1.95h-1.21c-.48-.61-.92-1.26-1.29-1.95h-3.57c-.26,.02-.52-.02-.77-.11-.25-.09-.47-.23-.65-.42-.18-.18-.33-.41-.42-.65-.09-.24-.13-.51-.11-.77V7.81c-.01-.26,.03-.52,.12-.76,.1-.24,.24-.46,.42-.64,.18-.18,.4-.32,.65-.41,.24-.09,.5-.13,.76-.11H15.13c1.29,0,1.95,.66,1.95,1.95v10.96c.02,.27-.02,.53-.11,.78s-.24,.47-.43,.66c-.19,.19-.42,.33-.67,.41-.25,.09-.52,.12-.78,.09h-3.57Zm-1.89,.99c.44-.66,.82-1.36,1.14-2.09h4.2c.13,.02,.27,0,.4-.03,.13-.04,.25-.11,.34-.2,.1-.09,.17-.21,.22-.33,.05-.13,.07-.26,.06-.39V7.95c.01-.13,0-.27-.05-.4s-.12-.24-.22-.33c-.1-.09-.21-.16-.34-.2-.13-.04-.26-.05-.4-.03H4.29c-.13-.01-.25,0-.37,.05-.12,.04-.23,.11-.32,.2-.09,.09-.16,.2-.21,.32-.05,.12-.07,.25-.06,.37v10.76c0,.13,.01,.26,.06,.38,.04,.12,.12,.23,.21,.32,.09,.09,.2,.16,.32,.21,.12,.05,.25,.07,.38,.06h4.2c.31,.73,.69,1.43,1.13,2.09h0Zm8.72-4.42V5.67c.02-.13,0-.27-.04-.4-.04-.13-.12-.24-.22-.34-.1-.09-.21-.17-.34-.21-.13-.04-.27-.05-.4-.03H5.64v-1.08h11.86c1.29,0,1.95,.66,1.95,1.95v11.74h-1.11Zm2.36-2.29V3.37c.01-.13,0-.27-.05-.4-.05-.13-.12-.24-.22-.33-.1-.09-.21-.16-.34-.2-.13-.04-.26-.05-.4-.03H7.91V1.31h11.95c1.29,0,1.94,.66,1.94,1.94V14.99l-1.1,.03Z"/></g></svg>