<?xml version="1.0" encoding="UTF-8"?><svg xmlns="http://www.w3.org/2000/svg" width="24" height="24" viewBox="0 0 24 24"><defs><style>.c{fill:none;}</style></defs><g id="a"><rect class="c" width="24" height="24"/></g><g id="b"><path d="M9.31,19.02c-1.33,.77-2.71,1.47-4.12,2.09l-.48-.31c.4-1.65,.64-2.67,1.1-4.23-1.37-1.47-2.11-3.41-2.07-5.42C3.74,6.07,6.94,2.89,12,2.89s8.26,3.22,8.26,8.3-3.13,8.2-8.13,8.2c-.95-.01-1.9-.14-2.82-.37h0Zm-3.15,.5c1.04-.47,2.04-1.02,2.98-1.65,1,.32,2.04,.48,3.09,.47,4.31,0,6.95-2.62,6.95-7.16s-2.72-7.24-7.16-7.24-7.16,2.7-7.16,7.19c.06,1.93,.81,3.78,2.12,5.2-.28,1.02-.56,1.97-.83,3.18Zm2.06-10.41c0-.18,.05-.35,.14-.5,.1-.15,.24-.26,.4-.33,.16-.07,.34-.09,.52-.05,.17,.03,.33,.12,.46,.24,.12,.12,.21,.28,.24,.46,.03,.17,.01,.35-.05,.52-.07,.16-.18,.3-.33,.4-.15,.1-.32,.15-.5,.14-.23,0-.46-.09-.62-.25s-.26-.39-.26-.62h.02Zm0,4.1c0-.12,.02-.23,.06-.34,.04-.11,.11-.21,.19-.29,.08-.08,.18-.15,.29-.2,.11-.05,.22-.07,.34-.07,.12,0,.24,0,.36,.05,.12,.04,.22,.1,.31,.19,.09,.08,.16,.18,.21,.3,.05,.11,.07,.23,.07,.36s-.02,.24-.07,.36c-.05,.11-.12,.21-.21,.3-.09,.08-.2,.15-.31,.19s-.24,.06-.36,.05c-.12,0-.23-.02-.34-.06-.11-.04-.21-.11-.29-.19-.08-.08-.15-.18-.19-.29-.04-.11-.07-.22-.07-.34h.02Zm4.55-1.51h-2.35v-1.1h2.35v1.1Zm.66-4.25l.81-.55c1.01,1.16,1.59,2.64,1.65,4.17-.05,1.55-.63,3.03-1.65,4.2l-.81-.5c.9-1.02,1.4-2.34,1.4-3.7-.01-1.34-.52-2.63-1.42-3.62h.02Z"/></g></svg>