<?xml version="1.0" encoding="UTF-8"?><svg xmlns="http://www.w3.org/2000/svg" width="24" height="24" viewBox="0 0 24 24"><defs><style>.c{fill:none;}</style></defs><g id="a"><rect class="c" width="24" height="24"/></g><g id="b"><path d="M21.9,14.12c.02,1.69-.44,3.35-1.33,4.78H3.42c-.88-1.44-1.34-3.1-1.33-4.78,0-5.28,4.12-9.02,9.9-9.02s9.9,3.73,9.9,9.02Zm-18.67,0c-.01,1.27,.28,2.52,.85,3.65h15.82c.57-1.13,.86-2.38,.86-3.65,0-4.65-3.62-7.89-8.77-7.89S3.23,9.47,3.23,14.12h0Zm1.8,.16h2.96v1.15h-2.96v-1.15Zm2.35-4.95l2.1,2.1-.77,.8-2.1-2.06,.78-.85Zm4.61,7.42c-.26,.02-.51-.01-.76-.1-.24-.09-.46-.23-.64-.41-.18-.18-.32-.4-.41-.64-.09-.24-.12-.5-.1-.76-.02-.26,.01-.51,.1-.76,.09-.24,.23-.46,.41-.64,.18-.18,.4-.32,.64-.41,.24-.09,.5-.12,.76-.1,.31,0,.62,.05,.92,.17l3.76-3.76,.8,.77-3.81,3.76c.15,.3,.23,.63,.23,.97,.02,.26-.01,.52-.1,.76-.09,.24-.23,.46-.41,.65-.18,.18-.4,.32-.64,.41-.24,.09-.5,.12-.76,.1h.02Zm0-2.74c-.11-.01-.22,0-.33,.04-.1,.04-.2,.1-.28,.18-.08,.08-.13,.18-.17,.28-.03,.11-.04,.22-.03,.33-.01,.11,0,.22,.04,.32,.04,.1,.09,.2,.17,.28,.08,.08,.17,.14,.27,.18,.1,.04,.21,.05,.32,.05,.11,0,.22,0,.32-.04,.1-.04,.2-.1,.27-.18,.08-.08,.14-.18,.17-.28,.03-.1,.04-.22,.03-.33,.02-.11,0-.23-.03-.34-.04-.11-.1-.21-.18-.29-.08-.08-.18-.14-.29-.18-.11-.04-.22-.05-.34-.03h.02Zm.58-6.16v2.96h-1.12v-2.96h1.12Zm6.43,7.58h-2.96v-1.15h2.96v1.15Z"/></g></svg>