<svg id="Icones" xmlns="http://www.w3.org/2000/svg" width="32" height="32" viewBox="0 0 32 32"><defs><style>.cls-1{fill:none;}</style></defs><rect class="cls-1" width="32" height="32"/><path d="M27.23,17.71a12.53,12.53,0,0,1-1.92,6.68H6.69a12.53,12.53,0,0,1-1.92-6.68c0-5.93,4.64-10.1,11.23-10.1S27.23,11.78,27.23,17.71Zm-21.3,0a11,11,0,0,0,1.48,5.61H24.59a11,11,0,0,0,1.48-5.61c0-5.3-4.14-9-10.07-9S5.93,12.41,5.93,17.71Zm2.17.72h3.35V19.5H8.1Zm2.38-5.58,2.38,2.38-.75.75L9.73,13.63Zm5.52,8A1.68,1.68,0,0,1,14.18,19,1.68,1.68,0,0,1,16,17.21a2.38,2.38,0,0,1,1,.22l4.43-4.49.78.76-4.52,4.54a2,2,0,0,1,.13.79A1.68,1.68,0,0,1,16,20.85Zm0-2.67a.74.74,0,0,0-.82.85.77.77,0,0,0,.82.84.75.75,0,0,0,.82-.84A.74.74,0,0,0,16,18.18ZM16.5,11v3.35H15.44V11Zm7.28,8.56H20.42V18.49h3.36Z"/></svg>