<?xml version="1.0" encoding="UTF-8"?><svg xmlns="http://www.w3.org/2000/svg" width="24" height="24" viewBox="0 0 24 24"><defs><style>.c{fill:none;}</style></defs><g id="a"><rect class="c" width="24" height="24"/></g><g id="b"><path d="M13.9,18.87c-.36,.8-.79,1.57-1.3,2.3h-1.21c-.5-.72-.94-1.49-1.3-2.3H5.36c-.26,.02-.52-.02-.77-.11-.25-.09-.47-.23-.65-.42-.19-.18-.33-.41-.42-.65s-.13-.51-.11-.77V4.77c-.01-.26,.03-.52,.12-.76,.09-.24,.24-.46,.42-.64,.18-.18,.41-.32,.65-.42,.24-.09,.5-.13,.76-.11h13.28c1.3,0,1.96,.67,1.96,1.96v12.13c.02,.27-.02,.53-.11,.78-.1,.25-.24,.48-.44,.66-.19,.19-.42,.33-.67,.42-.25,.09-.52,.12-.79,.09h-4.68Zm-1.91,1.3c.44-.77,.83-1.57,1.15-2.4h5.32c.13,.02,.27,0,.4-.03,.13-.04,.25-.11,.34-.2,.1-.09,.17-.21,.22-.33,.05-.13,.07-.26,.05-.39V4.9c.01-.13,0-.27-.05-.39-.05-.13-.12-.24-.21-.33-.1-.09-.21-.16-.34-.2-.13-.04-.26-.05-.39-.04H5.5c-.13-.01-.26,0-.38,.05-.12,.04-.23,.11-.32,.2-.09,.09-.16,.2-.21,.32-.05,.12-.07,.25-.06,.38v11.93c0,.13,.01,.26,.06,.38,.05,.12,.12,.23,.21,.32,.09,.09,.2,.16,.32,.21,.12,.05,.25,.06,.38,.06h5.37c.32,.83,.69,1.63,1.12,2.4h0Z"/></g></svg>