<svg id="Icones" xmlns="http://www.w3.org/2000/svg" width="32" height="32" viewBox="0 0 32 32"><defs><style>.cls-1{fill:none;}</style></defs><rect class="cls-1" width="32" height="32"/><path d="M12,17.29a10.64,10.64,0,0,1-1.72,1.95H9.07c-.25-.57-.47-1.23-.72-1.95H6.4A1.81,1.81,0,0,1,5,16.76a1.82,1.82,0,0,1-.42-.65,1.86,1.86,0,0,1-.12-.77V8.92a2,2,0,0,1,.13-.76,1.81,1.81,0,0,1,1.07-1A1.76,1.76,0,0,1,6.4,7H17.64A1.73,1.73,0,0,1,19.59,9v6.39a1.87,1.87,0,0,1-.11.78,1.7,1.7,0,0,1-.42.66,1.81,1.81,0,0,1-.67.42,1.73,1.73,0,0,1-.78.09Zm-2.2.91a12.51,12.51,0,0,0,1.62-2h6.06a.91.91,0,0,0,.4,0,1,1,0,0,0,.34-.2,1,1,0,0,0,.22-.33.91.91,0,0,0,.06-.4V9.06a1.12,1.12,0,0,0,0-.41,1.11,1.11,0,0,0-.22-.34.82.82,0,0,0-.36-.21.9.9,0,0,0-.4,0H6.54a.78.78,0,0,0-.37.05.83.83,0,0,0-.32.2.85.85,0,0,0-.21.31A.78.78,0,0,0,5.58,9v6.22a.82.82,0,0,0,.06.38.75.75,0,0,0,.21.32,1,1,0,0,0,.32.21.92.92,0,0,0,.37.05H9.23A17.57,17.57,0,0,0,9.78,18.2Zm3.76.25V21a.86.86,0,0,0,.06.39.83.83,0,0,0,.22.33.9.9,0,0,0,.34.2.91.91,0,0,0,.4,0h6a13,13,0,0,0,1.62,2,15.23,15.23,0,0,0,.57-2h2.67a1.21,1.21,0,0,0,.38-.06.94.94,0,0,0,.53-.53,1.19,1.19,0,0,0,.06-.37V14.79a1.19,1.19,0,0,0-.06-.37,1,1,0,0,0-.21-.31.83.83,0,0,0-.32-.2,1,1,0,0,0-.38-.05H20.74v-1.1H25.6a1.93,1.93,0,0,1,.75.11,1.78,1.78,0,0,1,.65.42,1.83,1.83,0,0,1,.42.64,1.77,1.77,0,0,1,.13.75v6.43a1.79,1.79,0,0,1-.12.76,1.84,1.84,0,0,1-1.07,1.07,2,2,0,0,1-.76.12h-2c-.25.71-.47,1.4-.71,2H21.75a10.92,10.92,0,0,1-1.71-2H14.39a1.89,1.89,0,0,1-.78-.1,1.8,1.8,0,0,1-.66-.41,1.8,1.8,0,0,1-.53-1.44V18.45Z"/></svg>