<?xml version="1.0" encoding="UTF-8"?><svg xmlns="http://www.w3.org/2000/svg" width="24" height="24" viewBox="0 0 24 24"><defs><style>.c{fill:none;}.d{fill-rule:evenodd;}</style></defs><g id="a"><rect class="c" width="24" height="24"/></g><g id="b"><path class="d" d="M1.44,7.56c0-.86,.7-1.57,1.57-1.57H13c.86,0,1.57,.7,1.57,1.57v10c0,.86-.7,1.56-1.57,1.56H7.19l-3.14,2.38-1.2-.66,.43-1.72h-.28c-.86,0-1.57-.7-1.57-1.56V7.56Zm1.57-.43c-.24,0-.43,.19-.43,.43v10c0,.24,.19,.43,.43,.43h1.72l-.49,1.95,2.57-1.95h6.19c.24,0,.44-.19,.44-.43V7.56c0-.24-.19-.43-.44-.43H3Zm6.43-3.07c0-.86,.7-1.57,1.56-1.57h10c.86,0,1.56,.7,1.56,1.57V14.06c0,.86-.7,1.57-1.56,1.57h-.81l.65,2.43-.83,.5-3.68-2.93h-.82v-1.13h1.18l2.48,1.77-.36-1.77h2.19c.24,0,.43-.19,.43-.44V4.06c0-.24-.19-.43-.43-.43H11c-.24,0-.43,.19-.43,.43v1h-1.13v-1Zm2.56,7H4v-1h8v1Zm0,2H4v-1h8v1Zm0,2H4v-1h8v1Z"/></g></svg>