<?xml version="1.0" encoding="UTF-8"?><svg xmlns="http://www.w3.org/2000/svg" width="24" height="24" viewBox="0 0 24 24"><defs><style>.c{fill:none;}</style></defs><g id="a"><rect class="c" width="24" height="24"/></g><g id="b"><path d="M7.98,13.29c-.49,.72-1.07,1.37-1.71,1.95h-1.2c-.25-.57-.47-1.24-.71-1.95h-1.95c-.26,.02-.52-.02-.77-.11-.24-.09-.47-.23-.65-.42-.18-.18-.33-.41-.42-.65-.09-.24-.13-.51-.11-.77V4.92c-.01-.26,.03-.52,.12-.76,.1-.24,.24-.46,.42-.64,.18-.18,.4-.32,.65-.41,.24-.09,.5-.13,.76-.11H13.64c1.29,0,1.95,.66,1.95,1.95v6.39c.02,.26-.01,.53-.1,.78-.09,.25-.24,.47-.43,.66s-.42,.33-.67,.42c-.25,.09-.52,.12-.78,.09H7.98Zm-2.2,.91c.6-.61,1.15-1.29,1.62-2.01h6.06c.13,.02,.27,0,.4-.03,.13-.04,.25-.11,.34-.2,.1-.09,.17-.21,.22-.33,.05-.13,.07-.26,.06-.39V5.06c.02-.14,0-.27-.04-.4-.04-.13-.12-.25-.22-.34-.1-.1-.22-.17-.35-.21-.13-.04-.27-.05-.41-.03H2.54c-.13-.01-.25,0-.37,.05-.12,.04-.23,.11-.32,.2-.09,.09-.16,.2-.21,.31s-.07,.24-.06,.37v6.22c0,.13,.01,.26,.06,.38,.04,.12,.12,.23,.21,.32,.09,.09,.2,.16,.32,.21,.12,.05,.25,.07,.38,.06h2.69c.14,.68,.32,1.35,.55,2.01Zm3.76,.25v2.55c0,.13,0,.27,.06,.39,.05,.13,.12,.24,.22,.33,.1,.09,.21,.16,.34,.2,.13,.04,.26,.05,.4,.03h6.05c.47,.72,1.01,1.39,1.62,2.01,.23-.66,.42-1.33,.57-2.01h2.67c.13,0,.26-.01,.38-.06,.12-.05,.23-.12,.32-.21,.09-.09,.16-.2,.21-.32,.05-.12,.07-.25,.06-.38v-6.2c0-.13-.01-.25-.06-.37-.05-.12-.12-.23-.21-.31-.09-.09-.2-.16-.32-.2-.12-.04-.25-.06-.37-.05h-4.72v-1.1h4.85c.26-.02,.52,.02,.76,.11,.24,.09,.46,.23,.65,.41,.18,.18,.33,.4,.42,.64,.09,.24,.14,.5,.12,.76v6.42c.02,.26-.02,.52-.11,.77-.09,.24-.23,.47-.42,.65-.19,.18-.41,.33-.65,.42-.25,.09-.51,.13-.77,.11h-1.95c-.25,.71-.46,1.4-.71,1.95h-1.18c-.65-.58-1.23-1.23-1.72-1.95h-5.65c-.26,.03-.53,0-.78-.09-.25-.09-.48-.23-.67-.42-.19-.19-.33-.41-.42-.66s-.13-.52-.1-.78v-2.66h1.12Z"/></g></svg>