<svg id="Icones" xmlns="http://www.w3.org/2000/svg" width="32" height="32" viewBox="0 0 32 32"><defs><style>.cls-1{fill:none;}</style></defs><rect class="cls-1" width="32" height="32"/><path d="M3.6,15.47A5.46,5.46,0,0,1,1.31,11c0-2,1.32-3.89,3.7-5.4A18.65,18.65,0,0,0,1.66,6l-.13-.91A20.23,20.23,0,0,1,6,4.81l.47.56a38.53,38.53,0,0,1-1,4.3l-.87-.25a25.79,25.79,0,0,0,.94-3.2c-2,1.32-3.2,3.1-3.2,4.74A4.4,4.4,0,0,0,4,14.4,3.83,3.83,0,0,0,3.6,15.47Zm7.4-.38a2.58,2.58,0,0,0-2.35-1.34A2.82,2.82,0,0,0,5.7,16.47a3.39,3.39,0,0,0,.51,1.76l.69,1.22L6,20l-.76-1.38a4.48,4.48,0,0,1-.62-2.1,3.93,3.93,0,0,1,4-3.86,3.54,3.54,0,0,1,3.29,1.79l.38.62-.5,1.29Zm-.75,8.41L7.24,18a3,3,0,0,1-.41-1.35,1.74,1.74,0,0,1,1.85-1.82,1.86,1.86,0,0,1,1.76,1.13L12,18.73,15.49,9.2a1.79,1.79,0,0,1,1.72-1.29,1.86,1.86,0,0,1,1.88,1.76,2.48,2.48,0,0,1-.21.94L17.62,14h0a1.83,1.83,0,0,1,1.82,1.78V16h.28a1.73,1.73,0,0,1,1.7,1.69.56.56,0,0,1,0,.22h.12a1.78,1.78,0,0,1,1.85,1.88,3.49,3.49,0,0,1-.19,1l-.62,1.82a11,11,0,0,1-2.29,4.24,4.56,4.56,0,0,1-1.45,1l-.75.44-.78,2.1-1-.31.88-2.54.94-.47A7.66,7.66,0,0,0,19.53,26a8.16,8.16,0,0,0,1.85-3.29l.85-2.42a1.61,1.61,0,0,0,.09-.5.79.79,0,0,0-.87-.82c-.25,0-.29,0-.35,0l-.69-.69a1,1,0,0,0,.06-.34,1,1,0,0,0-.94-1,1.08,1.08,0,0,0-.4,0l-.69-.66A1,1,0,0,0,18.5,16a1.15,1.15,0,0,0-1.1-1.1c-.25,0-.28,0-.34,0l-.69-.66,1.47-4.05A1.4,1.4,0,0,0,18,9.7.77.77,0,0,0,17.21,9c-.31,0-.47.13-.62.53l-4.11,11-1-.41-1.94-3.6c-.25-.47-.5-.66-.88-.66a.7.7,0,0,0-.72.75,2.79,2.79,0,0,0,.31.94l3.11,5.62v3.26h-1.1ZM20,10.8a3.49,3.49,0,0,0,.29-1.35c0-1.32-1.57-2.67-3.11-2.67A2.74,2.74,0,0,0,14.58,8.7L14,10.23l-1-.34.63-1.66a3.58,3.58,0,0,1,3.48-2.51,4.11,4.11,0,0,1,4.23,3.76,3.41,3.41,0,0,1-.34,1.6l-.57,1.47-1-.37ZM18.56,1.48c3.67,0,6,1.85,7,5.59.25-1,.4-1.79.69-3.23l.87.18a32.05,32.05,0,0,1-1.22,4.3l-.72.25c-1.35-.81-2.1-1.32-3.67-2.44l.53-.73a31.49,31.49,0,0,0,2.67,2c-1.07-3.42-3-4.92-6.18-4.92h-.47v-1Z"/></svg>