<svg id="Icones" xmlns="http://www.w3.org/2000/svg" width="32" height="32" viewBox="0 0 32 32"><defs><style>.cls-1{fill:none;}</style></defs><rect class="cls-1" width="32" height="32"/><path d="M6.09,13.1A4.87,4.87,0,0,1,3.68,8.87c0-2,1.31-3.89,3.7-5.4A17.9,17.9,0,0,0,4,3.94L3.89,3a19.91,19.91,0,0,1,4.46-.31l.47.56a36.44,36.44,0,0,1-1,4.3l-.87-.25a25.79,25.79,0,0,0,.94-3.2c-2,1.32-3.2,3.1-3.2,4.74a3.82,3.82,0,0,0,1.85,3.32Zm3.45,0A2.09,2.09,0,0,1,11.3,12a1.77,1.77,0,0,1,1.78,1.73,1.93,1.93,0,0,1-.22.91L9.13,22.7l1.63-1.23a2.14,2.14,0,0,1,1.32-.5,1.79,1.79,0,0,1,1.76,1.79A2,2,0,0,1,13,24.29L5.9,29.59,4.68,32.17l-1-.44L5,28.94l7.22-5.4c.4-.31.53-.5.53-.81a.63.63,0,0,0-.69-.69,1.22,1.22,0,0,0-.66.28L8.22,24.61l-1-.44,4.61-10a1.05,1.05,0,0,0,.13-.48.71.71,0,0,0-.76-.65.75.75,0,0,0-.69.53L8,18.84l-.94-.5ZM7,13.54,7.72,12a3.81,3.81,0,0,1,3.45-2.22,3.9,3.9,0,0,1,4.08,3.7,4,4,0,0,1-.38,1.75l-.75,1.6-.94-.47.69-1.47a3.41,3.41,0,0,0,.28-1.41,2.8,2.8,0,0,0-3-2.64,2.59,2.59,0,0,0-2.48,1.57L8,14ZM21.3,6.48a2.59,2.59,0,0,0-2.48-1.57,2.8,2.8,0,0,0-3,2.64A3.42,3.42,0,0,0,16.13,9l.69,1.47-1,.47-.75-1.6a4,4,0,0,1-.37-1.75,3.89,3.89,0,0,1,4.07-3.7,3.8,3.8,0,0,1,3.45,2.22L23,7.58,22,8Zm.82,6.74L19.45,7.61c-.19-.38-.41-.53-.69-.53a.7.7,0,0,0-.75.66,1,1,0,0,0,.12.47l4.61,10-1,.44L18.6,16.39a1.26,1.26,0,0,0-.66-.31.65.65,0,0,0-.69.69c0,.31.13.5.54.81L25,23l1.29,2.79-1,.44-1.22-2.57L17,18.34a2,2,0,0,1-.87-1.54A1.78,1.78,0,0,1,17.91,15a2.14,2.14,0,0,1,1.32.5l1.63,1.23L17.13,8.68a1.93,1.93,0,0,1-.22-.91A1.78,1.78,0,0,1,18.7,6a1.89,1.89,0,0,1,1.75,1.1l2.64,5.58ZM19.73-.17c3.67,0,6,1.85,7,5.59.25-1,.4-1.79.69-3.23l.87.18a29.77,29.77,0,0,1-1.22,4.3l-.72.25C25,6.11,24.28,5.6,22.71,4.48l.53-.73c1,.85,1.45,1.16,2.67,2-1.07-3.45-3-4.95-6.18-4.95h-.41v-1Z"/></svg>