<svg id="Icones" xmlns="http://www.w3.org/2000/svg" width="32" height="32" viewBox="0 0 32 32"><defs><style>.cls-1{fill:none;}</style></defs><rect class="cls-1" width="32" height="32"/><path d="M8,17,1.63,17a32.66,32.66,0,0,0,3,1.94l-.5.85c-1.7-1.13-2.83-1.95-4-2.85V16.1a44.91,44.91,0,0,1,4-2.86l.5.85a34.76,34.76,0,0,0-3,1.95L8,16Zm2.42-6.34a2,2,0,0,1,1.75-1.09,1.77,1.77,0,0,1,1.79,1.72,1.88,1.88,0,0,1-.22.91L10,20.3l1.63-1.22a2.08,2.08,0,0,1,1.32-.5,1.77,1.77,0,0,1,1.75,1.78,2,2,0,0,1-.88,1.54l-7,5.3L5.52,29.77l-1-.44,1.29-2.79L13,21.15c.41-.32.54-.5.54-.82a.65.65,0,0,0-.69-.69,1.3,1.3,0,0,0-.66.28L9.06,22.21l-1-.44,4.61-10a1,1,0,0,0,.12-.47.7.7,0,0,0-.75-.66.76.76,0,0,0-.69.53L9.47,15.22l-.94-.5Zm-2.54.44.72-1.5A3.81,3.81,0,0,1,12,7.41a3.9,3.9,0,0,1,4.07,3.7,4.05,4.05,0,0,1-.37,1.76L15,14.47,14,14l.69-1.48A3.38,3.38,0,0,0,15,11.11a2.8,2.8,0,0,0-3-2.63,2.58,2.58,0,0,0-2.48,1.57l-.72,1.53Zm14.3-7a2.58,2.58,0,0,0-2.48-1.57,2.8,2.8,0,0,0-3,2.63A3.35,3.35,0,0,0,17,6.56L17.65,8l-.94.47L16,6.91a4,4,0,0,1-.38-1.76,3.91,3.91,0,0,1,4.08-3.7,3.82,3.82,0,0,1,3.45,2.23l.72,1.51-1,.43Zm.06,5.17-1.91-4a.76.76,0,0,0-.69-.54.72.72,0,0,0-.76.66,1,1,0,0,0,.13.47l4.61,10-1,.43L19.44,14c-.31-.22-.47-.32-.66-.32a.64.64,0,0,0-.69.69c0,.32.13.51.53.82l7.22,5.39,1.28,2.79-1,.44-1.22-2.57-7.06-5.3A2,2,0,0,1,17,14.4a1.78,1.78,0,0,1,1.76-1.78,2.08,2.08,0,0,1,1.32.5l1.63,1.22L18,6.28a1.88,1.88,0,0,1-.22-.91,1.77,1.77,0,0,1,1.78-1.72,2,2,0,0,1,1.76,1.1l1.88,4Zm1.5,1.16,6.34,0a32.66,32.66,0,0,0-3-1.94l.5-.85a44.59,44.59,0,0,1,4,2.86v.84c-1.16.91-2.29,1.73-4,2.86l-.5-.85a32.66,32.66,0,0,0,3-1.94l-6.34,0Z"/></svg>