<svg id="Icones" xmlns="http://www.w3.org/2000/svg" width="32" height="32" viewBox="0 0 32 32"><defs><style>.cls-1{fill:none;}</style></defs><rect class="cls-1" width="32" height="32"/><path d="M14.42,16l-1.35-.59a2.49,2.49,0,0,1-1.69-2.73V8.16a2,2,0,0,1,2.23-2.22h3.32a2,2,0,0,1,2.23,2.22v4.52a2.49,2.49,0,0,1-1.7,2.73L16.12,16h6.46v1.07H15.8v2.26a1.94,1.94,0,0,1-2.19,2.23V20.49c.78,0,1.1-.32,1.1-1.16V17.07h-2.2L11,23.78c-.4,1.85-.91,2.23-2.79,2.23H6.71c-1.63,0-2.32-.79-2-2.23L6.05,18.2c.38-1.57,1.1-2.2,2.6-2.2ZM9.78,23.78l1.54-6.71H8.65c-.91,0-1.19.25-1.41,1.13L5.92,23.78c-.18.79.07,1.16.79,1.16H8.18C9.25,24.94,9.56,24.72,9.78,23.78Zm2.7-13.39h5.58V8.16c0-.81-.31-1.16-1.13-1.16H13.61c-.82,0-1.13.35-1.13,1.16Zm4.48,4a1.5,1.5,0,0,0,1.1-1.72V11.46H12.48v1.22a1.5,1.5,0,0,0,1.1,1.72l1.69.82ZM22.89,14l2.35-2.38.82.81-2.39,2.35Zm3.17,6.46-.82.81-2.35-2.38.78-.78ZM23.67,16H27v1.07H23.67Z"/></svg>