<svg id="Icones" xmlns="http://www.w3.org/2000/svg" width="32" height="32" viewBox="0 0 32 32"><defs><style>.cls-1{fill:none;}</style></defs><rect class="cls-1" width="32" height="32"/><path d="M23.64,13.43c0,3.36,1.19,5.24,1.19,7.34,0,1.91-1,3-2.79,3s-2.82-1.13-2.82-3V15.94c0-.81-.31-1.13-1.13-1.13H15.8V24.94h1.13V26H6.83V24.94H8V9.26A2,2,0,0,1,10.22,7h3.36A2,2,0,0,1,15.8,9.26v4.49h2.29A2,2,0,0,1,20.32,16v4.8c0,1.32.56,2,1.72,2s1.73-.66,1.73-2c0-2.1-1.16-3.86-1.16-7.34v-.84c-1.41-.22-2.17-1.29-2.17-3.05V7h1V4.78h1V7h1.35V4.78h1V7h1v2.5c0,1.7-.82,2.83-2.2,3.05ZM13.58,8.1H10.22c-.82,0-1.13.35-1.13,1.16V24.94h5.62V9.26C14.71,8.45,14.39,8.1,13.58,8.1ZM12,19.3h-.51l.32-2.23H10.22l1.07-3.32h1.19L11.69,16h1.82ZM21.45,8v1.5c0,1.32.59,2.07,1.66,2.07s1.76-.72,1.76-2.07V8Z"/></svg>