<svg id="Icones" xmlns="http://www.w3.org/2000/svg" width="32" height="32" viewBox="0 0 32 32"><defs><style>.cls-1{fill:none;}</style></defs><rect class="cls-1" width="32" height="32"/><path d="M16,27.2C9.16,27.2,4.74,22.77,4.74,16S9.13,4.8,16,4.8,27.26,9.16,27.26,16,22.84,27.2,16,27.2Zm0-1.07c6.18,0,10.16-3.95,10.16-10.13S22.24,5.87,16,5.87,5.84,9.82,5.84,16,9.82,26.13,16,26.13ZM16.56,25V21.55a3.44,3.44,0,0,1-.56,0,3.44,3.44,0,0,1-.56,0V25c-4.8-.22-8-3.26-8.38-7.94h3.42a6.83,6.83,0,0,1-.06-.78V16H7C7,10.51,10.51,7,16,7s9,3.48,9,8.94H21.58v.28a6.83,6.83,0,0,1-.06.78h3.42C24.56,21.71,21.36,24.75,16.56,25Zm4.8-10.07h2.48c-.41-4.26-3.32-6.8-7.84-6.8s-7.43,2.54-7.84,6.8h2.48c.53-1.5,2.19-2.22,5.36-2.22S20.83,13.4,21.36,14.9Zm-7,6.4a6.15,6.15,0,0,1-3.51-3.2H8.32a6.81,6.81,0,0,0,6,5.68Zm-2.82-5.05A4.64,4.64,0,0,0,16,20.52a4.64,4.64,0,0,0,4.48-4.27c0-1.85-1.19-2.51-4.48-2.51S11.52,14.4,11.52,16.25Zm9.65,1.85a6.15,6.15,0,0,1-3.51,3.2v2.48a6.81,6.81,0,0,0,6-5.68Z"/></svg>