<?xml version="1.0" encoding="UTF-8"?><svg xmlns="http://www.w3.org/2000/svg" width="24" height="24" viewBox="0 0 24 24"><defs><style>.c{fill:none;}</style></defs><g id="a"><rect class="c" width="24" height="24"/></g><g id="b"><path d="M12,22.2c-6.2,0-10.2-4.02-10.2-10.2S5.77,1.8,12,1.8s10.2,3.97,10.2,10.2-3.99,10.2-10.2,10.2Zm0-1.13c5.52,0,9.07-3.54,9.07-9.07S17.55,2.93,12,2.93,2.93,6.47,2.93,12s3.57,9.08,9.07,9.08v-.02Zm.49-1.27v-3.25c-.16,.01-.33,.01-.49,0-.16,.01-.32,.01-.49,0v3.26c-4.16-.19-6.94-2.74-7.28-6.66h3.02c-.06-.3-.1-.6-.11-.9v-.24h-2.96c0-4.82,3.05-7.89,7.81-7.89s7.81,3.07,7.81,7.89h-2.96v.24c0,.3-.03,.61-.11,.9h3.02c-.32,3.92-3.1,6.47-7.26,6.66v-.02Zm4.11-8.87h2.15c-.52-3.97-3.08-5.74-6.75-5.74s-6.2,1.84-6.71,5.79h2.09c.6-1.47,2.23-2.37,4.62-2.37s4.03,.87,4.6,2.34v-.02Zm-6.13,7.71v-2.31c-1.12-.36-2.09-1.1-2.74-2.09h-2.23c.79,2.47,2.26,3.81,4.97,4.4Zm-2.19-6.39c0,1.7,1.77,3.24,3.72,3.24s3.73-1.52,3.73-3.24c0-1.58-1.39-2.56-3.73-2.56s-3.72,1-3.72,2.56Zm5.28,6.36c2.66-.57,4.14-1.9,4.92-4.4h-2.2c-.64,1-1.6,1.74-2.72,2.12v2.28Z"/></g></svg>