<?xml version="1.0" encoding="UTF-8"?><svg xmlns="http://www.w3.org/2000/svg" width="24" height="24" viewBox="0 0 24 24"><defs><style>.c{fill:none;}</style></defs><g id="a"><rect class="c" width="24" height="24"/></g><g id="b"><path d="M10.76,5.74v-1.14h-1.4v-1.14h3.92v1.14h-1.4v1.14c1.85,0,3.63,.73,4.96,2.02l.66-.65-.99-.98,.79-.79,2.77,2.76-.79,.79-.96-.96-.74,.74c.82,1.34,1.23,2.88,1.18,4.45,0,4.59-2.82,7.43-7.41,7.43s-7.41-2.84-7.41-7.43c-.04-4.42,2.56-7.15,6.83-7.37Zm.57,1.14c-3.99,0-6.27,2.28-6.27,6.26s2.35,6.31,6.27,6.31,6.27-2.37,6.27-6.31-2.33-6.27-6.3-6.27l.02,.02Zm-2.85,6.26c0,.57-.24,.84-.85,.84-.12,.02-.25,.02-.37-.02-.12-.04-.23-.1-.31-.19-.09-.09-.15-.2-.18-.32-.03-.12-.03-.24,0-.37,0-.6,.27-.85,.85-.85s.85,.28,.85,.85l.02,.05Zm3.7,3.74c0,.57-.24,.85-.85,.85-.12,.02-.23,0-.35-.03-.11-.04-.21-.1-.3-.18-.08-.08-.15-.18-.18-.3-.04-.11-.04-.23-.03-.35,0-.57,.27-.84,.85-.84s.83,.2,.83,.8l.02,.05Zm-1.41-8.83h1.14v5.12h-1.14v-5.12Zm5.09,5.05c0,.57-.25,.84-.85,.84-.12,.02-.23,0-.35-.03-.11-.04-.21-.1-.29-.18-.08-.08-.15-.18-.18-.29-.04-.11-.05-.23-.03-.34,0-.6,.27-.85,.85-.85s.85,.28,.85,.85Z"/></g></svg>