<svg id="Icones" xmlns="http://www.w3.org/2000/svg" width="32" height="32" viewBox="0 0 32 32"><defs><style>.cls-1{fill:none;}</style></defs><rect class="cls-1" width="32" height="32"/><path d="M15.3,7V5.87H13.61V4.78h4.48V5.87H16.4V7a8.69,8.69,0,0,1,6.15,2.61l.9-.91-.9-.91L23.33,7l2.6,2.61-.78.78-.91-.91-1,1A9.68,9.68,0,0,1,24.83,16c0,5.46-3.51,9-9,9s-9-3.51-9-9C6.83,10.67,10.13,7.22,15.3,7Zm.53,1.07c-4.89,0-7.9,3-7.9,7.9s3,7.91,7.9,7.91,7.91-3.05,7.91-7.91S20.73,8.07,15.83,8.07Zm-4.76,7.87c0,.57-.22.82-.82.82s-.81-.25-.81-.82.25-.81.81-.81S11.07,15.35,11.07,15.94Zm5.58,5.61c0,.57-.22.82-.82.82s-.81-.25-.81-.82.25-.81.81-.81S16.65,21,16.65,21.55ZM15.3,9.26h1.1V16H15.3Zm6.9,6.68c0,.57-.22.82-.82.82s-.81-.25-.81-.82.25-.81.81-.81S22.2,15.35,22.2,15.94Z"/></svg>