<svg id="Icones" xmlns="http://www.w3.org/2000/svg" width="32" height="32" viewBox="0 0 32 32"><defs><style>.cls-1{fill:none;}</style></defs><rect class="cls-1" width="32" height="32"/><path d="M9.26,16.56H4.8V15.44H9.26Zm1.6-4.92L7.69,8.47l.78-.78,3.17,3.17ZM7.69,23.53l3.17-3.17.78.78L8.47,24.31Zm8.28-12A4.07,4.07,0,0,1,20.39,16,4.08,4.08,0,0,1,16,20.42,4.1,4.1,0,0,1,11.55,16,4.07,4.07,0,0,1,16,11.58Zm0,7.78A3.08,3.08,0,0,0,19.29,16,3.08,3.08,0,0,0,16,12.64,3.08,3.08,0,0,0,12.64,16,3.08,3.08,0,0,0,16,19.36Zm-.53-10.1V4.8h1.12V9.26Zm0,17.94V22.74h1.12V27.2ZM23.53,7.69l.78.78-3.17,3.17-.78-.78ZM20.36,21.14l.78-.78,3.17,3.17-.78.78Zm6.84-5.7v1.12H22.74V15.44Z"/></svg>