<svg id="Icones" xmlns="http://www.w3.org/2000/svg" width="32" height="32" viewBox="0 0 32 32"><defs><style>.cls-1{fill:none;}</style></defs><rect class="cls-1" width="32" height="32"/><path d="M16,7c5.52,0,9,3.48,9,9s-3.51,9-9,9-9-3.51-9-9S10.51,7,16,7ZM16,8.1c-4.89,0-7.9,3-7.9,7.9s3,7.9,7.9,7.9,7.9-3,7.9-7.9S20.89,8.1,16,8.1ZM12.68,18.79C12.68,17,13.87,16,16,16s3.32,1,3.32,2.76S18.13,21.55,16,21.55,12.68,20.55,12.68,18.79Zm2.07-5a.87.87,0,0,1-1,1,.88.88,0,0,1-1-1,.86.86,0,0,1,1-1A.85.85,0,0,1,14.75,13.77Zm3.54,5c0-1.16-.78-1.76-2.29-1.76s-2.29.6-2.29,1.76.79,1.76,2.29,1.76S18.29,19.92,18.29,18.79Zm.91-5a.87.87,0,0,1-1,1,.89.89,0,0,1-1-1,.87.87,0,0,1,1-1A.85.85,0,0,1,19.2,13.77Z"/></svg>