<?xml version="1.0" encoding="UTF-8"?><svg xmlns="http://www.w3.org/2000/svg" width="24" height="24" viewBox="0 0 24 24"><defs><style>.c{fill:none;}</style></defs><g id="a"><rect class="c" width="24" height="24"/></g><g id="b"><path d="M7.09,15.62c-1.61,.62-3.17,1.12-4.59,1.53l-.3-1.07c1.45-.43,2.88-.94,4.32-1.48-.28-.69-.43-1.43-.43-2.18,0-4.06,3.41-6.58,8.86-6.58h6.15l.7,.75c-.97,7.68-4.11,11.54-9.41,11.54-1.02,.04-2.04-.17-2.96-.61-.92-.44-1.73-1.1-2.34-1.91Zm7.6-3.36c-2.06,1.05-4.3,2.07-6.49,2.93,.51,.61,1.16,1.09,1.89,1.41,.73,.32,1.52,.47,2.32,.44,4.38,0,7.14-3.17,8.22-10.07h-5.65c-4.75,0-7.73,2.06-7.73,5.48,0,.61,.13,1.22,.38,1.77,2.2-.86,4.43-1.83,6.63-2.93l.45,.96Z"/></g></svg>