<svg id="Icones" xmlns="http://www.w3.org/2000/svg" width="32" height="32" viewBox="0 0 32 32"><defs><style>.cls-1{fill:none;}</style></defs><rect class="cls-1" width="32" height="32"/><path d="M4.64,15.34V17.1c0,.57.19.85.72,1l.66.16v1.1l-.66-.16C4,18.86,3.54,18.26,3.54,17.1V15.38c0-1.6.13-2,1-2.79l.54-.54,1.09.32-.81.84A2.44,2.44,0,0,0,4.64,15.34ZM18,12.59a6.67,6.67,0,0,0-4.21-1.13h-7L4.64,11v-.56h9.15a7.71,7.71,0,0,1,4.74,1.22l3.17,2,3.89.59a2.28,2.28,0,0,1,2.13,1.45,5.51,5.51,0,0,1,.44,2c0,1-.57,1.54-1.66,1.7v-1.1c.43-.09.59-.25.59-.56a4.83,4.83,0,0,0-.28-1.45,1.34,1.34,0,0,0-1.35-1l-4.3-.63ZM9.09,21.52a2.2,2.2,0,1,1,0-4.39,2.14,2.14,0,0,1,2,1.13H21.42a2.23,2.23,0,1,1,2,3.26,2.08,2.08,0,0,1-2.23-2.19H11.32A2.08,2.08,0,0,1,9.09,21.52Zm0-3.35A1.11,1.11,0,0,0,7.9,19.33a1.1,1.1,0,0,0,1.19,1.16,1.08,1.08,0,0,0,1.19-1.16A1.1,1.1,0,0,0,9.09,18.17Zm14.3,2.32a1.1,1.1,0,0,0,1.19-1.16,1.11,1.11,0,0,0-1.19-1.16,1.1,1.1,0,0,0-1.19,1.16A1.08,1.08,0,0,0,23.39,20.49Z"/></svg>