<svg id="Icones" xmlns="http://www.w3.org/2000/svg" width="32" height="32" viewBox="0 0 32 32"><defs><style>.cls-1{fill:none;}</style></defs><rect class="cls-1" width="32" height="32"/><path d="M5.77,13,5,11.36a4,4,0,0,1-.37-1.75A3.42,3.42,0,0,1,7.3,6.28a3.51,3.51,0,0,1,3.36-2A3.87,3.87,0,0,1,14.2,6.5l.94,2.07L14.2,9l-1-2.1a2.63,2.63,0,0,0-2.57-1.57A2.58,2.58,0,0,0,8.09,7.07c-1.51.37-2.35,1.25-2.35,2.54A3.32,3.32,0,0,0,6,11l.69,1.47Zm9.44,15.31L14,25.69l-7-5.3a2,2,0,0,1-.88-1.53,1.78,1.78,0,0,1,1.76-1.79,2.14,2.14,0,0,1,1.31.5l1.63,1.22L7,10.74a1.93,1.93,0,0,1-.22-.91A1.76,1.76,0,0,1,8.59,8.1a1.42,1.42,0,0,1,.34,0,1.77,1.77,0,0,1,3.42-.56l2.39,5.11a1.76,1.76,0,0,1,1.31-.6,1.65,1.65,0,0,1,1.35.66,1.81,1.81,0,0,1,1.44-.66,2.05,2.05,0,0,1,1.82,1.38l.88,1.79a10.62,10.62,0,0,1,1.38,4.64,7.4,7.4,0,0,1-.28,1.7l-.25.84.94,2-1,.5L21.2,22.56l.31-1a6.73,6.73,0,0,0,.25-1.72,8.51,8.51,0,0,0-1-3.7l-1.13-2.32c-.22-.47-.47-.66-.85-.66a1,1,0,0,0-.85.56H17a1,1,0,0,0-.91-.56,1,1,0,0,0-.91.56H14.05L11.38,8a.76.76,0,0,0-.69-.54.71.71,0,0,0-.75.66,1,1,0,0,0,.12.47l2.67,5.77-1,.44L9.34,9.67a.73.73,0,0,0-.69-.53.7.7,0,0,0-.75.65.88.88,0,0,0,.13.47l4.6,10-1,.44L8.37,18.36a1.05,1.05,0,0,0-.53-.22.64.64,0,0,0-.69.69c0,.31.12.5.53.81L14.89,25l1.29,2.79Zm9-18.57-.51-.85a32.66,32.66,0,0,0,3-1.94L19.19,7V5.87l7.49.07a34.76,34.76,0,0,0-3-1.95l.51-.84C25.87,4.28,27,5.09,28.16,6v.85A46.24,46.24,0,0,1,24.18,9.7Z"/></svg>