<svg id="Icones" xmlns="http://www.w3.org/2000/svg" width="32" height="32" viewBox="0 0 32 32"><defs><style>.cls-1{fill:none;}</style></defs><rect class="cls-1" width="32" height="32"/><path d="M11.19,8.54A2.59,2.59,0,0,0,8.71,7a2.79,2.79,0,0,0-3,2.64A3.41,3.41,0,0,0,6,11l.69,1.47L5.77,13,5,11.36a4,4,0,0,1-.37-1.75,3.9,3.9,0,0,1,4.07-3.7,3.79,3.79,0,0,1,3.45,2.22l.73,1.51-1,.44Zm10.35,6.71a10.62,10.62,0,0,1,1.38,4.64,7.4,7.4,0,0,1-.28,1.7l-.25.84.94,2-1,.5L21.2,22.56l.31-1a6.73,6.73,0,0,0,.25-1.72,8.51,8.51,0,0,0-1-3.7l-1.13-2.32c-.22-.47-.47-.66-.85-.66a1,1,0,0,0-.85.56H17a1,1,0,0,0-.91-.56,1,1,0,0,0-.91.56h-1a1.12,1.12,0,0,0-1.94,0h-1l-1.91-4a.73.73,0,0,0-.69-.53.7.7,0,0,0-.75.65.88.88,0,0,0,.13.47l4.6,10-1,.44L8.37,18.36a.72.72,0,0,0-.53-.22.64.64,0,0,0-.69.69c0,.31.12.5.53.81L14.89,25l1.29,2.79-1,.44L14,25.69l-7-5.3a2,2,0,0,1-.88-1.53,1.78,1.78,0,0,1,1.76-1.79,2.14,2.14,0,0,1,1.31.5l1.63,1.23L7,10.74a1.93,1.93,0,0,1-.22-.91A1.78,1.78,0,0,1,8.59,8.1a1.94,1.94,0,0,1,1.75,1.1l1.57,3.42a1.78,1.78,0,0,1,1.29-.54,1.67,1.67,0,0,1,1.44.73,1.7,1.7,0,0,1,1.41-.73,1.65,1.65,0,0,1,1.35.66,1.81,1.81,0,0,1,1.44-.66,2.05,2.05,0,0,1,1.82,1.38ZM24.18,9.7l-.51-.85a32.66,32.66,0,0,0,3-1.94L19.19,7V5.87l7.49.07a34.76,34.76,0,0,0-3-1.95l.51-.84C25.87,4.28,27,5.09,28.16,6v.85A46.24,46.24,0,0,1,24.18,9.7Z"/></svg>