<svg id="Icones" xmlns="http://www.w3.org/2000/svg" width="32" height="32" viewBox="0 0 32 32"><defs><style>.cls-1{fill:none;}</style></defs><rect class="cls-1" width="32" height="32"/><path d="M7.05,7A2,2,0,0,1,9.27,4.8H22.73A2,2,0,0,1,25,7V25a2,2,0,0,1-2.22,2.23H9.27A2,2,0,0,1,7.05,25Zm2.22,19.1H22.73c.81,0,1.13-.35,1.13-1.16V7c0-.81-.32-1.16-1.13-1.16H9.27c-.81,0-1.13.35-1.13,1.16V25C8.14,25.78,8.46,26.13,9.27,26.13Zm0-17.94H22.73V22.68H9.3ZM21.63,21.61V9.26H10.37V21.61Zm-4.8,2.76c0,.57-.22.82-.81.82s-.82-.25-.82-.82.25-.81.82-.81S16.83,23.78,16.83,24.37Z"/></svg>