<?xml version="1.0" encoding="UTF-8"?><svg xmlns="http://www.w3.org/2000/svg" width="24" height="24" viewBox="0 0 24 24"><defs><style>.c{fill:none;}</style></defs><g id="a"><rect class="c" width="24" height="24"/></g><g id="b"><path d="M4.93,4.6c0-1.35,.65-2,2.01-2h10.12c1.36,0,2.01,.65,2.01,2v14.79c0,1.36-.65,2.01-2.01,2.01H6.94c-1.35,0-2.01-.65-2.01-2.01V4.6Zm1.18,10.91h11.8V4.77c0-.73-.28-1.04-1.02-1.04H7.11c-.74,0-1.02,.31-1.02,1.04l.02,10.74Zm1.02,4.75h9.77c.74,0,1.02-.31,1.02-1.05v-2.54H6.09v2.54c0,.74,.28,1.05,1.02,1.05h.02Zm5.68-1.81c0,.54-.23,.79-.8,.79-.11,.02-.22,0-.32-.02s-.2-.09-.27-.17c-.08-.08-.13-.17-.17-.27-.03-.1-.04-.21-.02-.32,0-.59,.25-.8,.79-.8s.78,.23,.78,.8h.02Z"/></g></svg>