<svg id="Icones" xmlns="http://www.w3.org/2000/svg" width="32" height="32" viewBox="0 0 32 32"><defs><style>.cls-1{fill:none;}</style></defs><rect class="cls-1" width="32" height="32"/><path d="M8,19.32c0-4.76,1.94-7.82,5-7.82H17V5.92h5.58V19.26c0,4.82-2.17,7.89-5.58,7.89H13.05C10,27.15,8,24.08,8,19.32Zm1.06,0c0,4.14,1.5,6.73,4,6.73S17,23.42,17,19.32s-1.5-6.73-3.94-6.73S9.07,15.19,9.07,19.32Zm4.92,0c0,1.38-.32,2.26-.88,2.26s-1-.85-1-2.26.34-2.22,1-2.22S14,17.91,14,19.29Zm3-5.13V12.59H15.83A5.43,5.43,0,0,1,17,14.16Zm2.23,2.91V16H21.5V13.72H19.22v-1.1H21.5V10.4H19.22V9.3H21.5V7.05H18.06V19.32c0,3.07-.82,5.45-2.19,6.73H17a3.93,3.93,0,0,0,3.57-2.25h-2.1a4.93,4.93,0,0,0,.32-1.13H21a9.13,9.13,0,0,0,.41-2.22H19.12l0-1.1H21.5V17.07Z"/></svg>