<svg id="Icones" xmlns="http://www.w3.org/2000/svg" width="32" height="32" viewBox="0 0 32 32"><defs><style>.cls-1{fill:none;}</style></defs><rect class="cls-1" width="32" height="32"/><path d="M7.18,13l-.75-1.6a3.84,3.84,0,0,1-.38-1.75A3.42,3.42,0,0,1,8.71,6.31a3.51,3.51,0,0,1,3.36-2,3.89,3.89,0,0,1,3.54,2.22l.94,2.07L15.61,9l-1-2.1a2.64,2.64,0,0,0-2.57-1.57A2.58,2.58,0,0,0,9.5,7.1C8,7.47,7.15,8.35,7.15,9.64a3.32,3.32,0,0,0,.28,1.41l.69,1.47ZM16.62,28.3l-1.23-2.57-7-5.3a2.06,2.06,0,0,1-.88-1.54A1.78,1.78,0,0,1,9.22,17.1a2.11,2.11,0,0,1,1.31.5l1.63,1.23L8.43,10.77a2.06,2.06,0,0,1-.22-.91A1.76,1.76,0,0,1,10,8.13a1.55,1.55,0,0,1,.35,0,1.71,1.71,0,0,1,1.72-1.69A1.73,1.73,0,0,1,13.76,7.6l2.39,5.11a1.75,1.75,0,0,1,1.31-.59,1.64,1.64,0,0,1,1.35.65,1.8,1.8,0,0,1,1.45-.65,2,2,0,0,1,1.81,1.38L23,15.28a10.49,10.49,0,0,1,1.38,4.64,7.32,7.32,0,0,1-.28,1.7l-.25.84.94,2-1,.5-1.13-2.41.31-1a6.85,6.85,0,0,0,.25-1.73,8.51,8.51,0,0,0-1-3.7L21,13.84c-.22-.47-.47-.66-.85-.66a1,1,0,0,0-.84.57h-1a1,1,0,0,0-.91-.57,1,1,0,0,0-.91.57H15.46L12.79,8a.74.74,0,0,0-.69-.53.7.7,0,0,0-.75.65,1,1,0,0,0,.12.47l2.67,5.77-1,.44L10.75,9.7a.74.74,0,0,0-.69-.53.71.71,0,0,0-.75.66.93.93,0,0,0,.13.47l4.61,10-1,.44L9.78,18.39a1.05,1.05,0,0,0-.53-.22.64.64,0,0,0-.69.69c0,.31.12.5.53.81l7.21,5.4,1.29,2.79Z"/></svg>