<svg id="Icones" xmlns="http://www.w3.org/2000/svg" width="32" height="32" viewBox="0 0 32 32"><defs><style>.cls-1{fill:none;}</style></defs><rect class="cls-1" width="32" height="32"/><path d="M12.6,8.57A2.58,2.58,0,0,0,10.13,7a2.8,2.8,0,0,0-3,2.64,3.41,3.41,0,0,0,.28,1.41l.69,1.47L7.18,13l-.75-1.6a3.84,3.84,0,0,1-.38-1.75,3.9,3.9,0,0,1,4.08-3.7,3.81,3.81,0,0,1,3.45,2.22l.72,1.51-1,.44ZM23,15.28a10.49,10.49,0,0,1,1.38,4.64,7.32,7.32,0,0,1-.28,1.7l-.25.84.94,2-1,.5-1.13-2.41.31-1a6.85,6.85,0,0,0,.25-1.73,8.51,8.51,0,0,0-1-3.7L21,13.84c-.22-.47-.47-.66-.85-.66a1,1,0,0,0-.84.57h-1a1,1,0,0,0-.91-.57,1,1,0,0,0-.91.57h-1a1.11,1.11,0,0,0-1.94,0h-1L10.75,9.7a.74.74,0,0,0-.69-.53.71.71,0,0,0-.75.66.93.93,0,0,0,.13.47l4.61,10-1,.44L9.78,18.39a.72.72,0,0,0-.53-.22.64.64,0,0,0-.69.69c0,.31.12.5.53.81l7.21,5.4,1.29,2.79-1,.44-1.23-2.57-7-5.3a2.06,2.06,0,0,1-.88-1.54A1.78,1.78,0,0,1,9.22,17.1a2.11,2.11,0,0,1,1.31.5l1.63,1.23L8.43,10.77a2.06,2.06,0,0,1-.22-.91A1.78,1.78,0,0,1,10,8.13a2,2,0,0,1,1.76,1.1l1.56,3.42a1.77,1.77,0,0,1,1.29-.53,1.67,1.67,0,0,1,1.44.72,1.72,1.72,0,0,1,1.41-.72,1.64,1.64,0,0,1,1.35.65,1.8,1.8,0,0,1,1.45-.65,2,2,0,0,1,1.81,1.38Z"/></svg>