<?xml version="1.0" encoding="UTF-8"?><svg xmlns="http://www.w3.org/2000/svg" width="24" height="24" viewBox="0 0 24 24"><defs><style>.c{fill:none;}</style></defs><g id="a"><rect class="c" width="24" height="24"/></g><g id="b"><path d="M4.21,11.43c.23-4.26,2.99-6.99,7.22-7.19V1.85h1.15v2.4c4.23,.2,6.96,2.93,7.19,7.19h2.4v1.15h-2.43c-.23,4.19-2.96,6.92-7.19,7.13v2.44h-1.12v-2.46c-4.23-.2-6.96-2.93-7.19-7.13H1.84v-1.13h2.37Zm7.79-6.11c-4.09,0-6.67,2.52-6.67,6.66s2.58,6.67,6.67,6.67,6.64-2.55,6.64-6.67-2.53-6.66-6.64-6.66Zm0,10.89c-2.59,0-4.19-1.6-4.19-4.19s1.61-4.19,4.19-4.19,4.23,1.63,4.23,4.19-1.64,4.18-4.23,4.18h0Zm.06-7.29c-1.9,0-3.11,1.2-3.11,3.05-.03,.42,.03,.83,.17,1.23,.14,.39,.37,.75,.67,1.04,.3,.29,.65,.52,1.04,.67,.39,.14,.81,.2,1.23,.17,1.87,0,3.04-1.2,3.04-3.1,.03-.41-.02-.82-.17-1.2-.14-.38-.36-.73-.65-1.02s-.64-.51-1.02-.66c-.38-.14-.79-.2-1.2-.17h0Zm-.69,2.4h1.2v1.2h-1.2v-1.2Z"/></g></svg>