<svg id="Icones" xmlns="http://www.w3.org/2000/svg" width="32" height="32" viewBox="0 0 32 32"><defs><style>.cls-1{fill:none;}</style></defs><rect class="cls-1" width="32" height="32"/><path d="M9.19,15.41a6,6,0,0,1,6.08-6.05V7h1.1V9.32a6.06,6.06,0,0,1,6.11,6.09H24.8v1.1H22.51a6.13,6.13,0,0,1-6.14,6.11v2.32h-1.1V22.59a6.06,6.06,0,0,1-6.12-6.08H6.86v-1.1Zm6.64-5A5.19,5.19,0,0,0,10.25,16a5.2,5.2,0,0,0,5.58,5.58A5.19,5.19,0,0,0,21.42,16,5.18,5.18,0,0,0,15.83,10.39Zm0,2.23A3.08,3.08,0,0,1,19.16,16a3.08,3.08,0,0,1-3.33,3.36A3.08,3.08,0,0,1,12.51,16,3.07,3.07,0,0,1,15.83,12.62Zm0,1.06A2.1,2.1,0,0,0,13.58,16a2.11,2.11,0,0,0,2.25,2.29A2.1,2.1,0,0,0,18.09,16,2.09,2.09,0,0,0,15.83,13.68Z"/></svg>