<?xml version="1.0" encoding="UTF-8"?><svg xmlns="http://www.w3.org/2000/svg" width="24" height="24" viewBox="0 0 24 24"><defs><style>.c{fill:none;}</style></defs><g id="a"><rect class="c" width="24" height="24"/></g><g id="b"><path d="M.24,5.75C.24,4.4,.9,3.75,2.25,3.75H21.75c1.36,0,2.01,.65,2.01,2V14.71c0,1.36-.65,2.01-2.01,2.01H12.57v2.35h6.48v1.18H4.94v-1.18h6.48v-2.35H2.25c-1.35,0-2.01-.65-2.01-2.01V5.75ZM2.42,15.59H21.6c.73,0,1.01-.31,1.01-1.05V5.92c0-.74-.28-1.04-1.01-1.04H2.42c-.74,0-1.02,.31-1.02,1.04V14.54c0,.74,.28,1.05,1.02,1.05Z"/></g></svg>