<svg id="Icones" xmlns="http://www.w3.org/2000/svg" width="32" height="32" viewBox="0 0 32 32"><defs><style>.cls-1{fill:none;}</style></defs><rect class="cls-1" width="32" height="32"/><path d="M3.71,8.87A2,2,0,0,1,5.93,6.64H26.07a2,2,0,0,1,2.22,2.23V18.93a2,2,0,0,1-2.22,2.23H16.53v2.32a40.44,40.44,0,0,1,7.28.81v1.07A41.76,41.76,0,0,0,16,24.55a41.73,41.73,0,0,0-7.84.81V24.29a37.23,37.23,0,0,1,7.28-.81V21.16H5.93a2,2,0,0,1-2.22-2.23ZM5.93,20.09H26.07c.81,0,1.13-.34,1.13-1.16V8.87c0-.82-.32-1.16-1.13-1.16H5.93c-.81,0-1.13.34-1.13,1.16V18.93C4.8,19.75,5.12,20.09,5.93,20.09Z"/></svg>