<?xml version="1.0" encoding="UTF-8"?><svg xmlns="http://www.w3.org/2000/svg" width="24" height="24" viewBox="0 0 24 24"><defs><style>.c{fill:none;}</style></defs><g id="a"><rect class="c" width="24" height="24"/></g><g id="b"><path d="M11.74,20.85h-1.29c-.23-1.07-.55-2.3-.92-3.59H4.96c-.4,1.35-.74,2.58-.94,3.59h-1.29c1-4.1,2.34-8.1,4.02-11.96h1.03c1.69,3.86,3.01,7.86,3.96,11.96h0Zm-2.55-4.71c-.6-1.98-1.26-4.02-1.93-5.69-.69,1.79-1.38,3.79-1.95,5.69h3.88Zm9.76,4.71v-.94c-.34,.37-.76,.66-1.21,.86-.46,.21-.95,.32-1.45,.33-1.67,0-2.82-.98-2.82-2.7,0-1.9,1.09-2.87,3.27-2.87h2.16v-1.26c0-1.26-.6-1.79-1.96-1.79-1.02,.02-2.03,.19-2.99,.52v-1.21c1.01-.3,2.05-.46,3.1-.49,2.03,0,3.04,.84,3.04,2.7v6.84h-1.14Zm-.05-2.15v-2.07h-2.1c-1.55,0-2.15,.49-2.15,1.67-.03,.22,0,.45,.07,.66,.07,.21,.19,.4,.35,.56,.16,.16,.35,.28,.56,.35,.21,.07,.44,.09,.66,.06,.5-.02,.98-.14,1.43-.35,.45-.21,.85-.51,1.18-.88h0Zm-1.21-12.29h-2.39v-1.12h2.39V2.9h1.2v2.39h2.39v1.12h-2.39v2.53h-1.2v-2.53Z"/></g></svg>