<?xml version="1.0" encoding="UTF-8"?><svg xmlns="http://www.w3.org/2000/svg" width="24" height="24" viewBox="0 0 24 24"><defs><style>.c{fill:none;}</style></defs><g id="a"><rect class="c" width="24" height="24"/></g><g id="b"><path d="M11.75,19.68h-1.29c-.23-1.07-.54-2.3-.92-3.59H4.96c-.4,1.35-.74,2.59-.95,3.59h-1.29c1-4.1,2.34-8.1,4.02-11.97h1.04c1.69,3.86,3.01,7.87,3.96,11.97h0Zm-2.53-4.71c-.6-1.98-1.29-4.02-1.96-5.69-.69,1.8-1.38,3.8-1.95,5.69h3.91Zm9.74,4.71v-.97c-.7,.74-1.66,1.17-2.67,1.2-1.67,0-2.82-.98-2.82-2.7,0-1.9,1.1-2.87,3.28-2.87h2.16v-1.23c0-1.26-.6-1.8-1.96-1.8-1.02,.02-2.03,.19-2.99,.52v-1.21c1.01-.3,2.05-.46,3.1-.49,2.04,0,3.05,.84,3.05,2.71v6.85h-1.14Zm-.05-2.15v-2.07h-2.1c-1.55,0-2.16,.49-2.16,1.67-.03,.22,0,.45,.07,.66,.07,.21,.19,.4,.35,.56,.16,.16,.35,.28,.56,.35,.21,.07,.44,.09,.66,.06,.5-.02,.98-.14,1.43-.35,.45-.21,.85-.51,1.18-.88h0Zm-3.62-12.3v-1.13h5.99v1.13h-5.99Z"/></g></svg>