<?xml version="1.0" encoding="UTF-8"?><svg xmlns="http://www.w3.org/2000/svg" width="24" height="24" viewBox="0 0 24 24"><defs><style>.c{fill:none;}</style></defs><g id="a"><rect class="c" width="24" height="24"/></g><g id="b"><path d="M4,4.08h1.13V14.29h-1.13V4.08Zm14.09,9.08c.46,0,.73-.19,.73-.6s-.27-.57-.73-.57h-2.7v-1.14h2.67c.46,0,.76-.19,.76-.57s-.3-.57-.76-.57h-2.67v-1.14h1.53c.57,0,.8-.16,.8-.57s-.25-.57-.8-.57h-1.53v-1.14h.46c.47,0,.74-.19,.74-.57s-.27-.57-.74-.57h-5.29c-1.09,0-1.7,1.13-3.08,1.13h-1.2v-1.13h.82c1.23,0,1.7-1.13,3.05-1.13h5.83c.22-.02,.44,0,.65,.08,.21,.07,.4,.19,.56,.34,.16,.15,.29,.34,.37,.54,.08,.21,.12,.43,.12,.65,0,.25-.08,.49-.22,.69,.38,.07,.72,.26,.96,.56,.24,.29,.38,.67,.37,1.05,0,.24-.08,.48-.21,.68,.38,.04,.73,.23,.99,.53,.25,.29,.38,.67,.37,1.05,.04,.45-.1,.89-.39,1.23,.15,.15,.26,.33,.34,.52,.07,.19,.11,.4,.1,.61,0,.24-.05,.47-.14,.69-.1,.22-.23,.41-.41,.57-.17,.16-.38,.28-.6,.36-.22,.08-.46,.11-.7,.09h-4.15l.24,1.94c.24,2.02-.71,3.76-2.43,3.76h-1.61v-2.07c.05-.69-.08-1.38-.38-2.01l-.79-1.58c-.46-.87-.83-1.15-1.97-1.15h-.78v-1.14h.9c1.33,0,2.1,.3,2.67,1.36l1.23,2.35c.21,.49,.3,1.02,.27,1.56v1.58h.33c.95,0,1.61-1.23,1.36-2.73l-.47-3,5.51,.02Z"/></g></svg>