<?xml version="1.0" encoding="UTF-8"?><svg xmlns="http://www.w3.org/2000/svg" width="24" height="24" viewBox="0 0 24 24"><defs><style>.c{fill:none;}</style></defs><g id="a"><rect class="c" width="24" height="24"/></g><g id="b"><path d="M4,9.71h1.14v10.24h-1.14V9.71Zm8.6,1.14l.47-3c.24-1.5-.41-2.73-1.36-2.73h-.33v1.58c.03,.53-.07,1.07-.27,1.56l-1.2,2.36c-.57,1.06-1.34,1.37-2.67,1.37h-.93v-1.14h.79c1.14,0,1.5-.27,1.97-1.17l.79-1.59c.3-.61,.44-1.28,.41-1.96l-.03-2.08h1.59c1.71,0,2.67,1.75,2.43,3.76l-.24,1.93,4.15-.03c.24-.02,.47,0,.7,.08,.22,.08,.43,.2,.6,.36,.17,.16,.31,.36,.41,.57,.1,.22,.14,.45,.14,.69,0,.21-.03,.42-.1,.61-.07,.2-.19,.37-.34,.52,.3,.33,.45,.76,.44,1.2,0,.38-.13,.75-.38,1.04-.25,.29-.6,.47-.98,.52,.14,.2,.21,.44,.22,.68,0,.38-.13,.76-.37,1.05-.24,.3-.59,.49-.96,.56,.14,.2,.22,.44,.22,.68,0,.22-.03,.44-.12,.65-.08,.21-.21,.39-.37,.54-.16,.15-.35,.27-.56,.34-.21,.07-.43,.1-.65,.08h-5.86c-1.37,0-1.83-1.14-3.06-1.14h-.82v-1.14h1.2c1.36,0,2,1.14,3.09,1.14h5.29c.47,0,.74-.16,.74-.57s-.27-.57-.74-.57h-.47v-1.14h1.53c.57,0,.8-.16,.8-.57s-.25-.57-.8-.57h-1.53v-1.14h2.68c.46,0,.76-.14,.76-.57s-.3-.57-.76-.57h-2.68v-1.14h2.71c.46,0,.73-.14,.73-.57s-.27-.6-.73-.6l-5.52,.08Z"/></g></svg>