<?xml version="1.0" encoding="UTF-8"?><svg xmlns="http://www.w3.org/2000/svg" width="24" height="24" viewBox="0 0 24 24"><defs><style>.c{fill:none;}</style></defs><g id="a"><rect class="c" width="24" height="24"/></g><g id="b"><path d="M10.77,3.05h2.47c.49-.02,.98,.06,1.43,.24,.45,.18,.87,.45,1.21,.8,.34,.35,.61,.76,.78,1.22,.17,.46,.25,.95,.22,1.43,0,1.35-.51,2.32-2.84,4.5-.46,.43-.54,.54-.54,.74s.08,.32,.54,.75c2.35,2.16,2.84,3.15,2.84,4.5,.03,.49-.05,.98-.22,1.43-.17,.46-.44,.87-.78,1.22-.34,.35-.75,.62-1.21,.8-.45,.18-.94,.26-1.43,.24h-2.47c-.49,.02-.98-.06-1.43-.24-.46-.18-.87-.45-1.21-.8-.34-.35-.61-.76-.78-1.22-.17-.46-.25-.95-.22-1.43,0-1.35,.52-2.32,2.84-4.5,.46-.43,.55-.54,.55-.75s-.09-.31-.55-.74c-2.32-2.18-2.84-3.15-2.84-4.5-.03-.49,.05-.98,.22-1.43,.17-.46,.44-.87,.78-1.22,.34-.35,.76-.62,1.21-.8,.46-.18,.94-.26,1.43-.24Zm2.32,16.73c.34,0,.67-.08,.98-.21,.31-.13,.59-.33,.82-.57,.24-.24,.42-.53,.54-.84,.12-.31,.18-.65,.18-.99,0-1.23-.35-1.79-2.39-3.87-.21-.16-.38-.36-.51-.58-.13-.23-.21-.48-.24-.74,.03-.26,.11-.51,.24-.74,.13-.23,.3-.42,.51-.58,2.06-2.07,2.39-2.64,2.39-3.87,0-.34-.05-.67-.18-.99-.12-.31-.31-.6-.54-.84-.23-.24-.51-.44-.82-.57-.31-.13-.64-.21-.98-.21h-2.18c-.34,0-.67,.08-.98,.21-.31,.13-.59,.33-.82,.57-.24,.24-.42,.53-.54,.84-.12,.31-.18,.65-.18,.99,0,1.23,.35,1.79,2.39,3.87,.21,.16,.38,.35,.51,.58,.13,.23,.21,.48,.24,.73-.03,.26-.11,.51-.23,.74-.13,.23-.3,.43-.51,.58-2.07,2.07-2.39,2.64-2.39,3.87,0,.34,.05,.67,.18,.99,.12,.31,.31,.6,.54,.84,.23,.24,.51,.44,.82,.57,.31,.13,.64,.21,.98,.21h2.18Zm1.23-2.72c0,.21-.03,.43-.11,.62-.08,.2-.2,.38-.36,.52-.15,.15-.34,.26-.54,.33-.2,.07-.42,.1-.63,.08h-1.38c-.21,.02-.43,0-.63-.08-.2-.07-.39-.18-.54-.33-.15-.15-.28-.32-.36-.52-.08-.2-.12-.41-.11-.62,0-1.03,.95-2.07,2.33-3.3,1.4,1.25,2.32,2.28,2.32,3.32v-.02ZM9.91,7.84h4.18c-.55,.92-1.26,1.73-2.1,2.39-.83-.66-1.54-1.47-2.09-2.39h0Z"/></g></svg>