<?xml version="1.0" encoding="UTF-8"?><svg xmlns="http://www.w3.org/2000/svg" width="24" height="24" viewBox="0 0 24 24"><defs><style>.c{fill:none;}</style></defs><g id="a"><rect class="c" width="24" height="24"/></g><g id="b"><path d="M6.91,21c-1.53,0-2.59-.86-2.74-2.59L3.01,5.41c-.14-1.49,.86-2.41,2.11-2.41,.29,0,.61,.06,.86,.14l11.76,3.56c2.28,.69,3.25,2.41,3.25,4.68,0,2.1-.98,3.56-2.82,4.46l-9.77,4.77c-.52,.26-.95,.37-1.5,.37h0Zm-1.7-14.63c.69,0,1.18-.46,1.18-1.15s-.43-1.09-1.15-1.09c-.66,0-1.09,.43-1.09,1.09s.46,1.15,1.07,1.15h0Zm4.21,12.45l5.65-2.73c-2.56-.37-3.69-2.36-3.69-4.69,0-1.87,.8-3.85,2.82-4.54l-6.69-2.05c.03,.14,.03,.23,.03,.29,0,1.26-1.07,2.36-2.34,2.36-.23,0-.52-.03-.86-.17l.78,8.86c.55-.49,1.18-.61,1.79-.61,1.5,0,2.56,1.12,2.56,2.7,0,.14,0,.26-.06,.57h0Zm-2.51,1.04c.89,0,1.44-.51,1.44-1.61,0-1.01-.52-1.58-1.44-1.58-1.04,0-1.59,.55-1.59,1.58s.61,1.61,1.59,1.61Zm5.65-8.46c0,2.3,1.33,3.62,3.6,3.62s3.66-1.32,3.66-3.62-1.38-3.71-3.63-3.71-3.63,1.41-3.63,3.71h0Z"/></g></svg>