<svg id="Icones" xmlns="http://www.w3.org/2000/svg" width="32" height="32" viewBox="0 0 32 32"><defs><style>.cls-1{fill:none;}</style></defs><rect class="cls-1" width="32" height="32"/><path d="M15,16V7.82c0-.53-.25-.85-.72-.85s-.72.32-.72.85V18.7l-1.1.31-2-3.73a.73.73,0,0,0-.59-.47.71.71,0,0,0-.76.66,2,2,0,0,0,.19.69l4.27,7.93v3.08h-1.1V24.31L8.31,16.54A2.54,2.54,0,0,1,8,15.47a1.78,1.78,0,0,1,1.85-1.72c.68,0,1.16.34,1.59,1.16l1,1.85V7.82A1.78,1.78,0,0,1,14.3,5.91a1.76,1.76,0,0,1,1.82,1.91v2.82a1.56,1.56,0,0,1,.87-.25,1.67,1.67,0,0,1,1.67,1.69,1.65,1.65,0,0,1,.87-.25,1.67,1.67,0,0,1,1.67,1.7,1.53,1.53,0,0,1,.84-.25,1.7,1.7,0,0,1,1.7,1.91V18c0,3.26-.41,4.74-1.7,6.21l-.59.69v2.23H20.32V24.53l.69-.78c1.22-1.38,1.63-2.7,1.63-5.24V15.19c0-.53-.25-.85-.72-.85s-.72.32-.72.85V17.1H20.1V13.75c0-.54-.25-.85-.72-.85s-.72.31-.72.85v2.79h-1.1V12.3c0-.53-.25-.84-.72-.84s-.72.31-.72.84V16Z"/></svg>