<?xml version="1.0" encoding="UTF-8"?><svg xmlns="http://www.w3.org/2000/svg" width="24" height="24" viewBox="0 0 24 24"><defs><style>.c{fill:none;}</style></defs><g id="a"><rect class="c" width="24" height="24"/></g><g id="b"><path d="M3.6,19.8H20.4v1.2H3.6v-1.2ZM13.8,3c1.81,5.1,3.29,10.31,4.44,15.6H5.64c1.15-5.29,2.63-10.5,4.43-15.6h3.73Zm2.57,13.2c-.2-.83-.41-1.64-.6-2.45h-7.61c-.2,.8-.4,1.61-.6,2.45h8.81Zm-1.24-4.8c-.23-.8-.46-1.64-.72-2.45h-4.9c-.26,.8-.49,1.64-.72,2.45h6.34Zm-4.93-4.8h3.49c-.26-.8-.52-1.64-.8-2.47h-1.85c-.29,.84-.55,1.67-.81,2.48h-.02Z"/></g></svg>