<?xml version="1.0" encoding="UTF-8"?><svg xmlns="http://www.w3.org/2000/svg" width="24" height="24" viewBox="0 0 24 24"><defs><style>.c{fill:none;}</style></defs><g id="a"><rect class="c" width="24" height="24"/></g><g id="b"><path d="M15.4,20.53H5.26v1.33c0,.24-.11,.46-.28,.63-.17,.17-.4,.26-.64,.26H1.63c-.12,0-.23-.02-.34-.07-.11-.04-.21-.11-.29-.19-.08-.08-.15-.18-.19-.29-.04-.11-.06-.22-.06-.34v-6.03c0-.53,.14-1.05,.38-1.52,.24-.47,.58-.89,1-1.21l-1.44-.62v-.95H2.83c.76-2.03,1.46-3.33,3.09-3.33H14.72c1.62,0,2.33,1.3,3.08,3.33h2.13v.95l-1.43,.62c.42,.32,.77,.73,1.01,1.21,.24,.47,.37,.99,.38,1.53v6.03c0,.11-.02,.23-.06,.34-.04,.11-.11,.21-.19,.29-.08,.08-.18,.15-.28,.19-.11,.05-.22,.07-.34,.07h-2.7c-.24,0-.47-.09-.65-.26-.17-.17-.28-.39-.29-.63v-1.33Zm2.16-6.73H3.1c-.33,.24-.61,.54-.81,.89-.21,.35-.35,.74-.4,1.14v5.84h2.25v-2.22h12.39v2.22h2.25v-5.84c-.06-.4-.19-.79-.4-1.14-.21-.35-.49-.65-.81-.89h0Zm-14.6,2.25c0-.3,.12-.59,.33-.8s.5-.33,.8-.33c.16-.03,.33-.02,.49,.02,.16,.04,.31,.12,.44,.22,.13,.11,.23,.24,.3,.39,.07,.15,.11,.31,.11,.48s-.04,.33-.11,.48c-.07,.15-.17,.28-.3,.39-.13,.11-.28,.18-.44,.22-.16,.04-.33,.05-.49,.02-.29,0-.57-.11-.78-.32-.21-.2-.33-.48-.34-.77h0Zm11.6-6.75H6.11c-1.27,0-1.78,1.13-2.43,3.46h13.31c-.65-2.37-1.16-3.48-2.43-3.48h0Zm-2.6-2.48v-.98c.03-.2,.1-.4,.21-.57,.11-.18,.25-.33,.41-.45l-.7-.25v-.7h1.27c.35-1.17,.92-2.6,2.19-2.6h4.51c1.3,0,1.81,1.43,2.16,2.6h1.3v.7l-.68,.25c.16,.12,.29,.28,.39,.45,.1,.18,.16,.37,.17,.57v3.89c0,.15-.06,.29-.16,.4-.11,.11-.25,.17-.4,.17h-2.12c-.15,0-.29-.06-.4-.17-.11-.11-.16-.25-.16-.4v-.56h-1.73l-.68-1h3.44v1.13h1.22v-3.46c0-.21-.07-.42-.19-.6-.12-.18-.29-.32-.48-.4h-7.84c-.19,.1-.35,.24-.47,.42-.12,.17-.19,.38-.21,.59v.97h-1.03Zm2.25-2.86h6.76c-.33-1.08-.7-1.69-1.27-1.69h-4.2c-.6,.01-.95,.64-1.3,1.69h0Zm1.18,12.11c0-.22,.07-.44,.19-.63,.12-.18,.3-.33,.51-.41,.21-.09,.43-.11,.65-.06,.22,.04,.42,.15,.58,.31,.16,.16,.26,.36,.31,.58,.04,.22,.02,.45-.06,.65-.09,.21-.23,.38-.41,.51-.19,.12-.4,.19-.63,.19-.3,0-.59-.12-.8-.33-.21-.21-.33-.5-.33-.8Zm5.63-10.14c0,.51,0,1.13-.56,1.13h-1.01v-1.13h1.58Z"/></g></svg>