<?xml version="1.0" encoding="UTF-8"?><svg xmlns="http://www.w3.org/2000/svg" width="24" height="24" viewBox="0 0 24 24"><defs><style>.c{fill:none;}</style></defs><g id="a"><rect class="c" width="24" height="24"/></g><g id="b"><path d="M1,5.08H15.47c2.06,0,2.48,.58,4.63,3.67,2.61,3.67,2.89,4.42,2.89,5.31,0,1.59-.89,2.58-2.75,2.58H1v-1.16H20.18c1.3,0,1.69-.58,1.69-1.39,0-.64-.44-1.51-1.67-3.25h-5.11c-1.5,0-2.08-.58-2.28-1.95l-.22-1.53h5.08c-.86-1.06-1.25-1.16-2.19-1.16H1.01v-1.13Zm0,2.32H5.63v3.47H1v-3.47Zm0,10.42H21.87v1.11H1.03l-.03-1.11Zm3.47-8.1v-1.21H2.16v1.25l2.32-.04Zm2.32-2.36h4.63v3.47H6.79v-3.47Zm3.47,2.36v-1.21h-2.32v1.25l2.32-.04Zm9.14,0c-.33-.47-.64-.86-.89-1.22h-4.63l.05,.28c.14,.89,.31,.97,1.25,.97l4.21-.03Z"/></g></svg>