<?xml version="1.0" encoding="UTF-8"?><svg xmlns="http://www.w3.org/2000/svg" width="24" height="24" viewBox="0 0 24 24"><defs><style>.c{fill:none;}</style></defs><g id="a"><rect class="c" width="24" height="24"/></g><g id="b"><path d="M1.02,3.84c1.96,.69,4.02,1.05,6.1,1.06,3.68,0,6.04-1.17,9.89-1.17,2.04,.04,4.07,.43,5.99,1.13v15.25c-1.98-.69-4.06-1.03-6.15-1-3.67,0-6.04,1.16-9.89,1.16-2.16,0-3.9-.55-5.96-1.19l.02-15.24Zm1.1,1.4v13.08c1.57,.53,3.22,.82,4.88,.87,3.66,0,5.91-1.16,9.89-1.16,1.71-.01,3.41,.21,5.06,.66V5.64c-1.59-.53-3.26-.81-4.93-.85-3.67,0-5.92,1.14-9.89,1.14-1.7,.02-3.39-.21-5.02-.69h.02Zm6.53,7.06v4.7h-1.01v-4.59c-.81,1.28-1.85,2.41-3.06,3.32l-.63-.89c1.82-1.26,3.35-3.16,3.72-4.46h-3.29v-1.06h3.22v-1.93h1.1v1.93h3.25v1.06h-3.3c.37,1.29,1.9,3.19,3.72,4.46l-.63,.89c-1.24-.93-2.29-2.1-3.09-3.43h0Zm11.37,3.59h-1.19c-.16-.71-.35-1.45-.55-2.2h-2.75c-.19,.76-.37,1.5-.55,2.2h-1.19c.71-2.82,1.69-6.2,2.58-8.79h1.14c.87,2.59,1.85,6.02,2.5,8.79Zm-2.01-3.3c-.35-1.35-.74-2.66-1.1-3.88-.34,1.21-.71,2.53-1.1,3.88h2.2Z"/></g></svg>