<?xml version="1.0" encoding="UTF-8"?><svg xmlns="http://www.w3.org/2000/svg" width="24" height="24" viewBox="0 0 24 24"><defs><style>.c{fill:none;}</style></defs><g id="a"><rect class="c" width="24" height="24"/></g><g id="b"><path d="M1.83,14.42v-1.18h2.44v1.18H1.83Zm.83-5.2l.59-.99,2.13,1.22-.59,.99-2.13-1.22Zm.76,10.31l-.59-.99,2.15-1.22,.59,.99-2.15,1.22ZM11.99,7.22c3.75,0,6.5,2.64,6.5,6.59s-2.7,6.59-6.5,6.59-6.5-2.64-6.5-6.59,2.76-6.59,6.5-6.59Zm-5.84-1.9l.99-.59,1.22,2.13-.99,.59-1.22-2.13Zm5.44,8.21l3.94-4c-1-.8-2.26-1.22-3.55-1.18-3.18,0-5.36,2.13-5.36,5.45s2.16,5.42,5.36,5.42,5.36-2.16,5.36-5.42c.03-1.21-.32-2.4-.99-3.41l-3.89,3.93-.88-.79Zm-.2-9.93h1.18v2.44h-1.18V3.6Zm4.22,3.26l1.18-2.13,.99,.59-1.22,2.1-.96-.57Zm3.44,10.44l2.13,1.22-.59,.99-2.1-1.22,.56-.99Zm-.4-7.87l2.13-1.22,.59,.99-2.1,1.22-.62-.99Zm1.08,3.81h2.44v1.18h-2.46l.02-1.18Z"/></g></svg>