<svg id="Icones" xmlns="http://www.w3.org/2000/svg" width="32" height="32" viewBox="0 0 32 32"><defs><style>.cls-1{fill:none;}</style></defs><rect class="cls-1" width="32" height="32"/><path d="M7.05,16a9,9,0,1,1,9,9A9,9,0,0,1,7.05,16Zm4-3.26L9.59,11.52a7.49,7.49,0,0,0-1.41,4.14l1.94-.13c1-.06,1.47-.35,1.69-1S11.81,13.37,11,12.71Zm6.52,11-.41-1.63c-.47-1.75-.25-2.66.76-3.41s1.88-.63,3.45.34l1.44.88a7.74,7.74,0,0,0,1-3l-1.63-.13c-1.82-.09-2.63-.56-3-1.75s0-2,1.41-3.2l1.26-1a8.66,8.66,0,0,0-2.57-1.91l-.6,1.47c-.66,1.7-1.35,2.32-2.6,2.32s-2-.62-2.61-2.32l-.59-1.5a7.79,7.79,0,0,0-2.6,1.88l1.19,1c1.41,1.16,1.78,2,1.41,3.17s-1.19,1.66-3,1.76l-1.63.12a7.91,7.91,0,0,0,.94,3.07L10.5,19c1.56-1,2.47-1.1,3.48-.35s1.22,1.63.75,3.39l-.44,1.69a7.69,7.69,0,0,0,3.26,0Zm-6.18-4.07-1.63,1a7.59,7.59,0,0,0,3.52,2.7l.5-2c.28-1,.15-1.53-.41-1.94S12.22,19.1,11.37,19.64Zm3.42-3.2a.77.77,0,0,1-.81.81.81.81,0,0,1-.82-.81.82.82,0,0,1,.82-.82A.77.77,0,0,1,14.79,16.44Zm2.73-6.21.69-1.79A8.33,8.33,0,0,0,16,8.13a7.08,7.08,0,0,0-2.17.31l.72,1.79c.38.94.79,1.32,1.48,1.32S17.14,11.17,17.52,10.23Zm-2,4a.77.77,0,0,1-.81.82.82.82,0,0,1-.82-.82.81.81,0,0,1,.82-.81A.77.77,0,0,1,15.48,14.21Zm1.35,3.89a.77.77,0,0,1-.81.82.82.82,0,0,1-.82-.82.81.81,0,0,1,.82-.81A.77.77,0,0,1,16.83,18.1Zm1.32-3.89a.78.78,0,0,1-.82.82.81.81,0,0,1-.81-.82.8.8,0,0,1,.81-.81A.77.77,0,0,1,18.15,14.21Zm.72,2.23a.77.77,0,0,1-.82.81.8.8,0,0,1-.81-.81.81.81,0,0,1,.81-.82A.78.78,0,0,1,18.87,16.44Zm-.78,5,.53,2a8.15,8.15,0,0,0,3.54-2.6l-1.69-1.1c-.85-.53-1.41-.59-1.95-.22S17.83,20.48,18.09,21.46Zm3.79-5.84,1.94.13a7.85,7.85,0,0,0-1.34-4.17L21,12.83c-.75.63-1,1.16-.78,1.82S20.88,15.59,21.88,15.62Z"/></svg>