<svg id="Icones" xmlns="http://www.w3.org/2000/svg" width="32" height="32" viewBox="0 0 32 32"><defs><style>.cls-1{fill:none;}</style></defs><rect class="cls-1" width="32" height="32"/><path d="M4.79,16A11.21,11.21,0,1,1,16,27.2,11.18,11.18,0,0,1,4.79,16Zm21.26,0A10.05,10.05,0,1,0,16,26.07,10.05,10.05,0,0,0,26.05,16Zm-2.19,0A7.84,7.84,0,1,1,16,8.13,7.85,7.85,0,0,1,23.86,16ZM12,13.62l-1.6-1.19a6.72,6.72,0,0,0-1,3.16l2,0c.82,0,1.19-.16,1.35-.66S12.6,14.09,12,13.62Zm2.57,8.9a7.14,7.14,0,0,0,1.48.16,8.23,8.23,0,0,0,1.34-.13L16.86,21c-.47-1.54-.34-2.32.54-2.95s1.66-.53,3,.41l1.38,1a7,7,0,0,0,.91-2.73H21c-1.6,0-2.32-.37-2.66-1.41s0-1.76,1.31-2.7l1.41-1a6.7,6.7,0,0,0-2.32-1.73l-.53,1.67c-.5,1.5-1.07,2.07-2.16,2.07s-1.67-.57-2.17-2.07l-.53-1.67A6.89,6.89,0,0,0,11,11.55l1.35,1c1.25.94,1.63,1.66,1.28,2.7s-1,1.41-2.63,1.41H9.37a7.29,7.29,0,0,0,.84,2.7l1.35-1c1.29-.91,2.07-1,2.95-.37s1,1.41.53,2.91Zm-2.1-3.42-1.6,1.13a6.87,6.87,0,0,0,2.67,2l.59-1.88c.25-.75.19-1.19-.22-1.48S13.07,18.63,12.44,19.1Zm4.61-7.65.63-1.94a6.41,6.41,0,0,0-3.33,0L15,11.45c.25.76.53,1.07,1,1.07S16.8,12.21,17.05,11.45Zm.75,8.91.63,1.88a6.9,6.9,0,0,0,2.7-1.91L19.5,19.14c-.66-.44-1.07-.54-1.48-.25S17.58,19.61,17.8,20.36Zm2.86-4.74,2,0a6.75,6.75,0,0,0-1-3.2L20,13.65c-.63.47-.85.84-.69,1.32S19.87,15.62,20.66,15.62Z"/></svg>