<?xml version="1.0" encoding="UTF-8"?><svg xmlns="http://www.w3.org/2000/svg" width="24" height="24" viewBox="0 0 24 24"><defs><style>.c{fill:none;}</style></defs><g id="a"><rect class="c" width="24" height="24"/></g><g id="b"><path d="M18.29,10.84v10.26H4.61V11c0-1.45,.49-2.46,2.43-2.46h5.5v-2.22c0-2.19,1.23-3.42,3.34-3.42s3.51,1.14,3.51,3.34v.38h-1.14v-.19c0-1.64-.99-2.41-2.36-2.41s-2.19,.79-2.19,2.41v2.14h2.11c1.69-.03,2.48,.82,2.48,2.27Zm-11.27-1.15c-.85,0-1.29,.3-1.29,1.34v8.92h11.4V11.02c0-1.04-.43-1.34-1.28-1.34H7.02Zm4.43,7.33v-1.14h-.03c-.3,.03-.61,0-.89-.11-.29-.1-.55-.26-.76-.47s-.39-.47-.49-.75-.15-.59-.13-.89c-.02-.3,.03-.6,.14-.88,.11-.28,.28-.53,.49-.74,.22-.21,.48-.37,.76-.46,.28-.1,.59-.13,.89-.1,.3-.03,.6,0,.88,.11,.28,.1,.54,.26,.76,.47,.22,.21,.39,.46,.5,.74,.11,.28,.16,.58,.14,.88,.02,.4-.07,.81-.27,1.16-.2,.35-.5,.63-.87,.82v2.53h-2.45v-1.14h1.34Zm0-4.44c-.79,0-1.14,.41-1.14,1.07s.33,1.09,1.14,1.09c.15,.02,.31,.01,.45-.03,.15-.05,.28-.12,.39-.23,.11-.11,.2-.24,.25-.38,.05-.14,.07-.3,.05-.45,0-.15-.02-.3-.07-.44s-.14-.26-.25-.36c-.11-.1-.24-.18-.38-.22-.14-.05-.29-.06-.44-.04h0Z"/></g></svg>