<svg id="Icones" xmlns="http://www.w3.org/2000/svg" width="32" height="32" viewBox="0 0 32 32"><defs><style>.cls-1{fill:none;}</style></defs><rect class="cls-1" width="32" height="32"/><path d="M11.32,15.91v0c0,1.54.15,1.79,1.6,2.67l2.38,1.47V13.75l.06-7.5c-.66.91-1.09,1.63-1.94,3l-.85-.5a36.07,36.07,0,0,1,2.86-4h.84c1.35,1.75,2,2.76,2.86,4l-.85.5c-.85-1.38-1.29-2.1-1.94-3l.06,7.5v4.36l3-1.35c1.16-.54,1.38-.76,1.44-2H19.22V10.74h4.14v4.07H21.85A2.54,2.54,0,0,1,20,17.57l-3.64,1.7v3.51A2,2,0,0,1,18,24.94a2.06,2.06,0,0,1-2.2,2.23,2,2,0,0,1-2.19-2.23,2,2,0,0,1,1.66-2.16V21.34l-3.07-1.92c-1.7-1.06-2-1.53-2-3.48v0a2,2,0,0,1-1.66-2.16,2.05,2.05,0,0,1,2.19-2.23A2.06,2.06,0,0,1,13,13.75,2,2,0,0,1,11.32,15.91Zm-.54-3.36a1.05,1.05,0,0,0-1.12,1.2,1.07,1.07,0,0,0,1.12,1.19,1,1,0,0,0,1.13-1.19A1,1,0,0,0,10.78,12.55Zm5.05,11.2a1.06,1.06,0,0,0-1.13,1.19,1.07,1.07,0,0,0,1.13,1.19A1,1,0,0,0,17,24.94,1,1,0,0,0,15.83,23.75Zm6.49-9.94V11.74H20.26v2.07Z"/></svg>