<?xml version="1.0" encoding="UTF-8"?><svg xmlns="http://www.w3.org/2000/svg" width="24" height="24" viewBox="0 0 24 24"><defs><style>.c{fill:none;}</style></defs><g id="a"><rect class="c" width="24" height="24"/></g><g id="b"><path d="M8.12,8c0-2.46,1.44-3.96,3.88-3.96s3.88,1.49,3.88,3.96c0,1.69-.73,2.9-2.01,3.5v-.34c3.2,.6,4.91,2.82,4.91,6.62v2.17h-1.13v-2.12c0-3.77-2.01-5.78-5.65-5.78s-5.65,2.03-5.65,5.78v2.12h-1.13v-2.17c0-3.77,1.73-6.02,4.91-6.62v.36c-1.3-.6-2.01-1.82-2.01-3.52Zm6.64,0c0-1.81-.98-2.83-2.77-2.83s-2.76,1.03-2.76,2.83,.98,2.82,2.74,2.82,2.77-1.04,2.77-2.82h.02Z"/></g></svg>