<?xml version="1.0" encoding="UTF-8"?><svg xmlns="http://www.w3.org/2000/svg" width="24" height="24" viewBox="0 0 24 24"><defs><style>.c{fill:none;}</style></defs><g id="a"><rect class="c" width="24" height="24"/></g><g id="b"><path d="M12.62,18.12h-1.22v-1.22c0-2.88-1.53-4.28-4.28-4.28s-4.28,1.61-4.28,4.89v.61H1.6v-.61c0-3.14,1.11-4.99,3.41-5.7-.42-.29-.76-.68-.99-1.14-.23-.46-.33-.97-.3-1.48,0-2.03,1.29-3.32,3.38-3.32s3.38,1.3,3.38,3.32c.02,.51-.08,1.01-.3,1.47-.22,.46-.55,.85-.96,1.15,.6,.16,1.16,.45,1.64,.85,.48,.4,.87,.89,1.15,1.44,.28-.56,.67-1.05,1.15-1.44,.48-.39,1.04-.68,1.64-.85-.43-.29-.77-.68-1-1.13-.23-.46-.33-.97-.3-1.48,0-2.03,1.3-3.32,3.38-3.32s3.38,1.3,3.38,3.32c.02,.51-.08,1.01-.3,1.47s-.55,.85-.96,1.15c2.29,.72,3.41,2.55,3.41,5.69v.61h-1.22v-.61c0-3.29-1.38-4.9-4.32-4.9-2.7,0-4.28,1.41-4.28,4.28l.04,1.23Zm-3.32-8.93c.03-.29,0-.59-.11-.87-.1-.28-.26-.53-.47-.74s-.46-.37-.74-.46c-.28-.1-.58-.13-.87-.1-.29-.03-.59,0-.87,.1-.28,.1-.53,.25-.74,.46-.21,.21-.37,.46-.48,.73-.1,.28-.14,.57-.12,.86,0,1.44,.79,2.26,2.2,2.26s2.2-.8,2.2-2.23Zm9.79,0c.03-.3,0-.6-.11-.87-.1-.28-.26-.53-.48-.74-.21-.21-.47-.37-.75-.46-.28-.1-.58-.13-.88-.1-.29-.03-.59,0-.87,.1-.28,.1-.53,.25-.74,.46-.21,.21-.37,.46-.48,.73-.1,.28-.14,.57-.12,.86,0,1.44,.8,2.26,2.2,2.26s2.2-.8,2.2-2.23h.01Z"/></g></svg>