<svg id="Icones" xmlns="http://www.w3.org/2000/svg" width="32" height="32" viewBox="0 0 32 32"><defs><style>.cls-1{fill:none;}</style></defs><rect class="cls-1" width="32" height="32"/><path d="M9.09,24.94H8V23.31c0-4.45,1.82-7.18,5.18-8.09a4.21,4.21,0,0,1-1.82-3.73C11.35,8.63,13,7,15.83,7a4.14,4.14,0,0,1,4.49,4.52,4.21,4.21,0,0,1-1.82,3.73c3.39.88,5.17,3.61,5.17,8.09v1.63H22.58V23.37c0-4.86-2.39-7.43-6.75-7.43s-6.74,2.6-6.74,7.43ZM19.22,11.49C19.22,9.26,18,8,15.83,8s-3.38,1.22-3.38,3.45a3.07,3.07,0,0,0,3.38,3.39A3.09,3.09,0,0,0,19.22,11.49Z"/></svg>