<?xml version="1.0" encoding="UTF-8"?><svg xmlns="http://www.w3.org/2000/svg" width="24" height="24" viewBox="0 0 24 24"><defs><style>.c{fill:none;}</style></defs><g id="a"><rect class="c" width="24" height="24"/></g><g id="b"><path d="M2.16,20.08H1v-2.19c.02-3.66,1.63-5.97,4.57-6.67-.52-.37-.94-.87-1.22-1.45-.28-.58-.4-1.22-.36-1.86,0-2.53,1.47-4,3.97-4s3.98,1.5,3.98,4c.04,.64-.09,1.28-.36,1.86-.28,.58-.7,1.08-1.22,1.45,1.24,.28,2.35,.95,3.17,1.92,.56-.55,1.25-.94,2-1.16-.38-.31-.67-.71-.86-1.16-.19-.45-.28-.94-.25-1.42,0-2,1.16-3.17,3.14-3.17s3.14,1.2,3.14,3.17c.03,.5-.06,1-.26,1.46-.2,.46-.51,.86-.9,1.18,2.28,.58,3.47,2.32,3.47,5.21v1.74h-1.16v-1.71c0-2.94-1.56-4.55-4.33-4.55-.63-.04-1.26,.06-1.85,.29-.59,.23-1.12,.58-1.56,1.04,.54,1.2,.81,2.51,.77,3.84v2.19h-1.16v-2.14c0-3.89-2.05-5.94-5.79-5.94s-5.79,2.08-5.79,5.94l.02,2.14ZM10.8,7.93c0-1.86-1-2.89-2.84-2.89s-2.83,1.03-2.83,2.89,1.03,2.94,2.83,2.94,2.84-1.1,2.84-2.96v.02Zm8.75,1.46c0-1.34-.72-2.06-2-2.06s-2,.72-2,2.06,.75,2.22,2,2.22,2-.85,2-2.22Z"/></g></svg>