<?xml version="1.0" encoding="UTF-8"?><svg xmlns="http://www.w3.org/2000/svg" width="24" height="24" viewBox="0 0 24 24"><defs><style>.c{fill:none;}</style></defs><g id="a"><rect class="c" width="24" height="24"/></g><g id="b"><path d="M6.99,15.85h10.04c0-.3,.06-.6,.18-.88,.12-.28,.29-.54,.5-.75,.22-.21,.47-.38,.75-.5,.28-.12,.58-.18,.89-.18s.6,.06,.88,.18c.28,.12,.53,.29,.75,.5,.21,.21,.38,.47,.5,.75,.12,.28,.18,.58,.18,.88l1.02-.03c.03-.94-.04-1.88-.21-2.8-.19-.94-.32-1.21-1.12-1.48l-1.15-.38c-.31-.09-.59-.23-.84-.43s-.46-.44-.61-.72c-.57-.82-1.22-1.6-1.93-2.31-.26-.28-.58-.49-.93-.63-.35-.14-.73-.2-1.11-.17h-1.03v7.84h-1.12V5.79l2.24-.03c.49-.03,.97,.04,1.43,.23,.45,.18,.86,.46,1.19,.82,.78,.78,1.5,1.61,2.15,2.5,.32,.49,.82,.85,1.39,1l.97,.35c1.27,.46,1.43,1.24,1.64,2.28,.14,.83,.21,1.68,.22,2.52,0,1.07-.32,1.53-1.34,1.53h-1.07c-.2,.38-.49,.7-.86,.92-.37,.22-.79,.34-1.21,.34s-.85-.12-1.21-.34c-.37-.22-.66-.54-.86-.92H6.75c-.2,.38-.5,.7-.86,.92-.36,.22-.78,.34-1.21,.35-.43,0-.86-.13-1.22-.36-.37-.23-.66-.57-.84-.96h-.73c-1.12,0-1.72-.56-1.72-2.01s.05-5.32,.13-7.15c.06-1.29,.48-1.99,1.99-1.99H11.5v1.12H2.5c-.86,0-1.05,.11-1.08,1.02-.05,1.77-.13,5.7-.13,6.99,0,.81,.13,.92,.73,.92h.35c.01-.61,.26-1.18,.69-1.61,.43-.43,1.01-.67,1.62-.69,.61,.01,1.2,.26,1.63,.7,.43,.44,.68,1.02,.68,1.64Zm-1.12,0c0-.32-.13-.63-.35-.85-.23-.23-.53-.35-.86-.35s-.63,.13-.85,.35c-.23,.23-.35,.53-.35,.85s.13,.63,.35,.85c.23,.23,.53,.35,.85,.35s.63-.13,.86-.35c.23-.23,.35-.53,.35-.85Zm14.67,0c0-.32-.13-.63-.35-.85-.23-.23-.53-.35-.86-.35s-.63,.13-.85,.35c-.23,.23-.36,.53-.36,.85s.13,.63,.36,.85c.23,.23,.53,.35,.85,.35s.63-.13,.86-.35c.23-.23,.35-.53,.35-.85Z"/></g></svg>