<?xml version="1.0" encoding="UTF-8"?><svg xmlns="http://www.w3.org/2000/svg" width="24" height="24" viewBox="0 0 24 24"><defs><style>.c{fill:none;}</style></defs><g id="a"><rect class="c" width="24" height="24"/></g><g id="b"><path d="M0,16.48H2.16c0-.62,.24-1.22,.68-1.67,.44-.45,1.03-.7,1.65-.71,.63,0,1.22,.26,1.66,.71,.44,.45,.68,1.05,.68,1.67h10.32c-.01-.32,.03-.63,.14-.93,.11-.3,.28-.57,.5-.8,.22-.23,.48-.41,.77-.54,.29-.12,.6-.19,.92-.19s.63,.06,.92,.19c.29,.12,.55,.31,.77,.54,.22,.23,.39,.5,.5,.8,.11,.3,.16,.61,.14,.93h1.04v-.81c0-.95-.08-1.9-.27-2.82-.03-.22-.12-.43-.26-.6-.14-.17-.33-.29-.54-.35l-1.28-.57c-.41-.16-.49-.3-.81-.92-.56-1.06-1.38-2.95-2.06-3.61-.51-.51-.76-.51-1.73-.51h-.96V15.32h-1.13V5.15h2.39c1.3,0,1.79,.16,2.6,1.17,.74,1.03,1.37,2.14,1.85,3.31,.3,.65,.27,.62,.71,.81l1.13,.51c.28,.1,.53,.27,.73,.5,.2,.22,.34,.49,.4,.78,.29,1.3,.42,2.63,.38,3.96,0,1.13-.38,1.41-1.43,1.41h-1.04c-.2,.38-.49,.69-.86,.91-.36,.22-.78,.34-1.2,.34s-.84-.12-1.21-.34c-.36-.22-.66-.54-.85-.91H6.55c-.2,.38-.49,.69-.86,.91-.36,.22-.78,.34-1.2,.34s-.84-.12-1.21-.34c-.36-.22-.66-.54-.85-.91H0v-1.12Zm5.72,0c0-.16-.03-.32-.09-.47-.06-.15-.15-.28-.26-.4-.11-.11-.25-.2-.4-.26-.15-.06-.31-.09-.47-.09s-.32,.03-.47,.09c-.15,.06-.28,.15-.4,.26-.11,.11-.2,.25-.26,.4s-.09,.31-.09,.47,.03,.32,.09,.47c.06,.15,.15,.28,.26,.4,.11,.11,.25,.2,.4,.26,.15,.06,.31,.09,.47,.09s.32-.03,.47-.09c.15-.06,.28-.15,.4-.26,.11-.11,.2-.25,.26-.4,.06-.15,.09-.31,.09-.47Zm14.98,0c0-.32-.13-.63-.36-.86-.23-.23-.54-.36-.86-.36s-.63,.13-.86,.36c-.23,.23-.36,.54-.36,.86s.13,.63,.36,.86,.54,.36,.86,.36,.63-.13,.86-.36c.23-.23,.36-.54,.36-.86Z"/></g></svg>