<?xml version="1.0" encoding="UTF-8"?><svg xmlns="http://www.w3.org/2000/svg" width="24" height="24" viewBox="0 0 24 24"><defs><style>.c{fill:none;}</style></defs><g id="a"><rect class="c" width="24" height="24"/></g><g id="b"><path d="M7.67,15.28h8.84c-.02-.31,.03-.63,.14-.92,.11-.29,.28-.56,.49-.79,.22-.23,.48-.41,.77-.53,.29-.12,.6-.19,.91-.19s.62,.06,.91,.19c.29,.12,.55,.31,.77,.53,.22,.23,.38,.5,.49,.79,.11,.29,.16,.61,.14,.92h.94v-.38c.02-.72-.1-1.45-.35-2.13-.16-.46-.24-.62-.81-.73l-2.32-.48c-.56-.11-.81-.43-1.21-1-.53-.79-1.13-1.55-1.78-2.25-.73-.73-1.05-.89-1.72-.89h-.67v6.73h-1.12V6.31h1.54c.5-.04,1.01,.03,1.47,.23,.46,.2,.87,.5,1.19,.89,1.59,1.56,2.02,2.81,2.48,3.01,.46,.21,1.64,.35,2.53,.62,.89,.27,1.12,.48,1.4,1.16,.33,.86,.5,1.77,.52,2.69,0,.91-.22,1.51-1.27,1.51h-1.06c-.2,.38-.49,.7-.86,.93-.37,.22-.79,.34-1.22,.34s-.85-.12-1.22-.34c-.37-.22-.66-.54-.86-.93H7.43c-.2,.38-.49,.7-.86,.93-.37,.22-.79,.34-1.22,.34s-.85-.12-1.22-.34c-.37-.22-.66-.54-.86-.93h-1c-.89,0-1.51-.51-1.51-1.68,0-1.29,0-4.33,.08-6.33,.06-1.4,.56-2.1,2.13-2.1h8v1.12H2.87c-.62,0-.81,.16-.83,.89-.06,1.62-.13,4.91-.13,6.25,0,.56,.13,.7,.56,.7h.56c.01-.61,.26-1.2,.69-1.64,.43-.43,1.02-.69,1.63-.7,.62,.01,1.2,.26,1.63,.7s.68,1.03,.68,1.64h0Zm-1.12,0c0-.16-.03-.32-.09-.46s-.15-.28-.26-.39c-.11-.11-.25-.2-.39-.26-.15-.06-.3-.09-.46-.09s-.32,.03-.46,.09c-.15,.06-.28,.15-.39,.26-.11,.11-.2,.25-.26,.39-.06,.15-.09,.31-.09,.46s.03,.32,.09,.46c.06,.15,.15,.28,.26,.39,.11,.11,.25,.2,.39,.26s.3,.09,.46,.09,.32-.03,.46-.09c.15-.06,.28-.15,.39-.26,.11-.11,.2-.25,.26-.39,.06-.15,.09-.31,.09-.46h0Zm13.47,0c0-.32-.13-.63-.36-.86-.23-.23-.54-.36-.86-.36s-.63,.13-.86,.36c-.23,.23-.36,.54-.36,.86s.13,.63,.36,.86c.23,.23,.54,.35,.86,.35s.63-.13,.86-.35c.23-.23,.36-.54,.36-.86Z"/></g></svg>