<?xml version="1.0" encoding="UTF-8"?><svg xmlns="http://www.w3.org/2000/svg" width="24" height="24" viewBox="0 0 24 24"><defs><style>.c{fill:none;}</style></defs><g id="a"><rect class="c" width="24" height="24"/></g><g id="b"><path d="M.26,8.74H13.1v4.29H.26v-4.29Zm11.78,3.22v-2.14H1.43v2.14H12.03ZM.16,16.24H2.22c0-.59,.23-1.16,.64-1.58,.41-.42,.98-.67,1.57-.68,.59,.01,1.15,.26,1.57,.68,.41,.42,.64,.99,.64,1.58h10.69c-.01-.3,.03-.6,.14-.88,.1-.28,.26-.54,.47-.76,.21-.22,.46-.39,.73-.51,.28-.12,.57-.18,.87-.18s.6,.06,.87,.18,.52,.29,.73,.51c.21,.22,.37,.47,.47,.76,.1,.28,.15,.58,.14,.88h1.01v-.77c0-.9-.08-1.8-.26-2.68-.02-.21-.11-.4-.24-.57-.14-.16-.32-.28-.52-.34l-1.21-.54c-.39-.15-.46-.28-.77-.87-.54-1-1.31-2.8-1.96-3.43-.49-.49-.72-.49-1.65-.49h-.9V15.15h-1.07V5.5h2.27c1.23,0,1.7,.15,2.47,1.11,.7,.98,1.28,2.03,1.74,3.14,.28,.62,.26,.59,.67,.77l1.07,.49c.26,.1,.5,.26,.69,.47,.19,.21,.32,.47,.38,.74,.28,1.23,.4,2.49,.36,3.75,0,1.07-.36,1.34-1.36,1.34h-.96c-.19,.36-.47,.66-.81,.87-.34,.21-.74,.32-1.14,.32s-.8-.11-1.14-.32c-.35-.21-.62-.51-.81-.87H6.39c-.19,.36-.47,.66-.81,.87-.34,.21-.74,.32-1.14,.32s-.8-.11-1.14-.32c-.35-.21-.62-.51-.81-.87H.17v-1.07Zm5.42,0c0-.15-.03-.3-.09-.44-.06-.14-.14-.27-.25-.38-.11-.11-.24-.19-.38-.25-.14-.06-.29-.09-.44-.09s-.3,.03-.44,.09c-.14,.06-.27,.14-.38,.25-.11,.11-.19,.24-.25,.38-.06,.14-.09,.29-.09,.44s.03,.3,.09,.44c.06,.14,.14,.27,.25,.38,.11,.11,.24,.19,.38,.25,.14,.06,.29,.09,.44,.09s.3-.03,.44-.09c.14-.06,.27-.14,.38-.25,.11-.11,.19-.24,.25-.38,.06-.14,.09-.29,.09-.44Zm15.12,0c0-.31-.12-.6-.34-.82-.22-.22-.51-.34-.82-.34s-.6,.12-.82,.34c-.22,.22-.34,.51-.34,.82s.12,.6,.34,.82c.22,.22,.51,.34,.82,.34s.6-.12,.82-.34c.22-.22,.34-.51,.34-.82Z"/></g></svg>