<?xml version="1.0" encoding="UTF-8"?><svg xmlns="http://www.w3.org/2000/svg" width="24" height="24" viewBox="0 0 24 24"><defs><style>.c{fill:none;}</style></defs><g id="a"><rect class="c" width="24" height="24"/></g><g id="b"><path d="M20.57,16.18c-.18,.39-.46,.73-.82,.96-.36,.23-.78,.36-1.21,.36s-.85-.12-1.21-.36c-.36-.23-.65-.57-.82-.96H7.69c-.18,.39-.46,.72-.82,.96-.36,.23-.78,.36-1.21,.36-.43,0-.86-.12-1.22-.36-.36-.24-.64-.58-.81-.99h-.64c-1.11,0-1.73-.54-1.73-1.73s.1-4.4,.13-6.18c0-1.18,.54-1.75,1.65-1.75l10.56,.05c1.21,0,1.61,.13,2.39,.8,.81,.79,1.52,1.67,2.12,2.63,.08,.15,.19,.28,.33,.38,.14,.1,.3,.16,.47,.19,.71,.12,1.41,.27,2.11,.46,.34,.08,.64,.25,.89,.5,.24,.25,.41,.56,.48,.89,.22,.73,.34,1.48,.36,2.24,0,1.16-.36,1.54-1.39,1.54h-.79Zm-12.7-1.07h8.45c.03-.57,.27-1.11,.68-1.51,.41-.4,.96-.63,1.53-.64,.57,0,1.13,.23,1.54,.63,.41,.4,.66,.94,.68,1.52h.9v-.26c0-.69-.09-1.37-.26-2.03-.18-.56-.31-.72-.82-.82l-2.27-.47c-.54-.1-.85-.49-1.23-1.07-.47-.74-1.01-1.43-1.61-2.07-.23-.28-.53-.5-.86-.64-.34-.13-.71-.18-1.07-.13H3.21c-.64,0-.75,.12-.77,.75-.05,1.44-.13,4.74-.13,6.02,0,.59,.18,.7,.62,.7h.54c.04-.56,.29-1.09,.7-1.48,.41-.39,.95-.61,1.51-.63,.57,0,1.11,.23,1.52,.63,.41,.39,.65,.93,.68,1.49h0Zm-1.07,.14c0-.31-.12-.6-.34-.82-.22-.22-.51-.34-.82-.34s-.6,.12-.82,.34c-.22,.22-.34,.51-.34,.82s.12,.6,.34,.82c.22,.22,.51,.34,.82,.34s.6-.12,.82-.34c.22-.22,.34-.51,.34-.82h0Zm12.87,0c0-.31-.12-.6-.34-.82-.22-.22-.51-.34-.82-.34s-.6,.12-.82,.34c-.22,.22-.34,.51-.34,.82s.12,.6,.34,.82c.22,.22,.51,.34,.82,.34s.6-.12,.82-.34c.22-.22,.34-.51,.34-.82h0Z"/></g></svg>