<svg id="Icones" xmlns="http://www.w3.org/2000/svg" width="32" height="32" viewBox="0 0 32 32"><defs><style>.cls-1{fill:none;}</style></defs><rect class="cls-1" width="32" height="32"/><path d="M4.64,14.84V11.52h1.1v3.32Zm4.48,6.75A2,2,0,0,1,6.9,19.36V12.62a2,2,0,0,1,2.22-2.23h9a2,2,0,0,1,2.23,2.23v0h1.82a22,22,0,0,1,3.79-1.79H27v9.63h-1.1a22,22,0,0,1-3.79-1.79H20.32v.66a2,2,0,0,1-2.23,2.23Zm10.1-2.23V12.62c0-.82-.31-1.16-1.13-1.16h-9c-.81,0-1.13.34-1.13,1.16v6.74c0,.81.32,1.16,1.13,1.16h9C18.91,20.52,19.22,20.17,19.22,19.36Zm6.71,0V12a16.67,16.67,0,0,0-3.38,1.69H20.32v3.92h2.23A16.18,16.18,0,0,0,25.93,19.33Z"/></svg>