<?xml version="1.0" encoding="UTF-8"?><svg xmlns="http://www.w3.org/2000/svg" width="24" height="24" viewBox="0 0 24 24"><defs><style>.c{fill:none;}</style></defs><g id="a"><rect class="c" width="24" height="24"/></g><g id="b"><path d="M6.58,14.45c1.39,0,2.11-.84,2.11-2.3v-.72c0-.93-.28-1.59-.99-1.91v-.02c.68-.29,.99-.89,.99-1.87v-.24c0-1.45-.71-2.3-2.11-2.3s-2.11,.83-2.11,2.3v.5h1.34v-.59c0-.65,.28-.9,.73-.9s.73,.22,.73,1.05v.51c0,.73-.32,.97-.85,.97h-.55v1.31h.47c.64,0,.93,.31,.93,1.16v.73c0,.81-.28,1.03-.73,1.03s-.73-.27-.73-.9v-.85h-1.34v.76c0,1.45,.72,2.3,2.11,2.3h0Zm5.13,0c1.39,0,2.14-.84,2.14-2.3v-1.67c0-1.35-.53-2.09-1.57-2.09-.27-.02-.54,.05-.77,.19-.23,.14-.41,.36-.52,.61h-.03v-1.66c0-.88,.28-1.13,.79-1.13s.73,.25,.73,.9v.33h1.34v-.24c0-1.45-.71-2.3-2.11-2.3s-2.14,.83-2.14,2.38v4.69c-.01,1.45,.74,2.3,2.13,2.3Zm-.73-3.86c0-.65,.28-.9,.73-.9s.73,.25,.73,.9v1.65c0,.65-.28,.89-.73,.89s-.73-.24-.73-.89v-1.65Zm5.81,3.86c1.39,0,2.14-.84,2.14-2.3V7.39c0-1.45-.76-2.3-2.14-2.3s-2.14,.84-2.14,2.3v4.76c0,1.45,.75,2.3,2.14,2.3Zm-.73-7.15c0-.65,.28-.9,.73-.9s.71,.25,.71,.9v4.94c0,.65-.28,.9-.71,.9s-.73-.25-.73-.9V7.3Zm4.98-.51c.45,0,.81-.37,.81-.82s-.36-.82-.81-.82-.81,.37-.81,.82,.36,.82,.81,.82Zm-11.21,9.45c-.69-.04-1.37-.09-2.02-.16-4.5-.5-5.96-1.56-5.96-1.99,0-.2,.38-.68,1.79-1.16,.12-.04,.21-.13,.26-.25,.05-.11,.06-.24,.02-.36-.04-.12-.12-.22-.23-.28-.11-.06-.24-.07-.36-.04-1.63,.55-2.44,1.24-2.44,2.08,0,1.99,4.76,2.73,6.81,2.96,.66,.07,1.37,.13,2.08,.17h.03c.13,0,.25-.04,.34-.13,.09-.09,.15-.21,.15-.34s-.04-.26-.13-.35c-.09-.09-.21-.15-.33-.15h0Zm13.3-2.16c0-.83-.83-1.53-2.45-2.08-.12-.04-.25-.02-.36,.04-.11,.06-.19,.16-.23,.28-.04,.12-.03,.25,.02,.36,.05,.11,.15,.2,.26,.25,1.43,.48,1.79,.96,1.79,1.16,0,.73-3.08,2.04-8.99,2.2l.76-.78s.09-.1,.12-.16c.03-.06,.04-.13,.05-.19,0-.07,0-.13-.03-.2-.02-.06-.06-.12-.11-.17-.05-.05-.1-.08-.16-.11-.06-.02-.13-.04-.19-.03-.07,0-.13,.02-.19,.05-.06,.03-.11,.07-.16,.12l-1.6,1.62s-.08,.1-.1,.16c-.02,.06-.04,.12-.04,.18s.01,.12,.04,.18c.02,.06,.06,.11,.1,.16l1.6,1.62s.1,.09,.16,.12c.06,.03,.12,.05,.19,.05,.07,0,.13,0,.19-.03,.06-.02,.12-.06,.16-.11,.05-.05,.08-.1,.11-.17,.02-.06,.04-.13,.03-.2,0-.07-.02-.13-.05-.19-.03-.06-.07-.11-.12-.16l-.79-.81c5.14-.14,9.99-1.22,9.99-3.17h0Z"/></g></svg>