<svg id="Icones" xmlns="http://www.w3.org/2000/svg" width="32" height="32" viewBox="0 0 32 32"><defs><style>.cls-1{fill:none;}</style></defs><rect class="cls-1" width="32" height="32"/><path d="M5.77,16.54V15.41a13.64,13.64,0,0,1,10.06-5,13.65,13.65,0,0,1,10.07,5v1.13a13.65,13.65,0,0,1-10.07,5A13.64,13.64,0,0,1,5.77,16.54Zm5.89,3.2A5.21,5.21,0,0,1,10.28,16a5.2,5.2,0,0,1,1.38-3.76A15.76,15.76,0,0,0,6.8,16,15.65,15.65,0,0,0,11.66,19.74ZM20.32,16a4.17,4.17,0,0,0-4.49-4.54A4.16,4.16,0,0,0,11.35,16a4.17,4.17,0,0,0,4.48,4.55A4.17,4.17,0,0,0,20.32,16Zm-2.79,0a1.59,1.59,0,0,1-1.7,1.7A1.58,1.58,0,0,1,14.14,16a1.57,1.57,0,0,1,1.69-1.69A1.55,1.55,0,0,1,17.53,16ZM20,12.21A5.16,5.16,0,0,1,21.38,16,5.17,5.17,0,0,1,20,19.74,15.8,15.8,0,0,0,24.87,16,15.91,15.91,0,0,0,20,12.21Z"/></svg>