<?xml version="1.0" encoding="UTF-8"?><svg xmlns="http://www.w3.org/2000/svg" width="24" height="24" viewBox="0 0 24 24"><defs><style>.c{fill:none;}</style></defs><g id="a"><rect class="c" width="24" height="24"/></g><g id="b"><path d="M12.59,19.91c-1.86-1.18-3.64-2.48-5.32-3.91H2.25v-8H7.27c1.63-1.48,3.42-2.8,5.32-3.92h1.15v15.83h-1.15Zm-4.91-5.05c1.54,1.36,3.18,2.61,4.91,3.72V5.41c-1.77,1.06-3.41,2.31-4.91,3.72H3.38v5.75H7.68ZM15.52,6.75l.91-.69c1.63,2.13,2.37,3.94,2.37,5.9s-.74,3.78-2.37,5.9l-.91-.69c1.49-1.98,2.15-3.56,2.15-5.21s-.66-3.23-2.15-5.21Zm2.4-1.49l.88-.72c2.04,2.65,2.95,4.93,2.95,7.42s-.94,4.84-2.95,7.43l-.88-.74c1.87-2.48,2.7-4.55,2.7-6.71s-.8-4.22-2.7-6.7h0Z"/></g></svg>