<?xml version="1.0" encoding="UTF-8"?><svg xmlns="http://www.w3.org/2000/svg" width="24" height="24" viewBox="0 0 24 24"><defs><style>.c{fill:none;}</style></defs><g id="a"><rect class="c" width="24" height="24"/></g><g id="b"><path d="M11.79,19.9c-1.86-1.17-3.64-2.48-5.31-3.91H1.47v-7.98H6.48c1.63-1.48,3.41-2.79,5.31-3.91h1.15v15.8h-1.15Zm-4.9-5.03c1.54,1.36,3.18,2.6,4.9,3.72V5.42c-1.76,1.06-3.4,2.3-4.9,3.72H2.6v5.74H6.9Zm8.56-.17l2.8-2.78-2.8-2.81,.77-.77,2.81,2.81,2.73-2.73,.77,.77-2.72,2.73,2.72,2.72-.77,.72-2.73-2.72-2.81,2.81-.77-.75Z"/></g></svg>