<?xml version="1.0" encoding="UTF-8"?><svg xmlns="http://www.w3.org/2000/svg" width="24" height="24" viewBox="0 0 24 24"><defs><style>.c{fill:none;}</style></defs><g id="a"><rect class="c" width="24" height="24"/></g><g id="b"><path d="M10.97,19.82c-1.8-1.15-3.52-2.41-5.16-3.77H.44V8.02H5.69c1.62-1.48,3.4-2.79,5.29-3.91h.94v15.71h-.95Zm-4.7-4.9c1.43,1.24,2.94,2.39,4.52,3.44V5.58c-1.67,1.04-3.22,2.24-4.65,3.58H1.58v5.74l4.69,.02ZM14.38,6.78l.91-.69c1.62,2.12,2.37,3.94,2.37,5.89s-.75,3.78-2.37,5.89l-.91-.69c1.49-1.98,2.15-3.55,2.15-5.2s-.66-3.23-2.15-5.2Zm2.4-1.49l.88-.72c2.04,2.63,2.95,4.92,2.95,7.4s-.94,4.85-2.95,7.43l-.88-.71c1.87-2.5,2.69-4.57,2.69-6.72s-.79-4.21-2.69-6.69h0Zm2.42-1.53l.91-.69c2.29,3,3.44,5.81,3.44,8.89s-1.15,5.98-3.44,8.98l-.86-.74c2.07-2.78,3.17-5.43,3.17-8.24s-1.1-5.43-3.22-8.22h0Z"/></g></svg>