<svg id="Icones" xmlns="http://www.w3.org/2000/svg" width="32" height="32" viewBox="0 0 32 32"><defs><style>.cls-1{fill:none;}</style></defs><rect class="cls-1" width="32" height="32"/><path d="M23.61,16.82c0,3.35,1.19,5.2,1.19,7.31,0,1.91-1,3-2.79,3s-2.82-1.13-2.82-3V17.07c0-.82-.31-1.13-1.13-1.13H15.8V18.2H8V14.84H5.74V13.78H8V10.36H5.74V9.29H8V8.13a2,2,0,0,1,2.23-2.22h3.36A2,2,0,0,1,15.8,8.13v6.75h2.26a2,2,0,0,1,2.23,2.22v7c0,1.31.56,2,1.72,2s1.73-.66,1.73-2c0-2.11-1.16-3.83-1.16-7.31V13.71c-1.42-.21-2.17-1.28-2.17-3V8.16h1V5.91h1V8.16H23.8V5.91h1V8.16h1v2.51c0,1.7-.82,2.83-2.2,3ZM13.58,7H10.22c-.82,0-1.13.35-1.13,1.16v9h5.62v-9C14.71,7.32,14.39,7,13.58,7ZM12,14.84h-.51l.32-2.22H10.25l1.07-3.33h1.19l-.78,2.29h1.81Zm9.44-5.67v1.5c0,1.32.59,2.07,1.66,2.07s1.75-.72,1.75-2.07V9.17Z"/></svg>