<?xml version="1.0" encoding="UTF-8"?><svg xmlns="http://www.w3.org/2000/svg" width="24" height="24" viewBox="0 0 24 24"><defs><style>.c{fill:none;}</style></defs><g id="a"><rect class="c" width="24" height="24"/></g><g id="b"><path d="M.3,20.18V7.81c2.64-1.29,5.62-2.86,7.97-3.99l.73,.53v2.75c2.24-1.09,4.77-2.3,6.84-3.28l.73,.53v2.69c2.13-1.17,4.32-2.24,6.36-3.23l.76,.53v15.83H.3Zm22.25-1.12V5.28c-2.55,1.26-4.54,2.3-7.09,3.68v-3.7c-2.64,1.29-5.03,2.41-7.6,3.7v-3.7c-2.27,1.12-4.38,2.24-6.43,3.25v10.52l21.12,.03ZM3.81,11.93h2.34v1.29H3.81v-1.29Zm0,3.51h2.34v1.29H3.81v-1.29Zm3.51-3.51h2.34v1.29h-2.34v-1.29Zm0,3.51h2.34v1.29h-2.34v-1.29Zm3.54-3.51h2.34v1.29h-2.34v-1.29Zm0,3.51h2.34v1.29h-2.34v-1.29Zm3.48-3.51h2.34v1.26h-2.34v-1.26Zm0,3.51h2.34v1.26h-2.34v-1.26Zm3.51-3.51h2.34v1.26h-2.34v-1.26Zm0,3.51h2.34v1.26h-2.34v-1.26Z"/></g></svg>