<?xml version="1.0" encoding="UTF-8"?><svg xmlns="http://www.w3.org/2000/svg" width="24" height="24" viewBox="0 0 24 24"><defs><style>.c{fill:none;}</style></defs><g id="a"><rect class="c" width="24" height="24"/></g><g id="b"><path d="M12,14.42c-3.75,0-6.1-2.37-6.1-6.1s2.34-6.1,6.1-6.1,6.1,2.34,6.1,6.1-2.33,6.1-6.1,6.1Zm0-1.17c3.05,0,4.92-1.87,4.92-4.95s-1.83-4.95-4.92-4.95-4.92,1.83-4.92,4.95,1.87,4.95,4.92,4.95Zm2.44,8.54c-.71-.61-1.35-1.14-2.44-2.17-1.08,1.02-1.73,1.58-2.44,2.17l-1.22-.44v-6.4c.39,.16,.8,.28,1.22,.35v4.88c1.11-.94,1.58-1.38,1.99-1.79h.88c.41,.41,.88,.85,1.99,1.79v-4.88c.42-.07,.83-.19,1.22-.35v6.38l-1.2,.46Zm-2.12-10.88h-1.09c-.7-.99-1.11-1.61-1.7-2.6l1.02-.65c.44,.76,.82,1.38,1.22,1.93,.81-1.27,1.55-2.58,2.23-3.92l1.05,.61c-.82,1.59-1.74,3.14-2.74,4.63h0Z"/></g></svg>