<?xml version="1.0" encoding="UTF-8"?><svg xmlns="http://www.w3.org/2000/svg" width="24" height="24" viewBox="0 0 24 24"><defs><style>.c{fill:none;}</style></defs><g id="a"><rect class="c" width="24" height="24"/></g><g id="b"><path d="M4.08,16.4c-.46,.02-.92-.05-1.34-.22-.43-.16-.82-.41-1.15-.74-.33-.32-.58-.71-.75-1.13-.17-.43-.25-.88-.24-1.34,0-2.03,1.32-3.54,3.18-3.65,.02-.59,.16-1.18,.4-1.72,.25-.54,.6-1.03,1.03-1.43,.44-.4,.95-.71,1.51-.92s1.15-.29,1.74-.26c2.6,0,4.28,1.4,4.41,3.75,.51,0,1.01,.1,1.48,.3,.47,.2,.89,.5,1.23,.87,.35,.37,.61,.81,.78,1.29,.17,.48,.24,.99,.21,1.49,0,2.24-1.59,3.7-4,3.7H4.08Zm11.37-3.7c0-2-1.34-3.13-3.59-3.04-.14-2.39-1.07-3.53-3.4-3.53s-3.56,1.48-3.7,4.22c-1.92-.11-3.04,.9-3.04,2.63-.01,.31,.04,.62,.16,.9,.12,.29,.29,.55,.51,.76,.22,.22,.49,.38,.78,.49,.29,.11,.6,.15,.91,.13H12.58c1.7,.02,2.88-1.03,2.88-2.56h0Zm-10.49,4.77l1.14,.22-.66,2.93-1.14-.22,.66-2.93Zm3.09,0l1.14,.22-1.04,4.71-1.14-.22,1.04-4.72Zm3.12,0l1.14,.22-.66,2.93-1.14-.22,.66-2.93Zm6.5-5.59h1.71c1.71,0,2.85-1.04,2.85-2.58,0-2-1.34-3.12-3.58-3.04-.14-2.39-1.07-3.54-3.42-3.54-1.64,0-2.68,.47-3.37,2.14-.28-.27-.63-.47-1.02-.57,.91-1.92,2.44-2.69,4.44-2.69,2.6,0,4.28,1.4,4.41,3.76,2.25,.11,3.7,1.64,3.7,3.94s-1.59,3.7-4,3.7h-1.71c.05-.37,.05-.75-.02-1.12h0Z"/></g></svg>