<?xml version="1.0" encoding="UTF-8"?><svg xmlns="http://www.w3.org/2000/svg" width="24" height="24" viewBox="0 0 24 24"><defs><style>.c{fill:none;}</style></defs><g id="a"><rect class="c" width="24" height="24"/></g><g id="b"><path d="M3.86,12.38H.98v-1.14H3.86v1.14Zm1.93,3.6l-2.04,2.04-.79-.79,2.04-2.04,.79,.79Zm-.73-7.6l-2.04-2.04,.82-.79,2.04,2.04-.82,.79Zm2.27,5.37c-.42-.29-.77-.68-1-1.14-.23-.46-.35-.97-.33-1.48-.01-.41,.06-.82,.21-1.2,.15-.38,.38-.73,.66-1.02,.29-.29,.63-.52,1.01-.67,.38-.15,.78-.23,1.19-.22,.49-.01,.97,.09,1.41,.3,.44,.21,.83,.52,1.13,.9-.32,.22-.61,.48-.87,.76-.18-.27-.43-.49-.72-.63-.29-.15-.61-.22-.94-.21-.26,0-.52,.04-.76,.14-.24,.1-.46,.24-.64,.43-.18,.19-.32,.41-.41,.65-.09,.24-.13,.51-.11,.77,0,.37,.08,.74,.25,1.07,.17,.33,.41,.61,.72,.83-.29,.2-.55,.44-.78,.72h0Zm3.27,6.73c-.46,.02-.91-.05-1.34-.21-.43-.16-.81-.41-1.14-.73-.32-.32-.58-.7-.75-1.13-.17-.42-.25-.88-.23-1.33,0-2.02,1.3-3.52,3.15-3.63,.02-.59,.16-1.17,.4-1.71,.24-.54,.6-1.02,1.03-1.42,.43-.4,.94-.71,1.5-.91,.55-.2,1.14-.29,1.73-.26,2.59,0,4.25,1.39,4.39,3.73,2.24,.11,3.68,1.63,3.68,3.93s-1.58,3.68-3.97,3.68H10.6Zm11.3-3.68c0-1.99-1.33-3.11-3.56-3.02-.14-2.37-1.07-3.51-3.41-3.51s-3.54,1.47-3.68,4.19c-1.91-.11-3.03,.9-3.03,2.62,0,.31,.04,.61,.16,.9,.11,.29,.29,.54,.51,.76,.22,.21,.48,.38,.77,.49,.29,.11,.6,.15,.9,.13h8.46c1.69,.02,2.86-1.02,2.86-2.54h.01ZM8.68,6.41V3.52h1.14v2.89h-1.14Zm3.92,1.14l2.04-2.04,.82,.79-2.05,2.05-.82-.79Z"/></g></svg>