<?xml version="1.0" encoding="UTF-8"?><svg xmlns="http://www.w3.org/2000/svg" width="24" height="24" viewBox="0 0 24 24"><defs><style>.c{fill:none;}</style></defs><g id="a"><rect class="c" width="24" height="24"/></g><g id="b"><path d="M4.23,19.3c-.45,.02-.9-.05-1.32-.21-.42-.16-.81-.41-1.13-.72-.32-.32-.57-.7-.74-1.12-.17-.42-.25-.87-.23-1.32,0-2,1.3-3.48,3.13-3.59,.02-.58,.15-1.16,.4-1.69,.24-.53,.59-1.01,1.02-1.41,.43-.4,.93-.7,1.48-.9,.55-.2,1.13-.29,1.72-.26,2.56,0,4.21,1.38,4.34,3.69,2.21,.11,3.64,1.62,3.64,3.89s-1.57,3.64-3.93,3.64H4.23Zm11.2-3.64c0-1.97-1.32-3.08-3.54-3-.13-2.35-1.05-3.48-3.34-3.48s-3.51,1.46-3.64,4.15c-1.89-.11-3,.89-3,2.59-.01,.3,.04,.61,.16,.89,.11,.28,.29,.54,.5,.75,.22,.21,.48,.38,.76,.48,.29,.1,.59,.15,.89,.13H12.57c1.67,.02,2.83-1.01,2.83-2.52h.03Zm2.19-.81h1.69c1.69,0,2.81-1.03,2.81-2.54,0-1.97-1.32-3.07-3.53-2.99-.14-2.35-1.06-3.48-3.37-3.48-1.62,0-2.64,.46-3.32,2.11-.28-.27-.62-.46-1-.56,.84-1.92,2.35-2.68,4.32-2.68,2.56,0,4.21,1.38,4.35,3.7,2.21,.11,3.64,1.62,3.64,3.88s-1.56,3.64-3.93,3.64h-1.69c.06-.36,.06-.72,.01-1.08h.03Z"/></g></svg>