<?xml version="1.0" encoding="UTF-8"?><svg xmlns="http://www.w3.org/2000/svg" width="24" height="24" viewBox="0 0 24 24"><defs><style>.c{fill:none;}</style></defs><g id="a"><rect class="c" width="24" height="24"/></g><g id="b"><path d="M15.06,15.48h.93c1.71,0,2.86-1.05,2.86-2.58,0-2.01-1.34-3.13-3.59-3.04-.14-2.39-1.07-3.54-3.4-3.54s-3.54,1.48-3.7,4.22c-1.92-.11-3.05,.9-3.05,2.63-.01,.31,.04,.62,.16,.9,.12,.29,.29,.55,.51,.76,.22,.22,.49,.38,.78,.49,.29,.11,.6,.15,.91,.13h1.67l-.27,1.14h-1.38c-.46,.02-.92-.05-1.35-.22-.43-.16-.82-.41-1.15-.74-.33-.32-.58-.71-.76-1.13-.17-.43-.25-.88-.24-1.34,0-2.03,1.32-3.54,3.18-3.65,.02-.59,.16-1.18,.4-1.72,.25-.54,.6-1.03,1.04-1.43,.44-.4,.95-.72,1.51-.92,.56-.2,1.15-.29,1.74-.26,2.6,0,4.28,1.4,4.42,3.75,.51,0,1.01,.1,1.48,.3,.47,.2,.89,.5,1.23,.87s.61,.81,.78,1.29c.17,.48,.24,.99,.21,1.49,0,2.25-1.59,3.7-4,3.7h-1.51l.58-1.13Zm-3.26,3.34h-.66l.66-2.28h-1.59l1.04-3.43h1.71l-1.02,2.29h2.15l-2.3,3.43Z"/></g></svg>