<?xml version="1.0" encoding="UTF-8"?><svg xmlns="http://www.w3.org/2000/svg" width="24" height="24" viewBox="0 0 24 24"><defs><style>.c{fill:none;}</style></defs><g id="a"><rect class="c" width="24" height="24"/></g><g id="b"><path d="M5.63,17.55l.92-.92-1.02-.56,.78-.76,1.03,.56,3.32-3.32H5.98l-.32,1.16h-1.12l.33-1.16h-1.31v-1.12h1.33l-.33-1.12h1.12l.32,1.12h4.7l-3.31-3.29-1.08,.56-.78-.78,1.08-.56-.95-.94,.77-.78,.94,.94,.56-1.03,.77,.76-.56,1.02,3.35,3.32V5.97l-1.16-.32v-1.12l1.16,.32v-1.3h1.12v1.32l1.12-.32v1.12l-1.12,.32v4.65l3.27-3.27-.56-1.02,.78-.79,.56,1.03,.94-.94,.78,.78-.95,.94,1.08,.56-.85,.77-1.08-.56-3.3,3.3h4.7l.33-1.12h1.12l-.33,1.12h1.33v1.12h-1.32l.33,1.16h-1.12l-.33-1.16h-4.67l3.32,3.32,1.02-.57,.78,.79-1.02,.56,.94,.9-.78,.79-.94-.94-.56,1.05-.79-.78,.56-1.05-3.29-3.3v4.7l1.12,.33v1.12l-1.12-.33v1.32h-1.08v-1.34l-1.16,.33v-1.12l1.16-.31v-4.72l-3.37,3.32,.56,1.05-.78,.78-.56-1.05-.9,.94-.8-.79Z"/></g></svg>