<?xml version="1.0" encoding="UTF-8"?><svg xmlns="http://www.w3.org/2000/svg" width="24" height="24" viewBox="0 0 24 24"><defs><style>.c{fill:none;}</style></defs><g id="a"><rect class="c" width="24" height="24"/></g><g id="b"><path d="M7.49,14.7c-.46,.02-.92-.05-1.35-.21-.43-.16-.82-.41-1.15-.74-.33-.32-.58-.71-.76-1.14-.17-.43-.25-.88-.24-1.34,0-2.03,1.32-3.54,3.18-3.65,.02-.59,.15-1.18,.4-1.72,.25-.54,.6-1.03,1.04-1.43,.44-.4,.95-.72,1.51-.92,.56-.2,1.15-.29,1.75-.27,2.61,0,4.28,1.4,4.42,3.76,2.25,.11,3.7,1.65,3.7,3.95s-1.6,3.7-4,3.7H7.49Zm11.39-3.7c0-2-1.34-3.13-3.6-3.05-.14-2.38-1.07-3.54-3.4-3.54s-3.57,1.48-3.7,4.22c-1.92-.11-3.05,.91-3.05,2.63,0,.31,.05,.62,.16,.9,.12,.29,.29,.55,.51,.76,.22,.22,.49,.38,.78,.49,.29,.11,.6,.15,.91,.13H15.99c1.7,.02,2.88-1.02,2.88-2.56Zm-10.51,4.78l1.14,.22-.66,2.94-1.14-.22,.66-2.93Zm3.1,0l1.14,.22-1.07,4.72-1.14-.22,1.07-4.71Zm3.13,0l1.14,.22-.66,2.94-1.14-.22,.66-2.93Z"/></g></svg>