<?xml version="1.0" encoding="UTF-8"?><svg xmlns="http://www.w3.org/2000/svg" width="24" height="24" viewBox="0 0 24 24"><defs><style>.c{fill:none;}</style></defs><g id="a"><rect class="c" width="24" height="24"/></g><g id="b"><path d="M3.88,9.46H.98v-1.13H3.86l.02,1.13Zm1.93,3.59l-2.04,2.04-.79-.79,2.04-2.04,.79,.79Zm-.76-7.59L3.01,3.42l.8-.79,2.04,2.04-.8,.79Zm2.27,5.36c-.42-.29-.77-.68-1-1.14-.23-.46-.35-.97-.33-1.48-.01-.41,.06-.81,.21-1.19,.15-.38,.38-.73,.66-1.02,.29-.29,.63-.52,1.01-.67,.38-.15,.78-.23,1.19-.22,.49-.01,.97,.09,1.41,.3,.44,.21,.83,.52,1.13,.9-.32,.22-.61,.48-.87,.76-.18-.27-.43-.49-.72-.64s-.61-.22-.94-.21c-.26,0-.52,.04-.76,.14s-.46,.25-.64,.43c-.18,.19-.32,.41-.41,.66-.09,.24-.13,.51-.11,.77,0,.37,.09,.74,.26,1.07,.17,.33,.43,.61,.74,.82-.3,.2-.57,.44-.79,.72h-.02Zm3.29,6.72c-.46,.02-.91-.05-1.34-.21-.43-.16-.81-.41-1.14-.73-.33-.32-.58-.7-.75-1.13-.17-.42-.25-.88-.23-1.33,0-2.01,1.31-3.51,3.16-3.62,.02-.59,.15-1.17,.4-1.71,.24-.54,.59-1.02,1.03-1.42,.43-.4,.94-.71,1.5-.91,.55-.2,1.14-.29,1.73-.26,2.59,0,4.25,1.39,4.38,3.73,2.23,.11,3.67,1.63,3.67,3.92s-1.58,3.67-3.97,3.67H10.61Zm11.28-3.67c0-1.98-1.33-3.1-3.57-3.02-.14-2.36-1.06-3.51-3.4-3.51s-3.54,1.47-3.67,4.19c-1.9-.11-3.02,.9-3.02,2.61,0,.31,.05,.61,.16,.9,.12,.28,.29,.54,.51,.75,.22,.21,.48,.38,.77,.48,.29,.11,.6,.15,.9,.13h8.47c1.69,.02,2.86-1.01,2.86-2.54ZM8.7,3.5V.61h1.13V3.5h-1.13Zm2.37,15l1.13,.22-.66,2.91-1.13-.22,.66-2.91Zm1.55-13.85l2.04-2.04,.82,.79-2.02,2.04-.83-.79Zm1.52,13.85l1.13,.22-1.03,4.68-1.13-.22,1.03-4.68Zm3.1,0l1.13,.22-.65,2.91-1.13-.22,.65-2.91Z"/></g></svg>