<?xml version="1.0" encoding="UTF-8"?><svg xmlns="http://www.w3.org/2000/svg" width="24" height="24" viewBox="0 0 24 24"><defs><style>.c{fill:none;}</style></defs><g id="a"><rect class="c" width="24" height="24"/></g><g id="b"><path d="M6.9,12.56H3.5v-1.13h3.4v1.13Zm1.09-3.75l-2.42-2.4,.8-.82,2.39,2.4-.77,.82Zm.84,7.18l-2.42,2.42-.79-.82,2.39-2.39,.82,.79Zm7.02-4.03c0,2.45-1.45,3.97-3.86,3.97s-3.89-1.5-3.89-3.97,1.47-3.97,3.89-3.97,3.86,1.52,3.86,3.97h0Zm-3.86-2.83c-1.7,0-2.78,1.09-2.78,2.83s1.06,2.83,2.78,2.83,2.75-1.04,2.75-2.83-1.04-2.86-2.75-2.86v.02Zm-.6-2.23V3.5h1.13v3.4h-1.13Zm1.13,10.2v3.4h-1.13v-3.4h1.13Zm3.48-1.87l2.42,2.39-.82,.82-2.4-2.42,.79-.79Zm-.78-7.24l2.4-2.43,.82,.82-2.4,2.4-.82-.79Zm1.88,3.4h3.4v1.13h-3.4v-1.13Z"/></g></svg>