<svg id="Icones" xmlns="http://www.w3.org/2000/svg" width="32" height="32" viewBox="0 0 32 32"><defs><style>.cls-1{fill:none;}</style></defs><rect class="cls-1" width="32" height="32"/><path d="M25,27.2H7.05L9.3,11.55h6.18V9.32h1.1v2.23H22.7Zm-1.31-1.07-.51-3.42H8.87l-.51,3.42ZM10.31,12.61,9,21.65H23l-1.29-9Zm7.59-1.78L17.21,10a2.5,2.5,0,0,0,1-2A2,2,0,0,0,16,5.9,2,2,0,0,0,13.79,8a2.47,2.47,0,0,0,1.07,2l-.69.82A3.5,3.5,0,0,1,12.66,8,3.09,3.09,0,0,1,16,4.8,3.1,3.1,0,0,1,19.37,8,3.46,3.46,0,0,1,17.9,10.83Z"/></svg>