<?xml version="1.0" encoding="UTF-8"?><svg xmlns="http://www.w3.org/2000/svg" width="24" height="24" viewBox="0 0 24 24"><defs><style>.c{fill:none;}</style></defs><g id="a"><rect class="c" width="24" height="24"/></g><g id="b"><path d="M19.92,22H4.08l2-13.84h5.38v-1.97h1.16v1.97h5.33l1.98,13.84Zm-1.35-1.11l-.34-2.39H5.74l-.33,2.39h13.15Zm-.5-3.47l-1.15-8.12H7.09l-1.16,8.12h12.13Zm-2.91-12.4c0,.4-.07,.8-.23,1.17-.16,.37-.39,.7-.69,.97l-.77-.75c.34-.38,.53-.88,.53-1.39,.02-.26-.02-.52-.11-.76-.09-.24-.24-.46-.43-.64-.19-.18-.41-.32-.66-.4-.25-.08-.51-.11-.77-.08-.26-.03-.52,0-.77,.08-.25,.08-.47,.22-.66,.4-.19,.18-.34,.4-.43,.64-.09,.24-.13,.5-.12,.76,0,.51,.19,1.01,.53,1.39l-.78,.75c-.29-.27-.53-.6-.69-.97-.16-.37-.23-.77-.23-1.17,0-1.73,1.16-3.02,3.13-3.02s3.14,1.28,3.14,3.02Z"/></g></svg>