<?xml version="1.0" encoding="UTF-8"?><svg xmlns="http://www.w3.org/2000/svg" width="24" height="24" viewBox="0 0 24 24"><defs><style>.c{fill:none;}</style></defs><g id="a"><rect class="c" width="24" height="24"/></g><g id="b"><path d="M5.08,8.56H1.36v-1.13h3.98c-.17,.35-.26,.74-.25,1.13h0Zm8.88,11.02c.16,.1,.35,.15,.53,.14,.08,0,.16-.02,.23-.05,.07-.03,.14-.08,.19-.14s.1-.13,.12-.2c.03-.08,.04-.16,.03-.24,0-.28-.03-.33-.51-.59l-3.66-2.14,.59-.9,5.24,3.04c.14,.1,.31,.15,.48,.14,.08,0,.16,0,.23-.03,.07-.03,.14-.07,.2-.13s.1-.12,.13-.2c.03-.07,.04-.15,.03-.23,0-.28-.05-.36-.45-.59l-4.57-2.65,.46-.9,5.47,3.16c.15,.08,.31,.13,.48,.14,.16,0,.31-.06,.42-.17,.11-.11,.17-.26,.17-.42,0-.25-.09-.39-.45-.59l-4.91-2.87,.53-.9,4.43,2.54c.14,.09,.31,.14,.48,.14,.16,0,.3-.07,.42-.18,.11-.11,.19-.25,.21-.41,0-.28-.08-.42-.45-.65l-7.05-4.15,1.1-.65,6.59,3.86c.29,.13,.53,.34,.7,.61,.17,.27,.26,.57,.26,.89,.04,.33-.05,.66-.24,.92-.19,.27-.48,.45-.81,.51,.13,.11,.23,.25,.3,.41,.07,.16,.1,.33,.1,.5,0,.43-.16,.85-.46,1.16-.3,.31-.71,.49-1.15,.5-.14,0-.29-.03-.42-.08-.06,.44-.28,.85-.62,1.15s-.77,.46-1.22,.46c-.34-.01-.67-.12-.95-.31l-.11-.05c-.07,.4-.28,.77-.59,1.03-.32,.26-.72,.39-1.13,.38-.31-.02-.61-.12-.87-.28l-5.46-3.1c-1.76-1.02-2.26-1.13-3.69-1.13H1.36v-1.13h3.3c1.23-.02,2.44,.34,3.47,1.02l5.83,3.35Zm-1.38-11.39l-3.42,2.05c-.3,.2-.65,.3-1.01,.28-.25,0-.5-.03-.73-.12-.23-.09-.44-.22-.62-.4-.18-.17-.32-.38-.42-.61-.1-.23-.15-.47-.15-.72,0-.76,.31-1.13,1.21-1.66l4.62-2.64c1.83,0,2.71,1.01,4.17,1.01,.82,0,1.63-.26,2.28-.76l2.35-1.47,.64,.98-2.76,1.69c-.75,.49-1.63,.74-2.53,.73-1.52,0-2.35-.93-3.95-1.02l-4.48,2.6c-.11,.04-.2,.12-.27,.21-.07,.09-.11,.21-.12,.32,0,.18,.06,.34,.18,.47,.12,.13,.29,.2,.46,.2,.22-.01,.44-.09,.62-.22l3.29-1.92,.63,.99Zm9.47,1.17l.59,1.02-2.03,1.13-1.07-.73,2.51-1.41Z"/></g></svg>