<svg id="Icones" xmlns="http://www.w3.org/2000/svg" width="32" height="32" viewBox="0 0 32 32"><defs><style>.cls-1{fill:none;}</style></defs><rect class="cls-1" width="32" height="32"/><path d="M9.06,11.46H4.57V10.39H9.28A2.61,2.61,0,0,0,9.06,11.46Zm9.53,12.26a1.17,1.17,0,0,0,.54.16.79.79,0,0,0,.72-.76c0-.31,0-.37-.5-.66l-4.11-2.38.53-.91,5.83,3.39a.87.87,0,0,0,.54.15.8.8,0,0,0,.72-.75c0-.31-.07-.41-.5-.66l-5.08-2.94.53-.91L23.89,21a1.27,1.27,0,0,0,.54.16.79.79,0,0,0,.72-.76c0-.28-.1-.44-.51-.66l-5.48-3.19.53-.91,4.92,2.82a1.13,1.13,0,0,0,.54.15.78.78,0,0,0,.72-.75c0-.28-.1-.44-.5-.66l-8.5-5,1.06-.63,8,4.67A1.8,1.8,0,0,1,27,17.79a1.48,1.48,0,0,1-1.2,1.6,1.27,1.27,0,0,1,.44,1,1.75,1.75,0,0,1-1.78,1.76,1.39,1.39,0,0,1-.6-.13,1.79,1.79,0,0,1-1.73,1.76,2.32,2.32,0,0,1-1-.31l-.28-.16A1.72,1.72,0,0,1,19,24.94a2,2,0,0,1-1-.31l-6-3.45c-2-1.13-2.51-1.26-4.11-1.26H4.57V18.86H8.24A6.79,6.79,0,0,1,12.1,20ZM17,10.83l-3.82,2.26A1.94,1.94,0,0,1,12,13.4a1.81,1.81,0,0,1-1.82-1.82c0-.72.28-1.1,1.16-1.6L16.46,7c2,0,3,1.13,4.64,1.13a4.33,4.33,0,0,0,2.54-.84l2.79-1.7.54.91L23.89,8.41a5,5,0,0,1-2.79.82c-1.69,0-2.63-1-4.39-1.13l-5,2.89a.67.67,0,0,0-.43.59.73.73,0,0,0,.72.75,1.31,1.31,0,0,0,.69-.25L16.37,10Zm10.57,1.91.53.91-2.25,1.26-1.07-.6Z"/></svg>