<?xml version="1.0" encoding="UTF-8"?><svg xmlns="http://www.w3.org/2000/svg" width="24" height="24" viewBox="0 0 24 24"><defs><style>.c{fill:none;}</style></defs><g id="a"><rect class="c" width="24" height="24"/></g><g id="b"><path d="M11.01,14.84c-.65,0-.95,.3-.95,1.04v2.62c0,2.15-1.01,3.16-2.84,3.16s-2.81-1.01-2.81-3.16v-1.45H2.19v-6.31c-.61-.43-1.1-1.01-1.43-1.68-.32-.67-.47-1.42-.43-2.16C.33,4.08,2.08,2.35,4.87,2.35s4.54,1.74,4.54,4.54c.05,.74-.1,1.48-.42,2.14-.32,.67-.81,1.24-1.41,1.67v6.34h-2.05v1.45c0,1.55,.52,2.07,1.7,2.07s1.7-.47,1.7-2.07v-2.62c0-1.42,.62-2.1,1.93-2.1h3.79c.06,.36,.06,.73,0,1.09l-3.66-.03Zm-2.72-7.94c0-2.13-1.31-3.46-3.43-3.46s-3.4,1.31-3.4,3.46,1.31,3.43,3.4,3.43,3.43-1.32,3.43-3.44h0Zm-3.43,.93c-.13,0-.26,0-.38-.05-.12-.04-.23-.11-.32-.2-.09-.09-.16-.2-.21-.32-.05-.12-.07-.25-.06-.38v-.19l-.75-1,.57-.57,.95,.79h.19c.25,0,.49,.1,.67,.28,.18,.18,.28,.42,.28,.67s-.1,.5-.28,.67-.42,.28-.67,.28v.02Zm1.6,8.14v-4.74c-.52,.14-1.06,.22-1.6,.22-.53,0-1.06-.07-1.58-.22v4.74h3.18Zm4.77-3.32c0-6.51,.9-8.63,2.67-8.63h6.24c2.48,0,3.54,1.7,3.54,8.82s-1.01,8.8-3.46,8.8h-6.29c-1.5,0-2.45-1.61-2.7-5.67h1.13c.19,2.84,.85,4.54,1.55,4.54,.9,0,1.96-2.21,1.96-7.68s-.94-7.71-1.95-7.71-1.53,2.17-1.53,7.54h-1.17Zm5.67-7.54h-1.18c.79,1.2,1.28,3.57,1.28,7.73s-.57,6.51-1.33,7.71h1.23c.73-1.28,1.23-3.57,1.23-7.71s-.49-6.45-1.23-7.73h0Zm1.09,15.44h1.06c.81-1.25,1.29-3.62,1.29-7.71s-.48-6.45-1.3-7.73h-1.06c.82,1.2,1.25,3.48,1.25,7.73s-.44,6.51-1.25,7.7h0Zm3.57-14.79c-.08-.19-.21-.35-.38-.47-.17-.11-.37-.18-.58-.18h-.44c.87,1.17,1.31,3.35,1.31,7.73s-.44,6.54-1.31,7.71h.44c.21,0,.4-.07,.57-.18s.3-.28,.38-.47c.62-1.23,1.03-3.4,1.03-7.06s-.41-5.86-1.03-7.09h0Z"/></g></svg>