<?xml version="1.0" encoding="UTF-8"?><svg xmlns="http://www.w3.org/2000/svg" width="24" height="24" viewBox="0 0 24 24"><defs><style>.c{fill:none;}</style></defs><g id="a"><rect class="c" width="24" height="24"/></g><g id="b"><path d="M3,11.96c0-1.78,.54-3.51,1.54-4.99,.99-1.47,2.4-2.62,4.05-3.29,1.64-.67,3.45-.85,5.2-.49,1.74,.35,3.34,1.21,4.6,2.47,1.25,1.26,2.11,2.86,2.45,4.61,.34,1.74,.16,3.55-.52,5.19-.68,1.64-1.84,3.04-3.32,4.03-1.48,.99-3.22,1.51-5,1.51-1.19,0-2.36-.23-3.45-.69-1.1-.46-2.09-1.12-2.93-1.96-.84-.84-1.5-1.84-1.95-2.94-.45-1.1-.68-2.27-.67-3.46h0Zm10.77,7.66l-.43-1.66c-.46-1.73-.34-2.57,.64-3.3,.98-.73,1.98-.68,3.52,.31l1.29,.8c.5-.92,.82-1.92,.93-2.96l-1.54-.09c-1.79-.1-2.57-.56-2.96-1.73-.39-1.17,0-1.98,1.39-3.15l1.21-.99c-.73-.85-1.63-1.53-2.65-2l-.56,1.39c-.64,1.66-1.32,2.28-2.57,2.28s-1.93-.64-2.57-2.28l-.53-1.39c-1.02,.42-1.94,1.07-2.68,1.88l1.14,.99c1.39,1.14,1.76,1.97,1.39,3.12s-1.17,1.63-2.97,1.72l-1.54,.1c.1,1.09,.42,2.15,.93,3.12l1.33-.83c1.54-.99,2.53-1.05,3.52-.31s1.11,1.57,.64,3.3l-.42,1.7c.58,.12,1.17,.18,1.76,.18,.59,.02,1.18-.04,1.76-.18ZM6.95,8.99l-1.51-1.23c-.68,1.09-1.08,2.33-1.18,3.61l1.82-.12c.89-.06,1.29-.25,1.48-.77,.19-.52,.03-.93-.62-1.49Zm.46,6.85l-1.51,.96c.82,1.06,1.9,1.89,3.14,2.4l.46-1.88c.19-.89,.16-1.39-.31-1.72-.46-.33-.8-.37-1.79,.24h0Zm6.57-3.95c.01,.26-.03,.53-.12,.77-.1,.25-.24,.47-.43,.66-.19,.19-.41,.33-.65,.43s-.51,.14-.77,.12c-.26,.01-.53-.03-.77-.13-.25-.1-.47-.24-.66-.43-.19-.19-.34-.41-.43-.65-.1-.25-.15-.51-.14-.77-.01-.27,.03-.53,.13-.78s.24-.47,.43-.66c.19-.19,.41-.34,.66-.43,.25-.1,.51-.14,.78-.13,.27-.01,.53,.03,.78,.12,.25,.1,.47,.24,.66,.43,.19,.19,.33,.42,.42,.67,.09,.25,.13,.52,.11,.78h0Zm-.74-5.79l.68-1.73c-.63-.16-1.28-.25-1.93-.25-.62,0-1.25,.07-1.85,.22l.68,1.76c.31,.8,.64,1.11,1.2,1.11s.91-.26,1.21-1.06v-.05Zm-2.13,5.79c0,.12,.02,.24,.06,.35,.04,.11,.11,.21,.19,.29,.08,.08,.18,.15,.29,.19,.11,.04,.23,.07,.35,.07,.12,0,.24-.02,.34-.06,.11-.04,.21-.11,.29-.2,.08-.08,.14-.19,.18-.3,.04-.11,.06-.23,.05-.35,0-.12,0-.23-.05-.34-.04-.11-.11-.21-.19-.29-.08-.08-.18-.15-.29-.18s-.23-.06-.34-.05c-.12,0-.23,.02-.34,.06-.11,.04-.2,.11-.29,.19-.08,.08-.15,.17-.19,.28-.05,.11-.07,.22-.07,.33Zm3.4,5.43l.46,1.88c1.23-.52,2.3-1.35,3.12-2.4l-1.49-.96c-.98-.64-1.32-.55-1.79-.24-.46,.31-.5,.82-.31,1.72h0Zm3.39-5.95l1.85,.12c-.09-1.3-.49-2.56-1.17-3.67l-1.54,1.29c-.58,.49-.77,.93-.64,1.48,.13,.55,.64,.71,1.5,.78h0Z"/></g></svg>