<?xml version="1.0" encoding="UTF-8"?><svg xmlns="http://www.w3.org/2000/svg" width="24" height="24" viewBox="0 0 24 24"><defs><style>.c{fill:none;}</style></defs><g id="a"><rect class="c" width="24" height="24"/></g><g id="b"><path d="M1.65,11.94c.01-2.04,.63-4.04,1.77-5.73,1.14-1.69,2.76-3.01,4.65-3.79,1.89-.78,3.97-.97,5.97-.57,2,.4,3.84,1.39,5.28,2.84,1.44,1.45,2.43,3.29,2.82,5.29,.4,2,.19,4.08-.59,5.97-.78,1.89-2.1,3.5-3.8,4.64-1.7,1.14-3.69,1.75-5.74,1.75-1.37,0-2.72-.26-3.98-.79-1.26-.52-2.41-1.29-3.38-2.26-.96-.97-1.73-2.12-2.25-3.38-.52-1.26-.78-2.62-.77-3.99h0Zm19.6,0c-.01-1.82-.57-3.6-1.59-5.12-1.03-1.51-2.47-2.68-4.16-3.37-1.69-.69-3.55-.86-5.34-.49-1.79,.37-3.43,1.26-4.71,2.55-1.28,1.3-2.15,2.95-2.5,4.74-.35,1.79-.15,3.65,.55,5.33s1.89,3.12,3.42,4.13c1.52,1.01,3.31,1.54,5.13,1.53,1.22,0,2.42-.24,3.54-.71s2.14-1.16,3-2.02c.86-.87,1.53-1.89,1.99-3.02,.46-1.13,.68-2.34,.67-3.55Zm-17.3,.03c0-1.59,.49-3.14,1.38-4.46,.89-1.32,2.15-2.34,3.62-2.95,1.47-.6,3.09-.76,4.65-.44,1.56,.32,2.99,1.09,4.11,2.21,1.12,1.13,1.88,2.56,2.19,4.12,.31,1.56,.15,3.18-.46,4.65-.61,1.47-1.64,2.72-2.97,3.61-1.32,.88-2.88,1.35-4.47,1.35-1.06,0-2.11-.21-3.08-.61-.98-.41-1.87-1-2.61-1.75-.75-.75-1.34-1.64-1.74-2.62-.4-.98-.61-2.03-.61-3.09v-.02Zm9.63,6.87l-.39-1.49c-.41-1.55-.3-2.3,.57-2.96,.88-.66,1.77-.61,3.15,.28l1.15,.72c.45-.82,.73-1.72,.83-2.65l-1.38-.08c-1.6-.09-2.3-.5-2.65-1.55-.35-1.05,0-1.77,1.24-2.82l1.08-.89c-.65-.76-1.46-1.37-2.37-1.79l-.5,1.24c-.57,1.49-1.18,2.04-2.3,2.04s-1.72-.58-2.3-2.04l-.48-1.24c-.91,.38-1.73,.95-2.4,1.68l1.02,.89c1.24,1.02,1.58,1.76,1.24,2.79-.33,1.02-1.05,1.46-2.65,1.54l-1.38,.09c.09,.98,.37,1.92,.83,2.79l1.19-.75c1.38-.89,2.26-.94,3.15-.28,.88,.66,.99,1.41,.57,2.96l-.36,1.52c.51,.11,1.04,.16,1.57,.16,.53,.02,1.05-.04,1.56-.16h0ZM7.48,9.34l-1.35-1.1c-.61,.98-.97,2.09-1.05,3.23l1.63-.1c.8-.06,1.15-.22,1.32-.69,.17-.46,.03-.83-.55-1.33Zm.41,6.13l-1.35,.86c.73,.95,1.7,1.69,2.81,2.15l.41-1.68c.17-.8,.14-1.24-.28-1.54-.41-.3-.71-.33-1.6,.22h0Zm5.88-3.53c.01,.24-.02,.47-.11,.69s-.21,.42-.38,.59c-.17,.17-.37,.3-.59,.38-.22,.09-.46,.12-.69,.11-.24,0-.47-.03-.69-.11-.22-.09-.42-.22-.59-.38-.17-.17-.3-.36-.39-.58-.09-.22-.13-.45-.12-.69,0-.24,.03-.48,.12-.7,.09-.22,.22-.42,.39-.59s.37-.3,.59-.39c.22-.09,.46-.13,.7-.12,.24-.01,.48,.02,.7,.11,.22,.08,.42,.22,.59,.39,.17,.17,.3,.37,.38,.6,.08,.22,.12,.46,.1,.7h0Zm-.66-5.18l.61-1.55c-.56-.15-1.14-.22-1.73-.23-.56,0-1.12,.06-1.66,.2l.61,1.57c.28,.71,.57,.99,1.07,.99s.81-.24,1.09-.95v-.04Zm-1.9,5.18c0,.11,.02,.21,.06,.31,.04,.1,.1,.19,.17,.26,.07,.07,.16,.13,.26,.17,.1,.04,.2,.06,.31,.06,.11,0,.21-.01,.31-.05,.1-.04,.19-.1,.26-.18,.07-.08,.13-.17,.17-.27,.04-.1,.05-.21,.04-.31,0-.1,0-.21-.04-.3s-.09-.19-.17-.26c-.07-.07-.16-.13-.26-.16-.1-.04-.2-.05-.3-.04-.1,0-.21,.02-.3,.05-.1,.04-.18,.09-.26,.17-.07,.07-.13,.16-.18,.25-.04,.09-.06,.2-.06,.3h0Zm3.04,4.86l.41,1.68c1.1-.46,2.06-1.21,2.79-2.15l-1.33-.86c-.88-.57-1.18-.49-1.6-.22s-.44,.74-.28,1.54h0Zm3.04-5.32l1.66,.11c-.08-1.16-.44-2.29-1.05-3.28l-1.38,1.15c-.52,.44-.69,.83-.57,1.32,.12,.49,.57,.64,1.35,.7h0Z"/></g></svg>