<?xml version="1.0" encoding="UTF-8"?><svg xmlns="http://www.w3.org/2000/svg" width="24" height="24" viewBox="0 0 24 24"><defs><style>.c{fill:none;}</style></defs><g id="a"><rect class="c" width="24" height="24"/></g><g id="b"><path d="M10.11,18.56c-1.78,0-3.51-.53-4.99-1.51-1.48-.99-2.63-2.39-3.31-4.03-.68-1.64-.86-3.45-.52-5.19,.34-1.74,1.2-3.35,2.45-4.6,1.25-1.26,2.85-2.12,4.59-2.47,1.74-.35,3.55-.18,5.19,.49,1.64,.67,3.05,1.82,4.04,3.29,.99,1.47,1.53,3.21,1.54,4.98v.87l-2.78-.15c-1.79-.1-2.57-.56-2.95-1.73-.38-1.17,0-1.98,1.39-3.15l1.2-.99c-.75-.85-1.67-1.52-2.7-1.97l-.55,1.39c-.64,1.66-1.33,2.28-2.57,2.28s-1.93-.64-2.57-2.28l-.54-1.39c-1.02,.42-1.93,1.07-2.68,1.88l1.14,.99c1.39,1.14,1.76,1.97,1.39,3.11-.37,1.14-1.17,1.63-2.96,1.72l-1.54,.1c.08,1.09,.39,2.15,.89,3.12l1.33-.84c1.54-.99,2.53-1.05,3.51-.31,.98,.74,1.11,1.57,.64,3.3l-.4,1.7c.58,.12,1.16,.18,1.75,.18v1.21ZM5.06,6.56l-1.51-1.23c-.68,1.09-1.08,2.33-1.17,3.61l1.82-.12c.89-.06,1.28-.25,1.48-.77,.19-.52,.03-.93-.62-1.49Zm.46,6.85l-1.51,.96c.82,1.06,1.9,1.89,3.15,2.4l.46-1.88c.18-.89,.15-1.39-.31-1.72-.46-.33-.83-.37-1.79,.24Zm6.57-3.94c.01,.26-.03,.53-.12,.77-.1,.25-.24,.47-.43,.66-.19,.19-.41,.33-.66,.43-.25,.09-.51,.14-.77,.12-.26,.01-.53-.03-.77-.13-.25-.1-.47-.24-.66-.43-.19-.18-.34-.41-.43-.65-.1-.24-.15-.51-.14-.77-.01-.27,.03-.53,.13-.78,.1-.25,.24-.47,.43-.66,.19-.19,.41-.34,.66-.43s.51-.14,.78-.13c.27-.02,.53,.02,.78,.12,.25,.1,.48,.24,.66,.43,.19,.19,.33,.42,.42,.67,.09,.25,.13,.52,.11,.78h0Zm-.74-5.78l.68-1.73c-.63-.16-1.28-.25-1.93-.25-.62,0-1.24,.07-1.85,.22l.68,1.76c.31,.8,.64,1.1,1.2,1.1s.91-.26,1.21-1.06v-.04Zm-2.13,5.78c0,.12,.02,.24,.06,.35,.04,.11,.11,.21,.19,.29,.08,.08,.18,.15,.29,.19,.11,.04,.23,.07,.35,.07,.12,0,.24-.01,.35-.06,.11-.04,.21-.11,.29-.19,.08-.09,.14-.19,.18-.3,.04-.11,.06-.23,.05-.35,0-.11,0-.23-.05-.34-.04-.11-.1-.21-.19-.29-.08-.08-.18-.14-.29-.18-.11-.04-.22-.06-.34-.05-.11,0-.23,.02-.34,.06-.11,.04-.21,.1-.29,.18-.08,.08-.15,.18-.2,.28-.05,.11-.07,.22-.07,.33h0Zm7.99,13.96c-3.49,0-5.68-2.19-5.68-5.67s2.19-5.67,5.68-5.67,5.67,2.16,5.67,5.67-2.16,5.67-5.67,5.67Zm0-1.23c2.74,0,4.41-1.66,4.41-4.44s-1.64-4.44-4.41-4.44-4.41,1.66-4.41,4.44,1.66,4.44,4.41,4.44Zm.64-13.13c-.09-1.3-.49-2.56-1.17-3.67l-1.54,1.28c-.58,.49-.77,.93-.64,1.48,.13,.55,.64,.74,1.48,.8l1.88,.1Zm-.45,10.85h-1.06c-.52-.7-1.01-1.43-1.45-2.19l1.02-.74c.31,.52,.64,1.05,.96,1.6,.64-.98,1.17-1.93,1.82-3.17l1.05,.58c-.96,1.73-1.48,2.62-2.33,3.92Z"/></g></svg>