<svg id="Icones" xmlns="http://www.w3.org/2000/svg" width="32" height="32" viewBox="0 0 32 32"><defs><style>.cls-1{fill:none;}</style></defs><rect class="cls-1" width="32" height="32"/><path d="M27.13,12.55l-.91.85C23.06,10.2,20,8.85,16,8.85S8.94,10.2,5.78,13.4l-.91-.85C8.44,9.13,11.77,7.66,16,7.66S23.56,9.13,27.13,12.55ZM23.9,15.69,23,16.6c-2.26-2.33-4.26-3.27-7-3.27s-4.7.94-7,3.27l-.94-.91c2.57-2.48,4.92-3.55,7.9-3.55S21.33,13.21,23.9,15.69Zm-3.23,3.13-.91.85A5.05,5.05,0,0,0,16,17.79a5.05,5.05,0,0,0-3.76,1.88l-.91-.85c1.69-1.57,3-2.19,4.67-2.19S19,17.25,20.67,18.82ZM17,23.37a.86.86,0,0,1-1,1,.87.87,0,0,1-1-1,.86.86,0,0,1,1-1A.85.85,0,0,1,17,23.37Z"/></svg>