<svg id="Icones" xmlns="http://www.w3.org/2000/svg" width="32" height="32" viewBox="0 0 32 32"><defs><style>.cls-1{fill:none;}</style></defs><rect class="cls-1" width="32" height="32"/><path d="M20.48,20.42l1.82.47A52.71,52.71,0,0,0,26,13.65c-2-2.42-5.67-3.83-10-3.83S8,11.23,6,13.65a52.71,52.71,0,0,0,3.7,7.24,15.42,15.42,0,0,1,1.78-.47l.35,1c-1.1.25-1.95.47-2.7.72A65.33,65.33,0,0,1,4.8,13.43C7,10.48,11.17,8.72,16,8.72s9,1.76,11.2,4.71a65.33,65.33,0,0,1-4.33,8.72c-.69-.22-1.29-.38-2-.54ZM10.7,12.08c1.35,3.39,2.63,6.93,3.92,10.82l-1,.38c-1.35-4.14-2.64-7.69-4-10.82ZM14.84,20a11.58,11.58,0,0,1,2,0l.37,1.1a15.62,15.62,0,0,0-2.07,0Zm1.41-7.9C17.6,15.47,18.89,19,20.17,22.9l-1,.38c-1.35-4.14-2.64-7.69-4-10.82Z"/></svg>