<svg id="Icones" xmlns="http://www.w3.org/2000/svg" width="32" height="32" viewBox="0 0 32 32"><defs><style>.cls-1{fill:none;}</style></defs><rect class="cls-1" width="32" height="32"/><path d="M23.79,10.14c-2-1.63-5.27-2.58-8.9-2.58A14.53,14.53,0,0,0,6,10.14c1,2.63,2.07,5.11,3.2,7.4.53-.19.91-.29,1.22-.38l.38,1a19.58,19.58,0,0,0-2.13.6A78.31,78.31,0,0,1,4.79,9.82c2.29-2.1,6.05-3.32,10.1-3.32S22.73,7.72,25,9.82c-.5,1.38-1,2.57-1.44,3.67a5.36,5.36,0,0,0-1-.19C23,12.14,23.45,11.11,23.79,10.14ZM10,9.82c.94,2.42,1.81,4.67,2.6,7a19.7,19.7,0,0,1,2.26-.12h.75a7.12,7.12,0,0,0-.44,1.1h-.31c-.72,0-1.35,0-1.92.06l.66,2-1,.37c-1-3.23-2.2-6.43-3.64-10Zm4.29.38,1.07-.38c1.54,4,1.44,3.83,1.82,4.86a5.26,5.26,0,0,0-.85.85C15.8,13.93,15.17,12.27,14.32,10.2Zm7.31,15.3a5.2,5.2,0,0,1-5.58-5.58,5.18,5.18,0,0,1,5.58-5.58,5.17,5.17,0,0,1,5.58,5.58A5.17,5.17,0,0,1,21.63,25.5Zm0-1.06a4.15,4.15,0,0,0,4.48-4.52,4.15,4.15,0,0,0-4.48-4.52,4.15,4.15,0,0,0-4.49,4.52A4.15,4.15,0,0,0,21.63,24.44Zm.22-2.32h-1.1c-.69-1-1-1.54-1.47-2.23l.94-.53c.34.56.69,1.09,1.06,1.66.69-1.07,1.26-2.1,2-3.42l.94.53C23.29,19.76,22.76,20.67,21.85,22.12Z"/></svg>