<?xml version="1.0" encoding="UTF-8"?><svg xmlns="http://www.w3.org/2000/svg" width="24" height="24" viewBox="0 0 24 24"><defs><style>.c{fill:none;}</style></defs><g id="a"><rect class="c" width="24" height="24"/></g><g id="b"><path d="M12.37,8.62c.94,2.37,1.83,4.77,2.73,7.4,.84,.12,1.66,.29,2.48,.53,1.2-2.08,2.24-4.25,3.12-6.48-1.81-2.26-4.98-3.59-8.7-3.59s-6.87,1.34-8.7,3.59c.88,2.22,1.92,4.38,3.1,6.45,.5-.14,.95-.25,1.39-.33l.42,1.06c-.79,.15-1.56,.37-2.32,.64-1.49-2.55-2.77-5.22-3.83-7.98,1.95-2.87,5.65-4.56,9.94-4.56s8.02,1.66,9.94,4.56c-1.06,2.77-2.34,5.44-3.84,7.99-.86-.26-1.74-.47-2.59-.64,.11,.34,.22,.64,.34,.97l-1.06,.42c-1.19-3.67-2.32-6.82-3.51-9.6l1.09-.43Zm-4.93,0c.92,2.32,1.81,4.7,2.67,7.24,.67-.05,1.28-.08,1.89-.08h.58l.42,1.16h-1c-.5,0-1,0-1.5,.05,.14,.42,.28,.86,.42,1.28l-1.03,.37c-1.2-3.67-2.32-6.82-3.48-9.6l1.04-.42Z"/></g></svg>