<?xml version="1.0" encoding="UTF-8"?><svg xmlns="http://www.w3.org/2000/svg" width="24" height="24" viewBox="0 0 24 24"><defs><style>.c{fill:none;}</style></defs><g id="a"><rect class="c" width="24" height="24"/></g><g id="b"><path d="M18.82,9.39c.16-.36,.36-.83,.58-1.29-1.8-2.24-4.95-3.57-8.63-3.57s-6.82,1.33-8.63,3.57c.87,2.21,1.89,4.35,3.07,6.4,.5-.14,.97-.25,1.38-.33l.42,1.05c-.78,.15-1.55,.36-2.3,.64-1.49-2.53-2.76-5.18-3.8-7.92C2.83,5.06,6.5,3.4,10.76,3.4s7.95,1.66,9.86,4.54c-.19,.47-.44,1.1-.69,1.69l-1.11-.24ZM6.23,6.66c.91,2.3,1.8,4.67,2.65,7.18,.66-.05,1.27-.08,1.88-.08h.72l.41,1.15h-1.15c-.5,0-1,0-1.49,.05,.14,.41,.28,.86,.41,1.27l-1.05,.42c-1.19-3.64-2.3-6.77-3.45-9.53l1.07-.46Zm4.89,0c.64,1.63,1.27,3.29,1.91,5.03l-.72,1.35c-.72-2.1-1.49-4.11-2.27-5.97l1.08-.41Zm6.91,13.94c-3.12,0-5.09-1.96-5.09-5.08s1.96-5.08,5.09-5.08,5.08,1.93,5.08,5.08-1.93,5.08-5.08,5.08Zm0-1.1c2.46,0,3.95-1.49,3.95-3.98s-1.49-3.98-3.95-3.98-3.95,1.49-3.95,3.98,1.49,3.93,3.95,3.93v.05Zm.22-2.07h-1c-.47-.63-.91-1.28-1.31-1.96l.91-.66c.28,.47,.58,.94,.86,1.44,.58-.89,1.05-1.73,1.63-2.88l.94,.53c-.85,1.57-1.32,2.38-2.04,3.53Z"/></g></svg>