<?xml version="1.0" encoding="UTF-8"?><svg xmlns="http://www.w3.org/2000/svg" width="24" height="24" viewBox="0 0 24 24"><defs><style>.c{fill:none;}</style></defs><g id="a"><rect class="c" width="24" height="24"/></g><g id="b"><path d="M6.03,18.14c-1.47-2.5-2.73-5.11-3.77-7.82,1.91-2.81,5.54-4.47,9.74-4.47s7.86,1.63,9.74,4.47c-1.03,2.71-2.29,5.33-3.77,7.83-1.93-.63-3.94-.97-5.97-1.01-2.03,0-4.05,.34-5.97,1h0Zm11.4-1.34c1.17-2.03,2.19-4.15,3.06-6.32-1.77-2.18-4.9-3.49-8.48-3.49s-6.71,1.31-8.48,3.49c.87,2.18,1.89,4.29,3.06,6.32,1.77-.49,3.59-.75,5.43-.76,1.83,.01,3.66,.27,5.43,.76h0Z"/></g></svg>