<?xml version="1.0" encoding="UTF-8"?><svg xmlns="http://www.w3.org/2000/svg" width="24" height="24" viewBox="0 0 24 24"><defs><style>.c{fill:none;}</style></defs><g id="a"><rect class="c" width="24" height="24"/></g><g id="b"><path d="M17.47,10.39c.01,1.67-.57,3.3-1.64,4.59l5.23,5.23-.78,.81-5.26-5.26c-1.33,1.15-3.04,1.78-4.8,1.77-.97,0-1.92-.2-2.81-.57-.89-.38-1.7-.92-2.38-1.61-.68-.69-1.21-1.5-1.57-2.4-.36-.9-.54-1.86-.53-2.82,0-.95,.18-1.89,.55-2.76,.37-.88,.9-1.67,1.58-2.33,.68-.66,1.48-1.19,2.36-1.54,.88-.35,1.82-.52,2.77-.5,.97,0,1.93,.18,2.82,.55,.89,.37,1.7,.92,2.38,1.61,.68,.69,1.21,1.51,1.57,2.41,.36,.9,.53,1.86,.5,2.83h0Zm-7.32-6.27c-.8-.02-1.59,.12-2.33,.41s-1.42,.73-1.99,1.29c-.57,.56-1.02,1.22-1.32,1.96-.3,.74-.46,1.53-.45,2.32-.01,.82,.14,1.64,.44,2.4,.31,.76,.76,1.46,1.34,2.04,.58,.59,1.26,1.05,2.02,1.37,.76,.32,1.57,.48,2.39,.49,.8,.02,1.59-.12,2.33-.41,.74-.29,1.42-.73,1.99-1.29,.57-.56,1.02-1.23,1.32-1.96,.31-.74,.46-1.53,.45-2.32,.02-.82-.12-1.64-.43-2.41-.3-.77-.76-1.47-1.33-2.05-.58-.59-1.27-1.05-2.03-1.37-.76-.32-1.58-.47-2.4-.47h0Zm-2.79,6.7v-1.07h5.59v1.04l-5.59,.03Z"/></g></svg>